G04 #@! TF.GenerationSoftware,KiCad,Pcbnew,5.0.2-bee76a0~70~ubuntu18.04.1*
G04 #@! TF.CreationDate,2020-07-09T21:56:47-07:00*
G04 #@! TF.ProjectId,light_thing_hw,6c696768-745f-4746-9869-6e675f68772e,rev?*
G04 #@! TF.SameCoordinates,Original*
G04 #@! TF.FileFunction,Paste,Bot*
G04 #@! TF.FilePolarity,Positive*
%FSLAX46Y46*%
G04 Gerber Fmt 4.6, Leading zero omitted, Abs format (unit mm)*
G04 Created by KiCad (PCBNEW 5.0.2-bee76a0~70~ubuntu18.04.1) date Thu 09 Jul 2020 09:56:47 PM PDT*
%MOMM*%
%LPD*%
G01*
G04 APERTURE LIST*
%ADD10C,0.152400*%
%ADD11C,0.100000*%
%ADD12C,0.950000*%
%ADD13R,1.000000X1.000000*%
%ADD14C,0.800000*%
%ADD15C,2.100000*%
%ADD16R,0.800000X0.900000*%
%ADD17R,1.700000X0.900000*%
%ADD18R,0.797560X0.698500*%
%ADD19C,0.599440*%
%ADD20R,1.498600X0.304800*%
%ADD21R,1.060000X0.650000*%
%ADD22R,2.413000X3.098800*%
%ADD23R,1.460500X0.533400*%
%ADD24R,1.380000X0.450000*%
%ADD25R,2.100000X1.475000*%
%ADD26R,1.900000X2.375000*%
%ADD27R,1.900000X1.175000*%
%ADD28C,0.400000*%
G04 APERTURE END LIST*
D10*
G04 #@! TO.C,U5*
X135263500Y-90330000D02*
X137476500Y-90330000D01*
X135263500Y-91679400D02*
X135263500Y-90330000D01*
X137476500Y-91679400D02*
X135263500Y-91679400D01*
X137476500Y-90330000D02*
X137476500Y-91679400D01*
X135263500Y-88780600D02*
X137476500Y-88780600D01*
X135263500Y-90130000D02*
X135263500Y-88780600D01*
X137476500Y-90130000D02*
X135263500Y-90130000D01*
X137476500Y-88780600D02*
X137476500Y-90130000D01*
G04 #@! TD*
D11*
G04 #@! TO.C,C5*
G36*
X124597183Y-89717299D02*
X124620238Y-89720718D01*
X124642847Y-89726382D01*
X124664791Y-89734234D01*
X124685861Y-89744199D01*
X124705852Y-89756181D01*
X124724572Y-89770065D01*
X124741842Y-89785717D01*
X124757494Y-89802987D01*
X124771378Y-89821707D01*
X124783360Y-89841698D01*
X124793325Y-89862768D01*
X124801177Y-89884712D01*
X124806841Y-89907321D01*
X124810260Y-89930376D01*
X124811404Y-89953655D01*
X124811404Y-90428655D01*
X124810260Y-90451934D01*
X124806841Y-90474989D01*
X124801177Y-90497598D01*
X124793325Y-90519542D01*
X124783360Y-90540612D01*
X124771378Y-90560603D01*
X124757494Y-90579323D01*
X124741842Y-90596593D01*
X124724572Y-90612245D01*
X124705852Y-90626129D01*
X124685861Y-90638111D01*
X124664791Y-90648076D01*
X124642847Y-90655928D01*
X124620238Y-90661592D01*
X124597183Y-90665011D01*
X124573904Y-90666155D01*
X123998904Y-90666155D01*
X123975625Y-90665011D01*
X123952570Y-90661592D01*
X123929961Y-90655928D01*
X123908017Y-90648076D01*
X123886947Y-90638111D01*
X123866956Y-90626129D01*
X123848236Y-90612245D01*
X123830966Y-90596593D01*
X123815314Y-90579323D01*
X123801430Y-90560603D01*
X123789448Y-90540612D01*
X123779483Y-90519542D01*
X123771631Y-90497598D01*
X123765967Y-90474989D01*
X123762548Y-90451934D01*
X123761404Y-90428655D01*
X123761404Y-89953655D01*
X123762548Y-89930376D01*
X123765967Y-89907321D01*
X123771631Y-89884712D01*
X123779483Y-89862768D01*
X123789448Y-89841698D01*
X123801430Y-89821707D01*
X123815314Y-89802987D01*
X123830966Y-89785717D01*
X123848236Y-89770065D01*
X123866956Y-89756181D01*
X123886947Y-89744199D01*
X123908017Y-89734234D01*
X123929961Y-89726382D01*
X123952570Y-89720718D01*
X123975625Y-89717299D01*
X123998904Y-89716155D01*
X124573904Y-89716155D01*
X124597183Y-89717299D01*
X124597183Y-89717299D01*
G37*
D12*
X124286404Y-90191155D03*
D11*
G36*
X122847183Y-89717299D02*
X122870238Y-89720718D01*
X122892847Y-89726382D01*
X122914791Y-89734234D01*
X122935861Y-89744199D01*
X122955852Y-89756181D01*
X122974572Y-89770065D01*
X122991842Y-89785717D01*
X123007494Y-89802987D01*
X123021378Y-89821707D01*
X123033360Y-89841698D01*
X123043325Y-89862768D01*
X123051177Y-89884712D01*
X123056841Y-89907321D01*
X123060260Y-89930376D01*
X123061404Y-89953655D01*
X123061404Y-90428655D01*
X123060260Y-90451934D01*
X123056841Y-90474989D01*
X123051177Y-90497598D01*
X123043325Y-90519542D01*
X123033360Y-90540612D01*
X123021378Y-90560603D01*
X123007494Y-90579323D01*
X122991842Y-90596593D01*
X122974572Y-90612245D01*
X122955852Y-90626129D01*
X122935861Y-90638111D01*
X122914791Y-90648076D01*
X122892847Y-90655928D01*
X122870238Y-90661592D01*
X122847183Y-90665011D01*
X122823904Y-90666155D01*
X122248904Y-90666155D01*
X122225625Y-90665011D01*
X122202570Y-90661592D01*
X122179961Y-90655928D01*
X122158017Y-90648076D01*
X122136947Y-90638111D01*
X122116956Y-90626129D01*
X122098236Y-90612245D01*
X122080966Y-90596593D01*
X122065314Y-90579323D01*
X122051430Y-90560603D01*
X122039448Y-90540612D01*
X122029483Y-90519542D01*
X122021631Y-90497598D01*
X122015967Y-90474989D01*
X122012548Y-90451934D01*
X122011404Y-90428655D01*
X122011404Y-89953655D01*
X122012548Y-89930376D01*
X122015967Y-89907321D01*
X122021631Y-89884712D01*
X122029483Y-89862768D01*
X122039448Y-89841698D01*
X122051430Y-89821707D01*
X122065314Y-89802987D01*
X122080966Y-89785717D01*
X122098236Y-89770065D01*
X122116956Y-89756181D01*
X122136947Y-89744199D01*
X122158017Y-89734234D01*
X122179961Y-89726382D01*
X122202570Y-89720718D01*
X122225625Y-89717299D01*
X122248904Y-89716155D01*
X122823904Y-89716155D01*
X122847183Y-89717299D01*
X122847183Y-89717299D01*
G37*
D12*
X122536404Y-90191155D03*
G04 #@! TD*
D11*
G04 #@! TO.C,C6*
G36*
X117972183Y-91717299D02*
X117995238Y-91720718D01*
X118017847Y-91726382D01*
X118039791Y-91734234D01*
X118060861Y-91744199D01*
X118080852Y-91756181D01*
X118099572Y-91770065D01*
X118116842Y-91785717D01*
X118132494Y-91802987D01*
X118146378Y-91821707D01*
X118158360Y-91841698D01*
X118168325Y-91862768D01*
X118176177Y-91884712D01*
X118181841Y-91907321D01*
X118185260Y-91930376D01*
X118186404Y-91953655D01*
X118186404Y-92428655D01*
X118185260Y-92451934D01*
X118181841Y-92474989D01*
X118176177Y-92497598D01*
X118168325Y-92519542D01*
X118158360Y-92540612D01*
X118146378Y-92560603D01*
X118132494Y-92579323D01*
X118116842Y-92596593D01*
X118099572Y-92612245D01*
X118080852Y-92626129D01*
X118060861Y-92638111D01*
X118039791Y-92648076D01*
X118017847Y-92655928D01*
X117995238Y-92661592D01*
X117972183Y-92665011D01*
X117948904Y-92666155D01*
X117373904Y-92666155D01*
X117350625Y-92665011D01*
X117327570Y-92661592D01*
X117304961Y-92655928D01*
X117283017Y-92648076D01*
X117261947Y-92638111D01*
X117241956Y-92626129D01*
X117223236Y-92612245D01*
X117205966Y-92596593D01*
X117190314Y-92579323D01*
X117176430Y-92560603D01*
X117164448Y-92540612D01*
X117154483Y-92519542D01*
X117146631Y-92497598D01*
X117140967Y-92474989D01*
X117137548Y-92451934D01*
X117136404Y-92428655D01*
X117136404Y-91953655D01*
X117137548Y-91930376D01*
X117140967Y-91907321D01*
X117146631Y-91884712D01*
X117154483Y-91862768D01*
X117164448Y-91841698D01*
X117176430Y-91821707D01*
X117190314Y-91802987D01*
X117205966Y-91785717D01*
X117223236Y-91770065D01*
X117241956Y-91756181D01*
X117261947Y-91744199D01*
X117283017Y-91734234D01*
X117304961Y-91726382D01*
X117327570Y-91720718D01*
X117350625Y-91717299D01*
X117373904Y-91716155D01*
X117948904Y-91716155D01*
X117972183Y-91717299D01*
X117972183Y-91717299D01*
G37*
D12*
X117661404Y-92191155D03*
D11*
G36*
X119722183Y-91717299D02*
X119745238Y-91720718D01*
X119767847Y-91726382D01*
X119789791Y-91734234D01*
X119810861Y-91744199D01*
X119830852Y-91756181D01*
X119849572Y-91770065D01*
X119866842Y-91785717D01*
X119882494Y-91802987D01*
X119896378Y-91821707D01*
X119908360Y-91841698D01*
X119918325Y-91862768D01*
X119926177Y-91884712D01*
X119931841Y-91907321D01*
X119935260Y-91930376D01*
X119936404Y-91953655D01*
X119936404Y-92428655D01*
X119935260Y-92451934D01*
X119931841Y-92474989D01*
X119926177Y-92497598D01*
X119918325Y-92519542D01*
X119908360Y-92540612D01*
X119896378Y-92560603D01*
X119882494Y-92579323D01*
X119866842Y-92596593D01*
X119849572Y-92612245D01*
X119830852Y-92626129D01*
X119810861Y-92638111D01*
X119789791Y-92648076D01*
X119767847Y-92655928D01*
X119745238Y-92661592D01*
X119722183Y-92665011D01*
X119698904Y-92666155D01*
X119123904Y-92666155D01*
X119100625Y-92665011D01*
X119077570Y-92661592D01*
X119054961Y-92655928D01*
X119033017Y-92648076D01*
X119011947Y-92638111D01*
X118991956Y-92626129D01*
X118973236Y-92612245D01*
X118955966Y-92596593D01*
X118940314Y-92579323D01*
X118926430Y-92560603D01*
X118914448Y-92540612D01*
X118904483Y-92519542D01*
X118896631Y-92497598D01*
X118890967Y-92474989D01*
X118887548Y-92451934D01*
X118886404Y-92428655D01*
X118886404Y-91953655D01*
X118887548Y-91930376D01*
X118890967Y-91907321D01*
X118896631Y-91884712D01*
X118904483Y-91862768D01*
X118914448Y-91841698D01*
X118926430Y-91821707D01*
X118940314Y-91802987D01*
X118955966Y-91785717D01*
X118973236Y-91770065D01*
X118991956Y-91756181D01*
X119011947Y-91744199D01*
X119033017Y-91734234D01*
X119054961Y-91726382D01*
X119077570Y-91720718D01*
X119100625Y-91717299D01*
X119123904Y-91716155D01*
X119698904Y-91716155D01*
X119722183Y-91717299D01*
X119722183Y-91717299D01*
G37*
D12*
X119411404Y-92191155D03*
G04 #@! TD*
D11*
G04 #@! TO.C,C8*
G36*
X121180779Y-63386144D02*
X121203834Y-63389563D01*
X121226443Y-63395227D01*
X121248387Y-63403079D01*
X121269457Y-63413044D01*
X121289448Y-63425026D01*
X121308168Y-63438910D01*
X121325438Y-63454562D01*
X121341090Y-63471832D01*
X121354974Y-63490552D01*
X121366956Y-63510543D01*
X121376921Y-63531613D01*
X121384773Y-63553557D01*
X121390437Y-63576166D01*
X121393856Y-63599221D01*
X121395000Y-63622500D01*
X121395000Y-64097500D01*
X121393856Y-64120779D01*
X121390437Y-64143834D01*
X121384773Y-64166443D01*
X121376921Y-64188387D01*
X121366956Y-64209457D01*
X121354974Y-64229448D01*
X121341090Y-64248168D01*
X121325438Y-64265438D01*
X121308168Y-64281090D01*
X121289448Y-64294974D01*
X121269457Y-64306956D01*
X121248387Y-64316921D01*
X121226443Y-64324773D01*
X121203834Y-64330437D01*
X121180779Y-64333856D01*
X121157500Y-64335000D01*
X120582500Y-64335000D01*
X120559221Y-64333856D01*
X120536166Y-64330437D01*
X120513557Y-64324773D01*
X120491613Y-64316921D01*
X120470543Y-64306956D01*
X120450552Y-64294974D01*
X120431832Y-64281090D01*
X120414562Y-64265438D01*
X120398910Y-64248168D01*
X120385026Y-64229448D01*
X120373044Y-64209457D01*
X120363079Y-64188387D01*
X120355227Y-64166443D01*
X120349563Y-64143834D01*
X120346144Y-64120779D01*
X120345000Y-64097500D01*
X120345000Y-63622500D01*
X120346144Y-63599221D01*
X120349563Y-63576166D01*
X120355227Y-63553557D01*
X120363079Y-63531613D01*
X120373044Y-63510543D01*
X120385026Y-63490552D01*
X120398910Y-63471832D01*
X120414562Y-63454562D01*
X120431832Y-63438910D01*
X120450552Y-63425026D01*
X120470543Y-63413044D01*
X120491613Y-63403079D01*
X120513557Y-63395227D01*
X120536166Y-63389563D01*
X120559221Y-63386144D01*
X120582500Y-63385000D01*
X121157500Y-63385000D01*
X121180779Y-63386144D01*
X121180779Y-63386144D01*
G37*
D12*
X120870000Y-63860000D03*
D11*
G36*
X122930779Y-63386144D02*
X122953834Y-63389563D01*
X122976443Y-63395227D01*
X122998387Y-63403079D01*
X123019457Y-63413044D01*
X123039448Y-63425026D01*
X123058168Y-63438910D01*
X123075438Y-63454562D01*
X123091090Y-63471832D01*
X123104974Y-63490552D01*
X123116956Y-63510543D01*
X123126921Y-63531613D01*
X123134773Y-63553557D01*
X123140437Y-63576166D01*
X123143856Y-63599221D01*
X123145000Y-63622500D01*
X123145000Y-64097500D01*
X123143856Y-64120779D01*
X123140437Y-64143834D01*
X123134773Y-64166443D01*
X123126921Y-64188387D01*
X123116956Y-64209457D01*
X123104974Y-64229448D01*
X123091090Y-64248168D01*
X123075438Y-64265438D01*
X123058168Y-64281090D01*
X123039448Y-64294974D01*
X123019457Y-64306956D01*
X122998387Y-64316921D01*
X122976443Y-64324773D01*
X122953834Y-64330437D01*
X122930779Y-64333856D01*
X122907500Y-64335000D01*
X122332500Y-64335000D01*
X122309221Y-64333856D01*
X122286166Y-64330437D01*
X122263557Y-64324773D01*
X122241613Y-64316921D01*
X122220543Y-64306956D01*
X122200552Y-64294974D01*
X122181832Y-64281090D01*
X122164562Y-64265438D01*
X122148910Y-64248168D01*
X122135026Y-64229448D01*
X122123044Y-64209457D01*
X122113079Y-64188387D01*
X122105227Y-64166443D01*
X122099563Y-64143834D01*
X122096144Y-64120779D01*
X122095000Y-64097500D01*
X122095000Y-63622500D01*
X122096144Y-63599221D01*
X122099563Y-63576166D01*
X122105227Y-63553557D01*
X122113079Y-63531613D01*
X122123044Y-63510543D01*
X122135026Y-63490552D01*
X122148910Y-63471832D01*
X122164562Y-63454562D01*
X122181832Y-63438910D01*
X122200552Y-63425026D01*
X122220543Y-63413044D01*
X122241613Y-63403079D01*
X122263557Y-63395227D01*
X122286166Y-63389563D01*
X122309221Y-63386144D01*
X122332500Y-63385000D01*
X122907500Y-63385000D01*
X122930779Y-63386144D01*
X122930779Y-63386144D01*
G37*
D12*
X122620000Y-63860000D03*
G04 #@! TD*
D11*
G04 #@! TO.C,C10*
G36*
X128790779Y-63616144D02*
X128813834Y-63619563D01*
X128836443Y-63625227D01*
X128858387Y-63633079D01*
X128879457Y-63643044D01*
X128899448Y-63655026D01*
X128918168Y-63668910D01*
X128935438Y-63684562D01*
X128951090Y-63701832D01*
X128964974Y-63720552D01*
X128976956Y-63740543D01*
X128986921Y-63761613D01*
X128994773Y-63783557D01*
X129000437Y-63806166D01*
X129003856Y-63829221D01*
X129005000Y-63852500D01*
X129005000Y-64327500D01*
X129003856Y-64350779D01*
X129000437Y-64373834D01*
X128994773Y-64396443D01*
X128986921Y-64418387D01*
X128976956Y-64439457D01*
X128964974Y-64459448D01*
X128951090Y-64478168D01*
X128935438Y-64495438D01*
X128918168Y-64511090D01*
X128899448Y-64524974D01*
X128879457Y-64536956D01*
X128858387Y-64546921D01*
X128836443Y-64554773D01*
X128813834Y-64560437D01*
X128790779Y-64563856D01*
X128767500Y-64565000D01*
X128192500Y-64565000D01*
X128169221Y-64563856D01*
X128146166Y-64560437D01*
X128123557Y-64554773D01*
X128101613Y-64546921D01*
X128080543Y-64536956D01*
X128060552Y-64524974D01*
X128041832Y-64511090D01*
X128024562Y-64495438D01*
X128008910Y-64478168D01*
X127995026Y-64459448D01*
X127983044Y-64439457D01*
X127973079Y-64418387D01*
X127965227Y-64396443D01*
X127959563Y-64373834D01*
X127956144Y-64350779D01*
X127955000Y-64327500D01*
X127955000Y-63852500D01*
X127956144Y-63829221D01*
X127959563Y-63806166D01*
X127965227Y-63783557D01*
X127973079Y-63761613D01*
X127983044Y-63740543D01*
X127995026Y-63720552D01*
X128008910Y-63701832D01*
X128024562Y-63684562D01*
X128041832Y-63668910D01*
X128060552Y-63655026D01*
X128080543Y-63643044D01*
X128101613Y-63633079D01*
X128123557Y-63625227D01*
X128146166Y-63619563D01*
X128169221Y-63616144D01*
X128192500Y-63615000D01*
X128767500Y-63615000D01*
X128790779Y-63616144D01*
X128790779Y-63616144D01*
G37*
D12*
X128480000Y-64090000D03*
D11*
G36*
X130540779Y-63616144D02*
X130563834Y-63619563D01*
X130586443Y-63625227D01*
X130608387Y-63633079D01*
X130629457Y-63643044D01*
X130649448Y-63655026D01*
X130668168Y-63668910D01*
X130685438Y-63684562D01*
X130701090Y-63701832D01*
X130714974Y-63720552D01*
X130726956Y-63740543D01*
X130736921Y-63761613D01*
X130744773Y-63783557D01*
X130750437Y-63806166D01*
X130753856Y-63829221D01*
X130755000Y-63852500D01*
X130755000Y-64327500D01*
X130753856Y-64350779D01*
X130750437Y-64373834D01*
X130744773Y-64396443D01*
X130736921Y-64418387D01*
X130726956Y-64439457D01*
X130714974Y-64459448D01*
X130701090Y-64478168D01*
X130685438Y-64495438D01*
X130668168Y-64511090D01*
X130649448Y-64524974D01*
X130629457Y-64536956D01*
X130608387Y-64546921D01*
X130586443Y-64554773D01*
X130563834Y-64560437D01*
X130540779Y-64563856D01*
X130517500Y-64565000D01*
X129942500Y-64565000D01*
X129919221Y-64563856D01*
X129896166Y-64560437D01*
X129873557Y-64554773D01*
X129851613Y-64546921D01*
X129830543Y-64536956D01*
X129810552Y-64524974D01*
X129791832Y-64511090D01*
X129774562Y-64495438D01*
X129758910Y-64478168D01*
X129745026Y-64459448D01*
X129733044Y-64439457D01*
X129723079Y-64418387D01*
X129715227Y-64396443D01*
X129709563Y-64373834D01*
X129706144Y-64350779D01*
X129705000Y-64327500D01*
X129705000Y-63852500D01*
X129706144Y-63829221D01*
X129709563Y-63806166D01*
X129715227Y-63783557D01*
X129723079Y-63761613D01*
X129733044Y-63740543D01*
X129745026Y-63720552D01*
X129758910Y-63701832D01*
X129774562Y-63684562D01*
X129791832Y-63668910D01*
X129810552Y-63655026D01*
X129830543Y-63643044D01*
X129851613Y-63633079D01*
X129873557Y-63625227D01*
X129896166Y-63619563D01*
X129919221Y-63616144D01*
X129942500Y-63615000D01*
X130517500Y-63615000D01*
X130540779Y-63616144D01*
X130540779Y-63616144D01*
G37*
D12*
X130230000Y-64090000D03*
G04 #@! TD*
D11*
G04 #@! TO.C,C11*
G36*
X144390779Y-61825540D02*
X144413834Y-61828959D01*
X144436443Y-61834623D01*
X144458387Y-61842475D01*
X144479457Y-61852440D01*
X144499448Y-61864422D01*
X144518168Y-61878306D01*
X144535438Y-61893958D01*
X144551090Y-61911228D01*
X144564974Y-61929948D01*
X144576956Y-61949939D01*
X144586921Y-61971009D01*
X144594773Y-61992953D01*
X144600437Y-62015562D01*
X144603856Y-62038617D01*
X144605000Y-62061896D01*
X144605000Y-62536896D01*
X144603856Y-62560175D01*
X144600437Y-62583230D01*
X144594773Y-62605839D01*
X144586921Y-62627783D01*
X144576956Y-62648853D01*
X144564974Y-62668844D01*
X144551090Y-62687564D01*
X144535438Y-62704834D01*
X144518168Y-62720486D01*
X144499448Y-62734370D01*
X144479457Y-62746352D01*
X144458387Y-62756317D01*
X144436443Y-62764169D01*
X144413834Y-62769833D01*
X144390779Y-62773252D01*
X144367500Y-62774396D01*
X143792500Y-62774396D01*
X143769221Y-62773252D01*
X143746166Y-62769833D01*
X143723557Y-62764169D01*
X143701613Y-62756317D01*
X143680543Y-62746352D01*
X143660552Y-62734370D01*
X143641832Y-62720486D01*
X143624562Y-62704834D01*
X143608910Y-62687564D01*
X143595026Y-62668844D01*
X143583044Y-62648853D01*
X143573079Y-62627783D01*
X143565227Y-62605839D01*
X143559563Y-62583230D01*
X143556144Y-62560175D01*
X143555000Y-62536896D01*
X143555000Y-62061896D01*
X143556144Y-62038617D01*
X143559563Y-62015562D01*
X143565227Y-61992953D01*
X143573079Y-61971009D01*
X143583044Y-61949939D01*
X143595026Y-61929948D01*
X143608910Y-61911228D01*
X143624562Y-61893958D01*
X143641832Y-61878306D01*
X143660552Y-61864422D01*
X143680543Y-61852440D01*
X143701613Y-61842475D01*
X143723557Y-61834623D01*
X143746166Y-61828959D01*
X143769221Y-61825540D01*
X143792500Y-61824396D01*
X144367500Y-61824396D01*
X144390779Y-61825540D01*
X144390779Y-61825540D01*
G37*
D12*
X144080000Y-62299396D03*
D11*
G36*
X142640779Y-61825540D02*
X142663834Y-61828959D01*
X142686443Y-61834623D01*
X142708387Y-61842475D01*
X142729457Y-61852440D01*
X142749448Y-61864422D01*
X142768168Y-61878306D01*
X142785438Y-61893958D01*
X142801090Y-61911228D01*
X142814974Y-61929948D01*
X142826956Y-61949939D01*
X142836921Y-61971009D01*
X142844773Y-61992953D01*
X142850437Y-62015562D01*
X142853856Y-62038617D01*
X142855000Y-62061896D01*
X142855000Y-62536896D01*
X142853856Y-62560175D01*
X142850437Y-62583230D01*
X142844773Y-62605839D01*
X142836921Y-62627783D01*
X142826956Y-62648853D01*
X142814974Y-62668844D01*
X142801090Y-62687564D01*
X142785438Y-62704834D01*
X142768168Y-62720486D01*
X142749448Y-62734370D01*
X142729457Y-62746352D01*
X142708387Y-62756317D01*
X142686443Y-62764169D01*
X142663834Y-62769833D01*
X142640779Y-62773252D01*
X142617500Y-62774396D01*
X142042500Y-62774396D01*
X142019221Y-62773252D01*
X141996166Y-62769833D01*
X141973557Y-62764169D01*
X141951613Y-62756317D01*
X141930543Y-62746352D01*
X141910552Y-62734370D01*
X141891832Y-62720486D01*
X141874562Y-62704834D01*
X141858910Y-62687564D01*
X141845026Y-62668844D01*
X141833044Y-62648853D01*
X141823079Y-62627783D01*
X141815227Y-62605839D01*
X141809563Y-62583230D01*
X141806144Y-62560175D01*
X141805000Y-62536896D01*
X141805000Y-62061896D01*
X141806144Y-62038617D01*
X141809563Y-62015562D01*
X141815227Y-61992953D01*
X141823079Y-61971009D01*
X141833044Y-61949939D01*
X141845026Y-61929948D01*
X141858910Y-61911228D01*
X141874562Y-61893958D01*
X141891832Y-61878306D01*
X141910552Y-61864422D01*
X141930543Y-61852440D01*
X141951613Y-61842475D01*
X141973557Y-61834623D01*
X141996166Y-61828959D01*
X142019221Y-61825540D01*
X142042500Y-61824396D01*
X142617500Y-61824396D01*
X142640779Y-61825540D01*
X142640779Y-61825540D01*
G37*
D12*
X142330000Y-62299396D03*
G04 #@! TD*
D11*
G04 #@! TO.C,C12*
G36*
X130540779Y-65526144D02*
X130563834Y-65529563D01*
X130586443Y-65535227D01*
X130608387Y-65543079D01*
X130629457Y-65553044D01*
X130649448Y-65565026D01*
X130668168Y-65578910D01*
X130685438Y-65594562D01*
X130701090Y-65611832D01*
X130714974Y-65630552D01*
X130726956Y-65650543D01*
X130736921Y-65671613D01*
X130744773Y-65693557D01*
X130750437Y-65716166D01*
X130753856Y-65739221D01*
X130755000Y-65762500D01*
X130755000Y-66237500D01*
X130753856Y-66260779D01*
X130750437Y-66283834D01*
X130744773Y-66306443D01*
X130736921Y-66328387D01*
X130726956Y-66349457D01*
X130714974Y-66369448D01*
X130701090Y-66388168D01*
X130685438Y-66405438D01*
X130668168Y-66421090D01*
X130649448Y-66434974D01*
X130629457Y-66446956D01*
X130608387Y-66456921D01*
X130586443Y-66464773D01*
X130563834Y-66470437D01*
X130540779Y-66473856D01*
X130517500Y-66475000D01*
X129942500Y-66475000D01*
X129919221Y-66473856D01*
X129896166Y-66470437D01*
X129873557Y-66464773D01*
X129851613Y-66456921D01*
X129830543Y-66446956D01*
X129810552Y-66434974D01*
X129791832Y-66421090D01*
X129774562Y-66405438D01*
X129758910Y-66388168D01*
X129745026Y-66369448D01*
X129733044Y-66349457D01*
X129723079Y-66328387D01*
X129715227Y-66306443D01*
X129709563Y-66283834D01*
X129706144Y-66260779D01*
X129705000Y-66237500D01*
X129705000Y-65762500D01*
X129706144Y-65739221D01*
X129709563Y-65716166D01*
X129715227Y-65693557D01*
X129723079Y-65671613D01*
X129733044Y-65650543D01*
X129745026Y-65630552D01*
X129758910Y-65611832D01*
X129774562Y-65594562D01*
X129791832Y-65578910D01*
X129810552Y-65565026D01*
X129830543Y-65553044D01*
X129851613Y-65543079D01*
X129873557Y-65535227D01*
X129896166Y-65529563D01*
X129919221Y-65526144D01*
X129942500Y-65525000D01*
X130517500Y-65525000D01*
X130540779Y-65526144D01*
X130540779Y-65526144D01*
G37*
D12*
X130230000Y-66000000D03*
D11*
G36*
X128790779Y-65526144D02*
X128813834Y-65529563D01*
X128836443Y-65535227D01*
X128858387Y-65543079D01*
X128879457Y-65553044D01*
X128899448Y-65565026D01*
X128918168Y-65578910D01*
X128935438Y-65594562D01*
X128951090Y-65611832D01*
X128964974Y-65630552D01*
X128976956Y-65650543D01*
X128986921Y-65671613D01*
X128994773Y-65693557D01*
X129000437Y-65716166D01*
X129003856Y-65739221D01*
X129005000Y-65762500D01*
X129005000Y-66237500D01*
X129003856Y-66260779D01*
X129000437Y-66283834D01*
X128994773Y-66306443D01*
X128986921Y-66328387D01*
X128976956Y-66349457D01*
X128964974Y-66369448D01*
X128951090Y-66388168D01*
X128935438Y-66405438D01*
X128918168Y-66421090D01*
X128899448Y-66434974D01*
X128879457Y-66446956D01*
X128858387Y-66456921D01*
X128836443Y-66464773D01*
X128813834Y-66470437D01*
X128790779Y-66473856D01*
X128767500Y-66475000D01*
X128192500Y-66475000D01*
X128169221Y-66473856D01*
X128146166Y-66470437D01*
X128123557Y-66464773D01*
X128101613Y-66456921D01*
X128080543Y-66446956D01*
X128060552Y-66434974D01*
X128041832Y-66421090D01*
X128024562Y-66405438D01*
X128008910Y-66388168D01*
X127995026Y-66369448D01*
X127983044Y-66349457D01*
X127973079Y-66328387D01*
X127965227Y-66306443D01*
X127959563Y-66283834D01*
X127956144Y-66260779D01*
X127955000Y-66237500D01*
X127955000Y-65762500D01*
X127956144Y-65739221D01*
X127959563Y-65716166D01*
X127965227Y-65693557D01*
X127973079Y-65671613D01*
X127983044Y-65650543D01*
X127995026Y-65630552D01*
X128008910Y-65611832D01*
X128024562Y-65594562D01*
X128041832Y-65578910D01*
X128060552Y-65565026D01*
X128080543Y-65553044D01*
X128101613Y-65543079D01*
X128123557Y-65535227D01*
X128146166Y-65529563D01*
X128169221Y-65526144D01*
X128192500Y-65525000D01*
X128767500Y-65525000D01*
X128790779Y-65526144D01*
X128790779Y-65526144D01*
G37*
D12*
X128480000Y-66000000D03*
G04 #@! TD*
D11*
G04 #@! TO.C,C13*
G36*
X115130779Y-85526144D02*
X115153834Y-85529563D01*
X115176443Y-85535227D01*
X115198387Y-85543079D01*
X115219457Y-85553044D01*
X115239448Y-85565026D01*
X115258168Y-85578910D01*
X115275438Y-85594562D01*
X115291090Y-85611832D01*
X115304974Y-85630552D01*
X115316956Y-85650543D01*
X115326921Y-85671613D01*
X115334773Y-85693557D01*
X115340437Y-85716166D01*
X115343856Y-85739221D01*
X115345000Y-85762500D01*
X115345000Y-86237500D01*
X115343856Y-86260779D01*
X115340437Y-86283834D01*
X115334773Y-86306443D01*
X115326921Y-86328387D01*
X115316956Y-86349457D01*
X115304974Y-86369448D01*
X115291090Y-86388168D01*
X115275438Y-86405438D01*
X115258168Y-86421090D01*
X115239448Y-86434974D01*
X115219457Y-86446956D01*
X115198387Y-86456921D01*
X115176443Y-86464773D01*
X115153834Y-86470437D01*
X115130779Y-86473856D01*
X115107500Y-86475000D01*
X114532500Y-86475000D01*
X114509221Y-86473856D01*
X114486166Y-86470437D01*
X114463557Y-86464773D01*
X114441613Y-86456921D01*
X114420543Y-86446956D01*
X114400552Y-86434974D01*
X114381832Y-86421090D01*
X114364562Y-86405438D01*
X114348910Y-86388168D01*
X114335026Y-86369448D01*
X114323044Y-86349457D01*
X114313079Y-86328387D01*
X114305227Y-86306443D01*
X114299563Y-86283834D01*
X114296144Y-86260779D01*
X114295000Y-86237500D01*
X114295000Y-85762500D01*
X114296144Y-85739221D01*
X114299563Y-85716166D01*
X114305227Y-85693557D01*
X114313079Y-85671613D01*
X114323044Y-85650543D01*
X114335026Y-85630552D01*
X114348910Y-85611832D01*
X114364562Y-85594562D01*
X114381832Y-85578910D01*
X114400552Y-85565026D01*
X114420543Y-85553044D01*
X114441613Y-85543079D01*
X114463557Y-85535227D01*
X114486166Y-85529563D01*
X114509221Y-85526144D01*
X114532500Y-85525000D01*
X115107500Y-85525000D01*
X115130779Y-85526144D01*
X115130779Y-85526144D01*
G37*
D12*
X114820000Y-86000000D03*
D11*
G36*
X113380779Y-85526144D02*
X113403834Y-85529563D01*
X113426443Y-85535227D01*
X113448387Y-85543079D01*
X113469457Y-85553044D01*
X113489448Y-85565026D01*
X113508168Y-85578910D01*
X113525438Y-85594562D01*
X113541090Y-85611832D01*
X113554974Y-85630552D01*
X113566956Y-85650543D01*
X113576921Y-85671613D01*
X113584773Y-85693557D01*
X113590437Y-85716166D01*
X113593856Y-85739221D01*
X113595000Y-85762500D01*
X113595000Y-86237500D01*
X113593856Y-86260779D01*
X113590437Y-86283834D01*
X113584773Y-86306443D01*
X113576921Y-86328387D01*
X113566956Y-86349457D01*
X113554974Y-86369448D01*
X113541090Y-86388168D01*
X113525438Y-86405438D01*
X113508168Y-86421090D01*
X113489448Y-86434974D01*
X113469457Y-86446956D01*
X113448387Y-86456921D01*
X113426443Y-86464773D01*
X113403834Y-86470437D01*
X113380779Y-86473856D01*
X113357500Y-86475000D01*
X112782500Y-86475000D01*
X112759221Y-86473856D01*
X112736166Y-86470437D01*
X112713557Y-86464773D01*
X112691613Y-86456921D01*
X112670543Y-86446956D01*
X112650552Y-86434974D01*
X112631832Y-86421090D01*
X112614562Y-86405438D01*
X112598910Y-86388168D01*
X112585026Y-86369448D01*
X112573044Y-86349457D01*
X112563079Y-86328387D01*
X112555227Y-86306443D01*
X112549563Y-86283834D01*
X112546144Y-86260779D01*
X112545000Y-86237500D01*
X112545000Y-85762500D01*
X112546144Y-85739221D01*
X112549563Y-85716166D01*
X112555227Y-85693557D01*
X112563079Y-85671613D01*
X112573044Y-85650543D01*
X112585026Y-85630552D01*
X112598910Y-85611832D01*
X112614562Y-85594562D01*
X112631832Y-85578910D01*
X112650552Y-85565026D01*
X112670543Y-85553044D01*
X112691613Y-85543079D01*
X112713557Y-85535227D01*
X112736166Y-85529563D01*
X112759221Y-85526144D01*
X112782500Y-85525000D01*
X113357500Y-85525000D01*
X113380779Y-85526144D01*
X113380779Y-85526144D01*
G37*
D12*
X113070000Y-86000000D03*
G04 #@! TD*
D11*
G04 #@! TO.C,C14*
G36*
X131800779Y-90286144D02*
X131823834Y-90289563D01*
X131846443Y-90295227D01*
X131868387Y-90303079D01*
X131889457Y-90313044D01*
X131909448Y-90325026D01*
X131928168Y-90338910D01*
X131945438Y-90354562D01*
X131961090Y-90371832D01*
X131974974Y-90390552D01*
X131986956Y-90410543D01*
X131996921Y-90431613D01*
X132004773Y-90453557D01*
X132010437Y-90476166D01*
X132013856Y-90499221D01*
X132015000Y-90522500D01*
X132015000Y-91097500D01*
X132013856Y-91120779D01*
X132010437Y-91143834D01*
X132004773Y-91166443D01*
X131996921Y-91188387D01*
X131986956Y-91209457D01*
X131974974Y-91229448D01*
X131961090Y-91248168D01*
X131945438Y-91265438D01*
X131928168Y-91281090D01*
X131909448Y-91294974D01*
X131889457Y-91306956D01*
X131868387Y-91316921D01*
X131846443Y-91324773D01*
X131823834Y-91330437D01*
X131800779Y-91333856D01*
X131777500Y-91335000D01*
X131302500Y-91335000D01*
X131279221Y-91333856D01*
X131256166Y-91330437D01*
X131233557Y-91324773D01*
X131211613Y-91316921D01*
X131190543Y-91306956D01*
X131170552Y-91294974D01*
X131151832Y-91281090D01*
X131134562Y-91265438D01*
X131118910Y-91248168D01*
X131105026Y-91229448D01*
X131093044Y-91209457D01*
X131083079Y-91188387D01*
X131075227Y-91166443D01*
X131069563Y-91143834D01*
X131066144Y-91120779D01*
X131065000Y-91097500D01*
X131065000Y-90522500D01*
X131066144Y-90499221D01*
X131069563Y-90476166D01*
X131075227Y-90453557D01*
X131083079Y-90431613D01*
X131093044Y-90410543D01*
X131105026Y-90390552D01*
X131118910Y-90371832D01*
X131134562Y-90354562D01*
X131151832Y-90338910D01*
X131170552Y-90325026D01*
X131190543Y-90313044D01*
X131211613Y-90303079D01*
X131233557Y-90295227D01*
X131256166Y-90289563D01*
X131279221Y-90286144D01*
X131302500Y-90285000D01*
X131777500Y-90285000D01*
X131800779Y-90286144D01*
X131800779Y-90286144D01*
G37*
D12*
X131540000Y-90810000D03*
D11*
G36*
X131800779Y-92036144D02*
X131823834Y-92039563D01*
X131846443Y-92045227D01*
X131868387Y-92053079D01*
X131889457Y-92063044D01*
X131909448Y-92075026D01*
X131928168Y-92088910D01*
X131945438Y-92104562D01*
X131961090Y-92121832D01*
X131974974Y-92140552D01*
X131986956Y-92160543D01*
X131996921Y-92181613D01*
X132004773Y-92203557D01*
X132010437Y-92226166D01*
X132013856Y-92249221D01*
X132015000Y-92272500D01*
X132015000Y-92847500D01*
X132013856Y-92870779D01*
X132010437Y-92893834D01*
X132004773Y-92916443D01*
X131996921Y-92938387D01*
X131986956Y-92959457D01*
X131974974Y-92979448D01*
X131961090Y-92998168D01*
X131945438Y-93015438D01*
X131928168Y-93031090D01*
X131909448Y-93044974D01*
X131889457Y-93056956D01*
X131868387Y-93066921D01*
X131846443Y-93074773D01*
X131823834Y-93080437D01*
X131800779Y-93083856D01*
X131777500Y-93085000D01*
X131302500Y-93085000D01*
X131279221Y-93083856D01*
X131256166Y-93080437D01*
X131233557Y-93074773D01*
X131211613Y-93066921D01*
X131190543Y-93056956D01*
X131170552Y-93044974D01*
X131151832Y-93031090D01*
X131134562Y-93015438D01*
X131118910Y-92998168D01*
X131105026Y-92979448D01*
X131093044Y-92959457D01*
X131083079Y-92938387D01*
X131075227Y-92916443D01*
X131069563Y-92893834D01*
X131066144Y-92870779D01*
X131065000Y-92847500D01*
X131065000Y-92272500D01*
X131066144Y-92249221D01*
X131069563Y-92226166D01*
X131075227Y-92203557D01*
X131083079Y-92181613D01*
X131093044Y-92160543D01*
X131105026Y-92140552D01*
X131118910Y-92121832D01*
X131134562Y-92104562D01*
X131151832Y-92088910D01*
X131170552Y-92075026D01*
X131190543Y-92063044D01*
X131211613Y-92053079D01*
X131233557Y-92045227D01*
X131256166Y-92039563D01*
X131279221Y-92036144D01*
X131302500Y-92035000D01*
X131777500Y-92035000D01*
X131800779Y-92036144D01*
X131800779Y-92036144D01*
G37*
D12*
X131540000Y-92560000D03*
G04 #@! TD*
D11*
G04 #@! TO.C,C15*
G36*
X141800779Y-89476144D02*
X141823834Y-89479563D01*
X141846443Y-89485227D01*
X141868387Y-89493079D01*
X141889457Y-89503044D01*
X141909448Y-89515026D01*
X141928168Y-89528910D01*
X141945438Y-89544562D01*
X141961090Y-89561832D01*
X141974974Y-89580552D01*
X141986956Y-89600543D01*
X141996921Y-89621613D01*
X142004773Y-89643557D01*
X142010437Y-89666166D01*
X142013856Y-89689221D01*
X142015000Y-89712500D01*
X142015000Y-90187500D01*
X142013856Y-90210779D01*
X142010437Y-90233834D01*
X142004773Y-90256443D01*
X141996921Y-90278387D01*
X141986956Y-90299457D01*
X141974974Y-90319448D01*
X141961090Y-90338168D01*
X141945438Y-90355438D01*
X141928168Y-90371090D01*
X141909448Y-90384974D01*
X141889457Y-90396956D01*
X141868387Y-90406921D01*
X141846443Y-90414773D01*
X141823834Y-90420437D01*
X141800779Y-90423856D01*
X141777500Y-90425000D01*
X141202500Y-90425000D01*
X141179221Y-90423856D01*
X141156166Y-90420437D01*
X141133557Y-90414773D01*
X141111613Y-90406921D01*
X141090543Y-90396956D01*
X141070552Y-90384974D01*
X141051832Y-90371090D01*
X141034562Y-90355438D01*
X141018910Y-90338168D01*
X141005026Y-90319448D01*
X140993044Y-90299457D01*
X140983079Y-90278387D01*
X140975227Y-90256443D01*
X140969563Y-90233834D01*
X140966144Y-90210779D01*
X140965000Y-90187500D01*
X140965000Y-89712500D01*
X140966144Y-89689221D01*
X140969563Y-89666166D01*
X140975227Y-89643557D01*
X140983079Y-89621613D01*
X140993044Y-89600543D01*
X141005026Y-89580552D01*
X141018910Y-89561832D01*
X141034562Y-89544562D01*
X141051832Y-89528910D01*
X141070552Y-89515026D01*
X141090543Y-89503044D01*
X141111613Y-89493079D01*
X141133557Y-89485227D01*
X141156166Y-89479563D01*
X141179221Y-89476144D01*
X141202500Y-89475000D01*
X141777500Y-89475000D01*
X141800779Y-89476144D01*
X141800779Y-89476144D01*
G37*
D12*
X141490000Y-89950000D03*
D11*
G36*
X143550779Y-89476144D02*
X143573834Y-89479563D01*
X143596443Y-89485227D01*
X143618387Y-89493079D01*
X143639457Y-89503044D01*
X143659448Y-89515026D01*
X143678168Y-89528910D01*
X143695438Y-89544562D01*
X143711090Y-89561832D01*
X143724974Y-89580552D01*
X143736956Y-89600543D01*
X143746921Y-89621613D01*
X143754773Y-89643557D01*
X143760437Y-89666166D01*
X143763856Y-89689221D01*
X143765000Y-89712500D01*
X143765000Y-90187500D01*
X143763856Y-90210779D01*
X143760437Y-90233834D01*
X143754773Y-90256443D01*
X143746921Y-90278387D01*
X143736956Y-90299457D01*
X143724974Y-90319448D01*
X143711090Y-90338168D01*
X143695438Y-90355438D01*
X143678168Y-90371090D01*
X143659448Y-90384974D01*
X143639457Y-90396956D01*
X143618387Y-90406921D01*
X143596443Y-90414773D01*
X143573834Y-90420437D01*
X143550779Y-90423856D01*
X143527500Y-90425000D01*
X142952500Y-90425000D01*
X142929221Y-90423856D01*
X142906166Y-90420437D01*
X142883557Y-90414773D01*
X142861613Y-90406921D01*
X142840543Y-90396956D01*
X142820552Y-90384974D01*
X142801832Y-90371090D01*
X142784562Y-90355438D01*
X142768910Y-90338168D01*
X142755026Y-90319448D01*
X142743044Y-90299457D01*
X142733079Y-90278387D01*
X142725227Y-90256443D01*
X142719563Y-90233834D01*
X142716144Y-90210779D01*
X142715000Y-90187500D01*
X142715000Y-89712500D01*
X142716144Y-89689221D01*
X142719563Y-89666166D01*
X142725227Y-89643557D01*
X142733079Y-89621613D01*
X142743044Y-89600543D01*
X142755026Y-89580552D01*
X142768910Y-89561832D01*
X142784562Y-89544562D01*
X142801832Y-89528910D01*
X142820552Y-89515026D01*
X142840543Y-89503044D01*
X142861613Y-89493079D01*
X142883557Y-89485227D01*
X142906166Y-89479563D01*
X142929221Y-89476144D01*
X142952500Y-89475000D01*
X143527500Y-89475000D01*
X143550779Y-89476144D01*
X143550779Y-89476144D01*
G37*
D12*
X143240000Y-89950000D03*
G04 #@! TD*
D11*
G04 #@! TO.C,C18*
G36*
X143555779Y-87756144D02*
X143578834Y-87759563D01*
X143601443Y-87765227D01*
X143623387Y-87773079D01*
X143644457Y-87783044D01*
X143664448Y-87795026D01*
X143683168Y-87808910D01*
X143700438Y-87824562D01*
X143716090Y-87841832D01*
X143729974Y-87860552D01*
X143741956Y-87880543D01*
X143751921Y-87901613D01*
X143759773Y-87923557D01*
X143765437Y-87946166D01*
X143768856Y-87969221D01*
X143770000Y-87992500D01*
X143770000Y-88467500D01*
X143768856Y-88490779D01*
X143765437Y-88513834D01*
X143759773Y-88536443D01*
X143751921Y-88558387D01*
X143741956Y-88579457D01*
X143729974Y-88599448D01*
X143716090Y-88618168D01*
X143700438Y-88635438D01*
X143683168Y-88651090D01*
X143664448Y-88664974D01*
X143644457Y-88676956D01*
X143623387Y-88686921D01*
X143601443Y-88694773D01*
X143578834Y-88700437D01*
X143555779Y-88703856D01*
X143532500Y-88705000D01*
X142957500Y-88705000D01*
X142934221Y-88703856D01*
X142911166Y-88700437D01*
X142888557Y-88694773D01*
X142866613Y-88686921D01*
X142845543Y-88676956D01*
X142825552Y-88664974D01*
X142806832Y-88651090D01*
X142789562Y-88635438D01*
X142773910Y-88618168D01*
X142760026Y-88599448D01*
X142748044Y-88579457D01*
X142738079Y-88558387D01*
X142730227Y-88536443D01*
X142724563Y-88513834D01*
X142721144Y-88490779D01*
X142720000Y-88467500D01*
X142720000Y-87992500D01*
X142721144Y-87969221D01*
X142724563Y-87946166D01*
X142730227Y-87923557D01*
X142738079Y-87901613D01*
X142748044Y-87880543D01*
X142760026Y-87860552D01*
X142773910Y-87841832D01*
X142789562Y-87824562D01*
X142806832Y-87808910D01*
X142825552Y-87795026D01*
X142845543Y-87783044D01*
X142866613Y-87773079D01*
X142888557Y-87765227D01*
X142911166Y-87759563D01*
X142934221Y-87756144D01*
X142957500Y-87755000D01*
X143532500Y-87755000D01*
X143555779Y-87756144D01*
X143555779Y-87756144D01*
G37*
D12*
X143245000Y-88230000D03*
D11*
G36*
X141805779Y-87756144D02*
X141828834Y-87759563D01*
X141851443Y-87765227D01*
X141873387Y-87773079D01*
X141894457Y-87783044D01*
X141914448Y-87795026D01*
X141933168Y-87808910D01*
X141950438Y-87824562D01*
X141966090Y-87841832D01*
X141979974Y-87860552D01*
X141991956Y-87880543D01*
X142001921Y-87901613D01*
X142009773Y-87923557D01*
X142015437Y-87946166D01*
X142018856Y-87969221D01*
X142020000Y-87992500D01*
X142020000Y-88467500D01*
X142018856Y-88490779D01*
X142015437Y-88513834D01*
X142009773Y-88536443D01*
X142001921Y-88558387D01*
X141991956Y-88579457D01*
X141979974Y-88599448D01*
X141966090Y-88618168D01*
X141950438Y-88635438D01*
X141933168Y-88651090D01*
X141914448Y-88664974D01*
X141894457Y-88676956D01*
X141873387Y-88686921D01*
X141851443Y-88694773D01*
X141828834Y-88700437D01*
X141805779Y-88703856D01*
X141782500Y-88705000D01*
X141207500Y-88705000D01*
X141184221Y-88703856D01*
X141161166Y-88700437D01*
X141138557Y-88694773D01*
X141116613Y-88686921D01*
X141095543Y-88676956D01*
X141075552Y-88664974D01*
X141056832Y-88651090D01*
X141039562Y-88635438D01*
X141023910Y-88618168D01*
X141010026Y-88599448D01*
X140998044Y-88579457D01*
X140988079Y-88558387D01*
X140980227Y-88536443D01*
X140974563Y-88513834D01*
X140971144Y-88490779D01*
X140970000Y-88467500D01*
X140970000Y-87992500D01*
X140971144Y-87969221D01*
X140974563Y-87946166D01*
X140980227Y-87923557D01*
X140988079Y-87901613D01*
X140998044Y-87880543D01*
X141010026Y-87860552D01*
X141023910Y-87841832D01*
X141039562Y-87824562D01*
X141056832Y-87808910D01*
X141075552Y-87795026D01*
X141095543Y-87783044D01*
X141116613Y-87773079D01*
X141138557Y-87765227D01*
X141161166Y-87759563D01*
X141184221Y-87756144D01*
X141207500Y-87755000D01*
X141782500Y-87755000D01*
X141805779Y-87756144D01*
X141805779Y-87756144D01*
G37*
D12*
X141495000Y-88230000D03*
G04 #@! TD*
D13*
G04 #@! TO.C,D1*
X126560000Y-61720000D03*
X129060000Y-61720000D03*
G04 #@! TD*
D11*
G04 #@! TO.C,D2*
G36*
X109260779Y-65351144D02*
X109283834Y-65354563D01*
X109306443Y-65360227D01*
X109328387Y-65368079D01*
X109349457Y-65378044D01*
X109369448Y-65390026D01*
X109388168Y-65403910D01*
X109405438Y-65419562D01*
X109421090Y-65436832D01*
X109434974Y-65455552D01*
X109446956Y-65475543D01*
X109456921Y-65496613D01*
X109464773Y-65518557D01*
X109470437Y-65541166D01*
X109473856Y-65564221D01*
X109475000Y-65587500D01*
X109475000Y-66162500D01*
X109473856Y-66185779D01*
X109470437Y-66208834D01*
X109464773Y-66231443D01*
X109456921Y-66253387D01*
X109446956Y-66274457D01*
X109434974Y-66294448D01*
X109421090Y-66313168D01*
X109405438Y-66330438D01*
X109388168Y-66346090D01*
X109369448Y-66359974D01*
X109349457Y-66371956D01*
X109328387Y-66381921D01*
X109306443Y-66389773D01*
X109283834Y-66395437D01*
X109260779Y-66398856D01*
X109237500Y-66400000D01*
X108762500Y-66400000D01*
X108739221Y-66398856D01*
X108716166Y-66395437D01*
X108693557Y-66389773D01*
X108671613Y-66381921D01*
X108650543Y-66371956D01*
X108630552Y-66359974D01*
X108611832Y-66346090D01*
X108594562Y-66330438D01*
X108578910Y-66313168D01*
X108565026Y-66294448D01*
X108553044Y-66274457D01*
X108543079Y-66253387D01*
X108535227Y-66231443D01*
X108529563Y-66208834D01*
X108526144Y-66185779D01*
X108525000Y-66162500D01*
X108525000Y-65587500D01*
X108526144Y-65564221D01*
X108529563Y-65541166D01*
X108535227Y-65518557D01*
X108543079Y-65496613D01*
X108553044Y-65475543D01*
X108565026Y-65455552D01*
X108578910Y-65436832D01*
X108594562Y-65419562D01*
X108611832Y-65403910D01*
X108630552Y-65390026D01*
X108650543Y-65378044D01*
X108671613Y-65368079D01*
X108693557Y-65360227D01*
X108716166Y-65354563D01*
X108739221Y-65351144D01*
X108762500Y-65350000D01*
X109237500Y-65350000D01*
X109260779Y-65351144D01*
X109260779Y-65351144D01*
G37*
D12*
X109000000Y-65875000D03*
D11*
G36*
X109260779Y-63601144D02*
X109283834Y-63604563D01*
X109306443Y-63610227D01*
X109328387Y-63618079D01*
X109349457Y-63628044D01*
X109369448Y-63640026D01*
X109388168Y-63653910D01*
X109405438Y-63669562D01*
X109421090Y-63686832D01*
X109434974Y-63705552D01*
X109446956Y-63725543D01*
X109456921Y-63746613D01*
X109464773Y-63768557D01*
X109470437Y-63791166D01*
X109473856Y-63814221D01*
X109475000Y-63837500D01*
X109475000Y-64412500D01*
X109473856Y-64435779D01*
X109470437Y-64458834D01*
X109464773Y-64481443D01*
X109456921Y-64503387D01*
X109446956Y-64524457D01*
X109434974Y-64544448D01*
X109421090Y-64563168D01*
X109405438Y-64580438D01*
X109388168Y-64596090D01*
X109369448Y-64609974D01*
X109349457Y-64621956D01*
X109328387Y-64631921D01*
X109306443Y-64639773D01*
X109283834Y-64645437D01*
X109260779Y-64648856D01*
X109237500Y-64650000D01*
X108762500Y-64650000D01*
X108739221Y-64648856D01*
X108716166Y-64645437D01*
X108693557Y-64639773D01*
X108671613Y-64631921D01*
X108650543Y-64621956D01*
X108630552Y-64609974D01*
X108611832Y-64596090D01*
X108594562Y-64580438D01*
X108578910Y-64563168D01*
X108565026Y-64544448D01*
X108553044Y-64524457D01*
X108543079Y-64503387D01*
X108535227Y-64481443D01*
X108529563Y-64458834D01*
X108526144Y-64435779D01*
X108525000Y-64412500D01*
X108525000Y-63837500D01*
X108526144Y-63814221D01*
X108529563Y-63791166D01*
X108535227Y-63768557D01*
X108543079Y-63746613D01*
X108553044Y-63725543D01*
X108565026Y-63705552D01*
X108578910Y-63686832D01*
X108594562Y-63669562D01*
X108611832Y-63653910D01*
X108630552Y-63640026D01*
X108650543Y-63628044D01*
X108671613Y-63618079D01*
X108693557Y-63610227D01*
X108716166Y-63604563D01*
X108739221Y-63601144D01*
X108762500Y-63600000D01*
X109237500Y-63600000D01*
X109260779Y-63601144D01*
X109260779Y-63601144D01*
G37*
D12*
X109000000Y-64125000D03*
G04 #@! TD*
D11*
G04 #@! TO.C,D3*
G36*
X111260779Y-63601144D02*
X111283834Y-63604563D01*
X111306443Y-63610227D01*
X111328387Y-63618079D01*
X111349457Y-63628044D01*
X111369448Y-63640026D01*
X111388168Y-63653910D01*
X111405438Y-63669562D01*
X111421090Y-63686832D01*
X111434974Y-63705552D01*
X111446956Y-63725543D01*
X111456921Y-63746613D01*
X111464773Y-63768557D01*
X111470437Y-63791166D01*
X111473856Y-63814221D01*
X111475000Y-63837500D01*
X111475000Y-64412500D01*
X111473856Y-64435779D01*
X111470437Y-64458834D01*
X111464773Y-64481443D01*
X111456921Y-64503387D01*
X111446956Y-64524457D01*
X111434974Y-64544448D01*
X111421090Y-64563168D01*
X111405438Y-64580438D01*
X111388168Y-64596090D01*
X111369448Y-64609974D01*
X111349457Y-64621956D01*
X111328387Y-64631921D01*
X111306443Y-64639773D01*
X111283834Y-64645437D01*
X111260779Y-64648856D01*
X111237500Y-64650000D01*
X110762500Y-64650000D01*
X110739221Y-64648856D01*
X110716166Y-64645437D01*
X110693557Y-64639773D01*
X110671613Y-64631921D01*
X110650543Y-64621956D01*
X110630552Y-64609974D01*
X110611832Y-64596090D01*
X110594562Y-64580438D01*
X110578910Y-64563168D01*
X110565026Y-64544448D01*
X110553044Y-64524457D01*
X110543079Y-64503387D01*
X110535227Y-64481443D01*
X110529563Y-64458834D01*
X110526144Y-64435779D01*
X110525000Y-64412500D01*
X110525000Y-63837500D01*
X110526144Y-63814221D01*
X110529563Y-63791166D01*
X110535227Y-63768557D01*
X110543079Y-63746613D01*
X110553044Y-63725543D01*
X110565026Y-63705552D01*
X110578910Y-63686832D01*
X110594562Y-63669562D01*
X110611832Y-63653910D01*
X110630552Y-63640026D01*
X110650543Y-63628044D01*
X110671613Y-63618079D01*
X110693557Y-63610227D01*
X110716166Y-63604563D01*
X110739221Y-63601144D01*
X110762500Y-63600000D01*
X111237500Y-63600000D01*
X111260779Y-63601144D01*
X111260779Y-63601144D01*
G37*
D12*
X111000000Y-64125000D03*
D11*
G36*
X111260779Y-65351144D02*
X111283834Y-65354563D01*
X111306443Y-65360227D01*
X111328387Y-65368079D01*
X111349457Y-65378044D01*
X111369448Y-65390026D01*
X111388168Y-65403910D01*
X111405438Y-65419562D01*
X111421090Y-65436832D01*
X111434974Y-65455552D01*
X111446956Y-65475543D01*
X111456921Y-65496613D01*
X111464773Y-65518557D01*
X111470437Y-65541166D01*
X111473856Y-65564221D01*
X111475000Y-65587500D01*
X111475000Y-66162500D01*
X111473856Y-66185779D01*
X111470437Y-66208834D01*
X111464773Y-66231443D01*
X111456921Y-66253387D01*
X111446956Y-66274457D01*
X111434974Y-66294448D01*
X111421090Y-66313168D01*
X111405438Y-66330438D01*
X111388168Y-66346090D01*
X111369448Y-66359974D01*
X111349457Y-66371956D01*
X111328387Y-66381921D01*
X111306443Y-66389773D01*
X111283834Y-66395437D01*
X111260779Y-66398856D01*
X111237500Y-66400000D01*
X110762500Y-66400000D01*
X110739221Y-66398856D01*
X110716166Y-66395437D01*
X110693557Y-66389773D01*
X110671613Y-66381921D01*
X110650543Y-66371956D01*
X110630552Y-66359974D01*
X110611832Y-66346090D01*
X110594562Y-66330438D01*
X110578910Y-66313168D01*
X110565026Y-66294448D01*
X110553044Y-66274457D01*
X110543079Y-66253387D01*
X110535227Y-66231443D01*
X110529563Y-66208834D01*
X110526144Y-66185779D01*
X110525000Y-66162500D01*
X110525000Y-65587500D01*
X110526144Y-65564221D01*
X110529563Y-65541166D01*
X110535227Y-65518557D01*
X110543079Y-65496613D01*
X110553044Y-65475543D01*
X110565026Y-65455552D01*
X110578910Y-65436832D01*
X110594562Y-65419562D01*
X110611832Y-65403910D01*
X110630552Y-65390026D01*
X110650543Y-65378044D01*
X110671613Y-65368079D01*
X110693557Y-65360227D01*
X110716166Y-65354563D01*
X110739221Y-65351144D01*
X110762500Y-65350000D01*
X111237500Y-65350000D01*
X111260779Y-65351144D01*
X111260779Y-65351144D01*
G37*
D12*
X111000000Y-65875000D03*
G04 #@! TD*
D11*
G04 #@! TO.C,J2*
G36*
X111594603Y-103600963D02*
X111614018Y-103603843D01*
X111633057Y-103608612D01*
X111651537Y-103615224D01*
X111669279Y-103623616D01*
X111686114Y-103633706D01*
X111701879Y-103645398D01*
X111716421Y-103658579D01*
X111729602Y-103673121D01*
X111741294Y-103688886D01*
X111751384Y-103705721D01*
X111759776Y-103723463D01*
X111766388Y-103741943D01*
X111771157Y-103760982D01*
X111774037Y-103780397D01*
X111775000Y-103800000D01*
X111775000Y-105000000D01*
X111774037Y-105019603D01*
X111771157Y-105039018D01*
X111766388Y-105058057D01*
X111759776Y-105076537D01*
X111751384Y-105094279D01*
X111741294Y-105111114D01*
X111729602Y-105126879D01*
X111716421Y-105141421D01*
X111701879Y-105154602D01*
X111686114Y-105166294D01*
X111669279Y-105176384D01*
X111651537Y-105184776D01*
X111633057Y-105191388D01*
X111614018Y-105196157D01*
X111594603Y-105199037D01*
X111575000Y-105200000D01*
X111175000Y-105200000D01*
X111155397Y-105199037D01*
X111135982Y-105196157D01*
X111116943Y-105191388D01*
X111098463Y-105184776D01*
X111080721Y-105176384D01*
X111063886Y-105166294D01*
X111048121Y-105154602D01*
X111033579Y-105141421D01*
X111020398Y-105126879D01*
X111008706Y-105111114D01*
X110998616Y-105094279D01*
X110990224Y-105076537D01*
X110983612Y-105058057D01*
X110978843Y-105039018D01*
X110975963Y-105019603D01*
X110975000Y-105000000D01*
X110975000Y-103800000D01*
X110975963Y-103780397D01*
X110978843Y-103760982D01*
X110983612Y-103741943D01*
X110990224Y-103723463D01*
X110998616Y-103705721D01*
X111008706Y-103688886D01*
X111020398Y-103673121D01*
X111033579Y-103658579D01*
X111048121Y-103645398D01*
X111063886Y-103633706D01*
X111080721Y-103623616D01*
X111098463Y-103615224D01*
X111116943Y-103608612D01*
X111135982Y-103603843D01*
X111155397Y-103600963D01*
X111175000Y-103600000D01*
X111575000Y-103600000D01*
X111594603Y-103600963D01*
X111594603Y-103600963D01*
G37*
D14*
X111375000Y-104400000D03*
D11*
G36*
X112844603Y-103600963D02*
X112864018Y-103603843D01*
X112883057Y-103608612D01*
X112901537Y-103615224D01*
X112919279Y-103623616D01*
X112936114Y-103633706D01*
X112951879Y-103645398D01*
X112966421Y-103658579D01*
X112979602Y-103673121D01*
X112991294Y-103688886D01*
X113001384Y-103705721D01*
X113009776Y-103723463D01*
X113016388Y-103741943D01*
X113021157Y-103760982D01*
X113024037Y-103780397D01*
X113025000Y-103800000D01*
X113025000Y-105000000D01*
X113024037Y-105019603D01*
X113021157Y-105039018D01*
X113016388Y-105058057D01*
X113009776Y-105076537D01*
X113001384Y-105094279D01*
X112991294Y-105111114D01*
X112979602Y-105126879D01*
X112966421Y-105141421D01*
X112951879Y-105154602D01*
X112936114Y-105166294D01*
X112919279Y-105176384D01*
X112901537Y-105184776D01*
X112883057Y-105191388D01*
X112864018Y-105196157D01*
X112844603Y-105199037D01*
X112825000Y-105200000D01*
X112425000Y-105200000D01*
X112405397Y-105199037D01*
X112385982Y-105196157D01*
X112366943Y-105191388D01*
X112348463Y-105184776D01*
X112330721Y-105176384D01*
X112313886Y-105166294D01*
X112298121Y-105154602D01*
X112283579Y-105141421D01*
X112270398Y-105126879D01*
X112258706Y-105111114D01*
X112248616Y-105094279D01*
X112240224Y-105076537D01*
X112233612Y-105058057D01*
X112228843Y-105039018D01*
X112225963Y-105019603D01*
X112225000Y-105000000D01*
X112225000Y-103800000D01*
X112225963Y-103780397D01*
X112228843Y-103760982D01*
X112233612Y-103741943D01*
X112240224Y-103723463D01*
X112248616Y-103705721D01*
X112258706Y-103688886D01*
X112270398Y-103673121D01*
X112283579Y-103658579D01*
X112298121Y-103645398D01*
X112313886Y-103633706D01*
X112330721Y-103623616D01*
X112348463Y-103615224D01*
X112366943Y-103608612D01*
X112385982Y-103603843D01*
X112405397Y-103600963D01*
X112425000Y-103600000D01*
X112825000Y-103600000D01*
X112844603Y-103600963D01*
X112844603Y-103600963D01*
G37*
D14*
X112625000Y-104400000D03*
D11*
G36*
X109649504Y-100001204D02*
X109673773Y-100004804D01*
X109697571Y-100010765D01*
X109720671Y-100019030D01*
X109742849Y-100029520D01*
X109763893Y-100042133D01*
X109783598Y-100056747D01*
X109801777Y-100073223D01*
X109818253Y-100091402D01*
X109832867Y-100111107D01*
X109845480Y-100132151D01*
X109855970Y-100154329D01*
X109864235Y-100177429D01*
X109870196Y-100201227D01*
X109873796Y-100225496D01*
X109875000Y-100250000D01*
X109875000Y-102750000D01*
X109873796Y-102774504D01*
X109870196Y-102798773D01*
X109864235Y-102822571D01*
X109855970Y-102845671D01*
X109845480Y-102867849D01*
X109832867Y-102888893D01*
X109818253Y-102908598D01*
X109801777Y-102926777D01*
X109783598Y-102943253D01*
X109763893Y-102957867D01*
X109742849Y-102970480D01*
X109720671Y-102980970D01*
X109697571Y-102989235D01*
X109673773Y-102995196D01*
X109649504Y-102998796D01*
X109625000Y-103000000D01*
X108025000Y-103000000D01*
X108000496Y-102998796D01*
X107976227Y-102995196D01*
X107952429Y-102989235D01*
X107929329Y-102980970D01*
X107907151Y-102970480D01*
X107886107Y-102957867D01*
X107866402Y-102943253D01*
X107848223Y-102926777D01*
X107831747Y-102908598D01*
X107817133Y-102888893D01*
X107804520Y-102867849D01*
X107794030Y-102845671D01*
X107785765Y-102822571D01*
X107779804Y-102798773D01*
X107776204Y-102774504D01*
X107775000Y-102750000D01*
X107775000Y-100250000D01*
X107776204Y-100225496D01*
X107779804Y-100201227D01*
X107785765Y-100177429D01*
X107794030Y-100154329D01*
X107804520Y-100132151D01*
X107817133Y-100111107D01*
X107831747Y-100091402D01*
X107848223Y-100073223D01*
X107866402Y-100056747D01*
X107886107Y-100042133D01*
X107907151Y-100029520D01*
X107929329Y-100019030D01*
X107952429Y-100010765D01*
X107976227Y-100004804D01*
X108000496Y-100001204D01*
X108025000Y-100000000D01*
X109625000Y-100000000D01*
X109649504Y-100001204D01*
X109649504Y-100001204D01*
G37*
D15*
X108825000Y-101500000D03*
D11*
G36*
X115999504Y-100001204D02*
X116023773Y-100004804D01*
X116047571Y-100010765D01*
X116070671Y-100019030D01*
X116092849Y-100029520D01*
X116113893Y-100042133D01*
X116133598Y-100056747D01*
X116151777Y-100073223D01*
X116168253Y-100091402D01*
X116182867Y-100111107D01*
X116195480Y-100132151D01*
X116205970Y-100154329D01*
X116214235Y-100177429D01*
X116220196Y-100201227D01*
X116223796Y-100225496D01*
X116225000Y-100250000D01*
X116225000Y-102750000D01*
X116223796Y-102774504D01*
X116220196Y-102798773D01*
X116214235Y-102822571D01*
X116205970Y-102845671D01*
X116195480Y-102867849D01*
X116182867Y-102888893D01*
X116168253Y-102908598D01*
X116151777Y-102926777D01*
X116133598Y-102943253D01*
X116113893Y-102957867D01*
X116092849Y-102970480D01*
X116070671Y-102980970D01*
X116047571Y-102989235D01*
X116023773Y-102995196D01*
X115999504Y-102998796D01*
X115975000Y-103000000D01*
X114375000Y-103000000D01*
X114350496Y-102998796D01*
X114326227Y-102995196D01*
X114302429Y-102989235D01*
X114279329Y-102980970D01*
X114257151Y-102970480D01*
X114236107Y-102957867D01*
X114216402Y-102943253D01*
X114198223Y-102926777D01*
X114181747Y-102908598D01*
X114167133Y-102888893D01*
X114154520Y-102867849D01*
X114144030Y-102845671D01*
X114135765Y-102822571D01*
X114129804Y-102798773D01*
X114126204Y-102774504D01*
X114125000Y-102750000D01*
X114125000Y-100250000D01*
X114126204Y-100225496D01*
X114129804Y-100201227D01*
X114135765Y-100177429D01*
X114144030Y-100154329D01*
X114154520Y-100132151D01*
X114167133Y-100111107D01*
X114181747Y-100091402D01*
X114198223Y-100073223D01*
X114216402Y-100056747D01*
X114236107Y-100042133D01*
X114257151Y-100029520D01*
X114279329Y-100019030D01*
X114302429Y-100010765D01*
X114326227Y-100004804D01*
X114350496Y-100001204D01*
X114375000Y-100000000D01*
X115975000Y-100000000D01*
X115999504Y-100001204D01*
X115999504Y-100001204D01*
G37*
D15*
X115175000Y-101500000D03*
G04 #@! TD*
D11*
G04 #@! TO.C,L1*
G36*
X125045779Y-61256144D02*
X125068834Y-61259563D01*
X125091443Y-61265227D01*
X125113387Y-61273079D01*
X125134457Y-61283044D01*
X125154448Y-61295026D01*
X125173168Y-61308910D01*
X125190438Y-61324562D01*
X125206090Y-61341832D01*
X125219974Y-61360552D01*
X125231956Y-61380543D01*
X125241921Y-61401613D01*
X125249773Y-61423557D01*
X125255437Y-61446166D01*
X125258856Y-61469221D01*
X125260000Y-61492500D01*
X125260000Y-61967500D01*
X125258856Y-61990779D01*
X125255437Y-62013834D01*
X125249773Y-62036443D01*
X125241921Y-62058387D01*
X125231956Y-62079457D01*
X125219974Y-62099448D01*
X125206090Y-62118168D01*
X125190438Y-62135438D01*
X125173168Y-62151090D01*
X125154448Y-62164974D01*
X125134457Y-62176956D01*
X125113387Y-62186921D01*
X125091443Y-62194773D01*
X125068834Y-62200437D01*
X125045779Y-62203856D01*
X125022500Y-62205000D01*
X124447500Y-62205000D01*
X124424221Y-62203856D01*
X124401166Y-62200437D01*
X124378557Y-62194773D01*
X124356613Y-62186921D01*
X124335543Y-62176956D01*
X124315552Y-62164974D01*
X124296832Y-62151090D01*
X124279562Y-62135438D01*
X124263910Y-62118168D01*
X124250026Y-62099448D01*
X124238044Y-62079457D01*
X124228079Y-62058387D01*
X124220227Y-62036443D01*
X124214563Y-62013834D01*
X124211144Y-61990779D01*
X124210000Y-61967500D01*
X124210000Y-61492500D01*
X124211144Y-61469221D01*
X124214563Y-61446166D01*
X124220227Y-61423557D01*
X124228079Y-61401613D01*
X124238044Y-61380543D01*
X124250026Y-61360552D01*
X124263910Y-61341832D01*
X124279562Y-61324562D01*
X124296832Y-61308910D01*
X124315552Y-61295026D01*
X124335543Y-61283044D01*
X124356613Y-61273079D01*
X124378557Y-61265227D01*
X124401166Y-61259563D01*
X124424221Y-61256144D01*
X124447500Y-61255000D01*
X125022500Y-61255000D01*
X125045779Y-61256144D01*
X125045779Y-61256144D01*
G37*
D12*
X124735000Y-61730000D03*
D11*
G36*
X123295779Y-61256144D02*
X123318834Y-61259563D01*
X123341443Y-61265227D01*
X123363387Y-61273079D01*
X123384457Y-61283044D01*
X123404448Y-61295026D01*
X123423168Y-61308910D01*
X123440438Y-61324562D01*
X123456090Y-61341832D01*
X123469974Y-61360552D01*
X123481956Y-61380543D01*
X123491921Y-61401613D01*
X123499773Y-61423557D01*
X123505437Y-61446166D01*
X123508856Y-61469221D01*
X123510000Y-61492500D01*
X123510000Y-61967500D01*
X123508856Y-61990779D01*
X123505437Y-62013834D01*
X123499773Y-62036443D01*
X123491921Y-62058387D01*
X123481956Y-62079457D01*
X123469974Y-62099448D01*
X123456090Y-62118168D01*
X123440438Y-62135438D01*
X123423168Y-62151090D01*
X123404448Y-62164974D01*
X123384457Y-62176956D01*
X123363387Y-62186921D01*
X123341443Y-62194773D01*
X123318834Y-62200437D01*
X123295779Y-62203856D01*
X123272500Y-62205000D01*
X122697500Y-62205000D01*
X122674221Y-62203856D01*
X122651166Y-62200437D01*
X122628557Y-62194773D01*
X122606613Y-62186921D01*
X122585543Y-62176956D01*
X122565552Y-62164974D01*
X122546832Y-62151090D01*
X122529562Y-62135438D01*
X122513910Y-62118168D01*
X122500026Y-62099448D01*
X122488044Y-62079457D01*
X122478079Y-62058387D01*
X122470227Y-62036443D01*
X122464563Y-62013834D01*
X122461144Y-61990779D01*
X122460000Y-61967500D01*
X122460000Y-61492500D01*
X122461144Y-61469221D01*
X122464563Y-61446166D01*
X122470227Y-61423557D01*
X122478079Y-61401613D01*
X122488044Y-61380543D01*
X122500026Y-61360552D01*
X122513910Y-61341832D01*
X122529562Y-61324562D01*
X122546832Y-61308910D01*
X122565552Y-61295026D01*
X122585543Y-61283044D01*
X122606613Y-61273079D01*
X122628557Y-61265227D01*
X122651166Y-61259563D01*
X122674221Y-61256144D01*
X122697500Y-61255000D01*
X123272500Y-61255000D01*
X123295779Y-61256144D01*
X123295779Y-61256144D01*
G37*
D12*
X122985000Y-61730000D03*
G04 #@! TD*
D16*
G04 #@! TO.C,Q1*
X111950000Y-91000000D03*
X110050000Y-91000000D03*
X111000000Y-89000000D03*
G04 #@! TD*
D11*
G04 #@! TO.C,R1*
G36*
X127672183Y-92667299D02*
X127695238Y-92670718D01*
X127717847Y-92676382D01*
X127739791Y-92684234D01*
X127760861Y-92694199D01*
X127780852Y-92706181D01*
X127799572Y-92720065D01*
X127816842Y-92735717D01*
X127832494Y-92752987D01*
X127846378Y-92771707D01*
X127858360Y-92791698D01*
X127868325Y-92812768D01*
X127876177Y-92834712D01*
X127881841Y-92857321D01*
X127885260Y-92880376D01*
X127886404Y-92903655D01*
X127886404Y-93478655D01*
X127885260Y-93501934D01*
X127881841Y-93524989D01*
X127876177Y-93547598D01*
X127868325Y-93569542D01*
X127858360Y-93590612D01*
X127846378Y-93610603D01*
X127832494Y-93629323D01*
X127816842Y-93646593D01*
X127799572Y-93662245D01*
X127780852Y-93676129D01*
X127760861Y-93688111D01*
X127739791Y-93698076D01*
X127717847Y-93705928D01*
X127695238Y-93711592D01*
X127672183Y-93715011D01*
X127648904Y-93716155D01*
X127173904Y-93716155D01*
X127150625Y-93715011D01*
X127127570Y-93711592D01*
X127104961Y-93705928D01*
X127083017Y-93698076D01*
X127061947Y-93688111D01*
X127041956Y-93676129D01*
X127023236Y-93662245D01*
X127005966Y-93646593D01*
X126990314Y-93629323D01*
X126976430Y-93610603D01*
X126964448Y-93590612D01*
X126954483Y-93569542D01*
X126946631Y-93547598D01*
X126940967Y-93524989D01*
X126937548Y-93501934D01*
X126936404Y-93478655D01*
X126936404Y-92903655D01*
X126937548Y-92880376D01*
X126940967Y-92857321D01*
X126946631Y-92834712D01*
X126954483Y-92812768D01*
X126964448Y-92791698D01*
X126976430Y-92771707D01*
X126990314Y-92752987D01*
X127005966Y-92735717D01*
X127023236Y-92720065D01*
X127041956Y-92706181D01*
X127061947Y-92694199D01*
X127083017Y-92684234D01*
X127104961Y-92676382D01*
X127127570Y-92670718D01*
X127150625Y-92667299D01*
X127173904Y-92666155D01*
X127648904Y-92666155D01*
X127672183Y-92667299D01*
X127672183Y-92667299D01*
G37*
D12*
X127411404Y-93191155D03*
D11*
G36*
X127672183Y-94417299D02*
X127695238Y-94420718D01*
X127717847Y-94426382D01*
X127739791Y-94434234D01*
X127760861Y-94444199D01*
X127780852Y-94456181D01*
X127799572Y-94470065D01*
X127816842Y-94485717D01*
X127832494Y-94502987D01*
X127846378Y-94521707D01*
X127858360Y-94541698D01*
X127868325Y-94562768D01*
X127876177Y-94584712D01*
X127881841Y-94607321D01*
X127885260Y-94630376D01*
X127886404Y-94653655D01*
X127886404Y-95228655D01*
X127885260Y-95251934D01*
X127881841Y-95274989D01*
X127876177Y-95297598D01*
X127868325Y-95319542D01*
X127858360Y-95340612D01*
X127846378Y-95360603D01*
X127832494Y-95379323D01*
X127816842Y-95396593D01*
X127799572Y-95412245D01*
X127780852Y-95426129D01*
X127760861Y-95438111D01*
X127739791Y-95448076D01*
X127717847Y-95455928D01*
X127695238Y-95461592D01*
X127672183Y-95465011D01*
X127648904Y-95466155D01*
X127173904Y-95466155D01*
X127150625Y-95465011D01*
X127127570Y-95461592D01*
X127104961Y-95455928D01*
X127083017Y-95448076D01*
X127061947Y-95438111D01*
X127041956Y-95426129D01*
X127023236Y-95412245D01*
X127005966Y-95396593D01*
X126990314Y-95379323D01*
X126976430Y-95360603D01*
X126964448Y-95340612D01*
X126954483Y-95319542D01*
X126946631Y-95297598D01*
X126940967Y-95274989D01*
X126937548Y-95251934D01*
X126936404Y-95228655D01*
X126936404Y-94653655D01*
X126937548Y-94630376D01*
X126940967Y-94607321D01*
X126946631Y-94584712D01*
X126954483Y-94562768D01*
X126964448Y-94541698D01*
X126976430Y-94521707D01*
X126990314Y-94502987D01*
X127005966Y-94485717D01*
X127023236Y-94470065D01*
X127041956Y-94456181D01*
X127061947Y-94444199D01*
X127083017Y-94434234D01*
X127104961Y-94426382D01*
X127127570Y-94420718D01*
X127150625Y-94417299D01*
X127173904Y-94416155D01*
X127648904Y-94416155D01*
X127672183Y-94417299D01*
X127672183Y-94417299D01*
G37*
D12*
X127411404Y-94941155D03*
G04 #@! TD*
D11*
G04 #@! TO.C,R2*
G36*
X108955779Y-96966144D02*
X108978834Y-96969563D01*
X109001443Y-96975227D01*
X109023387Y-96983079D01*
X109044457Y-96993044D01*
X109064448Y-97005026D01*
X109083168Y-97018910D01*
X109100438Y-97034562D01*
X109116090Y-97051832D01*
X109129974Y-97070552D01*
X109141956Y-97090543D01*
X109151921Y-97111613D01*
X109159773Y-97133557D01*
X109165437Y-97156166D01*
X109168856Y-97179221D01*
X109170000Y-97202500D01*
X109170000Y-97677500D01*
X109168856Y-97700779D01*
X109165437Y-97723834D01*
X109159773Y-97746443D01*
X109151921Y-97768387D01*
X109141956Y-97789457D01*
X109129974Y-97809448D01*
X109116090Y-97828168D01*
X109100438Y-97845438D01*
X109083168Y-97861090D01*
X109064448Y-97874974D01*
X109044457Y-97886956D01*
X109023387Y-97896921D01*
X109001443Y-97904773D01*
X108978834Y-97910437D01*
X108955779Y-97913856D01*
X108932500Y-97915000D01*
X108357500Y-97915000D01*
X108334221Y-97913856D01*
X108311166Y-97910437D01*
X108288557Y-97904773D01*
X108266613Y-97896921D01*
X108245543Y-97886956D01*
X108225552Y-97874974D01*
X108206832Y-97861090D01*
X108189562Y-97845438D01*
X108173910Y-97828168D01*
X108160026Y-97809448D01*
X108148044Y-97789457D01*
X108138079Y-97768387D01*
X108130227Y-97746443D01*
X108124563Y-97723834D01*
X108121144Y-97700779D01*
X108120000Y-97677500D01*
X108120000Y-97202500D01*
X108121144Y-97179221D01*
X108124563Y-97156166D01*
X108130227Y-97133557D01*
X108138079Y-97111613D01*
X108148044Y-97090543D01*
X108160026Y-97070552D01*
X108173910Y-97051832D01*
X108189562Y-97034562D01*
X108206832Y-97018910D01*
X108225552Y-97005026D01*
X108245543Y-96993044D01*
X108266613Y-96983079D01*
X108288557Y-96975227D01*
X108311166Y-96969563D01*
X108334221Y-96966144D01*
X108357500Y-96965000D01*
X108932500Y-96965000D01*
X108955779Y-96966144D01*
X108955779Y-96966144D01*
G37*
D12*
X108645000Y-97440000D03*
D11*
G36*
X110705779Y-96966144D02*
X110728834Y-96969563D01*
X110751443Y-96975227D01*
X110773387Y-96983079D01*
X110794457Y-96993044D01*
X110814448Y-97005026D01*
X110833168Y-97018910D01*
X110850438Y-97034562D01*
X110866090Y-97051832D01*
X110879974Y-97070552D01*
X110891956Y-97090543D01*
X110901921Y-97111613D01*
X110909773Y-97133557D01*
X110915437Y-97156166D01*
X110918856Y-97179221D01*
X110920000Y-97202500D01*
X110920000Y-97677500D01*
X110918856Y-97700779D01*
X110915437Y-97723834D01*
X110909773Y-97746443D01*
X110901921Y-97768387D01*
X110891956Y-97789457D01*
X110879974Y-97809448D01*
X110866090Y-97828168D01*
X110850438Y-97845438D01*
X110833168Y-97861090D01*
X110814448Y-97874974D01*
X110794457Y-97886956D01*
X110773387Y-97896921D01*
X110751443Y-97904773D01*
X110728834Y-97910437D01*
X110705779Y-97913856D01*
X110682500Y-97915000D01*
X110107500Y-97915000D01*
X110084221Y-97913856D01*
X110061166Y-97910437D01*
X110038557Y-97904773D01*
X110016613Y-97896921D01*
X109995543Y-97886956D01*
X109975552Y-97874974D01*
X109956832Y-97861090D01*
X109939562Y-97845438D01*
X109923910Y-97828168D01*
X109910026Y-97809448D01*
X109898044Y-97789457D01*
X109888079Y-97768387D01*
X109880227Y-97746443D01*
X109874563Y-97723834D01*
X109871144Y-97700779D01*
X109870000Y-97677500D01*
X109870000Y-97202500D01*
X109871144Y-97179221D01*
X109874563Y-97156166D01*
X109880227Y-97133557D01*
X109888079Y-97111613D01*
X109898044Y-97090543D01*
X109910026Y-97070552D01*
X109923910Y-97051832D01*
X109939562Y-97034562D01*
X109956832Y-97018910D01*
X109975552Y-97005026D01*
X109995543Y-96993044D01*
X110016613Y-96983079D01*
X110038557Y-96975227D01*
X110061166Y-96969563D01*
X110084221Y-96966144D01*
X110107500Y-96965000D01*
X110682500Y-96965000D01*
X110705779Y-96966144D01*
X110705779Y-96966144D01*
G37*
D12*
X110395000Y-97440000D03*
G04 #@! TD*
D11*
G04 #@! TO.C,R3*
G36*
X132485779Y-63616144D02*
X132508834Y-63619563D01*
X132531443Y-63625227D01*
X132553387Y-63633079D01*
X132574457Y-63643044D01*
X132594448Y-63655026D01*
X132613168Y-63668910D01*
X132630438Y-63684562D01*
X132646090Y-63701832D01*
X132659974Y-63720552D01*
X132671956Y-63740543D01*
X132681921Y-63761613D01*
X132689773Y-63783557D01*
X132695437Y-63806166D01*
X132698856Y-63829221D01*
X132700000Y-63852500D01*
X132700000Y-64327500D01*
X132698856Y-64350779D01*
X132695437Y-64373834D01*
X132689773Y-64396443D01*
X132681921Y-64418387D01*
X132671956Y-64439457D01*
X132659974Y-64459448D01*
X132646090Y-64478168D01*
X132630438Y-64495438D01*
X132613168Y-64511090D01*
X132594448Y-64524974D01*
X132574457Y-64536956D01*
X132553387Y-64546921D01*
X132531443Y-64554773D01*
X132508834Y-64560437D01*
X132485779Y-64563856D01*
X132462500Y-64565000D01*
X131887500Y-64565000D01*
X131864221Y-64563856D01*
X131841166Y-64560437D01*
X131818557Y-64554773D01*
X131796613Y-64546921D01*
X131775543Y-64536956D01*
X131755552Y-64524974D01*
X131736832Y-64511090D01*
X131719562Y-64495438D01*
X131703910Y-64478168D01*
X131690026Y-64459448D01*
X131678044Y-64439457D01*
X131668079Y-64418387D01*
X131660227Y-64396443D01*
X131654563Y-64373834D01*
X131651144Y-64350779D01*
X131650000Y-64327500D01*
X131650000Y-63852500D01*
X131651144Y-63829221D01*
X131654563Y-63806166D01*
X131660227Y-63783557D01*
X131668079Y-63761613D01*
X131678044Y-63740543D01*
X131690026Y-63720552D01*
X131703910Y-63701832D01*
X131719562Y-63684562D01*
X131736832Y-63668910D01*
X131755552Y-63655026D01*
X131775543Y-63643044D01*
X131796613Y-63633079D01*
X131818557Y-63625227D01*
X131841166Y-63619563D01*
X131864221Y-63616144D01*
X131887500Y-63615000D01*
X132462500Y-63615000D01*
X132485779Y-63616144D01*
X132485779Y-63616144D01*
G37*
D12*
X132175000Y-64090000D03*
D11*
G36*
X134235779Y-63616144D02*
X134258834Y-63619563D01*
X134281443Y-63625227D01*
X134303387Y-63633079D01*
X134324457Y-63643044D01*
X134344448Y-63655026D01*
X134363168Y-63668910D01*
X134380438Y-63684562D01*
X134396090Y-63701832D01*
X134409974Y-63720552D01*
X134421956Y-63740543D01*
X134431921Y-63761613D01*
X134439773Y-63783557D01*
X134445437Y-63806166D01*
X134448856Y-63829221D01*
X134450000Y-63852500D01*
X134450000Y-64327500D01*
X134448856Y-64350779D01*
X134445437Y-64373834D01*
X134439773Y-64396443D01*
X134431921Y-64418387D01*
X134421956Y-64439457D01*
X134409974Y-64459448D01*
X134396090Y-64478168D01*
X134380438Y-64495438D01*
X134363168Y-64511090D01*
X134344448Y-64524974D01*
X134324457Y-64536956D01*
X134303387Y-64546921D01*
X134281443Y-64554773D01*
X134258834Y-64560437D01*
X134235779Y-64563856D01*
X134212500Y-64565000D01*
X133637500Y-64565000D01*
X133614221Y-64563856D01*
X133591166Y-64560437D01*
X133568557Y-64554773D01*
X133546613Y-64546921D01*
X133525543Y-64536956D01*
X133505552Y-64524974D01*
X133486832Y-64511090D01*
X133469562Y-64495438D01*
X133453910Y-64478168D01*
X133440026Y-64459448D01*
X133428044Y-64439457D01*
X133418079Y-64418387D01*
X133410227Y-64396443D01*
X133404563Y-64373834D01*
X133401144Y-64350779D01*
X133400000Y-64327500D01*
X133400000Y-63852500D01*
X133401144Y-63829221D01*
X133404563Y-63806166D01*
X133410227Y-63783557D01*
X133418079Y-63761613D01*
X133428044Y-63740543D01*
X133440026Y-63720552D01*
X133453910Y-63701832D01*
X133469562Y-63684562D01*
X133486832Y-63668910D01*
X133505552Y-63655026D01*
X133525543Y-63643044D01*
X133546613Y-63633079D01*
X133568557Y-63625227D01*
X133591166Y-63619563D01*
X133614221Y-63616144D01*
X133637500Y-63615000D01*
X134212500Y-63615000D01*
X134235779Y-63616144D01*
X134235779Y-63616144D01*
G37*
D12*
X133925000Y-64090000D03*
G04 #@! TD*
D11*
G04 #@! TO.C,R4*
G36*
X134240779Y-65506144D02*
X134263834Y-65509563D01*
X134286443Y-65515227D01*
X134308387Y-65523079D01*
X134329457Y-65533044D01*
X134349448Y-65545026D01*
X134368168Y-65558910D01*
X134385438Y-65574562D01*
X134401090Y-65591832D01*
X134414974Y-65610552D01*
X134426956Y-65630543D01*
X134436921Y-65651613D01*
X134444773Y-65673557D01*
X134450437Y-65696166D01*
X134453856Y-65719221D01*
X134455000Y-65742500D01*
X134455000Y-66217500D01*
X134453856Y-66240779D01*
X134450437Y-66263834D01*
X134444773Y-66286443D01*
X134436921Y-66308387D01*
X134426956Y-66329457D01*
X134414974Y-66349448D01*
X134401090Y-66368168D01*
X134385438Y-66385438D01*
X134368168Y-66401090D01*
X134349448Y-66414974D01*
X134329457Y-66426956D01*
X134308387Y-66436921D01*
X134286443Y-66444773D01*
X134263834Y-66450437D01*
X134240779Y-66453856D01*
X134217500Y-66455000D01*
X133642500Y-66455000D01*
X133619221Y-66453856D01*
X133596166Y-66450437D01*
X133573557Y-66444773D01*
X133551613Y-66436921D01*
X133530543Y-66426956D01*
X133510552Y-66414974D01*
X133491832Y-66401090D01*
X133474562Y-66385438D01*
X133458910Y-66368168D01*
X133445026Y-66349448D01*
X133433044Y-66329457D01*
X133423079Y-66308387D01*
X133415227Y-66286443D01*
X133409563Y-66263834D01*
X133406144Y-66240779D01*
X133405000Y-66217500D01*
X133405000Y-65742500D01*
X133406144Y-65719221D01*
X133409563Y-65696166D01*
X133415227Y-65673557D01*
X133423079Y-65651613D01*
X133433044Y-65630543D01*
X133445026Y-65610552D01*
X133458910Y-65591832D01*
X133474562Y-65574562D01*
X133491832Y-65558910D01*
X133510552Y-65545026D01*
X133530543Y-65533044D01*
X133551613Y-65523079D01*
X133573557Y-65515227D01*
X133596166Y-65509563D01*
X133619221Y-65506144D01*
X133642500Y-65505000D01*
X134217500Y-65505000D01*
X134240779Y-65506144D01*
X134240779Y-65506144D01*
G37*
D12*
X133930000Y-65980000D03*
D11*
G36*
X132490779Y-65506144D02*
X132513834Y-65509563D01*
X132536443Y-65515227D01*
X132558387Y-65523079D01*
X132579457Y-65533044D01*
X132599448Y-65545026D01*
X132618168Y-65558910D01*
X132635438Y-65574562D01*
X132651090Y-65591832D01*
X132664974Y-65610552D01*
X132676956Y-65630543D01*
X132686921Y-65651613D01*
X132694773Y-65673557D01*
X132700437Y-65696166D01*
X132703856Y-65719221D01*
X132705000Y-65742500D01*
X132705000Y-66217500D01*
X132703856Y-66240779D01*
X132700437Y-66263834D01*
X132694773Y-66286443D01*
X132686921Y-66308387D01*
X132676956Y-66329457D01*
X132664974Y-66349448D01*
X132651090Y-66368168D01*
X132635438Y-66385438D01*
X132618168Y-66401090D01*
X132599448Y-66414974D01*
X132579457Y-66426956D01*
X132558387Y-66436921D01*
X132536443Y-66444773D01*
X132513834Y-66450437D01*
X132490779Y-66453856D01*
X132467500Y-66455000D01*
X131892500Y-66455000D01*
X131869221Y-66453856D01*
X131846166Y-66450437D01*
X131823557Y-66444773D01*
X131801613Y-66436921D01*
X131780543Y-66426956D01*
X131760552Y-66414974D01*
X131741832Y-66401090D01*
X131724562Y-66385438D01*
X131708910Y-66368168D01*
X131695026Y-66349448D01*
X131683044Y-66329457D01*
X131673079Y-66308387D01*
X131665227Y-66286443D01*
X131659563Y-66263834D01*
X131656144Y-66240779D01*
X131655000Y-66217500D01*
X131655000Y-65742500D01*
X131656144Y-65719221D01*
X131659563Y-65696166D01*
X131665227Y-65673557D01*
X131673079Y-65651613D01*
X131683044Y-65630543D01*
X131695026Y-65610552D01*
X131708910Y-65591832D01*
X131724562Y-65574562D01*
X131741832Y-65558910D01*
X131760552Y-65545026D01*
X131780543Y-65533044D01*
X131801613Y-65523079D01*
X131823557Y-65515227D01*
X131846166Y-65509563D01*
X131869221Y-65506144D01*
X131892500Y-65505000D01*
X132467500Y-65505000D01*
X132490779Y-65506144D01*
X132490779Y-65506144D01*
G37*
D12*
X132180000Y-65980000D03*
G04 #@! TD*
D11*
G04 #@! TO.C,R6*
G36*
X113380779Y-81856144D02*
X113403834Y-81859563D01*
X113426443Y-81865227D01*
X113448387Y-81873079D01*
X113469457Y-81883044D01*
X113489448Y-81895026D01*
X113508168Y-81908910D01*
X113525438Y-81924562D01*
X113541090Y-81941832D01*
X113554974Y-81960552D01*
X113566956Y-81980543D01*
X113576921Y-82001613D01*
X113584773Y-82023557D01*
X113590437Y-82046166D01*
X113593856Y-82069221D01*
X113595000Y-82092500D01*
X113595000Y-82567500D01*
X113593856Y-82590779D01*
X113590437Y-82613834D01*
X113584773Y-82636443D01*
X113576921Y-82658387D01*
X113566956Y-82679457D01*
X113554974Y-82699448D01*
X113541090Y-82718168D01*
X113525438Y-82735438D01*
X113508168Y-82751090D01*
X113489448Y-82764974D01*
X113469457Y-82776956D01*
X113448387Y-82786921D01*
X113426443Y-82794773D01*
X113403834Y-82800437D01*
X113380779Y-82803856D01*
X113357500Y-82805000D01*
X112782500Y-82805000D01*
X112759221Y-82803856D01*
X112736166Y-82800437D01*
X112713557Y-82794773D01*
X112691613Y-82786921D01*
X112670543Y-82776956D01*
X112650552Y-82764974D01*
X112631832Y-82751090D01*
X112614562Y-82735438D01*
X112598910Y-82718168D01*
X112585026Y-82699448D01*
X112573044Y-82679457D01*
X112563079Y-82658387D01*
X112555227Y-82636443D01*
X112549563Y-82613834D01*
X112546144Y-82590779D01*
X112545000Y-82567500D01*
X112545000Y-82092500D01*
X112546144Y-82069221D01*
X112549563Y-82046166D01*
X112555227Y-82023557D01*
X112563079Y-82001613D01*
X112573044Y-81980543D01*
X112585026Y-81960552D01*
X112598910Y-81941832D01*
X112614562Y-81924562D01*
X112631832Y-81908910D01*
X112650552Y-81895026D01*
X112670543Y-81883044D01*
X112691613Y-81873079D01*
X112713557Y-81865227D01*
X112736166Y-81859563D01*
X112759221Y-81856144D01*
X112782500Y-81855000D01*
X113357500Y-81855000D01*
X113380779Y-81856144D01*
X113380779Y-81856144D01*
G37*
D12*
X113070000Y-82330000D03*
D11*
G36*
X115130779Y-81856144D02*
X115153834Y-81859563D01*
X115176443Y-81865227D01*
X115198387Y-81873079D01*
X115219457Y-81883044D01*
X115239448Y-81895026D01*
X115258168Y-81908910D01*
X115275438Y-81924562D01*
X115291090Y-81941832D01*
X115304974Y-81960552D01*
X115316956Y-81980543D01*
X115326921Y-82001613D01*
X115334773Y-82023557D01*
X115340437Y-82046166D01*
X115343856Y-82069221D01*
X115345000Y-82092500D01*
X115345000Y-82567500D01*
X115343856Y-82590779D01*
X115340437Y-82613834D01*
X115334773Y-82636443D01*
X115326921Y-82658387D01*
X115316956Y-82679457D01*
X115304974Y-82699448D01*
X115291090Y-82718168D01*
X115275438Y-82735438D01*
X115258168Y-82751090D01*
X115239448Y-82764974D01*
X115219457Y-82776956D01*
X115198387Y-82786921D01*
X115176443Y-82794773D01*
X115153834Y-82800437D01*
X115130779Y-82803856D01*
X115107500Y-82805000D01*
X114532500Y-82805000D01*
X114509221Y-82803856D01*
X114486166Y-82800437D01*
X114463557Y-82794773D01*
X114441613Y-82786921D01*
X114420543Y-82776956D01*
X114400552Y-82764974D01*
X114381832Y-82751090D01*
X114364562Y-82735438D01*
X114348910Y-82718168D01*
X114335026Y-82699448D01*
X114323044Y-82679457D01*
X114313079Y-82658387D01*
X114305227Y-82636443D01*
X114299563Y-82613834D01*
X114296144Y-82590779D01*
X114295000Y-82567500D01*
X114295000Y-82092500D01*
X114296144Y-82069221D01*
X114299563Y-82046166D01*
X114305227Y-82023557D01*
X114313079Y-82001613D01*
X114323044Y-81980543D01*
X114335026Y-81960552D01*
X114348910Y-81941832D01*
X114364562Y-81924562D01*
X114381832Y-81908910D01*
X114400552Y-81895026D01*
X114420543Y-81883044D01*
X114441613Y-81873079D01*
X114463557Y-81865227D01*
X114486166Y-81859563D01*
X114509221Y-81856144D01*
X114532500Y-81855000D01*
X115107500Y-81855000D01*
X115130779Y-81856144D01*
X115130779Y-81856144D01*
G37*
D12*
X114820000Y-82330000D03*
G04 #@! TD*
D11*
G04 #@! TO.C,R7*
G36*
X113380779Y-83666144D02*
X113403834Y-83669563D01*
X113426443Y-83675227D01*
X113448387Y-83683079D01*
X113469457Y-83693044D01*
X113489448Y-83705026D01*
X113508168Y-83718910D01*
X113525438Y-83734562D01*
X113541090Y-83751832D01*
X113554974Y-83770552D01*
X113566956Y-83790543D01*
X113576921Y-83811613D01*
X113584773Y-83833557D01*
X113590437Y-83856166D01*
X113593856Y-83879221D01*
X113595000Y-83902500D01*
X113595000Y-84377500D01*
X113593856Y-84400779D01*
X113590437Y-84423834D01*
X113584773Y-84446443D01*
X113576921Y-84468387D01*
X113566956Y-84489457D01*
X113554974Y-84509448D01*
X113541090Y-84528168D01*
X113525438Y-84545438D01*
X113508168Y-84561090D01*
X113489448Y-84574974D01*
X113469457Y-84586956D01*
X113448387Y-84596921D01*
X113426443Y-84604773D01*
X113403834Y-84610437D01*
X113380779Y-84613856D01*
X113357500Y-84615000D01*
X112782500Y-84615000D01*
X112759221Y-84613856D01*
X112736166Y-84610437D01*
X112713557Y-84604773D01*
X112691613Y-84596921D01*
X112670543Y-84586956D01*
X112650552Y-84574974D01*
X112631832Y-84561090D01*
X112614562Y-84545438D01*
X112598910Y-84528168D01*
X112585026Y-84509448D01*
X112573044Y-84489457D01*
X112563079Y-84468387D01*
X112555227Y-84446443D01*
X112549563Y-84423834D01*
X112546144Y-84400779D01*
X112545000Y-84377500D01*
X112545000Y-83902500D01*
X112546144Y-83879221D01*
X112549563Y-83856166D01*
X112555227Y-83833557D01*
X112563079Y-83811613D01*
X112573044Y-83790543D01*
X112585026Y-83770552D01*
X112598910Y-83751832D01*
X112614562Y-83734562D01*
X112631832Y-83718910D01*
X112650552Y-83705026D01*
X112670543Y-83693044D01*
X112691613Y-83683079D01*
X112713557Y-83675227D01*
X112736166Y-83669563D01*
X112759221Y-83666144D01*
X112782500Y-83665000D01*
X113357500Y-83665000D01*
X113380779Y-83666144D01*
X113380779Y-83666144D01*
G37*
D12*
X113070000Y-84140000D03*
D11*
G36*
X115130779Y-83666144D02*
X115153834Y-83669563D01*
X115176443Y-83675227D01*
X115198387Y-83683079D01*
X115219457Y-83693044D01*
X115239448Y-83705026D01*
X115258168Y-83718910D01*
X115275438Y-83734562D01*
X115291090Y-83751832D01*
X115304974Y-83770552D01*
X115316956Y-83790543D01*
X115326921Y-83811613D01*
X115334773Y-83833557D01*
X115340437Y-83856166D01*
X115343856Y-83879221D01*
X115345000Y-83902500D01*
X115345000Y-84377500D01*
X115343856Y-84400779D01*
X115340437Y-84423834D01*
X115334773Y-84446443D01*
X115326921Y-84468387D01*
X115316956Y-84489457D01*
X115304974Y-84509448D01*
X115291090Y-84528168D01*
X115275438Y-84545438D01*
X115258168Y-84561090D01*
X115239448Y-84574974D01*
X115219457Y-84586956D01*
X115198387Y-84596921D01*
X115176443Y-84604773D01*
X115153834Y-84610437D01*
X115130779Y-84613856D01*
X115107500Y-84615000D01*
X114532500Y-84615000D01*
X114509221Y-84613856D01*
X114486166Y-84610437D01*
X114463557Y-84604773D01*
X114441613Y-84596921D01*
X114420543Y-84586956D01*
X114400552Y-84574974D01*
X114381832Y-84561090D01*
X114364562Y-84545438D01*
X114348910Y-84528168D01*
X114335026Y-84509448D01*
X114323044Y-84489457D01*
X114313079Y-84468387D01*
X114305227Y-84446443D01*
X114299563Y-84423834D01*
X114296144Y-84400779D01*
X114295000Y-84377500D01*
X114295000Y-83902500D01*
X114296144Y-83879221D01*
X114299563Y-83856166D01*
X114305227Y-83833557D01*
X114313079Y-83811613D01*
X114323044Y-83790543D01*
X114335026Y-83770552D01*
X114348910Y-83751832D01*
X114364562Y-83734562D01*
X114381832Y-83718910D01*
X114400552Y-83705026D01*
X114420543Y-83693044D01*
X114441613Y-83683079D01*
X114463557Y-83675227D01*
X114486166Y-83669563D01*
X114509221Y-83666144D01*
X114532500Y-83665000D01*
X115107500Y-83665000D01*
X115130779Y-83666144D01*
X115130779Y-83666144D01*
G37*
D12*
X114820000Y-84140000D03*
G04 #@! TD*
D11*
G04 #@! TO.C,R8*
G36*
X114220779Y-60526144D02*
X114243834Y-60529563D01*
X114266443Y-60535227D01*
X114288387Y-60543079D01*
X114309457Y-60553044D01*
X114329448Y-60565026D01*
X114348168Y-60578910D01*
X114365438Y-60594562D01*
X114381090Y-60611832D01*
X114394974Y-60630552D01*
X114406956Y-60650543D01*
X114416921Y-60671613D01*
X114424773Y-60693557D01*
X114430437Y-60716166D01*
X114433856Y-60739221D01*
X114435000Y-60762500D01*
X114435000Y-61237500D01*
X114433856Y-61260779D01*
X114430437Y-61283834D01*
X114424773Y-61306443D01*
X114416921Y-61328387D01*
X114406956Y-61349457D01*
X114394974Y-61369448D01*
X114381090Y-61388168D01*
X114365438Y-61405438D01*
X114348168Y-61421090D01*
X114329448Y-61434974D01*
X114309457Y-61446956D01*
X114288387Y-61456921D01*
X114266443Y-61464773D01*
X114243834Y-61470437D01*
X114220779Y-61473856D01*
X114197500Y-61475000D01*
X113622500Y-61475000D01*
X113599221Y-61473856D01*
X113576166Y-61470437D01*
X113553557Y-61464773D01*
X113531613Y-61456921D01*
X113510543Y-61446956D01*
X113490552Y-61434974D01*
X113471832Y-61421090D01*
X113454562Y-61405438D01*
X113438910Y-61388168D01*
X113425026Y-61369448D01*
X113413044Y-61349457D01*
X113403079Y-61328387D01*
X113395227Y-61306443D01*
X113389563Y-61283834D01*
X113386144Y-61260779D01*
X113385000Y-61237500D01*
X113385000Y-60762500D01*
X113386144Y-60739221D01*
X113389563Y-60716166D01*
X113395227Y-60693557D01*
X113403079Y-60671613D01*
X113413044Y-60650543D01*
X113425026Y-60630552D01*
X113438910Y-60611832D01*
X113454562Y-60594562D01*
X113471832Y-60578910D01*
X113490552Y-60565026D01*
X113510543Y-60553044D01*
X113531613Y-60543079D01*
X113553557Y-60535227D01*
X113576166Y-60529563D01*
X113599221Y-60526144D01*
X113622500Y-60525000D01*
X114197500Y-60525000D01*
X114220779Y-60526144D01*
X114220779Y-60526144D01*
G37*
D12*
X113910000Y-61000000D03*
D11*
G36*
X115970779Y-60526144D02*
X115993834Y-60529563D01*
X116016443Y-60535227D01*
X116038387Y-60543079D01*
X116059457Y-60553044D01*
X116079448Y-60565026D01*
X116098168Y-60578910D01*
X116115438Y-60594562D01*
X116131090Y-60611832D01*
X116144974Y-60630552D01*
X116156956Y-60650543D01*
X116166921Y-60671613D01*
X116174773Y-60693557D01*
X116180437Y-60716166D01*
X116183856Y-60739221D01*
X116185000Y-60762500D01*
X116185000Y-61237500D01*
X116183856Y-61260779D01*
X116180437Y-61283834D01*
X116174773Y-61306443D01*
X116166921Y-61328387D01*
X116156956Y-61349457D01*
X116144974Y-61369448D01*
X116131090Y-61388168D01*
X116115438Y-61405438D01*
X116098168Y-61421090D01*
X116079448Y-61434974D01*
X116059457Y-61446956D01*
X116038387Y-61456921D01*
X116016443Y-61464773D01*
X115993834Y-61470437D01*
X115970779Y-61473856D01*
X115947500Y-61475000D01*
X115372500Y-61475000D01*
X115349221Y-61473856D01*
X115326166Y-61470437D01*
X115303557Y-61464773D01*
X115281613Y-61456921D01*
X115260543Y-61446956D01*
X115240552Y-61434974D01*
X115221832Y-61421090D01*
X115204562Y-61405438D01*
X115188910Y-61388168D01*
X115175026Y-61369448D01*
X115163044Y-61349457D01*
X115153079Y-61328387D01*
X115145227Y-61306443D01*
X115139563Y-61283834D01*
X115136144Y-61260779D01*
X115135000Y-61237500D01*
X115135000Y-60762500D01*
X115136144Y-60739221D01*
X115139563Y-60716166D01*
X115145227Y-60693557D01*
X115153079Y-60671613D01*
X115163044Y-60650543D01*
X115175026Y-60630552D01*
X115188910Y-60611832D01*
X115204562Y-60594562D01*
X115221832Y-60578910D01*
X115240552Y-60565026D01*
X115260543Y-60553044D01*
X115281613Y-60543079D01*
X115303557Y-60535227D01*
X115326166Y-60529563D01*
X115349221Y-60526144D01*
X115372500Y-60525000D01*
X115947500Y-60525000D01*
X115970779Y-60526144D01*
X115970779Y-60526144D01*
G37*
D12*
X115660000Y-61000000D03*
G04 #@! TD*
D11*
G04 #@! TO.C,R9*
G36*
X115965779Y-63176144D02*
X115988834Y-63179563D01*
X116011443Y-63185227D01*
X116033387Y-63193079D01*
X116054457Y-63203044D01*
X116074448Y-63215026D01*
X116093168Y-63228910D01*
X116110438Y-63244562D01*
X116126090Y-63261832D01*
X116139974Y-63280552D01*
X116151956Y-63300543D01*
X116161921Y-63321613D01*
X116169773Y-63343557D01*
X116175437Y-63366166D01*
X116178856Y-63389221D01*
X116180000Y-63412500D01*
X116180000Y-63887500D01*
X116178856Y-63910779D01*
X116175437Y-63933834D01*
X116169773Y-63956443D01*
X116161921Y-63978387D01*
X116151956Y-63999457D01*
X116139974Y-64019448D01*
X116126090Y-64038168D01*
X116110438Y-64055438D01*
X116093168Y-64071090D01*
X116074448Y-64084974D01*
X116054457Y-64096956D01*
X116033387Y-64106921D01*
X116011443Y-64114773D01*
X115988834Y-64120437D01*
X115965779Y-64123856D01*
X115942500Y-64125000D01*
X115367500Y-64125000D01*
X115344221Y-64123856D01*
X115321166Y-64120437D01*
X115298557Y-64114773D01*
X115276613Y-64106921D01*
X115255543Y-64096956D01*
X115235552Y-64084974D01*
X115216832Y-64071090D01*
X115199562Y-64055438D01*
X115183910Y-64038168D01*
X115170026Y-64019448D01*
X115158044Y-63999457D01*
X115148079Y-63978387D01*
X115140227Y-63956443D01*
X115134563Y-63933834D01*
X115131144Y-63910779D01*
X115130000Y-63887500D01*
X115130000Y-63412500D01*
X115131144Y-63389221D01*
X115134563Y-63366166D01*
X115140227Y-63343557D01*
X115148079Y-63321613D01*
X115158044Y-63300543D01*
X115170026Y-63280552D01*
X115183910Y-63261832D01*
X115199562Y-63244562D01*
X115216832Y-63228910D01*
X115235552Y-63215026D01*
X115255543Y-63203044D01*
X115276613Y-63193079D01*
X115298557Y-63185227D01*
X115321166Y-63179563D01*
X115344221Y-63176144D01*
X115367500Y-63175000D01*
X115942500Y-63175000D01*
X115965779Y-63176144D01*
X115965779Y-63176144D01*
G37*
D12*
X115655000Y-63650000D03*
D11*
G36*
X114215779Y-63176144D02*
X114238834Y-63179563D01*
X114261443Y-63185227D01*
X114283387Y-63193079D01*
X114304457Y-63203044D01*
X114324448Y-63215026D01*
X114343168Y-63228910D01*
X114360438Y-63244562D01*
X114376090Y-63261832D01*
X114389974Y-63280552D01*
X114401956Y-63300543D01*
X114411921Y-63321613D01*
X114419773Y-63343557D01*
X114425437Y-63366166D01*
X114428856Y-63389221D01*
X114430000Y-63412500D01*
X114430000Y-63887500D01*
X114428856Y-63910779D01*
X114425437Y-63933834D01*
X114419773Y-63956443D01*
X114411921Y-63978387D01*
X114401956Y-63999457D01*
X114389974Y-64019448D01*
X114376090Y-64038168D01*
X114360438Y-64055438D01*
X114343168Y-64071090D01*
X114324448Y-64084974D01*
X114304457Y-64096956D01*
X114283387Y-64106921D01*
X114261443Y-64114773D01*
X114238834Y-64120437D01*
X114215779Y-64123856D01*
X114192500Y-64125000D01*
X113617500Y-64125000D01*
X113594221Y-64123856D01*
X113571166Y-64120437D01*
X113548557Y-64114773D01*
X113526613Y-64106921D01*
X113505543Y-64096956D01*
X113485552Y-64084974D01*
X113466832Y-64071090D01*
X113449562Y-64055438D01*
X113433910Y-64038168D01*
X113420026Y-64019448D01*
X113408044Y-63999457D01*
X113398079Y-63978387D01*
X113390227Y-63956443D01*
X113384563Y-63933834D01*
X113381144Y-63910779D01*
X113380000Y-63887500D01*
X113380000Y-63412500D01*
X113381144Y-63389221D01*
X113384563Y-63366166D01*
X113390227Y-63343557D01*
X113398079Y-63321613D01*
X113408044Y-63300543D01*
X113420026Y-63280552D01*
X113433910Y-63261832D01*
X113449562Y-63244562D01*
X113466832Y-63228910D01*
X113485552Y-63215026D01*
X113505543Y-63203044D01*
X113526613Y-63193079D01*
X113548557Y-63185227D01*
X113571166Y-63179563D01*
X113594221Y-63176144D01*
X113617500Y-63175000D01*
X114192500Y-63175000D01*
X114215779Y-63176144D01*
X114215779Y-63176144D01*
G37*
D12*
X113905000Y-63650000D03*
G04 #@! TD*
D11*
G04 #@! TO.C,R14*
G36*
X112220779Y-93471144D02*
X112243834Y-93474563D01*
X112266443Y-93480227D01*
X112288387Y-93488079D01*
X112309457Y-93498044D01*
X112329448Y-93510026D01*
X112348168Y-93523910D01*
X112365438Y-93539562D01*
X112381090Y-93556832D01*
X112394974Y-93575552D01*
X112406956Y-93595543D01*
X112416921Y-93616613D01*
X112424773Y-93638557D01*
X112430437Y-93661166D01*
X112433856Y-93684221D01*
X112435000Y-93707500D01*
X112435000Y-94282500D01*
X112433856Y-94305779D01*
X112430437Y-94328834D01*
X112424773Y-94351443D01*
X112416921Y-94373387D01*
X112406956Y-94394457D01*
X112394974Y-94414448D01*
X112381090Y-94433168D01*
X112365438Y-94450438D01*
X112348168Y-94466090D01*
X112329448Y-94479974D01*
X112309457Y-94491956D01*
X112288387Y-94501921D01*
X112266443Y-94509773D01*
X112243834Y-94515437D01*
X112220779Y-94518856D01*
X112197500Y-94520000D01*
X111722500Y-94520000D01*
X111699221Y-94518856D01*
X111676166Y-94515437D01*
X111653557Y-94509773D01*
X111631613Y-94501921D01*
X111610543Y-94491956D01*
X111590552Y-94479974D01*
X111571832Y-94466090D01*
X111554562Y-94450438D01*
X111538910Y-94433168D01*
X111525026Y-94414448D01*
X111513044Y-94394457D01*
X111503079Y-94373387D01*
X111495227Y-94351443D01*
X111489563Y-94328834D01*
X111486144Y-94305779D01*
X111485000Y-94282500D01*
X111485000Y-93707500D01*
X111486144Y-93684221D01*
X111489563Y-93661166D01*
X111495227Y-93638557D01*
X111503079Y-93616613D01*
X111513044Y-93595543D01*
X111525026Y-93575552D01*
X111538910Y-93556832D01*
X111554562Y-93539562D01*
X111571832Y-93523910D01*
X111590552Y-93510026D01*
X111610543Y-93498044D01*
X111631613Y-93488079D01*
X111653557Y-93480227D01*
X111676166Y-93474563D01*
X111699221Y-93471144D01*
X111722500Y-93470000D01*
X112197500Y-93470000D01*
X112220779Y-93471144D01*
X112220779Y-93471144D01*
G37*
D12*
X111960000Y-93995000D03*
D11*
G36*
X112220779Y-95221144D02*
X112243834Y-95224563D01*
X112266443Y-95230227D01*
X112288387Y-95238079D01*
X112309457Y-95248044D01*
X112329448Y-95260026D01*
X112348168Y-95273910D01*
X112365438Y-95289562D01*
X112381090Y-95306832D01*
X112394974Y-95325552D01*
X112406956Y-95345543D01*
X112416921Y-95366613D01*
X112424773Y-95388557D01*
X112430437Y-95411166D01*
X112433856Y-95434221D01*
X112435000Y-95457500D01*
X112435000Y-96032500D01*
X112433856Y-96055779D01*
X112430437Y-96078834D01*
X112424773Y-96101443D01*
X112416921Y-96123387D01*
X112406956Y-96144457D01*
X112394974Y-96164448D01*
X112381090Y-96183168D01*
X112365438Y-96200438D01*
X112348168Y-96216090D01*
X112329448Y-96229974D01*
X112309457Y-96241956D01*
X112288387Y-96251921D01*
X112266443Y-96259773D01*
X112243834Y-96265437D01*
X112220779Y-96268856D01*
X112197500Y-96270000D01*
X111722500Y-96270000D01*
X111699221Y-96268856D01*
X111676166Y-96265437D01*
X111653557Y-96259773D01*
X111631613Y-96251921D01*
X111610543Y-96241956D01*
X111590552Y-96229974D01*
X111571832Y-96216090D01*
X111554562Y-96200438D01*
X111538910Y-96183168D01*
X111525026Y-96164448D01*
X111513044Y-96144457D01*
X111503079Y-96123387D01*
X111495227Y-96101443D01*
X111489563Y-96078834D01*
X111486144Y-96055779D01*
X111485000Y-96032500D01*
X111485000Y-95457500D01*
X111486144Y-95434221D01*
X111489563Y-95411166D01*
X111495227Y-95388557D01*
X111503079Y-95366613D01*
X111513044Y-95345543D01*
X111525026Y-95325552D01*
X111538910Y-95306832D01*
X111554562Y-95289562D01*
X111571832Y-95273910D01*
X111590552Y-95260026D01*
X111610543Y-95248044D01*
X111631613Y-95238079D01*
X111653557Y-95230227D01*
X111676166Y-95224563D01*
X111699221Y-95221144D01*
X111722500Y-95220000D01*
X112197500Y-95220000D01*
X112220779Y-95221144D01*
X112220779Y-95221144D01*
G37*
D12*
X111960000Y-95745000D03*
G04 #@! TD*
D11*
G04 #@! TO.C,R15*
G36*
X145680779Y-89476144D02*
X145703834Y-89479563D01*
X145726443Y-89485227D01*
X145748387Y-89493079D01*
X145769457Y-89503044D01*
X145789448Y-89515026D01*
X145808168Y-89528910D01*
X145825438Y-89544562D01*
X145841090Y-89561832D01*
X145854974Y-89580552D01*
X145866956Y-89600543D01*
X145876921Y-89621613D01*
X145884773Y-89643557D01*
X145890437Y-89666166D01*
X145893856Y-89689221D01*
X145895000Y-89712500D01*
X145895000Y-90287500D01*
X145893856Y-90310779D01*
X145890437Y-90333834D01*
X145884773Y-90356443D01*
X145876921Y-90378387D01*
X145866956Y-90399457D01*
X145854974Y-90419448D01*
X145841090Y-90438168D01*
X145825438Y-90455438D01*
X145808168Y-90471090D01*
X145789448Y-90484974D01*
X145769457Y-90496956D01*
X145748387Y-90506921D01*
X145726443Y-90514773D01*
X145703834Y-90520437D01*
X145680779Y-90523856D01*
X145657500Y-90525000D01*
X145182500Y-90525000D01*
X145159221Y-90523856D01*
X145136166Y-90520437D01*
X145113557Y-90514773D01*
X145091613Y-90506921D01*
X145070543Y-90496956D01*
X145050552Y-90484974D01*
X145031832Y-90471090D01*
X145014562Y-90455438D01*
X144998910Y-90438168D01*
X144985026Y-90419448D01*
X144973044Y-90399457D01*
X144963079Y-90378387D01*
X144955227Y-90356443D01*
X144949563Y-90333834D01*
X144946144Y-90310779D01*
X144945000Y-90287500D01*
X144945000Y-89712500D01*
X144946144Y-89689221D01*
X144949563Y-89666166D01*
X144955227Y-89643557D01*
X144963079Y-89621613D01*
X144973044Y-89600543D01*
X144985026Y-89580552D01*
X144998910Y-89561832D01*
X145014562Y-89544562D01*
X145031832Y-89528910D01*
X145050552Y-89515026D01*
X145070543Y-89503044D01*
X145091613Y-89493079D01*
X145113557Y-89485227D01*
X145136166Y-89479563D01*
X145159221Y-89476144D01*
X145182500Y-89475000D01*
X145657500Y-89475000D01*
X145680779Y-89476144D01*
X145680779Y-89476144D01*
G37*
D12*
X145420000Y-90000000D03*
D11*
G36*
X145680779Y-91226144D02*
X145703834Y-91229563D01*
X145726443Y-91235227D01*
X145748387Y-91243079D01*
X145769457Y-91253044D01*
X145789448Y-91265026D01*
X145808168Y-91278910D01*
X145825438Y-91294562D01*
X145841090Y-91311832D01*
X145854974Y-91330552D01*
X145866956Y-91350543D01*
X145876921Y-91371613D01*
X145884773Y-91393557D01*
X145890437Y-91416166D01*
X145893856Y-91439221D01*
X145895000Y-91462500D01*
X145895000Y-92037500D01*
X145893856Y-92060779D01*
X145890437Y-92083834D01*
X145884773Y-92106443D01*
X145876921Y-92128387D01*
X145866956Y-92149457D01*
X145854974Y-92169448D01*
X145841090Y-92188168D01*
X145825438Y-92205438D01*
X145808168Y-92221090D01*
X145789448Y-92234974D01*
X145769457Y-92246956D01*
X145748387Y-92256921D01*
X145726443Y-92264773D01*
X145703834Y-92270437D01*
X145680779Y-92273856D01*
X145657500Y-92275000D01*
X145182500Y-92275000D01*
X145159221Y-92273856D01*
X145136166Y-92270437D01*
X145113557Y-92264773D01*
X145091613Y-92256921D01*
X145070543Y-92246956D01*
X145050552Y-92234974D01*
X145031832Y-92221090D01*
X145014562Y-92205438D01*
X144998910Y-92188168D01*
X144985026Y-92169448D01*
X144973044Y-92149457D01*
X144963079Y-92128387D01*
X144955227Y-92106443D01*
X144949563Y-92083834D01*
X144946144Y-92060779D01*
X144945000Y-92037500D01*
X144945000Y-91462500D01*
X144946144Y-91439221D01*
X144949563Y-91416166D01*
X144955227Y-91393557D01*
X144963079Y-91371613D01*
X144973044Y-91350543D01*
X144985026Y-91330552D01*
X144998910Y-91311832D01*
X145014562Y-91294562D01*
X145031832Y-91278910D01*
X145050552Y-91265026D01*
X145070543Y-91253044D01*
X145091613Y-91243079D01*
X145113557Y-91235227D01*
X145136166Y-91229563D01*
X145159221Y-91226144D01*
X145182500Y-91225000D01*
X145657500Y-91225000D01*
X145680779Y-91226144D01*
X145680779Y-91226144D01*
G37*
D12*
X145420000Y-91750000D03*
G04 #@! TD*
D11*
G04 #@! TO.C,R16*
G36*
X147480779Y-89486144D02*
X147503834Y-89489563D01*
X147526443Y-89495227D01*
X147548387Y-89503079D01*
X147569457Y-89513044D01*
X147589448Y-89525026D01*
X147608168Y-89538910D01*
X147625438Y-89554562D01*
X147641090Y-89571832D01*
X147654974Y-89590552D01*
X147666956Y-89610543D01*
X147676921Y-89631613D01*
X147684773Y-89653557D01*
X147690437Y-89676166D01*
X147693856Y-89699221D01*
X147695000Y-89722500D01*
X147695000Y-90297500D01*
X147693856Y-90320779D01*
X147690437Y-90343834D01*
X147684773Y-90366443D01*
X147676921Y-90388387D01*
X147666956Y-90409457D01*
X147654974Y-90429448D01*
X147641090Y-90448168D01*
X147625438Y-90465438D01*
X147608168Y-90481090D01*
X147589448Y-90494974D01*
X147569457Y-90506956D01*
X147548387Y-90516921D01*
X147526443Y-90524773D01*
X147503834Y-90530437D01*
X147480779Y-90533856D01*
X147457500Y-90535000D01*
X146982500Y-90535000D01*
X146959221Y-90533856D01*
X146936166Y-90530437D01*
X146913557Y-90524773D01*
X146891613Y-90516921D01*
X146870543Y-90506956D01*
X146850552Y-90494974D01*
X146831832Y-90481090D01*
X146814562Y-90465438D01*
X146798910Y-90448168D01*
X146785026Y-90429448D01*
X146773044Y-90409457D01*
X146763079Y-90388387D01*
X146755227Y-90366443D01*
X146749563Y-90343834D01*
X146746144Y-90320779D01*
X146745000Y-90297500D01*
X146745000Y-89722500D01*
X146746144Y-89699221D01*
X146749563Y-89676166D01*
X146755227Y-89653557D01*
X146763079Y-89631613D01*
X146773044Y-89610543D01*
X146785026Y-89590552D01*
X146798910Y-89571832D01*
X146814562Y-89554562D01*
X146831832Y-89538910D01*
X146850552Y-89525026D01*
X146870543Y-89513044D01*
X146891613Y-89503079D01*
X146913557Y-89495227D01*
X146936166Y-89489563D01*
X146959221Y-89486144D01*
X146982500Y-89485000D01*
X147457500Y-89485000D01*
X147480779Y-89486144D01*
X147480779Y-89486144D01*
G37*
D12*
X147220000Y-90010000D03*
D11*
G36*
X147480779Y-91236144D02*
X147503834Y-91239563D01*
X147526443Y-91245227D01*
X147548387Y-91253079D01*
X147569457Y-91263044D01*
X147589448Y-91275026D01*
X147608168Y-91288910D01*
X147625438Y-91304562D01*
X147641090Y-91321832D01*
X147654974Y-91340552D01*
X147666956Y-91360543D01*
X147676921Y-91381613D01*
X147684773Y-91403557D01*
X147690437Y-91426166D01*
X147693856Y-91449221D01*
X147695000Y-91472500D01*
X147695000Y-92047500D01*
X147693856Y-92070779D01*
X147690437Y-92093834D01*
X147684773Y-92116443D01*
X147676921Y-92138387D01*
X147666956Y-92159457D01*
X147654974Y-92179448D01*
X147641090Y-92198168D01*
X147625438Y-92215438D01*
X147608168Y-92231090D01*
X147589448Y-92244974D01*
X147569457Y-92256956D01*
X147548387Y-92266921D01*
X147526443Y-92274773D01*
X147503834Y-92280437D01*
X147480779Y-92283856D01*
X147457500Y-92285000D01*
X146982500Y-92285000D01*
X146959221Y-92283856D01*
X146936166Y-92280437D01*
X146913557Y-92274773D01*
X146891613Y-92266921D01*
X146870543Y-92256956D01*
X146850552Y-92244974D01*
X146831832Y-92231090D01*
X146814562Y-92215438D01*
X146798910Y-92198168D01*
X146785026Y-92179448D01*
X146773044Y-92159457D01*
X146763079Y-92138387D01*
X146755227Y-92116443D01*
X146749563Y-92093834D01*
X146746144Y-92070779D01*
X146745000Y-92047500D01*
X146745000Y-91472500D01*
X146746144Y-91449221D01*
X146749563Y-91426166D01*
X146755227Y-91403557D01*
X146763079Y-91381613D01*
X146773044Y-91360543D01*
X146785026Y-91340552D01*
X146798910Y-91321832D01*
X146814562Y-91304562D01*
X146831832Y-91288910D01*
X146850552Y-91275026D01*
X146870543Y-91263044D01*
X146891613Y-91253079D01*
X146913557Y-91245227D01*
X146936166Y-91239563D01*
X146959221Y-91236144D01*
X146982500Y-91235000D01*
X147457500Y-91235000D01*
X147480779Y-91236144D01*
X147480779Y-91236144D01*
G37*
D12*
X147220000Y-91760000D03*
G04 #@! TD*
D11*
G04 #@! TO.C,R17*
G36*
X119722183Y-93717299D02*
X119745238Y-93720718D01*
X119767847Y-93726382D01*
X119789791Y-93734234D01*
X119810861Y-93744199D01*
X119830852Y-93756181D01*
X119849572Y-93770065D01*
X119866842Y-93785717D01*
X119882494Y-93802987D01*
X119896378Y-93821707D01*
X119908360Y-93841698D01*
X119918325Y-93862768D01*
X119926177Y-93884712D01*
X119931841Y-93907321D01*
X119935260Y-93930376D01*
X119936404Y-93953655D01*
X119936404Y-94428655D01*
X119935260Y-94451934D01*
X119931841Y-94474989D01*
X119926177Y-94497598D01*
X119918325Y-94519542D01*
X119908360Y-94540612D01*
X119896378Y-94560603D01*
X119882494Y-94579323D01*
X119866842Y-94596593D01*
X119849572Y-94612245D01*
X119830852Y-94626129D01*
X119810861Y-94638111D01*
X119789791Y-94648076D01*
X119767847Y-94655928D01*
X119745238Y-94661592D01*
X119722183Y-94665011D01*
X119698904Y-94666155D01*
X119123904Y-94666155D01*
X119100625Y-94665011D01*
X119077570Y-94661592D01*
X119054961Y-94655928D01*
X119033017Y-94648076D01*
X119011947Y-94638111D01*
X118991956Y-94626129D01*
X118973236Y-94612245D01*
X118955966Y-94596593D01*
X118940314Y-94579323D01*
X118926430Y-94560603D01*
X118914448Y-94540612D01*
X118904483Y-94519542D01*
X118896631Y-94497598D01*
X118890967Y-94474989D01*
X118887548Y-94451934D01*
X118886404Y-94428655D01*
X118886404Y-93953655D01*
X118887548Y-93930376D01*
X118890967Y-93907321D01*
X118896631Y-93884712D01*
X118904483Y-93862768D01*
X118914448Y-93841698D01*
X118926430Y-93821707D01*
X118940314Y-93802987D01*
X118955966Y-93785717D01*
X118973236Y-93770065D01*
X118991956Y-93756181D01*
X119011947Y-93744199D01*
X119033017Y-93734234D01*
X119054961Y-93726382D01*
X119077570Y-93720718D01*
X119100625Y-93717299D01*
X119123904Y-93716155D01*
X119698904Y-93716155D01*
X119722183Y-93717299D01*
X119722183Y-93717299D01*
G37*
D12*
X119411404Y-94191155D03*
D11*
G36*
X117972183Y-93717299D02*
X117995238Y-93720718D01*
X118017847Y-93726382D01*
X118039791Y-93734234D01*
X118060861Y-93744199D01*
X118080852Y-93756181D01*
X118099572Y-93770065D01*
X118116842Y-93785717D01*
X118132494Y-93802987D01*
X118146378Y-93821707D01*
X118158360Y-93841698D01*
X118168325Y-93862768D01*
X118176177Y-93884712D01*
X118181841Y-93907321D01*
X118185260Y-93930376D01*
X118186404Y-93953655D01*
X118186404Y-94428655D01*
X118185260Y-94451934D01*
X118181841Y-94474989D01*
X118176177Y-94497598D01*
X118168325Y-94519542D01*
X118158360Y-94540612D01*
X118146378Y-94560603D01*
X118132494Y-94579323D01*
X118116842Y-94596593D01*
X118099572Y-94612245D01*
X118080852Y-94626129D01*
X118060861Y-94638111D01*
X118039791Y-94648076D01*
X118017847Y-94655928D01*
X117995238Y-94661592D01*
X117972183Y-94665011D01*
X117948904Y-94666155D01*
X117373904Y-94666155D01*
X117350625Y-94665011D01*
X117327570Y-94661592D01*
X117304961Y-94655928D01*
X117283017Y-94648076D01*
X117261947Y-94638111D01*
X117241956Y-94626129D01*
X117223236Y-94612245D01*
X117205966Y-94596593D01*
X117190314Y-94579323D01*
X117176430Y-94560603D01*
X117164448Y-94540612D01*
X117154483Y-94519542D01*
X117146631Y-94497598D01*
X117140967Y-94474989D01*
X117137548Y-94451934D01*
X117136404Y-94428655D01*
X117136404Y-93953655D01*
X117137548Y-93930376D01*
X117140967Y-93907321D01*
X117146631Y-93884712D01*
X117154483Y-93862768D01*
X117164448Y-93841698D01*
X117176430Y-93821707D01*
X117190314Y-93802987D01*
X117205966Y-93785717D01*
X117223236Y-93770065D01*
X117241956Y-93756181D01*
X117261947Y-93744199D01*
X117283017Y-93734234D01*
X117304961Y-93726382D01*
X117327570Y-93720718D01*
X117350625Y-93717299D01*
X117373904Y-93716155D01*
X117948904Y-93716155D01*
X117972183Y-93717299D01*
X117972183Y-93717299D01*
G37*
D12*
X117661404Y-94191155D03*
G04 #@! TD*
D17*
G04 #@! TO.C,SW1*
X108690000Y-82510000D03*
X108690000Y-85910000D03*
G04 #@! TD*
D18*
G04 #@! TO.C,U1*
X142400060Y-105400040D03*
X142400060Y-104300220D03*
X142400060Y-103200400D03*
X142400060Y-102100580D03*
X142400060Y-101000760D03*
X142400060Y-99900940D03*
X142400060Y-98801120D03*
X142400060Y-97701300D03*
X150197860Y-97701300D03*
X150197860Y-98801120D03*
X150197860Y-99900940D03*
X150197860Y-101000760D03*
X150197860Y-102100580D03*
X150197860Y-103200400D03*
X150197860Y-104300220D03*
X150197860Y-105400040D03*
D19*
X144599700Y-102400300D03*
X144599700Y-101198880D03*
X144599700Y-100000000D03*
X144599700Y-98798580D03*
X144599700Y-97599700D03*
X145798580Y-102400300D03*
X145798580Y-101198880D03*
X145798580Y-100000000D03*
X145798580Y-98798580D03*
X145798580Y-97599700D03*
X147000000Y-102400300D03*
X147000000Y-101198880D03*
X147000000Y-100000000D03*
X147000000Y-98798580D03*
X147000000Y-97599700D03*
X148198880Y-102400300D03*
X148198880Y-101198880D03*
X148198880Y-100000000D03*
X148198880Y-98798580D03*
X148198880Y-97599700D03*
G04 #@! TD*
D20*
G04 #@! TO.C,U3*
X121354004Y-92200555D03*
X121354004Y-92683155D03*
X121354004Y-93191155D03*
X121354004Y-93699155D03*
X121354004Y-94181755D03*
X125468804Y-94181755D03*
X125468804Y-93699155D03*
X125468804Y-93191155D03*
X125468804Y-92683155D03*
X125468804Y-92200555D03*
G04 #@! TD*
D21*
G04 #@! TO.C,U4*
X124440000Y-63980000D03*
X124440000Y-65880000D03*
X126640000Y-65880000D03*
X126640000Y-64930000D03*
X126640000Y-63980000D03*
G04 #@! TD*
D22*
G04 #@! TO.C,U5*
X136370000Y-90230000D03*
D23*
X133645850Y-88325000D03*
X133645850Y-89595000D03*
X133645850Y-90865000D03*
X133645850Y-92135000D03*
X139094150Y-92135000D03*
X139094150Y-90865000D03*
X139094150Y-89595000D03*
X139094150Y-88325000D03*
G04 #@! TD*
D24*
G04 #@! TO.C,USB_MICRO_CONN1*
X112320000Y-74960000D03*
X112320000Y-74310000D03*
X112320000Y-73660000D03*
X112320000Y-73010000D03*
X112320000Y-72360000D03*
D25*
X111960000Y-76122500D03*
X111960000Y-71197500D03*
D26*
X109660000Y-76570000D03*
X109660000Y-70750000D03*
D27*
X109660000Y-74500000D03*
X109660000Y-72820000D03*
G04 #@! TD*
D28*
G04 #@! TO.C,U2*
X146700000Y-60162500D03*
D11*
G36*
X146495096Y-59169025D02*
X146495381Y-59168087D01*
X146495843Y-59167222D01*
X146496464Y-59166464D01*
X146497222Y-59165843D01*
X146498087Y-59165381D01*
X146499025Y-59165096D01*
X146500000Y-59165000D01*
X146900000Y-59165000D01*
X146900975Y-59165096D01*
X146901913Y-59165381D01*
X146902778Y-59165843D01*
X146903536Y-59166464D01*
X146904157Y-59167222D01*
X146904619Y-59168087D01*
X146904904Y-59169025D01*
X146905000Y-59170000D01*
X146905000Y-59830000D01*
X146904904Y-59830975D01*
X146904619Y-59831913D01*
X146904157Y-59832778D01*
X146903536Y-59833536D01*
X146902778Y-59834157D01*
X146901913Y-59834619D01*
X146900975Y-59834904D01*
X146900000Y-59835000D01*
X146900000Y-60500000D01*
X146750000Y-60500000D01*
X146500000Y-60250000D01*
X146500000Y-59835000D01*
X146499025Y-59834904D01*
X146498087Y-59834619D01*
X146497222Y-59834157D01*
X146496464Y-59833536D01*
X146495843Y-59832778D01*
X146495381Y-59831913D01*
X146495096Y-59830975D01*
X146495000Y-59830000D01*
X146495000Y-59170000D01*
X146495096Y-59169025D01*
X146495096Y-59169025D01*
G37*
D28*
X147200000Y-60162500D03*
D11*
G36*
X146995096Y-59169025D02*
X146995381Y-59168087D01*
X146995843Y-59167222D01*
X146996464Y-59166464D01*
X146997222Y-59165843D01*
X146998087Y-59165381D01*
X146999025Y-59165096D01*
X147000000Y-59165000D01*
X147400000Y-59165000D01*
X147400975Y-59165096D01*
X147401913Y-59165381D01*
X147402778Y-59165843D01*
X147403536Y-59166464D01*
X147404157Y-59167222D01*
X147404619Y-59168087D01*
X147404904Y-59169025D01*
X147405000Y-59170000D01*
X147405000Y-59830000D01*
X147404904Y-59830975D01*
X147404619Y-59831913D01*
X147404157Y-59832778D01*
X147403536Y-59833536D01*
X147402778Y-59834157D01*
X147401913Y-59834619D01*
X147400975Y-59834904D01*
X147400000Y-59835000D01*
X147400000Y-60500000D01*
X147000000Y-60500000D01*
X147000000Y-59835000D01*
X146999025Y-59834904D01*
X146998087Y-59834619D01*
X146997222Y-59834157D01*
X146996464Y-59833536D01*
X146995843Y-59832778D01*
X146995381Y-59831913D01*
X146995096Y-59830975D01*
X146995000Y-59830000D01*
X146995000Y-59170000D01*
X146995096Y-59169025D01*
X146995096Y-59169025D01*
G37*
D28*
X147700000Y-60162500D03*
D11*
G36*
X147495096Y-59169025D02*
X147495381Y-59168087D01*
X147495843Y-59167222D01*
X147496464Y-59166464D01*
X147497222Y-59165843D01*
X147498087Y-59165381D01*
X147499025Y-59165096D01*
X147500000Y-59165000D01*
X147900000Y-59165000D01*
X147900975Y-59165096D01*
X147901913Y-59165381D01*
X147902778Y-59165843D01*
X147903536Y-59166464D01*
X147904157Y-59167222D01*
X147904619Y-59168087D01*
X147904904Y-59169025D01*
X147905000Y-59170000D01*
X147905000Y-59830000D01*
X147904904Y-59830975D01*
X147904619Y-59831913D01*
X147904157Y-59832778D01*
X147903536Y-59833536D01*
X147902778Y-59834157D01*
X147901913Y-59834619D01*
X147900975Y-59834904D01*
X147900000Y-59835000D01*
X147900000Y-60500000D01*
X147500000Y-60500000D01*
X147500000Y-59835000D01*
X147499025Y-59834904D01*
X147498087Y-59834619D01*
X147497222Y-59834157D01*
X147496464Y-59833536D01*
X147495843Y-59832778D01*
X147495381Y-59831913D01*
X147495096Y-59830975D01*
X147495000Y-59830000D01*
X147495000Y-59170000D01*
X147495096Y-59169025D01*
X147495096Y-59169025D01*
G37*
D28*
X148200000Y-60162500D03*
D11*
G36*
X147995096Y-59169025D02*
X147995381Y-59168087D01*
X147995843Y-59167222D01*
X147996464Y-59166464D01*
X147997222Y-59165843D01*
X147998087Y-59165381D01*
X147999025Y-59165096D01*
X148000000Y-59165000D01*
X148400000Y-59165000D01*
X148400975Y-59165096D01*
X148401913Y-59165381D01*
X148402778Y-59165843D01*
X148403536Y-59166464D01*
X148404157Y-59167222D01*
X148404619Y-59168087D01*
X148404904Y-59169025D01*
X148405000Y-59170000D01*
X148405000Y-59830000D01*
X148404904Y-59830975D01*
X148404619Y-59831913D01*
X148404157Y-59832778D01*
X148403536Y-59833536D01*
X148402778Y-59834157D01*
X148401913Y-59834619D01*
X148400975Y-59834904D01*
X148400000Y-59835000D01*
X148400000Y-60250000D01*
X148150000Y-60500000D01*
X148000000Y-60500000D01*
X148000000Y-59835000D01*
X147999025Y-59834904D01*
X147998087Y-59834619D01*
X147997222Y-59834157D01*
X147996464Y-59833536D01*
X147995843Y-59832778D01*
X147995381Y-59831913D01*
X147995096Y-59830975D01*
X147995000Y-59830000D01*
X147995000Y-59170000D01*
X147995096Y-59169025D01*
X147995096Y-59169025D01*
G37*
D28*
X148337500Y-60800000D03*
D11*
G36*
X148250000Y-60600000D02*
X148665000Y-60600000D01*
X148665096Y-60599025D01*
X148665381Y-60598087D01*
X148665843Y-60597222D01*
X148666464Y-60596464D01*
X148667222Y-60595843D01*
X148668087Y-60595381D01*
X148669025Y-60595096D01*
X148670000Y-60595000D01*
X149330000Y-60595000D01*
X149330975Y-60595096D01*
X149331913Y-60595381D01*
X149332778Y-60595843D01*
X149333536Y-60596464D01*
X149334157Y-60597222D01*
X149334619Y-60598087D01*
X149334904Y-60599025D01*
X149335000Y-60600000D01*
X149335000Y-61000000D01*
X149334904Y-61000975D01*
X149334619Y-61001913D01*
X149334157Y-61002778D01*
X149333536Y-61003536D01*
X149332778Y-61004157D01*
X149331913Y-61004619D01*
X149330975Y-61004904D01*
X149330000Y-61005000D01*
X148670000Y-61005000D01*
X148669025Y-61004904D01*
X148668087Y-61004619D01*
X148667222Y-61004157D01*
X148666464Y-61003536D01*
X148665843Y-61002778D01*
X148665381Y-61001913D01*
X148665096Y-61000975D01*
X148665000Y-61000000D01*
X148000000Y-61000000D01*
X148000000Y-60850000D01*
X148250000Y-60600000D01*
X148250000Y-60600000D01*
G37*
D28*
X148337500Y-61300000D03*
D11*
G36*
X148665000Y-61100000D02*
X148665096Y-61099025D01*
X148665381Y-61098087D01*
X148665843Y-61097222D01*
X148666464Y-61096464D01*
X148667222Y-61095843D01*
X148668087Y-61095381D01*
X148669025Y-61095096D01*
X148670000Y-61095000D01*
X149330000Y-61095000D01*
X149330975Y-61095096D01*
X149331913Y-61095381D01*
X149332778Y-61095843D01*
X149333536Y-61096464D01*
X149334157Y-61097222D01*
X149334619Y-61098087D01*
X149334904Y-61099025D01*
X149335000Y-61100000D01*
X149335000Y-61500000D01*
X149334904Y-61500975D01*
X149334619Y-61501913D01*
X149334157Y-61502778D01*
X149333536Y-61503536D01*
X149332778Y-61504157D01*
X149331913Y-61504619D01*
X149330975Y-61504904D01*
X149330000Y-61505000D01*
X148670000Y-61505000D01*
X148669025Y-61504904D01*
X148668087Y-61504619D01*
X148667222Y-61504157D01*
X148666464Y-61503536D01*
X148665843Y-61502778D01*
X148665381Y-61501913D01*
X148665096Y-61500975D01*
X148665000Y-61500000D01*
X148000000Y-61500000D01*
X148000000Y-61100000D01*
X148665000Y-61100000D01*
X148665000Y-61100000D01*
G37*
D28*
X148337500Y-61800000D03*
D11*
G36*
X148665000Y-61600000D02*
X148665096Y-61599025D01*
X148665381Y-61598087D01*
X148665843Y-61597222D01*
X148666464Y-61596464D01*
X148667222Y-61595843D01*
X148668087Y-61595381D01*
X148669025Y-61595096D01*
X148670000Y-61595000D01*
X149330000Y-61595000D01*
X149330975Y-61595096D01*
X149331913Y-61595381D01*
X149332778Y-61595843D01*
X149333536Y-61596464D01*
X149334157Y-61597222D01*
X149334619Y-61598087D01*
X149334904Y-61599025D01*
X149335000Y-61600000D01*
X149335000Y-62000000D01*
X149334904Y-62000975D01*
X149334619Y-62001913D01*
X149334157Y-62002778D01*
X149333536Y-62003536D01*
X149332778Y-62004157D01*
X149331913Y-62004619D01*
X149330975Y-62004904D01*
X149330000Y-62005000D01*
X148670000Y-62005000D01*
X148669025Y-62004904D01*
X148668087Y-62004619D01*
X148667222Y-62004157D01*
X148666464Y-62003536D01*
X148665843Y-62002778D01*
X148665381Y-62001913D01*
X148665096Y-62000975D01*
X148665000Y-62000000D01*
X148250000Y-62000000D01*
X148000000Y-61750000D01*
X148000000Y-61600000D01*
X148665000Y-61600000D01*
X148665000Y-61600000D01*
G37*
D28*
X148200000Y-62437500D03*
D11*
G36*
X147995096Y-62769025D02*
X147995381Y-62768087D01*
X147995843Y-62767222D01*
X147996464Y-62766464D01*
X147997222Y-62765843D01*
X147998087Y-62765381D01*
X147999025Y-62765096D01*
X148000000Y-62765000D01*
X148000000Y-62100000D01*
X148150000Y-62100000D01*
X148400000Y-62350000D01*
X148400000Y-62765000D01*
X148400975Y-62765096D01*
X148401913Y-62765381D01*
X148402778Y-62765843D01*
X148403536Y-62766464D01*
X148404157Y-62767222D01*
X148404619Y-62768087D01*
X148404904Y-62769025D01*
X148405000Y-62770000D01*
X148405000Y-63430000D01*
X148404904Y-63430975D01*
X148404619Y-63431913D01*
X148404157Y-63432778D01*
X148403536Y-63433536D01*
X148402778Y-63434157D01*
X148401913Y-63434619D01*
X148400975Y-63434904D01*
X148400000Y-63435000D01*
X148000000Y-63435000D01*
X147999025Y-63434904D01*
X147998087Y-63434619D01*
X147997222Y-63434157D01*
X147996464Y-63433536D01*
X147995843Y-63432778D01*
X147995381Y-63431913D01*
X147995096Y-63430975D01*
X147995000Y-63430000D01*
X147995000Y-62770000D01*
X147995096Y-62769025D01*
X147995096Y-62769025D01*
G37*
D28*
X147700000Y-62437500D03*
D11*
G36*
X147495096Y-62769025D02*
X147495381Y-62768087D01*
X147495843Y-62767222D01*
X147496464Y-62766464D01*
X147497222Y-62765843D01*
X147498087Y-62765381D01*
X147499025Y-62765096D01*
X147500000Y-62765000D01*
X147500000Y-62100000D01*
X147900000Y-62100000D01*
X147900000Y-62765000D01*
X147900975Y-62765096D01*
X147901913Y-62765381D01*
X147902778Y-62765843D01*
X147903536Y-62766464D01*
X147904157Y-62767222D01*
X147904619Y-62768087D01*
X147904904Y-62769025D01*
X147905000Y-62770000D01*
X147905000Y-63430000D01*
X147904904Y-63430975D01*
X147904619Y-63431913D01*
X147904157Y-63432778D01*
X147903536Y-63433536D01*
X147902778Y-63434157D01*
X147901913Y-63434619D01*
X147900975Y-63434904D01*
X147900000Y-63435000D01*
X147500000Y-63435000D01*
X147499025Y-63434904D01*
X147498087Y-63434619D01*
X147497222Y-63434157D01*
X147496464Y-63433536D01*
X147495843Y-63432778D01*
X147495381Y-63431913D01*
X147495096Y-63430975D01*
X147495000Y-63430000D01*
X147495000Y-62770000D01*
X147495096Y-62769025D01*
X147495096Y-62769025D01*
G37*
D28*
X146562500Y-60800000D03*
D11*
G36*
X145565096Y-60599025D02*
X145565381Y-60598087D01*
X145565843Y-60597222D01*
X145566464Y-60596464D01*
X145567222Y-60595843D01*
X145568087Y-60595381D01*
X145569025Y-60595096D01*
X145570000Y-60595000D01*
X146230000Y-60595000D01*
X146230975Y-60595096D01*
X146231913Y-60595381D01*
X146232778Y-60595843D01*
X146233536Y-60596464D01*
X146234157Y-60597222D01*
X146234619Y-60598087D01*
X146234904Y-60599025D01*
X146235000Y-60600000D01*
X146650000Y-60600000D01*
X146900000Y-60850000D01*
X146900000Y-61000000D01*
X146235000Y-61000000D01*
X146234904Y-61000975D01*
X146234619Y-61001913D01*
X146234157Y-61002778D01*
X146233536Y-61003536D01*
X146232778Y-61004157D01*
X146231913Y-61004619D01*
X146230975Y-61004904D01*
X146230000Y-61005000D01*
X145570000Y-61005000D01*
X145569025Y-61004904D01*
X145568087Y-61004619D01*
X145567222Y-61004157D01*
X145566464Y-61003536D01*
X145565843Y-61002778D01*
X145565381Y-61001913D01*
X145565096Y-61000975D01*
X145565000Y-61000000D01*
X145565000Y-60600000D01*
X145565096Y-60599025D01*
X145565096Y-60599025D01*
G37*
D28*
X146562500Y-61300000D03*
D11*
G36*
X145565096Y-61099025D02*
X145565381Y-61098087D01*
X145565843Y-61097222D01*
X145566464Y-61096464D01*
X145567222Y-61095843D01*
X145568087Y-61095381D01*
X145569025Y-61095096D01*
X145570000Y-61095000D01*
X146230000Y-61095000D01*
X146230975Y-61095096D01*
X146231913Y-61095381D01*
X146232778Y-61095843D01*
X146233536Y-61096464D01*
X146234157Y-61097222D01*
X146234619Y-61098087D01*
X146234904Y-61099025D01*
X146235000Y-61100000D01*
X146900000Y-61100000D01*
X146900000Y-61500000D01*
X146235000Y-61500000D01*
X146234904Y-61500975D01*
X146234619Y-61501913D01*
X146234157Y-61502778D01*
X146233536Y-61503536D01*
X146232778Y-61504157D01*
X146231913Y-61504619D01*
X146230975Y-61504904D01*
X146230000Y-61505000D01*
X145570000Y-61505000D01*
X145569025Y-61504904D01*
X145568087Y-61504619D01*
X145567222Y-61504157D01*
X145566464Y-61503536D01*
X145565843Y-61502778D01*
X145565381Y-61501913D01*
X145565096Y-61500975D01*
X145565000Y-61500000D01*
X145565000Y-61100000D01*
X145565096Y-61099025D01*
X145565096Y-61099025D01*
G37*
D28*
X146562500Y-61800000D03*
D11*
G36*
X145565096Y-61599025D02*
X145565381Y-61598087D01*
X145565843Y-61597222D01*
X145566464Y-61596464D01*
X145567222Y-61595843D01*
X145568087Y-61595381D01*
X145569025Y-61595096D01*
X145570000Y-61595000D01*
X146230000Y-61595000D01*
X146230975Y-61595096D01*
X146231913Y-61595381D01*
X146232778Y-61595843D01*
X146233536Y-61596464D01*
X146234157Y-61597222D01*
X146234619Y-61598087D01*
X146234904Y-61599025D01*
X146235000Y-61600000D01*
X146900000Y-61600000D01*
X146900000Y-61750000D01*
X146650000Y-62000000D01*
X146235000Y-62000000D01*
X146234904Y-62000975D01*
X146234619Y-62001913D01*
X146234157Y-62002778D01*
X146233536Y-62003536D01*
X146232778Y-62004157D01*
X146231913Y-62004619D01*
X146230975Y-62004904D01*
X146230000Y-62005000D01*
X145570000Y-62005000D01*
X145569025Y-62004904D01*
X145568087Y-62004619D01*
X145567222Y-62004157D01*
X145566464Y-62003536D01*
X145565843Y-62002778D01*
X145565381Y-62001913D01*
X145565096Y-62000975D01*
X145565000Y-62000000D01*
X145565000Y-61600000D01*
X145565096Y-61599025D01*
X145565096Y-61599025D01*
G37*
D28*
X147200000Y-62437500D03*
D11*
G36*
X146995096Y-62769025D02*
X146995381Y-62768087D01*
X146995843Y-62767222D01*
X146996464Y-62766464D01*
X146997222Y-62765843D01*
X146998087Y-62765381D01*
X146999025Y-62765096D01*
X147000000Y-62765000D01*
X147000000Y-62100000D01*
X147400000Y-62100000D01*
X147400000Y-62765000D01*
X147400975Y-62765096D01*
X147401913Y-62765381D01*
X147402778Y-62765843D01*
X147403536Y-62766464D01*
X147404157Y-62767222D01*
X147404619Y-62768087D01*
X147404904Y-62769025D01*
X147405000Y-62770000D01*
X147405000Y-63430000D01*
X147404904Y-63430975D01*
X147404619Y-63431913D01*
X147404157Y-63432778D01*
X147403536Y-63433536D01*
X147402778Y-63434157D01*
X147401913Y-63434619D01*
X147400975Y-63434904D01*
X147400000Y-63435000D01*
X147000000Y-63435000D01*
X146999025Y-63434904D01*
X146998087Y-63434619D01*
X146997222Y-63434157D01*
X146996464Y-63433536D01*
X146995843Y-63432778D01*
X146995381Y-63431913D01*
X146995096Y-63430975D01*
X146995000Y-63430000D01*
X146995000Y-62770000D01*
X146995096Y-62769025D01*
X146995096Y-62769025D01*
G37*
D28*
X146700000Y-62437500D03*
D11*
G36*
X146495096Y-62769025D02*
X146495381Y-62768087D01*
X146495843Y-62767222D01*
X146496464Y-62766464D01*
X146497222Y-62765843D01*
X146498087Y-62765381D01*
X146499025Y-62765096D01*
X146500000Y-62765000D01*
X146500000Y-62350000D01*
X146750000Y-62100000D01*
X146900000Y-62100000D01*
X146900000Y-62765000D01*
X146900975Y-62765096D01*
X146901913Y-62765381D01*
X146902778Y-62765843D01*
X146903536Y-62766464D01*
X146904157Y-62767222D01*
X146904619Y-62768087D01*
X146904904Y-62769025D01*
X146905000Y-62770000D01*
X146905000Y-63430000D01*
X146904904Y-63430975D01*
X146904619Y-63431913D01*
X146904157Y-63432778D01*
X146903536Y-63433536D01*
X146902778Y-63434157D01*
X146901913Y-63434619D01*
X146900975Y-63434904D01*
X146900000Y-63435000D01*
X146500000Y-63435000D01*
X146499025Y-63434904D01*
X146498087Y-63434619D01*
X146497222Y-63434157D01*
X146496464Y-63433536D01*
X146495843Y-63432778D01*
X146495381Y-63431913D01*
X146495096Y-63430975D01*
X146495000Y-63430000D01*
X146495000Y-62770000D01*
X146495096Y-62769025D01*
X146495096Y-62769025D01*
G37*
G04 #@! TD*
M02*
