G04 #@! TF.GenerationSoftware,KiCad,Pcbnew,5.0.2-bee76a0~70~ubuntu18.04.1*
G04 #@! TF.CreationDate,2020-07-09T21:56:47-07:00*
G04 #@! TF.ProjectId,light_thing_hw,6c696768-745f-4746-9869-6e675f68772e,rev?*
G04 #@! TF.SameCoordinates,Original*
G04 #@! TF.FileFunction,Soldermask,Top*
G04 #@! TF.FilePolarity,Negative*
%FSLAX46Y46*%
G04 Gerber Fmt 4.6, Leading zero omitted, Abs format (unit mm)*
G04 Created by KiCad (PCBNEW 5.0.2-bee76a0~70~ubuntu18.04.1) date Thu 09 Jul 2020 09:56:47 PM PDT*
%MOMM*%
%LPD*%
G01*
G04 APERTURE LIST*
%ADD10C,0.100000*%
G04 APERTURE END LIST*
D10*
G36*
X132584024Y-93298955D02*
X132616736Y-93308879D01*
X132646890Y-93324997D01*
X132673316Y-93346684D01*
X132695003Y-93373110D01*
X132711121Y-93403264D01*
X132721045Y-93435976D01*
X132725000Y-93476138D01*
X132725000Y-94063862D01*
X132721045Y-94104024D01*
X132711121Y-94136736D01*
X132695003Y-94166890D01*
X132673316Y-94193316D01*
X132646890Y-94215003D01*
X132616736Y-94231121D01*
X132584024Y-94241045D01*
X132543862Y-94245000D01*
X131856138Y-94245000D01*
X131815976Y-94241045D01*
X131783264Y-94231121D01*
X131753110Y-94215003D01*
X131726684Y-94193316D01*
X131704997Y-94166890D01*
X131688879Y-94136736D01*
X131678955Y-94104024D01*
X131675000Y-94063862D01*
X131675000Y-93476138D01*
X131678955Y-93435976D01*
X131688879Y-93403264D01*
X131704997Y-93373110D01*
X131726684Y-93346684D01*
X131753110Y-93324997D01*
X131783264Y-93308879D01*
X131815976Y-93298955D01*
X131856138Y-93295000D01*
X132543862Y-93295000D01*
X132584024Y-93298955D01*
X132584024Y-93298955D01*
G37*
G36*
X130834024Y-93298955D02*
X130866736Y-93308879D01*
X130896890Y-93324997D01*
X130923316Y-93346684D01*
X130945003Y-93373110D01*
X130961121Y-93403264D01*
X130971045Y-93435976D01*
X130975000Y-93476138D01*
X130975000Y-94063862D01*
X130971045Y-94104024D01*
X130961121Y-94136736D01*
X130945003Y-94166890D01*
X130923316Y-94193316D01*
X130896890Y-94215003D01*
X130866736Y-94231121D01*
X130834024Y-94241045D01*
X130793862Y-94245000D01*
X130106138Y-94245000D01*
X130065976Y-94241045D01*
X130033264Y-94231121D01*
X130003110Y-94215003D01*
X129976684Y-94193316D01*
X129954997Y-94166890D01*
X129938879Y-94136736D01*
X129928955Y-94104024D01*
X129925000Y-94063862D01*
X129925000Y-93476138D01*
X129928955Y-93435976D01*
X129938879Y-93403264D01*
X129954997Y-93373110D01*
X129976684Y-93346684D01*
X130003110Y-93324997D01*
X130033264Y-93308879D01*
X130065976Y-93298955D01*
X130106138Y-93295000D01*
X130793862Y-93295000D01*
X130834024Y-93298955D01*
X130834024Y-93298955D01*
G37*
G36*
X128070000Y-93330000D02*
X126570000Y-93330000D01*
X126570000Y-91830000D01*
X128070000Y-91830000D01*
X128070000Y-93330000D01*
X128070000Y-93330000D01*
G37*
G36*
X120270000Y-93330000D02*
X118770000Y-93330000D01*
X118770000Y-91830000D01*
X120270000Y-91830000D01*
X120270000Y-93330000D01*
X120270000Y-93330000D01*
G37*
G36*
X137345845Y-89869215D02*
X137436839Y-89906906D01*
X137517640Y-89960896D01*
X137518734Y-89961627D01*
X137588373Y-90031266D01*
X137643095Y-90113163D01*
X137680785Y-90204155D01*
X137700000Y-90300755D01*
X137700000Y-90399245D01*
X137680785Y-90495845D01*
X137643095Y-90586837D01*
X137588373Y-90668734D01*
X137518734Y-90738373D01*
X137518731Y-90738375D01*
X137436839Y-90793094D01*
X137345845Y-90830785D01*
X137249246Y-90850000D01*
X137150754Y-90850000D01*
X137054155Y-90830785D01*
X136963161Y-90793094D01*
X136881269Y-90738375D01*
X136881266Y-90738373D01*
X136811627Y-90668734D01*
X136756905Y-90586837D01*
X136719215Y-90495845D01*
X136700000Y-90399245D01*
X136700000Y-90300755D01*
X136719215Y-90204155D01*
X136756905Y-90113163D01*
X136811627Y-90031266D01*
X136881266Y-89961627D01*
X136882360Y-89960896D01*
X136963161Y-89906906D01*
X137054155Y-89869215D01*
X137150754Y-89850000D01*
X137249246Y-89850000D01*
X137345845Y-89869215D01*
X137345845Y-89869215D01*
G37*
G36*
X130943595Y-84732650D02*
X130976307Y-84742574D01*
X131006461Y-84758692D01*
X131032887Y-84780379D01*
X131054574Y-84806805D01*
X131070692Y-84836959D01*
X131080616Y-84869671D01*
X131084571Y-84909833D01*
X131084571Y-85597557D01*
X131080616Y-85637719D01*
X131070692Y-85670431D01*
X131054574Y-85700585D01*
X131032887Y-85727011D01*
X131006461Y-85748698D01*
X130976307Y-85764816D01*
X130943595Y-85774740D01*
X130903433Y-85778695D01*
X130315709Y-85778695D01*
X130275547Y-85774740D01*
X130242835Y-85764816D01*
X130212681Y-85748698D01*
X130186255Y-85727011D01*
X130164568Y-85700585D01*
X130148450Y-85670431D01*
X130138526Y-85637719D01*
X130134571Y-85597557D01*
X130134571Y-84909833D01*
X130138526Y-84869671D01*
X130148450Y-84836959D01*
X130164568Y-84806805D01*
X130186255Y-84780379D01*
X130212681Y-84758692D01*
X130242835Y-84742574D01*
X130275547Y-84732650D01*
X130315709Y-84728695D01*
X130903433Y-84728695D01*
X130943595Y-84732650D01*
X130943595Y-84732650D01*
G37*
G36*
X129343595Y-84732650D02*
X129376307Y-84742574D01*
X129406461Y-84758692D01*
X129432887Y-84780379D01*
X129454574Y-84806805D01*
X129470692Y-84836959D01*
X129480616Y-84869671D01*
X129484571Y-84909833D01*
X129484571Y-85597557D01*
X129480616Y-85637719D01*
X129470692Y-85670431D01*
X129454574Y-85700585D01*
X129432887Y-85727011D01*
X129406461Y-85748698D01*
X129376307Y-85764816D01*
X129343595Y-85774740D01*
X129303433Y-85778695D01*
X128715709Y-85778695D01*
X128675547Y-85774740D01*
X128642835Y-85764816D01*
X128612681Y-85748698D01*
X128586255Y-85727011D01*
X128564568Y-85700585D01*
X128548450Y-85670431D01*
X128538526Y-85637719D01*
X128534571Y-85597557D01*
X128534571Y-84909833D01*
X128538526Y-84869671D01*
X128548450Y-84836959D01*
X128564568Y-84806805D01*
X128586255Y-84780379D01*
X128612681Y-84758692D01*
X128642835Y-84742574D01*
X128675547Y-84732650D01*
X128715709Y-84728695D01*
X129303433Y-84728695D01*
X129343595Y-84732650D01*
X129343595Y-84732650D01*
G37*
G36*
X134450183Y-83342058D02*
X134482895Y-83351982D01*
X134513049Y-83368100D01*
X134539475Y-83389787D01*
X134561162Y-83416213D01*
X134577280Y-83446367D01*
X134587204Y-83479079D01*
X134591159Y-83519241D01*
X134591159Y-84106965D01*
X134587204Y-84147127D01*
X134577280Y-84179839D01*
X134561162Y-84209993D01*
X134539475Y-84236419D01*
X134513049Y-84258106D01*
X134482895Y-84274224D01*
X134450183Y-84284148D01*
X134410021Y-84288103D01*
X133722297Y-84288103D01*
X133682135Y-84284148D01*
X133649423Y-84274224D01*
X133619269Y-84258106D01*
X133592843Y-84236419D01*
X133571156Y-84209993D01*
X133555038Y-84179839D01*
X133545114Y-84147127D01*
X133541159Y-84106965D01*
X133541159Y-83519241D01*
X133545114Y-83479079D01*
X133555038Y-83446367D01*
X133571156Y-83416213D01*
X133592843Y-83389787D01*
X133619269Y-83368100D01*
X133649423Y-83351982D01*
X133682135Y-83342058D01*
X133722297Y-83338103D01*
X134410021Y-83338103D01*
X134450183Y-83342058D01*
X134450183Y-83342058D01*
G37*
G36*
X132700183Y-83342058D02*
X132732895Y-83351982D01*
X132763049Y-83368100D01*
X132789475Y-83389787D01*
X132811162Y-83416213D01*
X132827280Y-83446367D01*
X132837204Y-83479079D01*
X132841159Y-83519241D01*
X132841159Y-84106965D01*
X132837204Y-84147127D01*
X132827280Y-84179839D01*
X132811162Y-84209993D01*
X132789475Y-84236419D01*
X132763049Y-84258106D01*
X132732895Y-84274224D01*
X132700183Y-84284148D01*
X132660021Y-84288103D01*
X131972297Y-84288103D01*
X131932135Y-84284148D01*
X131899423Y-84274224D01*
X131869269Y-84258106D01*
X131842843Y-84236419D01*
X131821156Y-84209993D01*
X131805038Y-84179839D01*
X131795114Y-84147127D01*
X131791159Y-84106965D01*
X131791159Y-83519241D01*
X131795114Y-83479079D01*
X131805038Y-83446367D01*
X131821156Y-83416213D01*
X131842843Y-83389787D01*
X131869269Y-83368100D01*
X131899423Y-83351982D01*
X131932135Y-83342058D01*
X131972297Y-83338103D01*
X132660021Y-83338103D01*
X132700183Y-83342058D01*
X132700183Y-83342058D01*
G37*
G36*
X119713595Y-83252650D02*
X119746307Y-83262574D01*
X119776461Y-83278692D01*
X119802887Y-83300379D01*
X119824574Y-83326805D01*
X119840692Y-83356959D01*
X119850616Y-83389671D01*
X119854571Y-83429833D01*
X119854571Y-84017557D01*
X119850616Y-84057719D01*
X119840692Y-84090431D01*
X119824574Y-84120585D01*
X119802887Y-84147011D01*
X119776461Y-84168698D01*
X119746307Y-84184816D01*
X119713595Y-84194740D01*
X119673433Y-84198695D01*
X118985709Y-84198695D01*
X118945547Y-84194740D01*
X118912835Y-84184816D01*
X118882681Y-84168698D01*
X118856255Y-84147011D01*
X118834568Y-84120585D01*
X118818450Y-84090431D01*
X118808526Y-84057719D01*
X118804571Y-84017557D01*
X118804571Y-83429833D01*
X118808526Y-83389671D01*
X118818450Y-83356959D01*
X118834568Y-83326805D01*
X118856255Y-83300379D01*
X118882681Y-83278692D01*
X118912835Y-83262574D01*
X118945547Y-83252650D01*
X118985709Y-83248695D01*
X119673433Y-83248695D01*
X119713595Y-83252650D01*
X119713595Y-83252650D01*
G37*
G36*
X121463595Y-83252650D02*
X121496307Y-83262574D01*
X121526461Y-83278692D01*
X121552887Y-83300379D01*
X121574574Y-83326805D01*
X121590692Y-83356959D01*
X121600616Y-83389671D01*
X121604571Y-83429833D01*
X121604571Y-84017557D01*
X121600616Y-84057719D01*
X121590692Y-84090431D01*
X121574574Y-84120585D01*
X121552887Y-84147011D01*
X121526461Y-84168698D01*
X121496307Y-84184816D01*
X121463595Y-84194740D01*
X121423433Y-84198695D01*
X120735709Y-84198695D01*
X120695547Y-84194740D01*
X120662835Y-84184816D01*
X120632681Y-84168698D01*
X120606255Y-84147011D01*
X120584568Y-84120585D01*
X120568450Y-84090431D01*
X120558526Y-84057719D01*
X120554571Y-84017557D01*
X120554571Y-83429833D01*
X120558526Y-83389671D01*
X120568450Y-83356959D01*
X120584568Y-83326805D01*
X120606255Y-83300379D01*
X120632681Y-83278692D01*
X120662835Y-83262574D01*
X120695547Y-83252650D01*
X120735709Y-83248695D01*
X121423433Y-83248695D01*
X121463595Y-83252650D01*
X121463595Y-83252650D01*
G37*
G36*
X129343595Y-82982650D02*
X129376307Y-82992574D01*
X129406461Y-83008692D01*
X129432887Y-83030379D01*
X129454574Y-83056805D01*
X129470692Y-83086959D01*
X129480616Y-83119671D01*
X129484571Y-83159833D01*
X129484571Y-83847557D01*
X129480616Y-83887719D01*
X129470692Y-83920431D01*
X129454574Y-83950585D01*
X129432887Y-83977011D01*
X129406461Y-83998698D01*
X129376307Y-84014816D01*
X129343595Y-84024740D01*
X129303433Y-84028695D01*
X128715709Y-84028695D01*
X128675547Y-84024740D01*
X128642835Y-84014816D01*
X128612681Y-83998698D01*
X128586255Y-83977011D01*
X128564568Y-83950585D01*
X128548450Y-83920431D01*
X128538526Y-83887719D01*
X128534571Y-83847557D01*
X128534571Y-83159833D01*
X128538526Y-83119671D01*
X128548450Y-83086959D01*
X128564568Y-83056805D01*
X128586255Y-83030379D01*
X128612681Y-83008692D01*
X128642835Y-82992574D01*
X128675547Y-82982650D01*
X128715709Y-82978695D01*
X129303433Y-82978695D01*
X129343595Y-82982650D01*
X129343595Y-82982650D01*
G37*
G36*
X130943595Y-82982650D02*
X130976307Y-82992574D01*
X131006461Y-83008692D01*
X131032887Y-83030379D01*
X131054574Y-83056805D01*
X131070692Y-83086959D01*
X131080616Y-83119671D01*
X131084571Y-83159833D01*
X131084571Y-83847557D01*
X131080616Y-83887719D01*
X131070692Y-83920431D01*
X131054574Y-83950585D01*
X131032887Y-83977011D01*
X131006461Y-83998698D01*
X130976307Y-84014816D01*
X130943595Y-84024740D01*
X130903433Y-84028695D01*
X130315709Y-84028695D01*
X130275547Y-84024740D01*
X130242835Y-84014816D01*
X130212681Y-83998698D01*
X130186255Y-83977011D01*
X130164568Y-83950585D01*
X130148450Y-83920431D01*
X130138526Y-83887719D01*
X130134571Y-83847557D01*
X130134571Y-83159833D01*
X130138526Y-83119671D01*
X130148450Y-83086959D01*
X130164568Y-83056805D01*
X130186255Y-83030379D01*
X130212681Y-83008692D01*
X130242835Y-82992574D01*
X130275547Y-82982650D01*
X130315709Y-82978695D01*
X130903433Y-82978695D01*
X130943595Y-82982650D01*
X130943595Y-82982650D01*
G37*
G36*
X144189000Y-79183357D02*
X144191402Y-79207743D01*
X144198515Y-79231192D01*
X144210066Y-79252803D01*
X144225612Y-79271745D01*
X144244554Y-79287291D01*
X144266165Y-79298842D01*
X144289614Y-79305955D01*
X144314000Y-79308357D01*
X144338386Y-79305955D01*
X144361835Y-79298842D01*
X144383446Y-79287291D01*
X144410624Y-79262659D01*
X144462026Y-79200026D01*
X144526740Y-79146916D01*
X144526742Y-79146915D01*
X144526743Y-79146914D01*
X144600573Y-79107451D01*
X144680684Y-79083149D01*
X144743122Y-79077000D01*
X144784878Y-79077000D01*
X144847316Y-79083149D01*
X144927427Y-79107451D01*
X145001257Y-79146914D01*
X145001258Y-79146915D01*
X145001260Y-79146916D01*
X145065974Y-79200026D01*
X145117375Y-79262657D01*
X145119086Y-79264743D01*
X145158549Y-79338573D01*
X145182851Y-79418684D01*
X145191056Y-79502000D01*
X145182851Y-79585316D01*
X145158549Y-79665427D01*
X145119086Y-79739257D01*
X145119084Y-79739260D01*
X145065974Y-79803974D01*
X145001260Y-79857084D01*
X144936383Y-79891761D01*
X144916011Y-79905373D01*
X144898684Y-79922700D01*
X144885070Y-79943075D01*
X144875693Y-79965714D01*
X144870912Y-79989747D01*
X144870912Y-80014251D01*
X144875692Y-80038285D01*
X144885069Y-80060924D01*
X144898683Y-80081299D01*
X144916010Y-80098626D01*
X144936383Y-80112239D01*
X144953608Y-80121446D01*
X145001260Y-80146916D01*
X145065974Y-80200026D01*
X145119086Y-80264743D01*
X145158549Y-80338573D01*
X145182851Y-80418684D01*
X145191056Y-80502000D01*
X145182851Y-80585316D01*
X145158549Y-80665427D01*
X145119086Y-80739257D01*
X145119084Y-80739260D01*
X145065974Y-80803974D01*
X145001260Y-80857084D01*
X144936383Y-80891761D01*
X144916011Y-80905373D01*
X144898684Y-80922700D01*
X144885070Y-80943075D01*
X144875693Y-80965714D01*
X144870912Y-80989747D01*
X144870912Y-81014251D01*
X144875692Y-81038285D01*
X144885069Y-81060924D01*
X144898683Y-81081299D01*
X144916010Y-81098626D01*
X144936383Y-81112239D01*
X145001260Y-81146916D01*
X145065974Y-81200026D01*
X145119086Y-81264743D01*
X145158549Y-81338573D01*
X145182851Y-81418684D01*
X145191056Y-81502000D01*
X145182851Y-81585316D01*
X145158549Y-81665427D01*
X145119086Y-81739257D01*
X145119084Y-81739260D01*
X145065974Y-81803974D01*
X145001260Y-81857084D01*
X144936383Y-81891761D01*
X144916011Y-81905373D01*
X144898684Y-81922700D01*
X144885070Y-81943075D01*
X144875693Y-81965714D01*
X144870912Y-81989747D01*
X144870912Y-82014251D01*
X144875692Y-82038285D01*
X144885069Y-82060924D01*
X144898683Y-82081299D01*
X144916010Y-82098626D01*
X144936383Y-82112239D01*
X145001260Y-82146916D01*
X145065974Y-82200026D01*
X145119086Y-82264743D01*
X145158549Y-82338573D01*
X145182851Y-82418684D01*
X145191056Y-82502000D01*
X145182851Y-82585316D01*
X145158549Y-82665427D01*
X145119086Y-82739257D01*
X145119084Y-82739260D01*
X145065974Y-82803974D01*
X145001260Y-82857084D01*
X144936383Y-82891761D01*
X144916011Y-82905373D01*
X144898684Y-82922700D01*
X144885070Y-82943075D01*
X144875693Y-82965714D01*
X144870912Y-82989747D01*
X144870912Y-83014251D01*
X144875692Y-83038285D01*
X144885069Y-83060924D01*
X144898683Y-83081299D01*
X144916010Y-83098626D01*
X144936383Y-83112239D01*
X145001260Y-83146916D01*
X145065974Y-83200026D01*
X145109661Y-83253258D01*
X145119086Y-83264743D01*
X145158549Y-83338573D01*
X145182851Y-83418684D01*
X145191056Y-83502000D01*
X145182851Y-83585316D01*
X145158549Y-83665427D01*
X145119086Y-83739257D01*
X145119084Y-83739260D01*
X145065974Y-83803974D01*
X145001260Y-83857084D01*
X145001258Y-83857085D01*
X145001257Y-83857086D01*
X144927427Y-83896549D01*
X144847316Y-83920851D01*
X144784878Y-83927000D01*
X144743122Y-83927000D01*
X144680684Y-83920851D01*
X144600573Y-83896549D01*
X144526743Y-83857086D01*
X144526742Y-83857085D01*
X144526740Y-83857084D01*
X144462026Y-83803974D01*
X144408916Y-83739260D01*
X144374239Y-83674383D01*
X144360627Y-83654011D01*
X144343300Y-83636684D01*
X144322925Y-83623070D01*
X144300286Y-83613693D01*
X144276253Y-83608912D01*
X144251749Y-83608912D01*
X144227715Y-83613692D01*
X144205076Y-83623069D01*
X144184701Y-83636683D01*
X144167374Y-83654010D01*
X144153761Y-83674383D01*
X144119084Y-83739260D01*
X144065974Y-83803974D01*
X144001260Y-83857084D01*
X144001258Y-83857085D01*
X144001257Y-83857086D01*
X143927427Y-83896549D01*
X143847316Y-83920851D01*
X143784878Y-83927000D01*
X143743122Y-83927000D01*
X143680684Y-83920851D01*
X143600573Y-83896549D01*
X143526743Y-83857086D01*
X143526742Y-83857085D01*
X143526740Y-83857084D01*
X143462026Y-83803974D01*
X143408916Y-83739260D01*
X143408914Y-83739257D01*
X143369451Y-83665427D01*
X143345149Y-83585316D01*
X143336944Y-83502000D01*
X143345149Y-83418684D01*
X143369451Y-83338573D01*
X143408914Y-83264743D01*
X143418340Y-83253258D01*
X143462026Y-83200026D01*
X143526740Y-83146916D01*
X143591617Y-83112239D01*
X143611989Y-83098627D01*
X143629316Y-83081300D01*
X143642930Y-83060925D01*
X143652307Y-83038286D01*
X143657088Y-83014253D01*
X143657088Y-82989749D01*
X143657088Y-82989747D01*
X143870912Y-82989747D01*
X143870912Y-83014251D01*
X143875692Y-83038285D01*
X143885069Y-83060924D01*
X143898683Y-83081299D01*
X143916010Y-83098626D01*
X143936383Y-83112239D01*
X144001260Y-83146916D01*
X144065974Y-83200026D01*
X144119084Y-83264740D01*
X144153759Y-83329614D01*
X144167373Y-83349989D01*
X144184700Y-83367316D01*
X144205075Y-83380930D01*
X144227714Y-83390307D01*
X144251747Y-83395088D01*
X144276251Y-83395088D01*
X144300285Y-83390308D01*
X144322924Y-83380931D01*
X144343299Y-83367317D01*
X144360626Y-83349990D01*
X144374241Y-83329614D01*
X144408916Y-83264740D01*
X144462026Y-83200026D01*
X144526740Y-83146916D01*
X144591617Y-83112239D01*
X144611989Y-83098627D01*
X144629316Y-83081300D01*
X144642930Y-83060925D01*
X144652307Y-83038286D01*
X144657088Y-83014253D01*
X144657088Y-82989749D01*
X144652308Y-82965715D01*
X144642931Y-82943076D01*
X144629317Y-82922701D01*
X144611990Y-82905374D01*
X144591617Y-82891761D01*
X144526740Y-82857084D01*
X144462026Y-82803974D01*
X144408916Y-82739260D01*
X144374239Y-82674383D01*
X144360627Y-82654011D01*
X144343300Y-82636684D01*
X144322925Y-82623070D01*
X144300286Y-82613693D01*
X144276253Y-82608912D01*
X144251749Y-82608912D01*
X144227715Y-82613692D01*
X144205076Y-82623069D01*
X144184701Y-82636683D01*
X144167374Y-82654010D01*
X144153761Y-82674383D01*
X144119084Y-82739260D01*
X144065974Y-82803974D01*
X144001260Y-82857084D01*
X143936383Y-82891761D01*
X143916011Y-82905373D01*
X143898684Y-82922700D01*
X143885070Y-82943075D01*
X143875693Y-82965714D01*
X143870912Y-82989747D01*
X143657088Y-82989747D01*
X143652308Y-82965715D01*
X143642931Y-82943076D01*
X143629317Y-82922701D01*
X143611990Y-82905374D01*
X143591617Y-82891761D01*
X143526740Y-82857084D01*
X143462026Y-82803974D01*
X143408916Y-82739260D01*
X143408914Y-82739257D01*
X143369451Y-82665427D01*
X143345149Y-82585316D01*
X143336944Y-82502000D01*
X143345149Y-82418684D01*
X143369451Y-82338573D01*
X143408914Y-82264743D01*
X143462026Y-82200026D01*
X143526740Y-82146916D01*
X143591617Y-82112239D01*
X143611989Y-82098627D01*
X143629316Y-82081300D01*
X143642930Y-82060925D01*
X143652307Y-82038286D01*
X143657088Y-82014253D01*
X143657088Y-81989749D01*
X143657088Y-81989747D01*
X143870912Y-81989747D01*
X143870912Y-82014251D01*
X143875692Y-82038285D01*
X143885069Y-82060924D01*
X143898683Y-82081299D01*
X143916010Y-82098626D01*
X143936383Y-82112239D01*
X144001260Y-82146916D01*
X144065974Y-82200026D01*
X144119084Y-82264740D01*
X144153759Y-82329614D01*
X144167373Y-82349989D01*
X144184700Y-82367316D01*
X144205075Y-82380930D01*
X144227714Y-82390307D01*
X144251747Y-82395088D01*
X144276251Y-82395088D01*
X144300285Y-82390308D01*
X144322924Y-82380931D01*
X144343299Y-82367317D01*
X144360626Y-82349990D01*
X144374241Y-82329614D01*
X144408916Y-82264740D01*
X144462026Y-82200026D01*
X144526740Y-82146916D01*
X144591617Y-82112239D01*
X144611989Y-82098627D01*
X144629316Y-82081300D01*
X144642930Y-82060925D01*
X144652307Y-82038286D01*
X144657088Y-82014253D01*
X144657088Y-81989749D01*
X144652308Y-81965715D01*
X144642931Y-81943076D01*
X144629317Y-81922701D01*
X144611990Y-81905374D01*
X144591617Y-81891761D01*
X144526740Y-81857084D01*
X144462026Y-81803974D01*
X144408916Y-81739260D01*
X144374239Y-81674383D01*
X144360627Y-81654011D01*
X144343300Y-81636684D01*
X144322925Y-81623070D01*
X144300286Y-81613693D01*
X144276253Y-81608912D01*
X144251749Y-81608912D01*
X144227715Y-81613692D01*
X144205076Y-81623069D01*
X144184701Y-81636683D01*
X144167374Y-81654010D01*
X144153761Y-81674383D01*
X144119084Y-81739260D01*
X144065974Y-81803974D01*
X144001260Y-81857084D01*
X143936383Y-81891761D01*
X143916011Y-81905373D01*
X143898684Y-81922700D01*
X143885070Y-81943075D01*
X143875693Y-81965714D01*
X143870912Y-81989747D01*
X143657088Y-81989747D01*
X143652308Y-81965715D01*
X143642931Y-81943076D01*
X143629317Y-81922701D01*
X143611990Y-81905374D01*
X143591617Y-81891761D01*
X143526740Y-81857084D01*
X143462026Y-81803974D01*
X143408916Y-81739260D01*
X143408914Y-81739257D01*
X143369451Y-81665427D01*
X143345149Y-81585316D01*
X143336944Y-81502000D01*
X143345149Y-81418684D01*
X143369451Y-81338573D01*
X143408914Y-81264743D01*
X143462026Y-81200026D01*
X143526740Y-81146916D01*
X143591617Y-81112239D01*
X143611989Y-81098627D01*
X143629316Y-81081300D01*
X143642930Y-81060925D01*
X143652307Y-81038286D01*
X143657088Y-81014253D01*
X143657088Y-80989749D01*
X143657088Y-80989747D01*
X143870912Y-80989747D01*
X143870912Y-81014251D01*
X143875692Y-81038285D01*
X143885069Y-81060924D01*
X143898683Y-81081299D01*
X143916010Y-81098626D01*
X143936383Y-81112239D01*
X144001260Y-81146916D01*
X144065974Y-81200026D01*
X144119084Y-81264740D01*
X144135080Y-81294666D01*
X144153759Y-81329614D01*
X144167373Y-81349989D01*
X144184700Y-81367316D01*
X144205075Y-81380930D01*
X144227714Y-81390307D01*
X144251747Y-81395088D01*
X144276251Y-81395088D01*
X144300285Y-81390308D01*
X144322924Y-81380931D01*
X144343299Y-81367317D01*
X144360626Y-81349990D01*
X144374241Y-81329614D01*
X144392921Y-81294666D01*
X144408916Y-81264740D01*
X144462026Y-81200026D01*
X144526740Y-81146916D01*
X144591617Y-81112239D01*
X144611989Y-81098627D01*
X144629316Y-81081300D01*
X144642930Y-81060925D01*
X144652307Y-81038286D01*
X144657088Y-81014253D01*
X144657088Y-80989749D01*
X144652308Y-80965715D01*
X144642931Y-80943076D01*
X144629317Y-80922701D01*
X144611990Y-80905374D01*
X144591617Y-80891761D01*
X144526740Y-80857084D01*
X144462026Y-80803974D01*
X144408916Y-80739260D01*
X144374239Y-80674383D01*
X144360627Y-80654011D01*
X144343300Y-80636684D01*
X144322925Y-80623070D01*
X144300286Y-80613693D01*
X144276253Y-80608912D01*
X144251749Y-80608912D01*
X144227715Y-80613692D01*
X144205076Y-80623069D01*
X144184701Y-80636683D01*
X144167374Y-80654010D01*
X144153761Y-80674383D01*
X144119084Y-80739260D01*
X144065974Y-80803974D01*
X144001260Y-80857084D01*
X143936383Y-80891761D01*
X143916011Y-80905373D01*
X143898684Y-80922700D01*
X143885070Y-80943075D01*
X143875693Y-80965714D01*
X143870912Y-80989747D01*
X143657088Y-80989747D01*
X143652308Y-80965715D01*
X143642931Y-80943076D01*
X143629317Y-80922701D01*
X143611990Y-80905374D01*
X143591617Y-80891761D01*
X143526740Y-80857084D01*
X143462026Y-80803974D01*
X143408916Y-80739260D01*
X143408914Y-80739257D01*
X143369451Y-80665427D01*
X143345149Y-80585316D01*
X143336944Y-80502000D01*
X143345149Y-80418684D01*
X143369451Y-80338573D01*
X143408914Y-80264743D01*
X143462026Y-80200026D01*
X143524660Y-80148623D01*
X143541984Y-80131299D01*
X143555597Y-80110924D01*
X143564975Y-80088285D01*
X143569755Y-80064252D01*
X143569755Y-80052000D01*
X143957643Y-80052000D01*
X143960045Y-80076386D01*
X143967158Y-80099835D01*
X143978709Y-80121446D01*
X144003341Y-80148624D01*
X144065974Y-80200026D01*
X144119084Y-80264740D01*
X144153759Y-80329614D01*
X144167373Y-80349989D01*
X144184700Y-80367316D01*
X144205075Y-80380930D01*
X144227714Y-80390307D01*
X144251747Y-80395088D01*
X144276251Y-80395088D01*
X144300285Y-80390308D01*
X144322924Y-80380931D01*
X144343299Y-80367317D01*
X144360626Y-80349990D01*
X144374241Y-80329614D01*
X144408916Y-80264740D01*
X144462026Y-80200026D01*
X144526740Y-80146916D01*
X144574392Y-80121446D01*
X144591617Y-80112239D01*
X144611989Y-80098627D01*
X144629316Y-80081300D01*
X144642930Y-80060925D01*
X144652307Y-80038286D01*
X144657088Y-80014253D01*
X144657088Y-79989749D01*
X144652308Y-79965715D01*
X144642931Y-79943076D01*
X144629317Y-79922701D01*
X144611990Y-79905374D01*
X144591617Y-79891761D01*
X144526740Y-79857084D01*
X144462026Y-79803974D01*
X144410623Y-79741340D01*
X144393299Y-79724016D01*
X144372924Y-79710403D01*
X144350285Y-79701025D01*
X144326252Y-79696245D01*
X144301747Y-79696245D01*
X144277714Y-79701026D01*
X144255075Y-79710403D01*
X144234700Y-79724017D01*
X144217373Y-79741344D01*
X144203760Y-79761719D01*
X144194382Y-79784358D01*
X144189000Y-79820643D01*
X144189000Y-79927000D01*
X144082643Y-79927000D01*
X144058257Y-79929402D01*
X144034808Y-79936515D01*
X144013197Y-79948066D01*
X143994255Y-79963612D01*
X143978709Y-79982554D01*
X143967158Y-80004165D01*
X143960045Y-80027614D01*
X143957643Y-80052000D01*
X143569755Y-80052000D01*
X143569755Y-80039747D01*
X143564974Y-80015714D01*
X143555597Y-79993075D01*
X143541983Y-79972700D01*
X143524656Y-79955373D01*
X143504281Y-79941760D01*
X143481642Y-79932382D01*
X143445357Y-79927000D01*
X143339000Y-79927000D01*
X143339000Y-79077000D01*
X144189000Y-79077000D01*
X144189000Y-79183357D01*
X144189000Y-79183357D01*
G37*
G36*
X132264571Y-81573695D02*
X124514571Y-81573695D01*
X124514571Y-80573695D01*
X132264571Y-80573695D01*
X132264571Y-81573695D01*
X132264571Y-81573695D01*
G37*
G36*
X121233595Y-80492650D02*
X121266307Y-80502574D01*
X121296461Y-80518692D01*
X121322887Y-80540379D01*
X121344574Y-80566805D01*
X121360692Y-80596959D01*
X121370616Y-80629671D01*
X121374571Y-80669833D01*
X121374571Y-81357557D01*
X121370616Y-81397719D01*
X121360692Y-81430431D01*
X121344574Y-81460585D01*
X121322887Y-81487011D01*
X121296461Y-81508698D01*
X121266307Y-81524816D01*
X121233595Y-81534740D01*
X121193433Y-81538695D01*
X120605709Y-81538695D01*
X120565547Y-81534740D01*
X120532835Y-81524816D01*
X120502681Y-81508698D01*
X120476255Y-81487011D01*
X120454568Y-81460585D01*
X120438450Y-81430431D01*
X120428526Y-81397719D01*
X120424571Y-81357557D01*
X120424571Y-80669833D01*
X120428526Y-80629671D01*
X120438450Y-80596959D01*
X120454568Y-80566805D01*
X120476255Y-80540379D01*
X120502681Y-80518692D01*
X120532835Y-80502574D01*
X120565547Y-80492650D01*
X120605709Y-80488695D01*
X121193433Y-80488695D01*
X121233595Y-80492650D01*
X121233595Y-80492650D01*
G37*
G36*
X119365650Y-80486121D02*
X119398362Y-80496045D01*
X119428516Y-80512163D01*
X119454942Y-80533850D01*
X119476629Y-80560276D01*
X119492747Y-80590430D01*
X119502671Y-80623142D01*
X119506626Y-80663304D01*
X119506626Y-81351028D01*
X119502671Y-81391190D01*
X119492747Y-81423902D01*
X119476629Y-81454056D01*
X119454942Y-81480482D01*
X119428516Y-81502169D01*
X119398362Y-81518287D01*
X119365650Y-81528211D01*
X119325488Y-81532166D01*
X118737764Y-81532166D01*
X118697602Y-81528211D01*
X118664890Y-81518287D01*
X118634736Y-81502169D01*
X118608310Y-81480482D01*
X118586623Y-81454056D01*
X118570505Y-81423902D01*
X118560581Y-81391190D01*
X118556626Y-81351028D01*
X118556626Y-80663304D01*
X118560581Y-80623142D01*
X118570505Y-80590430D01*
X118586623Y-80560276D01*
X118608310Y-80533850D01*
X118634736Y-80512163D01*
X118664890Y-80496045D01*
X118697602Y-80486121D01*
X118737764Y-80482166D01*
X119325488Y-80482166D01*
X119365650Y-80486121D01*
X119365650Y-80486121D01*
G37*
G36*
X121233595Y-78742650D02*
X121266307Y-78752574D01*
X121296461Y-78768692D01*
X121322887Y-78790379D01*
X121344574Y-78816805D01*
X121360692Y-78846959D01*
X121370616Y-78879671D01*
X121374571Y-78919833D01*
X121374571Y-79607557D01*
X121370616Y-79647719D01*
X121360692Y-79680431D01*
X121344574Y-79710585D01*
X121322887Y-79737011D01*
X121296461Y-79758698D01*
X121266307Y-79774816D01*
X121233595Y-79784740D01*
X121193433Y-79788695D01*
X120605709Y-79788695D01*
X120565547Y-79784740D01*
X120532835Y-79774816D01*
X120502681Y-79758698D01*
X120476255Y-79737011D01*
X120454568Y-79710585D01*
X120438450Y-79680431D01*
X120428526Y-79647719D01*
X120424571Y-79607557D01*
X120424571Y-78919833D01*
X120428526Y-78879671D01*
X120438450Y-78846959D01*
X120454568Y-78816805D01*
X120476255Y-78790379D01*
X120502681Y-78768692D01*
X120532835Y-78752574D01*
X120565547Y-78742650D01*
X120605709Y-78738695D01*
X121193433Y-78738695D01*
X121233595Y-78742650D01*
X121233595Y-78742650D01*
G37*
G36*
X119365650Y-78736121D02*
X119398362Y-78746045D01*
X119428516Y-78762163D01*
X119454942Y-78783850D01*
X119476629Y-78810276D01*
X119492747Y-78840430D01*
X119502671Y-78873142D01*
X119506626Y-78913304D01*
X119506626Y-79601028D01*
X119502671Y-79641190D01*
X119492747Y-79673902D01*
X119476629Y-79704056D01*
X119454942Y-79730482D01*
X119428516Y-79752169D01*
X119398362Y-79768287D01*
X119365650Y-79778211D01*
X119325488Y-79782166D01*
X118737764Y-79782166D01*
X118697602Y-79778211D01*
X118664890Y-79768287D01*
X118634736Y-79752169D01*
X118608310Y-79730482D01*
X118586623Y-79704056D01*
X118570505Y-79673902D01*
X118560581Y-79641190D01*
X118556626Y-79601028D01*
X118556626Y-78913304D01*
X118560581Y-78873142D01*
X118570505Y-78840430D01*
X118586623Y-78810276D01*
X118608310Y-78783850D01*
X118634736Y-78762163D01*
X118664890Y-78746045D01*
X118697602Y-78736121D01*
X118737764Y-78732166D01*
X119325488Y-78732166D01*
X119365650Y-78736121D01*
X119365650Y-78736121D01*
G37*
G36*
X123189571Y-79248695D02*
X122189571Y-79248695D01*
X122189571Y-71498695D01*
X123189571Y-71498695D01*
X123189571Y-79248695D01*
X123189571Y-79248695D01*
G37*
G36*
X134589571Y-79248695D02*
X133589571Y-79248695D01*
X133589571Y-71498695D01*
X134589571Y-71498695D01*
X134589571Y-79248695D01*
X134589571Y-79248695D01*
G37*
G36*
X131639571Y-78623695D02*
X125139571Y-78623695D01*
X125139571Y-72123695D01*
X131639571Y-72123695D01*
X131639571Y-78623695D01*
X131639571Y-78623695D01*
G37*
G36*
X144189000Y-73341357D02*
X144191402Y-73365743D01*
X144198515Y-73389192D01*
X144210066Y-73410803D01*
X144225612Y-73429745D01*
X144244554Y-73445291D01*
X144266165Y-73456842D01*
X144289614Y-73463955D01*
X144314000Y-73466357D01*
X144338386Y-73463955D01*
X144361835Y-73456842D01*
X144383446Y-73445291D01*
X144410624Y-73420659D01*
X144462026Y-73358026D01*
X144526740Y-73304916D01*
X144526742Y-73304915D01*
X144526743Y-73304914D01*
X144600573Y-73265451D01*
X144680684Y-73241149D01*
X144743122Y-73235000D01*
X144784878Y-73235000D01*
X144847316Y-73241149D01*
X144927427Y-73265451D01*
X145001257Y-73304914D01*
X145001258Y-73304915D01*
X145001260Y-73304916D01*
X145065974Y-73358026D01*
X145117375Y-73420657D01*
X145119086Y-73422743D01*
X145158549Y-73496573D01*
X145182851Y-73576684D01*
X145191056Y-73660000D01*
X145182851Y-73743316D01*
X145158549Y-73823427D01*
X145119086Y-73897257D01*
X145119084Y-73897260D01*
X145065974Y-73961974D01*
X145001260Y-74015084D01*
X144936383Y-74049761D01*
X144916011Y-74063373D01*
X144898684Y-74080700D01*
X144885070Y-74101075D01*
X144875693Y-74123714D01*
X144870912Y-74147747D01*
X144870912Y-74172251D01*
X144875692Y-74196285D01*
X144885069Y-74218924D01*
X144898683Y-74239299D01*
X144916010Y-74256626D01*
X144936383Y-74270239D01*
X145001260Y-74304916D01*
X145065974Y-74358026D01*
X145098550Y-74397719D01*
X145119086Y-74422743D01*
X145158549Y-74496573D01*
X145182851Y-74576684D01*
X145191056Y-74660000D01*
X145182851Y-74743316D01*
X145158549Y-74823427D01*
X145119086Y-74897257D01*
X145119084Y-74897260D01*
X145065974Y-74961974D01*
X145001260Y-75015084D01*
X145001258Y-75015085D01*
X145001257Y-75015086D01*
X144927427Y-75054549D01*
X144847316Y-75078851D01*
X144784878Y-75085000D01*
X144743122Y-75085000D01*
X144680684Y-75078851D01*
X144600573Y-75054549D01*
X144526743Y-75015086D01*
X144526742Y-75015085D01*
X144526740Y-75015084D01*
X144462026Y-74961974D01*
X144408916Y-74897260D01*
X144374239Y-74832383D01*
X144360627Y-74812011D01*
X144343300Y-74794684D01*
X144322925Y-74781070D01*
X144300286Y-74771693D01*
X144276253Y-74766912D01*
X144251749Y-74766912D01*
X144227715Y-74771692D01*
X144205076Y-74781069D01*
X144184701Y-74794683D01*
X144167374Y-74812010D01*
X144153761Y-74832383D01*
X144119084Y-74897260D01*
X144065974Y-74961974D01*
X144001260Y-75015084D01*
X144001258Y-75015085D01*
X144001257Y-75015086D01*
X143927427Y-75054549D01*
X143847316Y-75078851D01*
X143784878Y-75085000D01*
X143743122Y-75085000D01*
X143680684Y-75078851D01*
X143600573Y-75054549D01*
X143526743Y-75015086D01*
X143526742Y-75015085D01*
X143526740Y-75015084D01*
X143462026Y-74961974D01*
X143408916Y-74897260D01*
X143408914Y-74897257D01*
X143369451Y-74823427D01*
X143345149Y-74743316D01*
X143336944Y-74660000D01*
X143345149Y-74576684D01*
X143369451Y-74496573D01*
X143408914Y-74422743D01*
X143429451Y-74397719D01*
X143462026Y-74358026D01*
X143524660Y-74306623D01*
X143541984Y-74289299D01*
X143555597Y-74268924D01*
X143564975Y-74246285D01*
X143569755Y-74222252D01*
X143569755Y-74210000D01*
X143957643Y-74210000D01*
X143960045Y-74234386D01*
X143967158Y-74257835D01*
X143978709Y-74279446D01*
X144003341Y-74306624D01*
X144065974Y-74358026D01*
X144119084Y-74422740D01*
X144135823Y-74454056D01*
X144153759Y-74487614D01*
X144167373Y-74507989D01*
X144184700Y-74525316D01*
X144205075Y-74538930D01*
X144227714Y-74548307D01*
X144251747Y-74553088D01*
X144276251Y-74553088D01*
X144300285Y-74548308D01*
X144322924Y-74538931D01*
X144343299Y-74525317D01*
X144360626Y-74507990D01*
X144374241Y-74487614D01*
X144392178Y-74454056D01*
X144408916Y-74422740D01*
X144462026Y-74358026D01*
X144526740Y-74304916D01*
X144591617Y-74270239D01*
X144611989Y-74256627D01*
X144629316Y-74239300D01*
X144642930Y-74218925D01*
X144652307Y-74196286D01*
X144657088Y-74172253D01*
X144657088Y-74147749D01*
X144652308Y-74123715D01*
X144642931Y-74101076D01*
X144629317Y-74080701D01*
X144611990Y-74063374D01*
X144591617Y-74049761D01*
X144526740Y-74015084D01*
X144462026Y-73961974D01*
X144410623Y-73899340D01*
X144393299Y-73882016D01*
X144372924Y-73868403D01*
X144350285Y-73859025D01*
X144326252Y-73854245D01*
X144301747Y-73854245D01*
X144277714Y-73859026D01*
X144255075Y-73868403D01*
X144234700Y-73882017D01*
X144217373Y-73899344D01*
X144203760Y-73919719D01*
X144194382Y-73942358D01*
X144189000Y-73978643D01*
X144189000Y-74085000D01*
X144082643Y-74085000D01*
X144058257Y-74087402D01*
X144034808Y-74094515D01*
X144013197Y-74106066D01*
X143994255Y-74121612D01*
X143978709Y-74140554D01*
X143967158Y-74162165D01*
X143960045Y-74185614D01*
X143957643Y-74210000D01*
X143569755Y-74210000D01*
X143569755Y-74197747D01*
X143564974Y-74173714D01*
X143555597Y-74151075D01*
X143541983Y-74130700D01*
X143524656Y-74113373D01*
X143504281Y-74099760D01*
X143481642Y-74090382D01*
X143445357Y-74085000D01*
X143339000Y-74085000D01*
X143339000Y-73235000D01*
X144189000Y-73235000D01*
X144189000Y-73341357D01*
X144189000Y-73341357D01*
G37*
G36*
X121233595Y-73492650D02*
X121266307Y-73502574D01*
X121296461Y-73518692D01*
X121322887Y-73540379D01*
X121344574Y-73566805D01*
X121360692Y-73596959D01*
X121370616Y-73629671D01*
X121374571Y-73669833D01*
X121374571Y-74357557D01*
X121370616Y-74397719D01*
X121360692Y-74430431D01*
X121344574Y-74460585D01*
X121322887Y-74487011D01*
X121296461Y-74508698D01*
X121266307Y-74524816D01*
X121233595Y-74534740D01*
X121193433Y-74538695D01*
X120605709Y-74538695D01*
X120565547Y-74534740D01*
X120532835Y-74524816D01*
X120502681Y-74508698D01*
X120476255Y-74487011D01*
X120454568Y-74460585D01*
X120438450Y-74430431D01*
X120428526Y-74397719D01*
X120424571Y-74357557D01*
X120424571Y-73669833D01*
X120428526Y-73629671D01*
X120438450Y-73596959D01*
X120454568Y-73566805D01*
X120476255Y-73540379D01*
X120502681Y-73518692D01*
X120532835Y-73502574D01*
X120565547Y-73492650D01*
X120605709Y-73488695D01*
X121193433Y-73488695D01*
X121233595Y-73492650D01*
X121233595Y-73492650D01*
G37*
G36*
X119365650Y-73486121D02*
X119398362Y-73496045D01*
X119428516Y-73512163D01*
X119454942Y-73533850D01*
X119476629Y-73560276D01*
X119492747Y-73590430D01*
X119502671Y-73623142D01*
X119506626Y-73663304D01*
X119506626Y-74351028D01*
X119502671Y-74391190D01*
X119492747Y-74423902D01*
X119476629Y-74454056D01*
X119454942Y-74480482D01*
X119428516Y-74502169D01*
X119398362Y-74518287D01*
X119365650Y-74528211D01*
X119325488Y-74532166D01*
X118737764Y-74532166D01*
X118697602Y-74528211D01*
X118664890Y-74518287D01*
X118634736Y-74502169D01*
X118608310Y-74480482D01*
X118586623Y-74454056D01*
X118570505Y-74423902D01*
X118560581Y-74391190D01*
X118556626Y-74351028D01*
X118556626Y-73663304D01*
X118560581Y-73623142D01*
X118570505Y-73590430D01*
X118586623Y-73560276D01*
X118608310Y-73533850D01*
X118634736Y-73512163D01*
X118664890Y-73496045D01*
X118697602Y-73486121D01*
X118737764Y-73482166D01*
X119325488Y-73482166D01*
X119365650Y-73486121D01*
X119365650Y-73486121D01*
G37*
G36*
X136048024Y-73442955D02*
X136080736Y-73452879D01*
X136110890Y-73468997D01*
X136137316Y-73490684D01*
X136159003Y-73517110D01*
X136175121Y-73547264D01*
X136185045Y-73579976D01*
X136189000Y-73620138D01*
X136189000Y-74207862D01*
X136185045Y-74248024D01*
X136175121Y-74280736D01*
X136159003Y-74310890D01*
X136137316Y-74337316D01*
X136110890Y-74359003D01*
X136080736Y-74375121D01*
X136048024Y-74385045D01*
X136007862Y-74389000D01*
X135320138Y-74389000D01*
X135279976Y-74385045D01*
X135247264Y-74375121D01*
X135217110Y-74359003D01*
X135190684Y-74337316D01*
X135168997Y-74310890D01*
X135152879Y-74280736D01*
X135142955Y-74248024D01*
X135139000Y-74207862D01*
X135139000Y-73620138D01*
X135142955Y-73579976D01*
X135152879Y-73547264D01*
X135168997Y-73517110D01*
X135190684Y-73490684D01*
X135217110Y-73468997D01*
X135247264Y-73452879D01*
X135279976Y-73442955D01*
X135320138Y-73439000D01*
X136007862Y-73439000D01*
X136048024Y-73442955D01*
X136048024Y-73442955D01*
G37*
G36*
X137798024Y-73442955D02*
X137830736Y-73452879D01*
X137860890Y-73468997D01*
X137887316Y-73490684D01*
X137909003Y-73517110D01*
X137925121Y-73547264D01*
X137935045Y-73579976D01*
X137939000Y-73620138D01*
X137939000Y-74207862D01*
X137935045Y-74248024D01*
X137925121Y-74280736D01*
X137909003Y-74310890D01*
X137887316Y-74337316D01*
X137860890Y-74359003D01*
X137830736Y-74375121D01*
X137798024Y-74385045D01*
X137757862Y-74389000D01*
X137070138Y-74389000D01*
X137029976Y-74385045D01*
X136997264Y-74375121D01*
X136967110Y-74359003D01*
X136940684Y-74337316D01*
X136918997Y-74310890D01*
X136902879Y-74280736D01*
X136892955Y-74248024D01*
X136889000Y-74207862D01*
X136889000Y-73620138D01*
X136892955Y-73579976D01*
X136902879Y-73547264D01*
X136918997Y-73517110D01*
X136940684Y-73490684D01*
X136967110Y-73468997D01*
X136997264Y-73452879D01*
X137029976Y-73442955D01*
X137070138Y-73439000D01*
X137757862Y-73439000D01*
X137798024Y-73442955D01*
X137798024Y-73442955D01*
G37*
G36*
X121233595Y-71742650D02*
X121266307Y-71752574D01*
X121296461Y-71768692D01*
X121322887Y-71790379D01*
X121344574Y-71816805D01*
X121360692Y-71846959D01*
X121370616Y-71879671D01*
X121374571Y-71919833D01*
X121374571Y-72607557D01*
X121370616Y-72647719D01*
X121360692Y-72680431D01*
X121344574Y-72710585D01*
X121322887Y-72737011D01*
X121296461Y-72758698D01*
X121266307Y-72774816D01*
X121233595Y-72784740D01*
X121193433Y-72788695D01*
X120605709Y-72788695D01*
X120565547Y-72784740D01*
X120532835Y-72774816D01*
X120502681Y-72758698D01*
X120476255Y-72737011D01*
X120454568Y-72710585D01*
X120438450Y-72680431D01*
X120428526Y-72647719D01*
X120424571Y-72607557D01*
X120424571Y-71919833D01*
X120428526Y-71879671D01*
X120438450Y-71846959D01*
X120454568Y-71816805D01*
X120476255Y-71790379D01*
X120502681Y-71768692D01*
X120532835Y-71752574D01*
X120565547Y-71742650D01*
X120605709Y-71738695D01*
X121193433Y-71738695D01*
X121233595Y-71742650D01*
X121233595Y-71742650D01*
G37*
G36*
X119365650Y-71736121D02*
X119398362Y-71746045D01*
X119428516Y-71762163D01*
X119454942Y-71783850D01*
X119476629Y-71810276D01*
X119492747Y-71840430D01*
X119502671Y-71873142D01*
X119506626Y-71913304D01*
X119506626Y-72601028D01*
X119502671Y-72641190D01*
X119492747Y-72673902D01*
X119476629Y-72704056D01*
X119454942Y-72730482D01*
X119428516Y-72752169D01*
X119398362Y-72768287D01*
X119365650Y-72778211D01*
X119325488Y-72782166D01*
X118737764Y-72782166D01*
X118697602Y-72778211D01*
X118664890Y-72768287D01*
X118634736Y-72752169D01*
X118608310Y-72730482D01*
X118586623Y-72704056D01*
X118570505Y-72673902D01*
X118560581Y-72641190D01*
X118556626Y-72601028D01*
X118556626Y-71913304D01*
X118560581Y-71873142D01*
X118570505Y-71840430D01*
X118586623Y-71810276D01*
X118608310Y-71783850D01*
X118634736Y-71762163D01*
X118664890Y-71746045D01*
X118697602Y-71736121D01*
X118737764Y-71732166D01*
X119325488Y-71732166D01*
X119365650Y-71736121D01*
X119365650Y-71736121D01*
G37*
G36*
X136093595Y-71137650D02*
X136126307Y-71147574D01*
X136156461Y-71163692D01*
X136182887Y-71185379D01*
X136204574Y-71211805D01*
X136220692Y-71241959D01*
X136230616Y-71274671D01*
X136234571Y-71314833D01*
X136234571Y-72002557D01*
X136230616Y-72042719D01*
X136220692Y-72075431D01*
X136204574Y-72105585D01*
X136182887Y-72132011D01*
X136156461Y-72153698D01*
X136126307Y-72169816D01*
X136093595Y-72179740D01*
X136053433Y-72183695D01*
X135465709Y-72183695D01*
X135425547Y-72179740D01*
X135392835Y-72169816D01*
X135362681Y-72153698D01*
X135336255Y-72132011D01*
X135314568Y-72105585D01*
X135298450Y-72075431D01*
X135288526Y-72042719D01*
X135284571Y-72002557D01*
X135284571Y-71314833D01*
X135288526Y-71274671D01*
X135298450Y-71241959D01*
X135314568Y-71211805D01*
X135336255Y-71185379D01*
X135362681Y-71163692D01*
X135392835Y-71147574D01*
X135425547Y-71137650D01*
X135465709Y-71133695D01*
X136053433Y-71133695D01*
X136093595Y-71137650D01*
X136093595Y-71137650D01*
G37*
G36*
X136093595Y-69387650D02*
X136126307Y-69397574D01*
X136156461Y-69413692D01*
X136182887Y-69435379D01*
X136204574Y-69461805D01*
X136220692Y-69491959D01*
X136230616Y-69524671D01*
X136234571Y-69564833D01*
X136234571Y-70252557D01*
X136230616Y-70292719D01*
X136220692Y-70325431D01*
X136204574Y-70355585D01*
X136182887Y-70382011D01*
X136156461Y-70403698D01*
X136126307Y-70419816D01*
X136093595Y-70429740D01*
X136053433Y-70433695D01*
X135465709Y-70433695D01*
X135425547Y-70429740D01*
X135392835Y-70419816D01*
X135362681Y-70403698D01*
X135336255Y-70382011D01*
X135314568Y-70355585D01*
X135298450Y-70325431D01*
X135288526Y-70292719D01*
X135284571Y-70252557D01*
X135284571Y-69564833D01*
X135288526Y-69524671D01*
X135298450Y-69491959D01*
X135314568Y-69461805D01*
X135336255Y-69435379D01*
X135362681Y-69413692D01*
X135392835Y-69397574D01*
X135425547Y-69387650D01*
X135465709Y-69383695D01*
X136053433Y-69383695D01*
X136093595Y-69387650D01*
X136093595Y-69387650D01*
G37*
G36*
X132264571Y-70173695D02*
X124514571Y-70173695D01*
X124514571Y-69173695D01*
X132264571Y-69173695D01*
X132264571Y-70173695D01*
X132264571Y-70173695D01*
G37*
G36*
X143896056Y-68145281D02*
X143976167Y-68169583D01*
X144049997Y-68209046D01*
X144049998Y-68209047D01*
X144050000Y-68209048D01*
X144051151Y-68209993D01*
X144114714Y-68262158D01*
X144167824Y-68326872D01*
X144202499Y-68391746D01*
X144216113Y-68412121D01*
X144233440Y-68429448D01*
X144253815Y-68443062D01*
X144276454Y-68452439D01*
X144300487Y-68457220D01*
X144324991Y-68457220D01*
X144349025Y-68452440D01*
X144371664Y-68443063D01*
X144392039Y-68429449D01*
X144409366Y-68412122D01*
X144422981Y-68391746D01*
X144457656Y-68326872D01*
X144510766Y-68262158D01*
X144574329Y-68209993D01*
X144575480Y-68209048D01*
X144575482Y-68209047D01*
X144575483Y-68209046D01*
X144649313Y-68169583D01*
X144729424Y-68145281D01*
X144791862Y-68139132D01*
X144833618Y-68139132D01*
X144896056Y-68145281D01*
X144976167Y-68169583D01*
X145049997Y-68209046D01*
X145049998Y-68209047D01*
X145050000Y-68209048D01*
X145114714Y-68262158D01*
X145121170Y-68270024D01*
X145167826Y-68326875D01*
X145207289Y-68400705D01*
X145231591Y-68480816D01*
X145239796Y-68564132D01*
X145231591Y-68647448D01*
X145207289Y-68727559D01*
X145167826Y-68801389D01*
X145167824Y-68801392D01*
X145114714Y-68866106D01*
X145052080Y-68917509D01*
X145034756Y-68934833D01*
X145021143Y-68955208D01*
X145011765Y-68977847D01*
X145006985Y-69001880D01*
X145006985Y-69026385D01*
X145011766Y-69050418D01*
X145021143Y-69073057D01*
X145034757Y-69093432D01*
X145052084Y-69110759D01*
X145072459Y-69124372D01*
X145095098Y-69133750D01*
X145131383Y-69139132D01*
X145237740Y-69139132D01*
X145237740Y-69989132D01*
X144387740Y-69989132D01*
X144387740Y-69882775D01*
X144385338Y-69858389D01*
X144378225Y-69834940D01*
X144366674Y-69813329D01*
X144351128Y-69794387D01*
X144332186Y-69778841D01*
X144310575Y-69767290D01*
X144287126Y-69760177D01*
X144262740Y-69757775D01*
X144238354Y-69760177D01*
X144214905Y-69767290D01*
X144193294Y-69778841D01*
X144166116Y-69803473D01*
X144114714Y-69866106D01*
X144050000Y-69919216D01*
X144049998Y-69919217D01*
X144049997Y-69919218D01*
X143976167Y-69958681D01*
X143896056Y-69982983D01*
X143833618Y-69989132D01*
X143791862Y-69989132D01*
X143729424Y-69982983D01*
X143649313Y-69958681D01*
X143575483Y-69919218D01*
X143575482Y-69919217D01*
X143575480Y-69919216D01*
X143510766Y-69866106D01*
X143457656Y-69801392D01*
X143457654Y-69801389D01*
X143418191Y-69727559D01*
X143393889Y-69647448D01*
X143385684Y-69564132D01*
X143393889Y-69480816D01*
X143418191Y-69400705D01*
X143457654Y-69326875D01*
X143459366Y-69324789D01*
X143510766Y-69262158D01*
X143575480Y-69209048D01*
X143640357Y-69174371D01*
X143660729Y-69160759D01*
X143678056Y-69143432D01*
X143691670Y-69123057D01*
X143701047Y-69100418D01*
X143705828Y-69076385D01*
X143705828Y-69051881D01*
X143705828Y-69051879D01*
X143919652Y-69051879D01*
X143919652Y-69076383D01*
X143924432Y-69100417D01*
X143933809Y-69123056D01*
X143947423Y-69143431D01*
X143964750Y-69160758D01*
X143985123Y-69174371D01*
X144050000Y-69209048D01*
X144114714Y-69262158D01*
X144166117Y-69324792D01*
X144183441Y-69342116D01*
X144203816Y-69355729D01*
X144226455Y-69365107D01*
X144250488Y-69369887D01*
X144274993Y-69369887D01*
X144299026Y-69365106D01*
X144321665Y-69355729D01*
X144342040Y-69342115D01*
X144359367Y-69324788D01*
X144372980Y-69304413D01*
X144382358Y-69281774D01*
X144387740Y-69245489D01*
X144387740Y-69139132D01*
X144494097Y-69139132D01*
X144518483Y-69136730D01*
X144541932Y-69129617D01*
X144563543Y-69118066D01*
X144582485Y-69102520D01*
X144598031Y-69083578D01*
X144609582Y-69061967D01*
X144616695Y-69038518D01*
X144619097Y-69014132D01*
X144616695Y-68989746D01*
X144609582Y-68966297D01*
X144598031Y-68944686D01*
X144573399Y-68917508D01*
X144510766Y-68866106D01*
X144457656Y-68801392D01*
X144422979Y-68736515D01*
X144409367Y-68716143D01*
X144392040Y-68698816D01*
X144371665Y-68685202D01*
X144349026Y-68675825D01*
X144324993Y-68671044D01*
X144300489Y-68671044D01*
X144276455Y-68675824D01*
X144253816Y-68685201D01*
X144233441Y-68698815D01*
X144216114Y-68716142D01*
X144202501Y-68736515D01*
X144167824Y-68801392D01*
X144114714Y-68866106D01*
X144050000Y-68919216D01*
X143985123Y-68953893D01*
X143964751Y-68967505D01*
X143947424Y-68984832D01*
X143933810Y-69005207D01*
X143924433Y-69027846D01*
X143919652Y-69051879D01*
X143705828Y-69051879D01*
X143701048Y-69027847D01*
X143691671Y-69005208D01*
X143678057Y-68984833D01*
X143660730Y-68967506D01*
X143640357Y-68953893D01*
X143575480Y-68919216D01*
X143510766Y-68866106D01*
X143457656Y-68801392D01*
X143457654Y-68801389D01*
X143418191Y-68727559D01*
X143393889Y-68647448D01*
X143385684Y-68564132D01*
X143393889Y-68480816D01*
X143418191Y-68400705D01*
X143457654Y-68326875D01*
X143504311Y-68270024D01*
X143510766Y-68262158D01*
X143575480Y-68209048D01*
X143575482Y-68209047D01*
X143575483Y-68209046D01*
X143649313Y-68169583D01*
X143729424Y-68145281D01*
X143791862Y-68139132D01*
X143833618Y-68139132D01*
X143896056Y-68145281D01*
X143896056Y-68145281D01*
G37*
G36*
X124950183Y-67342058D02*
X124982895Y-67351982D01*
X125013049Y-67368100D01*
X125039475Y-67389787D01*
X125061162Y-67416213D01*
X125077280Y-67446367D01*
X125087204Y-67479079D01*
X125091159Y-67519241D01*
X125091159Y-68106965D01*
X125087204Y-68147127D01*
X125077280Y-68179839D01*
X125061162Y-68209993D01*
X125039475Y-68236419D01*
X125013049Y-68258106D01*
X124982895Y-68274224D01*
X124950183Y-68284148D01*
X124910021Y-68288103D01*
X124222297Y-68288103D01*
X124182135Y-68284148D01*
X124149423Y-68274224D01*
X124119269Y-68258106D01*
X124092843Y-68236419D01*
X124071156Y-68209993D01*
X124055038Y-68179839D01*
X124045114Y-68147127D01*
X124041159Y-68106965D01*
X124041159Y-67519241D01*
X124045114Y-67479079D01*
X124055038Y-67446367D01*
X124071156Y-67416213D01*
X124092843Y-67389787D01*
X124119269Y-67368100D01*
X124149423Y-67351982D01*
X124182135Y-67342058D01*
X124222297Y-67338103D01*
X124910021Y-67338103D01*
X124950183Y-67342058D01*
X124950183Y-67342058D01*
G37*
G36*
X126700183Y-67342058D02*
X126732895Y-67351982D01*
X126763049Y-67368100D01*
X126789475Y-67389787D01*
X126811162Y-67416213D01*
X126827280Y-67446367D01*
X126837204Y-67479079D01*
X126841159Y-67519241D01*
X126841159Y-68106965D01*
X126837204Y-68147127D01*
X126827280Y-68179839D01*
X126811162Y-68209993D01*
X126789475Y-68236419D01*
X126763049Y-68258106D01*
X126732895Y-68274224D01*
X126700183Y-68284148D01*
X126660021Y-68288103D01*
X125972297Y-68288103D01*
X125932135Y-68284148D01*
X125899423Y-68274224D01*
X125869269Y-68258106D01*
X125842843Y-68236419D01*
X125821156Y-68209993D01*
X125805038Y-68179839D01*
X125795114Y-68147127D01*
X125791159Y-68106965D01*
X125791159Y-67519241D01*
X125795114Y-67479079D01*
X125805038Y-67446367D01*
X125821156Y-67416213D01*
X125842843Y-67389787D01*
X125869269Y-67368100D01*
X125899423Y-67351982D01*
X125932135Y-67342058D01*
X125972297Y-67338103D01*
X126660021Y-67338103D01*
X126700183Y-67342058D01*
X126700183Y-67342058D01*
G37*
G36*
X130200183Y-67342058D02*
X130232895Y-67351982D01*
X130263049Y-67368100D01*
X130289475Y-67389787D01*
X130311162Y-67416213D01*
X130327280Y-67446367D01*
X130337204Y-67479079D01*
X130341159Y-67519241D01*
X130341159Y-68106965D01*
X130337204Y-68147127D01*
X130327280Y-68179839D01*
X130311162Y-68209993D01*
X130289475Y-68236419D01*
X130263049Y-68258106D01*
X130232895Y-68274224D01*
X130200183Y-68284148D01*
X130160021Y-68288103D01*
X129472297Y-68288103D01*
X129432135Y-68284148D01*
X129399423Y-68274224D01*
X129369269Y-68258106D01*
X129342843Y-68236419D01*
X129321156Y-68209993D01*
X129305038Y-68179839D01*
X129295114Y-68147127D01*
X129291159Y-68106965D01*
X129291159Y-67519241D01*
X129295114Y-67479079D01*
X129305038Y-67446367D01*
X129321156Y-67416213D01*
X129342843Y-67389787D01*
X129369269Y-67368100D01*
X129399423Y-67351982D01*
X129432135Y-67342058D01*
X129472297Y-67338103D01*
X130160021Y-67338103D01*
X130200183Y-67342058D01*
X130200183Y-67342058D01*
G37*
G36*
X131950183Y-67342058D02*
X131982895Y-67351982D01*
X132013049Y-67368100D01*
X132039475Y-67389787D01*
X132061162Y-67416213D01*
X132077280Y-67446367D01*
X132087204Y-67479079D01*
X132091159Y-67519241D01*
X132091159Y-68106965D01*
X132087204Y-68147127D01*
X132077280Y-68179839D01*
X132061162Y-68209993D01*
X132039475Y-68236419D01*
X132013049Y-68258106D01*
X131982895Y-68274224D01*
X131950183Y-68284148D01*
X131910021Y-68288103D01*
X131222297Y-68288103D01*
X131182135Y-68284148D01*
X131149423Y-68274224D01*
X131119269Y-68258106D01*
X131092843Y-68236419D01*
X131071156Y-68209993D01*
X131055038Y-68179839D01*
X131045114Y-68147127D01*
X131041159Y-68106965D01*
X131041159Y-67519241D01*
X131045114Y-67479079D01*
X131055038Y-67446367D01*
X131071156Y-67416213D01*
X131092843Y-67389787D01*
X131119269Y-67368100D01*
X131149423Y-67351982D01*
X131182135Y-67342058D01*
X131222297Y-67338103D01*
X131910021Y-67338103D01*
X131950183Y-67342058D01*
X131950183Y-67342058D01*
G37*
M02*
