G04 #@! TF.GenerationSoftware,KiCad,Pcbnew,5.0.2-bee76a0~70~ubuntu18.04.1*
G04 #@! TF.CreationDate,2020-07-09T21:56:47-07:00*
G04 #@! TF.ProjectId,light_thing_hw,6c696768-745f-4746-9869-6e675f68772e,rev?*
G04 #@! TF.SameCoordinates,Original*
G04 #@! TF.FileFunction,Paste,Top*
G04 #@! TF.FilePolarity,Positive*
%FSLAX46Y46*%
G04 Gerber Fmt 4.6, Leading zero omitted, Abs format (unit mm)*
G04 Created by KiCad (PCBNEW 5.0.2-bee76a0~70~ubuntu18.04.1) date Thu 09 Jul 2020 09:56:47 PM PDT*
%MOMM*%
%LPD*%
G01*
G04 APERTURE LIST*
%ADD10R,1.010000X1.010000*%
%ADD11R,1.000000X0.250000*%
%ADD12R,0.250000X1.000000*%
%ADD13C,0.100000*%
%ADD14C,0.950000*%
%ADD15R,1.500000X1.500000*%
G04 APERTURE END LIST*
D10*
G04 #@! TO.C,U5A1*
X125789571Y-77973695D03*
X125789571Y-76673695D03*
X125789571Y-75373695D03*
X125789571Y-74073695D03*
X125789571Y-72773695D03*
X127089571Y-77973695D03*
X127089571Y-76673695D03*
X127089571Y-75373695D03*
X127089571Y-74073695D03*
X127089571Y-72773695D03*
X128389571Y-77973695D03*
X128389571Y-76673695D03*
X128389571Y-75373695D03*
X128389571Y-74073695D03*
X128389571Y-72773695D03*
X129689571Y-77973695D03*
X129689571Y-76673695D03*
X129689571Y-75373695D03*
X129689571Y-74073695D03*
X129689571Y-72773695D03*
X130989571Y-77973695D03*
X130989571Y-76673695D03*
X130989571Y-75373695D03*
X130989571Y-74073695D03*
X130989571Y-72773695D03*
D11*
X134089571Y-71623695D03*
X134089571Y-72123695D03*
X134089571Y-72623695D03*
X134089571Y-73123695D03*
X134089571Y-73623695D03*
X134089571Y-74123695D03*
X134089571Y-74623695D03*
X134089571Y-75123695D03*
X134089571Y-75623695D03*
X134089571Y-76123695D03*
X134089571Y-76623695D03*
X134089571Y-77123695D03*
X134089571Y-77623695D03*
X134089571Y-78123695D03*
X134089571Y-78623695D03*
X134089571Y-79123695D03*
D12*
X132139571Y-81073695D03*
X131639571Y-81073695D03*
X131139571Y-81073695D03*
X130639571Y-81073695D03*
X130139571Y-81073695D03*
X129639571Y-81073695D03*
X129139571Y-81073695D03*
X128639571Y-81073695D03*
X128139571Y-81073695D03*
X127639571Y-81073695D03*
X127139571Y-81073695D03*
X126639571Y-81073695D03*
X126139571Y-81073695D03*
X125639571Y-81073695D03*
X125139571Y-81073695D03*
X124639571Y-81073695D03*
D11*
X122689571Y-79123695D03*
X122689571Y-78623695D03*
X122689571Y-78123695D03*
X122689571Y-77623695D03*
X122689571Y-77123695D03*
X122689571Y-76623695D03*
X122689571Y-76123695D03*
X122689571Y-75623695D03*
X122689571Y-75123695D03*
X122689571Y-74623695D03*
X122689571Y-74123695D03*
X122689571Y-73623695D03*
X122689571Y-73123695D03*
X122689571Y-72623695D03*
X122689571Y-72123695D03*
X122689571Y-71623695D03*
D12*
X124639571Y-69673695D03*
X125139571Y-69673695D03*
X125639571Y-69673695D03*
X126139571Y-69673695D03*
X126639571Y-69673695D03*
X127139571Y-69673695D03*
X127639571Y-69673695D03*
X128139571Y-69673695D03*
X128639571Y-69673695D03*
X129139571Y-69673695D03*
X129639571Y-69673695D03*
X130139571Y-69673695D03*
X130639571Y-69673695D03*
X131139571Y-69673695D03*
X131639571Y-69673695D03*
X132139571Y-69673695D03*
G04 #@! TD*
D13*
G04 #@! TO.C,C1*
G36*
X136020350Y-71134839D02*
X136043405Y-71138258D01*
X136066014Y-71143922D01*
X136087958Y-71151774D01*
X136109028Y-71161739D01*
X136129019Y-71173721D01*
X136147739Y-71187605D01*
X136165009Y-71203257D01*
X136180661Y-71220527D01*
X136194545Y-71239247D01*
X136206527Y-71259238D01*
X136216492Y-71280308D01*
X136224344Y-71302252D01*
X136230008Y-71324861D01*
X136233427Y-71347916D01*
X136234571Y-71371195D01*
X136234571Y-71946195D01*
X136233427Y-71969474D01*
X136230008Y-71992529D01*
X136224344Y-72015138D01*
X136216492Y-72037082D01*
X136206527Y-72058152D01*
X136194545Y-72078143D01*
X136180661Y-72096863D01*
X136165009Y-72114133D01*
X136147739Y-72129785D01*
X136129019Y-72143669D01*
X136109028Y-72155651D01*
X136087958Y-72165616D01*
X136066014Y-72173468D01*
X136043405Y-72179132D01*
X136020350Y-72182551D01*
X135997071Y-72183695D01*
X135522071Y-72183695D01*
X135498792Y-72182551D01*
X135475737Y-72179132D01*
X135453128Y-72173468D01*
X135431184Y-72165616D01*
X135410114Y-72155651D01*
X135390123Y-72143669D01*
X135371403Y-72129785D01*
X135354133Y-72114133D01*
X135338481Y-72096863D01*
X135324597Y-72078143D01*
X135312615Y-72058152D01*
X135302650Y-72037082D01*
X135294798Y-72015138D01*
X135289134Y-71992529D01*
X135285715Y-71969474D01*
X135284571Y-71946195D01*
X135284571Y-71371195D01*
X135285715Y-71347916D01*
X135289134Y-71324861D01*
X135294798Y-71302252D01*
X135302650Y-71280308D01*
X135312615Y-71259238D01*
X135324597Y-71239247D01*
X135338481Y-71220527D01*
X135354133Y-71203257D01*
X135371403Y-71187605D01*
X135390123Y-71173721D01*
X135410114Y-71161739D01*
X135431184Y-71151774D01*
X135453128Y-71143922D01*
X135475737Y-71138258D01*
X135498792Y-71134839D01*
X135522071Y-71133695D01*
X135997071Y-71133695D01*
X136020350Y-71134839D01*
X136020350Y-71134839D01*
G37*
D14*
X135759571Y-71658695D03*
D13*
G36*
X136020350Y-69384839D02*
X136043405Y-69388258D01*
X136066014Y-69393922D01*
X136087958Y-69401774D01*
X136109028Y-69411739D01*
X136129019Y-69423721D01*
X136147739Y-69437605D01*
X136165009Y-69453257D01*
X136180661Y-69470527D01*
X136194545Y-69489247D01*
X136206527Y-69509238D01*
X136216492Y-69530308D01*
X136224344Y-69552252D01*
X136230008Y-69574861D01*
X136233427Y-69597916D01*
X136234571Y-69621195D01*
X136234571Y-70196195D01*
X136233427Y-70219474D01*
X136230008Y-70242529D01*
X136224344Y-70265138D01*
X136216492Y-70287082D01*
X136206527Y-70308152D01*
X136194545Y-70328143D01*
X136180661Y-70346863D01*
X136165009Y-70364133D01*
X136147739Y-70379785D01*
X136129019Y-70393669D01*
X136109028Y-70405651D01*
X136087958Y-70415616D01*
X136066014Y-70423468D01*
X136043405Y-70429132D01*
X136020350Y-70432551D01*
X135997071Y-70433695D01*
X135522071Y-70433695D01*
X135498792Y-70432551D01*
X135475737Y-70429132D01*
X135453128Y-70423468D01*
X135431184Y-70415616D01*
X135410114Y-70405651D01*
X135390123Y-70393669D01*
X135371403Y-70379785D01*
X135354133Y-70364133D01*
X135338481Y-70346863D01*
X135324597Y-70328143D01*
X135312615Y-70308152D01*
X135302650Y-70287082D01*
X135294798Y-70265138D01*
X135289134Y-70242529D01*
X135285715Y-70219474D01*
X135284571Y-70196195D01*
X135284571Y-69621195D01*
X135285715Y-69597916D01*
X135289134Y-69574861D01*
X135294798Y-69552252D01*
X135302650Y-69530308D01*
X135312615Y-69509238D01*
X135324597Y-69489247D01*
X135338481Y-69470527D01*
X135354133Y-69453257D01*
X135371403Y-69437605D01*
X135390123Y-69423721D01*
X135410114Y-69411739D01*
X135431184Y-69401774D01*
X135453128Y-69393922D01*
X135475737Y-69388258D01*
X135498792Y-69384839D01*
X135522071Y-69383695D01*
X135997071Y-69383695D01*
X136020350Y-69384839D01*
X136020350Y-69384839D01*
G37*
D14*
X135759571Y-69908695D03*
G04 #@! TD*
D13*
G04 #@! TO.C,C2*
G36*
X134376938Y-83339247D02*
X134399993Y-83342666D01*
X134422602Y-83348330D01*
X134444546Y-83356182D01*
X134465616Y-83366147D01*
X134485607Y-83378129D01*
X134504327Y-83392013D01*
X134521597Y-83407665D01*
X134537249Y-83424935D01*
X134551133Y-83443655D01*
X134563115Y-83463646D01*
X134573080Y-83484716D01*
X134580932Y-83506660D01*
X134586596Y-83529269D01*
X134590015Y-83552324D01*
X134591159Y-83575603D01*
X134591159Y-84050603D01*
X134590015Y-84073882D01*
X134586596Y-84096937D01*
X134580932Y-84119546D01*
X134573080Y-84141490D01*
X134563115Y-84162560D01*
X134551133Y-84182551D01*
X134537249Y-84201271D01*
X134521597Y-84218541D01*
X134504327Y-84234193D01*
X134485607Y-84248077D01*
X134465616Y-84260059D01*
X134444546Y-84270024D01*
X134422602Y-84277876D01*
X134399993Y-84283540D01*
X134376938Y-84286959D01*
X134353659Y-84288103D01*
X133778659Y-84288103D01*
X133755380Y-84286959D01*
X133732325Y-84283540D01*
X133709716Y-84277876D01*
X133687772Y-84270024D01*
X133666702Y-84260059D01*
X133646711Y-84248077D01*
X133627991Y-84234193D01*
X133610721Y-84218541D01*
X133595069Y-84201271D01*
X133581185Y-84182551D01*
X133569203Y-84162560D01*
X133559238Y-84141490D01*
X133551386Y-84119546D01*
X133545722Y-84096937D01*
X133542303Y-84073882D01*
X133541159Y-84050603D01*
X133541159Y-83575603D01*
X133542303Y-83552324D01*
X133545722Y-83529269D01*
X133551386Y-83506660D01*
X133559238Y-83484716D01*
X133569203Y-83463646D01*
X133581185Y-83443655D01*
X133595069Y-83424935D01*
X133610721Y-83407665D01*
X133627991Y-83392013D01*
X133646711Y-83378129D01*
X133666702Y-83366147D01*
X133687772Y-83356182D01*
X133709716Y-83348330D01*
X133732325Y-83342666D01*
X133755380Y-83339247D01*
X133778659Y-83338103D01*
X134353659Y-83338103D01*
X134376938Y-83339247D01*
X134376938Y-83339247D01*
G37*
D14*
X134066159Y-83813103D03*
D13*
G36*
X132626938Y-83339247D02*
X132649993Y-83342666D01*
X132672602Y-83348330D01*
X132694546Y-83356182D01*
X132715616Y-83366147D01*
X132735607Y-83378129D01*
X132754327Y-83392013D01*
X132771597Y-83407665D01*
X132787249Y-83424935D01*
X132801133Y-83443655D01*
X132813115Y-83463646D01*
X132823080Y-83484716D01*
X132830932Y-83506660D01*
X132836596Y-83529269D01*
X132840015Y-83552324D01*
X132841159Y-83575603D01*
X132841159Y-84050603D01*
X132840015Y-84073882D01*
X132836596Y-84096937D01*
X132830932Y-84119546D01*
X132823080Y-84141490D01*
X132813115Y-84162560D01*
X132801133Y-84182551D01*
X132787249Y-84201271D01*
X132771597Y-84218541D01*
X132754327Y-84234193D01*
X132735607Y-84248077D01*
X132715616Y-84260059D01*
X132694546Y-84270024D01*
X132672602Y-84277876D01*
X132649993Y-84283540D01*
X132626938Y-84286959D01*
X132603659Y-84288103D01*
X132028659Y-84288103D01*
X132005380Y-84286959D01*
X131982325Y-84283540D01*
X131959716Y-84277876D01*
X131937772Y-84270024D01*
X131916702Y-84260059D01*
X131896711Y-84248077D01*
X131877991Y-84234193D01*
X131860721Y-84218541D01*
X131845069Y-84201271D01*
X131831185Y-84182551D01*
X131819203Y-84162560D01*
X131809238Y-84141490D01*
X131801386Y-84119546D01*
X131795722Y-84096937D01*
X131792303Y-84073882D01*
X131791159Y-84050603D01*
X131791159Y-83575603D01*
X131792303Y-83552324D01*
X131795722Y-83529269D01*
X131801386Y-83506660D01*
X131809238Y-83484716D01*
X131819203Y-83463646D01*
X131831185Y-83443655D01*
X131845069Y-83424935D01*
X131860721Y-83407665D01*
X131877991Y-83392013D01*
X131896711Y-83378129D01*
X131916702Y-83366147D01*
X131937772Y-83356182D01*
X131959716Y-83348330D01*
X131982325Y-83342666D01*
X132005380Y-83339247D01*
X132028659Y-83338103D01*
X132603659Y-83338103D01*
X132626938Y-83339247D01*
X132626938Y-83339247D01*
G37*
D14*
X132316159Y-83813103D03*
G04 #@! TD*
D13*
G04 #@! TO.C,C3*
G36*
X121160350Y-78739839D02*
X121183405Y-78743258D01*
X121206014Y-78748922D01*
X121227958Y-78756774D01*
X121249028Y-78766739D01*
X121269019Y-78778721D01*
X121287739Y-78792605D01*
X121305009Y-78808257D01*
X121320661Y-78825527D01*
X121334545Y-78844247D01*
X121346527Y-78864238D01*
X121356492Y-78885308D01*
X121364344Y-78907252D01*
X121370008Y-78929861D01*
X121373427Y-78952916D01*
X121374571Y-78976195D01*
X121374571Y-79551195D01*
X121373427Y-79574474D01*
X121370008Y-79597529D01*
X121364344Y-79620138D01*
X121356492Y-79642082D01*
X121346527Y-79663152D01*
X121334545Y-79683143D01*
X121320661Y-79701863D01*
X121305009Y-79719133D01*
X121287739Y-79734785D01*
X121269019Y-79748669D01*
X121249028Y-79760651D01*
X121227958Y-79770616D01*
X121206014Y-79778468D01*
X121183405Y-79784132D01*
X121160350Y-79787551D01*
X121137071Y-79788695D01*
X120662071Y-79788695D01*
X120638792Y-79787551D01*
X120615737Y-79784132D01*
X120593128Y-79778468D01*
X120571184Y-79770616D01*
X120550114Y-79760651D01*
X120530123Y-79748669D01*
X120511403Y-79734785D01*
X120494133Y-79719133D01*
X120478481Y-79701863D01*
X120464597Y-79683143D01*
X120452615Y-79663152D01*
X120442650Y-79642082D01*
X120434798Y-79620138D01*
X120429134Y-79597529D01*
X120425715Y-79574474D01*
X120424571Y-79551195D01*
X120424571Y-78976195D01*
X120425715Y-78952916D01*
X120429134Y-78929861D01*
X120434798Y-78907252D01*
X120442650Y-78885308D01*
X120452615Y-78864238D01*
X120464597Y-78844247D01*
X120478481Y-78825527D01*
X120494133Y-78808257D01*
X120511403Y-78792605D01*
X120530123Y-78778721D01*
X120550114Y-78766739D01*
X120571184Y-78756774D01*
X120593128Y-78748922D01*
X120615737Y-78743258D01*
X120638792Y-78739839D01*
X120662071Y-78738695D01*
X121137071Y-78738695D01*
X121160350Y-78739839D01*
X121160350Y-78739839D01*
G37*
D14*
X120899571Y-79263695D03*
D13*
G36*
X121160350Y-80489839D02*
X121183405Y-80493258D01*
X121206014Y-80498922D01*
X121227958Y-80506774D01*
X121249028Y-80516739D01*
X121269019Y-80528721D01*
X121287739Y-80542605D01*
X121305009Y-80558257D01*
X121320661Y-80575527D01*
X121334545Y-80594247D01*
X121346527Y-80614238D01*
X121356492Y-80635308D01*
X121364344Y-80657252D01*
X121370008Y-80679861D01*
X121373427Y-80702916D01*
X121374571Y-80726195D01*
X121374571Y-81301195D01*
X121373427Y-81324474D01*
X121370008Y-81347529D01*
X121364344Y-81370138D01*
X121356492Y-81392082D01*
X121346527Y-81413152D01*
X121334545Y-81433143D01*
X121320661Y-81451863D01*
X121305009Y-81469133D01*
X121287739Y-81484785D01*
X121269019Y-81498669D01*
X121249028Y-81510651D01*
X121227958Y-81520616D01*
X121206014Y-81528468D01*
X121183405Y-81534132D01*
X121160350Y-81537551D01*
X121137071Y-81538695D01*
X120662071Y-81538695D01*
X120638792Y-81537551D01*
X120615737Y-81534132D01*
X120593128Y-81528468D01*
X120571184Y-81520616D01*
X120550114Y-81510651D01*
X120530123Y-81498669D01*
X120511403Y-81484785D01*
X120494133Y-81469133D01*
X120478481Y-81451863D01*
X120464597Y-81433143D01*
X120452615Y-81413152D01*
X120442650Y-81392082D01*
X120434798Y-81370138D01*
X120429134Y-81347529D01*
X120425715Y-81324474D01*
X120424571Y-81301195D01*
X120424571Y-80726195D01*
X120425715Y-80702916D01*
X120429134Y-80679861D01*
X120434798Y-80657252D01*
X120442650Y-80635308D01*
X120452615Y-80614238D01*
X120464597Y-80594247D01*
X120478481Y-80575527D01*
X120494133Y-80558257D01*
X120511403Y-80542605D01*
X120530123Y-80528721D01*
X120550114Y-80516739D01*
X120571184Y-80506774D01*
X120593128Y-80498922D01*
X120615737Y-80493258D01*
X120638792Y-80489839D01*
X120662071Y-80488695D01*
X121137071Y-80488695D01*
X121160350Y-80489839D01*
X121160350Y-80489839D01*
G37*
D14*
X120899571Y-81013695D03*
G04 #@! TD*
D13*
G04 #@! TO.C,C4*
G36*
X121160350Y-73489839D02*
X121183405Y-73493258D01*
X121206014Y-73498922D01*
X121227958Y-73506774D01*
X121249028Y-73516739D01*
X121269019Y-73528721D01*
X121287739Y-73542605D01*
X121305009Y-73558257D01*
X121320661Y-73575527D01*
X121334545Y-73594247D01*
X121346527Y-73614238D01*
X121356492Y-73635308D01*
X121364344Y-73657252D01*
X121370008Y-73679861D01*
X121373427Y-73702916D01*
X121374571Y-73726195D01*
X121374571Y-74301195D01*
X121373427Y-74324474D01*
X121370008Y-74347529D01*
X121364344Y-74370138D01*
X121356492Y-74392082D01*
X121346527Y-74413152D01*
X121334545Y-74433143D01*
X121320661Y-74451863D01*
X121305009Y-74469133D01*
X121287739Y-74484785D01*
X121269019Y-74498669D01*
X121249028Y-74510651D01*
X121227958Y-74520616D01*
X121206014Y-74528468D01*
X121183405Y-74534132D01*
X121160350Y-74537551D01*
X121137071Y-74538695D01*
X120662071Y-74538695D01*
X120638792Y-74537551D01*
X120615737Y-74534132D01*
X120593128Y-74528468D01*
X120571184Y-74520616D01*
X120550114Y-74510651D01*
X120530123Y-74498669D01*
X120511403Y-74484785D01*
X120494133Y-74469133D01*
X120478481Y-74451863D01*
X120464597Y-74433143D01*
X120452615Y-74413152D01*
X120442650Y-74392082D01*
X120434798Y-74370138D01*
X120429134Y-74347529D01*
X120425715Y-74324474D01*
X120424571Y-74301195D01*
X120424571Y-73726195D01*
X120425715Y-73702916D01*
X120429134Y-73679861D01*
X120434798Y-73657252D01*
X120442650Y-73635308D01*
X120452615Y-73614238D01*
X120464597Y-73594247D01*
X120478481Y-73575527D01*
X120494133Y-73558257D01*
X120511403Y-73542605D01*
X120530123Y-73528721D01*
X120550114Y-73516739D01*
X120571184Y-73506774D01*
X120593128Y-73498922D01*
X120615737Y-73493258D01*
X120638792Y-73489839D01*
X120662071Y-73488695D01*
X121137071Y-73488695D01*
X121160350Y-73489839D01*
X121160350Y-73489839D01*
G37*
D14*
X120899571Y-74013695D03*
D13*
G36*
X121160350Y-71739839D02*
X121183405Y-71743258D01*
X121206014Y-71748922D01*
X121227958Y-71756774D01*
X121249028Y-71766739D01*
X121269019Y-71778721D01*
X121287739Y-71792605D01*
X121305009Y-71808257D01*
X121320661Y-71825527D01*
X121334545Y-71844247D01*
X121346527Y-71864238D01*
X121356492Y-71885308D01*
X121364344Y-71907252D01*
X121370008Y-71929861D01*
X121373427Y-71952916D01*
X121374571Y-71976195D01*
X121374571Y-72551195D01*
X121373427Y-72574474D01*
X121370008Y-72597529D01*
X121364344Y-72620138D01*
X121356492Y-72642082D01*
X121346527Y-72663152D01*
X121334545Y-72683143D01*
X121320661Y-72701863D01*
X121305009Y-72719133D01*
X121287739Y-72734785D01*
X121269019Y-72748669D01*
X121249028Y-72760651D01*
X121227958Y-72770616D01*
X121206014Y-72778468D01*
X121183405Y-72784132D01*
X121160350Y-72787551D01*
X121137071Y-72788695D01*
X120662071Y-72788695D01*
X120638792Y-72787551D01*
X120615737Y-72784132D01*
X120593128Y-72778468D01*
X120571184Y-72770616D01*
X120550114Y-72760651D01*
X120530123Y-72748669D01*
X120511403Y-72734785D01*
X120494133Y-72719133D01*
X120478481Y-72701863D01*
X120464597Y-72683143D01*
X120452615Y-72663152D01*
X120442650Y-72642082D01*
X120434798Y-72620138D01*
X120429134Y-72597529D01*
X120425715Y-72574474D01*
X120424571Y-72551195D01*
X120424571Y-71976195D01*
X120425715Y-71952916D01*
X120429134Y-71929861D01*
X120434798Y-71907252D01*
X120442650Y-71885308D01*
X120452615Y-71864238D01*
X120464597Y-71844247D01*
X120478481Y-71825527D01*
X120494133Y-71808257D01*
X120511403Y-71792605D01*
X120530123Y-71778721D01*
X120550114Y-71766739D01*
X120571184Y-71756774D01*
X120593128Y-71748922D01*
X120615737Y-71743258D01*
X120638792Y-71739839D01*
X120662071Y-71738695D01*
X121137071Y-71738695D01*
X121160350Y-71739839D01*
X121160350Y-71739839D01*
G37*
D14*
X120899571Y-72263695D03*
G04 #@! TD*
D13*
G04 #@! TO.C,C7*
G36*
X119292405Y-73483310D02*
X119315460Y-73486729D01*
X119338069Y-73492393D01*
X119360013Y-73500245D01*
X119381083Y-73510210D01*
X119401074Y-73522192D01*
X119419794Y-73536076D01*
X119437064Y-73551728D01*
X119452716Y-73568998D01*
X119466600Y-73587718D01*
X119478582Y-73607709D01*
X119488547Y-73628779D01*
X119496399Y-73650723D01*
X119502063Y-73673332D01*
X119505482Y-73696387D01*
X119506626Y-73719666D01*
X119506626Y-74294666D01*
X119505482Y-74317945D01*
X119502063Y-74341000D01*
X119496399Y-74363609D01*
X119488547Y-74385553D01*
X119478582Y-74406623D01*
X119466600Y-74426614D01*
X119452716Y-74445334D01*
X119437064Y-74462604D01*
X119419794Y-74478256D01*
X119401074Y-74492140D01*
X119381083Y-74504122D01*
X119360013Y-74514087D01*
X119338069Y-74521939D01*
X119315460Y-74527603D01*
X119292405Y-74531022D01*
X119269126Y-74532166D01*
X118794126Y-74532166D01*
X118770847Y-74531022D01*
X118747792Y-74527603D01*
X118725183Y-74521939D01*
X118703239Y-74514087D01*
X118682169Y-74504122D01*
X118662178Y-74492140D01*
X118643458Y-74478256D01*
X118626188Y-74462604D01*
X118610536Y-74445334D01*
X118596652Y-74426614D01*
X118584670Y-74406623D01*
X118574705Y-74385553D01*
X118566853Y-74363609D01*
X118561189Y-74341000D01*
X118557770Y-74317945D01*
X118556626Y-74294666D01*
X118556626Y-73719666D01*
X118557770Y-73696387D01*
X118561189Y-73673332D01*
X118566853Y-73650723D01*
X118574705Y-73628779D01*
X118584670Y-73607709D01*
X118596652Y-73587718D01*
X118610536Y-73568998D01*
X118626188Y-73551728D01*
X118643458Y-73536076D01*
X118662178Y-73522192D01*
X118682169Y-73510210D01*
X118703239Y-73500245D01*
X118725183Y-73492393D01*
X118747792Y-73486729D01*
X118770847Y-73483310D01*
X118794126Y-73482166D01*
X119269126Y-73482166D01*
X119292405Y-73483310D01*
X119292405Y-73483310D01*
G37*
D14*
X119031626Y-74007166D03*
D13*
G36*
X119292405Y-71733310D02*
X119315460Y-71736729D01*
X119338069Y-71742393D01*
X119360013Y-71750245D01*
X119381083Y-71760210D01*
X119401074Y-71772192D01*
X119419794Y-71786076D01*
X119437064Y-71801728D01*
X119452716Y-71818998D01*
X119466600Y-71837718D01*
X119478582Y-71857709D01*
X119488547Y-71878779D01*
X119496399Y-71900723D01*
X119502063Y-71923332D01*
X119505482Y-71946387D01*
X119506626Y-71969666D01*
X119506626Y-72544666D01*
X119505482Y-72567945D01*
X119502063Y-72591000D01*
X119496399Y-72613609D01*
X119488547Y-72635553D01*
X119478582Y-72656623D01*
X119466600Y-72676614D01*
X119452716Y-72695334D01*
X119437064Y-72712604D01*
X119419794Y-72728256D01*
X119401074Y-72742140D01*
X119381083Y-72754122D01*
X119360013Y-72764087D01*
X119338069Y-72771939D01*
X119315460Y-72777603D01*
X119292405Y-72781022D01*
X119269126Y-72782166D01*
X118794126Y-72782166D01*
X118770847Y-72781022D01*
X118747792Y-72777603D01*
X118725183Y-72771939D01*
X118703239Y-72764087D01*
X118682169Y-72754122D01*
X118662178Y-72742140D01*
X118643458Y-72728256D01*
X118626188Y-72712604D01*
X118610536Y-72695334D01*
X118596652Y-72676614D01*
X118584670Y-72656623D01*
X118574705Y-72635553D01*
X118566853Y-72613609D01*
X118561189Y-72591000D01*
X118557770Y-72567945D01*
X118556626Y-72544666D01*
X118556626Y-71969666D01*
X118557770Y-71946387D01*
X118561189Y-71923332D01*
X118566853Y-71900723D01*
X118574705Y-71878779D01*
X118584670Y-71857709D01*
X118596652Y-71837718D01*
X118610536Y-71818998D01*
X118626188Y-71801728D01*
X118643458Y-71786076D01*
X118662178Y-71772192D01*
X118682169Y-71760210D01*
X118703239Y-71750245D01*
X118725183Y-71742393D01*
X118747792Y-71736729D01*
X118770847Y-71733310D01*
X118794126Y-71732166D01*
X119269126Y-71732166D01*
X119292405Y-71733310D01*
X119292405Y-71733310D01*
G37*
D14*
X119031626Y-72257166D03*
G04 #@! TD*
D13*
G04 #@! TO.C,C9*
G36*
X132510779Y-93296144D02*
X132533834Y-93299563D01*
X132556443Y-93305227D01*
X132578387Y-93313079D01*
X132599457Y-93323044D01*
X132619448Y-93335026D01*
X132638168Y-93348910D01*
X132655438Y-93364562D01*
X132671090Y-93381832D01*
X132684974Y-93400552D01*
X132696956Y-93420543D01*
X132706921Y-93441613D01*
X132714773Y-93463557D01*
X132720437Y-93486166D01*
X132723856Y-93509221D01*
X132725000Y-93532500D01*
X132725000Y-94007500D01*
X132723856Y-94030779D01*
X132720437Y-94053834D01*
X132714773Y-94076443D01*
X132706921Y-94098387D01*
X132696956Y-94119457D01*
X132684974Y-94139448D01*
X132671090Y-94158168D01*
X132655438Y-94175438D01*
X132638168Y-94191090D01*
X132619448Y-94204974D01*
X132599457Y-94216956D01*
X132578387Y-94226921D01*
X132556443Y-94234773D01*
X132533834Y-94240437D01*
X132510779Y-94243856D01*
X132487500Y-94245000D01*
X131912500Y-94245000D01*
X131889221Y-94243856D01*
X131866166Y-94240437D01*
X131843557Y-94234773D01*
X131821613Y-94226921D01*
X131800543Y-94216956D01*
X131780552Y-94204974D01*
X131761832Y-94191090D01*
X131744562Y-94175438D01*
X131728910Y-94158168D01*
X131715026Y-94139448D01*
X131703044Y-94119457D01*
X131693079Y-94098387D01*
X131685227Y-94076443D01*
X131679563Y-94053834D01*
X131676144Y-94030779D01*
X131675000Y-94007500D01*
X131675000Y-93532500D01*
X131676144Y-93509221D01*
X131679563Y-93486166D01*
X131685227Y-93463557D01*
X131693079Y-93441613D01*
X131703044Y-93420543D01*
X131715026Y-93400552D01*
X131728910Y-93381832D01*
X131744562Y-93364562D01*
X131761832Y-93348910D01*
X131780552Y-93335026D01*
X131800543Y-93323044D01*
X131821613Y-93313079D01*
X131843557Y-93305227D01*
X131866166Y-93299563D01*
X131889221Y-93296144D01*
X131912500Y-93295000D01*
X132487500Y-93295000D01*
X132510779Y-93296144D01*
X132510779Y-93296144D01*
G37*
D14*
X132200000Y-93770000D03*
D13*
G36*
X130760779Y-93296144D02*
X130783834Y-93299563D01*
X130806443Y-93305227D01*
X130828387Y-93313079D01*
X130849457Y-93323044D01*
X130869448Y-93335026D01*
X130888168Y-93348910D01*
X130905438Y-93364562D01*
X130921090Y-93381832D01*
X130934974Y-93400552D01*
X130946956Y-93420543D01*
X130956921Y-93441613D01*
X130964773Y-93463557D01*
X130970437Y-93486166D01*
X130973856Y-93509221D01*
X130975000Y-93532500D01*
X130975000Y-94007500D01*
X130973856Y-94030779D01*
X130970437Y-94053834D01*
X130964773Y-94076443D01*
X130956921Y-94098387D01*
X130946956Y-94119457D01*
X130934974Y-94139448D01*
X130921090Y-94158168D01*
X130905438Y-94175438D01*
X130888168Y-94191090D01*
X130869448Y-94204974D01*
X130849457Y-94216956D01*
X130828387Y-94226921D01*
X130806443Y-94234773D01*
X130783834Y-94240437D01*
X130760779Y-94243856D01*
X130737500Y-94245000D01*
X130162500Y-94245000D01*
X130139221Y-94243856D01*
X130116166Y-94240437D01*
X130093557Y-94234773D01*
X130071613Y-94226921D01*
X130050543Y-94216956D01*
X130030552Y-94204974D01*
X130011832Y-94191090D01*
X129994562Y-94175438D01*
X129978910Y-94158168D01*
X129965026Y-94139448D01*
X129953044Y-94119457D01*
X129943079Y-94098387D01*
X129935227Y-94076443D01*
X129929563Y-94053834D01*
X129926144Y-94030779D01*
X129925000Y-94007500D01*
X129925000Y-93532500D01*
X129926144Y-93509221D01*
X129929563Y-93486166D01*
X129935227Y-93463557D01*
X129943079Y-93441613D01*
X129953044Y-93420543D01*
X129965026Y-93400552D01*
X129978910Y-93381832D01*
X129994562Y-93364562D01*
X130011832Y-93348910D01*
X130030552Y-93335026D01*
X130050543Y-93323044D01*
X130071613Y-93313079D01*
X130093557Y-93305227D01*
X130116166Y-93299563D01*
X130139221Y-93296144D01*
X130162500Y-93295000D01*
X130737500Y-93295000D01*
X130760779Y-93296144D01*
X130760779Y-93296144D01*
G37*
D14*
X130450000Y-93770000D03*
G04 #@! TD*
D13*
G04 #@! TO.C,C16*
G36*
X131876938Y-67339247D02*
X131899993Y-67342666D01*
X131922602Y-67348330D01*
X131944546Y-67356182D01*
X131965616Y-67366147D01*
X131985607Y-67378129D01*
X132004327Y-67392013D01*
X132021597Y-67407665D01*
X132037249Y-67424935D01*
X132051133Y-67443655D01*
X132063115Y-67463646D01*
X132073080Y-67484716D01*
X132080932Y-67506660D01*
X132086596Y-67529269D01*
X132090015Y-67552324D01*
X132091159Y-67575603D01*
X132091159Y-68050603D01*
X132090015Y-68073882D01*
X132086596Y-68096937D01*
X132080932Y-68119546D01*
X132073080Y-68141490D01*
X132063115Y-68162560D01*
X132051133Y-68182551D01*
X132037249Y-68201271D01*
X132021597Y-68218541D01*
X132004327Y-68234193D01*
X131985607Y-68248077D01*
X131965616Y-68260059D01*
X131944546Y-68270024D01*
X131922602Y-68277876D01*
X131899993Y-68283540D01*
X131876938Y-68286959D01*
X131853659Y-68288103D01*
X131278659Y-68288103D01*
X131255380Y-68286959D01*
X131232325Y-68283540D01*
X131209716Y-68277876D01*
X131187772Y-68270024D01*
X131166702Y-68260059D01*
X131146711Y-68248077D01*
X131127991Y-68234193D01*
X131110721Y-68218541D01*
X131095069Y-68201271D01*
X131081185Y-68182551D01*
X131069203Y-68162560D01*
X131059238Y-68141490D01*
X131051386Y-68119546D01*
X131045722Y-68096937D01*
X131042303Y-68073882D01*
X131041159Y-68050603D01*
X131041159Y-67575603D01*
X131042303Y-67552324D01*
X131045722Y-67529269D01*
X131051386Y-67506660D01*
X131059238Y-67484716D01*
X131069203Y-67463646D01*
X131081185Y-67443655D01*
X131095069Y-67424935D01*
X131110721Y-67407665D01*
X131127991Y-67392013D01*
X131146711Y-67378129D01*
X131166702Y-67366147D01*
X131187772Y-67356182D01*
X131209716Y-67348330D01*
X131232325Y-67342666D01*
X131255380Y-67339247D01*
X131278659Y-67338103D01*
X131853659Y-67338103D01*
X131876938Y-67339247D01*
X131876938Y-67339247D01*
G37*
D14*
X131566159Y-67813103D03*
D13*
G36*
X130126938Y-67339247D02*
X130149993Y-67342666D01*
X130172602Y-67348330D01*
X130194546Y-67356182D01*
X130215616Y-67366147D01*
X130235607Y-67378129D01*
X130254327Y-67392013D01*
X130271597Y-67407665D01*
X130287249Y-67424935D01*
X130301133Y-67443655D01*
X130313115Y-67463646D01*
X130323080Y-67484716D01*
X130330932Y-67506660D01*
X130336596Y-67529269D01*
X130340015Y-67552324D01*
X130341159Y-67575603D01*
X130341159Y-68050603D01*
X130340015Y-68073882D01*
X130336596Y-68096937D01*
X130330932Y-68119546D01*
X130323080Y-68141490D01*
X130313115Y-68162560D01*
X130301133Y-68182551D01*
X130287249Y-68201271D01*
X130271597Y-68218541D01*
X130254327Y-68234193D01*
X130235607Y-68248077D01*
X130215616Y-68260059D01*
X130194546Y-68270024D01*
X130172602Y-68277876D01*
X130149993Y-68283540D01*
X130126938Y-68286959D01*
X130103659Y-68288103D01*
X129528659Y-68288103D01*
X129505380Y-68286959D01*
X129482325Y-68283540D01*
X129459716Y-68277876D01*
X129437772Y-68270024D01*
X129416702Y-68260059D01*
X129396711Y-68248077D01*
X129377991Y-68234193D01*
X129360721Y-68218541D01*
X129345069Y-68201271D01*
X129331185Y-68182551D01*
X129319203Y-68162560D01*
X129309238Y-68141490D01*
X129301386Y-68119546D01*
X129295722Y-68096937D01*
X129292303Y-68073882D01*
X129291159Y-68050603D01*
X129291159Y-67575603D01*
X129292303Y-67552324D01*
X129295722Y-67529269D01*
X129301386Y-67506660D01*
X129309238Y-67484716D01*
X129319203Y-67463646D01*
X129331185Y-67443655D01*
X129345069Y-67424935D01*
X129360721Y-67407665D01*
X129377991Y-67392013D01*
X129396711Y-67378129D01*
X129416702Y-67366147D01*
X129437772Y-67356182D01*
X129459716Y-67348330D01*
X129482325Y-67342666D01*
X129505380Y-67339247D01*
X129528659Y-67338103D01*
X130103659Y-67338103D01*
X130126938Y-67339247D01*
X130126938Y-67339247D01*
G37*
D14*
X129816159Y-67813103D03*
G04 #@! TD*
D13*
G04 #@! TO.C,C17*
G36*
X124876938Y-67339247D02*
X124899993Y-67342666D01*
X124922602Y-67348330D01*
X124944546Y-67356182D01*
X124965616Y-67366147D01*
X124985607Y-67378129D01*
X125004327Y-67392013D01*
X125021597Y-67407665D01*
X125037249Y-67424935D01*
X125051133Y-67443655D01*
X125063115Y-67463646D01*
X125073080Y-67484716D01*
X125080932Y-67506660D01*
X125086596Y-67529269D01*
X125090015Y-67552324D01*
X125091159Y-67575603D01*
X125091159Y-68050603D01*
X125090015Y-68073882D01*
X125086596Y-68096937D01*
X125080932Y-68119546D01*
X125073080Y-68141490D01*
X125063115Y-68162560D01*
X125051133Y-68182551D01*
X125037249Y-68201271D01*
X125021597Y-68218541D01*
X125004327Y-68234193D01*
X124985607Y-68248077D01*
X124965616Y-68260059D01*
X124944546Y-68270024D01*
X124922602Y-68277876D01*
X124899993Y-68283540D01*
X124876938Y-68286959D01*
X124853659Y-68288103D01*
X124278659Y-68288103D01*
X124255380Y-68286959D01*
X124232325Y-68283540D01*
X124209716Y-68277876D01*
X124187772Y-68270024D01*
X124166702Y-68260059D01*
X124146711Y-68248077D01*
X124127991Y-68234193D01*
X124110721Y-68218541D01*
X124095069Y-68201271D01*
X124081185Y-68182551D01*
X124069203Y-68162560D01*
X124059238Y-68141490D01*
X124051386Y-68119546D01*
X124045722Y-68096937D01*
X124042303Y-68073882D01*
X124041159Y-68050603D01*
X124041159Y-67575603D01*
X124042303Y-67552324D01*
X124045722Y-67529269D01*
X124051386Y-67506660D01*
X124059238Y-67484716D01*
X124069203Y-67463646D01*
X124081185Y-67443655D01*
X124095069Y-67424935D01*
X124110721Y-67407665D01*
X124127991Y-67392013D01*
X124146711Y-67378129D01*
X124166702Y-67366147D01*
X124187772Y-67356182D01*
X124209716Y-67348330D01*
X124232325Y-67342666D01*
X124255380Y-67339247D01*
X124278659Y-67338103D01*
X124853659Y-67338103D01*
X124876938Y-67339247D01*
X124876938Y-67339247D01*
G37*
D14*
X124566159Y-67813103D03*
D13*
G36*
X126626938Y-67339247D02*
X126649993Y-67342666D01*
X126672602Y-67348330D01*
X126694546Y-67356182D01*
X126715616Y-67366147D01*
X126735607Y-67378129D01*
X126754327Y-67392013D01*
X126771597Y-67407665D01*
X126787249Y-67424935D01*
X126801133Y-67443655D01*
X126813115Y-67463646D01*
X126823080Y-67484716D01*
X126830932Y-67506660D01*
X126836596Y-67529269D01*
X126840015Y-67552324D01*
X126841159Y-67575603D01*
X126841159Y-68050603D01*
X126840015Y-68073882D01*
X126836596Y-68096937D01*
X126830932Y-68119546D01*
X126823080Y-68141490D01*
X126813115Y-68162560D01*
X126801133Y-68182551D01*
X126787249Y-68201271D01*
X126771597Y-68218541D01*
X126754327Y-68234193D01*
X126735607Y-68248077D01*
X126715616Y-68260059D01*
X126694546Y-68270024D01*
X126672602Y-68277876D01*
X126649993Y-68283540D01*
X126626938Y-68286959D01*
X126603659Y-68288103D01*
X126028659Y-68288103D01*
X126005380Y-68286959D01*
X125982325Y-68283540D01*
X125959716Y-68277876D01*
X125937772Y-68270024D01*
X125916702Y-68260059D01*
X125896711Y-68248077D01*
X125877991Y-68234193D01*
X125860721Y-68218541D01*
X125845069Y-68201271D01*
X125831185Y-68182551D01*
X125819203Y-68162560D01*
X125809238Y-68141490D01*
X125801386Y-68119546D01*
X125795722Y-68096937D01*
X125792303Y-68073882D01*
X125791159Y-68050603D01*
X125791159Y-67575603D01*
X125792303Y-67552324D01*
X125795722Y-67529269D01*
X125801386Y-67506660D01*
X125809238Y-67484716D01*
X125819203Y-67463646D01*
X125831185Y-67443655D01*
X125845069Y-67424935D01*
X125860721Y-67407665D01*
X125877991Y-67392013D01*
X125896711Y-67378129D01*
X125916702Y-67366147D01*
X125937772Y-67356182D01*
X125959716Y-67348330D01*
X125982325Y-67342666D01*
X126005380Y-67339247D01*
X126028659Y-67338103D01*
X126603659Y-67338103D01*
X126626938Y-67339247D01*
X126626938Y-67339247D01*
G37*
D14*
X126316159Y-67813103D03*
G04 #@! TD*
D13*
G04 #@! TO.C,R5*
G36*
X137724779Y-73440144D02*
X137747834Y-73443563D01*
X137770443Y-73449227D01*
X137792387Y-73457079D01*
X137813457Y-73467044D01*
X137833448Y-73479026D01*
X137852168Y-73492910D01*
X137869438Y-73508562D01*
X137885090Y-73525832D01*
X137898974Y-73544552D01*
X137910956Y-73564543D01*
X137920921Y-73585613D01*
X137928773Y-73607557D01*
X137934437Y-73630166D01*
X137937856Y-73653221D01*
X137939000Y-73676500D01*
X137939000Y-74151500D01*
X137937856Y-74174779D01*
X137934437Y-74197834D01*
X137928773Y-74220443D01*
X137920921Y-74242387D01*
X137910956Y-74263457D01*
X137898974Y-74283448D01*
X137885090Y-74302168D01*
X137869438Y-74319438D01*
X137852168Y-74335090D01*
X137833448Y-74348974D01*
X137813457Y-74360956D01*
X137792387Y-74370921D01*
X137770443Y-74378773D01*
X137747834Y-74384437D01*
X137724779Y-74387856D01*
X137701500Y-74389000D01*
X137126500Y-74389000D01*
X137103221Y-74387856D01*
X137080166Y-74384437D01*
X137057557Y-74378773D01*
X137035613Y-74370921D01*
X137014543Y-74360956D01*
X136994552Y-74348974D01*
X136975832Y-74335090D01*
X136958562Y-74319438D01*
X136942910Y-74302168D01*
X136929026Y-74283448D01*
X136917044Y-74263457D01*
X136907079Y-74242387D01*
X136899227Y-74220443D01*
X136893563Y-74197834D01*
X136890144Y-74174779D01*
X136889000Y-74151500D01*
X136889000Y-73676500D01*
X136890144Y-73653221D01*
X136893563Y-73630166D01*
X136899227Y-73607557D01*
X136907079Y-73585613D01*
X136917044Y-73564543D01*
X136929026Y-73544552D01*
X136942910Y-73525832D01*
X136958562Y-73508562D01*
X136975832Y-73492910D01*
X136994552Y-73479026D01*
X137014543Y-73467044D01*
X137035613Y-73457079D01*
X137057557Y-73449227D01*
X137080166Y-73443563D01*
X137103221Y-73440144D01*
X137126500Y-73439000D01*
X137701500Y-73439000D01*
X137724779Y-73440144D01*
X137724779Y-73440144D01*
G37*
D14*
X137414000Y-73914000D03*
D13*
G36*
X135974779Y-73440144D02*
X135997834Y-73443563D01*
X136020443Y-73449227D01*
X136042387Y-73457079D01*
X136063457Y-73467044D01*
X136083448Y-73479026D01*
X136102168Y-73492910D01*
X136119438Y-73508562D01*
X136135090Y-73525832D01*
X136148974Y-73544552D01*
X136160956Y-73564543D01*
X136170921Y-73585613D01*
X136178773Y-73607557D01*
X136184437Y-73630166D01*
X136187856Y-73653221D01*
X136189000Y-73676500D01*
X136189000Y-74151500D01*
X136187856Y-74174779D01*
X136184437Y-74197834D01*
X136178773Y-74220443D01*
X136170921Y-74242387D01*
X136160956Y-74263457D01*
X136148974Y-74283448D01*
X136135090Y-74302168D01*
X136119438Y-74319438D01*
X136102168Y-74335090D01*
X136083448Y-74348974D01*
X136063457Y-74360956D01*
X136042387Y-74370921D01*
X136020443Y-74378773D01*
X135997834Y-74384437D01*
X135974779Y-74387856D01*
X135951500Y-74389000D01*
X135376500Y-74389000D01*
X135353221Y-74387856D01*
X135330166Y-74384437D01*
X135307557Y-74378773D01*
X135285613Y-74370921D01*
X135264543Y-74360956D01*
X135244552Y-74348974D01*
X135225832Y-74335090D01*
X135208562Y-74319438D01*
X135192910Y-74302168D01*
X135179026Y-74283448D01*
X135167044Y-74263457D01*
X135157079Y-74242387D01*
X135149227Y-74220443D01*
X135143563Y-74197834D01*
X135140144Y-74174779D01*
X135139000Y-74151500D01*
X135139000Y-73676500D01*
X135140144Y-73653221D01*
X135143563Y-73630166D01*
X135149227Y-73607557D01*
X135157079Y-73585613D01*
X135167044Y-73564543D01*
X135179026Y-73544552D01*
X135192910Y-73525832D01*
X135208562Y-73508562D01*
X135225832Y-73492910D01*
X135244552Y-73479026D01*
X135264543Y-73467044D01*
X135285613Y-73457079D01*
X135307557Y-73449227D01*
X135330166Y-73443563D01*
X135353221Y-73440144D01*
X135376500Y-73439000D01*
X135951500Y-73439000D01*
X135974779Y-73440144D01*
X135974779Y-73440144D01*
G37*
D14*
X135664000Y-73914000D03*
G04 #@! TD*
D13*
G04 #@! TO.C,R10*
G36*
X130870350Y-84729839D02*
X130893405Y-84733258D01*
X130916014Y-84738922D01*
X130937958Y-84746774D01*
X130959028Y-84756739D01*
X130979019Y-84768721D01*
X130997739Y-84782605D01*
X131015009Y-84798257D01*
X131030661Y-84815527D01*
X131044545Y-84834247D01*
X131056527Y-84854238D01*
X131066492Y-84875308D01*
X131074344Y-84897252D01*
X131080008Y-84919861D01*
X131083427Y-84942916D01*
X131084571Y-84966195D01*
X131084571Y-85541195D01*
X131083427Y-85564474D01*
X131080008Y-85587529D01*
X131074344Y-85610138D01*
X131066492Y-85632082D01*
X131056527Y-85653152D01*
X131044545Y-85673143D01*
X131030661Y-85691863D01*
X131015009Y-85709133D01*
X130997739Y-85724785D01*
X130979019Y-85738669D01*
X130959028Y-85750651D01*
X130937958Y-85760616D01*
X130916014Y-85768468D01*
X130893405Y-85774132D01*
X130870350Y-85777551D01*
X130847071Y-85778695D01*
X130372071Y-85778695D01*
X130348792Y-85777551D01*
X130325737Y-85774132D01*
X130303128Y-85768468D01*
X130281184Y-85760616D01*
X130260114Y-85750651D01*
X130240123Y-85738669D01*
X130221403Y-85724785D01*
X130204133Y-85709133D01*
X130188481Y-85691863D01*
X130174597Y-85673143D01*
X130162615Y-85653152D01*
X130152650Y-85632082D01*
X130144798Y-85610138D01*
X130139134Y-85587529D01*
X130135715Y-85564474D01*
X130134571Y-85541195D01*
X130134571Y-84966195D01*
X130135715Y-84942916D01*
X130139134Y-84919861D01*
X130144798Y-84897252D01*
X130152650Y-84875308D01*
X130162615Y-84854238D01*
X130174597Y-84834247D01*
X130188481Y-84815527D01*
X130204133Y-84798257D01*
X130221403Y-84782605D01*
X130240123Y-84768721D01*
X130260114Y-84756739D01*
X130281184Y-84746774D01*
X130303128Y-84738922D01*
X130325737Y-84733258D01*
X130348792Y-84729839D01*
X130372071Y-84728695D01*
X130847071Y-84728695D01*
X130870350Y-84729839D01*
X130870350Y-84729839D01*
G37*
D14*
X130609571Y-85253695D03*
D13*
G36*
X130870350Y-82979839D02*
X130893405Y-82983258D01*
X130916014Y-82988922D01*
X130937958Y-82996774D01*
X130959028Y-83006739D01*
X130979019Y-83018721D01*
X130997739Y-83032605D01*
X131015009Y-83048257D01*
X131030661Y-83065527D01*
X131044545Y-83084247D01*
X131056527Y-83104238D01*
X131066492Y-83125308D01*
X131074344Y-83147252D01*
X131080008Y-83169861D01*
X131083427Y-83192916D01*
X131084571Y-83216195D01*
X131084571Y-83791195D01*
X131083427Y-83814474D01*
X131080008Y-83837529D01*
X131074344Y-83860138D01*
X131066492Y-83882082D01*
X131056527Y-83903152D01*
X131044545Y-83923143D01*
X131030661Y-83941863D01*
X131015009Y-83959133D01*
X130997739Y-83974785D01*
X130979019Y-83988669D01*
X130959028Y-84000651D01*
X130937958Y-84010616D01*
X130916014Y-84018468D01*
X130893405Y-84024132D01*
X130870350Y-84027551D01*
X130847071Y-84028695D01*
X130372071Y-84028695D01*
X130348792Y-84027551D01*
X130325737Y-84024132D01*
X130303128Y-84018468D01*
X130281184Y-84010616D01*
X130260114Y-84000651D01*
X130240123Y-83988669D01*
X130221403Y-83974785D01*
X130204133Y-83959133D01*
X130188481Y-83941863D01*
X130174597Y-83923143D01*
X130162615Y-83903152D01*
X130152650Y-83882082D01*
X130144798Y-83860138D01*
X130139134Y-83837529D01*
X130135715Y-83814474D01*
X130134571Y-83791195D01*
X130134571Y-83216195D01*
X130135715Y-83192916D01*
X130139134Y-83169861D01*
X130144798Y-83147252D01*
X130152650Y-83125308D01*
X130162615Y-83104238D01*
X130174597Y-83084247D01*
X130188481Y-83065527D01*
X130204133Y-83048257D01*
X130221403Y-83032605D01*
X130240123Y-83018721D01*
X130260114Y-83006739D01*
X130281184Y-82996774D01*
X130303128Y-82988922D01*
X130325737Y-82983258D01*
X130348792Y-82979839D01*
X130372071Y-82978695D01*
X130847071Y-82978695D01*
X130870350Y-82979839D01*
X130870350Y-82979839D01*
G37*
D14*
X130609571Y-83503695D03*
G04 #@! TD*
D13*
G04 #@! TO.C,R11*
G36*
X129270350Y-84729839D02*
X129293405Y-84733258D01*
X129316014Y-84738922D01*
X129337958Y-84746774D01*
X129359028Y-84756739D01*
X129379019Y-84768721D01*
X129397739Y-84782605D01*
X129415009Y-84798257D01*
X129430661Y-84815527D01*
X129444545Y-84834247D01*
X129456527Y-84854238D01*
X129466492Y-84875308D01*
X129474344Y-84897252D01*
X129480008Y-84919861D01*
X129483427Y-84942916D01*
X129484571Y-84966195D01*
X129484571Y-85541195D01*
X129483427Y-85564474D01*
X129480008Y-85587529D01*
X129474344Y-85610138D01*
X129466492Y-85632082D01*
X129456527Y-85653152D01*
X129444545Y-85673143D01*
X129430661Y-85691863D01*
X129415009Y-85709133D01*
X129397739Y-85724785D01*
X129379019Y-85738669D01*
X129359028Y-85750651D01*
X129337958Y-85760616D01*
X129316014Y-85768468D01*
X129293405Y-85774132D01*
X129270350Y-85777551D01*
X129247071Y-85778695D01*
X128772071Y-85778695D01*
X128748792Y-85777551D01*
X128725737Y-85774132D01*
X128703128Y-85768468D01*
X128681184Y-85760616D01*
X128660114Y-85750651D01*
X128640123Y-85738669D01*
X128621403Y-85724785D01*
X128604133Y-85709133D01*
X128588481Y-85691863D01*
X128574597Y-85673143D01*
X128562615Y-85653152D01*
X128552650Y-85632082D01*
X128544798Y-85610138D01*
X128539134Y-85587529D01*
X128535715Y-85564474D01*
X128534571Y-85541195D01*
X128534571Y-84966195D01*
X128535715Y-84942916D01*
X128539134Y-84919861D01*
X128544798Y-84897252D01*
X128552650Y-84875308D01*
X128562615Y-84854238D01*
X128574597Y-84834247D01*
X128588481Y-84815527D01*
X128604133Y-84798257D01*
X128621403Y-84782605D01*
X128640123Y-84768721D01*
X128660114Y-84756739D01*
X128681184Y-84746774D01*
X128703128Y-84738922D01*
X128725737Y-84733258D01*
X128748792Y-84729839D01*
X128772071Y-84728695D01*
X129247071Y-84728695D01*
X129270350Y-84729839D01*
X129270350Y-84729839D01*
G37*
D14*
X129009571Y-85253695D03*
D13*
G36*
X129270350Y-82979839D02*
X129293405Y-82983258D01*
X129316014Y-82988922D01*
X129337958Y-82996774D01*
X129359028Y-83006739D01*
X129379019Y-83018721D01*
X129397739Y-83032605D01*
X129415009Y-83048257D01*
X129430661Y-83065527D01*
X129444545Y-83084247D01*
X129456527Y-83104238D01*
X129466492Y-83125308D01*
X129474344Y-83147252D01*
X129480008Y-83169861D01*
X129483427Y-83192916D01*
X129484571Y-83216195D01*
X129484571Y-83791195D01*
X129483427Y-83814474D01*
X129480008Y-83837529D01*
X129474344Y-83860138D01*
X129466492Y-83882082D01*
X129456527Y-83903152D01*
X129444545Y-83923143D01*
X129430661Y-83941863D01*
X129415009Y-83959133D01*
X129397739Y-83974785D01*
X129379019Y-83988669D01*
X129359028Y-84000651D01*
X129337958Y-84010616D01*
X129316014Y-84018468D01*
X129293405Y-84024132D01*
X129270350Y-84027551D01*
X129247071Y-84028695D01*
X128772071Y-84028695D01*
X128748792Y-84027551D01*
X128725737Y-84024132D01*
X128703128Y-84018468D01*
X128681184Y-84010616D01*
X128660114Y-84000651D01*
X128640123Y-83988669D01*
X128621403Y-83974785D01*
X128604133Y-83959133D01*
X128588481Y-83941863D01*
X128574597Y-83923143D01*
X128562615Y-83903152D01*
X128552650Y-83882082D01*
X128544798Y-83860138D01*
X128539134Y-83837529D01*
X128535715Y-83814474D01*
X128534571Y-83791195D01*
X128534571Y-83216195D01*
X128535715Y-83192916D01*
X128539134Y-83169861D01*
X128544798Y-83147252D01*
X128552650Y-83125308D01*
X128562615Y-83104238D01*
X128574597Y-83084247D01*
X128588481Y-83065527D01*
X128604133Y-83048257D01*
X128621403Y-83032605D01*
X128640123Y-83018721D01*
X128660114Y-83006739D01*
X128681184Y-82996774D01*
X128703128Y-82988922D01*
X128725737Y-82983258D01*
X128748792Y-82979839D01*
X128772071Y-82978695D01*
X129247071Y-82978695D01*
X129270350Y-82979839D01*
X129270350Y-82979839D01*
G37*
D14*
X129009571Y-83503695D03*
G04 #@! TD*
D13*
G04 #@! TO.C,R12*
G36*
X119292405Y-80483310D02*
X119315460Y-80486729D01*
X119338069Y-80492393D01*
X119360013Y-80500245D01*
X119381083Y-80510210D01*
X119401074Y-80522192D01*
X119419794Y-80536076D01*
X119437064Y-80551728D01*
X119452716Y-80568998D01*
X119466600Y-80587718D01*
X119478582Y-80607709D01*
X119488547Y-80628779D01*
X119496399Y-80650723D01*
X119502063Y-80673332D01*
X119505482Y-80696387D01*
X119506626Y-80719666D01*
X119506626Y-81294666D01*
X119505482Y-81317945D01*
X119502063Y-81341000D01*
X119496399Y-81363609D01*
X119488547Y-81385553D01*
X119478582Y-81406623D01*
X119466600Y-81426614D01*
X119452716Y-81445334D01*
X119437064Y-81462604D01*
X119419794Y-81478256D01*
X119401074Y-81492140D01*
X119381083Y-81504122D01*
X119360013Y-81514087D01*
X119338069Y-81521939D01*
X119315460Y-81527603D01*
X119292405Y-81531022D01*
X119269126Y-81532166D01*
X118794126Y-81532166D01*
X118770847Y-81531022D01*
X118747792Y-81527603D01*
X118725183Y-81521939D01*
X118703239Y-81514087D01*
X118682169Y-81504122D01*
X118662178Y-81492140D01*
X118643458Y-81478256D01*
X118626188Y-81462604D01*
X118610536Y-81445334D01*
X118596652Y-81426614D01*
X118584670Y-81406623D01*
X118574705Y-81385553D01*
X118566853Y-81363609D01*
X118561189Y-81341000D01*
X118557770Y-81317945D01*
X118556626Y-81294666D01*
X118556626Y-80719666D01*
X118557770Y-80696387D01*
X118561189Y-80673332D01*
X118566853Y-80650723D01*
X118574705Y-80628779D01*
X118584670Y-80607709D01*
X118596652Y-80587718D01*
X118610536Y-80568998D01*
X118626188Y-80551728D01*
X118643458Y-80536076D01*
X118662178Y-80522192D01*
X118682169Y-80510210D01*
X118703239Y-80500245D01*
X118725183Y-80492393D01*
X118747792Y-80486729D01*
X118770847Y-80483310D01*
X118794126Y-80482166D01*
X119269126Y-80482166D01*
X119292405Y-80483310D01*
X119292405Y-80483310D01*
G37*
D14*
X119031626Y-81007166D03*
D13*
G36*
X119292405Y-78733310D02*
X119315460Y-78736729D01*
X119338069Y-78742393D01*
X119360013Y-78750245D01*
X119381083Y-78760210D01*
X119401074Y-78772192D01*
X119419794Y-78786076D01*
X119437064Y-78801728D01*
X119452716Y-78818998D01*
X119466600Y-78837718D01*
X119478582Y-78857709D01*
X119488547Y-78878779D01*
X119496399Y-78900723D01*
X119502063Y-78923332D01*
X119505482Y-78946387D01*
X119506626Y-78969666D01*
X119506626Y-79544666D01*
X119505482Y-79567945D01*
X119502063Y-79591000D01*
X119496399Y-79613609D01*
X119488547Y-79635553D01*
X119478582Y-79656623D01*
X119466600Y-79676614D01*
X119452716Y-79695334D01*
X119437064Y-79712604D01*
X119419794Y-79728256D01*
X119401074Y-79742140D01*
X119381083Y-79754122D01*
X119360013Y-79764087D01*
X119338069Y-79771939D01*
X119315460Y-79777603D01*
X119292405Y-79781022D01*
X119269126Y-79782166D01*
X118794126Y-79782166D01*
X118770847Y-79781022D01*
X118747792Y-79777603D01*
X118725183Y-79771939D01*
X118703239Y-79764087D01*
X118682169Y-79754122D01*
X118662178Y-79742140D01*
X118643458Y-79728256D01*
X118626188Y-79712604D01*
X118610536Y-79695334D01*
X118596652Y-79676614D01*
X118584670Y-79656623D01*
X118574705Y-79635553D01*
X118566853Y-79613609D01*
X118561189Y-79591000D01*
X118557770Y-79567945D01*
X118556626Y-79544666D01*
X118556626Y-78969666D01*
X118557770Y-78946387D01*
X118561189Y-78923332D01*
X118566853Y-78900723D01*
X118574705Y-78878779D01*
X118584670Y-78857709D01*
X118596652Y-78837718D01*
X118610536Y-78818998D01*
X118626188Y-78801728D01*
X118643458Y-78786076D01*
X118662178Y-78772192D01*
X118682169Y-78760210D01*
X118703239Y-78750245D01*
X118725183Y-78742393D01*
X118747792Y-78736729D01*
X118770847Y-78733310D01*
X118794126Y-78732166D01*
X119269126Y-78732166D01*
X119292405Y-78733310D01*
X119292405Y-78733310D01*
G37*
D14*
X119031626Y-79257166D03*
G04 #@! TD*
D13*
G04 #@! TO.C,R13*
G36*
X119640350Y-83249839D02*
X119663405Y-83253258D01*
X119686014Y-83258922D01*
X119707958Y-83266774D01*
X119729028Y-83276739D01*
X119749019Y-83288721D01*
X119767739Y-83302605D01*
X119785009Y-83318257D01*
X119800661Y-83335527D01*
X119814545Y-83354247D01*
X119826527Y-83374238D01*
X119836492Y-83395308D01*
X119844344Y-83417252D01*
X119850008Y-83439861D01*
X119853427Y-83462916D01*
X119854571Y-83486195D01*
X119854571Y-83961195D01*
X119853427Y-83984474D01*
X119850008Y-84007529D01*
X119844344Y-84030138D01*
X119836492Y-84052082D01*
X119826527Y-84073152D01*
X119814545Y-84093143D01*
X119800661Y-84111863D01*
X119785009Y-84129133D01*
X119767739Y-84144785D01*
X119749019Y-84158669D01*
X119729028Y-84170651D01*
X119707958Y-84180616D01*
X119686014Y-84188468D01*
X119663405Y-84194132D01*
X119640350Y-84197551D01*
X119617071Y-84198695D01*
X119042071Y-84198695D01*
X119018792Y-84197551D01*
X118995737Y-84194132D01*
X118973128Y-84188468D01*
X118951184Y-84180616D01*
X118930114Y-84170651D01*
X118910123Y-84158669D01*
X118891403Y-84144785D01*
X118874133Y-84129133D01*
X118858481Y-84111863D01*
X118844597Y-84093143D01*
X118832615Y-84073152D01*
X118822650Y-84052082D01*
X118814798Y-84030138D01*
X118809134Y-84007529D01*
X118805715Y-83984474D01*
X118804571Y-83961195D01*
X118804571Y-83486195D01*
X118805715Y-83462916D01*
X118809134Y-83439861D01*
X118814798Y-83417252D01*
X118822650Y-83395308D01*
X118832615Y-83374238D01*
X118844597Y-83354247D01*
X118858481Y-83335527D01*
X118874133Y-83318257D01*
X118891403Y-83302605D01*
X118910123Y-83288721D01*
X118930114Y-83276739D01*
X118951184Y-83266774D01*
X118973128Y-83258922D01*
X118995737Y-83253258D01*
X119018792Y-83249839D01*
X119042071Y-83248695D01*
X119617071Y-83248695D01*
X119640350Y-83249839D01*
X119640350Y-83249839D01*
G37*
D14*
X119329571Y-83723695D03*
D13*
G36*
X121390350Y-83249839D02*
X121413405Y-83253258D01*
X121436014Y-83258922D01*
X121457958Y-83266774D01*
X121479028Y-83276739D01*
X121499019Y-83288721D01*
X121517739Y-83302605D01*
X121535009Y-83318257D01*
X121550661Y-83335527D01*
X121564545Y-83354247D01*
X121576527Y-83374238D01*
X121586492Y-83395308D01*
X121594344Y-83417252D01*
X121600008Y-83439861D01*
X121603427Y-83462916D01*
X121604571Y-83486195D01*
X121604571Y-83961195D01*
X121603427Y-83984474D01*
X121600008Y-84007529D01*
X121594344Y-84030138D01*
X121586492Y-84052082D01*
X121576527Y-84073152D01*
X121564545Y-84093143D01*
X121550661Y-84111863D01*
X121535009Y-84129133D01*
X121517739Y-84144785D01*
X121499019Y-84158669D01*
X121479028Y-84170651D01*
X121457958Y-84180616D01*
X121436014Y-84188468D01*
X121413405Y-84194132D01*
X121390350Y-84197551D01*
X121367071Y-84198695D01*
X120792071Y-84198695D01*
X120768792Y-84197551D01*
X120745737Y-84194132D01*
X120723128Y-84188468D01*
X120701184Y-84180616D01*
X120680114Y-84170651D01*
X120660123Y-84158669D01*
X120641403Y-84144785D01*
X120624133Y-84129133D01*
X120608481Y-84111863D01*
X120594597Y-84093143D01*
X120582615Y-84073152D01*
X120572650Y-84052082D01*
X120564798Y-84030138D01*
X120559134Y-84007529D01*
X120555715Y-83984474D01*
X120554571Y-83961195D01*
X120554571Y-83486195D01*
X120555715Y-83462916D01*
X120559134Y-83439861D01*
X120564798Y-83417252D01*
X120572650Y-83395308D01*
X120582615Y-83374238D01*
X120594597Y-83354247D01*
X120608481Y-83335527D01*
X120624133Y-83318257D01*
X120641403Y-83302605D01*
X120660123Y-83288721D01*
X120680114Y-83276739D01*
X120701184Y-83266774D01*
X120723128Y-83258922D01*
X120745737Y-83253258D01*
X120768792Y-83249839D01*
X120792071Y-83248695D01*
X121367071Y-83248695D01*
X121390350Y-83249839D01*
X121390350Y-83249839D01*
G37*
D14*
X121079571Y-83723695D03*
G04 #@! TD*
D15*
G04 #@! TO.C,SW2*
X119520000Y-92580000D03*
X127320000Y-92580000D03*
G04 #@! TD*
M02*
