G04 #@! TF.GenerationSoftware,KiCad,Pcbnew,5.0.2-bee76a0~70~ubuntu18.04.1*
G04 #@! TF.CreationDate,2020-07-09T21:56:47-07:00*
G04 #@! TF.ProjectId,light_thing_hw,6c696768-745f-4746-9869-6e675f68772e,rev?*
G04 #@! TF.SameCoordinates,Original*
G04 #@! TF.FileFunction,Soldermask,Bot*
G04 #@! TF.FilePolarity,Negative*
%FSLAX46Y46*%
G04 Gerber Fmt 4.6, Leading zero omitted, Abs format (unit mm)*
G04 Created by KiCad (PCBNEW 5.0.2-bee76a0~70~ubuntu18.04.1) date Thu 09 Jul 2020 09:56:47 PM PDT*
%MOMM*%
%LPD*%
G01*
G04 APERTURE LIST*
%ADD10C,0.100000*%
G04 APERTURE END LIST*
D10*
G36*
X150596640Y-105749290D02*
X149799080Y-105749290D01*
X149799080Y-105050790D01*
X150596640Y-105050790D01*
X150596640Y-105749290D01*
X150596640Y-105749290D01*
G37*
G36*
X142798840Y-105749290D02*
X142001280Y-105749290D01*
X142001280Y-105050790D01*
X142798840Y-105050790D01*
X142798840Y-105749290D01*
X142798840Y-105749290D01*
G37*
G36*
X112914208Y-103603235D02*
X112939886Y-103611025D01*
X112963557Y-103623677D01*
X112984300Y-103640700D01*
X113001323Y-103661443D01*
X113013975Y-103685114D01*
X113021765Y-103710792D01*
X113025000Y-103743641D01*
X113025000Y-105056359D01*
X113021765Y-105089208D01*
X113013975Y-105114886D01*
X113001323Y-105138557D01*
X112984300Y-105159300D01*
X112963557Y-105176323D01*
X112939886Y-105188975D01*
X112914208Y-105196765D01*
X112881359Y-105200000D01*
X112368641Y-105200000D01*
X112335792Y-105196765D01*
X112310114Y-105188975D01*
X112286443Y-105176323D01*
X112265700Y-105159300D01*
X112248677Y-105138557D01*
X112236025Y-105114886D01*
X112228235Y-105089208D01*
X112225000Y-105056359D01*
X112225000Y-103743641D01*
X112228235Y-103710792D01*
X112236025Y-103685114D01*
X112248677Y-103661443D01*
X112265700Y-103640700D01*
X112286443Y-103623677D01*
X112310114Y-103611025D01*
X112335792Y-103603235D01*
X112368641Y-103600000D01*
X112881359Y-103600000D01*
X112914208Y-103603235D01*
X112914208Y-103603235D01*
G37*
G36*
X111664208Y-103603235D02*
X111689886Y-103611025D01*
X111713557Y-103623677D01*
X111734300Y-103640700D01*
X111751323Y-103661443D01*
X111763975Y-103685114D01*
X111771765Y-103710792D01*
X111775000Y-103743641D01*
X111775000Y-105056359D01*
X111771765Y-105089208D01*
X111763975Y-105114886D01*
X111751323Y-105138557D01*
X111734300Y-105159300D01*
X111713557Y-105176323D01*
X111689886Y-105188975D01*
X111664208Y-105196765D01*
X111631359Y-105200000D01*
X111118641Y-105200000D01*
X111085792Y-105196765D01*
X111060114Y-105188975D01*
X111036443Y-105176323D01*
X111015700Y-105159300D01*
X110998677Y-105138557D01*
X110986025Y-105114886D01*
X110978235Y-105089208D01*
X110975000Y-105056359D01*
X110975000Y-103743641D01*
X110978235Y-103710792D01*
X110986025Y-103685114D01*
X110998677Y-103661443D01*
X111015700Y-103640700D01*
X111036443Y-103623677D01*
X111060114Y-103611025D01*
X111085792Y-103603235D01*
X111118641Y-103600000D01*
X111631359Y-103600000D01*
X111664208Y-103603235D01*
X111664208Y-103603235D01*
G37*
G36*
X150596640Y-104649470D02*
X149799080Y-104649470D01*
X149799080Y-103950970D01*
X150596640Y-103950970D01*
X150596640Y-104649470D01*
X150596640Y-104649470D01*
G37*
G36*
X142798840Y-104649470D02*
X142001280Y-104649470D01*
X142001280Y-103950970D01*
X142798840Y-103950970D01*
X142798840Y-104649470D01*
X142798840Y-104649470D01*
G37*
G36*
X150596640Y-103549650D02*
X149799080Y-103549650D01*
X149799080Y-102851150D01*
X150596640Y-102851150D01*
X150596640Y-103549650D01*
X150596640Y-103549650D01*
G37*
G36*
X142798840Y-103549650D02*
X142001280Y-103549650D01*
X142001280Y-102851150D01*
X142798840Y-102851150D01*
X142798840Y-103549650D01*
X142798840Y-103549650D01*
G37*
G36*
X109750309Y-100003567D02*
X109779234Y-100012341D01*
X109805885Y-100026586D01*
X109829244Y-100045756D01*
X109848414Y-100069115D01*
X109862659Y-100095766D01*
X109871433Y-100124691D01*
X109875000Y-100160903D01*
X109875000Y-102839097D01*
X109871433Y-102875309D01*
X109862659Y-102904234D01*
X109848414Y-102930885D01*
X109829244Y-102954244D01*
X109805885Y-102973414D01*
X109779234Y-102987659D01*
X109750309Y-102996433D01*
X109714097Y-103000000D01*
X107935903Y-103000000D01*
X107899691Y-102996433D01*
X107870766Y-102987659D01*
X107844115Y-102973414D01*
X107820756Y-102954244D01*
X107801586Y-102930885D01*
X107787341Y-102904234D01*
X107778567Y-102875309D01*
X107775000Y-102839097D01*
X107775000Y-100160903D01*
X107778567Y-100124691D01*
X107787341Y-100095766D01*
X107801586Y-100069115D01*
X107820756Y-100045756D01*
X107844115Y-100026586D01*
X107870766Y-100012341D01*
X107899691Y-100003567D01*
X107935903Y-100000000D01*
X109714097Y-100000000D01*
X109750309Y-100003567D01*
X109750309Y-100003567D01*
G37*
G36*
X116100309Y-100003567D02*
X116129234Y-100012341D01*
X116155885Y-100026586D01*
X116179244Y-100045756D01*
X116198414Y-100069115D01*
X116212659Y-100095766D01*
X116221433Y-100124691D01*
X116225000Y-100160903D01*
X116225000Y-102839097D01*
X116221433Y-102875309D01*
X116212659Y-102904234D01*
X116198414Y-102930885D01*
X116179244Y-102954244D01*
X116155885Y-102973414D01*
X116129234Y-102987659D01*
X116100309Y-102996433D01*
X116064097Y-103000000D01*
X114285903Y-103000000D01*
X114249691Y-102996433D01*
X114220766Y-102987659D01*
X114194115Y-102973414D01*
X114170756Y-102954244D01*
X114151586Y-102930885D01*
X114137341Y-102904234D01*
X114128567Y-102875309D01*
X114125000Y-102839097D01*
X114125000Y-100160903D01*
X114128567Y-100124691D01*
X114137341Y-100095766D01*
X114151586Y-100069115D01*
X114170756Y-100045756D01*
X114194115Y-100026586D01*
X114220766Y-100012341D01*
X114249691Y-100003567D01*
X114285903Y-100000000D01*
X116064097Y-100000000D01*
X116100309Y-100003567D01*
X116100309Y-100003567D01*
G37*
G36*
X148286305Y-102112098D02*
X148340850Y-102134691D01*
X148389943Y-102167494D01*
X148431686Y-102209237D01*
X148464489Y-102258330D01*
X148487082Y-102312875D01*
X148498600Y-102370781D01*
X148498600Y-102429819D01*
X148487082Y-102487725D01*
X148464489Y-102542270D01*
X148431686Y-102591363D01*
X148389943Y-102633106D01*
X148340850Y-102665909D01*
X148286305Y-102688502D01*
X148228400Y-102700020D01*
X148169360Y-102700020D01*
X148111455Y-102688502D01*
X148056910Y-102665909D01*
X148007817Y-102633106D01*
X147966074Y-102591363D01*
X147933271Y-102542270D01*
X147910678Y-102487725D01*
X147899160Y-102429819D01*
X147899160Y-102370781D01*
X147910678Y-102312875D01*
X147933271Y-102258330D01*
X147966074Y-102209237D01*
X148007817Y-102167494D01*
X148056910Y-102134691D01*
X148111455Y-102112098D01*
X148169360Y-102100580D01*
X148228400Y-102100580D01*
X148286305Y-102112098D01*
X148286305Y-102112098D01*
G37*
G36*
X144687125Y-102112098D02*
X144741670Y-102134691D01*
X144790763Y-102167494D01*
X144832506Y-102209237D01*
X144865309Y-102258330D01*
X144887902Y-102312875D01*
X144899420Y-102370781D01*
X144899420Y-102429819D01*
X144887902Y-102487725D01*
X144865309Y-102542270D01*
X144832506Y-102591363D01*
X144790763Y-102633106D01*
X144741670Y-102665909D01*
X144687125Y-102688502D01*
X144629220Y-102700020D01*
X144570180Y-102700020D01*
X144512275Y-102688502D01*
X144457730Y-102665909D01*
X144408637Y-102633106D01*
X144366894Y-102591363D01*
X144334091Y-102542270D01*
X144311498Y-102487725D01*
X144299980Y-102429819D01*
X144299980Y-102370781D01*
X144311498Y-102312875D01*
X144334091Y-102258330D01*
X144366894Y-102209237D01*
X144408637Y-102167494D01*
X144457730Y-102134691D01*
X144512275Y-102112098D01*
X144570180Y-102100580D01*
X144629220Y-102100580D01*
X144687125Y-102112098D01*
X144687125Y-102112098D01*
G37*
G36*
X147087425Y-102112098D02*
X147141970Y-102134691D01*
X147191063Y-102167494D01*
X147232806Y-102209237D01*
X147265609Y-102258330D01*
X147288202Y-102312875D01*
X147299720Y-102370781D01*
X147299720Y-102429819D01*
X147288202Y-102487725D01*
X147265609Y-102542270D01*
X147232806Y-102591363D01*
X147191063Y-102633106D01*
X147141970Y-102665909D01*
X147087425Y-102688502D01*
X147029520Y-102700020D01*
X146970480Y-102700020D01*
X146912575Y-102688502D01*
X146858030Y-102665909D01*
X146808937Y-102633106D01*
X146767194Y-102591363D01*
X146734391Y-102542270D01*
X146711798Y-102487725D01*
X146700280Y-102429819D01*
X146700280Y-102370781D01*
X146711798Y-102312875D01*
X146734391Y-102258330D01*
X146767194Y-102209237D01*
X146808937Y-102167494D01*
X146858030Y-102134691D01*
X146912575Y-102112098D01*
X146970480Y-102100580D01*
X147029520Y-102100580D01*
X147087425Y-102112098D01*
X147087425Y-102112098D01*
G37*
G36*
X145886005Y-102112098D02*
X145940550Y-102134691D01*
X145989643Y-102167494D01*
X146031386Y-102209237D01*
X146064189Y-102258330D01*
X146086782Y-102312875D01*
X146098300Y-102370781D01*
X146098300Y-102429819D01*
X146086782Y-102487725D01*
X146064189Y-102542270D01*
X146031386Y-102591363D01*
X145989643Y-102633106D01*
X145940550Y-102665909D01*
X145886005Y-102688502D01*
X145828100Y-102700020D01*
X145769060Y-102700020D01*
X145711155Y-102688502D01*
X145656610Y-102665909D01*
X145607517Y-102633106D01*
X145565774Y-102591363D01*
X145532971Y-102542270D01*
X145510378Y-102487725D01*
X145498860Y-102429819D01*
X145498860Y-102370781D01*
X145510378Y-102312875D01*
X145532971Y-102258330D01*
X145565774Y-102209237D01*
X145607517Y-102167494D01*
X145656610Y-102134691D01*
X145711155Y-102112098D01*
X145769060Y-102100580D01*
X145828100Y-102100580D01*
X145886005Y-102112098D01*
X145886005Y-102112098D01*
G37*
G36*
X142798840Y-102449830D02*
X142001280Y-102449830D01*
X142001280Y-101751330D01*
X142798840Y-101751330D01*
X142798840Y-102449830D01*
X142798840Y-102449830D01*
G37*
G36*
X150596640Y-102449830D02*
X149799080Y-102449830D01*
X149799080Y-101751330D01*
X150596640Y-101751330D01*
X150596640Y-102449830D01*
X150596640Y-102449830D01*
G37*
G36*
X147087425Y-100910678D02*
X147141970Y-100933271D01*
X147191063Y-100966074D01*
X147232806Y-101007817D01*
X147265609Y-101056910D01*
X147288202Y-101111455D01*
X147299720Y-101169361D01*
X147299720Y-101228399D01*
X147288202Y-101286305D01*
X147265609Y-101340850D01*
X147232806Y-101389943D01*
X147191063Y-101431686D01*
X147141970Y-101464489D01*
X147087425Y-101487082D01*
X147029520Y-101498600D01*
X146970480Y-101498600D01*
X146912575Y-101487082D01*
X146858030Y-101464489D01*
X146808937Y-101431686D01*
X146767194Y-101389943D01*
X146734391Y-101340850D01*
X146711798Y-101286305D01*
X146700280Y-101228399D01*
X146700280Y-101169361D01*
X146711798Y-101111455D01*
X146734391Y-101056910D01*
X146767194Y-101007817D01*
X146808937Y-100966074D01*
X146858030Y-100933271D01*
X146912575Y-100910678D01*
X146970480Y-100899160D01*
X147029520Y-100899160D01*
X147087425Y-100910678D01*
X147087425Y-100910678D01*
G37*
G36*
X145886005Y-100910678D02*
X145940550Y-100933271D01*
X145989643Y-100966074D01*
X146031386Y-101007817D01*
X146064189Y-101056910D01*
X146086782Y-101111455D01*
X146098300Y-101169361D01*
X146098300Y-101228399D01*
X146086782Y-101286305D01*
X146064189Y-101340850D01*
X146031386Y-101389943D01*
X145989643Y-101431686D01*
X145940550Y-101464489D01*
X145886005Y-101487082D01*
X145828100Y-101498600D01*
X145769060Y-101498600D01*
X145711155Y-101487082D01*
X145656610Y-101464489D01*
X145607517Y-101431686D01*
X145565774Y-101389943D01*
X145532971Y-101340850D01*
X145510378Y-101286305D01*
X145498860Y-101228399D01*
X145498860Y-101169361D01*
X145510378Y-101111455D01*
X145532971Y-101056910D01*
X145565774Y-101007817D01*
X145607517Y-100966074D01*
X145656610Y-100933271D01*
X145711155Y-100910678D01*
X145769060Y-100899160D01*
X145828100Y-100899160D01*
X145886005Y-100910678D01*
X145886005Y-100910678D01*
G37*
G36*
X144687125Y-100910678D02*
X144741670Y-100933271D01*
X144790763Y-100966074D01*
X144832506Y-101007817D01*
X144865309Y-101056910D01*
X144887902Y-101111455D01*
X144899420Y-101169361D01*
X144899420Y-101228399D01*
X144887902Y-101286305D01*
X144865309Y-101340850D01*
X144832506Y-101389943D01*
X144790763Y-101431686D01*
X144741670Y-101464489D01*
X144687125Y-101487082D01*
X144629220Y-101498600D01*
X144570180Y-101498600D01*
X144512275Y-101487082D01*
X144457730Y-101464489D01*
X144408637Y-101431686D01*
X144366894Y-101389943D01*
X144334091Y-101340850D01*
X144311498Y-101286305D01*
X144299980Y-101228399D01*
X144299980Y-101169361D01*
X144311498Y-101111455D01*
X144334091Y-101056910D01*
X144366894Y-101007817D01*
X144408637Y-100966074D01*
X144457730Y-100933271D01*
X144512275Y-100910678D01*
X144570180Y-100899160D01*
X144629220Y-100899160D01*
X144687125Y-100910678D01*
X144687125Y-100910678D01*
G37*
G36*
X148286305Y-100910678D02*
X148340850Y-100933271D01*
X148389943Y-100966074D01*
X148431686Y-101007817D01*
X148464489Y-101056910D01*
X148487082Y-101111455D01*
X148498600Y-101169361D01*
X148498600Y-101228399D01*
X148487082Y-101286305D01*
X148464489Y-101340850D01*
X148431686Y-101389943D01*
X148389943Y-101431686D01*
X148340850Y-101464489D01*
X148286305Y-101487082D01*
X148228400Y-101498600D01*
X148169360Y-101498600D01*
X148111455Y-101487082D01*
X148056910Y-101464489D01*
X148007817Y-101431686D01*
X147966074Y-101389943D01*
X147933271Y-101340850D01*
X147910678Y-101286305D01*
X147899160Y-101228399D01*
X147899160Y-101169361D01*
X147910678Y-101111455D01*
X147933271Y-101056910D01*
X147966074Y-101007817D01*
X148007817Y-100966074D01*
X148056910Y-100933271D01*
X148111455Y-100910678D01*
X148169360Y-100899160D01*
X148228400Y-100899160D01*
X148286305Y-100910678D01*
X148286305Y-100910678D01*
G37*
G36*
X142798840Y-101350010D02*
X142001280Y-101350010D01*
X142001280Y-100651510D01*
X142798840Y-100651510D01*
X142798840Y-101350010D01*
X142798840Y-101350010D01*
G37*
G36*
X150596640Y-101350010D02*
X149799080Y-101350010D01*
X149799080Y-100651510D01*
X150596640Y-100651510D01*
X150596640Y-101350010D01*
X150596640Y-101350010D01*
G37*
G36*
X145886005Y-99711798D02*
X145940550Y-99734391D01*
X145989643Y-99767194D01*
X146031386Y-99808937D01*
X146064189Y-99858030D01*
X146086782Y-99912575D01*
X146098300Y-99970481D01*
X146098300Y-100029519D01*
X146086782Y-100087425D01*
X146064189Y-100141970D01*
X146031386Y-100191063D01*
X145989643Y-100232806D01*
X145940550Y-100265609D01*
X145886005Y-100288202D01*
X145828100Y-100299720D01*
X145769060Y-100299720D01*
X145711155Y-100288202D01*
X145656610Y-100265609D01*
X145607517Y-100232806D01*
X145565774Y-100191063D01*
X145532971Y-100141970D01*
X145510378Y-100087425D01*
X145498860Y-100029519D01*
X145498860Y-99970481D01*
X145510378Y-99912575D01*
X145532971Y-99858030D01*
X145565774Y-99808937D01*
X145607517Y-99767194D01*
X145656610Y-99734391D01*
X145711155Y-99711798D01*
X145769060Y-99700280D01*
X145828100Y-99700280D01*
X145886005Y-99711798D01*
X145886005Y-99711798D01*
G37*
G36*
X147087425Y-99711798D02*
X147141970Y-99734391D01*
X147191063Y-99767194D01*
X147232806Y-99808937D01*
X147265609Y-99858030D01*
X147288202Y-99912575D01*
X147299720Y-99970481D01*
X147299720Y-100029519D01*
X147288202Y-100087425D01*
X147265609Y-100141970D01*
X147232806Y-100191063D01*
X147191063Y-100232806D01*
X147141970Y-100265609D01*
X147087425Y-100288202D01*
X147029520Y-100299720D01*
X146970480Y-100299720D01*
X146912575Y-100288202D01*
X146858030Y-100265609D01*
X146808937Y-100232806D01*
X146767194Y-100191063D01*
X146734391Y-100141970D01*
X146711798Y-100087425D01*
X146700280Y-100029519D01*
X146700280Y-99970481D01*
X146711798Y-99912575D01*
X146734391Y-99858030D01*
X146767194Y-99808937D01*
X146808937Y-99767194D01*
X146858030Y-99734391D01*
X146912575Y-99711798D01*
X146970480Y-99700280D01*
X147029520Y-99700280D01*
X147087425Y-99711798D01*
X147087425Y-99711798D01*
G37*
G36*
X148286305Y-99711798D02*
X148340850Y-99734391D01*
X148389943Y-99767194D01*
X148431686Y-99808937D01*
X148464489Y-99858030D01*
X148487082Y-99912575D01*
X148498600Y-99970481D01*
X148498600Y-100029519D01*
X148487082Y-100087425D01*
X148464489Y-100141970D01*
X148431686Y-100191063D01*
X148389943Y-100232806D01*
X148340850Y-100265609D01*
X148286305Y-100288202D01*
X148228400Y-100299720D01*
X148169360Y-100299720D01*
X148111455Y-100288202D01*
X148056910Y-100265609D01*
X148007817Y-100232806D01*
X147966074Y-100191063D01*
X147933271Y-100141970D01*
X147910678Y-100087425D01*
X147899160Y-100029519D01*
X147899160Y-99970481D01*
X147910678Y-99912575D01*
X147933271Y-99858030D01*
X147966074Y-99808937D01*
X148007817Y-99767194D01*
X148056910Y-99734391D01*
X148111455Y-99711798D01*
X148169360Y-99700280D01*
X148228400Y-99700280D01*
X148286305Y-99711798D01*
X148286305Y-99711798D01*
G37*
G36*
X144687125Y-99711798D02*
X144741670Y-99734391D01*
X144790763Y-99767194D01*
X144832506Y-99808937D01*
X144865309Y-99858030D01*
X144887902Y-99912575D01*
X144899420Y-99970481D01*
X144899420Y-100029519D01*
X144887902Y-100087425D01*
X144865309Y-100141970D01*
X144832506Y-100191063D01*
X144790763Y-100232806D01*
X144741670Y-100265609D01*
X144687125Y-100288202D01*
X144629220Y-100299720D01*
X144570180Y-100299720D01*
X144512275Y-100288202D01*
X144457730Y-100265609D01*
X144408637Y-100232806D01*
X144366894Y-100191063D01*
X144334091Y-100141970D01*
X144311498Y-100087425D01*
X144299980Y-100029519D01*
X144299980Y-99970481D01*
X144311498Y-99912575D01*
X144334091Y-99858030D01*
X144366894Y-99808937D01*
X144408637Y-99767194D01*
X144457730Y-99734391D01*
X144512275Y-99711798D01*
X144570180Y-99700280D01*
X144629220Y-99700280D01*
X144687125Y-99711798D01*
X144687125Y-99711798D01*
G37*
G36*
X142798840Y-100250190D02*
X142001280Y-100250190D01*
X142001280Y-99551690D01*
X142798840Y-99551690D01*
X142798840Y-100250190D01*
X142798840Y-100250190D01*
G37*
G36*
X150596640Y-100250190D02*
X149799080Y-100250190D01*
X149799080Y-99551690D01*
X150596640Y-99551690D01*
X150596640Y-100250190D01*
X150596640Y-100250190D01*
G37*
G36*
X142798840Y-99150370D02*
X142001280Y-99150370D01*
X142001280Y-98451870D01*
X142798840Y-98451870D01*
X142798840Y-99150370D01*
X142798840Y-99150370D01*
G37*
G36*
X150596640Y-99150370D02*
X149799080Y-99150370D01*
X149799080Y-98451870D01*
X150596640Y-98451870D01*
X150596640Y-99150370D01*
X150596640Y-99150370D01*
G37*
G36*
X145886005Y-98510378D02*
X145940550Y-98532971D01*
X145989643Y-98565774D01*
X146031386Y-98607517D01*
X146064189Y-98656610D01*
X146086782Y-98711155D01*
X146098300Y-98769061D01*
X146098300Y-98828099D01*
X146086782Y-98886005D01*
X146064189Y-98940550D01*
X146031386Y-98989643D01*
X145989643Y-99031386D01*
X145940550Y-99064189D01*
X145886005Y-99086782D01*
X145828100Y-99098300D01*
X145769060Y-99098300D01*
X145711155Y-99086782D01*
X145656610Y-99064189D01*
X145607517Y-99031386D01*
X145565774Y-98989643D01*
X145532971Y-98940550D01*
X145510378Y-98886005D01*
X145498860Y-98828099D01*
X145498860Y-98769061D01*
X145510378Y-98711155D01*
X145532971Y-98656610D01*
X145565774Y-98607517D01*
X145607517Y-98565774D01*
X145656610Y-98532971D01*
X145711155Y-98510378D01*
X145769060Y-98498860D01*
X145828100Y-98498860D01*
X145886005Y-98510378D01*
X145886005Y-98510378D01*
G37*
G36*
X148286305Y-98510378D02*
X148340850Y-98532971D01*
X148389943Y-98565774D01*
X148431686Y-98607517D01*
X148464489Y-98656610D01*
X148487082Y-98711155D01*
X148498600Y-98769061D01*
X148498600Y-98828099D01*
X148487082Y-98886005D01*
X148464489Y-98940550D01*
X148431686Y-98989643D01*
X148389943Y-99031386D01*
X148340850Y-99064189D01*
X148286305Y-99086782D01*
X148228400Y-99098300D01*
X148169360Y-99098300D01*
X148111455Y-99086782D01*
X148056910Y-99064189D01*
X148007817Y-99031386D01*
X147966074Y-98989643D01*
X147933271Y-98940550D01*
X147910678Y-98886005D01*
X147899160Y-98828099D01*
X147899160Y-98769061D01*
X147910678Y-98711155D01*
X147933271Y-98656610D01*
X147966074Y-98607517D01*
X148007817Y-98565774D01*
X148056910Y-98532971D01*
X148111455Y-98510378D01*
X148169360Y-98498860D01*
X148228400Y-98498860D01*
X148286305Y-98510378D01*
X148286305Y-98510378D01*
G37*
G36*
X147087425Y-98510378D02*
X147141970Y-98532971D01*
X147191063Y-98565774D01*
X147232806Y-98607517D01*
X147265609Y-98656610D01*
X147288202Y-98711155D01*
X147299720Y-98769061D01*
X147299720Y-98828099D01*
X147288202Y-98886005D01*
X147265609Y-98940550D01*
X147232806Y-98989643D01*
X147191063Y-99031386D01*
X147141970Y-99064189D01*
X147087425Y-99086782D01*
X147029520Y-99098300D01*
X146970480Y-99098300D01*
X146912575Y-99086782D01*
X146858030Y-99064189D01*
X146808937Y-99031386D01*
X146767194Y-98989643D01*
X146734391Y-98940550D01*
X146711798Y-98886005D01*
X146700280Y-98828099D01*
X146700280Y-98769061D01*
X146711798Y-98711155D01*
X146734391Y-98656610D01*
X146767194Y-98607517D01*
X146808937Y-98565774D01*
X146858030Y-98532971D01*
X146912575Y-98510378D01*
X146970480Y-98498860D01*
X147029520Y-98498860D01*
X147087425Y-98510378D01*
X147087425Y-98510378D01*
G37*
G36*
X144687125Y-98510378D02*
X144741670Y-98532971D01*
X144790763Y-98565774D01*
X144832506Y-98607517D01*
X144865309Y-98656610D01*
X144887902Y-98711155D01*
X144899420Y-98769061D01*
X144899420Y-98828099D01*
X144887902Y-98886005D01*
X144865309Y-98940550D01*
X144832506Y-98989643D01*
X144790763Y-99031386D01*
X144741670Y-99064189D01*
X144687125Y-99086782D01*
X144629220Y-99098300D01*
X144570180Y-99098300D01*
X144512275Y-99086782D01*
X144457730Y-99064189D01*
X144408637Y-99031386D01*
X144366894Y-98989643D01*
X144334091Y-98940550D01*
X144311498Y-98886005D01*
X144299980Y-98828099D01*
X144299980Y-98769061D01*
X144311498Y-98711155D01*
X144334091Y-98656610D01*
X144366894Y-98607517D01*
X144408637Y-98565774D01*
X144457730Y-98532971D01*
X144512275Y-98510378D01*
X144570180Y-98498860D01*
X144629220Y-98498860D01*
X144687125Y-98510378D01*
X144687125Y-98510378D01*
G37*
G36*
X150596640Y-98050550D02*
X149799080Y-98050550D01*
X149799080Y-97352050D01*
X150596640Y-97352050D01*
X150596640Y-98050550D01*
X150596640Y-98050550D01*
G37*
G36*
X142798840Y-98050550D02*
X142001280Y-98050550D01*
X142001280Y-97352050D01*
X142798840Y-97352050D01*
X142798840Y-98050550D01*
X142798840Y-98050550D01*
G37*
G36*
X110779024Y-96968955D02*
X110811736Y-96978879D01*
X110841890Y-96994997D01*
X110868316Y-97016684D01*
X110890003Y-97043110D01*
X110906121Y-97073264D01*
X110916045Y-97105976D01*
X110920000Y-97146138D01*
X110920000Y-97733862D01*
X110916045Y-97774024D01*
X110906121Y-97806736D01*
X110890003Y-97836890D01*
X110868316Y-97863316D01*
X110841890Y-97885003D01*
X110811736Y-97901121D01*
X110779024Y-97911045D01*
X110738862Y-97915000D01*
X110051138Y-97915000D01*
X110010976Y-97911045D01*
X109978264Y-97901121D01*
X109948110Y-97885003D01*
X109921684Y-97863316D01*
X109899997Y-97836890D01*
X109883879Y-97806736D01*
X109873955Y-97774024D01*
X109870000Y-97733862D01*
X109870000Y-97146138D01*
X109873955Y-97105976D01*
X109883879Y-97073264D01*
X109899997Y-97043110D01*
X109921684Y-97016684D01*
X109948110Y-96994997D01*
X109978264Y-96978879D01*
X110010976Y-96968955D01*
X110051138Y-96965000D01*
X110738862Y-96965000D01*
X110779024Y-96968955D01*
X110779024Y-96968955D01*
G37*
G36*
X109029024Y-96968955D02*
X109061736Y-96978879D01*
X109091890Y-96994997D01*
X109118316Y-97016684D01*
X109140003Y-97043110D01*
X109156121Y-97073264D01*
X109166045Y-97105976D01*
X109170000Y-97146138D01*
X109170000Y-97733862D01*
X109166045Y-97774024D01*
X109156121Y-97806736D01*
X109140003Y-97836890D01*
X109118316Y-97863316D01*
X109091890Y-97885003D01*
X109061736Y-97901121D01*
X109029024Y-97911045D01*
X108988862Y-97915000D01*
X108301138Y-97915000D01*
X108260976Y-97911045D01*
X108228264Y-97901121D01*
X108198110Y-97885003D01*
X108171684Y-97863316D01*
X108149997Y-97836890D01*
X108133879Y-97806736D01*
X108123955Y-97774024D01*
X108120000Y-97733862D01*
X108120000Y-97146138D01*
X108123955Y-97105976D01*
X108133879Y-97073264D01*
X108149997Y-97043110D01*
X108171684Y-97016684D01*
X108198110Y-96994997D01*
X108228264Y-96978879D01*
X108260976Y-96968955D01*
X108301138Y-96965000D01*
X108988862Y-96965000D01*
X109029024Y-96968955D01*
X109029024Y-96968955D01*
G37*
G36*
X148286305Y-97311498D02*
X148340850Y-97334091D01*
X148389943Y-97366894D01*
X148431686Y-97408637D01*
X148464489Y-97457730D01*
X148487082Y-97512275D01*
X148498600Y-97570180D01*
X148498600Y-97629220D01*
X148487082Y-97687125D01*
X148464489Y-97741670D01*
X148431686Y-97790763D01*
X148389943Y-97832506D01*
X148340850Y-97865309D01*
X148317516Y-97874974D01*
X148286305Y-97887902D01*
X148228400Y-97899420D01*
X148169360Y-97899420D01*
X148111455Y-97887902D01*
X148080244Y-97874974D01*
X148056910Y-97865309D01*
X148007817Y-97832506D01*
X147966074Y-97790763D01*
X147933271Y-97741670D01*
X147910678Y-97687125D01*
X147899160Y-97629220D01*
X147899160Y-97570180D01*
X147910678Y-97512275D01*
X147933271Y-97457730D01*
X147966074Y-97408637D01*
X148007817Y-97366894D01*
X148056910Y-97334091D01*
X148111455Y-97311498D01*
X148169360Y-97299980D01*
X148228400Y-97299980D01*
X148286305Y-97311498D01*
X148286305Y-97311498D01*
G37*
G36*
X147087425Y-97311498D02*
X147141970Y-97334091D01*
X147191063Y-97366894D01*
X147232806Y-97408637D01*
X147265609Y-97457730D01*
X147288202Y-97512275D01*
X147299720Y-97570180D01*
X147299720Y-97629220D01*
X147288202Y-97687125D01*
X147265609Y-97741670D01*
X147232806Y-97790763D01*
X147191063Y-97832506D01*
X147141970Y-97865309D01*
X147118636Y-97874974D01*
X147087425Y-97887902D01*
X147029520Y-97899420D01*
X146970480Y-97899420D01*
X146912575Y-97887902D01*
X146881364Y-97874974D01*
X146858030Y-97865309D01*
X146808937Y-97832506D01*
X146767194Y-97790763D01*
X146734391Y-97741670D01*
X146711798Y-97687125D01*
X146700280Y-97629220D01*
X146700280Y-97570180D01*
X146711798Y-97512275D01*
X146734391Y-97457730D01*
X146767194Y-97408637D01*
X146808937Y-97366894D01*
X146858030Y-97334091D01*
X146912575Y-97311498D01*
X146970480Y-97299980D01*
X147029520Y-97299980D01*
X147087425Y-97311498D01*
X147087425Y-97311498D01*
G37*
G36*
X145886005Y-97311498D02*
X145940550Y-97334091D01*
X145989643Y-97366894D01*
X146031386Y-97408637D01*
X146064189Y-97457730D01*
X146086782Y-97512275D01*
X146098300Y-97570180D01*
X146098300Y-97629220D01*
X146086782Y-97687125D01*
X146064189Y-97741670D01*
X146031386Y-97790763D01*
X145989643Y-97832506D01*
X145940550Y-97865309D01*
X145917216Y-97874974D01*
X145886005Y-97887902D01*
X145828100Y-97899420D01*
X145769060Y-97899420D01*
X145711155Y-97887902D01*
X145679944Y-97874974D01*
X145656610Y-97865309D01*
X145607517Y-97832506D01*
X145565774Y-97790763D01*
X145532971Y-97741670D01*
X145510378Y-97687125D01*
X145498860Y-97629220D01*
X145498860Y-97570180D01*
X145510378Y-97512275D01*
X145532971Y-97457730D01*
X145565774Y-97408637D01*
X145607517Y-97366894D01*
X145656610Y-97334091D01*
X145711155Y-97311498D01*
X145769060Y-97299980D01*
X145828100Y-97299980D01*
X145886005Y-97311498D01*
X145886005Y-97311498D01*
G37*
G36*
X144687125Y-97311498D02*
X144741670Y-97334091D01*
X144790763Y-97366894D01*
X144832506Y-97408637D01*
X144865309Y-97457730D01*
X144887902Y-97512275D01*
X144899420Y-97570180D01*
X144899420Y-97629220D01*
X144887902Y-97687125D01*
X144865309Y-97741670D01*
X144832506Y-97790763D01*
X144790763Y-97832506D01*
X144741670Y-97865309D01*
X144718336Y-97874974D01*
X144687125Y-97887902D01*
X144629220Y-97899420D01*
X144570180Y-97899420D01*
X144512275Y-97887902D01*
X144481064Y-97874974D01*
X144457730Y-97865309D01*
X144408637Y-97832506D01*
X144366894Y-97790763D01*
X144334091Y-97741670D01*
X144311498Y-97687125D01*
X144299980Y-97629220D01*
X144299980Y-97570180D01*
X144311498Y-97512275D01*
X144334091Y-97457730D01*
X144366894Y-97408637D01*
X144408637Y-97366894D01*
X144457730Y-97334091D01*
X144512275Y-97311498D01*
X144570180Y-97299980D01*
X144629220Y-97299980D01*
X144687125Y-97311498D01*
X144687125Y-97311498D01*
G37*
G36*
X112294024Y-95223955D02*
X112326736Y-95233879D01*
X112356890Y-95249997D01*
X112383316Y-95271684D01*
X112405003Y-95298110D01*
X112421121Y-95328264D01*
X112431045Y-95360976D01*
X112435000Y-95401138D01*
X112435000Y-96088862D01*
X112431045Y-96129024D01*
X112421121Y-96161736D01*
X112405003Y-96191890D01*
X112383316Y-96218316D01*
X112356890Y-96240003D01*
X112326736Y-96256121D01*
X112294024Y-96266045D01*
X112253862Y-96270000D01*
X111666138Y-96270000D01*
X111625976Y-96266045D01*
X111593264Y-96256121D01*
X111563110Y-96240003D01*
X111536684Y-96218316D01*
X111514997Y-96191890D01*
X111498879Y-96161736D01*
X111488955Y-96129024D01*
X111485000Y-96088862D01*
X111485000Y-95401138D01*
X111488955Y-95360976D01*
X111498879Y-95328264D01*
X111514997Y-95298110D01*
X111536684Y-95271684D01*
X111563110Y-95249997D01*
X111593264Y-95233879D01*
X111625976Y-95223955D01*
X111666138Y-95220000D01*
X112253862Y-95220000D01*
X112294024Y-95223955D01*
X112294024Y-95223955D01*
G37*
G36*
X127745428Y-94420110D02*
X127778140Y-94430034D01*
X127808294Y-94446152D01*
X127834720Y-94467839D01*
X127856407Y-94494265D01*
X127872525Y-94524419D01*
X127882449Y-94557131D01*
X127886404Y-94597293D01*
X127886404Y-95285017D01*
X127882449Y-95325179D01*
X127872525Y-95357891D01*
X127856407Y-95388045D01*
X127834720Y-95414471D01*
X127808294Y-95436158D01*
X127778140Y-95452276D01*
X127745428Y-95462200D01*
X127705266Y-95466155D01*
X127117542Y-95466155D01*
X127077380Y-95462200D01*
X127044668Y-95452276D01*
X127014514Y-95436158D01*
X126988088Y-95414471D01*
X126966401Y-95388045D01*
X126950283Y-95357891D01*
X126940359Y-95325179D01*
X126936404Y-95285017D01*
X126936404Y-94597293D01*
X126940359Y-94557131D01*
X126950283Y-94524419D01*
X126966401Y-94494265D01*
X126988088Y-94467839D01*
X127014514Y-94446152D01*
X127044668Y-94430034D01*
X127077380Y-94420110D01*
X127117542Y-94416155D01*
X127705266Y-94416155D01*
X127745428Y-94420110D01*
X127745428Y-94420110D01*
G37*
G36*
X119795428Y-93720110D02*
X119828140Y-93730034D01*
X119858294Y-93746152D01*
X119884720Y-93767839D01*
X119906407Y-93794265D01*
X119922525Y-93824419D01*
X119932449Y-93857131D01*
X119936404Y-93897293D01*
X119936404Y-94485017D01*
X119932449Y-94525179D01*
X119922525Y-94557891D01*
X119906407Y-94588045D01*
X119884720Y-94614471D01*
X119858294Y-94636158D01*
X119828140Y-94652276D01*
X119795428Y-94662200D01*
X119755266Y-94666155D01*
X119067542Y-94666155D01*
X119027380Y-94662200D01*
X118994668Y-94652276D01*
X118964514Y-94636158D01*
X118938088Y-94614471D01*
X118916401Y-94588045D01*
X118900283Y-94557891D01*
X118890359Y-94525179D01*
X118886404Y-94485017D01*
X118886404Y-93897293D01*
X118890359Y-93857131D01*
X118900283Y-93824419D01*
X118916401Y-93794265D01*
X118938088Y-93767839D01*
X118964514Y-93746152D01*
X118994668Y-93730034D01*
X119027380Y-93720110D01*
X119067542Y-93716155D01*
X119755266Y-93716155D01*
X119795428Y-93720110D01*
X119795428Y-93720110D01*
G37*
G36*
X118045428Y-93720110D02*
X118078140Y-93730034D01*
X118108294Y-93746152D01*
X118134720Y-93767839D01*
X118156407Y-93794265D01*
X118172525Y-93824419D01*
X118182449Y-93857131D01*
X118186404Y-93897293D01*
X118186404Y-94485017D01*
X118182449Y-94525179D01*
X118172525Y-94557891D01*
X118156407Y-94588045D01*
X118134720Y-94614471D01*
X118108294Y-94636158D01*
X118078140Y-94652276D01*
X118045428Y-94662200D01*
X118005266Y-94666155D01*
X117317542Y-94666155D01*
X117277380Y-94662200D01*
X117244668Y-94652276D01*
X117214514Y-94636158D01*
X117188088Y-94614471D01*
X117166401Y-94588045D01*
X117150283Y-94557891D01*
X117140359Y-94525179D01*
X117136404Y-94485017D01*
X117136404Y-93897293D01*
X117140359Y-93857131D01*
X117150283Y-93824419D01*
X117166401Y-93794265D01*
X117188088Y-93767839D01*
X117214514Y-93746152D01*
X117244668Y-93730034D01*
X117277380Y-93720110D01*
X117317542Y-93716155D01*
X118005266Y-93716155D01*
X118045428Y-93720110D01*
X118045428Y-93720110D01*
G37*
G36*
X112294024Y-93473955D02*
X112326736Y-93483879D01*
X112356890Y-93499997D01*
X112383316Y-93521684D01*
X112405003Y-93548110D01*
X112421121Y-93578264D01*
X112431045Y-93610976D01*
X112435000Y-93651138D01*
X112435000Y-94338862D01*
X112431045Y-94379023D01*
X112421121Y-94411736D01*
X112405003Y-94441890D01*
X112383316Y-94468316D01*
X112356890Y-94490003D01*
X112326736Y-94506121D01*
X112294024Y-94516045D01*
X112253862Y-94520000D01*
X111666138Y-94520000D01*
X111625976Y-94516045D01*
X111593264Y-94506121D01*
X111563110Y-94490003D01*
X111536684Y-94468316D01*
X111514997Y-94441890D01*
X111498879Y-94411736D01*
X111488955Y-94379023D01*
X111485000Y-94338862D01*
X111485000Y-93651138D01*
X111488955Y-93610976D01*
X111498879Y-93578264D01*
X111514997Y-93548110D01*
X111536684Y-93521684D01*
X111563110Y-93499997D01*
X111593264Y-93483879D01*
X111625976Y-93473955D01*
X111666138Y-93470000D01*
X112253862Y-93470000D01*
X112294024Y-93473955D01*
X112294024Y-93473955D01*
G37*
G36*
X122103304Y-94334155D02*
X120604704Y-94334155D01*
X120604704Y-92048155D01*
X122103304Y-92048155D01*
X122103304Y-94334155D01*
X122103304Y-94334155D01*
G37*
G36*
X126218104Y-94334155D02*
X124719504Y-94334155D01*
X124719504Y-92048155D01*
X126218104Y-92048155D01*
X126218104Y-94334155D01*
X126218104Y-94334155D01*
G37*
G36*
X127745428Y-92670110D02*
X127778140Y-92680034D01*
X127808294Y-92696152D01*
X127834720Y-92717839D01*
X127856407Y-92744265D01*
X127872525Y-92774419D01*
X127882449Y-92807131D01*
X127886404Y-92847293D01*
X127886404Y-93535017D01*
X127882449Y-93575179D01*
X127872525Y-93607891D01*
X127856407Y-93638045D01*
X127834720Y-93664471D01*
X127808294Y-93686158D01*
X127778140Y-93702276D01*
X127745428Y-93712200D01*
X127705266Y-93716155D01*
X127117542Y-93716155D01*
X127077380Y-93712200D01*
X127044668Y-93702276D01*
X127014514Y-93686158D01*
X126988088Y-93664471D01*
X126966401Y-93638045D01*
X126950283Y-93607891D01*
X126940359Y-93575179D01*
X126936404Y-93535017D01*
X126936404Y-92847293D01*
X126940359Y-92807131D01*
X126950283Y-92774419D01*
X126966401Y-92744265D01*
X126988088Y-92717839D01*
X127014514Y-92696152D01*
X127044668Y-92680034D01*
X127077380Y-92670110D01*
X127117542Y-92666155D01*
X127705266Y-92666155D01*
X127745428Y-92670110D01*
X127745428Y-92670110D01*
G37*
G36*
X131874024Y-92038955D02*
X131906736Y-92048879D01*
X131936890Y-92064997D01*
X131963316Y-92086684D01*
X131985003Y-92113110D01*
X132001121Y-92143264D01*
X132011045Y-92175976D01*
X132015000Y-92216138D01*
X132015000Y-92903862D01*
X132011045Y-92944024D01*
X132001121Y-92976736D01*
X131985003Y-93006890D01*
X131963316Y-93033316D01*
X131936890Y-93055003D01*
X131906736Y-93071121D01*
X131874024Y-93081045D01*
X131833862Y-93085000D01*
X131246138Y-93085000D01*
X131205976Y-93081045D01*
X131173264Y-93071121D01*
X131143110Y-93055003D01*
X131116684Y-93033316D01*
X131094997Y-93006890D01*
X131078879Y-92976736D01*
X131068955Y-92944024D01*
X131065000Y-92903862D01*
X131065000Y-92216138D01*
X131068955Y-92175976D01*
X131078879Y-92143264D01*
X131094997Y-92113110D01*
X131116684Y-92086684D01*
X131143110Y-92064997D01*
X131173264Y-92048879D01*
X131205976Y-92038955D01*
X131246138Y-92035000D01*
X131833862Y-92035000D01*
X131874024Y-92038955D01*
X131874024Y-92038955D01*
G37*
G36*
X119795428Y-91720110D02*
X119828140Y-91730034D01*
X119858294Y-91746152D01*
X119884720Y-91767839D01*
X119906407Y-91794265D01*
X119922525Y-91824419D01*
X119932449Y-91857131D01*
X119936404Y-91897293D01*
X119936404Y-92485017D01*
X119932449Y-92525179D01*
X119922525Y-92557891D01*
X119906407Y-92588045D01*
X119884720Y-92614471D01*
X119858294Y-92636158D01*
X119828140Y-92652276D01*
X119795428Y-92662200D01*
X119755266Y-92666155D01*
X119067542Y-92666155D01*
X119027380Y-92662200D01*
X118994668Y-92652276D01*
X118964514Y-92636158D01*
X118938088Y-92614471D01*
X118916401Y-92588045D01*
X118900283Y-92557891D01*
X118890359Y-92525179D01*
X118886404Y-92485017D01*
X118886404Y-91897293D01*
X118890359Y-91857131D01*
X118900283Y-91824419D01*
X118916401Y-91794265D01*
X118938088Y-91767839D01*
X118964514Y-91746152D01*
X118994668Y-91730034D01*
X119027380Y-91720110D01*
X119067542Y-91716155D01*
X119755266Y-91716155D01*
X119795428Y-91720110D01*
X119795428Y-91720110D01*
G37*
G36*
X118045428Y-91720110D02*
X118078140Y-91730034D01*
X118108294Y-91746152D01*
X118134720Y-91767839D01*
X118156407Y-91794265D01*
X118172525Y-91824419D01*
X118182449Y-91857131D01*
X118186404Y-91897293D01*
X118186404Y-92485017D01*
X118182449Y-92525179D01*
X118172525Y-92557891D01*
X118156407Y-92588045D01*
X118134720Y-92614471D01*
X118108294Y-92636158D01*
X118078140Y-92652276D01*
X118045428Y-92662200D01*
X118005266Y-92666155D01*
X117317542Y-92666155D01*
X117277380Y-92662200D01*
X117244668Y-92652276D01*
X117214514Y-92636158D01*
X117188088Y-92614471D01*
X117166401Y-92588045D01*
X117150283Y-92557891D01*
X117140359Y-92525179D01*
X117136404Y-92485017D01*
X117136404Y-91897293D01*
X117140359Y-91857131D01*
X117150283Y-91824419D01*
X117166401Y-91794265D01*
X117188088Y-91767839D01*
X117214514Y-91746152D01*
X117244668Y-91730034D01*
X117277380Y-91720110D01*
X117317542Y-91716155D01*
X118005266Y-91716155D01*
X118045428Y-91720110D01*
X118045428Y-91720110D01*
G37*
G36*
X134376100Y-92401700D02*
X132915600Y-92401700D01*
X132915600Y-91868300D01*
X134376100Y-91868300D01*
X134376100Y-92401700D01*
X134376100Y-92401700D01*
G37*
G36*
X139824400Y-92401700D02*
X138363900Y-92401700D01*
X138363900Y-91868300D01*
X139824400Y-91868300D01*
X139824400Y-92401700D01*
X139824400Y-92401700D01*
G37*
G36*
X147554024Y-91238955D02*
X147586736Y-91248879D01*
X147616890Y-91264997D01*
X147643316Y-91286684D01*
X147665003Y-91313110D01*
X147681121Y-91343264D01*
X147691045Y-91375976D01*
X147695000Y-91416138D01*
X147695000Y-92103862D01*
X147691045Y-92144024D01*
X147681121Y-92176736D01*
X147665003Y-92206890D01*
X147643316Y-92233316D01*
X147616890Y-92255003D01*
X147586736Y-92271121D01*
X147554024Y-92281045D01*
X147513862Y-92285000D01*
X146926138Y-92285000D01*
X146885976Y-92281045D01*
X146853264Y-92271121D01*
X146823110Y-92255003D01*
X146796684Y-92233316D01*
X146774997Y-92206890D01*
X146758879Y-92176736D01*
X146748955Y-92144024D01*
X146745000Y-92103862D01*
X146745000Y-91416138D01*
X146748955Y-91375976D01*
X146758879Y-91343264D01*
X146774997Y-91313110D01*
X146796684Y-91286684D01*
X146823110Y-91264997D01*
X146853264Y-91248879D01*
X146885976Y-91238955D01*
X146926138Y-91235000D01*
X147513862Y-91235000D01*
X147554024Y-91238955D01*
X147554024Y-91238955D01*
G37*
G36*
X145754024Y-91228955D02*
X145786736Y-91238879D01*
X145816890Y-91254997D01*
X145843316Y-91276684D01*
X145865003Y-91303110D01*
X145881121Y-91333264D01*
X145891045Y-91365976D01*
X145895000Y-91406138D01*
X145895000Y-92093862D01*
X145891045Y-92134024D01*
X145881121Y-92166736D01*
X145865003Y-92196890D01*
X145843316Y-92223316D01*
X145816890Y-92245003D01*
X145786736Y-92261121D01*
X145754024Y-92271045D01*
X145713862Y-92275000D01*
X145126138Y-92275000D01*
X145085976Y-92271045D01*
X145053264Y-92261121D01*
X145023110Y-92245003D01*
X144996684Y-92223316D01*
X144974997Y-92196890D01*
X144958879Y-92166736D01*
X144948955Y-92134024D01*
X144945000Y-92093862D01*
X144945000Y-91406138D01*
X144948955Y-91365976D01*
X144958879Y-91333264D01*
X144974997Y-91303110D01*
X144996684Y-91276684D01*
X145023110Y-91254997D01*
X145053264Y-91238879D01*
X145085976Y-91228955D01*
X145126138Y-91225000D01*
X145713862Y-91225000D01*
X145754024Y-91228955D01*
X145754024Y-91228955D01*
G37*
G36*
X137576500Y-91779400D02*
X135163500Y-91779400D01*
X135163500Y-88680600D01*
X137576500Y-88680600D01*
X137576500Y-91779400D01*
X137576500Y-91779400D01*
G37*
G36*
X112350000Y-91450000D02*
X111550000Y-91450000D01*
X111550000Y-90550000D01*
X112350000Y-90550000D01*
X112350000Y-91450000D01*
X112350000Y-91450000D01*
G37*
G36*
X110450000Y-91450000D02*
X109650000Y-91450000D01*
X109650000Y-90550000D01*
X110450000Y-90550000D01*
X110450000Y-91450000D01*
X110450000Y-91450000D01*
G37*
G36*
X131874024Y-90288955D02*
X131906736Y-90298879D01*
X131936890Y-90314997D01*
X131963316Y-90336684D01*
X131985003Y-90363110D01*
X132001121Y-90393264D01*
X132011045Y-90425976D01*
X132015000Y-90466138D01*
X132015000Y-91153862D01*
X132011045Y-91194024D01*
X132001121Y-91226736D01*
X131985003Y-91256890D01*
X131963316Y-91283316D01*
X131936890Y-91305003D01*
X131906736Y-91321121D01*
X131874024Y-91331045D01*
X131833862Y-91335000D01*
X131246138Y-91335000D01*
X131205976Y-91331045D01*
X131173264Y-91321121D01*
X131143110Y-91305003D01*
X131116684Y-91283316D01*
X131094997Y-91256890D01*
X131078879Y-91226736D01*
X131068955Y-91194024D01*
X131065000Y-91153862D01*
X131065000Y-90466138D01*
X131068955Y-90425976D01*
X131078879Y-90393264D01*
X131094997Y-90363110D01*
X131116684Y-90336684D01*
X131143110Y-90314997D01*
X131173264Y-90298879D01*
X131205976Y-90288955D01*
X131246138Y-90285000D01*
X131833862Y-90285000D01*
X131874024Y-90288955D01*
X131874024Y-90288955D01*
G37*
G36*
X139824400Y-91131700D02*
X138363900Y-91131700D01*
X138363900Y-90598300D01*
X139824400Y-90598300D01*
X139824400Y-91131700D01*
X139824400Y-91131700D01*
G37*
G36*
X134376100Y-91131700D02*
X132915600Y-91131700D01*
X132915600Y-90598300D01*
X134376100Y-90598300D01*
X134376100Y-91131700D01*
X134376100Y-91131700D01*
G37*
G36*
X124670428Y-89720110D02*
X124703140Y-89730034D01*
X124733294Y-89746152D01*
X124759720Y-89767839D01*
X124781407Y-89794265D01*
X124797525Y-89824419D01*
X124807449Y-89857131D01*
X124811404Y-89897293D01*
X124811404Y-90485017D01*
X124807449Y-90525179D01*
X124797525Y-90557891D01*
X124781407Y-90588045D01*
X124759720Y-90614471D01*
X124733294Y-90636158D01*
X124703140Y-90652276D01*
X124670428Y-90662200D01*
X124630266Y-90666155D01*
X123942542Y-90666155D01*
X123902380Y-90662200D01*
X123869668Y-90652276D01*
X123839514Y-90636158D01*
X123813088Y-90614471D01*
X123791401Y-90588045D01*
X123775283Y-90557891D01*
X123765359Y-90525179D01*
X123761404Y-90485017D01*
X123761404Y-89897293D01*
X123765359Y-89857131D01*
X123775283Y-89824419D01*
X123791401Y-89794265D01*
X123813088Y-89767839D01*
X123839514Y-89746152D01*
X123869668Y-89730034D01*
X123902380Y-89720110D01*
X123942542Y-89716155D01*
X124630266Y-89716155D01*
X124670428Y-89720110D01*
X124670428Y-89720110D01*
G37*
G36*
X122920428Y-89720110D02*
X122953140Y-89730034D01*
X122983294Y-89746152D01*
X123009720Y-89767839D01*
X123031407Y-89794265D01*
X123047525Y-89824419D01*
X123057449Y-89857131D01*
X123061404Y-89897293D01*
X123061404Y-90485017D01*
X123057449Y-90525179D01*
X123047525Y-90557891D01*
X123031407Y-90588045D01*
X123009720Y-90614471D01*
X122983294Y-90636158D01*
X122953140Y-90652276D01*
X122920428Y-90662200D01*
X122880266Y-90666155D01*
X122192542Y-90666155D01*
X122152380Y-90662200D01*
X122119668Y-90652276D01*
X122089514Y-90636158D01*
X122063088Y-90614471D01*
X122041401Y-90588045D01*
X122025283Y-90557891D01*
X122015359Y-90525179D01*
X122011404Y-90485017D01*
X122011404Y-89897293D01*
X122015359Y-89857131D01*
X122025283Y-89824419D01*
X122041401Y-89794265D01*
X122063088Y-89767839D01*
X122089514Y-89746152D01*
X122119668Y-89730034D01*
X122152380Y-89720110D01*
X122192542Y-89716155D01*
X122880266Y-89716155D01*
X122920428Y-89720110D01*
X122920428Y-89720110D01*
G37*
G36*
X147554024Y-89488955D02*
X147586736Y-89498879D01*
X147616890Y-89514997D01*
X147643316Y-89536684D01*
X147665003Y-89563110D01*
X147681121Y-89593264D01*
X147691045Y-89625976D01*
X147695000Y-89666138D01*
X147695000Y-90353862D01*
X147691045Y-90394024D01*
X147681121Y-90426736D01*
X147665003Y-90456890D01*
X147643316Y-90483316D01*
X147616890Y-90505003D01*
X147586736Y-90521121D01*
X147554024Y-90531045D01*
X147513862Y-90535000D01*
X146926138Y-90535000D01*
X146885976Y-90531045D01*
X146853264Y-90521121D01*
X146823110Y-90505003D01*
X146796684Y-90483316D01*
X146774997Y-90456890D01*
X146758879Y-90426736D01*
X146748955Y-90394024D01*
X146745000Y-90353862D01*
X146745000Y-89666138D01*
X146748955Y-89625976D01*
X146758879Y-89593264D01*
X146774997Y-89563110D01*
X146796684Y-89536684D01*
X146823110Y-89514997D01*
X146853264Y-89498879D01*
X146885976Y-89488955D01*
X146926138Y-89485000D01*
X147513862Y-89485000D01*
X147554024Y-89488955D01*
X147554024Y-89488955D01*
G37*
G36*
X145754024Y-89478955D02*
X145786736Y-89488879D01*
X145816890Y-89504997D01*
X145843316Y-89526684D01*
X145865003Y-89553110D01*
X145881121Y-89583264D01*
X145891045Y-89615976D01*
X145895000Y-89656138D01*
X145895000Y-90343862D01*
X145891045Y-90384024D01*
X145881121Y-90416736D01*
X145865003Y-90446890D01*
X145843316Y-90473316D01*
X145816890Y-90495003D01*
X145786736Y-90511121D01*
X145754024Y-90521045D01*
X145713862Y-90525000D01*
X145126138Y-90525000D01*
X145085976Y-90521045D01*
X145053264Y-90511121D01*
X145023110Y-90495003D01*
X144996684Y-90473316D01*
X144974997Y-90446890D01*
X144958879Y-90416736D01*
X144948955Y-90384024D01*
X144945000Y-90343862D01*
X144945000Y-89656138D01*
X144948955Y-89615976D01*
X144958879Y-89583264D01*
X144974997Y-89553110D01*
X144996684Y-89526684D01*
X145023110Y-89504997D01*
X145053264Y-89488879D01*
X145085976Y-89478955D01*
X145126138Y-89475000D01*
X145713862Y-89475000D01*
X145754024Y-89478955D01*
X145754024Y-89478955D01*
G37*
G36*
X141874024Y-89478955D02*
X141906736Y-89488879D01*
X141936890Y-89504997D01*
X141963316Y-89526684D01*
X141985003Y-89553110D01*
X142001121Y-89583264D01*
X142011045Y-89615976D01*
X142015000Y-89656138D01*
X142015000Y-90243862D01*
X142011045Y-90284024D01*
X142001121Y-90316736D01*
X141985003Y-90346890D01*
X141963316Y-90373316D01*
X141936890Y-90395003D01*
X141906736Y-90411121D01*
X141874024Y-90421045D01*
X141833862Y-90425000D01*
X141146138Y-90425000D01*
X141105976Y-90421045D01*
X141073264Y-90411121D01*
X141043110Y-90395003D01*
X141016684Y-90373316D01*
X140994997Y-90346890D01*
X140978879Y-90316736D01*
X140968955Y-90284024D01*
X140965000Y-90243862D01*
X140965000Y-89656138D01*
X140968955Y-89615976D01*
X140978879Y-89583264D01*
X140994997Y-89553110D01*
X141016684Y-89526684D01*
X141043110Y-89504997D01*
X141073264Y-89488879D01*
X141105976Y-89478955D01*
X141146138Y-89475000D01*
X141833862Y-89475000D01*
X141874024Y-89478955D01*
X141874024Y-89478955D01*
G37*
G36*
X143624024Y-89478955D02*
X143656736Y-89488879D01*
X143686890Y-89504997D01*
X143713316Y-89526684D01*
X143735003Y-89553110D01*
X143751121Y-89583264D01*
X143761045Y-89615976D01*
X143765000Y-89656138D01*
X143765000Y-90243862D01*
X143761045Y-90284024D01*
X143751121Y-90316736D01*
X143735003Y-90346890D01*
X143713316Y-90373316D01*
X143686890Y-90395003D01*
X143656736Y-90411121D01*
X143624024Y-90421045D01*
X143583862Y-90425000D01*
X142896138Y-90425000D01*
X142855976Y-90421045D01*
X142823264Y-90411121D01*
X142793110Y-90395003D01*
X142766684Y-90373316D01*
X142744997Y-90346890D01*
X142728879Y-90316736D01*
X142718955Y-90284024D01*
X142715000Y-90243862D01*
X142715000Y-89656138D01*
X142718955Y-89615976D01*
X142728879Y-89583264D01*
X142744997Y-89553110D01*
X142766684Y-89526684D01*
X142793110Y-89504997D01*
X142823264Y-89488879D01*
X142855976Y-89478955D01*
X142896138Y-89475000D01*
X143583862Y-89475000D01*
X143624024Y-89478955D01*
X143624024Y-89478955D01*
G37*
G36*
X139824400Y-89861700D02*
X138363900Y-89861700D01*
X138363900Y-89328300D01*
X139824400Y-89328300D01*
X139824400Y-89861700D01*
X139824400Y-89861700D01*
G37*
G36*
X134376100Y-89861700D02*
X132915600Y-89861700D01*
X132915600Y-89328300D01*
X134376100Y-89328300D01*
X134376100Y-89861700D01*
X134376100Y-89861700D01*
G37*
G36*
X111400000Y-89450000D02*
X110600000Y-89450000D01*
X110600000Y-88550000D01*
X111400000Y-88550000D01*
X111400000Y-89450000D01*
X111400000Y-89450000D01*
G37*
G36*
X141879024Y-87758955D02*
X141911736Y-87768879D01*
X141941890Y-87784997D01*
X141968316Y-87806684D01*
X141990003Y-87833110D01*
X142006121Y-87863264D01*
X142016045Y-87895976D01*
X142020000Y-87936138D01*
X142020000Y-88523862D01*
X142016045Y-88564024D01*
X142006121Y-88596736D01*
X141990003Y-88626890D01*
X141968316Y-88653316D01*
X141941890Y-88675003D01*
X141911736Y-88691121D01*
X141879024Y-88701045D01*
X141838862Y-88705000D01*
X141151138Y-88705000D01*
X141110976Y-88701045D01*
X141078264Y-88691121D01*
X141048110Y-88675003D01*
X141021684Y-88653316D01*
X140999997Y-88626890D01*
X140983879Y-88596736D01*
X140973955Y-88564024D01*
X140970000Y-88523862D01*
X140970000Y-87936138D01*
X140973955Y-87895976D01*
X140983879Y-87863264D01*
X140999997Y-87833110D01*
X141021684Y-87806684D01*
X141048110Y-87784997D01*
X141078264Y-87768879D01*
X141110976Y-87758955D01*
X141151138Y-87755000D01*
X141838862Y-87755000D01*
X141879024Y-87758955D01*
X141879024Y-87758955D01*
G37*
G36*
X143629024Y-87758955D02*
X143661736Y-87768879D01*
X143691890Y-87784997D01*
X143718316Y-87806684D01*
X143740003Y-87833110D01*
X143756121Y-87863264D01*
X143766045Y-87895976D01*
X143770000Y-87936138D01*
X143770000Y-88523862D01*
X143766045Y-88564024D01*
X143756121Y-88596736D01*
X143740003Y-88626890D01*
X143718316Y-88653316D01*
X143691890Y-88675003D01*
X143661736Y-88691121D01*
X143629024Y-88701045D01*
X143588862Y-88705000D01*
X142901138Y-88705000D01*
X142860976Y-88701045D01*
X142828264Y-88691121D01*
X142798110Y-88675003D01*
X142771684Y-88653316D01*
X142749997Y-88626890D01*
X142733879Y-88596736D01*
X142723955Y-88564024D01*
X142720000Y-88523862D01*
X142720000Y-87936138D01*
X142723955Y-87895976D01*
X142733879Y-87863264D01*
X142749997Y-87833110D01*
X142771684Y-87806684D01*
X142798110Y-87784997D01*
X142828264Y-87768879D01*
X142860976Y-87758955D01*
X142901138Y-87755000D01*
X143588862Y-87755000D01*
X143629024Y-87758955D01*
X143629024Y-87758955D01*
G37*
G36*
X139824400Y-88591700D02*
X138363900Y-88591700D01*
X138363900Y-88058300D01*
X139824400Y-88058300D01*
X139824400Y-88591700D01*
X139824400Y-88591700D01*
G37*
G36*
X134376100Y-88591700D02*
X132915600Y-88591700D01*
X132915600Y-88058300D01*
X134376100Y-88058300D01*
X134376100Y-88591700D01*
X134376100Y-88591700D01*
G37*
G36*
X115204024Y-85528955D02*
X115236736Y-85538879D01*
X115266890Y-85554997D01*
X115293316Y-85576684D01*
X115315003Y-85603110D01*
X115331121Y-85633264D01*
X115341045Y-85665976D01*
X115345000Y-85706138D01*
X115345000Y-86293862D01*
X115341045Y-86334024D01*
X115331121Y-86366736D01*
X115315003Y-86396890D01*
X115293316Y-86423316D01*
X115266890Y-86445003D01*
X115236736Y-86461121D01*
X115204024Y-86471045D01*
X115163862Y-86475000D01*
X114476138Y-86475000D01*
X114435976Y-86471045D01*
X114403264Y-86461121D01*
X114373110Y-86445003D01*
X114346684Y-86423316D01*
X114324997Y-86396890D01*
X114308879Y-86366736D01*
X114298955Y-86334024D01*
X114295000Y-86293862D01*
X114295000Y-85706138D01*
X114298955Y-85665976D01*
X114308879Y-85633264D01*
X114324997Y-85603110D01*
X114346684Y-85576684D01*
X114373110Y-85554997D01*
X114403264Y-85538879D01*
X114435976Y-85528955D01*
X114476138Y-85525000D01*
X115163862Y-85525000D01*
X115204024Y-85528955D01*
X115204024Y-85528955D01*
G37*
G36*
X113454024Y-85528955D02*
X113486736Y-85538879D01*
X113516890Y-85554997D01*
X113543316Y-85576684D01*
X113565003Y-85603110D01*
X113581121Y-85633264D01*
X113591045Y-85665976D01*
X113595000Y-85706138D01*
X113595000Y-86293862D01*
X113591045Y-86334024D01*
X113581121Y-86366736D01*
X113565003Y-86396890D01*
X113543316Y-86423316D01*
X113516890Y-86445003D01*
X113486736Y-86461121D01*
X113454024Y-86471045D01*
X113413862Y-86475000D01*
X112726138Y-86475000D01*
X112685976Y-86471045D01*
X112653264Y-86461121D01*
X112623110Y-86445003D01*
X112596684Y-86423316D01*
X112574997Y-86396890D01*
X112558879Y-86366736D01*
X112548955Y-86334024D01*
X112545000Y-86293862D01*
X112545000Y-85706138D01*
X112548955Y-85665976D01*
X112558879Y-85633264D01*
X112574997Y-85603110D01*
X112596684Y-85576684D01*
X112623110Y-85554997D01*
X112653264Y-85538879D01*
X112685976Y-85528955D01*
X112726138Y-85525000D01*
X113413862Y-85525000D01*
X113454024Y-85528955D01*
X113454024Y-85528955D01*
G37*
G36*
X109540000Y-86360000D02*
X107840000Y-86360000D01*
X107840000Y-85460000D01*
X109540000Y-85460000D01*
X109540000Y-86360000D01*
X109540000Y-86360000D01*
G37*
G36*
X115204024Y-83668955D02*
X115236736Y-83678879D01*
X115266890Y-83694997D01*
X115293316Y-83716684D01*
X115315003Y-83743110D01*
X115331121Y-83773264D01*
X115341045Y-83805976D01*
X115345000Y-83846138D01*
X115345000Y-84433862D01*
X115341045Y-84474024D01*
X115331121Y-84506736D01*
X115315003Y-84536890D01*
X115293316Y-84563316D01*
X115266890Y-84585003D01*
X115236736Y-84601121D01*
X115204024Y-84611045D01*
X115163862Y-84615000D01*
X114476138Y-84615000D01*
X114435976Y-84611045D01*
X114403264Y-84601121D01*
X114373110Y-84585003D01*
X114346684Y-84563316D01*
X114324997Y-84536890D01*
X114308879Y-84506736D01*
X114298955Y-84474024D01*
X114295000Y-84433862D01*
X114295000Y-83846138D01*
X114298955Y-83805976D01*
X114308879Y-83773264D01*
X114324997Y-83743110D01*
X114346684Y-83716684D01*
X114373110Y-83694997D01*
X114403264Y-83678879D01*
X114435976Y-83668955D01*
X114476138Y-83665000D01*
X115163862Y-83665000D01*
X115204024Y-83668955D01*
X115204024Y-83668955D01*
G37*
G36*
X113454024Y-83668955D02*
X113486736Y-83678879D01*
X113516890Y-83694997D01*
X113543316Y-83716684D01*
X113565003Y-83743110D01*
X113581121Y-83773264D01*
X113591045Y-83805976D01*
X113595000Y-83846138D01*
X113595000Y-84433862D01*
X113591045Y-84474024D01*
X113581121Y-84506736D01*
X113565003Y-84536890D01*
X113543316Y-84563316D01*
X113516890Y-84585003D01*
X113486736Y-84601121D01*
X113454024Y-84611045D01*
X113413862Y-84615000D01*
X112726138Y-84615000D01*
X112685976Y-84611045D01*
X112653264Y-84601121D01*
X112623110Y-84585003D01*
X112596684Y-84563316D01*
X112574997Y-84536890D01*
X112558879Y-84506736D01*
X112548955Y-84474024D01*
X112545000Y-84433862D01*
X112545000Y-83846138D01*
X112548955Y-83805976D01*
X112558879Y-83773264D01*
X112574997Y-83743110D01*
X112596684Y-83716684D01*
X112623110Y-83694997D01*
X112653264Y-83678879D01*
X112685976Y-83668955D01*
X112726138Y-83665000D01*
X113413862Y-83665000D01*
X113454024Y-83668955D01*
X113454024Y-83668955D01*
G37*
G36*
X144189000Y-79183357D02*
X144191402Y-79207743D01*
X144198515Y-79231192D01*
X144210066Y-79252803D01*
X144225612Y-79271745D01*
X144244554Y-79287291D01*
X144266165Y-79298842D01*
X144289614Y-79305955D01*
X144314000Y-79308357D01*
X144338386Y-79305955D01*
X144361835Y-79298842D01*
X144383446Y-79287291D01*
X144410624Y-79262659D01*
X144462026Y-79200026D01*
X144526740Y-79146916D01*
X144526742Y-79146915D01*
X144526743Y-79146914D01*
X144600573Y-79107451D01*
X144680684Y-79083149D01*
X144743122Y-79077000D01*
X144784878Y-79077000D01*
X144847316Y-79083149D01*
X144927427Y-79107451D01*
X145001257Y-79146914D01*
X145001258Y-79146915D01*
X145001260Y-79146916D01*
X145065974Y-79200026D01*
X145117375Y-79262657D01*
X145119086Y-79264743D01*
X145158549Y-79338573D01*
X145182851Y-79418684D01*
X145191056Y-79502000D01*
X145182851Y-79585316D01*
X145158549Y-79665427D01*
X145119086Y-79739257D01*
X145119084Y-79739260D01*
X145065974Y-79803974D01*
X145001260Y-79857084D01*
X144936383Y-79891761D01*
X144916011Y-79905373D01*
X144898684Y-79922700D01*
X144885070Y-79943075D01*
X144875693Y-79965714D01*
X144870912Y-79989747D01*
X144870912Y-80014251D01*
X144875692Y-80038285D01*
X144885069Y-80060924D01*
X144898683Y-80081299D01*
X144916010Y-80098626D01*
X144936383Y-80112239D01*
X144953608Y-80121446D01*
X145001260Y-80146916D01*
X145065974Y-80200026D01*
X145119086Y-80264743D01*
X145158549Y-80338573D01*
X145182851Y-80418684D01*
X145191056Y-80502000D01*
X145182851Y-80585316D01*
X145158549Y-80665427D01*
X145119086Y-80739257D01*
X145119084Y-80739260D01*
X145065974Y-80803974D01*
X145001260Y-80857084D01*
X144936383Y-80891761D01*
X144916011Y-80905373D01*
X144898684Y-80922700D01*
X144885070Y-80943075D01*
X144875693Y-80965714D01*
X144870912Y-80989747D01*
X144870912Y-81014251D01*
X144875692Y-81038285D01*
X144885069Y-81060924D01*
X144898683Y-81081299D01*
X144916010Y-81098626D01*
X144936383Y-81112239D01*
X145001260Y-81146916D01*
X145065974Y-81200026D01*
X145119086Y-81264743D01*
X145158549Y-81338573D01*
X145182851Y-81418684D01*
X145191056Y-81502000D01*
X145182851Y-81585316D01*
X145158549Y-81665427D01*
X145119086Y-81739257D01*
X145119084Y-81739260D01*
X145065974Y-81803974D01*
X145001260Y-81857084D01*
X144936383Y-81891761D01*
X144916011Y-81905373D01*
X144898684Y-81922700D01*
X144885070Y-81943075D01*
X144875693Y-81965714D01*
X144870912Y-81989747D01*
X144870912Y-82014251D01*
X144875692Y-82038285D01*
X144885069Y-82060924D01*
X144898683Y-82081299D01*
X144916010Y-82098626D01*
X144936383Y-82112239D01*
X145001260Y-82146916D01*
X145065974Y-82200026D01*
X145119086Y-82264743D01*
X145158549Y-82338573D01*
X145182851Y-82418684D01*
X145191056Y-82502000D01*
X145182851Y-82585316D01*
X145158549Y-82665427D01*
X145140364Y-82699448D01*
X145119084Y-82739260D01*
X145065974Y-82803974D01*
X145001260Y-82857084D01*
X144936383Y-82891761D01*
X144916011Y-82905373D01*
X144898684Y-82922700D01*
X144885070Y-82943075D01*
X144875693Y-82965714D01*
X144870912Y-82989747D01*
X144870912Y-83014251D01*
X144875692Y-83038285D01*
X144885069Y-83060924D01*
X144898683Y-83081299D01*
X144916010Y-83098626D01*
X144936383Y-83112239D01*
X145001260Y-83146916D01*
X145065974Y-83200026D01*
X145119086Y-83264743D01*
X145158549Y-83338573D01*
X145182851Y-83418684D01*
X145191056Y-83502000D01*
X145182851Y-83585316D01*
X145158549Y-83665427D01*
X145119086Y-83739257D01*
X145119084Y-83739260D01*
X145065974Y-83803974D01*
X145001260Y-83857084D01*
X145001258Y-83857085D01*
X145001257Y-83857086D01*
X144927427Y-83896549D01*
X144847316Y-83920851D01*
X144784878Y-83927000D01*
X144743122Y-83927000D01*
X144680684Y-83920851D01*
X144600573Y-83896549D01*
X144526743Y-83857086D01*
X144526742Y-83857085D01*
X144526740Y-83857084D01*
X144462026Y-83803974D01*
X144408916Y-83739260D01*
X144374239Y-83674383D01*
X144360627Y-83654011D01*
X144343300Y-83636684D01*
X144322925Y-83623070D01*
X144300286Y-83613693D01*
X144276253Y-83608912D01*
X144251749Y-83608912D01*
X144227715Y-83613692D01*
X144205076Y-83623069D01*
X144184701Y-83636683D01*
X144167374Y-83654010D01*
X144153761Y-83674383D01*
X144119084Y-83739260D01*
X144065974Y-83803974D01*
X144001260Y-83857084D01*
X144001258Y-83857085D01*
X144001257Y-83857086D01*
X143927427Y-83896549D01*
X143847316Y-83920851D01*
X143784878Y-83927000D01*
X143743122Y-83927000D01*
X143680684Y-83920851D01*
X143600573Y-83896549D01*
X143526743Y-83857086D01*
X143526742Y-83857085D01*
X143526740Y-83857084D01*
X143462026Y-83803974D01*
X143408916Y-83739260D01*
X143408914Y-83739257D01*
X143369451Y-83665427D01*
X143345149Y-83585316D01*
X143336944Y-83502000D01*
X143345149Y-83418684D01*
X143369451Y-83338573D01*
X143408914Y-83264743D01*
X143462026Y-83200026D01*
X143526740Y-83146916D01*
X143591617Y-83112239D01*
X143611989Y-83098627D01*
X143629316Y-83081300D01*
X143642930Y-83060925D01*
X143652307Y-83038286D01*
X143657088Y-83014253D01*
X143657088Y-82989749D01*
X143657088Y-82989747D01*
X143870912Y-82989747D01*
X143870912Y-83014251D01*
X143875692Y-83038285D01*
X143885069Y-83060924D01*
X143898683Y-83081299D01*
X143916010Y-83098626D01*
X143936383Y-83112239D01*
X144001260Y-83146916D01*
X144065974Y-83200026D01*
X144119084Y-83264740D01*
X144153759Y-83329614D01*
X144167373Y-83349989D01*
X144184700Y-83367316D01*
X144205075Y-83380930D01*
X144227714Y-83390307D01*
X144251747Y-83395088D01*
X144276251Y-83395088D01*
X144300285Y-83390308D01*
X144322924Y-83380931D01*
X144343299Y-83367317D01*
X144360626Y-83349990D01*
X144374241Y-83329614D01*
X144408916Y-83264740D01*
X144462026Y-83200026D01*
X144526740Y-83146916D01*
X144591617Y-83112239D01*
X144611989Y-83098627D01*
X144629316Y-83081300D01*
X144642930Y-83060925D01*
X144652307Y-83038286D01*
X144657088Y-83014253D01*
X144657088Y-82989749D01*
X144652308Y-82965715D01*
X144642931Y-82943076D01*
X144629317Y-82922701D01*
X144611990Y-82905374D01*
X144591617Y-82891761D01*
X144526740Y-82857084D01*
X144462026Y-82803974D01*
X144408916Y-82739260D01*
X144374239Y-82674383D01*
X144360627Y-82654011D01*
X144343300Y-82636684D01*
X144322925Y-82623070D01*
X144300286Y-82613693D01*
X144276253Y-82608912D01*
X144251749Y-82608912D01*
X144227715Y-82613692D01*
X144205076Y-82623069D01*
X144184701Y-82636683D01*
X144167374Y-82654010D01*
X144153761Y-82674383D01*
X144119084Y-82739260D01*
X144065974Y-82803974D01*
X144001260Y-82857084D01*
X143936383Y-82891761D01*
X143916011Y-82905373D01*
X143898684Y-82922700D01*
X143885070Y-82943075D01*
X143875693Y-82965714D01*
X143870912Y-82989747D01*
X143657088Y-82989747D01*
X143652308Y-82965715D01*
X143642931Y-82943076D01*
X143629317Y-82922701D01*
X143611990Y-82905374D01*
X143591617Y-82891761D01*
X143526740Y-82857084D01*
X143462026Y-82803974D01*
X143408916Y-82739260D01*
X143387636Y-82699448D01*
X143369451Y-82665427D01*
X143345149Y-82585316D01*
X143336944Y-82502000D01*
X143345149Y-82418684D01*
X143369451Y-82338573D01*
X143408914Y-82264743D01*
X143462026Y-82200026D01*
X143526740Y-82146916D01*
X143591617Y-82112239D01*
X143611989Y-82098627D01*
X143629316Y-82081300D01*
X143642930Y-82060925D01*
X143652307Y-82038286D01*
X143657088Y-82014253D01*
X143657088Y-81989749D01*
X143657088Y-81989747D01*
X143870912Y-81989747D01*
X143870912Y-82014251D01*
X143875692Y-82038285D01*
X143885069Y-82060924D01*
X143898683Y-82081299D01*
X143916010Y-82098626D01*
X143936383Y-82112239D01*
X144001260Y-82146916D01*
X144065974Y-82200026D01*
X144119084Y-82264740D01*
X144153759Y-82329614D01*
X144167373Y-82349989D01*
X144184700Y-82367316D01*
X144205075Y-82380930D01*
X144227714Y-82390307D01*
X144251747Y-82395088D01*
X144276251Y-82395088D01*
X144300285Y-82390308D01*
X144322924Y-82380931D01*
X144343299Y-82367317D01*
X144360626Y-82349990D01*
X144374241Y-82329614D01*
X144408916Y-82264740D01*
X144462026Y-82200026D01*
X144526740Y-82146916D01*
X144591617Y-82112239D01*
X144611989Y-82098627D01*
X144629316Y-82081300D01*
X144642930Y-82060925D01*
X144652307Y-82038286D01*
X144657088Y-82014253D01*
X144657088Y-81989749D01*
X144652308Y-81965715D01*
X144642931Y-81943076D01*
X144629317Y-81922701D01*
X144611990Y-81905374D01*
X144591617Y-81891761D01*
X144526740Y-81857084D01*
X144462026Y-81803974D01*
X144408916Y-81739260D01*
X144374239Y-81674383D01*
X144360627Y-81654011D01*
X144343300Y-81636684D01*
X144322925Y-81623070D01*
X144300286Y-81613693D01*
X144276253Y-81608912D01*
X144251749Y-81608912D01*
X144227715Y-81613692D01*
X144205076Y-81623069D01*
X144184701Y-81636683D01*
X144167374Y-81654010D01*
X144153761Y-81674383D01*
X144119084Y-81739260D01*
X144065974Y-81803974D01*
X144001260Y-81857084D01*
X143936383Y-81891761D01*
X143916011Y-81905373D01*
X143898684Y-81922700D01*
X143885070Y-81943075D01*
X143875693Y-81965714D01*
X143870912Y-81989747D01*
X143657088Y-81989747D01*
X143652308Y-81965715D01*
X143642931Y-81943076D01*
X143629317Y-81922701D01*
X143611990Y-81905374D01*
X143591617Y-81891761D01*
X143526740Y-81857084D01*
X143462026Y-81803974D01*
X143408916Y-81739260D01*
X143408914Y-81739257D01*
X143369451Y-81665427D01*
X143345149Y-81585316D01*
X143336944Y-81502000D01*
X143345149Y-81418684D01*
X143369451Y-81338573D01*
X143408914Y-81264743D01*
X143462026Y-81200026D01*
X143526740Y-81146916D01*
X143591617Y-81112239D01*
X143611989Y-81098627D01*
X143629316Y-81081300D01*
X143642930Y-81060925D01*
X143652307Y-81038286D01*
X143657088Y-81014253D01*
X143657088Y-80989749D01*
X143657088Y-80989747D01*
X143870912Y-80989747D01*
X143870912Y-81014251D01*
X143875692Y-81038285D01*
X143885069Y-81060924D01*
X143898683Y-81081299D01*
X143916010Y-81098626D01*
X143936383Y-81112239D01*
X144001260Y-81146916D01*
X144065974Y-81200026D01*
X144119084Y-81264740D01*
X144153759Y-81329614D01*
X144167373Y-81349989D01*
X144184700Y-81367316D01*
X144205075Y-81380930D01*
X144227714Y-81390307D01*
X144251747Y-81395088D01*
X144276251Y-81395088D01*
X144300285Y-81390308D01*
X144322924Y-81380931D01*
X144343299Y-81367317D01*
X144360626Y-81349990D01*
X144374241Y-81329614D01*
X144408916Y-81264740D01*
X144462026Y-81200026D01*
X144526740Y-81146916D01*
X144591617Y-81112239D01*
X144611989Y-81098627D01*
X144629316Y-81081300D01*
X144642930Y-81060925D01*
X144652307Y-81038286D01*
X144657088Y-81014253D01*
X144657088Y-80989749D01*
X144652308Y-80965715D01*
X144642931Y-80943076D01*
X144629317Y-80922701D01*
X144611990Y-80905374D01*
X144591617Y-80891761D01*
X144526740Y-80857084D01*
X144462026Y-80803974D01*
X144408916Y-80739260D01*
X144374239Y-80674383D01*
X144360627Y-80654011D01*
X144343300Y-80636684D01*
X144322925Y-80623070D01*
X144300286Y-80613693D01*
X144276253Y-80608912D01*
X144251749Y-80608912D01*
X144227715Y-80613692D01*
X144205076Y-80623069D01*
X144184701Y-80636683D01*
X144167374Y-80654010D01*
X144153761Y-80674383D01*
X144119084Y-80739260D01*
X144065974Y-80803974D01*
X144001260Y-80857084D01*
X143936383Y-80891761D01*
X143916011Y-80905373D01*
X143898684Y-80922700D01*
X143885070Y-80943075D01*
X143875693Y-80965714D01*
X143870912Y-80989747D01*
X143657088Y-80989747D01*
X143652308Y-80965715D01*
X143642931Y-80943076D01*
X143629317Y-80922701D01*
X143611990Y-80905374D01*
X143591617Y-80891761D01*
X143526740Y-80857084D01*
X143462026Y-80803974D01*
X143408916Y-80739260D01*
X143408914Y-80739257D01*
X143369451Y-80665427D01*
X143345149Y-80585316D01*
X143336944Y-80502000D01*
X143345149Y-80418684D01*
X143369451Y-80338573D01*
X143408914Y-80264743D01*
X143462026Y-80200026D01*
X143524660Y-80148623D01*
X143541984Y-80131299D01*
X143555597Y-80110924D01*
X143564975Y-80088285D01*
X143569755Y-80064252D01*
X143569755Y-80052000D01*
X143957643Y-80052000D01*
X143960045Y-80076386D01*
X143967158Y-80099835D01*
X143978709Y-80121446D01*
X144003341Y-80148624D01*
X144065974Y-80200026D01*
X144119084Y-80264740D01*
X144153759Y-80329614D01*
X144167373Y-80349989D01*
X144184700Y-80367316D01*
X144205075Y-80380930D01*
X144227714Y-80390307D01*
X144251747Y-80395088D01*
X144276251Y-80395088D01*
X144300285Y-80390308D01*
X144322924Y-80380931D01*
X144343299Y-80367317D01*
X144360626Y-80349990D01*
X144374241Y-80329614D01*
X144408916Y-80264740D01*
X144462026Y-80200026D01*
X144526740Y-80146916D01*
X144574392Y-80121446D01*
X144591617Y-80112239D01*
X144611989Y-80098627D01*
X144629316Y-80081300D01*
X144642930Y-80060925D01*
X144652307Y-80038286D01*
X144657088Y-80014253D01*
X144657088Y-79989749D01*
X144652308Y-79965715D01*
X144642931Y-79943076D01*
X144629317Y-79922701D01*
X144611990Y-79905374D01*
X144591617Y-79891761D01*
X144526740Y-79857084D01*
X144462026Y-79803974D01*
X144410623Y-79741340D01*
X144393299Y-79724016D01*
X144372924Y-79710403D01*
X144350285Y-79701025D01*
X144326252Y-79696245D01*
X144301747Y-79696245D01*
X144277714Y-79701026D01*
X144255075Y-79710403D01*
X144234700Y-79724017D01*
X144217373Y-79741344D01*
X144203760Y-79761719D01*
X144194382Y-79784358D01*
X144189000Y-79820643D01*
X144189000Y-79927000D01*
X144082643Y-79927000D01*
X144058257Y-79929402D01*
X144034808Y-79936515D01*
X144013197Y-79948066D01*
X143994255Y-79963612D01*
X143978709Y-79982554D01*
X143967158Y-80004165D01*
X143960045Y-80027614D01*
X143957643Y-80052000D01*
X143569755Y-80052000D01*
X143569755Y-80039747D01*
X143564974Y-80015714D01*
X143555597Y-79993075D01*
X143541983Y-79972700D01*
X143524656Y-79955373D01*
X143504281Y-79941760D01*
X143481642Y-79932382D01*
X143445357Y-79927000D01*
X143339000Y-79927000D01*
X143339000Y-79077000D01*
X144189000Y-79077000D01*
X144189000Y-79183357D01*
X144189000Y-79183357D01*
G37*
G36*
X109540000Y-82960000D02*
X107840000Y-82960000D01*
X107840000Y-82060000D01*
X109540000Y-82060000D01*
X109540000Y-82960000D01*
X109540000Y-82960000D01*
G37*
G36*
X113454024Y-81858955D02*
X113486736Y-81868879D01*
X113516890Y-81884997D01*
X113543316Y-81906684D01*
X113565003Y-81933110D01*
X113581121Y-81963264D01*
X113591045Y-81995976D01*
X113595000Y-82036138D01*
X113595000Y-82623862D01*
X113591045Y-82664024D01*
X113581121Y-82696736D01*
X113565003Y-82726890D01*
X113543316Y-82753316D01*
X113516890Y-82775003D01*
X113486736Y-82791121D01*
X113454024Y-82801045D01*
X113413862Y-82805000D01*
X112726138Y-82805000D01*
X112685976Y-82801045D01*
X112653264Y-82791121D01*
X112623110Y-82775003D01*
X112596684Y-82753316D01*
X112574997Y-82726890D01*
X112558879Y-82696736D01*
X112548955Y-82664024D01*
X112545000Y-82623862D01*
X112545000Y-82036138D01*
X112548955Y-81995976D01*
X112558879Y-81963264D01*
X112574997Y-81933110D01*
X112596684Y-81906684D01*
X112623110Y-81884997D01*
X112653264Y-81868879D01*
X112685976Y-81858955D01*
X112726138Y-81855000D01*
X113413862Y-81855000D01*
X113454024Y-81858955D01*
X113454024Y-81858955D01*
G37*
G36*
X115204024Y-81858955D02*
X115236736Y-81868879D01*
X115266890Y-81884997D01*
X115293316Y-81906684D01*
X115315003Y-81933110D01*
X115331121Y-81963264D01*
X115341045Y-81995976D01*
X115345000Y-82036138D01*
X115345000Y-82623862D01*
X115341045Y-82664024D01*
X115331121Y-82696736D01*
X115315003Y-82726890D01*
X115293316Y-82753316D01*
X115266890Y-82775003D01*
X115236736Y-82791121D01*
X115204024Y-82801045D01*
X115163862Y-82805000D01*
X114476138Y-82805000D01*
X114435976Y-82801045D01*
X114403264Y-82791121D01*
X114373110Y-82775003D01*
X114346684Y-82753316D01*
X114324997Y-82726890D01*
X114308879Y-82696736D01*
X114298955Y-82664024D01*
X114295000Y-82623862D01*
X114295000Y-82036138D01*
X114298955Y-81995976D01*
X114308879Y-81963264D01*
X114324997Y-81933110D01*
X114346684Y-81906684D01*
X114373110Y-81884997D01*
X114403264Y-81868879D01*
X114435976Y-81858955D01*
X114476138Y-81855000D01*
X115163862Y-81855000D01*
X115204024Y-81858955D01*
X115204024Y-81858955D01*
G37*
G36*
X110610000Y-77757500D02*
X108710000Y-77757500D01*
X108710000Y-75382500D01*
X110610000Y-75382500D01*
X110610000Y-77757500D01*
X110610000Y-77757500D01*
G37*
G36*
X113010000Y-76860000D02*
X110910000Y-76860000D01*
X110910000Y-75385000D01*
X111505000Y-75385000D01*
X111529386Y-75382598D01*
X111552835Y-75375485D01*
X111574446Y-75363934D01*
X111593388Y-75348388D01*
X111608934Y-75329446D01*
X111620485Y-75307835D01*
X111627598Y-75284386D01*
X111630000Y-75260000D01*
X111630000Y-72060000D01*
X111627598Y-72035614D01*
X111620485Y-72012165D01*
X111608934Y-71990554D01*
X111593388Y-71971612D01*
X111574446Y-71956066D01*
X111552835Y-71944515D01*
X111529386Y-71937402D01*
X111505000Y-71935000D01*
X110910000Y-71935000D01*
X110910000Y-70460000D01*
X113010000Y-70460000D01*
X113010000Y-76860000D01*
X113010000Y-76860000D01*
G37*
G36*
X110610000Y-75087500D02*
X108710000Y-75087500D01*
X108710000Y-73912500D01*
X110610000Y-73912500D01*
X110610000Y-75087500D01*
X110610000Y-75087500D01*
G37*
G36*
X144189000Y-73341357D02*
X144191402Y-73365743D01*
X144198515Y-73389192D01*
X144210066Y-73410803D01*
X144225612Y-73429745D01*
X144244554Y-73445291D01*
X144266165Y-73456842D01*
X144289614Y-73463955D01*
X144314000Y-73466357D01*
X144338386Y-73463955D01*
X144361835Y-73456842D01*
X144383446Y-73445291D01*
X144410624Y-73420659D01*
X144462026Y-73358026D01*
X144526740Y-73304916D01*
X144526742Y-73304915D01*
X144526743Y-73304914D01*
X144600573Y-73265451D01*
X144680684Y-73241149D01*
X144743122Y-73235000D01*
X144784878Y-73235000D01*
X144847316Y-73241149D01*
X144927427Y-73265451D01*
X145001257Y-73304914D01*
X145001258Y-73304915D01*
X145001260Y-73304916D01*
X145065974Y-73358026D01*
X145117375Y-73420657D01*
X145119086Y-73422743D01*
X145158549Y-73496573D01*
X145182851Y-73576684D01*
X145191056Y-73660000D01*
X145182851Y-73743316D01*
X145158549Y-73823427D01*
X145119086Y-73897257D01*
X145119084Y-73897260D01*
X145065974Y-73961974D01*
X145001260Y-74015084D01*
X144936383Y-74049761D01*
X144916011Y-74063373D01*
X144898684Y-74080700D01*
X144885070Y-74101075D01*
X144875693Y-74123714D01*
X144870912Y-74147747D01*
X144870912Y-74172251D01*
X144875692Y-74196285D01*
X144885069Y-74218924D01*
X144898683Y-74239299D01*
X144916010Y-74256626D01*
X144936383Y-74270239D01*
X144953608Y-74279446D01*
X145001260Y-74304916D01*
X145065974Y-74358026D01*
X145119086Y-74422743D01*
X145158549Y-74496573D01*
X145182851Y-74576684D01*
X145191056Y-74660000D01*
X145182851Y-74743316D01*
X145158549Y-74823427D01*
X145119086Y-74897257D01*
X145119084Y-74897260D01*
X145065974Y-74961974D01*
X145001260Y-75015084D01*
X145001258Y-75015085D01*
X145001257Y-75015086D01*
X144927427Y-75054549D01*
X144847316Y-75078851D01*
X144784878Y-75085000D01*
X144743122Y-75085000D01*
X144680684Y-75078851D01*
X144600573Y-75054549D01*
X144526743Y-75015086D01*
X144526742Y-75015085D01*
X144526740Y-75015084D01*
X144462026Y-74961974D01*
X144408916Y-74897260D01*
X144374239Y-74832383D01*
X144360627Y-74812011D01*
X144343300Y-74794684D01*
X144322925Y-74781070D01*
X144300286Y-74771693D01*
X144276253Y-74766912D01*
X144251749Y-74766912D01*
X144227715Y-74771692D01*
X144205076Y-74781069D01*
X144184701Y-74794683D01*
X144167374Y-74812010D01*
X144153761Y-74832383D01*
X144119084Y-74897260D01*
X144065974Y-74961974D01*
X144001260Y-75015084D01*
X144001258Y-75015085D01*
X144001257Y-75015086D01*
X143927427Y-75054549D01*
X143847316Y-75078851D01*
X143784878Y-75085000D01*
X143743122Y-75085000D01*
X143680684Y-75078851D01*
X143600573Y-75054549D01*
X143526743Y-75015086D01*
X143526742Y-75015085D01*
X143526740Y-75015084D01*
X143462026Y-74961974D01*
X143408916Y-74897260D01*
X143408914Y-74897257D01*
X143369451Y-74823427D01*
X143345149Y-74743316D01*
X143336944Y-74660000D01*
X143345149Y-74576684D01*
X143369451Y-74496573D01*
X143408914Y-74422743D01*
X143462026Y-74358026D01*
X143524660Y-74306623D01*
X143541984Y-74289299D01*
X143555597Y-74268924D01*
X143564975Y-74246285D01*
X143569755Y-74222252D01*
X143569755Y-74210000D01*
X143957643Y-74210000D01*
X143960045Y-74234386D01*
X143967158Y-74257835D01*
X143978709Y-74279446D01*
X144003341Y-74306624D01*
X144065974Y-74358026D01*
X144119084Y-74422740D01*
X144153759Y-74487614D01*
X144167373Y-74507989D01*
X144184700Y-74525316D01*
X144205075Y-74538930D01*
X144227714Y-74548307D01*
X144251747Y-74553088D01*
X144276251Y-74553088D01*
X144300285Y-74548308D01*
X144322924Y-74538931D01*
X144343299Y-74525317D01*
X144360626Y-74507990D01*
X144374241Y-74487614D01*
X144408916Y-74422740D01*
X144462026Y-74358026D01*
X144526740Y-74304916D01*
X144574392Y-74279446D01*
X144591617Y-74270239D01*
X144611989Y-74256627D01*
X144629316Y-74239300D01*
X144642930Y-74218925D01*
X144652307Y-74196286D01*
X144657088Y-74172253D01*
X144657088Y-74147749D01*
X144652308Y-74123715D01*
X144642931Y-74101076D01*
X144629317Y-74080701D01*
X144611990Y-74063374D01*
X144591617Y-74049761D01*
X144526740Y-74015084D01*
X144462026Y-73961974D01*
X144410623Y-73899340D01*
X144393299Y-73882016D01*
X144372924Y-73868403D01*
X144350285Y-73859025D01*
X144326252Y-73854245D01*
X144301747Y-73854245D01*
X144277714Y-73859026D01*
X144255075Y-73868403D01*
X144234700Y-73882017D01*
X144217373Y-73899344D01*
X144203760Y-73919719D01*
X144194382Y-73942358D01*
X144189000Y-73978643D01*
X144189000Y-74085000D01*
X144082643Y-74085000D01*
X144058257Y-74087402D01*
X144034808Y-74094515D01*
X144013197Y-74106066D01*
X143994255Y-74121612D01*
X143978709Y-74140554D01*
X143967158Y-74162165D01*
X143960045Y-74185614D01*
X143957643Y-74210000D01*
X143569755Y-74210000D01*
X143569755Y-74197747D01*
X143564974Y-74173714D01*
X143555597Y-74151075D01*
X143541983Y-74130700D01*
X143524656Y-74113373D01*
X143504281Y-74099760D01*
X143481642Y-74090382D01*
X143445357Y-74085000D01*
X143339000Y-74085000D01*
X143339000Y-73235000D01*
X144189000Y-73235000D01*
X144189000Y-73341357D01*
X144189000Y-73341357D01*
G37*
G36*
X110610000Y-73407500D02*
X108710000Y-73407500D01*
X108710000Y-72232500D01*
X110610000Y-72232500D01*
X110610000Y-73407500D01*
X110610000Y-73407500D01*
G37*
G36*
X110610000Y-71937500D02*
X108710000Y-71937500D01*
X108710000Y-69562500D01*
X110610000Y-69562500D01*
X110610000Y-71937500D01*
X110610000Y-71937500D01*
G37*
G36*
X143896056Y-68145281D02*
X143976167Y-68169583D01*
X144049997Y-68209046D01*
X144049998Y-68209047D01*
X144050000Y-68209048D01*
X144114714Y-68262158D01*
X144167824Y-68326872D01*
X144202499Y-68391746D01*
X144216113Y-68412121D01*
X144233440Y-68429448D01*
X144253815Y-68443062D01*
X144276454Y-68452439D01*
X144300487Y-68457220D01*
X144324991Y-68457220D01*
X144349025Y-68452440D01*
X144371664Y-68443063D01*
X144392039Y-68429449D01*
X144409366Y-68412122D01*
X144422981Y-68391746D01*
X144457656Y-68326872D01*
X144510766Y-68262158D01*
X144575480Y-68209048D01*
X144575482Y-68209047D01*
X144575483Y-68209046D01*
X144649313Y-68169583D01*
X144729424Y-68145281D01*
X144791862Y-68139132D01*
X144833618Y-68139132D01*
X144896056Y-68145281D01*
X144976167Y-68169583D01*
X145049997Y-68209046D01*
X145049998Y-68209047D01*
X145050000Y-68209048D01*
X145114714Y-68262158D01*
X145167826Y-68326875D01*
X145207289Y-68400705D01*
X145231591Y-68480816D01*
X145239796Y-68564132D01*
X145231591Y-68647448D01*
X145207289Y-68727559D01*
X145167826Y-68801389D01*
X145167824Y-68801392D01*
X145114714Y-68866106D01*
X145052080Y-68917509D01*
X145034756Y-68934833D01*
X145021143Y-68955208D01*
X145011765Y-68977847D01*
X145006985Y-69001880D01*
X145006985Y-69026385D01*
X145011766Y-69050418D01*
X145021143Y-69073057D01*
X145034757Y-69093432D01*
X145052084Y-69110759D01*
X145072459Y-69124372D01*
X145095098Y-69133750D01*
X145131383Y-69139132D01*
X145237740Y-69139132D01*
X145237740Y-69989132D01*
X144387740Y-69989132D01*
X144387740Y-69882775D01*
X144385338Y-69858389D01*
X144378225Y-69834940D01*
X144366674Y-69813329D01*
X144351128Y-69794387D01*
X144332186Y-69778841D01*
X144310575Y-69767290D01*
X144287126Y-69760177D01*
X144262740Y-69757775D01*
X144238354Y-69760177D01*
X144214905Y-69767290D01*
X144193294Y-69778841D01*
X144166116Y-69803473D01*
X144114714Y-69866106D01*
X144050000Y-69919216D01*
X144049998Y-69919217D01*
X144049997Y-69919218D01*
X143976167Y-69958681D01*
X143896056Y-69982983D01*
X143833618Y-69989132D01*
X143791862Y-69989132D01*
X143729424Y-69982983D01*
X143649313Y-69958681D01*
X143575483Y-69919218D01*
X143575482Y-69919217D01*
X143575480Y-69919216D01*
X143510766Y-69866106D01*
X143457656Y-69801392D01*
X143457654Y-69801389D01*
X143418191Y-69727559D01*
X143393889Y-69647448D01*
X143385684Y-69564132D01*
X143393889Y-69480816D01*
X143418191Y-69400705D01*
X143457654Y-69326875D01*
X143459366Y-69324789D01*
X143510766Y-69262158D01*
X143575480Y-69209048D01*
X143640357Y-69174371D01*
X143660729Y-69160759D01*
X143678056Y-69143432D01*
X143691670Y-69123057D01*
X143701047Y-69100418D01*
X143705828Y-69076385D01*
X143705828Y-69051881D01*
X143705828Y-69051879D01*
X143919652Y-69051879D01*
X143919652Y-69076383D01*
X143924432Y-69100417D01*
X143933809Y-69123056D01*
X143947423Y-69143431D01*
X143964750Y-69160758D01*
X143985123Y-69174371D01*
X144050000Y-69209048D01*
X144114714Y-69262158D01*
X144166117Y-69324792D01*
X144183441Y-69342116D01*
X144203816Y-69355729D01*
X144226455Y-69365107D01*
X144250488Y-69369887D01*
X144274993Y-69369887D01*
X144299026Y-69365106D01*
X144321665Y-69355729D01*
X144342040Y-69342115D01*
X144359367Y-69324788D01*
X144372980Y-69304413D01*
X144382358Y-69281774D01*
X144387740Y-69245489D01*
X144387740Y-69139132D01*
X144494097Y-69139132D01*
X144518483Y-69136730D01*
X144541932Y-69129617D01*
X144563543Y-69118066D01*
X144582485Y-69102520D01*
X144598031Y-69083578D01*
X144609582Y-69061967D01*
X144616695Y-69038518D01*
X144619097Y-69014132D01*
X144616695Y-68989746D01*
X144609582Y-68966297D01*
X144598031Y-68944686D01*
X144573399Y-68917508D01*
X144510766Y-68866106D01*
X144457656Y-68801392D01*
X144422979Y-68736515D01*
X144409367Y-68716143D01*
X144392040Y-68698816D01*
X144371665Y-68685202D01*
X144349026Y-68675825D01*
X144324993Y-68671044D01*
X144300489Y-68671044D01*
X144276455Y-68675824D01*
X144253816Y-68685201D01*
X144233441Y-68698815D01*
X144216114Y-68716142D01*
X144202501Y-68736515D01*
X144167824Y-68801392D01*
X144114714Y-68866106D01*
X144050000Y-68919216D01*
X143985123Y-68953893D01*
X143964751Y-68967505D01*
X143947424Y-68984832D01*
X143933810Y-69005207D01*
X143924433Y-69027846D01*
X143919652Y-69051879D01*
X143705828Y-69051879D01*
X143701048Y-69027847D01*
X143691671Y-69005208D01*
X143678057Y-68984833D01*
X143660730Y-68967506D01*
X143640357Y-68953893D01*
X143575480Y-68919216D01*
X143510766Y-68866106D01*
X143457656Y-68801392D01*
X143457654Y-68801389D01*
X143418191Y-68727559D01*
X143393889Y-68647448D01*
X143385684Y-68564132D01*
X143393889Y-68480816D01*
X143418191Y-68400705D01*
X143457654Y-68326875D01*
X143510766Y-68262158D01*
X143575480Y-68209048D01*
X143575482Y-68209047D01*
X143575483Y-68209046D01*
X143649313Y-68169583D01*
X143729424Y-68145281D01*
X143791862Y-68139132D01*
X143833618Y-68139132D01*
X143896056Y-68145281D01*
X143896056Y-68145281D01*
G37*
G36*
X130614024Y-65528955D02*
X130646736Y-65538879D01*
X130676890Y-65554997D01*
X130703316Y-65576684D01*
X130725003Y-65603110D01*
X130741121Y-65633264D01*
X130751045Y-65665976D01*
X130755000Y-65706138D01*
X130755000Y-66293862D01*
X130751045Y-66334024D01*
X130741121Y-66366736D01*
X130725003Y-66396890D01*
X130703316Y-66423316D01*
X130676890Y-66445003D01*
X130646736Y-66461121D01*
X130614024Y-66471045D01*
X130573862Y-66475000D01*
X129886138Y-66475000D01*
X129845976Y-66471045D01*
X129813264Y-66461121D01*
X129783110Y-66445003D01*
X129756684Y-66423316D01*
X129734997Y-66396890D01*
X129718879Y-66366736D01*
X129708955Y-66334024D01*
X129705000Y-66293862D01*
X129705000Y-65706138D01*
X129708955Y-65665976D01*
X129718879Y-65633264D01*
X129734997Y-65603110D01*
X129756684Y-65576684D01*
X129783110Y-65554997D01*
X129813264Y-65538879D01*
X129845976Y-65528955D01*
X129886138Y-65525000D01*
X130573862Y-65525000D01*
X130614024Y-65528955D01*
X130614024Y-65528955D01*
G37*
G36*
X128864024Y-65528955D02*
X128896736Y-65538879D01*
X128926890Y-65554997D01*
X128953316Y-65576684D01*
X128975003Y-65603110D01*
X128991121Y-65633264D01*
X129001045Y-65665976D01*
X129005000Y-65706138D01*
X129005000Y-66293862D01*
X129001045Y-66334024D01*
X128991121Y-66366736D01*
X128975003Y-66396890D01*
X128953316Y-66423316D01*
X128926890Y-66445003D01*
X128896736Y-66461121D01*
X128864024Y-66471045D01*
X128823862Y-66475000D01*
X128136138Y-66475000D01*
X128095976Y-66471045D01*
X128063264Y-66461121D01*
X128033110Y-66445003D01*
X128006684Y-66423316D01*
X127984997Y-66396890D01*
X127968879Y-66366736D01*
X127958955Y-66334024D01*
X127955000Y-66293862D01*
X127955000Y-65706138D01*
X127958955Y-65665976D01*
X127968879Y-65633264D01*
X127984997Y-65603110D01*
X128006684Y-65576684D01*
X128033110Y-65554997D01*
X128063264Y-65538879D01*
X128095976Y-65528955D01*
X128136138Y-65525000D01*
X128823862Y-65525000D01*
X128864024Y-65528955D01*
X128864024Y-65528955D01*
G37*
G36*
X132564024Y-65508955D02*
X132596736Y-65518879D01*
X132626890Y-65534997D01*
X132653316Y-65556684D01*
X132675003Y-65583110D01*
X132691121Y-65613264D01*
X132701045Y-65645976D01*
X132705000Y-65686138D01*
X132705000Y-66273862D01*
X132701045Y-66314024D01*
X132691121Y-66346736D01*
X132675003Y-66376890D01*
X132653316Y-66403316D01*
X132626890Y-66425003D01*
X132596736Y-66441121D01*
X132564024Y-66451045D01*
X132523862Y-66455000D01*
X131836138Y-66455000D01*
X131795976Y-66451045D01*
X131763264Y-66441121D01*
X131733110Y-66425003D01*
X131706684Y-66403316D01*
X131684997Y-66376890D01*
X131668879Y-66346736D01*
X131658955Y-66314024D01*
X131655000Y-66273862D01*
X131655000Y-65686138D01*
X131658955Y-65645976D01*
X131668879Y-65613264D01*
X131684997Y-65583110D01*
X131706684Y-65556684D01*
X131733110Y-65534997D01*
X131763264Y-65518879D01*
X131795976Y-65508955D01*
X131836138Y-65505000D01*
X132523862Y-65505000D01*
X132564024Y-65508955D01*
X132564024Y-65508955D01*
G37*
G36*
X134314024Y-65508955D02*
X134346736Y-65518879D01*
X134376890Y-65534997D01*
X134403316Y-65556684D01*
X134425003Y-65583110D01*
X134441121Y-65613264D01*
X134451045Y-65645976D01*
X134455000Y-65686138D01*
X134455000Y-66273862D01*
X134451045Y-66314024D01*
X134441121Y-66346736D01*
X134425003Y-66376890D01*
X134403316Y-66403316D01*
X134376890Y-66425003D01*
X134346736Y-66441121D01*
X134314024Y-66451045D01*
X134273862Y-66455000D01*
X133586138Y-66455000D01*
X133545976Y-66451045D01*
X133513264Y-66441121D01*
X133483110Y-66425003D01*
X133456684Y-66403316D01*
X133434997Y-66376890D01*
X133418879Y-66346736D01*
X133408955Y-66314024D01*
X133405000Y-66273862D01*
X133405000Y-65686138D01*
X133408955Y-65645976D01*
X133418879Y-65613264D01*
X133434997Y-65583110D01*
X133456684Y-65556684D01*
X133483110Y-65534997D01*
X133513264Y-65518879D01*
X133545976Y-65508955D01*
X133586138Y-65505000D01*
X134273862Y-65505000D01*
X134314024Y-65508955D01*
X134314024Y-65508955D01*
G37*
G36*
X111334024Y-65353955D02*
X111366736Y-65363879D01*
X111396890Y-65379997D01*
X111423316Y-65401684D01*
X111445003Y-65428110D01*
X111461121Y-65458264D01*
X111471045Y-65490976D01*
X111475000Y-65531138D01*
X111475000Y-66218862D01*
X111471045Y-66259024D01*
X111461121Y-66291736D01*
X111445003Y-66321890D01*
X111423316Y-66348316D01*
X111396890Y-66370003D01*
X111366736Y-66386121D01*
X111334024Y-66396045D01*
X111293862Y-66400000D01*
X110706138Y-66400000D01*
X110665976Y-66396045D01*
X110633264Y-66386121D01*
X110603110Y-66370003D01*
X110576684Y-66348316D01*
X110554997Y-66321890D01*
X110538879Y-66291736D01*
X110528955Y-66259024D01*
X110525000Y-66218862D01*
X110525000Y-65531138D01*
X110528955Y-65490976D01*
X110538879Y-65458264D01*
X110554997Y-65428110D01*
X110576684Y-65401684D01*
X110603110Y-65379997D01*
X110633264Y-65363879D01*
X110665976Y-65353955D01*
X110706138Y-65350000D01*
X111293862Y-65350000D01*
X111334024Y-65353955D01*
X111334024Y-65353955D01*
G37*
G36*
X109334024Y-65353955D02*
X109366736Y-65363879D01*
X109396890Y-65379997D01*
X109423316Y-65401684D01*
X109445003Y-65428110D01*
X109461121Y-65458264D01*
X109471045Y-65490976D01*
X109475000Y-65531138D01*
X109475000Y-66218862D01*
X109471045Y-66259024D01*
X109461121Y-66291736D01*
X109445003Y-66321890D01*
X109423316Y-66348316D01*
X109396890Y-66370003D01*
X109366736Y-66386121D01*
X109334024Y-66396045D01*
X109293862Y-66400000D01*
X108706138Y-66400000D01*
X108665976Y-66396045D01*
X108633264Y-66386121D01*
X108603110Y-66370003D01*
X108576684Y-66348316D01*
X108554997Y-66321890D01*
X108538879Y-66291736D01*
X108528955Y-66259024D01*
X108525000Y-66218862D01*
X108525000Y-65531138D01*
X108528955Y-65490976D01*
X108538879Y-65458264D01*
X108554997Y-65428110D01*
X108576684Y-65401684D01*
X108603110Y-65379997D01*
X108633264Y-65363879D01*
X108665976Y-65353955D01*
X108706138Y-65350000D01*
X109293862Y-65350000D01*
X109334024Y-65353955D01*
X109334024Y-65353955D01*
G37*
G36*
X127170000Y-66205000D02*
X126110000Y-66205000D01*
X126110000Y-65555000D01*
X127170000Y-65555000D01*
X127170000Y-66205000D01*
X127170000Y-66205000D01*
G37*
G36*
X124970000Y-66205000D02*
X123910000Y-66205000D01*
X123910000Y-65555000D01*
X124970000Y-65555000D01*
X124970000Y-66205000D01*
X124970000Y-66205000D01*
G37*
G36*
X127170000Y-65255000D02*
X126110000Y-65255000D01*
X126110000Y-64605000D01*
X127170000Y-64605000D01*
X127170000Y-65255000D01*
X127170000Y-65255000D01*
G37*
G36*
X109334024Y-63603955D02*
X109366736Y-63613879D01*
X109396890Y-63629997D01*
X109423316Y-63651684D01*
X109445003Y-63678110D01*
X109461121Y-63708264D01*
X109471045Y-63740976D01*
X109475000Y-63781138D01*
X109475000Y-64468862D01*
X109471045Y-64509024D01*
X109461121Y-64541736D01*
X109445003Y-64571890D01*
X109423316Y-64598316D01*
X109396890Y-64620003D01*
X109366736Y-64636121D01*
X109334024Y-64646045D01*
X109293862Y-64650000D01*
X108706138Y-64650000D01*
X108665976Y-64646045D01*
X108633264Y-64636121D01*
X108603110Y-64620003D01*
X108576684Y-64598316D01*
X108554997Y-64571890D01*
X108538879Y-64541736D01*
X108528955Y-64509024D01*
X108525000Y-64468862D01*
X108525000Y-63781138D01*
X108528955Y-63740976D01*
X108538879Y-63708264D01*
X108554997Y-63678110D01*
X108576684Y-63651684D01*
X108603110Y-63629997D01*
X108633264Y-63613879D01*
X108665976Y-63603955D01*
X108706138Y-63600000D01*
X109293862Y-63600000D01*
X109334024Y-63603955D01*
X109334024Y-63603955D01*
G37*
G36*
X111334024Y-63603955D02*
X111366736Y-63613879D01*
X111396890Y-63629997D01*
X111423316Y-63651684D01*
X111445003Y-63678110D01*
X111461121Y-63708264D01*
X111471045Y-63740976D01*
X111475000Y-63781138D01*
X111475000Y-64468862D01*
X111471045Y-64509024D01*
X111461121Y-64541736D01*
X111445003Y-64571890D01*
X111423316Y-64598316D01*
X111396890Y-64620003D01*
X111366736Y-64636121D01*
X111334024Y-64646045D01*
X111293862Y-64650000D01*
X110706138Y-64650000D01*
X110665976Y-64646045D01*
X110633264Y-64636121D01*
X110603110Y-64620003D01*
X110576684Y-64598316D01*
X110554997Y-64571890D01*
X110538879Y-64541736D01*
X110528955Y-64509024D01*
X110525000Y-64468862D01*
X110525000Y-63781138D01*
X110528955Y-63740976D01*
X110538879Y-63708264D01*
X110554997Y-63678110D01*
X110576684Y-63651684D01*
X110603110Y-63629997D01*
X110633264Y-63613879D01*
X110665976Y-63603955D01*
X110706138Y-63600000D01*
X111293862Y-63600000D01*
X111334024Y-63603955D01*
X111334024Y-63603955D01*
G37*
G36*
X130614024Y-63618955D02*
X130646736Y-63628879D01*
X130676890Y-63644997D01*
X130703316Y-63666684D01*
X130725003Y-63693110D01*
X130741121Y-63723264D01*
X130751045Y-63755976D01*
X130755000Y-63796138D01*
X130755000Y-64383862D01*
X130751045Y-64424024D01*
X130741121Y-64456736D01*
X130725003Y-64486890D01*
X130703316Y-64513316D01*
X130676890Y-64535003D01*
X130646736Y-64551121D01*
X130614024Y-64561045D01*
X130573862Y-64565000D01*
X129886138Y-64565000D01*
X129845976Y-64561045D01*
X129813264Y-64551121D01*
X129783110Y-64535003D01*
X129756684Y-64513316D01*
X129734997Y-64486890D01*
X129718879Y-64456736D01*
X129708955Y-64424024D01*
X129705000Y-64383862D01*
X129705000Y-63796138D01*
X129708955Y-63755976D01*
X129718879Y-63723264D01*
X129734997Y-63693110D01*
X129756684Y-63666684D01*
X129783110Y-63644997D01*
X129813264Y-63628879D01*
X129845976Y-63618955D01*
X129886138Y-63615000D01*
X130573862Y-63615000D01*
X130614024Y-63618955D01*
X130614024Y-63618955D01*
G37*
G36*
X134309024Y-63618955D02*
X134341736Y-63628879D01*
X134371890Y-63644997D01*
X134398316Y-63666684D01*
X134420003Y-63693110D01*
X134436121Y-63723264D01*
X134446045Y-63755976D01*
X134450000Y-63796138D01*
X134450000Y-64383862D01*
X134446045Y-64424024D01*
X134436121Y-64456736D01*
X134420003Y-64486890D01*
X134398316Y-64513316D01*
X134371890Y-64535003D01*
X134341736Y-64551121D01*
X134309024Y-64561045D01*
X134268862Y-64565000D01*
X133581138Y-64565000D01*
X133540976Y-64561045D01*
X133508264Y-64551121D01*
X133478110Y-64535003D01*
X133451684Y-64513316D01*
X133429997Y-64486890D01*
X133413879Y-64456736D01*
X133403955Y-64424024D01*
X133400000Y-64383862D01*
X133400000Y-63796138D01*
X133403955Y-63755976D01*
X133413879Y-63723264D01*
X133429997Y-63693110D01*
X133451684Y-63666684D01*
X133478110Y-63644997D01*
X133508264Y-63628879D01*
X133540976Y-63618955D01*
X133581138Y-63615000D01*
X134268862Y-63615000D01*
X134309024Y-63618955D01*
X134309024Y-63618955D01*
G37*
G36*
X132559024Y-63618955D02*
X132591736Y-63628879D01*
X132621890Y-63644997D01*
X132648316Y-63666684D01*
X132670003Y-63693110D01*
X132686121Y-63723264D01*
X132696045Y-63755976D01*
X132700000Y-63796138D01*
X132700000Y-64383862D01*
X132696045Y-64424024D01*
X132686121Y-64456736D01*
X132670003Y-64486890D01*
X132648316Y-64513316D01*
X132621890Y-64535003D01*
X132591736Y-64551121D01*
X132559024Y-64561045D01*
X132518862Y-64565000D01*
X131831138Y-64565000D01*
X131790976Y-64561045D01*
X131758264Y-64551121D01*
X131728110Y-64535003D01*
X131701684Y-64513316D01*
X131679997Y-64486890D01*
X131663879Y-64456736D01*
X131653955Y-64424024D01*
X131650000Y-64383862D01*
X131650000Y-63796138D01*
X131653955Y-63755976D01*
X131663879Y-63723264D01*
X131679997Y-63693110D01*
X131701684Y-63666684D01*
X131728110Y-63644997D01*
X131758264Y-63628879D01*
X131790976Y-63618955D01*
X131831138Y-63615000D01*
X132518862Y-63615000D01*
X132559024Y-63618955D01*
X132559024Y-63618955D01*
G37*
G36*
X128864024Y-63618955D02*
X128896736Y-63628879D01*
X128926890Y-63644997D01*
X128953316Y-63666684D01*
X128975003Y-63693110D01*
X128991121Y-63723264D01*
X129001045Y-63755976D01*
X129005000Y-63796138D01*
X129005000Y-64383862D01*
X129001045Y-64424024D01*
X128991121Y-64456736D01*
X128975003Y-64486890D01*
X128953316Y-64513316D01*
X128926890Y-64535003D01*
X128896736Y-64551121D01*
X128864024Y-64561045D01*
X128823862Y-64565000D01*
X128136138Y-64565000D01*
X128095976Y-64561045D01*
X128063264Y-64551121D01*
X128033110Y-64535003D01*
X128006684Y-64513316D01*
X127984997Y-64486890D01*
X127968879Y-64456736D01*
X127958955Y-64424024D01*
X127955000Y-64383862D01*
X127955000Y-63796138D01*
X127958955Y-63755976D01*
X127968879Y-63723264D01*
X127984997Y-63693110D01*
X128006684Y-63666684D01*
X128033110Y-63644997D01*
X128063264Y-63628879D01*
X128095976Y-63618955D01*
X128136138Y-63615000D01*
X128823862Y-63615000D01*
X128864024Y-63618955D01*
X128864024Y-63618955D01*
G37*
G36*
X123004024Y-63388955D02*
X123036736Y-63398879D01*
X123066890Y-63414997D01*
X123093316Y-63436684D01*
X123115003Y-63463110D01*
X123131121Y-63493264D01*
X123141045Y-63525976D01*
X123145000Y-63566138D01*
X123145000Y-64153862D01*
X123141045Y-64194024D01*
X123131121Y-64226736D01*
X123115003Y-64256890D01*
X123093316Y-64283316D01*
X123066890Y-64305003D01*
X123036736Y-64321121D01*
X123004024Y-64331045D01*
X122963862Y-64335000D01*
X122276138Y-64335000D01*
X122235976Y-64331045D01*
X122203264Y-64321121D01*
X122173110Y-64305003D01*
X122146684Y-64283316D01*
X122124997Y-64256890D01*
X122108879Y-64226736D01*
X122098955Y-64194024D01*
X122095000Y-64153862D01*
X122095000Y-63566138D01*
X122098955Y-63525976D01*
X122108879Y-63493264D01*
X122124997Y-63463110D01*
X122146684Y-63436684D01*
X122173110Y-63414997D01*
X122203264Y-63398879D01*
X122235976Y-63388955D01*
X122276138Y-63385000D01*
X122963862Y-63385000D01*
X123004024Y-63388955D01*
X123004024Y-63388955D01*
G37*
G36*
X121254024Y-63388955D02*
X121286736Y-63398879D01*
X121316890Y-63414997D01*
X121343316Y-63436684D01*
X121365003Y-63463110D01*
X121381121Y-63493264D01*
X121391045Y-63525976D01*
X121395000Y-63566138D01*
X121395000Y-64153862D01*
X121391045Y-64194024D01*
X121381121Y-64226736D01*
X121365003Y-64256890D01*
X121343316Y-64283316D01*
X121316890Y-64305003D01*
X121286736Y-64321121D01*
X121254024Y-64331045D01*
X121213862Y-64335000D01*
X120526138Y-64335000D01*
X120485976Y-64331045D01*
X120453264Y-64321121D01*
X120423110Y-64305003D01*
X120396684Y-64283316D01*
X120374997Y-64256890D01*
X120358879Y-64226736D01*
X120348955Y-64194024D01*
X120345000Y-64153862D01*
X120345000Y-63566138D01*
X120348955Y-63525976D01*
X120358879Y-63493264D01*
X120374997Y-63463110D01*
X120396684Y-63436684D01*
X120423110Y-63414997D01*
X120453264Y-63398879D01*
X120485976Y-63388955D01*
X120526138Y-63385000D01*
X121213862Y-63385000D01*
X121254024Y-63388955D01*
X121254024Y-63388955D01*
G37*
G36*
X124970000Y-64305000D02*
X123910000Y-64305000D01*
X123910000Y-63655000D01*
X124970000Y-63655000D01*
X124970000Y-64305000D01*
X124970000Y-64305000D01*
G37*
G36*
X127170000Y-64305000D02*
X126110000Y-64305000D01*
X126110000Y-63655000D01*
X127170000Y-63655000D01*
X127170000Y-64305000D01*
X127170000Y-64305000D01*
G37*
G36*
X116039024Y-63178955D02*
X116071736Y-63188879D01*
X116101890Y-63204997D01*
X116128316Y-63226684D01*
X116150003Y-63253110D01*
X116166121Y-63283264D01*
X116176045Y-63315976D01*
X116180000Y-63356138D01*
X116180000Y-63943862D01*
X116176045Y-63984024D01*
X116166121Y-64016736D01*
X116150003Y-64046890D01*
X116128316Y-64073316D01*
X116101890Y-64095003D01*
X116071736Y-64111121D01*
X116039024Y-64121045D01*
X115998862Y-64125000D01*
X115311138Y-64125000D01*
X115270976Y-64121045D01*
X115238264Y-64111121D01*
X115208110Y-64095003D01*
X115181684Y-64073316D01*
X115159997Y-64046890D01*
X115143879Y-64016736D01*
X115133955Y-63984024D01*
X115130000Y-63943862D01*
X115130000Y-63356138D01*
X115133955Y-63315976D01*
X115143879Y-63283264D01*
X115159997Y-63253110D01*
X115181684Y-63226684D01*
X115208110Y-63204997D01*
X115238264Y-63188879D01*
X115270976Y-63178955D01*
X115311138Y-63175000D01*
X115998862Y-63175000D01*
X116039024Y-63178955D01*
X116039024Y-63178955D01*
G37*
G36*
X114289024Y-63178955D02*
X114321736Y-63188879D01*
X114351890Y-63204997D01*
X114378316Y-63226684D01*
X114400003Y-63253110D01*
X114416121Y-63283264D01*
X114426045Y-63315976D01*
X114430000Y-63356138D01*
X114430000Y-63943862D01*
X114426045Y-63984024D01*
X114416121Y-64016736D01*
X114400003Y-64046890D01*
X114378316Y-64073316D01*
X114351890Y-64095003D01*
X114321736Y-64111121D01*
X114289024Y-64121045D01*
X114248862Y-64125000D01*
X113561138Y-64125000D01*
X113520976Y-64121045D01*
X113488264Y-64111121D01*
X113458110Y-64095003D01*
X113431684Y-64073316D01*
X113409997Y-64046890D01*
X113393879Y-64016736D01*
X113383955Y-63984024D01*
X113380000Y-63943862D01*
X113380000Y-63356138D01*
X113383955Y-63315976D01*
X113393879Y-63283264D01*
X113409997Y-63253110D01*
X113431684Y-63226684D01*
X113458110Y-63204997D01*
X113488264Y-63188879D01*
X113520976Y-63178955D01*
X113561138Y-63175000D01*
X114248862Y-63175000D01*
X114289024Y-63178955D01*
X114289024Y-63178955D01*
G37*
G36*
X146897612Y-59164429D02*
X146900954Y-59165094D01*
X146900975Y-59165096D01*
X146900995Y-59165102D01*
X146901492Y-59165201D01*
X146902158Y-59165477D01*
X146925607Y-59172592D01*
X146949993Y-59174995D01*
X146974380Y-59172594D01*
X146997842Y-59165477D01*
X146998508Y-59165201D01*
X146999005Y-59165102D01*
X146999025Y-59165096D01*
X146999046Y-59165094D01*
X147002388Y-59164429D01*
X147003070Y-59164395D01*
X147396930Y-59164395D01*
X147397612Y-59164429D01*
X147400954Y-59165094D01*
X147400975Y-59165096D01*
X147400995Y-59165102D01*
X147401492Y-59165201D01*
X147402158Y-59165477D01*
X147425607Y-59172592D01*
X147449993Y-59174995D01*
X147474380Y-59172594D01*
X147497842Y-59165477D01*
X147498508Y-59165201D01*
X147499005Y-59165102D01*
X147499025Y-59165096D01*
X147499046Y-59165094D01*
X147502388Y-59164429D01*
X147503070Y-59164395D01*
X147896930Y-59164395D01*
X147897612Y-59164429D01*
X147900954Y-59165094D01*
X147900975Y-59165096D01*
X147900995Y-59165102D01*
X147901492Y-59165201D01*
X147902158Y-59165477D01*
X147925607Y-59172592D01*
X147949993Y-59174995D01*
X147974380Y-59172594D01*
X147997842Y-59165477D01*
X147998508Y-59165201D01*
X147999005Y-59165102D01*
X147999025Y-59165096D01*
X147999046Y-59165094D01*
X148002388Y-59164429D01*
X148003070Y-59164395D01*
X148396930Y-59164395D01*
X148397612Y-59164429D01*
X148400954Y-59165094D01*
X148400975Y-59165096D01*
X148400995Y-59165102D01*
X148401492Y-59165201D01*
X148402362Y-59165562D01*
X148403136Y-59166078D01*
X148403459Y-59166401D01*
X148403536Y-59166464D01*
X148403599Y-59166541D01*
X148403922Y-59166864D01*
X148404438Y-59167638D01*
X148404799Y-59168508D01*
X148404898Y-59169005D01*
X148404904Y-59169025D01*
X148404906Y-59169046D01*
X148405571Y-59172388D01*
X148405605Y-59173070D01*
X148405605Y-59826930D01*
X148405571Y-59827612D01*
X148404907Y-59830949D01*
X148404904Y-59830975D01*
X148404896Y-59831000D01*
X148403013Y-59840459D01*
X148400605Y-59864874D01*
X148400605Y-60243863D01*
X148400001Y-60249999D01*
X148396080Y-60254776D01*
X148264849Y-60386007D01*
X148249303Y-60404949D01*
X148237752Y-60426560D01*
X148230639Y-60450009D01*
X148228237Y-60474395D01*
X148230639Y-60498781D01*
X148237752Y-60522230D01*
X148249303Y-60543841D01*
X148264849Y-60562783D01*
X148283791Y-60578329D01*
X148305402Y-60589880D01*
X148328851Y-60596993D01*
X148353237Y-60599395D01*
X148635126Y-60599395D01*
X148659541Y-60596987D01*
X148669000Y-60595104D01*
X148669025Y-60595096D01*
X148669051Y-60595093D01*
X148672388Y-60594429D01*
X148673070Y-60594395D01*
X149326930Y-60594395D01*
X149327612Y-60594429D01*
X149330954Y-60595094D01*
X149330975Y-60595096D01*
X149330995Y-60595102D01*
X149331492Y-60595201D01*
X149332362Y-60595562D01*
X149333136Y-60596078D01*
X149333459Y-60596401D01*
X149333536Y-60596464D01*
X149333599Y-60596541D01*
X149333922Y-60596864D01*
X149334438Y-60597638D01*
X149334799Y-60598508D01*
X149334898Y-60599005D01*
X149334904Y-60599025D01*
X149334906Y-60599046D01*
X149335571Y-60602388D01*
X149335605Y-60603070D01*
X149335605Y-60996930D01*
X149335571Y-60997612D01*
X149334906Y-61000954D01*
X149334904Y-61000975D01*
X149334898Y-61000995D01*
X149334799Y-61001492D01*
X149334523Y-61002158D01*
X149327408Y-61025607D01*
X149325005Y-61049993D01*
X149327406Y-61074380D01*
X149334523Y-61097842D01*
X149334799Y-61098508D01*
X149334898Y-61099005D01*
X149334904Y-61099025D01*
X149334906Y-61099046D01*
X149335571Y-61102388D01*
X149335605Y-61103070D01*
X149335605Y-61496930D01*
X149335571Y-61497612D01*
X149334906Y-61500954D01*
X149334904Y-61500975D01*
X149334898Y-61500995D01*
X149334799Y-61501492D01*
X149334523Y-61502158D01*
X149327408Y-61525607D01*
X149325005Y-61549993D01*
X149327406Y-61574380D01*
X149334523Y-61597842D01*
X149334799Y-61598508D01*
X149334898Y-61599005D01*
X149334904Y-61599025D01*
X149334906Y-61599046D01*
X149335571Y-61602388D01*
X149335605Y-61603070D01*
X149335605Y-61996930D01*
X149335571Y-61997612D01*
X149334906Y-62000954D01*
X149334904Y-62000975D01*
X149334898Y-62000995D01*
X149334799Y-62001492D01*
X149334438Y-62002362D01*
X149333922Y-62003136D01*
X149333599Y-62003459D01*
X149333536Y-62003536D01*
X149333459Y-62003599D01*
X149333136Y-62003922D01*
X149332362Y-62004438D01*
X149331492Y-62004799D01*
X149330995Y-62004898D01*
X149330975Y-62004904D01*
X149330954Y-62004906D01*
X149327612Y-62005571D01*
X149326930Y-62005605D01*
X148673070Y-62005605D01*
X148672388Y-62005571D01*
X148669051Y-62004907D01*
X148669025Y-62004904D01*
X148669000Y-62004896D01*
X148659541Y-62003013D01*
X148635126Y-62000605D01*
X148353237Y-62000605D01*
X148328851Y-62003007D01*
X148305402Y-62010120D01*
X148283791Y-62021671D01*
X148264849Y-62037217D01*
X148249303Y-62056159D01*
X148237752Y-62077770D01*
X148230639Y-62101219D01*
X148228237Y-62125605D01*
X148230639Y-62149991D01*
X148237752Y-62173440D01*
X148249303Y-62195051D01*
X148264849Y-62213993D01*
X148396080Y-62345224D01*
X148400000Y-62350000D01*
X148400001Y-62350001D01*
X148400605Y-62356137D01*
X148400605Y-62735126D01*
X148403013Y-62759541D01*
X148404896Y-62769000D01*
X148404904Y-62769025D01*
X148404907Y-62769051D01*
X148405571Y-62772388D01*
X148405605Y-62773070D01*
X148405605Y-63426930D01*
X148405571Y-63427612D01*
X148404906Y-63430954D01*
X148404904Y-63430975D01*
X148404898Y-63430995D01*
X148404799Y-63431492D01*
X148404438Y-63432362D01*
X148403922Y-63433136D01*
X148403599Y-63433459D01*
X148403536Y-63433536D01*
X148403459Y-63433599D01*
X148403136Y-63433922D01*
X148402362Y-63434438D01*
X148401492Y-63434799D01*
X148400995Y-63434898D01*
X148400975Y-63434904D01*
X148400954Y-63434906D01*
X148397612Y-63435571D01*
X148396930Y-63435605D01*
X148003070Y-63435605D01*
X148002388Y-63435571D01*
X147999046Y-63434906D01*
X147999025Y-63434904D01*
X147999005Y-63434898D01*
X147998508Y-63434799D01*
X147997842Y-63434523D01*
X147974393Y-63427408D01*
X147950007Y-63425005D01*
X147925620Y-63427406D01*
X147902158Y-63434523D01*
X147901492Y-63434799D01*
X147900995Y-63434898D01*
X147900975Y-63434904D01*
X147900954Y-63434906D01*
X147897612Y-63435571D01*
X147896930Y-63435605D01*
X147503070Y-63435605D01*
X147502388Y-63435571D01*
X147499046Y-63434906D01*
X147499025Y-63434904D01*
X147499005Y-63434898D01*
X147498508Y-63434799D01*
X147497842Y-63434523D01*
X147474393Y-63427408D01*
X147450007Y-63425005D01*
X147425620Y-63427406D01*
X147402158Y-63434523D01*
X147401492Y-63434799D01*
X147400995Y-63434898D01*
X147400975Y-63434904D01*
X147400954Y-63434906D01*
X147397612Y-63435571D01*
X147396930Y-63435605D01*
X147003070Y-63435605D01*
X147002388Y-63435571D01*
X146999046Y-63434906D01*
X146999025Y-63434904D01*
X146999005Y-63434898D01*
X146998508Y-63434799D01*
X146997842Y-63434523D01*
X146974393Y-63427408D01*
X146950007Y-63425005D01*
X146925620Y-63427406D01*
X146902158Y-63434523D01*
X146901492Y-63434799D01*
X146900995Y-63434898D01*
X146900975Y-63434904D01*
X146900954Y-63434906D01*
X146897612Y-63435571D01*
X146896930Y-63435605D01*
X146503070Y-63435605D01*
X146502388Y-63435571D01*
X146499046Y-63434906D01*
X146499025Y-63434904D01*
X146499005Y-63434898D01*
X146498508Y-63434799D01*
X146497638Y-63434438D01*
X146496864Y-63433922D01*
X146496541Y-63433599D01*
X146496464Y-63433536D01*
X146496401Y-63433459D01*
X146496078Y-63433136D01*
X146495562Y-63432362D01*
X146495201Y-63431492D01*
X146495102Y-63430995D01*
X146495096Y-63430975D01*
X146495094Y-63430954D01*
X146494429Y-63427612D01*
X146494395Y-63426930D01*
X146494395Y-62773070D01*
X146494429Y-62772388D01*
X146495093Y-62769051D01*
X146495096Y-62769025D01*
X146495104Y-62769000D01*
X146496987Y-62759541D01*
X146499395Y-62735126D01*
X146499395Y-62356137D01*
X146499999Y-62350001D01*
X146500000Y-62350000D01*
X146503920Y-62345224D01*
X146635151Y-62213993D01*
X146650697Y-62195051D01*
X146662248Y-62173440D01*
X146669361Y-62149991D01*
X146671763Y-62125605D01*
X146669361Y-62101219D01*
X146662248Y-62077770D01*
X146650697Y-62056159D01*
X146635151Y-62037217D01*
X146616209Y-62021671D01*
X146594598Y-62010120D01*
X146571149Y-62003007D01*
X146546763Y-62000605D01*
X146264874Y-62000605D01*
X146240459Y-62003013D01*
X146231000Y-62004896D01*
X146230975Y-62004904D01*
X146230949Y-62004907D01*
X146227612Y-62005571D01*
X146226930Y-62005605D01*
X145573070Y-62005605D01*
X145572388Y-62005571D01*
X145569046Y-62004906D01*
X145569025Y-62004904D01*
X145569005Y-62004898D01*
X145568508Y-62004799D01*
X145567638Y-62004438D01*
X145566864Y-62003922D01*
X145566541Y-62003599D01*
X145566464Y-62003536D01*
X145566401Y-62003459D01*
X145566078Y-62003136D01*
X145565562Y-62002362D01*
X145565201Y-62001492D01*
X145565102Y-62000995D01*
X145565096Y-62000975D01*
X145565094Y-62000954D01*
X145564429Y-61997612D01*
X145564395Y-61996930D01*
X145564395Y-61603070D01*
X145564429Y-61602388D01*
X145565094Y-61599046D01*
X145565096Y-61599025D01*
X145565102Y-61599005D01*
X145565201Y-61598508D01*
X145565477Y-61597842D01*
X145572592Y-61574393D01*
X145574995Y-61550007D01*
X145572594Y-61525620D01*
X145565477Y-61502158D01*
X145565201Y-61501492D01*
X145565102Y-61500995D01*
X145565096Y-61500975D01*
X145565094Y-61500954D01*
X145564429Y-61497612D01*
X145564395Y-61496930D01*
X145564395Y-61103070D01*
X145564429Y-61102388D01*
X145565094Y-61099046D01*
X145565096Y-61099025D01*
X145565102Y-61099005D01*
X145565201Y-61098508D01*
X145565477Y-61097842D01*
X145572592Y-61074393D01*
X145574995Y-61050007D01*
X145572594Y-61025620D01*
X145565477Y-61002158D01*
X145565201Y-61001492D01*
X145565102Y-61000995D01*
X145565096Y-61000975D01*
X145565094Y-61000954D01*
X145564429Y-60997612D01*
X145564395Y-60996930D01*
X145564395Y-60625605D01*
X146728237Y-60625605D01*
X146730639Y-60649991D01*
X146737752Y-60673440D01*
X146749303Y-60695051D01*
X146764849Y-60713993D01*
X146896080Y-60845224D01*
X146900000Y-60850000D01*
X146900001Y-60850001D01*
X146900605Y-60856137D01*
X146900605Y-60993863D01*
X146900001Y-60999999D01*
X146897061Y-61009690D01*
X146895390Y-61013725D01*
X146890612Y-61037758D01*
X146890614Y-61062263D01*
X146895397Y-61086296D01*
X146897065Y-61090322D01*
X146900001Y-61100000D01*
X146900605Y-61106137D01*
X146900605Y-61493863D01*
X146900001Y-61499999D01*
X146897061Y-61509690D01*
X146895390Y-61513725D01*
X146890612Y-61537758D01*
X146890614Y-61562263D01*
X146895397Y-61586296D01*
X146897065Y-61590322D01*
X146900001Y-61600000D01*
X146900605Y-61606137D01*
X146900605Y-61743863D01*
X146900001Y-61749999D01*
X146896080Y-61754776D01*
X146764849Y-61886007D01*
X146749303Y-61904949D01*
X146737752Y-61926560D01*
X146730639Y-61950009D01*
X146728237Y-61974395D01*
X146730639Y-61998781D01*
X146737752Y-62022230D01*
X146749303Y-62043841D01*
X146764849Y-62062783D01*
X146783791Y-62078329D01*
X146805402Y-62089880D01*
X146828851Y-62096993D01*
X146853237Y-62099395D01*
X146893863Y-62099395D01*
X146899999Y-62099999D01*
X146909690Y-62102939D01*
X146913725Y-62104610D01*
X146937758Y-62109388D01*
X146962263Y-62109386D01*
X146986296Y-62104603D01*
X146990322Y-62102935D01*
X147000001Y-62099999D01*
X147006137Y-62099395D01*
X147393863Y-62099395D01*
X147399999Y-62099999D01*
X147409690Y-62102939D01*
X147413725Y-62104610D01*
X147437758Y-62109388D01*
X147462263Y-62109386D01*
X147486296Y-62104603D01*
X147490322Y-62102935D01*
X147500001Y-62099999D01*
X147506137Y-62099395D01*
X147893863Y-62099395D01*
X147899999Y-62099999D01*
X147909690Y-62102939D01*
X147913725Y-62104610D01*
X147937758Y-62109388D01*
X147962263Y-62109386D01*
X147986296Y-62104603D01*
X147990322Y-62102935D01*
X148000001Y-62099999D01*
X148006137Y-62099395D01*
X148046763Y-62099395D01*
X148071149Y-62096993D01*
X148094598Y-62089880D01*
X148116209Y-62078329D01*
X148135151Y-62062783D01*
X148150697Y-62043841D01*
X148162248Y-62022230D01*
X148169361Y-61998781D01*
X148171763Y-61974395D01*
X148169361Y-61950009D01*
X148162248Y-61926560D01*
X148150697Y-61904949D01*
X148135151Y-61886007D01*
X148003920Y-61754776D01*
X147999999Y-61749999D01*
X147999395Y-61743863D01*
X147999395Y-61606137D01*
X147999999Y-61600000D01*
X148002939Y-61590310D01*
X148004610Y-61586275D01*
X148009388Y-61562242D01*
X148009386Y-61537737D01*
X148004603Y-61513704D01*
X148002935Y-61509678D01*
X147999999Y-61499999D01*
X147999395Y-61493863D01*
X147999395Y-61106137D01*
X147999999Y-61100000D01*
X148002939Y-61090310D01*
X148004610Y-61086275D01*
X148009388Y-61062242D01*
X148009386Y-61037737D01*
X148004603Y-61013704D01*
X148002935Y-61009678D01*
X147999999Y-60999999D01*
X147999395Y-60993863D01*
X147999395Y-60856137D01*
X147999999Y-60850001D01*
X148000000Y-60850000D01*
X148003920Y-60845224D01*
X148135151Y-60713993D01*
X148150697Y-60695051D01*
X148162248Y-60673440D01*
X148169361Y-60649991D01*
X148171763Y-60625605D01*
X148169361Y-60601219D01*
X148162248Y-60577770D01*
X148150697Y-60556159D01*
X148135151Y-60537217D01*
X148116209Y-60521671D01*
X148094598Y-60510120D01*
X148071149Y-60503007D01*
X148046763Y-60500605D01*
X148006137Y-60500605D01*
X148000001Y-60500001D01*
X147990310Y-60497061D01*
X147986275Y-60495390D01*
X147962242Y-60490612D01*
X147937737Y-60490614D01*
X147913704Y-60495397D01*
X147909678Y-60497065D01*
X147899999Y-60500001D01*
X147893863Y-60500605D01*
X147506137Y-60500605D01*
X147500001Y-60500001D01*
X147490310Y-60497061D01*
X147486275Y-60495390D01*
X147462242Y-60490612D01*
X147437737Y-60490614D01*
X147413704Y-60495397D01*
X147409678Y-60497065D01*
X147399999Y-60500001D01*
X147393863Y-60500605D01*
X147006137Y-60500605D01*
X147000001Y-60500001D01*
X146990310Y-60497061D01*
X146986275Y-60495390D01*
X146962242Y-60490612D01*
X146937737Y-60490614D01*
X146913704Y-60495397D01*
X146909678Y-60497065D01*
X146899999Y-60500001D01*
X146893863Y-60500605D01*
X146853237Y-60500605D01*
X146828851Y-60503007D01*
X146805402Y-60510120D01*
X146783791Y-60521671D01*
X146764849Y-60537217D01*
X146749303Y-60556159D01*
X146737752Y-60577770D01*
X146730639Y-60601219D01*
X146728237Y-60625605D01*
X145564395Y-60625605D01*
X145564395Y-60603070D01*
X145564429Y-60602388D01*
X145565094Y-60599046D01*
X145565096Y-60599025D01*
X145565102Y-60599005D01*
X145565201Y-60598508D01*
X145565562Y-60597638D01*
X145566078Y-60596864D01*
X145566401Y-60596541D01*
X145566464Y-60596464D01*
X145566541Y-60596401D01*
X145566864Y-60596078D01*
X145567638Y-60595562D01*
X145568508Y-60595201D01*
X145569005Y-60595102D01*
X145569025Y-60595096D01*
X145569046Y-60595094D01*
X145572388Y-60594429D01*
X145573070Y-60594395D01*
X146226930Y-60594395D01*
X146227612Y-60594429D01*
X146230949Y-60595093D01*
X146230975Y-60595096D01*
X146231000Y-60595104D01*
X146240459Y-60596987D01*
X146264874Y-60599395D01*
X146546763Y-60599395D01*
X146571149Y-60596993D01*
X146594598Y-60589880D01*
X146616209Y-60578329D01*
X146635151Y-60562783D01*
X146650697Y-60543841D01*
X146662248Y-60522230D01*
X146669361Y-60498781D01*
X146671763Y-60474395D01*
X146669361Y-60450009D01*
X146662248Y-60426560D01*
X146650697Y-60404949D01*
X146635151Y-60386007D01*
X146503920Y-60254776D01*
X146499999Y-60249999D01*
X146499395Y-60243863D01*
X146499395Y-59864874D01*
X146496987Y-59840459D01*
X146495104Y-59831000D01*
X146495096Y-59830975D01*
X146495093Y-59830949D01*
X146494429Y-59827612D01*
X146494395Y-59826930D01*
X146494395Y-59173070D01*
X146494429Y-59172388D01*
X146495094Y-59169046D01*
X146495096Y-59169025D01*
X146495102Y-59169005D01*
X146495201Y-59168508D01*
X146495562Y-59167638D01*
X146496078Y-59166864D01*
X146496401Y-59166541D01*
X146496464Y-59166464D01*
X146496541Y-59166401D01*
X146496864Y-59166078D01*
X146497638Y-59165562D01*
X146498508Y-59165201D01*
X146499005Y-59165102D01*
X146499025Y-59165096D01*
X146499046Y-59165094D01*
X146502388Y-59164429D01*
X146503070Y-59164395D01*
X146896930Y-59164395D01*
X146897612Y-59164429D01*
X146897612Y-59164429D01*
G37*
G36*
X144464024Y-61828351D02*
X144496736Y-61838275D01*
X144526890Y-61854393D01*
X144553316Y-61876080D01*
X144575003Y-61902506D01*
X144591121Y-61932660D01*
X144601045Y-61965372D01*
X144605000Y-62005534D01*
X144605000Y-62593258D01*
X144601045Y-62633420D01*
X144591121Y-62666132D01*
X144575003Y-62696286D01*
X144553316Y-62722712D01*
X144526890Y-62744399D01*
X144496736Y-62760517D01*
X144464024Y-62770441D01*
X144423862Y-62774396D01*
X143736138Y-62774396D01*
X143695976Y-62770441D01*
X143663264Y-62760517D01*
X143633110Y-62744399D01*
X143606684Y-62722712D01*
X143584997Y-62696286D01*
X143568879Y-62666132D01*
X143558955Y-62633420D01*
X143555000Y-62593258D01*
X143555000Y-62005534D01*
X143558955Y-61965372D01*
X143568879Y-61932660D01*
X143584997Y-61902506D01*
X143606684Y-61876080D01*
X143633110Y-61854393D01*
X143663264Y-61838275D01*
X143695976Y-61828351D01*
X143736138Y-61824396D01*
X144423862Y-61824396D01*
X144464024Y-61828351D01*
X144464024Y-61828351D01*
G37*
G36*
X142714024Y-61828351D02*
X142746736Y-61838275D01*
X142776890Y-61854393D01*
X142803316Y-61876080D01*
X142825003Y-61902506D01*
X142841121Y-61932660D01*
X142851045Y-61965372D01*
X142855000Y-62005534D01*
X142855000Y-62593258D01*
X142851045Y-62633420D01*
X142841121Y-62666132D01*
X142825003Y-62696286D01*
X142803316Y-62722712D01*
X142776890Y-62744399D01*
X142746736Y-62760517D01*
X142714024Y-62770441D01*
X142673862Y-62774396D01*
X141986138Y-62774396D01*
X141945976Y-62770441D01*
X141913264Y-62760517D01*
X141883110Y-62744399D01*
X141856684Y-62722712D01*
X141834997Y-62696286D01*
X141818879Y-62666132D01*
X141808955Y-62633420D01*
X141805000Y-62593258D01*
X141805000Y-62005534D01*
X141808955Y-61965372D01*
X141818879Y-61932660D01*
X141834997Y-61902506D01*
X141856684Y-61876080D01*
X141883110Y-61854393D01*
X141913264Y-61838275D01*
X141945976Y-61828351D01*
X141986138Y-61824396D01*
X142673862Y-61824396D01*
X142714024Y-61828351D01*
X142714024Y-61828351D01*
G37*
G36*
X127060000Y-62220000D02*
X126060000Y-62220000D01*
X126060000Y-61220000D01*
X127060000Y-61220000D01*
X127060000Y-62220000D01*
X127060000Y-62220000D01*
G37*
G36*
X129560000Y-62220000D02*
X128560000Y-62220000D01*
X128560000Y-61220000D01*
X129560000Y-61220000D01*
X129560000Y-62220000D01*
X129560000Y-62220000D01*
G37*
G36*
X123369024Y-61258955D02*
X123401736Y-61268879D01*
X123431890Y-61284997D01*
X123458316Y-61306684D01*
X123480003Y-61333110D01*
X123496121Y-61363264D01*
X123506045Y-61395976D01*
X123510000Y-61436138D01*
X123510000Y-62023862D01*
X123506045Y-62064024D01*
X123496121Y-62096736D01*
X123480003Y-62126890D01*
X123458316Y-62153316D01*
X123431890Y-62175003D01*
X123401736Y-62191121D01*
X123369024Y-62201045D01*
X123328862Y-62205000D01*
X122641138Y-62205000D01*
X122600976Y-62201045D01*
X122568264Y-62191121D01*
X122538110Y-62175003D01*
X122511684Y-62153316D01*
X122489997Y-62126890D01*
X122473879Y-62096736D01*
X122463955Y-62064024D01*
X122460000Y-62023862D01*
X122460000Y-61436138D01*
X122463955Y-61395976D01*
X122473879Y-61363264D01*
X122489997Y-61333110D01*
X122511684Y-61306684D01*
X122538110Y-61284997D01*
X122568264Y-61268879D01*
X122600976Y-61258955D01*
X122641138Y-61255000D01*
X123328862Y-61255000D01*
X123369024Y-61258955D01*
X123369024Y-61258955D01*
G37*
G36*
X125119024Y-61258955D02*
X125151736Y-61268879D01*
X125181890Y-61284997D01*
X125208316Y-61306684D01*
X125230003Y-61333110D01*
X125246121Y-61363264D01*
X125256045Y-61395976D01*
X125260000Y-61436138D01*
X125260000Y-62023862D01*
X125256045Y-62064024D01*
X125246121Y-62096736D01*
X125230003Y-62126890D01*
X125208316Y-62153316D01*
X125181890Y-62175003D01*
X125151736Y-62191121D01*
X125119024Y-62201045D01*
X125078862Y-62205000D01*
X124391138Y-62205000D01*
X124350976Y-62201045D01*
X124318264Y-62191121D01*
X124288110Y-62175003D01*
X124261684Y-62153316D01*
X124239997Y-62126890D01*
X124223879Y-62096736D01*
X124213955Y-62064024D01*
X124210000Y-62023862D01*
X124210000Y-61436138D01*
X124213955Y-61395976D01*
X124223879Y-61363264D01*
X124239997Y-61333110D01*
X124261684Y-61306684D01*
X124288110Y-61284997D01*
X124318264Y-61268879D01*
X124350976Y-61258955D01*
X124391138Y-61255000D01*
X125078862Y-61255000D01*
X125119024Y-61258955D01*
X125119024Y-61258955D01*
G37*
G36*
X116044024Y-60528955D02*
X116076736Y-60538879D01*
X116106890Y-60554997D01*
X116133316Y-60576684D01*
X116155003Y-60603110D01*
X116171121Y-60633264D01*
X116181045Y-60665976D01*
X116185000Y-60706138D01*
X116185000Y-61293862D01*
X116181045Y-61334024D01*
X116171121Y-61366736D01*
X116155003Y-61396890D01*
X116133316Y-61423316D01*
X116106890Y-61445003D01*
X116076736Y-61461121D01*
X116044024Y-61471045D01*
X116003862Y-61475000D01*
X115316138Y-61475000D01*
X115275976Y-61471045D01*
X115243264Y-61461121D01*
X115213110Y-61445003D01*
X115186684Y-61423316D01*
X115164997Y-61396890D01*
X115148879Y-61366736D01*
X115138955Y-61334024D01*
X115135000Y-61293862D01*
X115135000Y-60706138D01*
X115138955Y-60665976D01*
X115148879Y-60633264D01*
X115164997Y-60603110D01*
X115186684Y-60576684D01*
X115213110Y-60554997D01*
X115243264Y-60538879D01*
X115275976Y-60528955D01*
X115316138Y-60525000D01*
X116003862Y-60525000D01*
X116044024Y-60528955D01*
X116044024Y-60528955D01*
G37*
G36*
X114294024Y-60528955D02*
X114326736Y-60538879D01*
X114356890Y-60554997D01*
X114383316Y-60576684D01*
X114405003Y-60603110D01*
X114421121Y-60633264D01*
X114431045Y-60665976D01*
X114435000Y-60706138D01*
X114435000Y-61293862D01*
X114431045Y-61334024D01*
X114421121Y-61366736D01*
X114405003Y-61396890D01*
X114383316Y-61423316D01*
X114356890Y-61445003D01*
X114326736Y-61461121D01*
X114294024Y-61471045D01*
X114253862Y-61475000D01*
X113566138Y-61475000D01*
X113525976Y-61471045D01*
X113493264Y-61461121D01*
X113463110Y-61445003D01*
X113436684Y-61423316D01*
X113414997Y-61396890D01*
X113398879Y-61366736D01*
X113388955Y-61334024D01*
X113385000Y-61293862D01*
X113385000Y-60706138D01*
X113388955Y-60665976D01*
X113398879Y-60633264D01*
X113414997Y-60603110D01*
X113436684Y-60576684D01*
X113463110Y-60554997D01*
X113493264Y-60538879D01*
X113525976Y-60528955D01*
X113566138Y-60525000D01*
X114253862Y-60525000D01*
X114294024Y-60528955D01*
X114294024Y-60528955D01*
G37*
M02*
