G04 #@! TF.GenerationSoftware,KiCad,Pcbnew,5.0.2-bee76a0~70~ubuntu18.04.1*
G04 #@! TF.CreationDate,2020-07-09T21:56:47-07:00*
G04 #@! TF.ProjectId,light_thing_hw,6c696768-745f-4746-9869-6e675f68772e,rev?*
G04 #@! TF.SameCoordinates,Original*
G04 #@! TF.FileFunction,Legend,Top*
G04 #@! TF.FilePolarity,Positive*
%FSLAX46Y46*%
G04 Gerber Fmt 4.6, Leading zero omitted, Abs format (unit mm)*
G04 Created by KiCad (PCBNEW 5.0.2-bee76a0~70~ubuntu18.04.1) date Thu 09 Jul 2020 09:56:47 PM PDT*
%MOMM*%
%LPD*%
G01*
G04 APERTURE LIST*
%ADD10C,0.200000*%
%ADD11C,0.250000*%
%ADD12C,1.000000*%
%ADD13C,0.150000*%
%ADD14C,0.120000*%
G04 APERTURE END LIST*
D10*
X118110000Y-67056000D02*
X118110000Y-86614000D01*
X138000000Y-86558000D02*
X138000000Y-67000000D01*
X138000000Y-67000000D02*
X118000000Y-67000000D01*
X118000000Y-86614000D02*
X138000000Y-86614000D01*
X142300000Y-99600000D02*
X142800000Y-99200000D01*
X142850000Y-100150000D02*
X142300000Y-100600000D01*
X142850000Y-99150000D02*
X142850000Y-100150000D01*
X141850000Y-99150000D02*
X142850000Y-99150000D01*
X141300000Y-99550000D02*
X141850000Y-99150000D01*
X142300000Y-100600000D02*
X141300000Y-100600000D01*
X142300000Y-99550000D02*
X142300000Y-100600000D01*
X141300000Y-99550000D02*
X142300000Y-99550000D01*
X141300000Y-100550000D02*
X141300000Y-99550000D01*
D11*
X118690476Y-100452380D02*
X118214285Y-100452380D01*
X118214285Y-99452380D01*
X119785714Y-100452380D02*
X119785714Y-99785714D01*
X119785714Y-99452380D02*
X119738095Y-99500000D01*
X119785714Y-99547619D01*
X119833333Y-99500000D01*
X119785714Y-99452380D01*
X119785714Y-99547619D01*
X121452380Y-99785714D02*
X121452380Y-100595238D01*
X121404761Y-100690476D01*
X121357142Y-100738095D01*
X121261904Y-100785714D01*
X121119047Y-100785714D01*
X121023809Y-100738095D01*
X121452380Y-100404761D02*
X121357142Y-100452380D01*
X121166666Y-100452380D01*
X121071428Y-100404761D01*
X121023809Y-100357142D01*
X120976190Y-100261904D01*
X120976190Y-99976190D01*
X121023809Y-99880952D01*
X121071428Y-99833333D01*
X121166666Y-99785714D01*
X121357142Y-99785714D01*
X121452380Y-99833333D01*
X122690476Y-100452380D02*
X122690476Y-99452380D01*
X123119047Y-100452380D02*
X123119047Y-99928571D01*
X123071428Y-99833333D01*
X122976190Y-99785714D01*
X122833333Y-99785714D01*
X122738095Y-99833333D01*
X122690476Y-99880952D01*
X124214285Y-99785714D02*
X124595238Y-99785714D01*
X124357142Y-99452380D02*
X124357142Y-100309523D01*
X124404761Y-100404761D01*
X124500000Y-100452380D01*
X124595238Y-100452380D01*
X126261904Y-100357142D02*
X126214285Y-100404761D01*
X126071428Y-100452380D01*
X125976190Y-100452380D01*
X125833333Y-100404761D01*
X125738095Y-100309523D01*
X125690476Y-100214285D01*
X125642857Y-100023809D01*
X125642857Y-99880952D01*
X125690476Y-99690476D01*
X125738095Y-99595238D01*
X125833333Y-99500000D01*
X125976190Y-99452380D01*
X126071428Y-99452380D01*
X126214285Y-99500000D01*
X126261904Y-99547619D01*
X127880952Y-99785714D02*
X127880952Y-100452380D01*
X127452380Y-99785714D02*
X127452380Y-100309523D01*
X127500000Y-100404761D01*
X127595238Y-100452380D01*
X127738095Y-100452380D01*
X127833333Y-100404761D01*
X127880952Y-100357142D01*
X129119047Y-100452380D02*
X129119047Y-99452380D01*
X129119047Y-99833333D02*
X129214285Y-99785714D01*
X129404761Y-99785714D01*
X129500000Y-99833333D01*
X129547619Y-99880952D01*
X129595238Y-99976190D01*
X129595238Y-100261904D01*
X129547619Y-100357142D01*
X129500000Y-100404761D01*
X129404761Y-100452380D01*
X129214285Y-100452380D01*
X129119047Y-100404761D01*
X131166666Y-100404761D02*
X131071428Y-100452380D01*
X130880952Y-100452380D01*
X130785714Y-100404761D01*
X130738095Y-100309523D01*
X130738095Y-99928571D01*
X130785714Y-99833333D01*
X130880952Y-99785714D01*
X131071428Y-99785714D01*
X131166666Y-99833333D01*
X131214285Y-99928571D01*
X131214285Y-100023809D01*
X130738095Y-100119047D01*
X132404761Y-100071428D02*
X133166666Y-100071428D01*
X134404761Y-100452380D02*
X134404761Y-99452380D01*
X134404761Y-99928571D02*
X134976190Y-99928571D01*
X134976190Y-100452380D02*
X134976190Y-99452380D01*
X135357142Y-99785714D02*
X135547619Y-100452380D01*
X135738095Y-99976190D01*
X135928571Y-100452380D01*
X136119047Y-99785714D01*
X136357142Y-99452380D02*
X136690476Y-100452380D01*
X137023809Y-99452380D01*
X137738095Y-100404761D02*
X137642857Y-100452380D01*
X137452380Y-100452380D01*
X137357142Y-100404761D01*
X137309523Y-100309523D01*
X137309523Y-99928571D01*
X137357142Y-99833333D01*
X137452380Y-99785714D01*
X137642857Y-99785714D01*
X137738095Y-99833333D01*
X137785714Y-99928571D01*
X137785714Y-100023809D01*
X137309523Y-100119047D01*
X138214285Y-100452380D02*
X138214285Y-99785714D01*
X138214285Y-99976190D02*
X138261904Y-99880952D01*
X138309523Y-99833333D01*
X138404761Y-99785714D01*
X138500000Y-99785714D01*
X138833333Y-100357142D02*
X138880952Y-100404761D01*
X138833333Y-100452380D01*
X138785714Y-100404761D01*
X138833333Y-100357142D01*
X138833333Y-100452380D01*
X138833333Y-99833333D02*
X138880952Y-99880952D01*
X138833333Y-99928571D01*
X138785714Y-99880952D01*
X138833333Y-99833333D01*
X138833333Y-99928571D01*
X139833333Y-100452380D02*
X139261904Y-100452380D01*
X139547619Y-100452380D02*
X139547619Y-99452380D01*
X139452380Y-99595238D01*
X139357142Y-99690476D01*
X139261904Y-99738095D01*
D12*
X147000000Y-96000000D02*
X147000000Y-66000000D01*
X117000000Y-96000000D02*
X147000000Y-96000000D01*
X117000000Y-66000000D02*
X117000000Y-96000000D01*
X147000000Y-66000000D02*
X117000000Y-66000000D01*
D13*
G04 #@! TO.C,U5A1*
X132489571Y-70198695D02*
X132489571Y-69173695D01*
X133564571Y-80548695D02*
X133564571Y-79473695D01*
X123214571Y-80548695D02*
X123214571Y-79473695D01*
X123214571Y-70198695D02*
X123214571Y-71273695D01*
X133564571Y-70198695D02*
X133564571Y-71273695D01*
X123214571Y-70198695D02*
X124289571Y-70198695D01*
X123214571Y-80548695D02*
X124289571Y-80548695D01*
X133564571Y-80548695D02*
X132489571Y-80548695D01*
X133564571Y-70198695D02*
X132489571Y-70198695D01*
D14*
G04 #@! TO.C,C1*
X135249571Y-70954962D02*
X135249571Y-70612428D01*
X136269571Y-70954962D02*
X136269571Y-70612428D01*
G04 #@! TO.C,C2*
X133019892Y-84323103D02*
X133362426Y-84323103D01*
X133019892Y-83303103D02*
X133362426Y-83303103D01*
G04 #@! TO.C,C3*
X121409571Y-79967428D02*
X121409571Y-80309962D01*
X120389571Y-79967428D02*
X120389571Y-80309962D01*
G04 #@! TO.C,C4*
X120389571Y-72967428D02*
X120389571Y-73309962D01*
X121409571Y-72967428D02*
X121409571Y-73309962D01*
G04 #@! TO.C,C7*
X118521626Y-73303433D02*
X118521626Y-72960899D01*
X119541626Y-73303433D02*
X119541626Y-72960899D01*
G04 #@! TO.C,C9*
X131153733Y-94280000D02*
X131496267Y-94280000D01*
X131153733Y-93260000D02*
X131496267Y-93260000D01*
G04 #@! TO.C,C16*
X130862426Y-68323103D02*
X130519892Y-68323103D01*
X130862426Y-67303103D02*
X130519892Y-67303103D01*
G04 #@! TO.C,C17*
X125612426Y-67303103D02*
X125269892Y-67303103D01*
X125612426Y-68323103D02*
X125269892Y-68323103D01*
G04 #@! TO.C,J1*
X143054000Y-78817000D02*
X143764000Y-78817000D01*
X143054000Y-79502000D02*
X143054000Y-78817000D01*
X145158493Y-78942000D02*
X145474000Y-78942000D01*
X143054000Y-80187000D02*
X143155724Y-80187000D01*
X145474000Y-78942000D02*
X145474000Y-84062000D01*
X143054000Y-80187000D02*
X143054000Y-84062000D01*
X144158493Y-84062000D02*
X144369507Y-84062000D01*
X145158493Y-84062000D02*
X145474000Y-84062000D01*
X143054000Y-84062000D02*
X143369507Y-84062000D01*
G04 #@! TO.C,J3*
X145522740Y-68004132D02*
X145207233Y-68004132D01*
X143418247Y-68004132D02*
X143102740Y-68004132D01*
X144418247Y-68004132D02*
X144207233Y-68004132D01*
X145522740Y-68879132D02*
X145522740Y-68004132D01*
X143102740Y-70124132D02*
X143102740Y-68004132D01*
X145522740Y-68879132D02*
X145421016Y-68879132D01*
X143418247Y-70124132D02*
X143102740Y-70124132D01*
X145522740Y-69564132D02*
X145522740Y-70249132D01*
X145522740Y-70249132D02*
X144812740Y-70249132D01*
G04 #@! TO.C,J4*
X143054000Y-72975000D02*
X143764000Y-72975000D01*
X143054000Y-73660000D02*
X143054000Y-72975000D01*
X145158493Y-73100000D02*
X145474000Y-73100000D01*
X143054000Y-74345000D02*
X143155724Y-74345000D01*
X145474000Y-73100000D02*
X145474000Y-75220000D01*
X143054000Y-74345000D02*
X143054000Y-75220000D01*
X144158493Y-75220000D02*
X144369507Y-75220000D01*
X145158493Y-75220000D02*
X145474000Y-75220000D01*
X143054000Y-75220000D02*
X143369507Y-75220000D01*
G04 #@! TO.C,R5*
X136367733Y-74424000D02*
X136710267Y-74424000D01*
X136367733Y-73404000D02*
X136710267Y-73404000D01*
G04 #@! TO.C,R10*
X130099571Y-84549962D02*
X130099571Y-84207428D01*
X131119571Y-84549962D02*
X131119571Y-84207428D01*
G04 #@! TO.C,R11*
X128499571Y-84549962D02*
X128499571Y-84207428D01*
X129519571Y-84549962D02*
X129519571Y-84207428D01*
G04 #@! TO.C,R12*
X118521626Y-80303433D02*
X118521626Y-79960899D01*
X119541626Y-80303433D02*
X119541626Y-79960899D01*
G04 #@! TO.C,R13*
X120033304Y-83213695D02*
X120375838Y-83213695D01*
X120033304Y-84233695D02*
X120375838Y-84233695D01*
G04 #@! TO.C,SW2*
X120360000Y-90730000D02*
X126480000Y-90730000D01*
X126480000Y-90730000D02*
X126480000Y-94430000D01*
X126480000Y-94430000D02*
X120360000Y-94430000D01*
X120360000Y-94430000D02*
X120360000Y-90730000D01*
G04 #@! TO.C,TP1*
X137900000Y-90350000D02*
G75*
G03X137900000Y-90350000I-700000J0D01*
G01*
G04 #@! TO.C,U5A1*
D13*
X135841951Y-85040361D02*
X136651475Y-85040361D01*
X136746713Y-84992742D01*
X136794332Y-84945123D01*
X136841951Y-84849885D01*
X136841951Y-84659409D01*
X136794332Y-84564171D01*
X136746713Y-84516552D01*
X136651475Y-84468933D01*
X135841951Y-84468933D01*
X135841951Y-83516552D02*
X135841951Y-83992742D01*
X136318142Y-84040361D01*
X136270523Y-83992742D01*
X136222904Y-83897504D01*
X136222904Y-83659409D01*
X136270523Y-83564171D01*
X136318142Y-83516552D01*
X136413380Y-83468933D01*
X136651475Y-83468933D01*
X136746713Y-83516552D01*
X136794332Y-83564171D01*
X136841951Y-83659409D01*
X136841951Y-83897504D01*
X136794332Y-83992742D01*
X136746713Y-84040361D01*
X136556237Y-83087980D02*
X136556237Y-82611790D01*
X136841951Y-83183218D02*
X135841951Y-82849885D01*
X136841951Y-82516552D01*
X136841951Y-81659409D02*
X136841951Y-82230837D01*
X136841951Y-81945123D02*
X135841951Y-81945123D01*
X135984809Y-82040361D01*
X136080047Y-82135599D01*
X136127666Y-82230837D01*
G04 #@! TO.C,C1*
X136423301Y-67979769D02*
X136470920Y-68027388D01*
X136518539Y-68170245D01*
X136518539Y-68265483D01*
X136470920Y-68408341D01*
X136375682Y-68503579D01*
X136280444Y-68551198D01*
X136089968Y-68598817D01*
X135947111Y-68598817D01*
X135756635Y-68551198D01*
X135661397Y-68503579D01*
X135566159Y-68408341D01*
X135518539Y-68265483D01*
X135518539Y-68170245D01*
X135566159Y-68027388D01*
X135613778Y-67979769D01*
X136518539Y-67027388D02*
X136518539Y-67598817D01*
X136518539Y-67313103D02*
X135518539Y-67313103D01*
X135661397Y-67408341D01*
X135756635Y-67503579D01*
X135804254Y-67598817D01*
G04 #@! TO.C,C2*
X133794492Y-82170245D02*
X133746873Y-82217864D01*
X133604016Y-82265483D01*
X133508778Y-82265483D01*
X133365920Y-82217864D01*
X133270682Y-82122626D01*
X133223063Y-82027388D01*
X133175444Y-81836912D01*
X133175444Y-81694055D01*
X133223063Y-81503579D01*
X133270682Y-81408341D01*
X133365920Y-81313103D01*
X133508778Y-81265483D01*
X133604016Y-81265483D01*
X133746873Y-81313103D01*
X133794492Y-81360722D01*
X134175444Y-81360722D02*
X134223063Y-81313103D01*
X134318301Y-81265483D01*
X134556397Y-81265483D01*
X134651635Y-81313103D01*
X134699254Y-81360722D01*
X134746873Y-81455960D01*
X134746873Y-81551198D01*
X134699254Y-81694055D01*
X134127825Y-82265483D01*
X134746873Y-82265483D01*
G04 #@! TO.C,C3*
X121256713Y-77180361D02*
X121304332Y-77227980D01*
X121351951Y-77370837D01*
X121351951Y-77466075D01*
X121304332Y-77608933D01*
X121209094Y-77704171D01*
X121113856Y-77751790D01*
X120923380Y-77799409D01*
X120780523Y-77799409D01*
X120590047Y-77751790D01*
X120494809Y-77704171D01*
X120399571Y-77608933D01*
X120351951Y-77466075D01*
X120351951Y-77370837D01*
X120399571Y-77227980D01*
X120447190Y-77180361D01*
X120351951Y-76847028D02*
X120351951Y-76227980D01*
X120732904Y-76561314D01*
X120732904Y-76418456D01*
X120780523Y-76323218D01*
X120828142Y-76275599D01*
X120923380Y-76227980D01*
X121161475Y-76227980D01*
X121256713Y-76275599D01*
X121304332Y-76323218D01*
X121351951Y-76418456D01*
X121351951Y-76704171D01*
X121304332Y-76799409D01*
X121256713Y-76847028D01*
G04 #@! TO.C,C4*
X121256713Y-70180361D02*
X121304332Y-70227980D01*
X121351951Y-70370837D01*
X121351951Y-70466075D01*
X121304332Y-70608933D01*
X121209094Y-70704171D01*
X121113856Y-70751790D01*
X120923380Y-70799409D01*
X120780523Y-70799409D01*
X120590047Y-70751790D01*
X120494809Y-70704171D01*
X120399571Y-70608933D01*
X120351951Y-70466075D01*
X120351951Y-70370837D01*
X120399571Y-70227980D01*
X120447190Y-70180361D01*
X120685285Y-69323218D02*
X121351951Y-69323218D01*
X120304332Y-69561314D02*
X121018618Y-69799409D01*
X121018618Y-69180361D01*
G04 #@! TO.C,C7*
X119386713Y-70110361D02*
X119434332Y-70157980D01*
X119481951Y-70300837D01*
X119481951Y-70396075D01*
X119434332Y-70538933D01*
X119339094Y-70634171D01*
X119243856Y-70681790D01*
X119053380Y-70729409D01*
X118910523Y-70729409D01*
X118720047Y-70681790D01*
X118624809Y-70634171D01*
X118529571Y-70538933D01*
X118481951Y-70396075D01*
X118481951Y-70300837D01*
X118529571Y-70157980D01*
X118577190Y-70110361D01*
X118481951Y-69777028D02*
X118481951Y-69110361D01*
X119481951Y-69538933D01*
G04 #@! TO.C,C9*
X131158333Y-92697142D02*
X131110714Y-92744761D01*
X130967857Y-92792380D01*
X130872619Y-92792380D01*
X130729761Y-92744761D01*
X130634523Y-92649523D01*
X130586904Y-92554285D01*
X130539285Y-92363809D01*
X130539285Y-92220952D01*
X130586904Y-92030476D01*
X130634523Y-91935238D01*
X130729761Y-91840000D01*
X130872619Y-91792380D01*
X130967857Y-91792380D01*
X131110714Y-91840000D01*
X131158333Y-91887619D01*
X131634523Y-92792380D02*
X131825000Y-92792380D01*
X131920238Y-92744761D01*
X131967857Y-92697142D01*
X132063095Y-92554285D01*
X132110714Y-92363809D01*
X132110714Y-91982857D01*
X132063095Y-91887619D01*
X132015476Y-91840000D01*
X131920238Y-91792380D01*
X131729761Y-91792380D01*
X131634523Y-91840000D01*
X131586904Y-91887619D01*
X131539285Y-91982857D01*
X131539285Y-92220952D01*
X131586904Y-92316190D01*
X131634523Y-92363809D01*
X131729761Y-92411428D01*
X131920238Y-92411428D01*
X132015476Y-92363809D01*
X132063095Y-92316190D01*
X132110714Y-92220952D01*
G04 #@! TO.C,C16*
X133423301Y-68170245D02*
X133375682Y-68217864D01*
X133232825Y-68265483D01*
X133137587Y-68265483D01*
X132994730Y-68217864D01*
X132899492Y-68122626D01*
X132851873Y-68027388D01*
X132804254Y-67836912D01*
X132804254Y-67694055D01*
X132851873Y-67503579D01*
X132899492Y-67408341D01*
X132994730Y-67313103D01*
X133137587Y-67265483D01*
X133232825Y-67265483D01*
X133375682Y-67313103D01*
X133423301Y-67360722D01*
X134375682Y-68265483D02*
X133804254Y-68265483D01*
X134089968Y-68265483D02*
X134089968Y-67265483D01*
X133994730Y-67408341D01*
X133899492Y-67503579D01*
X133804254Y-67551198D01*
X135232825Y-67265483D02*
X135042349Y-67265483D01*
X134947111Y-67313103D01*
X134899492Y-67360722D01*
X134804254Y-67503579D01*
X134756635Y-67694055D01*
X134756635Y-68075007D01*
X134804254Y-68170245D01*
X134851873Y-68217864D01*
X134947111Y-68265483D01*
X135137587Y-68265483D01*
X135232825Y-68217864D01*
X135280444Y-68170245D01*
X135328063Y-68075007D01*
X135328063Y-67836912D01*
X135280444Y-67741674D01*
X135232825Y-67694055D01*
X135137587Y-67646436D01*
X134947111Y-67646436D01*
X134851873Y-67694055D01*
X134804254Y-67741674D01*
X134756635Y-67836912D01*
G04 #@! TO.C,C17*
X121423301Y-68170245D02*
X121375682Y-68217864D01*
X121232825Y-68265483D01*
X121137587Y-68265483D01*
X120994730Y-68217864D01*
X120899492Y-68122626D01*
X120851873Y-68027388D01*
X120804254Y-67836912D01*
X120804254Y-67694055D01*
X120851873Y-67503579D01*
X120899492Y-67408341D01*
X120994730Y-67313103D01*
X121137587Y-67265483D01*
X121232825Y-67265483D01*
X121375682Y-67313103D01*
X121423301Y-67360722D01*
X122375682Y-68265483D02*
X121804254Y-68265483D01*
X122089968Y-68265483D02*
X122089968Y-67265483D01*
X121994730Y-67408341D01*
X121899492Y-67503579D01*
X121804254Y-67551198D01*
X122709016Y-67265483D02*
X123375682Y-67265483D01*
X122947111Y-68265483D01*
G04 #@! TO.C,J1*
X143930666Y-77394380D02*
X143930666Y-78108666D01*
X143883047Y-78251523D01*
X143787809Y-78346761D01*
X143644952Y-78394380D01*
X143549714Y-78394380D01*
X144930666Y-78394380D02*
X144359238Y-78394380D01*
X144644952Y-78394380D02*
X144644952Y-77394380D01*
X144549714Y-77537238D01*
X144454476Y-77632476D01*
X144359238Y-77680095D01*
G04 #@! TO.C,J3*
X143979406Y-66256512D02*
X143979406Y-66970798D01*
X143931787Y-67113655D01*
X143836549Y-67208893D01*
X143693692Y-67256512D01*
X143598454Y-67256512D01*
X144360359Y-66256512D02*
X144979406Y-66256512D01*
X144646073Y-66637465D01*
X144788930Y-66637465D01*
X144884168Y-66685084D01*
X144931787Y-66732703D01*
X144979406Y-66827941D01*
X144979406Y-67066036D01*
X144931787Y-67161274D01*
X144884168Y-67208893D01*
X144788930Y-67256512D01*
X144503216Y-67256512D01*
X144407978Y-67208893D01*
X144360359Y-67161274D01*
G04 #@! TO.C,J4*
X143930666Y-75872380D02*
X143930666Y-76586666D01*
X143883047Y-76729523D01*
X143787809Y-76824761D01*
X143644952Y-76872380D01*
X143549714Y-76872380D01*
X144835428Y-76205714D02*
X144835428Y-76872380D01*
X144597333Y-75824761D02*
X144359238Y-76539047D01*
X144978285Y-76539047D01*
G04 #@! TO.C,R5*
X136231333Y-75890380D02*
X135898000Y-75414190D01*
X135659904Y-75890380D02*
X135659904Y-74890380D01*
X136040857Y-74890380D01*
X136136095Y-74938000D01*
X136183714Y-74985619D01*
X136231333Y-75080857D01*
X136231333Y-75223714D01*
X136183714Y-75318952D01*
X136136095Y-75366571D01*
X136040857Y-75414190D01*
X135659904Y-75414190D01*
X137136095Y-74890380D02*
X136659904Y-74890380D01*
X136612285Y-75366571D01*
X136659904Y-75318952D01*
X136755142Y-75271333D01*
X136993238Y-75271333D01*
X137088476Y-75318952D01*
X137136095Y-75366571D01*
X137183714Y-75461809D01*
X137183714Y-75699904D01*
X137136095Y-75795142D01*
X137088476Y-75842761D01*
X136993238Y-75890380D01*
X136755142Y-75890380D01*
X136659904Y-75842761D01*
X136612285Y-75795142D01*
G04 #@! TO.C,R10*
X132423301Y-86265483D02*
X132089968Y-85789293D01*
X131851873Y-86265483D02*
X131851873Y-85265483D01*
X132232825Y-85265483D01*
X132328063Y-85313103D01*
X132375682Y-85360722D01*
X132423301Y-85455960D01*
X132423301Y-85598817D01*
X132375682Y-85694055D01*
X132328063Y-85741674D01*
X132232825Y-85789293D01*
X131851873Y-85789293D01*
X133375682Y-86265483D02*
X132804254Y-86265483D01*
X133089968Y-86265483D02*
X133089968Y-85265483D01*
X132994730Y-85408341D01*
X132899492Y-85503579D01*
X132804254Y-85551198D01*
X133994730Y-85265483D02*
X134089968Y-85265483D01*
X134185206Y-85313103D01*
X134232825Y-85360722D01*
X134280444Y-85455960D01*
X134328063Y-85646436D01*
X134328063Y-85884531D01*
X134280444Y-86075007D01*
X134232825Y-86170245D01*
X134185206Y-86217864D01*
X134089968Y-86265483D01*
X133994730Y-86265483D01*
X133899492Y-86217864D01*
X133851873Y-86170245D01*
X133804254Y-86075007D01*
X133756635Y-85884531D01*
X133756635Y-85646436D01*
X133804254Y-85455960D01*
X133851873Y-85360722D01*
X133899492Y-85313103D01*
X133994730Y-85265483D01*
G04 #@! TO.C,R11*
X126867190Y-83580837D02*
X127343380Y-83247504D01*
X126867190Y-83009409D02*
X127867190Y-83009409D01*
X127867190Y-83390361D01*
X127819571Y-83485599D01*
X127771951Y-83533218D01*
X127676713Y-83580837D01*
X127533856Y-83580837D01*
X127438618Y-83533218D01*
X127390999Y-83485599D01*
X127343380Y-83390361D01*
X127343380Y-83009409D01*
X126867190Y-84533218D02*
X126867190Y-83961790D01*
X126867190Y-84247504D02*
X127867190Y-84247504D01*
X127724332Y-84152266D01*
X127629094Y-84057028D01*
X127581475Y-83961790D01*
X126867190Y-85485599D02*
X126867190Y-84914171D01*
X126867190Y-85199885D02*
X127867190Y-85199885D01*
X127724332Y-85104647D01*
X127629094Y-85009409D01*
X127581475Y-84914171D01*
G04 #@! TO.C,R12*
X119521951Y-77556552D02*
X119045761Y-77889885D01*
X119521951Y-78127980D02*
X118521951Y-78127980D01*
X118521951Y-77747028D01*
X118569571Y-77651790D01*
X118617190Y-77604171D01*
X118712428Y-77556552D01*
X118855285Y-77556552D01*
X118950523Y-77604171D01*
X118998142Y-77651790D01*
X119045761Y-77747028D01*
X119045761Y-78127980D01*
X119521951Y-76604171D02*
X119521951Y-77175599D01*
X119521951Y-76889885D02*
X118521951Y-76889885D01*
X118664809Y-76985123D01*
X118760047Y-77080361D01*
X118807666Y-77175599D01*
X118617190Y-76223218D02*
X118569571Y-76175599D01*
X118521951Y-76080361D01*
X118521951Y-75842266D01*
X118569571Y-75747028D01*
X118617190Y-75699409D01*
X118712428Y-75651790D01*
X118807666Y-75651790D01*
X118950523Y-75699409D01*
X119521951Y-76270837D01*
X119521951Y-75651790D01*
G04 #@! TO.C,R13*
X119686713Y-86176075D02*
X119353380Y-85699885D01*
X119115285Y-86176075D02*
X119115285Y-85176075D01*
X119496237Y-85176075D01*
X119591475Y-85223695D01*
X119639094Y-85271314D01*
X119686713Y-85366552D01*
X119686713Y-85509409D01*
X119639094Y-85604647D01*
X119591475Y-85652266D01*
X119496237Y-85699885D01*
X119115285Y-85699885D01*
X120639094Y-86176075D02*
X120067666Y-86176075D01*
X120353380Y-86176075D02*
X120353380Y-85176075D01*
X120258142Y-85318933D01*
X120162904Y-85414171D01*
X120067666Y-85461790D01*
X120972428Y-85176075D02*
X121591475Y-85176075D01*
X121258142Y-85557028D01*
X121400999Y-85557028D01*
X121496237Y-85604647D01*
X121543856Y-85652266D01*
X121591475Y-85747504D01*
X121591475Y-85985599D01*
X121543856Y-86080837D01*
X121496237Y-86128456D01*
X121400999Y-86176075D01*
X121115285Y-86176075D01*
X121020047Y-86128456D01*
X120972428Y-86080837D01*
G04 #@! TO.C,SW2*
X122086666Y-90384761D02*
X122229523Y-90432380D01*
X122467619Y-90432380D01*
X122562857Y-90384761D01*
X122610476Y-90337142D01*
X122658095Y-90241904D01*
X122658095Y-90146666D01*
X122610476Y-90051428D01*
X122562857Y-90003809D01*
X122467619Y-89956190D01*
X122277142Y-89908571D01*
X122181904Y-89860952D01*
X122134285Y-89813333D01*
X122086666Y-89718095D01*
X122086666Y-89622857D01*
X122134285Y-89527619D01*
X122181904Y-89480000D01*
X122277142Y-89432380D01*
X122515238Y-89432380D01*
X122658095Y-89480000D01*
X122991428Y-89432380D02*
X123229523Y-90432380D01*
X123420000Y-89718095D01*
X123610476Y-90432380D01*
X123848571Y-89432380D01*
X124181904Y-89527619D02*
X124229523Y-89480000D01*
X124324761Y-89432380D01*
X124562857Y-89432380D01*
X124658095Y-89480000D01*
X124705714Y-89527619D01*
X124753333Y-89622857D01*
X124753333Y-89718095D01*
X124705714Y-89860952D01*
X124134285Y-90432380D01*
X124753333Y-90432380D01*
G04 #@! TO.C,TP1*
X135938095Y-88354380D02*
X136509523Y-88354380D01*
X136223809Y-89354380D02*
X136223809Y-88354380D01*
X136842857Y-89354380D02*
X136842857Y-88354380D01*
X137223809Y-88354380D01*
X137319047Y-88402000D01*
X137366666Y-88449619D01*
X137414285Y-88544857D01*
X137414285Y-88687714D01*
X137366666Y-88782952D01*
X137319047Y-88830571D01*
X137223809Y-88878190D01*
X136842857Y-88878190D01*
X138366666Y-89354380D02*
X137795238Y-89354380D01*
X138080952Y-89354380D02*
X138080952Y-88354380D01*
X137985714Y-88497238D01*
X137890476Y-88592476D01*
X137795238Y-88640095D01*
G04 #@! TD*
M02*
