M48
;DRILL file {KiCad 5.0.2-bee76a0~70~ubuntu18.04.1} date Thu 09 Jul 2020 09:56:50 PM PDT
;FORMAT={-:-/ absolute / inch / decimal}
FMAT,2
INCH,TZ
T1C0.0079
T2C0.0197
%
G90
G05
T1
X4.3543Y-3.7362
X4.3583Y-3.2146
X4.372Y-3.3209
X4.4114Y-2.7067
X4.4232Y-3.8701
X4.4665Y-3.5886
X4.4961Y-3.872
X4.5059Y-3.0551
X4.5138Y-3.1811
X4.551Y-2.5748
X4.5846Y-3.2382
X4.6201Y-2.3268
X4.6201Y-2.4134
X4.6398Y-3.2244
X4.6435Y-2.9803
X4.6496Y-2.7559
X4.7411Y-2.9685
X4.8406Y-3.6594
X4.8484Y-2.5945
X4.8738Y-3.624
X4.874Y-2.7126
X4.8797Y-3.0118
X4.8797Y-3.0945
X4.8799Y-3.0571
X4.8817Y-2.9173
X4.8819Y-2.9587
X4.8896Y-3.2933
X4.9232Y-2.7992
X4.9764Y-3.372
X4.998Y-2.7894
X5.0157Y-3.4154
X5.0335Y-2.6535
X5.0372Y-2.7894
X5.0608Y-2.687
X5.0687Y-3.7067
X5.1039Y-3.2441
X5.1102Y-3.1457
X5.1575Y-3.7441
X5.1614Y-3.1299
X5.2106Y-3.1319
X5.2146Y-2.9508
X5.2323Y-2.6594
X5.2382Y-2.7461
X5.4291Y-2.6457
X5.4823Y-2.4823
X5.5138Y-2.9843
X5.5608Y-4.0197
X5.5608Y-4.063
X5.561Y-3.8484
X5.561Y-3.8898
X5.563Y-2.7598
X5.5827Y-3.0295
X5.5866Y-2.7205
X5.5945Y-2.9724
X5.6199Y-2.8406
X5.6339Y-2.7992
X5.7205Y-2.4803
X5.7518Y-3.0866
X5.7815Y-2.9567
X5.8031Y-2.2795
X5.8839Y-3.5335
X5.8994Y-3.2835
X5.9134Y-3.7815
X5.937Y-2.4193
X5.9409Y-3.815
X5.9722Y-3.936
X5.9724Y-3.9803
X5.9724Y-4.0187
X5.9724Y-4.0591
X5.9724Y-4.1043
X5.9724Y-4.1516
X6.0315Y-3.2618
X6.0549Y-3.063
X6.0746Y-3.7283
X6.0965Y-3.2106
X6.124Y-3.3917
T2
X5.66Y-3.13
X5.66Y-3.1694
X5.66Y-3.2087
X5.66Y-3.2481
X5.66Y-3.2875
X5.6994Y-3.13
X5.6994Y-3.1694
X5.6994Y-3.2087
X5.6994Y-3.2481
X5.6994Y-3.2875
X5.6619Y-2.6994
X5.6619Y-2.7387
X5.7013Y-2.6994
X5.7013Y-2.7387
X5.66Y-2.9
X5.66Y-2.9394
X5.6994Y-2.9
X5.6994Y-2.9394
T0
M30
