G04 #@! TF.GenerationSoftware,KiCad,Pcbnew,5.0.2-bee76a0~70~ubuntu18.04.1*
G04 #@! TF.CreationDate,2020-07-18T23:39:56-07:00*
G04 #@! TF.ProjectId,light_thing_hw,6c696768-745f-4746-9869-6e675f68772e,rev?*
G04 #@! TF.SameCoordinates,Original*
G04 #@! TF.FileFunction,Paste,Bot*
G04 #@! TF.FilePolarity,Positive*
%FSLAX46Y46*%
G04 Gerber Fmt 4.6, Leading zero omitted, Abs format (unit mm)*
G04 Created by KiCad (PCBNEW 5.0.2-bee76a0~70~ubuntu18.04.1) date Sat 18 Jul 2020 11:39:56 PM PDT*
%MOMM*%
%LPD*%
G01*
G04 APERTURE LIST*
%ADD10C,0.152400*%
%ADD11C,0.100000*%
%ADD12C,0.950000*%
%ADD13R,1.000000X1.000000*%
%ADD14C,0.800000*%
%ADD15C,2.100000*%
%ADD16R,0.800000X0.900000*%
%ADD17R,1.700000X0.900000*%
%ADD18C,0.599440*%
%ADD19R,0.797560X0.698500*%
%ADD20R,1.498600X0.304800*%
%ADD21R,1.060000X0.650000*%
%ADD22R,2.413000X3.098800*%
%ADD23R,1.460500X0.533400*%
%ADD24R,1.380000X0.450000*%
%ADD25R,2.100000X1.475000*%
%ADD26R,1.900000X2.375000*%
%ADD27R,1.900000X1.175000*%
%ADD28C,0.400000*%
G04 APERTURE END LIST*
D10*
G04 #@! TO.C,U5*
X147763500Y-99580000D02*
X149976500Y-99580000D01*
X147763500Y-100929400D02*
X147763500Y-99580000D01*
X149976500Y-100929400D02*
X147763500Y-100929400D01*
X149976500Y-99580000D02*
X149976500Y-100929400D01*
X147763500Y-98030600D02*
X149976500Y-98030600D01*
X147763500Y-99380000D02*
X147763500Y-98030600D01*
X149976500Y-99380000D02*
X147763500Y-99380000D01*
X149976500Y-98030600D02*
X149976500Y-99380000D01*
G04 #@! TD*
D11*
G04 #@! TO.C,C6*
G36*
X130472183Y-100967299D02*
X130495238Y-100970718D01*
X130517847Y-100976382D01*
X130539791Y-100984234D01*
X130560861Y-100994199D01*
X130580852Y-101006181D01*
X130599572Y-101020065D01*
X130616842Y-101035717D01*
X130632494Y-101052987D01*
X130646378Y-101071707D01*
X130658360Y-101091698D01*
X130668325Y-101112768D01*
X130676177Y-101134712D01*
X130681841Y-101157321D01*
X130685260Y-101180376D01*
X130686404Y-101203655D01*
X130686404Y-101678655D01*
X130685260Y-101701934D01*
X130681841Y-101724989D01*
X130676177Y-101747598D01*
X130668325Y-101769542D01*
X130658360Y-101790612D01*
X130646378Y-101810603D01*
X130632494Y-101829323D01*
X130616842Y-101846593D01*
X130599572Y-101862245D01*
X130580852Y-101876129D01*
X130560861Y-101888111D01*
X130539791Y-101898076D01*
X130517847Y-101905928D01*
X130495238Y-101911592D01*
X130472183Y-101915011D01*
X130448904Y-101916155D01*
X129873904Y-101916155D01*
X129850625Y-101915011D01*
X129827570Y-101911592D01*
X129804961Y-101905928D01*
X129783017Y-101898076D01*
X129761947Y-101888111D01*
X129741956Y-101876129D01*
X129723236Y-101862245D01*
X129705966Y-101846593D01*
X129690314Y-101829323D01*
X129676430Y-101810603D01*
X129664448Y-101790612D01*
X129654483Y-101769542D01*
X129646631Y-101747598D01*
X129640967Y-101724989D01*
X129637548Y-101701934D01*
X129636404Y-101678655D01*
X129636404Y-101203655D01*
X129637548Y-101180376D01*
X129640967Y-101157321D01*
X129646631Y-101134712D01*
X129654483Y-101112768D01*
X129664448Y-101091698D01*
X129676430Y-101071707D01*
X129690314Y-101052987D01*
X129705966Y-101035717D01*
X129723236Y-101020065D01*
X129741956Y-101006181D01*
X129761947Y-100994199D01*
X129783017Y-100984234D01*
X129804961Y-100976382D01*
X129827570Y-100970718D01*
X129850625Y-100967299D01*
X129873904Y-100966155D01*
X130448904Y-100966155D01*
X130472183Y-100967299D01*
X130472183Y-100967299D01*
G37*
D12*
X130161404Y-101441155D03*
D11*
G36*
X132222183Y-100967299D02*
X132245238Y-100970718D01*
X132267847Y-100976382D01*
X132289791Y-100984234D01*
X132310861Y-100994199D01*
X132330852Y-101006181D01*
X132349572Y-101020065D01*
X132366842Y-101035717D01*
X132382494Y-101052987D01*
X132396378Y-101071707D01*
X132408360Y-101091698D01*
X132418325Y-101112768D01*
X132426177Y-101134712D01*
X132431841Y-101157321D01*
X132435260Y-101180376D01*
X132436404Y-101203655D01*
X132436404Y-101678655D01*
X132435260Y-101701934D01*
X132431841Y-101724989D01*
X132426177Y-101747598D01*
X132418325Y-101769542D01*
X132408360Y-101790612D01*
X132396378Y-101810603D01*
X132382494Y-101829323D01*
X132366842Y-101846593D01*
X132349572Y-101862245D01*
X132330852Y-101876129D01*
X132310861Y-101888111D01*
X132289791Y-101898076D01*
X132267847Y-101905928D01*
X132245238Y-101911592D01*
X132222183Y-101915011D01*
X132198904Y-101916155D01*
X131623904Y-101916155D01*
X131600625Y-101915011D01*
X131577570Y-101911592D01*
X131554961Y-101905928D01*
X131533017Y-101898076D01*
X131511947Y-101888111D01*
X131491956Y-101876129D01*
X131473236Y-101862245D01*
X131455966Y-101846593D01*
X131440314Y-101829323D01*
X131426430Y-101810603D01*
X131414448Y-101790612D01*
X131404483Y-101769542D01*
X131396631Y-101747598D01*
X131390967Y-101724989D01*
X131387548Y-101701934D01*
X131386404Y-101678655D01*
X131386404Y-101203655D01*
X131387548Y-101180376D01*
X131390967Y-101157321D01*
X131396631Y-101134712D01*
X131404483Y-101112768D01*
X131414448Y-101091698D01*
X131426430Y-101071707D01*
X131440314Y-101052987D01*
X131455966Y-101035717D01*
X131473236Y-101020065D01*
X131491956Y-101006181D01*
X131511947Y-100994199D01*
X131533017Y-100984234D01*
X131554961Y-100976382D01*
X131577570Y-100970718D01*
X131600625Y-100967299D01*
X131623904Y-100966155D01*
X132198904Y-100966155D01*
X132222183Y-100967299D01*
X132222183Y-100967299D01*
G37*
D12*
X131911404Y-101441155D03*
G04 #@! TD*
D11*
G04 #@! TO.C,C7*
G36*
X158880779Y-75116144D02*
X158903834Y-75119563D01*
X158926443Y-75125227D01*
X158948387Y-75133079D01*
X158969457Y-75143044D01*
X158989448Y-75155026D01*
X159008168Y-75168910D01*
X159025438Y-75184562D01*
X159041090Y-75201832D01*
X159054974Y-75220552D01*
X159066956Y-75240543D01*
X159076921Y-75261613D01*
X159084773Y-75283557D01*
X159090437Y-75306166D01*
X159093856Y-75329221D01*
X159095000Y-75352500D01*
X159095000Y-75827500D01*
X159093856Y-75850779D01*
X159090437Y-75873834D01*
X159084773Y-75896443D01*
X159076921Y-75918387D01*
X159066956Y-75939457D01*
X159054974Y-75959448D01*
X159041090Y-75978168D01*
X159025438Y-75995438D01*
X159008168Y-76011090D01*
X158989448Y-76024974D01*
X158969457Y-76036956D01*
X158948387Y-76046921D01*
X158926443Y-76054773D01*
X158903834Y-76060437D01*
X158880779Y-76063856D01*
X158857500Y-76065000D01*
X158282500Y-76065000D01*
X158259221Y-76063856D01*
X158236166Y-76060437D01*
X158213557Y-76054773D01*
X158191613Y-76046921D01*
X158170543Y-76036956D01*
X158150552Y-76024974D01*
X158131832Y-76011090D01*
X158114562Y-75995438D01*
X158098910Y-75978168D01*
X158085026Y-75959448D01*
X158073044Y-75939457D01*
X158063079Y-75918387D01*
X158055227Y-75896443D01*
X158049563Y-75873834D01*
X158046144Y-75850779D01*
X158045000Y-75827500D01*
X158045000Y-75352500D01*
X158046144Y-75329221D01*
X158049563Y-75306166D01*
X158055227Y-75283557D01*
X158063079Y-75261613D01*
X158073044Y-75240543D01*
X158085026Y-75220552D01*
X158098910Y-75201832D01*
X158114562Y-75184562D01*
X158131832Y-75168910D01*
X158150552Y-75155026D01*
X158170543Y-75143044D01*
X158191613Y-75133079D01*
X158213557Y-75125227D01*
X158236166Y-75119563D01*
X158259221Y-75116144D01*
X158282500Y-75115000D01*
X158857500Y-75115000D01*
X158880779Y-75116144D01*
X158880779Y-75116144D01*
G37*
D12*
X158570000Y-75590000D03*
D11*
G36*
X160630779Y-75116144D02*
X160653834Y-75119563D01*
X160676443Y-75125227D01*
X160698387Y-75133079D01*
X160719457Y-75143044D01*
X160739448Y-75155026D01*
X160758168Y-75168910D01*
X160775438Y-75184562D01*
X160791090Y-75201832D01*
X160804974Y-75220552D01*
X160816956Y-75240543D01*
X160826921Y-75261613D01*
X160834773Y-75283557D01*
X160840437Y-75306166D01*
X160843856Y-75329221D01*
X160845000Y-75352500D01*
X160845000Y-75827500D01*
X160843856Y-75850779D01*
X160840437Y-75873834D01*
X160834773Y-75896443D01*
X160826921Y-75918387D01*
X160816956Y-75939457D01*
X160804974Y-75959448D01*
X160791090Y-75978168D01*
X160775438Y-75995438D01*
X160758168Y-76011090D01*
X160739448Y-76024974D01*
X160719457Y-76036956D01*
X160698387Y-76046921D01*
X160676443Y-76054773D01*
X160653834Y-76060437D01*
X160630779Y-76063856D01*
X160607500Y-76065000D01*
X160032500Y-76065000D01*
X160009221Y-76063856D01*
X159986166Y-76060437D01*
X159963557Y-76054773D01*
X159941613Y-76046921D01*
X159920543Y-76036956D01*
X159900552Y-76024974D01*
X159881832Y-76011090D01*
X159864562Y-75995438D01*
X159848910Y-75978168D01*
X159835026Y-75959448D01*
X159823044Y-75939457D01*
X159813079Y-75918387D01*
X159805227Y-75896443D01*
X159799563Y-75873834D01*
X159796144Y-75850779D01*
X159795000Y-75827500D01*
X159795000Y-75352500D01*
X159796144Y-75329221D01*
X159799563Y-75306166D01*
X159805227Y-75283557D01*
X159813079Y-75261613D01*
X159823044Y-75240543D01*
X159835026Y-75220552D01*
X159848910Y-75201832D01*
X159864562Y-75184562D01*
X159881832Y-75168910D01*
X159900552Y-75155026D01*
X159920543Y-75143044D01*
X159941613Y-75133079D01*
X159963557Y-75125227D01*
X159986166Y-75119563D01*
X160009221Y-75116144D01*
X160032500Y-75115000D01*
X160607500Y-75115000D01*
X160630779Y-75116144D01*
X160630779Y-75116144D01*
G37*
D12*
X160320000Y-75590000D03*
G04 #@! TD*
D11*
G04 #@! TO.C,C5*
G36*
X137097183Y-98967299D02*
X137120238Y-98970718D01*
X137142847Y-98976382D01*
X137164791Y-98984234D01*
X137185861Y-98994199D01*
X137205852Y-99006181D01*
X137224572Y-99020065D01*
X137241842Y-99035717D01*
X137257494Y-99052987D01*
X137271378Y-99071707D01*
X137283360Y-99091698D01*
X137293325Y-99112768D01*
X137301177Y-99134712D01*
X137306841Y-99157321D01*
X137310260Y-99180376D01*
X137311404Y-99203655D01*
X137311404Y-99678655D01*
X137310260Y-99701934D01*
X137306841Y-99724989D01*
X137301177Y-99747598D01*
X137293325Y-99769542D01*
X137283360Y-99790612D01*
X137271378Y-99810603D01*
X137257494Y-99829323D01*
X137241842Y-99846593D01*
X137224572Y-99862245D01*
X137205852Y-99876129D01*
X137185861Y-99888111D01*
X137164791Y-99898076D01*
X137142847Y-99905928D01*
X137120238Y-99911592D01*
X137097183Y-99915011D01*
X137073904Y-99916155D01*
X136498904Y-99916155D01*
X136475625Y-99915011D01*
X136452570Y-99911592D01*
X136429961Y-99905928D01*
X136408017Y-99898076D01*
X136386947Y-99888111D01*
X136366956Y-99876129D01*
X136348236Y-99862245D01*
X136330966Y-99846593D01*
X136315314Y-99829323D01*
X136301430Y-99810603D01*
X136289448Y-99790612D01*
X136279483Y-99769542D01*
X136271631Y-99747598D01*
X136265967Y-99724989D01*
X136262548Y-99701934D01*
X136261404Y-99678655D01*
X136261404Y-99203655D01*
X136262548Y-99180376D01*
X136265967Y-99157321D01*
X136271631Y-99134712D01*
X136279483Y-99112768D01*
X136289448Y-99091698D01*
X136301430Y-99071707D01*
X136315314Y-99052987D01*
X136330966Y-99035717D01*
X136348236Y-99020065D01*
X136366956Y-99006181D01*
X136386947Y-98994199D01*
X136408017Y-98984234D01*
X136429961Y-98976382D01*
X136452570Y-98970718D01*
X136475625Y-98967299D01*
X136498904Y-98966155D01*
X137073904Y-98966155D01*
X137097183Y-98967299D01*
X137097183Y-98967299D01*
G37*
D12*
X136786404Y-99441155D03*
D11*
G36*
X135347183Y-98967299D02*
X135370238Y-98970718D01*
X135392847Y-98976382D01*
X135414791Y-98984234D01*
X135435861Y-98994199D01*
X135455852Y-99006181D01*
X135474572Y-99020065D01*
X135491842Y-99035717D01*
X135507494Y-99052987D01*
X135521378Y-99071707D01*
X135533360Y-99091698D01*
X135543325Y-99112768D01*
X135551177Y-99134712D01*
X135556841Y-99157321D01*
X135560260Y-99180376D01*
X135561404Y-99203655D01*
X135561404Y-99678655D01*
X135560260Y-99701934D01*
X135556841Y-99724989D01*
X135551177Y-99747598D01*
X135543325Y-99769542D01*
X135533360Y-99790612D01*
X135521378Y-99810603D01*
X135507494Y-99829323D01*
X135491842Y-99846593D01*
X135474572Y-99862245D01*
X135455852Y-99876129D01*
X135435861Y-99888111D01*
X135414791Y-99898076D01*
X135392847Y-99905928D01*
X135370238Y-99911592D01*
X135347183Y-99915011D01*
X135323904Y-99916155D01*
X134748904Y-99916155D01*
X134725625Y-99915011D01*
X134702570Y-99911592D01*
X134679961Y-99905928D01*
X134658017Y-99898076D01*
X134636947Y-99888111D01*
X134616956Y-99876129D01*
X134598236Y-99862245D01*
X134580966Y-99846593D01*
X134565314Y-99829323D01*
X134551430Y-99810603D01*
X134539448Y-99790612D01*
X134529483Y-99769542D01*
X134521631Y-99747598D01*
X134515967Y-99724989D01*
X134512548Y-99701934D01*
X134511404Y-99678655D01*
X134511404Y-99203655D01*
X134512548Y-99180376D01*
X134515967Y-99157321D01*
X134521631Y-99134712D01*
X134529483Y-99112768D01*
X134539448Y-99091698D01*
X134551430Y-99071707D01*
X134565314Y-99052987D01*
X134580966Y-99035717D01*
X134598236Y-99020065D01*
X134616956Y-99006181D01*
X134636947Y-98994199D01*
X134658017Y-98984234D01*
X134679961Y-98976382D01*
X134702570Y-98970718D01*
X134725625Y-98967299D01*
X134748904Y-98966155D01*
X135323904Y-98966155D01*
X135347183Y-98967299D01*
X135347183Y-98967299D01*
G37*
D12*
X135036404Y-99441155D03*
G04 #@! TD*
D11*
G04 #@! TO.C,C8*
G36*
X133680779Y-72636144D02*
X133703834Y-72639563D01*
X133726443Y-72645227D01*
X133748387Y-72653079D01*
X133769457Y-72663044D01*
X133789448Y-72675026D01*
X133808168Y-72688910D01*
X133825438Y-72704562D01*
X133841090Y-72721832D01*
X133854974Y-72740552D01*
X133866956Y-72760543D01*
X133876921Y-72781613D01*
X133884773Y-72803557D01*
X133890437Y-72826166D01*
X133893856Y-72849221D01*
X133895000Y-72872500D01*
X133895000Y-73347500D01*
X133893856Y-73370779D01*
X133890437Y-73393834D01*
X133884773Y-73416443D01*
X133876921Y-73438387D01*
X133866956Y-73459457D01*
X133854974Y-73479448D01*
X133841090Y-73498168D01*
X133825438Y-73515438D01*
X133808168Y-73531090D01*
X133789448Y-73544974D01*
X133769457Y-73556956D01*
X133748387Y-73566921D01*
X133726443Y-73574773D01*
X133703834Y-73580437D01*
X133680779Y-73583856D01*
X133657500Y-73585000D01*
X133082500Y-73585000D01*
X133059221Y-73583856D01*
X133036166Y-73580437D01*
X133013557Y-73574773D01*
X132991613Y-73566921D01*
X132970543Y-73556956D01*
X132950552Y-73544974D01*
X132931832Y-73531090D01*
X132914562Y-73515438D01*
X132898910Y-73498168D01*
X132885026Y-73479448D01*
X132873044Y-73459457D01*
X132863079Y-73438387D01*
X132855227Y-73416443D01*
X132849563Y-73393834D01*
X132846144Y-73370779D01*
X132845000Y-73347500D01*
X132845000Y-72872500D01*
X132846144Y-72849221D01*
X132849563Y-72826166D01*
X132855227Y-72803557D01*
X132863079Y-72781613D01*
X132873044Y-72760543D01*
X132885026Y-72740552D01*
X132898910Y-72721832D01*
X132914562Y-72704562D01*
X132931832Y-72688910D01*
X132950552Y-72675026D01*
X132970543Y-72663044D01*
X132991613Y-72653079D01*
X133013557Y-72645227D01*
X133036166Y-72639563D01*
X133059221Y-72636144D01*
X133082500Y-72635000D01*
X133657500Y-72635000D01*
X133680779Y-72636144D01*
X133680779Y-72636144D01*
G37*
D12*
X133370000Y-73110000D03*
D11*
G36*
X135430779Y-72636144D02*
X135453834Y-72639563D01*
X135476443Y-72645227D01*
X135498387Y-72653079D01*
X135519457Y-72663044D01*
X135539448Y-72675026D01*
X135558168Y-72688910D01*
X135575438Y-72704562D01*
X135591090Y-72721832D01*
X135604974Y-72740552D01*
X135616956Y-72760543D01*
X135626921Y-72781613D01*
X135634773Y-72803557D01*
X135640437Y-72826166D01*
X135643856Y-72849221D01*
X135645000Y-72872500D01*
X135645000Y-73347500D01*
X135643856Y-73370779D01*
X135640437Y-73393834D01*
X135634773Y-73416443D01*
X135626921Y-73438387D01*
X135616956Y-73459457D01*
X135604974Y-73479448D01*
X135591090Y-73498168D01*
X135575438Y-73515438D01*
X135558168Y-73531090D01*
X135539448Y-73544974D01*
X135519457Y-73556956D01*
X135498387Y-73566921D01*
X135476443Y-73574773D01*
X135453834Y-73580437D01*
X135430779Y-73583856D01*
X135407500Y-73585000D01*
X134832500Y-73585000D01*
X134809221Y-73583856D01*
X134786166Y-73580437D01*
X134763557Y-73574773D01*
X134741613Y-73566921D01*
X134720543Y-73556956D01*
X134700552Y-73544974D01*
X134681832Y-73531090D01*
X134664562Y-73515438D01*
X134648910Y-73498168D01*
X134635026Y-73479448D01*
X134623044Y-73459457D01*
X134613079Y-73438387D01*
X134605227Y-73416443D01*
X134599563Y-73393834D01*
X134596144Y-73370779D01*
X134595000Y-73347500D01*
X134595000Y-72872500D01*
X134596144Y-72849221D01*
X134599563Y-72826166D01*
X134605227Y-72803557D01*
X134613079Y-72781613D01*
X134623044Y-72760543D01*
X134635026Y-72740552D01*
X134648910Y-72721832D01*
X134664562Y-72704562D01*
X134681832Y-72688910D01*
X134700552Y-72675026D01*
X134720543Y-72663044D01*
X134741613Y-72653079D01*
X134763557Y-72645227D01*
X134786166Y-72639563D01*
X134809221Y-72636144D01*
X134832500Y-72635000D01*
X135407500Y-72635000D01*
X135430779Y-72636144D01*
X135430779Y-72636144D01*
G37*
D12*
X135120000Y-73110000D03*
G04 #@! TD*
D11*
G04 #@! TO.C,C10*
G36*
X141290779Y-72866144D02*
X141313834Y-72869563D01*
X141336443Y-72875227D01*
X141358387Y-72883079D01*
X141379457Y-72893044D01*
X141399448Y-72905026D01*
X141418168Y-72918910D01*
X141435438Y-72934562D01*
X141451090Y-72951832D01*
X141464974Y-72970552D01*
X141476956Y-72990543D01*
X141486921Y-73011613D01*
X141494773Y-73033557D01*
X141500437Y-73056166D01*
X141503856Y-73079221D01*
X141505000Y-73102500D01*
X141505000Y-73577500D01*
X141503856Y-73600779D01*
X141500437Y-73623834D01*
X141494773Y-73646443D01*
X141486921Y-73668387D01*
X141476956Y-73689457D01*
X141464974Y-73709448D01*
X141451090Y-73728168D01*
X141435438Y-73745438D01*
X141418168Y-73761090D01*
X141399448Y-73774974D01*
X141379457Y-73786956D01*
X141358387Y-73796921D01*
X141336443Y-73804773D01*
X141313834Y-73810437D01*
X141290779Y-73813856D01*
X141267500Y-73815000D01*
X140692500Y-73815000D01*
X140669221Y-73813856D01*
X140646166Y-73810437D01*
X140623557Y-73804773D01*
X140601613Y-73796921D01*
X140580543Y-73786956D01*
X140560552Y-73774974D01*
X140541832Y-73761090D01*
X140524562Y-73745438D01*
X140508910Y-73728168D01*
X140495026Y-73709448D01*
X140483044Y-73689457D01*
X140473079Y-73668387D01*
X140465227Y-73646443D01*
X140459563Y-73623834D01*
X140456144Y-73600779D01*
X140455000Y-73577500D01*
X140455000Y-73102500D01*
X140456144Y-73079221D01*
X140459563Y-73056166D01*
X140465227Y-73033557D01*
X140473079Y-73011613D01*
X140483044Y-72990543D01*
X140495026Y-72970552D01*
X140508910Y-72951832D01*
X140524562Y-72934562D01*
X140541832Y-72918910D01*
X140560552Y-72905026D01*
X140580543Y-72893044D01*
X140601613Y-72883079D01*
X140623557Y-72875227D01*
X140646166Y-72869563D01*
X140669221Y-72866144D01*
X140692500Y-72865000D01*
X141267500Y-72865000D01*
X141290779Y-72866144D01*
X141290779Y-72866144D01*
G37*
D12*
X140980000Y-73340000D03*
D11*
G36*
X143040779Y-72866144D02*
X143063834Y-72869563D01*
X143086443Y-72875227D01*
X143108387Y-72883079D01*
X143129457Y-72893044D01*
X143149448Y-72905026D01*
X143168168Y-72918910D01*
X143185438Y-72934562D01*
X143201090Y-72951832D01*
X143214974Y-72970552D01*
X143226956Y-72990543D01*
X143236921Y-73011613D01*
X143244773Y-73033557D01*
X143250437Y-73056166D01*
X143253856Y-73079221D01*
X143255000Y-73102500D01*
X143255000Y-73577500D01*
X143253856Y-73600779D01*
X143250437Y-73623834D01*
X143244773Y-73646443D01*
X143236921Y-73668387D01*
X143226956Y-73689457D01*
X143214974Y-73709448D01*
X143201090Y-73728168D01*
X143185438Y-73745438D01*
X143168168Y-73761090D01*
X143149448Y-73774974D01*
X143129457Y-73786956D01*
X143108387Y-73796921D01*
X143086443Y-73804773D01*
X143063834Y-73810437D01*
X143040779Y-73813856D01*
X143017500Y-73815000D01*
X142442500Y-73815000D01*
X142419221Y-73813856D01*
X142396166Y-73810437D01*
X142373557Y-73804773D01*
X142351613Y-73796921D01*
X142330543Y-73786956D01*
X142310552Y-73774974D01*
X142291832Y-73761090D01*
X142274562Y-73745438D01*
X142258910Y-73728168D01*
X142245026Y-73709448D01*
X142233044Y-73689457D01*
X142223079Y-73668387D01*
X142215227Y-73646443D01*
X142209563Y-73623834D01*
X142206144Y-73600779D01*
X142205000Y-73577500D01*
X142205000Y-73102500D01*
X142206144Y-73079221D01*
X142209563Y-73056166D01*
X142215227Y-73033557D01*
X142223079Y-73011613D01*
X142233044Y-72990543D01*
X142245026Y-72970552D01*
X142258910Y-72951832D01*
X142274562Y-72934562D01*
X142291832Y-72918910D01*
X142310552Y-72905026D01*
X142330543Y-72893044D01*
X142351613Y-72883079D01*
X142373557Y-72875227D01*
X142396166Y-72869563D01*
X142419221Y-72866144D01*
X142442500Y-72865000D01*
X143017500Y-72865000D01*
X143040779Y-72866144D01*
X143040779Y-72866144D01*
G37*
D12*
X142730000Y-73340000D03*
G04 #@! TD*
D11*
G04 #@! TO.C,C11*
G36*
X156890779Y-71075540D02*
X156913834Y-71078959D01*
X156936443Y-71084623D01*
X156958387Y-71092475D01*
X156979457Y-71102440D01*
X156999448Y-71114422D01*
X157018168Y-71128306D01*
X157035438Y-71143958D01*
X157051090Y-71161228D01*
X157064974Y-71179948D01*
X157076956Y-71199939D01*
X157086921Y-71221009D01*
X157094773Y-71242953D01*
X157100437Y-71265562D01*
X157103856Y-71288617D01*
X157105000Y-71311896D01*
X157105000Y-71786896D01*
X157103856Y-71810175D01*
X157100437Y-71833230D01*
X157094773Y-71855839D01*
X157086921Y-71877783D01*
X157076956Y-71898853D01*
X157064974Y-71918844D01*
X157051090Y-71937564D01*
X157035438Y-71954834D01*
X157018168Y-71970486D01*
X156999448Y-71984370D01*
X156979457Y-71996352D01*
X156958387Y-72006317D01*
X156936443Y-72014169D01*
X156913834Y-72019833D01*
X156890779Y-72023252D01*
X156867500Y-72024396D01*
X156292500Y-72024396D01*
X156269221Y-72023252D01*
X156246166Y-72019833D01*
X156223557Y-72014169D01*
X156201613Y-72006317D01*
X156180543Y-71996352D01*
X156160552Y-71984370D01*
X156141832Y-71970486D01*
X156124562Y-71954834D01*
X156108910Y-71937564D01*
X156095026Y-71918844D01*
X156083044Y-71898853D01*
X156073079Y-71877783D01*
X156065227Y-71855839D01*
X156059563Y-71833230D01*
X156056144Y-71810175D01*
X156055000Y-71786896D01*
X156055000Y-71311896D01*
X156056144Y-71288617D01*
X156059563Y-71265562D01*
X156065227Y-71242953D01*
X156073079Y-71221009D01*
X156083044Y-71199939D01*
X156095026Y-71179948D01*
X156108910Y-71161228D01*
X156124562Y-71143958D01*
X156141832Y-71128306D01*
X156160552Y-71114422D01*
X156180543Y-71102440D01*
X156201613Y-71092475D01*
X156223557Y-71084623D01*
X156246166Y-71078959D01*
X156269221Y-71075540D01*
X156292500Y-71074396D01*
X156867500Y-71074396D01*
X156890779Y-71075540D01*
X156890779Y-71075540D01*
G37*
D12*
X156580000Y-71549396D03*
D11*
G36*
X155140779Y-71075540D02*
X155163834Y-71078959D01*
X155186443Y-71084623D01*
X155208387Y-71092475D01*
X155229457Y-71102440D01*
X155249448Y-71114422D01*
X155268168Y-71128306D01*
X155285438Y-71143958D01*
X155301090Y-71161228D01*
X155314974Y-71179948D01*
X155326956Y-71199939D01*
X155336921Y-71221009D01*
X155344773Y-71242953D01*
X155350437Y-71265562D01*
X155353856Y-71288617D01*
X155355000Y-71311896D01*
X155355000Y-71786896D01*
X155353856Y-71810175D01*
X155350437Y-71833230D01*
X155344773Y-71855839D01*
X155336921Y-71877783D01*
X155326956Y-71898853D01*
X155314974Y-71918844D01*
X155301090Y-71937564D01*
X155285438Y-71954834D01*
X155268168Y-71970486D01*
X155249448Y-71984370D01*
X155229457Y-71996352D01*
X155208387Y-72006317D01*
X155186443Y-72014169D01*
X155163834Y-72019833D01*
X155140779Y-72023252D01*
X155117500Y-72024396D01*
X154542500Y-72024396D01*
X154519221Y-72023252D01*
X154496166Y-72019833D01*
X154473557Y-72014169D01*
X154451613Y-72006317D01*
X154430543Y-71996352D01*
X154410552Y-71984370D01*
X154391832Y-71970486D01*
X154374562Y-71954834D01*
X154358910Y-71937564D01*
X154345026Y-71918844D01*
X154333044Y-71898853D01*
X154323079Y-71877783D01*
X154315227Y-71855839D01*
X154309563Y-71833230D01*
X154306144Y-71810175D01*
X154305000Y-71786896D01*
X154305000Y-71311896D01*
X154306144Y-71288617D01*
X154309563Y-71265562D01*
X154315227Y-71242953D01*
X154323079Y-71221009D01*
X154333044Y-71199939D01*
X154345026Y-71179948D01*
X154358910Y-71161228D01*
X154374562Y-71143958D01*
X154391832Y-71128306D01*
X154410552Y-71114422D01*
X154430543Y-71102440D01*
X154451613Y-71092475D01*
X154473557Y-71084623D01*
X154496166Y-71078959D01*
X154519221Y-71075540D01*
X154542500Y-71074396D01*
X155117500Y-71074396D01*
X155140779Y-71075540D01*
X155140779Y-71075540D01*
G37*
D12*
X154830000Y-71549396D03*
G04 #@! TD*
D11*
G04 #@! TO.C,C12*
G36*
X143040779Y-74776144D02*
X143063834Y-74779563D01*
X143086443Y-74785227D01*
X143108387Y-74793079D01*
X143129457Y-74803044D01*
X143149448Y-74815026D01*
X143168168Y-74828910D01*
X143185438Y-74844562D01*
X143201090Y-74861832D01*
X143214974Y-74880552D01*
X143226956Y-74900543D01*
X143236921Y-74921613D01*
X143244773Y-74943557D01*
X143250437Y-74966166D01*
X143253856Y-74989221D01*
X143255000Y-75012500D01*
X143255000Y-75487500D01*
X143253856Y-75510779D01*
X143250437Y-75533834D01*
X143244773Y-75556443D01*
X143236921Y-75578387D01*
X143226956Y-75599457D01*
X143214974Y-75619448D01*
X143201090Y-75638168D01*
X143185438Y-75655438D01*
X143168168Y-75671090D01*
X143149448Y-75684974D01*
X143129457Y-75696956D01*
X143108387Y-75706921D01*
X143086443Y-75714773D01*
X143063834Y-75720437D01*
X143040779Y-75723856D01*
X143017500Y-75725000D01*
X142442500Y-75725000D01*
X142419221Y-75723856D01*
X142396166Y-75720437D01*
X142373557Y-75714773D01*
X142351613Y-75706921D01*
X142330543Y-75696956D01*
X142310552Y-75684974D01*
X142291832Y-75671090D01*
X142274562Y-75655438D01*
X142258910Y-75638168D01*
X142245026Y-75619448D01*
X142233044Y-75599457D01*
X142223079Y-75578387D01*
X142215227Y-75556443D01*
X142209563Y-75533834D01*
X142206144Y-75510779D01*
X142205000Y-75487500D01*
X142205000Y-75012500D01*
X142206144Y-74989221D01*
X142209563Y-74966166D01*
X142215227Y-74943557D01*
X142223079Y-74921613D01*
X142233044Y-74900543D01*
X142245026Y-74880552D01*
X142258910Y-74861832D01*
X142274562Y-74844562D01*
X142291832Y-74828910D01*
X142310552Y-74815026D01*
X142330543Y-74803044D01*
X142351613Y-74793079D01*
X142373557Y-74785227D01*
X142396166Y-74779563D01*
X142419221Y-74776144D01*
X142442500Y-74775000D01*
X143017500Y-74775000D01*
X143040779Y-74776144D01*
X143040779Y-74776144D01*
G37*
D12*
X142730000Y-75250000D03*
D11*
G36*
X141290779Y-74776144D02*
X141313834Y-74779563D01*
X141336443Y-74785227D01*
X141358387Y-74793079D01*
X141379457Y-74803044D01*
X141399448Y-74815026D01*
X141418168Y-74828910D01*
X141435438Y-74844562D01*
X141451090Y-74861832D01*
X141464974Y-74880552D01*
X141476956Y-74900543D01*
X141486921Y-74921613D01*
X141494773Y-74943557D01*
X141500437Y-74966166D01*
X141503856Y-74989221D01*
X141505000Y-75012500D01*
X141505000Y-75487500D01*
X141503856Y-75510779D01*
X141500437Y-75533834D01*
X141494773Y-75556443D01*
X141486921Y-75578387D01*
X141476956Y-75599457D01*
X141464974Y-75619448D01*
X141451090Y-75638168D01*
X141435438Y-75655438D01*
X141418168Y-75671090D01*
X141399448Y-75684974D01*
X141379457Y-75696956D01*
X141358387Y-75706921D01*
X141336443Y-75714773D01*
X141313834Y-75720437D01*
X141290779Y-75723856D01*
X141267500Y-75725000D01*
X140692500Y-75725000D01*
X140669221Y-75723856D01*
X140646166Y-75720437D01*
X140623557Y-75714773D01*
X140601613Y-75706921D01*
X140580543Y-75696956D01*
X140560552Y-75684974D01*
X140541832Y-75671090D01*
X140524562Y-75655438D01*
X140508910Y-75638168D01*
X140495026Y-75619448D01*
X140483044Y-75599457D01*
X140473079Y-75578387D01*
X140465227Y-75556443D01*
X140459563Y-75533834D01*
X140456144Y-75510779D01*
X140455000Y-75487500D01*
X140455000Y-75012500D01*
X140456144Y-74989221D01*
X140459563Y-74966166D01*
X140465227Y-74943557D01*
X140473079Y-74921613D01*
X140483044Y-74900543D01*
X140495026Y-74880552D01*
X140508910Y-74861832D01*
X140524562Y-74844562D01*
X140541832Y-74828910D01*
X140560552Y-74815026D01*
X140580543Y-74803044D01*
X140601613Y-74793079D01*
X140623557Y-74785227D01*
X140646166Y-74779563D01*
X140669221Y-74776144D01*
X140692500Y-74775000D01*
X141267500Y-74775000D01*
X141290779Y-74776144D01*
X141290779Y-74776144D01*
G37*
D12*
X140980000Y-75250000D03*
G04 #@! TD*
D11*
G04 #@! TO.C,C13*
G36*
X127630779Y-94776144D02*
X127653834Y-94779563D01*
X127676443Y-94785227D01*
X127698387Y-94793079D01*
X127719457Y-94803044D01*
X127739448Y-94815026D01*
X127758168Y-94828910D01*
X127775438Y-94844562D01*
X127791090Y-94861832D01*
X127804974Y-94880552D01*
X127816956Y-94900543D01*
X127826921Y-94921613D01*
X127834773Y-94943557D01*
X127840437Y-94966166D01*
X127843856Y-94989221D01*
X127845000Y-95012500D01*
X127845000Y-95487500D01*
X127843856Y-95510779D01*
X127840437Y-95533834D01*
X127834773Y-95556443D01*
X127826921Y-95578387D01*
X127816956Y-95599457D01*
X127804974Y-95619448D01*
X127791090Y-95638168D01*
X127775438Y-95655438D01*
X127758168Y-95671090D01*
X127739448Y-95684974D01*
X127719457Y-95696956D01*
X127698387Y-95706921D01*
X127676443Y-95714773D01*
X127653834Y-95720437D01*
X127630779Y-95723856D01*
X127607500Y-95725000D01*
X127032500Y-95725000D01*
X127009221Y-95723856D01*
X126986166Y-95720437D01*
X126963557Y-95714773D01*
X126941613Y-95706921D01*
X126920543Y-95696956D01*
X126900552Y-95684974D01*
X126881832Y-95671090D01*
X126864562Y-95655438D01*
X126848910Y-95638168D01*
X126835026Y-95619448D01*
X126823044Y-95599457D01*
X126813079Y-95578387D01*
X126805227Y-95556443D01*
X126799563Y-95533834D01*
X126796144Y-95510779D01*
X126795000Y-95487500D01*
X126795000Y-95012500D01*
X126796144Y-94989221D01*
X126799563Y-94966166D01*
X126805227Y-94943557D01*
X126813079Y-94921613D01*
X126823044Y-94900543D01*
X126835026Y-94880552D01*
X126848910Y-94861832D01*
X126864562Y-94844562D01*
X126881832Y-94828910D01*
X126900552Y-94815026D01*
X126920543Y-94803044D01*
X126941613Y-94793079D01*
X126963557Y-94785227D01*
X126986166Y-94779563D01*
X127009221Y-94776144D01*
X127032500Y-94775000D01*
X127607500Y-94775000D01*
X127630779Y-94776144D01*
X127630779Y-94776144D01*
G37*
D12*
X127320000Y-95250000D03*
D11*
G36*
X125880779Y-94776144D02*
X125903834Y-94779563D01*
X125926443Y-94785227D01*
X125948387Y-94793079D01*
X125969457Y-94803044D01*
X125989448Y-94815026D01*
X126008168Y-94828910D01*
X126025438Y-94844562D01*
X126041090Y-94861832D01*
X126054974Y-94880552D01*
X126066956Y-94900543D01*
X126076921Y-94921613D01*
X126084773Y-94943557D01*
X126090437Y-94966166D01*
X126093856Y-94989221D01*
X126095000Y-95012500D01*
X126095000Y-95487500D01*
X126093856Y-95510779D01*
X126090437Y-95533834D01*
X126084773Y-95556443D01*
X126076921Y-95578387D01*
X126066956Y-95599457D01*
X126054974Y-95619448D01*
X126041090Y-95638168D01*
X126025438Y-95655438D01*
X126008168Y-95671090D01*
X125989448Y-95684974D01*
X125969457Y-95696956D01*
X125948387Y-95706921D01*
X125926443Y-95714773D01*
X125903834Y-95720437D01*
X125880779Y-95723856D01*
X125857500Y-95725000D01*
X125282500Y-95725000D01*
X125259221Y-95723856D01*
X125236166Y-95720437D01*
X125213557Y-95714773D01*
X125191613Y-95706921D01*
X125170543Y-95696956D01*
X125150552Y-95684974D01*
X125131832Y-95671090D01*
X125114562Y-95655438D01*
X125098910Y-95638168D01*
X125085026Y-95619448D01*
X125073044Y-95599457D01*
X125063079Y-95578387D01*
X125055227Y-95556443D01*
X125049563Y-95533834D01*
X125046144Y-95510779D01*
X125045000Y-95487500D01*
X125045000Y-95012500D01*
X125046144Y-94989221D01*
X125049563Y-94966166D01*
X125055227Y-94943557D01*
X125063079Y-94921613D01*
X125073044Y-94900543D01*
X125085026Y-94880552D01*
X125098910Y-94861832D01*
X125114562Y-94844562D01*
X125131832Y-94828910D01*
X125150552Y-94815026D01*
X125170543Y-94803044D01*
X125191613Y-94793079D01*
X125213557Y-94785227D01*
X125236166Y-94779563D01*
X125259221Y-94776144D01*
X125282500Y-94775000D01*
X125857500Y-94775000D01*
X125880779Y-94776144D01*
X125880779Y-94776144D01*
G37*
D12*
X125570000Y-95250000D03*
G04 #@! TD*
D11*
G04 #@! TO.C,C14*
G36*
X144300779Y-99536144D02*
X144323834Y-99539563D01*
X144346443Y-99545227D01*
X144368387Y-99553079D01*
X144389457Y-99563044D01*
X144409448Y-99575026D01*
X144428168Y-99588910D01*
X144445438Y-99604562D01*
X144461090Y-99621832D01*
X144474974Y-99640552D01*
X144486956Y-99660543D01*
X144496921Y-99681613D01*
X144504773Y-99703557D01*
X144510437Y-99726166D01*
X144513856Y-99749221D01*
X144515000Y-99772500D01*
X144515000Y-100347500D01*
X144513856Y-100370779D01*
X144510437Y-100393834D01*
X144504773Y-100416443D01*
X144496921Y-100438387D01*
X144486956Y-100459457D01*
X144474974Y-100479448D01*
X144461090Y-100498168D01*
X144445438Y-100515438D01*
X144428168Y-100531090D01*
X144409448Y-100544974D01*
X144389457Y-100556956D01*
X144368387Y-100566921D01*
X144346443Y-100574773D01*
X144323834Y-100580437D01*
X144300779Y-100583856D01*
X144277500Y-100585000D01*
X143802500Y-100585000D01*
X143779221Y-100583856D01*
X143756166Y-100580437D01*
X143733557Y-100574773D01*
X143711613Y-100566921D01*
X143690543Y-100556956D01*
X143670552Y-100544974D01*
X143651832Y-100531090D01*
X143634562Y-100515438D01*
X143618910Y-100498168D01*
X143605026Y-100479448D01*
X143593044Y-100459457D01*
X143583079Y-100438387D01*
X143575227Y-100416443D01*
X143569563Y-100393834D01*
X143566144Y-100370779D01*
X143565000Y-100347500D01*
X143565000Y-99772500D01*
X143566144Y-99749221D01*
X143569563Y-99726166D01*
X143575227Y-99703557D01*
X143583079Y-99681613D01*
X143593044Y-99660543D01*
X143605026Y-99640552D01*
X143618910Y-99621832D01*
X143634562Y-99604562D01*
X143651832Y-99588910D01*
X143670552Y-99575026D01*
X143690543Y-99563044D01*
X143711613Y-99553079D01*
X143733557Y-99545227D01*
X143756166Y-99539563D01*
X143779221Y-99536144D01*
X143802500Y-99535000D01*
X144277500Y-99535000D01*
X144300779Y-99536144D01*
X144300779Y-99536144D01*
G37*
D12*
X144040000Y-100060000D03*
D11*
G36*
X144300779Y-101286144D02*
X144323834Y-101289563D01*
X144346443Y-101295227D01*
X144368387Y-101303079D01*
X144389457Y-101313044D01*
X144409448Y-101325026D01*
X144428168Y-101338910D01*
X144445438Y-101354562D01*
X144461090Y-101371832D01*
X144474974Y-101390552D01*
X144486956Y-101410543D01*
X144496921Y-101431613D01*
X144504773Y-101453557D01*
X144510437Y-101476166D01*
X144513856Y-101499221D01*
X144515000Y-101522500D01*
X144515000Y-102097500D01*
X144513856Y-102120779D01*
X144510437Y-102143834D01*
X144504773Y-102166443D01*
X144496921Y-102188387D01*
X144486956Y-102209457D01*
X144474974Y-102229448D01*
X144461090Y-102248168D01*
X144445438Y-102265438D01*
X144428168Y-102281090D01*
X144409448Y-102294974D01*
X144389457Y-102306956D01*
X144368387Y-102316921D01*
X144346443Y-102324773D01*
X144323834Y-102330437D01*
X144300779Y-102333856D01*
X144277500Y-102335000D01*
X143802500Y-102335000D01*
X143779221Y-102333856D01*
X143756166Y-102330437D01*
X143733557Y-102324773D01*
X143711613Y-102316921D01*
X143690543Y-102306956D01*
X143670552Y-102294974D01*
X143651832Y-102281090D01*
X143634562Y-102265438D01*
X143618910Y-102248168D01*
X143605026Y-102229448D01*
X143593044Y-102209457D01*
X143583079Y-102188387D01*
X143575227Y-102166443D01*
X143569563Y-102143834D01*
X143566144Y-102120779D01*
X143565000Y-102097500D01*
X143565000Y-101522500D01*
X143566144Y-101499221D01*
X143569563Y-101476166D01*
X143575227Y-101453557D01*
X143583079Y-101431613D01*
X143593044Y-101410543D01*
X143605026Y-101390552D01*
X143618910Y-101371832D01*
X143634562Y-101354562D01*
X143651832Y-101338910D01*
X143670552Y-101325026D01*
X143690543Y-101313044D01*
X143711613Y-101303079D01*
X143733557Y-101295227D01*
X143756166Y-101289563D01*
X143779221Y-101286144D01*
X143802500Y-101285000D01*
X144277500Y-101285000D01*
X144300779Y-101286144D01*
X144300779Y-101286144D01*
G37*
D12*
X144040000Y-101810000D03*
G04 #@! TD*
D11*
G04 #@! TO.C,C15*
G36*
X154300779Y-98726144D02*
X154323834Y-98729563D01*
X154346443Y-98735227D01*
X154368387Y-98743079D01*
X154389457Y-98753044D01*
X154409448Y-98765026D01*
X154428168Y-98778910D01*
X154445438Y-98794562D01*
X154461090Y-98811832D01*
X154474974Y-98830552D01*
X154486956Y-98850543D01*
X154496921Y-98871613D01*
X154504773Y-98893557D01*
X154510437Y-98916166D01*
X154513856Y-98939221D01*
X154515000Y-98962500D01*
X154515000Y-99437500D01*
X154513856Y-99460779D01*
X154510437Y-99483834D01*
X154504773Y-99506443D01*
X154496921Y-99528387D01*
X154486956Y-99549457D01*
X154474974Y-99569448D01*
X154461090Y-99588168D01*
X154445438Y-99605438D01*
X154428168Y-99621090D01*
X154409448Y-99634974D01*
X154389457Y-99646956D01*
X154368387Y-99656921D01*
X154346443Y-99664773D01*
X154323834Y-99670437D01*
X154300779Y-99673856D01*
X154277500Y-99675000D01*
X153702500Y-99675000D01*
X153679221Y-99673856D01*
X153656166Y-99670437D01*
X153633557Y-99664773D01*
X153611613Y-99656921D01*
X153590543Y-99646956D01*
X153570552Y-99634974D01*
X153551832Y-99621090D01*
X153534562Y-99605438D01*
X153518910Y-99588168D01*
X153505026Y-99569448D01*
X153493044Y-99549457D01*
X153483079Y-99528387D01*
X153475227Y-99506443D01*
X153469563Y-99483834D01*
X153466144Y-99460779D01*
X153465000Y-99437500D01*
X153465000Y-98962500D01*
X153466144Y-98939221D01*
X153469563Y-98916166D01*
X153475227Y-98893557D01*
X153483079Y-98871613D01*
X153493044Y-98850543D01*
X153505026Y-98830552D01*
X153518910Y-98811832D01*
X153534562Y-98794562D01*
X153551832Y-98778910D01*
X153570552Y-98765026D01*
X153590543Y-98753044D01*
X153611613Y-98743079D01*
X153633557Y-98735227D01*
X153656166Y-98729563D01*
X153679221Y-98726144D01*
X153702500Y-98725000D01*
X154277500Y-98725000D01*
X154300779Y-98726144D01*
X154300779Y-98726144D01*
G37*
D12*
X153990000Y-99200000D03*
D11*
G36*
X156050779Y-98726144D02*
X156073834Y-98729563D01*
X156096443Y-98735227D01*
X156118387Y-98743079D01*
X156139457Y-98753044D01*
X156159448Y-98765026D01*
X156178168Y-98778910D01*
X156195438Y-98794562D01*
X156211090Y-98811832D01*
X156224974Y-98830552D01*
X156236956Y-98850543D01*
X156246921Y-98871613D01*
X156254773Y-98893557D01*
X156260437Y-98916166D01*
X156263856Y-98939221D01*
X156265000Y-98962500D01*
X156265000Y-99437500D01*
X156263856Y-99460779D01*
X156260437Y-99483834D01*
X156254773Y-99506443D01*
X156246921Y-99528387D01*
X156236956Y-99549457D01*
X156224974Y-99569448D01*
X156211090Y-99588168D01*
X156195438Y-99605438D01*
X156178168Y-99621090D01*
X156159448Y-99634974D01*
X156139457Y-99646956D01*
X156118387Y-99656921D01*
X156096443Y-99664773D01*
X156073834Y-99670437D01*
X156050779Y-99673856D01*
X156027500Y-99675000D01*
X155452500Y-99675000D01*
X155429221Y-99673856D01*
X155406166Y-99670437D01*
X155383557Y-99664773D01*
X155361613Y-99656921D01*
X155340543Y-99646956D01*
X155320552Y-99634974D01*
X155301832Y-99621090D01*
X155284562Y-99605438D01*
X155268910Y-99588168D01*
X155255026Y-99569448D01*
X155243044Y-99549457D01*
X155233079Y-99528387D01*
X155225227Y-99506443D01*
X155219563Y-99483834D01*
X155216144Y-99460779D01*
X155215000Y-99437500D01*
X155215000Y-98962500D01*
X155216144Y-98939221D01*
X155219563Y-98916166D01*
X155225227Y-98893557D01*
X155233079Y-98871613D01*
X155243044Y-98850543D01*
X155255026Y-98830552D01*
X155268910Y-98811832D01*
X155284562Y-98794562D01*
X155301832Y-98778910D01*
X155320552Y-98765026D01*
X155340543Y-98753044D01*
X155361613Y-98743079D01*
X155383557Y-98735227D01*
X155406166Y-98729563D01*
X155429221Y-98726144D01*
X155452500Y-98725000D01*
X156027500Y-98725000D01*
X156050779Y-98726144D01*
X156050779Y-98726144D01*
G37*
D12*
X155740000Y-99200000D03*
G04 #@! TD*
D11*
G04 #@! TO.C,C18*
G36*
X156055779Y-97006144D02*
X156078834Y-97009563D01*
X156101443Y-97015227D01*
X156123387Y-97023079D01*
X156144457Y-97033044D01*
X156164448Y-97045026D01*
X156183168Y-97058910D01*
X156200438Y-97074562D01*
X156216090Y-97091832D01*
X156229974Y-97110552D01*
X156241956Y-97130543D01*
X156251921Y-97151613D01*
X156259773Y-97173557D01*
X156265437Y-97196166D01*
X156268856Y-97219221D01*
X156270000Y-97242500D01*
X156270000Y-97717500D01*
X156268856Y-97740779D01*
X156265437Y-97763834D01*
X156259773Y-97786443D01*
X156251921Y-97808387D01*
X156241956Y-97829457D01*
X156229974Y-97849448D01*
X156216090Y-97868168D01*
X156200438Y-97885438D01*
X156183168Y-97901090D01*
X156164448Y-97914974D01*
X156144457Y-97926956D01*
X156123387Y-97936921D01*
X156101443Y-97944773D01*
X156078834Y-97950437D01*
X156055779Y-97953856D01*
X156032500Y-97955000D01*
X155457500Y-97955000D01*
X155434221Y-97953856D01*
X155411166Y-97950437D01*
X155388557Y-97944773D01*
X155366613Y-97936921D01*
X155345543Y-97926956D01*
X155325552Y-97914974D01*
X155306832Y-97901090D01*
X155289562Y-97885438D01*
X155273910Y-97868168D01*
X155260026Y-97849448D01*
X155248044Y-97829457D01*
X155238079Y-97808387D01*
X155230227Y-97786443D01*
X155224563Y-97763834D01*
X155221144Y-97740779D01*
X155220000Y-97717500D01*
X155220000Y-97242500D01*
X155221144Y-97219221D01*
X155224563Y-97196166D01*
X155230227Y-97173557D01*
X155238079Y-97151613D01*
X155248044Y-97130543D01*
X155260026Y-97110552D01*
X155273910Y-97091832D01*
X155289562Y-97074562D01*
X155306832Y-97058910D01*
X155325552Y-97045026D01*
X155345543Y-97033044D01*
X155366613Y-97023079D01*
X155388557Y-97015227D01*
X155411166Y-97009563D01*
X155434221Y-97006144D01*
X155457500Y-97005000D01*
X156032500Y-97005000D01*
X156055779Y-97006144D01*
X156055779Y-97006144D01*
G37*
D12*
X155745000Y-97480000D03*
D11*
G36*
X154305779Y-97006144D02*
X154328834Y-97009563D01*
X154351443Y-97015227D01*
X154373387Y-97023079D01*
X154394457Y-97033044D01*
X154414448Y-97045026D01*
X154433168Y-97058910D01*
X154450438Y-97074562D01*
X154466090Y-97091832D01*
X154479974Y-97110552D01*
X154491956Y-97130543D01*
X154501921Y-97151613D01*
X154509773Y-97173557D01*
X154515437Y-97196166D01*
X154518856Y-97219221D01*
X154520000Y-97242500D01*
X154520000Y-97717500D01*
X154518856Y-97740779D01*
X154515437Y-97763834D01*
X154509773Y-97786443D01*
X154501921Y-97808387D01*
X154491956Y-97829457D01*
X154479974Y-97849448D01*
X154466090Y-97868168D01*
X154450438Y-97885438D01*
X154433168Y-97901090D01*
X154414448Y-97914974D01*
X154394457Y-97926956D01*
X154373387Y-97936921D01*
X154351443Y-97944773D01*
X154328834Y-97950437D01*
X154305779Y-97953856D01*
X154282500Y-97955000D01*
X153707500Y-97955000D01*
X153684221Y-97953856D01*
X153661166Y-97950437D01*
X153638557Y-97944773D01*
X153616613Y-97936921D01*
X153595543Y-97926956D01*
X153575552Y-97914974D01*
X153556832Y-97901090D01*
X153539562Y-97885438D01*
X153523910Y-97868168D01*
X153510026Y-97849448D01*
X153498044Y-97829457D01*
X153488079Y-97808387D01*
X153480227Y-97786443D01*
X153474563Y-97763834D01*
X153471144Y-97740779D01*
X153470000Y-97717500D01*
X153470000Y-97242500D01*
X153471144Y-97219221D01*
X153474563Y-97196166D01*
X153480227Y-97173557D01*
X153488079Y-97151613D01*
X153498044Y-97130543D01*
X153510026Y-97110552D01*
X153523910Y-97091832D01*
X153539562Y-97074562D01*
X153556832Y-97058910D01*
X153575552Y-97045026D01*
X153595543Y-97033044D01*
X153616613Y-97023079D01*
X153638557Y-97015227D01*
X153661166Y-97009563D01*
X153684221Y-97006144D01*
X153707500Y-97005000D01*
X154282500Y-97005000D01*
X154305779Y-97006144D01*
X154305779Y-97006144D01*
G37*
D12*
X153995000Y-97480000D03*
G04 #@! TD*
D13*
G04 #@! TO.C,D1*
X139060000Y-70970000D03*
X141560000Y-70970000D03*
G04 #@! TD*
D11*
G04 #@! TO.C,D2*
G36*
X121760779Y-74601144D02*
X121783834Y-74604563D01*
X121806443Y-74610227D01*
X121828387Y-74618079D01*
X121849457Y-74628044D01*
X121869448Y-74640026D01*
X121888168Y-74653910D01*
X121905438Y-74669562D01*
X121921090Y-74686832D01*
X121934974Y-74705552D01*
X121946956Y-74725543D01*
X121956921Y-74746613D01*
X121964773Y-74768557D01*
X121970437Y-74791166D01*
X121973856Y-74814221D01*
X121975000Y-74837500D01*
X121975000Y-75412500D01*
X121973856Y-75435779D01*
X121970437Y-75458834D01*
X121964773Y-75481443D01*
X121956921Y-75503387D01*
X121946956Y-75524457D01*
X121934974Y-75544448D01*
X121921090Y-75563168D01*
X121905438Y-75580438D01*
X121888168Y-75596090D01*
X121869448Y-75609974D01*
X121849457Y-75621956D01*
X121828387Y-75631921D01*
X121806443Y-75639773D01*
X121783834Y-75645437D01*
X121760779Y-75648856D01*
X121737500Y-75650000D01*
X121262500Y-75650000D01*
X121239221Y-75648856D01*
X121216166Y-75645437D01*
X121193557Y-75639773D01*
X121171613Y-75631921D01*
X121150543Y-75621956D01*
X121130552Y-75609974D01*
X121111832Y-75596090D01*
X121094562Y-75580438D01*
X121078910Y-75563168D01*
X121065026Y-75544448D01*
X121053044Y-75524457D01*
X121043079Y-75503387D01*
X121035227Y-75481443D01*
X121029563Y-75458834D01*
X121026144Y-75435779D01*
X121025000Y-75412500D01*
X121025000Y-74837500D01*
X121026144Y-74814221D01*
X121029563Y-74791166D01*
X121035227Y-74768557D01*
X121043079Y-74746613D01*
X121053044Y-74725543D01*
X121065026Y-74705552D01*
X121078910Y-74686832D01*
X121094562Y-74669562D01*
X121111832Y-74653910D01*
X121130552Y-74640026D01*
X121150543Y-74628044D01*
X121171613Y-74618079D01*
X121193557Y-74610227D01*
X121216166Y-74604563D01*
X121239221Y-74601144D01*
X121262500Y-74600000D01*
X121737500Y-74600000D01*
X121760779Y-74601144D01*
X121760779Y-74601144D01*
G37*
D12*
X121500000Y-75125000D03*
D11*
G36*
X121760779Y-72851144D02*
X121783834Y-72854563D01*
X121806443Y-72860227D01*
X121828387Y-72868079D01*
X121849457Y-72878044D01*
X121869448Y-72890026D01*
X121888168Y-72903910D01*
X121905438Y-72919562D01*
X121921090Y-72936832D01*
X121934974Y-72955552D01*
X121946956Y-72975543D01*
X121956921Y-72996613D01*
X121964773Y-73018557D01*
X121970437Y-73041166D01*
X121973856Y-73064221D01*
X121975000Y-73087500D01*
X121975000Y-73662500D01*
X121973856Y-73685779D01*
X121970437Y-73708834D01*
X121964773Y-73731443D01*
X121956921Y-73753387D01*
X121946956Y-73774457D01*
X121934974Y-73794448D01*
X121921090Y-73813168D01*
X121905438Y-73830438D01*
X121888168Y-73846090D01*
X121869448Y-73859974D01*
X121849457Y-73871956D01*
X121828387Y-73881921D01*
X121806443Y-73889773D01*
X121783834Y-73895437D01*
X121760779Y-73898856D01*
X121737500Y-73900000D01*
X121262500Y-73900000D01*
X121239221Y-73898856D01*
X121216166Y-73895437D01*
X121193557Y-73889773D01*
X121171613Y-73881921D01*
X121150543Y-73871956D01*
X121130552Y-73859974D01*
X121111832Y-73846090D01*
X121094562Y-73830438D01*
X121078910Y-73813168D01*
X121065026Y-73794448D01*
X121053044Y-73774457D01*
X121043079Y-73753387D01*
X121035227Y-73731443D01*
X121029563Y-73708834D01*
X121026144Y-73685779D01*
X121025000Y-73662500D01*
X121025000Y-73087500D01*
X121026144Y-73064221D01*
X121029563Y-73041166D01*
X121035227Y-73018557D01*
X121043079Y-72996613D01*
X121053044Y-72975543D01*
X121065026Y-72955552D01*
X121078910Y-72936832D01*
X121094562Y-72919562D01*
X121111832Y-72903910D01*
X121130552Y-72890026D01*
X121150543Y-72878044D01*
X121171613Y-72868079D01*
X121193557Y-72860227D01*
X121216166Y-72854563D01*
X121239221Y-72851144D01*
X121262500Y-72850000D01*
X121737500Y-72850000D01*
X121760779Y-72851144D01*
X121760779Y-72851144D01*
G37*
D12*
X121500000Y-73375000D03*
G04 #@! TD*
D11*
G04 #@! TO.C,D3*
G36*
X123760779Y-72851144D02*
X123783834Y-72854563D01*
X123806443Y-72860227D01*
X123828387Y-72868079D01*
X123849457Y-72878044D01*
X123869448Y-72890026D01*
X123888168Y-72903910D01*
X123905438Y-72919562D01*
X123921090Y-72936832D01*
X123934974Y-72955552D01*
X123946956Y-72975543D01*
X123956921Y-72996613D01*
X123964773Y-73018557D01*
X123970437Y-73041166D01*
X123973856Y-73064221D01*
X123975000Y-73087500D01*
X123975000Y-73662500D01*
X123973856Y-73685779D01*
X123970437Y-73708834D01*
X123964773Y-73731443D01*
X123956921Y-73753387D01*
X123946956Y-73774457D01*
X123934974Y-73794448D01*
X123921090Y-73813168D01*
X123905438Y-73830438D01*
X123888168Y-73846090D01*
X123869448Y-73859974D01*
X123849457Y-73871956D01*
X123828387Y-73881921D01*
X123806443Y-73889773D01*
X123783834Y-73895437D01*
X123760779Y-73898856D01*
X123737500Y-73900000D01*
X123262500Y-73900000D01*
X123239221Y-73898856D01*
X123216166Y-73895437D01*
X123193557Y-73889773D01*
X123171613Y-73881921D01*
X123150543Y-73871956D01*
X123130552Y-73859974D01*
X123111832Y-73846090D01*
X123094562Y-73830438D01*
X123078910Y-73813168D01*
X123065026Y-73794448D01*
X123053044Y-73774457D01*
X123043079Y-73753387D01*
X123035227Y-73731443D01*
X123029563Y-73708834D01*
X123026144Y-73685779D01*
X123025000Y-73662500D01*
X123025000Y-73087500D01*
X123026144Y-73064221D01*
X123029563Y-73041166D01*
X123035227Y-73018557D01*
X123043079Y-72996613D01*
X123053044Y-72975543D01*
X123065026Y-72955552D01*
X123078910Y-72936832D01*
X123094562Y-72919562D01*
X123111832Y-72903910D01*
X123130552Y-72890026D01*
X123150543Y-72878044D01*
X123171613Y-72868079D01*
X123193557Y-72860227D01*
X123216166Y-72854563D01*
X123239221Y-72851144D01*
X123262500Y-72850000D01*
X123737500Y-72850000D01*
X123760779Y-72851144D01*
X123760779Y-72851144D01*
G37*
D12*
X123500000Y-73375000D03*
D11*
G36*
X123760779Y-74601144D02*
X123783834Y-74604563D01*
X123806443Y-74610227D01*
X123828387Y-74618079D01*
X123849457Y-74628044D01*
X123869448Y-74640026D01*
X123888168Y-74653910D01*
X123905438Y-74669562D01*
X123921090Y-74686832D01*
X123934974Y-74705552D01*
X123946956Y-74725543D01*
X123956921Y-74746613D01*
X123964773Y-74768557D01*
X123970437Y-74791166D01*
X123973856Y-74814221D01*
X123975000Y-74837500D01*
X123975000Y-75412500D01*
X123973856Y-75435779D01*
X123970437Y-75458834D01*
X123964773Y-75481443D01*
X123956921Y-75503387D01*
X123946956Y-75524457D01*
X123934974Y-75544448D01*
X123921090Y-75563168D01*
X123905438Y-75580438D01*
X123888168Y-75596090D01*
X123869448Y-75609974D01*
X123849457Y-75621956D01*
X123828387Y-75631921D01*
X123806443Y-75639773D01*
X123783834Y-75645437D01*
X123760779Y-75648856D01*
X123737500Y-75650000D01*
X123262500Y-75650000D01*
X123239221Y-75648856D01*
X123216166Y-75645437D01*
X123193557Y-75639773D01*
X123171613Y-75631921D01*
X123150543Y-75621956D01*
X123130552Y-75609974D01*
X123111832Y-75596090D01*
X123094562Y-75580438D01*
X123078910Y-75563168D01*
X123065026Y-75544448D01*
X123053044Y-75524457D01*
X123043079Y-75503387D01*
X123035227Y-75481443D01*
X123029563Y-75458834D01*
X123026144Y-75435779D01*
X123025000Y-75412500D01*
X123025000Y-74837500D01*
X123026144Y-74814221D01*
X123029563Y-74791166D01*
X123035227Y-74768557D01*
X123043079Y-74746613D01*
X123053044Y-74725543D01*
X123065026Y-74705552D01*
X123078910Y-74686832D01*
X123094562Y-74669562D01*
X123111832Y-74653910D01*
X123130552Y-74640026D01*
X123150543Y-74628044D01*
X123171613Y-74618079D01*
X123193557Y-74610227D01*
X123216166Y-74604563D01*
X123239221Y-74601144D01*
X123262500Y-74600000D01*
X123737500Y-74600000D01*
X123760779Y-74601144D01*
X123760779Y-74601144D01*
G37*
D12*
X123500000Y-75125000D03*
G04 #@! TD*
D11*
G04 #@! TO.C,J2*
G36*
X124094603Y-112850963D02*
X124114018Y-112853843D01*
X124133057Y-112858612D01*
X124151537Y-112865224D01*
X124169279Y-112873616D01*
X124186114Y-112883706D01*
X124201879Y-112895398D01*
X124216421Y-112908579D01*
X124229602Y-112923121D01*
X124241294Y-112938886D01*
X124251384Y-112955721D01*
X124259776Y-112973463D01*
X124266388Y-112991943D01*
X124271157Y-113010982D01*
X124274037Y-113030397D01*
X124275000Y-113050000D01*
X124275000Y-114250000D01*
X124274037Y-114269603D01*
X124271157Y-114289018D01*
X124266388Y-114308057D01*
X124259776Y-114326537D01*
X124251384Y-114344279D01*
X124241294Y-114361114D01*
X124229602Y-114376879D01*
X124216421Y-114391421D01*
X124201879Y-114404602D01*
X124186114Y-114416294D01*
X124169279Y-114426384D01*
X124151537Y-114434776D01*
X124133057Y-114441388D01*
X124114018Y-114446157D01*
X124094603Y-114449037D01*
X124075000Y-114450000D01*
X123675000Y-114450000D01*
X123655397Y-114449037D01*
X123635982Y-114446157D01*
X123616943Y-114441388D01*
X123598463Y-114434776D01*
X123580721Y-114426384D01*
X123563886Y-114416294D01*
X123548121Y-114404602D01*
X123533579Y-114391421D01*
X123520398Y-114376879D01*
X123508706Y-114361114D01*
X123498616Y-114344279D01*
X123490224Y-114326537D01*
X123483612Y-114308057D01*
X123478843Y-114289018D01*
X123475963Y-114269603D01*
X123475000Y-114250000D01*
X123475000Y-113050000D01*
X123475963Y-113030397D01*
X123478843Y-113010982D01*
X123483612Y-112991943D01*
X123490224Y-112973463D01*
X123498616Y-112955721D01*
X123508706Y-112938886D01*
X123520398Y-112923121D01*
X123533579Y-112908579D01*
X123548121Y-112895398D01*
X123563886Y-112883706D01*
X123580721Y-112873616D01*
X123598463Y-112865224D01*
X123616943Y-112858612D01*
X123635982Y-112853843D01*
X123655397Y-112850963D01*
X123675000Y-112850000D01*
X124075000Y-112850000D01*
X124094603Y-112850963D01*
X124094603Y-112850963D01*
G37*
D14*
X123875000Y-113650000D03*
D11*
G36*
X125344603Y-112850963D02*
X125364018Y-112853843D01*
X125383057Y-112858612D01*
X125401537Y-112865224D01*
X125419279Y-112873616D01*
X125436114Y-112883706D01*
X125451879Y-112895398D01*
X125466421Y-112908579D01*
X125479602Y-112923121D01*
X125491294Y-112938886D01*
X125501384Y-112955721D01*
X125509776Y-112973463D01*
X125516388Y-112991943D01*
X125521157Y-113010982D01*
X125524037Y-113030397D01*
X125525000Y-113050000D01*
X125525000Y-114250000D01*
X125524037Y-114269603D01*
X125521157Y-114289018D01*
X125516388Y-114308057D01*
X125509776Y-114326537D01*
X125501384Y-114344279D01*
X125491294Y-114361114D01*
X125479602Y-114376879D01*
X125466421Y-114391421D01*
X125451879Y-114404602D01*
X125436114Y-114416294D01*
X125419279Y-114426384D01*
X125401537Y-114434776D01*
X125383057Y-114441388D01*
X125364018Y-114446157D01*
X125344603Y-114449037D01*
X125325000Y-114450000D01*
X124925000Y-114450000D01*
X124905397Y-114449037D01*
X124885982Y-114446157D01*
X124866943Y-114441388D01*
X124848463Y-114434776D01*
X124830721Y-114426384D01*
X124813886Y-114416294D01*
X124798121Y-114404602D01*
X124783579Y-114391421D01*
X124770398Y-114376879D01*
X124758706Y-114361114D01*
X124748616Y-114344279D01*
X124740224Y-114326537D01*
X124733612Y-114308057D01*
X124728843Y-114289018D01*
X124725963Y-114269603D01*
X124725000Y-114250000D01*
X124725000Y-113050000D01*
X124725963Y-113030397D01*
X124728843Y-113010982D01*
X124733612Y-112991943D01*
X124740224Y-112973463D01*
X124748616Y-112955721D01*
X124758706Y-112938886D01*
X124770398Y-112923121D01*
X124783579Y-112908579D01*
X124798121Y-112895398D01*
X124813886Y-112883706D01*
X124830721Y-112873616D01*
X124848463Y-112865224D01*
X124866943Y-112858612D01*
X124885982Y-112853843D01*
X124905397Y-112850963D01*
X124925000Y-112850000D01*
X125325000Y-112850000D01*
X125344603Y-112850963D01*
X125344603Y-112850963D01*
G37*
D14*
X125125000Y-113650000D03*
D11*
G36*
X122149504Y-109251204D02*
X122173773Y-109254804D01*
X122197571Y-109260765D01*
X122220671Y-109269030D01*
X122242849Y-109279520D01*
X122263893Y-109292133D01*
X122283598Y-109306747D01*
X122301777Y-109323223D01*
X122318253Y-109341402D01*
X122332867Y-109361107D01*
X122345480Y-109382151D01*
X122355970Y-109404329D01*
X122364235Y-109427429D01*
X122370196Y-109451227D01*
X122373796Y-109475496D01*
X122375000Y-109500000D01*
X122375000Y-112000000D01*
X122373796Y-112024504D01*
X122370196Y-112048773D01*
X122364235Y-112072571D01*
X122355970Y-112095671D01*
X122345480Y-112117849D01*
X122332867Y-112138893D01*
X122318253Y-112158598D01*
X122301777Y-112176777D01*
X122283598Y-112193253D01*
X122263893Y-112207867D01*
X122242849Y-112220480D01*
X122220671Y-112230970D01*
X122197571Y-112239235D01*
X122173773Y-112245196D01*
X122149504Y-112248796D01*
X122125000Y-112250000D01*
X120525000Y-112250000D01*
X120500496Y-112248796D01*
X120476227Y-112245196D01*
X120452429Y-112239235D01*
X120429329Y-112230970D01*
X120407151Y-112220480D01*
X120386107Y-112207867D01*
X120366402Y-112193253D01*
X120348223Y-112176777D01*
X120331747Y-112158598D01*
X120317133Y-112138893D01*
X120304520Y-112117849D01*
X120294030Y-112095671D01*
X120285765Y-112072571D01*
X120279804Y-112048773D01*
X120276204Y-112024504D01*
X120275000Y-112000000D01*
X120275000Y-109500000D01*
X120276204Y-109475496D01*
X120279804Y-109451227D01*
X120285765Y-109427429D01*
X120294030Y-109404329D01*
X120304520Y-109382151D01*
X120317133Y-109361107D01*
X120331747Y-109341402D01*
X120348223Y-109323223D01*
X120366402Y-109306747D01*
X120386107Y-109292133D01*
X120407151Y-109279520D01*
X120429329Y-109269030D01*
X120452429Y-109260765D01*
X120476227Y-109254804D01*
X120500496Y-109251204D01*
X120525000Y-109250000D01*
X122125000Y-109250000D01*
X122149504Y-109251204D01*
X122149504Y-109251204D01*
G37*
D15*
X121325000Y-110750000D03*
D11*
G36*
X128499504Y-109251204D02*
X128523773Y-109254804D01*
X128547571Y-109260765D01*
X128570671Y-109269030D01*
X128592849Y-109279520D01*
X128613893Y-109292133D01*
X128633598Y-109306747D01*
X128651777Y-109323223D01*
X128668253Y-109341402D01*
X128682867Y-109361107D01*
X128695480Y-109382151D01*
X128705970Y-109404329D01*
X128714235Y-109427429D01*
X128720196Y-109451227D01*
X128723796Y-109475496D01*
X128725000Y-109500000D01*
X128725000Y-112000000D01*
X128723796Y-112024504D01*
X128720196Y-112048773D01*
X128714235Y-112072571D01*
X128705970Y-112095671D01*
X128695480Y-112117849D01*
X128682867Y-112138893D01*
X128668253Y-112158598D01*
X128651777Y-112176777D01*
X128633598Y-112193253D01*
X128613893Y-112207867D01*
X128592849Y-112220480D01*
X128570671Y-112230970D01*
X128547571Y-112239235D01*
X128523773Y-112245196D01*
X128499504Y-112248796D01*
X128475000Y-112250000D01*
X126875000Y-112250000D01*
X126850496Y-112248796D01*
X126826227Y-112245196D01*
X126802429Y-112239235D01*
X126779329Y-112230970D01*
X126757151Y-112220480D01*
X126736107Y-112207867D01*
X126716402Y-112193253D01*
X126698223Y-112176777D01*
X126681747Y-112158598D01*
X126667133Y-112138893D01*
X126654520Y-112117849D01*
X126644030Y-112095671D01*
X126635765Y-112072571D01*
X126629804Y-112048773D01*
X126626204Y-112024504D01*
X126625000Y-112000000D01*
X126625000Y-109500000D01*
X126626204Y-109475496D01*
X126629804Y-109451227D01*
X126635765Y-109427429D01*
X126644030Y-109404329D01*
X126654520Y-109382151D01*
X126667133Y-109361107D01*
X126681747Y-109341402D01*
X126698223Y-109323223D01*
X126716402Y-109306747D01*
X126736107Y-109292133D01*
X126757151Y-109279520D01*
X126779329Y-109269030D01*
X126802429Y-109260765D01*
X126826227Y-109254804D01*
X126850496Y-109251204D01*
X126875000Y-109250000D01*
X128475000Y-109250000D01*
X128499504Y-109251204D01*
X128499504Y-109251204D01*
G37*
D15*
X127675000Y-110750000D03*
G04 #@! TD*
D11*
G04 #@! TO.C,L1*
G36*
X137545779Y-70506144D02*
X137568834Y-70509563D01*
X137591443Y-70515227D01*
X137613387Y-70523079D01*
X137634457Y-70533044D01*
X137654448Y-70545026D01*
X137673168Y-70558910D01*
X137690438Y-70574562D01*
X137706090Y-70591832D01*
X137719974Y-70610552D01*
X137731956Y-70630543D01*
X137741921Y-70651613D01*
X137749773Y-70673557D01*
X137755437Y-70696166D01*
X137758856Y-70719221D01*
X137760000Y-70742500D01*
X137760000Y-71217500D01*
X137758856Y-71240779D01*
X137755437Y-71263834D01*
X137749773Y-71286443D01*
X137741921Y-71308387D01*
X137731956Y-71329457D01*
X137719974Y-71349448D01*
X137706090Y-71368168D01*
X137690438Y-71385438D01*
X137673168Y-71401090D01*
X137654448Y-71414974D01*
X137634457Y-71426956D01*
X137613387Y-71436921D01*
X137591443Y-71444773D01*
X137568834Y-71450437D01*
X137545779Y-71453856D01*
X137522500Y-71455000D01*
X136947500Y-71455000D01*
X136924221Y-71453856D01*
X136901166Y-71450437D01*
X136878557Y-71444773D01*
X136856613Y-71436921D01*
X136835543Y-71426956D01*
X136815552Y-71414974D01*
X136796832Y-71401090D01*
X136779562Y-71385438D01*
X136763910Y-71368168D01*
X136750026Y-71349448D01*
X136738044Y-71329457D01*
X136728079Y-71308387D01*
X136720227Y-71286443D01*
X136714563Y-71263834D01*
X136711144Y-71240779D01*
X136710000Y-71217500D01*
X136710000Y-70742500D01*
X136711144Y-70719221D01*
X136714563Y-70696166D01*
X136720227Y-70673557D01*
X136728079Y-70651613D01*
X136738044Y-70630543D01*
X136750026Y-70610552D01*
X136763910Y-70591832D01*
X136779562Y-70574562D01*
X136796832Y-70558910D01*
X136815552Y-70545026D01*
X136835543Y-70533044D01*
X136856613Y-70523079D01*
X136878557Y-70515227D01*
X136901166Y-70509563D01*
X136924221Y-70506144D01*
X136947500Y-70505000D01*
X137522500Y-70505000D01*
X137545779Y-70506144D01*
X137545779Y-70506144D01*
G37*
D12*
X137235000Y-70980000D03*
D11*
G36*
X135795779Y-70506144D02*
X135818834Y-70509563D01*
X135841443Y-70515227D01*
X135863387Y-70523079D01*
X135884457Y-70533044D01*
X135904448Y-70545026D01*
X135923168Y-70558910D01*
X135940438Y-70574562D01*
X135956090Y-70591832D01*
X135969974Y-70610552D01*
X135981956Y-70630543D01*
X135991921Y-70651613D01*
X135999773Y-70673557D01*
X136005437Y-70696166D01*
X136008856Y-70719221D01*
X136010000Y-70742500D01*
X136010000Y-71217500D01*
X136008856Y-71240779D01*
X136005437Y-71263834D01*
X135999773Y-71286443D01*
X135991921Y-71308387D01*
X135981956Y-71329457D01*
X135969974Y-71349448D01*
X135956090Y-71368168D01*
X135940438Y-71385438D01*
X135923168Y-71401090D01*
X135904448Y-71414974D01*
X135884457Y-71426956D01*
X135863387Y-71436921D01*
X135841443Y-71444773D01*
X135818834Y-71450437D01*
X135795779Y-71453856D01*
X135772500Y-71455000D01*
X135197500Y-71455000D01*
X135174221Y-71453856D01*
X135151166Y-71450437D01*
X135128557Y-71444773D01*
X135106613Y-71436921D01*
X135085543Y-71426956D01*
X135065552Y-71414974D01*
X135046832Y-71401090D01*
X135029562Y-71385438D01*
X135013910Y-71368168D01*
X135000026Y-71349448D01*
X134988044Y-71329457D01*
X134978079Y-71308387D01*
X134970227Y-71286443D01*
X134964563Y-71263834D01*
X134961144Y-71240779D01*
X134960000Y-71217500D01*
X134960000Y-70742500D01*
X134961144Y-70719221D01*
X134964563Y-70696166D01*
X134970227Y-70673557D01*
X134978079Y-70651613D01*
X134988044Y-70630543D01*
X135000026Y-70610552D01*
X135013910Y-70591832D01*
X135029562Y-70574562D01*
X135046832Y-70558910D01*
X135065552Y-70545026D01*
X135085543Y-70533044D01*
X135106613Y-70523079D01*
X135128557Y-70515227D01*
X135151166Y-70509563D01*
X135174221Y-70506144D01*
X135197500Y-70505000D01*
X135772500Y-70505000D01*
X135795779Y-70506144D01*
X135795779Y-70506144D01*
G37*
D12*
X135485000Y-70980000D03*
G04 #@! TD*
D16*
G04 #@! TO.C,Q1*
X124450000Y-100250000D03*
X122550000Y-100250000D03*
X123500000Y-98250000D03*
G04 #@! TD*
D11*
G04 #@! TO.C,R1*
G36*
X140172183Y-101917299D02*
X140195238Y-101920718D01*
X140217847Y-101926382D01*
X140239791Y-101934234D01*
X140260861Y-101944199D01*
X140280852Y-101956181D01*
X140299572Y-101970065D01*
X140316842Y-101985717D01*
X140332494Y-102002987D01*
X140346378Y-102021707D01*
X140358360Y-102041698D01*
X140368325Y-102062768D01*
X140376177Y-102084712D01*
X140381841Y-102107321D01*
X140385260Y-102130376D01*
X140386404Y-102153655D01*
X140386404Y-102728655D01*
X140385260Y-102751934D01*
X140381841Y-102774989D01*
X140376177Y-102797598D01*
X140368325Y-102819542D01*
X140358360Y-102840612D01*
X140346378Y-102860603D01*
X140332494Y-102879323D01*
X140316842Y-102896593D01*
X140299572Y-102912245D01*
X140280852Y-102926129D01*
X140260861Y-102938111D01*
X140239791Y-102948076D01*
X140217847Y-102955928D01*
X140195238Y-102961592D01*
X140172183Y-102965011D01*
X140148904Y-102966155D01*
X139673904Y-102966155D01*
X139650625Y-102965011D01*
X139627570Y-102961592D01*
X139604961Y-102955928D01*
X139583017Y-102948076D01*
X139561947Y-102938111D01*
X139541956Y-102926129D01*
X139523236Y-102912245D01*
X139505966Y-102896593D01*
X139490314Y-102879323D01*
X139476430Y-102860603D01*
X139464448Y-102840612D01*
X139454483Y-102819542D01*
X139446631Y-102797598D01*
X139440967Y-102774989D01*
X139437548Y-102751934D01*
X139436404Y-102728655D01*
X139436404Y-102153655D01*
X139437548Y-102130376D01*
X139440967Y-102107321D01*
X139446631Y-102084712D01*
X139454483Y-102062768D01*
X139464448Y-102041698D01*
X139476430Y-102021707D01*
X139490314Y-102002987D01*
X139505966Y-101985717D01*
X139523236Y-101970065D01*
X139541956Y-101956181D01*
X139561947Y-101944199D01*
X139583017Y-101934234D01*
X139604961Y-101926382D01*
X139627570Y-101920718D01*
X139650625Y-101917299D01*
X139673904Y-101916155D01*
X140148904Y-101916155D01*
X140172183Y-101917299D01*
X140172183Y-101917299D01*
G37*
D12*
X139911404Y-102441155D03*
D11*
G36*
X140172183Y-103667299D02*
X140195238Y-103670718D01*
X140217847Y-103676382D01*
X140239791Y-103684234D01*
X140260861Y-103694199D01*
X140280852Y-103706181D01*
X140299572Y-103720065D01*
X140316842Y-103735717D01*
X140332494Y-103752987D01*
X140346378Y-103771707D01*
X140358360Y-103791698D01*
X140368325Y-103812768D01*
X140376177Y-103834712D01*
X140381841Y-103857321D01*
X140385260Y-103880376D01*
X140386404Y-103903655D01*
X140386404Y-104478655D01*
X140385260Y-104501934D01*
X140381841Y-104524989D01*
X140376177Y-104547598D01*
X140368325Y-104569542D01*
X140358360Y-104590612D01*
X140346378Y-104610603D01*
X140332494Y-104629323D01*
X140316842Y-104646593D01*
X140299572Y-104662245D01*
X140280852Y-104676129D01*
X140260861Y-104688111D01*
X140239791Y-104698076D01*
X140217847Y-104705928D01*
X140195238Y-104711592D01*
X140172183Y-104715011D01*
X140148904Y-104716155D01*
X139673904Y-104716155D01*
X139650625Y-104715011D01*
X139627570Y-104711592D01*
X139604961Y-104705928D01*
X139583017Y-104698076D01*
X139561947Y-104688111D01*
X139541956Y-104676129D01*
X139523236Y-104662245D01*
X139505966Y-104646593D01*
X139490314Y-104629323D01*
X139476430Y-104610603D01*
X139464448Y-104590612D01*
X139454483Y-104569542D01*
X139446631Y-104547598D01*
X139440967Y-104524989D01*
X139437548Y-104501934D01*
X139436404Y-104478655D01*
X139436404Y-103903655D01*
X139437548Y-103880376D01*
X139440967Y-103857321D01*
X139446631Y-103834712D01*
X139454483Y-103812768D01*
X139464448Y-103791698D01*
X139476430Y-103771707D01*
X139490314Y-103752987D01*
X139505966Y-103735717D01*
X139523236Y-103720065D01*
X139541956Y-103706181D01*
X139561947Y-103694199D01*
X139583017Y-103684234D01*
X139604961Y-103676382D01*
X139627570Y-103670718D01*
X139650625Y-103667299D01*
X139673904Y-103666155D01*
X140148904Y-103666155D01*
X140172183Y-103667299D01*
X140172183Y-103667299D01*
G37*
D12*
X139911404Y-104191155D03*
G04 #@! TD*
D11*
G04 #@! TO.C,R2*
G36*
X121455779Y-106216144D02*
X121478834Y-106219563D01*
X121501443Y-106225227D01*
X121523387Y-106233079D01*
X121544457Y-106243044D01*
X121564448Y-106255026D01*
X121583168Y-106268910D01*
X121600438Y-106284562D01*
X121616090Y-106301832D01*
X121629974Y-106320552D01*
X121641956Y-106340543D01*
X121651921Y-106361613D01*
X121659773Y-106383557D01*
X121665437Y-106406166D01*
X121668856Y-106429221D01*
X121670000Y-106452500D01*
X121670000Y-106927500D01*
X121668856Y-106950779D01*
X121665437Y-106973834D01*
X121659773Y-106996443D01*
X121651921Y-107018387D01*
X121641956Y-107039457D01*
X121629974Y-107059448D01*
X121616090Y-107078168D01*
X121600438Y-107095438D01*
X121583168Y-107111090D01*
X121564448Y-107124974D01*
X121544457Y-107136956D01*
X121523387Y-107146921D01*
X121501443Y-107154773D01*
X121478834Y-107160437D01*
X121455779Y-107163856D01*
X121432500Y-107165000D01*
X120857500Y-107165000D01*
X120834221Y-107163856D01*
X120811166Y-107160437D01*
X120788557Y-107154773D01*
X120766613Y-107146921D01*
X120745543Y-107136956D01*
X120725552Y-107124974D01*
X120706832Y-107111090D01*
X120689562Y-107095438D01*
X120673910Y-107078168D01*
X120660026Y-107059448D01*
X120648044Y-107039457D01*
X120638079Y-107018387D01*
X120630227Y-106996443D01*
X120624563Y-106973834D01*
X120621144Y-106950779D01*
X120620000Y-106927500D01*
X120620000Y-106452500D01*
X120621144Y-106429221D01*
X120624563Y-106406166D01*
X120630227Y-106383557D01*
X120638079Y-106361613D01*
X120648044Y-106340543D01*
X120660026Y-106320552D01*
X120673910Y-106301832D01*
X120689562Y-106284562D01*
X120706832Y-106268910D01*
X120725552Y-106255026D01*
X120745543Y-106243044D01*
X120766613Y-106233079D01*
X120788557Y-106225227D01*
X120811166Y-106219563D01*
X120834221Y-106216144D01*
X120857500Y-106215000D01*
X121432500Y-106215000D01*
X121455779Y-106216144D01*
X121455779Y-106216144D01*
G37*
D12*
X121145000Y-106690000D03*
D11*
G36*
X123205779Y-106216144D02*
X123228834Y-106219563D01*
X123251443Y-106225227D01*
X123273387Y-106233079D01*
X123294457Y-106243044D01*
X123314448Y-106255026D01*
X123333168Y-106268910D01*
X123350438Y-106284562D01*
X123366090Y-106301832D01*
X123379974Y-106320552D01*
X123391956Y-106340543D01*
X123401921Y-106361613D01*
X123409773Y-106383557D01*
X123415437Y-106406166D01*
X123418856Y-106429221D01*
X123420000Y-106452500D01*
X123420000Y-106927500D01*
X123418856Y-106950779D01*
X123415437Y-106973834D01*
X123409773Y-106996443D01*
X123401921Y-107018387D01*
X123391956Y-107039457D01*
X123379974Y-107059448D01*
X123366090Y-107078168D01*
X123350438Y-107095438D01*
X123333168Y-107111090D01*
X123314448Y-107124974D01*
X123294457Y-107136956D01*
X123273387Y-107146921D01*
X123251443Y-107154773D01*
X123228834Y-107160437D01*
X123205779Y-107163856D01*
X123182500Y-107165000D01*
X122607500Y-107165000D01*
X122584221Y-107163856D01*
X122561166Y-107160437D01*
X122538557Y-107154773D01*
X122516613Y-107146921D01*
X122495543Y-107136956D01*
X122475552Y-107124974D01*
X122456832Y-107111090D01*
X122439562Y-107095438D01*
X122423910Y-107078168D01*
X122410026Y-107059448D01*
X122398044Y-107039457D01*
X122388079Y-107018387D01*
X122380227Y-106996443D01*
X122374563Y-106973834D01*
X122371144Y-106950779D01*
X122370000Y-106927500D01*
X122370000Y-106452500D01*
X122371144Y-106429221D01*
X122374563Y-106406166D01*
X122380227Y-106383557D01*
X122388079Y-106361613D01*
X122398044Y-106340543D01*
X122410026Y-106320552D01*
X122423910Y-106301832D01*
X122439562Y-106284562D01*
X122456832Y-106268910D01*
X122475552Y-106255026D01*
X122495543Y-106243044D01*
X122516613Y-106233079D01*
X122538557Y-106225227D01*
X122561166Y-106219563D01*
X122584221Y-106216144D01*
X122607500Y-106215000D01*
X123182500Y-106215000D01*
X123205779Y-106216144D01*
X123205779Y-106216144D01*
G37*
D12*
X122895000Y-106690000D03*
G04 #@! TD*
D11*
G04 #@! TO.C,R3*
G36*
X144985779Y-72866144D02*
X145008834Y-72869563D01*
X145031443Y-72875227D01*
X145053387Y-72883079D01*
X145074457Y-72893044D01*
X145094448Y-72905026D01*
X145113168Y-72918910D01*
X145130438Y-72934562D01*
X145146090Y-72951832D01*
X145159974Y-72970552D01*
X145171956Y-72990543D01*
X145181921Y-73011613D01*
X145189773Y-73033557D01*
X145195437Y-73056166D01*
X145198856Y-73079221D01*
X145200000Y-73102500D01*
X145200000Y-73577500D01*
X145198856Y-73600779D01*
X145195437Y-73623834D01*
X145189773Y-73646443D01*
X145181921Y-73668387D01*
X145171956Y-73689457D01*
X145159974Y-73709448D01*
X145146090Y-73728168D01*
X145130438Y-73745438D01*
X145113168Y-73761090D01*
X145094448Y-73774974D01*
X145074457Y-73786956D01*
X145053387Y-73796921D01*
X145031443Y-73804773D01*
X145008834Y-73810437D01*
X144985779Y-73813856D01*
X144962500Y-73815000D01*
X144387500Y-73815000D01*
X144364221Y-73813856D01*
X144341166Y-73810437D01*
X144318557Y-73804773D01*
X144296613Y-73796921D01*
X144275543Y-73786956D01*
X144255552Y-73774974D01*
X144236832Y-73761090D01*
X144219562Y-73745438D01*
X144203910Y-73728168D01*
X144190026Y-73709448D01*
X144178044Y-73689457D01*
X144168079Y-73668387D01*
X144160227Y-73646443D01*
X144154563Y-73623834D01*
X144151144Y-73600779D01*
X144150000Y-73577500D01*
X144150000Y-73102500D01*
X144151144Y-73079221D01*
X144154563Y-73056166D01*
X144160227Y-73033557D01*
X144168079Y-73011613D01*
X144178044Y-72990543D01*
X144190026Y-72970552D01*
X144203910Y-72951832D01*
X144219562Y-72934562D01*
X144236832Y-72918910D01*
X144255552Y-72905026D01*
X144275543Y-72893044D01*
X144296613Y-72883079D01*
X144318557Y-72875227D01*
X144341166Y-72869563D01*
X144364221Y-72866144D01*
X144387500Y-72865000D01*
X144962500Y-72865000D01*
X144985779Y-72866144D01*
X144985779Y-72866144D01*
G37*
D12*
X144675000Y-73340000D03*
D11*
G36*
X146735779Y-72866144D02*
X146758834Y-72869563D01*
X146781443Y-72875227D01*
X146803387Y-72883079D01*
X146824457Y-72893044D01*
X146844448Y-72905026D01*
X146863168Y-72918910D01*
X146880438Y-72934562D01*
X146896090Y-72951832D01*
X146909974Y-72970552D01*
X146921956Y-72990543D01*
X146931921Y-73011613D01*
X146939773Y-73033557D01*
X146945437Y-73056166D01*
X146948856Y-73079221D01*
X146950000Y-73102500D01*
X146950000Y-73577500D01*
X146948856Y-73600779D01*
X146945437Y-73623834D01*
X146939773Y-73646443D01*
X146931921Y-73668387D01*
X146921956Y-73689457D01*
X146909974Y-73709448D01*
X146896090Y-73728168D01*
X146880438Y-73745438D01*
X146863168Y-73761090D01*
X146844448Y-73774974D01*
X146824457Y-73786956D01*
X146803387Y-73796921D01*
X146781443Y-73804773D01*
X146758834Y-73810437D01*
X146735779Y-73813856D01*
X146712500Y-73815000D01*
X146137500Y-73815000D01*
X146114221Y-73813856D01*
X146091166Y-73810437D01*
X146068557Y-73804773D01*
X146046613Y-73796921D01*
X146025543Y-73786956D01*
X146005552Y-73774974D01*
X145986832Y-73761090D01*
X145969562Y-73745438D01*
X145953910Y-73728168D01*
X145940026Y-73709448D01*
X145928044Y-73689457D01*
X145918079Y-73668387D01*
X145910227Y-73646443D01*
X145904563Y-73623834D01*
X145901144Y-73600779D01*
X145900000Y-73577500D01*
X145900000Y-73102500D01*
X145901144Y-73079221D01*
X145904563Y-73056166D01*
X145910227Y-73033557D01*
X145918079Y-73011613D01*
X145928044Y-72990543D01*
X145940026Y-72970552D01*
X145953910Y-72951832D01*
X145969562Y-72934562D01*
X145986832Y-72918910D01*
X146005552Y-72905026D01*
X146025543Y-72893044D01*
X146046613Y-72883079D01*
X146068557Y-72875227D01*
X146091166Y-72869563D01*
X146114221Y-72866144D01*
X146137500Y-72865000D01*
X146712500Y-72865000D01*
X146735779Y-72866144D01*
X146735779Y-72866144D01*
G37*
D12*
X146425000Y-73340000D03*
G04 #@! TD*
D11*
G04 #@! TO.C,R4*
G36*
X146740779Y-74756144D02*
X146763834Y-74759563D01*
X146786443Y-74765227D01*
X146808387Y-74773079D01*
X146829457Y-74783044D01*
X146849448Y-74795026D01*
X146868168Y-74808910D01*
X146885438Y-74824562D01*
X146901090Y-74841832D01*
X146914974Y-74860552D01*
X146926956Y-74880543D01*
X146936921Y-74901613D01*
X146944773Y-74923557D01*
X146950437Y-74946166D01*
X146953856Y-74969221D01*
X146955000Y-74992500D01*
X146955000Y-75467500D01*
X146953856Y-75490779D01*
X146950437Y-75513834D01*
X146944773Y-75536443D01*
X146936921Y-75558387D01*
X146926956Y-75579457D01*
X146914974Y-75599448D01*
X146901090Y-75618168D01*
X146885438Y-75635438D01*
X146868168Y-75651090D01*
X146849448Y-75664974D01*
X146829457Y-75676956D01*
X146808387Y-75686921D01*
X146786443Y-75694773D01*
X146763834Y-75700437D01*
X146740779Y-75703856D01*
X146717500Y-75705000D01*
X146142500Y-75705000D01*
X146119221Y-75703856D01*
X146096166Y-75700437D01*
X146073557Y-75694773D01*
X146051613Y-75686921D01*
X146030543Y-75676956D01*
X146010552Y-75664974D01*
X145991832Y-75651090D01*
X145974562Y-75635438D01*
X145958910Y-75618168D01*
X145945026Y-75599448D01*
X145933044Y-75579457D01*
X145923079Y-75558387D01*
X145915227Y-75536443D01*
X145909563Y-75513834D01*
X145906144Y-75490779D01*
X145905000Y-75467500D01*
X145905000Y-74992500D01*
X145906144Y-74969221D01*
X145909563Y-74946166D01*
X145915227Y-74923557D01*
X145923079Y-74901613D01*
X145933044Y-74880543D01*
X145945026Y-74860552D01*
X145958910Y-74841832D01*
X145974562Y-74824562D01*
X145991832Y-74808910D01*
X146010552Y-74795026D01*
X146030543Y-74783044D01*
X146051613Y-74773079D01*
X146073557Y-74765227D01*
X146096166Y-74759563D01*
X146119221Y-74756144D01*
X146142500Y-74755000D01*
X146717500Y-74755000D01*
X146740779Y-74756144D01*
X146740779Y-74756144D01*
G37*
D12*
X146430000Y-75230000D03*
D11*
G36*
X144990779Y-74756144D02*
X145013834Y-74759563D01*
X145036443Y-74765227D01*
X145058387Y-74773079D01*
X145079457Y-74783044D01*
X145099448Y-74795026D01*
X145118168Y-74808910D01*
X145135438Y-74824562D01*
X145151090Y-74841832D01*
X145164974Y-74860552D01*
X145176956Y-74880543D01*
X145186921Y-74901613D01*
X145194773Y-74923557D01*
X145200437Y-74946166D01*
X145203856Y-74969221D01*
X145205000Y-74992500D01*
X145205000Y-75467500D01*
X145203856Y-75490779D01*
X145200437Y-75513834D01*
X145194773Y-75536443D01*
X145186921Y-75558387D01*
X145176956Y-75579457D01*
X145164974Y-75599448D01*
X145151090Y-75618168D01*
X145135438Y-75635438D01*
X145118168Y-75651090D01*
X145099448Y-75664974D01*
X145079457Y-75676956D01*
X145058387Y-75686921D01*
X145036443Y-75694773D01*
X145013834Y-75700437D01*
X144990779Y-75703856D01*
X144967500Y-75705000D01*
X144392500Y-75705000D01*
X144369221Y-75703856D01*
X144346166Y-75700437D01*
X144323557Y-75694773D01*
X144301613Y-75686921D01*
X144280543Y-75676956D01*
X144260552Y-75664974D01*
X144241832Y-75651090D01*
X144224562Y-75635438D01*
X144208910Y-75618168D01*
X144195026Y-75599448D01*
X144183044Y-75579457D01*
X144173079Y-75558387D01*
X144165227Y-75536443D01*
X144159563Y-75513834D01*
X144156144Y-75490779D01*
X144155000Y-75467500D01*
X144155000Y-74992500D01*
X144156144Y-74969221D01*
X144159563Y-74946166D01*
X144165227Y-74923557D01*
X144173079Y-74901613D01*
X144183044Y-74880543D01*
X144195026Y-74860552D01*
X144208910Y-74841832D01*
X144224562Y-74824562D01*
X144241832Y-74808910D01*
X144260552Y-74795026D01*
X144280543Y-74783044D01*
X144301613Y-74773079D01*
X144323557Y-74765227D01*
X144346166Y-74759563D01*
X144369221Y-74756144D01*
X144392500Y-74755000D01*
X144967500Y-74755000D01*
X144990779Y-74756144D01*
X144990779Y-74756144D01*
G37*
D12*
X144680000Y-75230000D03*
G04 #@! TD*
D11*
G04 #@! TO.C,R6*
G36*
X125880779Y-91106144D02*
X125903834Y-91109563D01*
X125926443Y-91115227D01*
X125948387Y-91123079D01*
X125969457Y-91133044D01*
X125989448Y-91145026D01*
X126008168Y-91158910D01*
X126025438Y-91174562D01*
X126041090Y-91191832D01*
X126054974Y-91210552D01*
X126066956Y-91230543D01*
X126076921Y-91251613D01*
X126084773Y-91273557D01*
X126090437Y-91296166D01*
X126093856Y-91319221D01*
X126095000Y-91342500D01*
X126095000Y-91817500D01*
X126093856Y-91840779D01*
X126090437Y-91863834D01*
X126084773Y-91886443D01*
X126076921Y-91908387D01*
X126066956Y-91929457D01*
X126054974Y-91949448D01*
X126041090Y-91968168D01*
X126025438Y-91985438D01*
X126008168Y-92001090D01*
X125989448Y-92014974D01*
X125969457Y-92026956D01*
X125948387Y-92036921D01*
X125926443Y-92044773D01*
X125903834Y-92050437D01*
X125880779Y-92053856D01*
X125857500Y-92055000D01*
X125282500Y-92055000D01*
X125259221Y-92053856D01*
X125236166Y-92050437D01*
X125213557Y-92044773D01*
X125191613Y-92036921D01*
X125170543Y-92026956D01*
X125150552Y-92014974D01*
X125131832Y-92001090D01*
X125114562Y-91985438D01*
X125098910Y-91968168D01*
X125085026Y-91949448D01*
X125073044Y-91929457D01*
X125063079Y-91908387D01*
X125055227Y-91886443D01*
X125049563Y-91863834D01*
X125046144Y-91840779D01*
X125045000Y-91817500D01*
X125045000Y-91342500D01*
X125046144Y-91319221D01*
X125049563Y-91296166D01*
X125055227Y-91273557D01*
X125063079Y-91251613D01*
X125073044Y-91230543D01*
X125085026Y-91210552D01*
X125098910Y-91191832D01*
X125114562Y-91174562D01*
X125131832Y-91158910D01*
X125150552Y-91145026D01*
X125170543Y-91133044D01*
X125191613Y-91123079D01*
X125213557Y-91115227D01*
X125236166Y-91109563D01*
X125259221Y-91106144D01*
X125282500Y-91105000D01*
X125857500Y-91105000D01*
X125880779Y-91106144D01*
X125880779Y-91106144D01*
G37*
D12*
X125570000Y-91580000D03*
D11*
G36*
X127630779Y-91106144D02*
X127653834Y-91109563D01*
X127676443Y-91115227D01*
X127698387Y-91123079D01*
X127719457Y-91133044D01*
X127739448Y-91145026D01*
X127758168Y-91158910D01*
X127775438Y-91174562D01*
X127791090Y-91191832D01*
X127804974Y-91210552D01*
X127816956Y-91230543D01*
X127826921Y-91251613D01*
X127834773Y-91273557D01*
X127840437Y-91296166D01*
X127843856Y-91319221D01*
X127845000Y-91342500D01*
X127845000Y-91817500D01*
X127843856Y-91840779D01*
X127840437Y-91863834D01*
X127834773Y-91886443D01*
X127826921Y-91908387D01*
X127816956Y-91929457D01*
X127804974Y-91949448D01*
X127791090Y-91968168D01*
X127775438Y-91985438D01*
X127758168Y-92001090D01*
X127739448Y-92014974D01*
X127719457Y-92026956D01*
X127698387Y-92036921D01*
X127676443Y-92044773D01*
X127653834Y-92050437D01*
X127630779Y-92053856D01*
X127607500Y-92055000D01*
X127032500Y-92055000D01*
X127009221Y-92053856D01*
X126986166Y-92050437D01*
X126963557Y-92044773D01*
X126941613Y-92036921D01*
X126920543Y-92026956D01*
X126900552Y-92014974D01*
X126881832Y-92001090D01*
X126864562Y-91985438D01*
X126848910Y-91968168D01*
X126835026Y-91949448D01*
X126823044Y-91929457D01*
X126813079Y-91908387D01*
X126805227Y-91886443D01*
X126799563Y-91863834D01*
X126796144Y-91840779D01*
X126795000Y-91817500D01*
X126795000Y-91342500D01*
X126796144Y-91319221D01*
X126799563Y-91296166D01*
X126805227Y-91273557D01*
X126813079Y-91251613D01*
X126823044Y-91230543D01*
X126835026Y-91210552D01*
X126848910Y-91191832D01*
X126864562Y-91174562D01*
X126881832Y-91158910D01*
X126900552Y-91145026D01*
X126920543Y-91133044D01*
X126941613Y-91123079D01*
X126963557Y-91115227D01*
X126986166Y-91109563D01*
X127009221Y-91106144D01*
X127032500Y-91105000D01*
X127607500Y-91105000D01*
X127630779Y-91106144D01*
X127630779Y-91106144D01*
G37*
D12*
X127320000Y-91580000D03*
G04 #@! TD*
D11*
G04 #@! TO.C,R7*
G36*
X125880779Y-92916144D02*
X125903834Y-92919563D01*
X125926443Y-92925227D01*
X125948387Y-92933079D01*
X125969457Y-92943044D01*
X125989448Y-92955026D01*
X126008168Y-92968910D01*
X126025438Y-92984562D01*
X126041090Y-93001832D01*
X126054974Y-93020552D01*
X126066956Y-93040543D01*
X126076921Y-93061613D01*
X126084773Y-93083557D01*
X126090437Y-93106166D01*
X126093856Y-93129221D01*
X126095000Y-93152500D01*
X126095000Y-93627500D01*
X126093856Y-93650779D01*
X126090437Y-93673834D01*
X126084773Y-93696443D01*
X126076921Y-93718387D01*
X126066956Y-93739457D01*
X126054974Y-93759448D01*
X126041090Y-93778168D01*
X126025438Y-93795438D01*
X126008168Y-93811090D01*
X125989448Y-93824974D01*
X125969457Y-93836956D01*
X125948387Y-93846921D01*
X125926443Y-93854773D01*
X125903834Y-93860437D01*
X125880779Y-93863856D01*
X125857500Y-93865000D01*
X125282500Y-93865000D01*
X125259221Y-93863856D01*
X125236166Y-93860437D01*
X125213557Y-93854773D01*
X125191613Y-93846921D01*
X125170543Y-93836956D01*
X125150552Y-93824974D01*
X125131832Y-93811090D01*
X125114562Y-93795438D01*
X125098910Y-93778168D01*
X125085026Y-93759448D01*
X125073044Y-93739457D01*
X125063079Y-93718387D01*
X125055227Y-93696443D01*
X125049563Y-93673834D01*
X125046144Y-93650779D01*
X125045000Y-93627500D01*
X125045000Y-93152500D01*
X125046144Y-93129221D01*
X125049563Y-93106166D01*
X125055227Y-93083557D01*
X125063079Y-93061613D01*
X125073044Y-93040543D01*
X125085026Y-93020552D01*
X125098910Y-93001832D01*
X125114562Y-92984562D01*
X125131832Y-92968910D01*
X125150552Y-92955026D01*
X125170543Y-92943044D01*
X125191613Y-92933079D01*
X125213557Y-92925227D01*
X125236166Y-92919563D01*
X125259221Y-92916144D01*
X125282500Y-92915000D01*
X125857500Y-92915000D01*
X125880779Y-92916144D01*
X125880779Y-92916144D01*
G37*
D12*
X125570000Y-93390000D03*
D11*
G36*
X127630779Y-92916144D02*
X127653834Y-92919563D01*
X127676443Y-92925227D01*
X127698387Y-92933079D01*
X127719457Y-92943044D01*
X127739448Y-92955026D01*
X127758168Y-92968910D01*
X127775438Y-92984562D01*
X127791090Y-93001832D01*
X127804974Y-93020552D01*
X127816956Y-93040543D01*
X127826921Y-93061613D01*
X127834773Y-93083557D01*
X127840437Y-93106166D01*
X127843856Y-93129221D01*
X127845000Y-93152500D01*
X127845000Y-93627500D01*
X127843856Y-93650779D01*
X127840437Y-93673834D01*
X127834773Y-93696443D01*
X127826921Y-93718387D01*
X127816956Y-93739457D01*
X127804974Y-93759448D01*
X127791090Y-93778168D01*
X127775438Y-93795438D01*
X127758168Y-93811090D01*
X127739448Y-93824974D01*
X127719457Y-93836956D01*
X127698387Y-93846921D01*
X127676443Y-93854773D01*
X127653834Y-93860437D01*
X127630779Y-93863856D01*
X127607500Y-93865000D01*
X127032500Y-93865000D01*
X127009221Y-93863856D01*
X126986166Y-93860437D01*
X126963557Y-93854773D01*
X126941613Y-93846921D01*
X126920543Y-93836956D01*
X126900552Y-93824974D01*
X126881832Y-93811090D01*
X126864562Y-93795438D01*
X126848910Y-93778168D01*
X126835026Y-93759448D01*
X126823044Y-93739457D01*
X126813079Y-93718387D01*
X126805227Y-93696443D01*
X126799563Y-93673834D01*
X126796144Y-93650779D01*
X126795000Y-93627500D01*
X126795000Y-93152500D01*
X126796144Y-93129221D01*
X126799563Y-93106166D01*
X126805227Y-93083557D01*
X126813079Y-93061613D01*
X126823044Y-93040543D01*
X126835026Y-93020552D01*
X126848910Y-93001832D01*
X126864562Y-92984562D01*
X126881832Y-92968910D01*
X126900552Y-92955026D01*
X126920543Y-92943044D01*
X126941613Y-92933079D01*
X126963557Y-92925227D01*
X126986166Y-92919563D01*
X127009221Y-92916144D01*
X127032500Y-92915000D01*
X127607500Y-92915000D01*
X127630779Y-92916144D01*
X127630779Y-92916144D01*
G37*
D12*
X127320000Y-93390000D03*
G04 #@! TD*
D11*
G04 #@! TO.C,R8*
G36*
X125560779Y-67776144D02*
X125583834Y-67779563D01*
X125606443Y-67785227D01*
X125628387Y-67793079D01*
X125649457Y-67803044D01*
X125669448Y-67815026D01*
X125688168Y-67828910D01*
X125705438Y-67844562D01*
X125721090Y-67861832D01*
X125734974Y-67880552D01*
X125746956Y-67900543D01*
X125756921Y-67921613D01*
X125764773Y-67943557D01*
X125770437Y-67966166D01*
X125773856Y-67989221D01*
X125775000Y-68012500D01*
X125775000Y-68487500D01*
X125773856Y-68510779D01*
X125770437Y-68533834D01*
X125764773Y-68556443D01*
X125756921Y-68578387D01*
X125746956Y-68599457D01*
X125734974Y-68619448D01*
X125721090Y-68638168D01*
X125705438Y-68655438D01*
X125688168Y-68671090D01*
X125669448Y-68684974D01*
X125649457Y-68696956D01*
X125628387Y-68706921D01*
X125606443Y-68714773D01*
X125583834Y-68720437D01*
X125560779Y-68723856D01*
X125537500Y-68725000D01*
X124962500Y-68725000D01*
X124939221Y-68723856D01*
X124916166Y-68720437D01*
X124893557Y-68714773D01*
X124871613Y-68706921D01*
X124850543Y-68696956D01*
X124830552Y-68684974D01*
X124811832Y-68671090D01*
X124794562Y-68655438D01*
X124778910Y-68638168D01*
X124765026Y-68619448D01*
X124753044Y-68599457D01*
X124743079Y-68578387D01*
X124735227Y-68556443D01*
X124729563Y-68533834D01*
X124726144Y-68510779D01*
X124725000Y-68487500D01*
X124725000Y-68012500D01*
X124726144Y-67989221D01*
X124729563Y-67966166D01*
X124735227Y-67943557D01*
X124743079Y-67921613D01*
X124753044Y-67900543D01*
X124765026Y-67880552D01*
X124778910Y-67861832D01*
X124794562Y-67844562D01*
X124811832Y-67828910D01*
X124830552Y-67815026D01*
X124850543Y-67803044D01*
X124871613Y-67793079D01*
X124893557Y-67785227D01*
X124916166Y-67779563D01*
X124939221Y-67776144D01*
X124962500Y-67775000D01*
X125537500Y-67775000D01*
X125560779Y-67776144D01*
X125560779Y-67776144D01*
G37*
D12*
X125250000Y-68250000D03*
D11*
G36*
X127310779Y-67776144D02*
X127333834Y-67779563D01*
X127356443Y-67785227D01*
X127378387Y-67793079D01*
X127399457Y-67803044D01*
X127419448Y-67815026D01*
X127438168Y-67828910D01*
X127455438Y-67844562D01*
X127471090Y-67861832D01*
X127484974Y-67880552D01*
X127496956Y-67900543D01*
X127506921Y-67921613D01*
X127514773Y-67943557D01*
X127520437Y-67966166D01*
X127523856Y-67989221D01*
X127525000Y-68012500D01*
X127525000Y-68487500D01*
X127523856Y-68510779D01*
X127520437Y-68533834D01*
X127514773Y-68556443D01*
X127506921Y-68578387D01*
X127496956Y-68599457D01*
X127484974Y-68619448D01*
X127471090Y-68638168D01*
X127455438Y-68655438D01*
X127438168Y-68671090D01*
X127419448Y-68684974D01*
X127399457Y-68696956D01*
X127378387Y-68706921D01*
X127356443Y-68714773D01*
X127333834Y-68720437D01*
X127310779Y-68723856D01*
X127287500Y-68725000D01*
X126712500Y-68725000D01*
X126689221Y-68723856D01*
X126666166Y-68720437D01*
X126643557Y-68714773D01*
X126621613Y-68706921D01*
X126600543Y-68696956D01*
X126580552Y-68684974D01*
X126561832Y-68671090D01*
X126544562Y-68655438D01*
X126528910Y-68638168D01*
X126515026Y-68619448D01*
X126503044Y-68599457D01*
X126493079Y-68578387D01*
X126485227Y-68556443D01*
X126479563Y-68533834D01*
X126476144Y-68510779D01*
X126475000Y-68487500D01*
X126475000Y-68012500D01*
X126476144Y-67989221D01*
X126479563Y-67966166D01*
X126485227Y-67943557D01*
X126493079Y-67921613D01*
X126503044Y-67900543D01*
X126515026Y-67880552D01*
X126528910Y-67861832D01*
X126544562Y-67844562D01*
X126561832Y-67828910D01*
X126580552Y-67815026D01*
X126600543Y-67803044D01*
X126621613Y-67793079D01*
X126643557Y-67785227D01*
X126666166Y-67779563D01*
X126689221Y-67776144D01*
X126712500Y-67775000D01*
X127287500Y-67775000D01*
X127310779Y-67776144D01*
X127310779Y-67776144D01*
G37*
D12*
X127000000Y-68250000D03*
G04 #@! TD*
D11*
G04 #@! TO.C,R9*
G36*
X127310779Y-69276144D02*
X127333834Y-69279563D01*
X127356443Y-69285227D01*
X127378387Y-69293079D01*
X127399457Y-69303044D01*
X127419448Y-69315026D01*
X127438168Y-69328910D01*
X127455438Y-69344562D01*
X127471090Y-69361832D01*
X127484974Y-69380552D01*
X127496956Y-69400543D01*
X127506921Y-69421613D01*
X127514773Y-69443557D01*
X127520437Y-69466166D01*
X127523856Y-69489221D01*
X127525000Y-69512500D01*
X127525000Y-69987500D01*
X127523856Y-70010779D01*
X127520437Y-70033834D01*
X127514773Y-70056443D01*
X127506921Y-70078387D01*
X127496956Y-70099457D01*
X127484974Y-70119448D01*
X127471090Y-70138168D01*
X127455438Y-70155438D01*
X127438168Y-70171090D01*
X127419448Y-70184974D01*
X127399457Y-70196956D01*
X127378387Y-70206921D01*
X127356443Y-70214773D01*
X127333834Y-70220437D01*
X127310779Y-70223856D01*
X127287500Y-70225000D01*
X126712500Y-70225000D01*
X126689221Y-70223856D01*
X126666166Y-70220437D01*
X126643557Y-70214773D01*
X126621613Y-70206921D01*
X126600543Y-70196956D01*
X126580552Y-70184974D01*
X126561832Y-70171090D01*
X126544562Y-70155438D01*
X126528910Y-70138168D01*
X126515026Y-70119448D01*
X126503044Y-70099457D01*
X126493079Y-70078387D01*
X126485227Y-70056443D01*
X126479563Y-70033834D01*
X126476144Y-70010779D01*
X126475000Y-69987500D01*
X126475000Y-69512500D01*
X126476144Y-69489221D01*
X126479563Y-69466166D01*
X126485227Y-69443557D01*
X126493079Y-69421613D01*
X126503044Y-69400543D01*
X126515026Y-69380552D01*
X126528910Y-69361832D01*
X126544562Y-69344562D01*
X126561832Y-69328910D01*
X126580552Y-69315026D01*
X126600543Y-69303044D01*
X126621613Y-69293079D01*
X126643557Y-69285227D01*
X126666166Y-69279563D01*
X126689221Y-69276144D01*
X126712500Y-69275000D01*
X127287500Y-69275000D01*
X127310779Y-69276144D01*
X127310779Y-69276144D01*
G37*
D12*
X127000000Y-69750000D03*
D11*
G36*
X125560779Y-69276144D02*
X125583834Y-69279563D01*
X125606443Y-69285227D01*
X125628387Y-69293079D01*
X125649457Y-69303044D01*
X125669448Y-69315026D01*
X125688168Y-69328910D01*
X125705438Y-69344562D01*
X125721090Y-69361832D01*
X125734974Y-69380552D01*
X125746956Y-69400543D01*
X125756921Y-69421613D01*
X125764773Y-69443557D01*
X125770437Y-69466166D01*
X125773856Y-69489221D01*
X125775000Y-69512500D01*
X125775000Y-69987500D01*
X125773856Y-70010779D01*
X125770437Y-70033834D01*
X125764773Y-70056443D01*
X125756921Y-70078387D01*
X125746956Y-70099457D01*
X125734974Y-70119448D01*
X125721090Y-70138168D01*
X125705438Y-70155438D01*
X125688168Y-70171090D01*
X125669448Y-70184974D01*
X125649457Y-70196956D01*
X125628387Y-70206921D01*
X125606443Y-70214773D01*
X125583834Y-70220437D01*
X125560779Y-70223856D01*
X125537500Y-70225000D01*
X124962500Y-70225000D01*
X124939221Y-70223856D01*
X124916166Y-70220437D01*
X124893557Y-70214773D01*
X124871613Y-70206921D01*
X124850543Y-70196956D01*
X124830552Y-70184974D01*
X124811832Y-70171090D01*
X124794562Y-70155438D01*
X124778910Y-70138168D01*
X124765026Y-70119448D01*
X124753044Y-70099457D01*
X124743079Y-70078387D01*
X124735227Y-70056443D01*
X124729563Y-70033834D01*
X124726144Y-70010779D01*
X124725000Y-69987500D01*
X124725000Y-69512500D01*
X124726144Y-69489221D01*
X124729563Y-69466166D01*
X124735227Y-69443557D01*
X124743079Y-69421613D01*
X124753044Y-69400543D01*
X124765026Y-69380552D01*
X124778910Y-69361832D01*
X124794562Y-69344562D01*
X124811832Y-69328910D01*
X124830552Y-69315026D01*
X124850543Y-69303044D01*
X124871613Y-69293079D01*
X124893557Y-69285227D01*
X124916166Y-69279563D01*
X124939221Y-69276144D01*
X124962500Y-69275000D01*
X125537500Y-69275000D01*
X125560779Y-69276144D01*
X125560779Y-69276144D01*
G37*
D12*
X125250000Y-69750000D03*
G04 #@! TD*
D11*
G04 #@! TO.C,R14*
G36*
X124720779Y-102721144D02*
X124743834Y-102724563D01*
X124766443Y-102730227D01*
X124788387Y-102738079D01*
X124809457Y-102748044D01*
X124829448Y-102760026D01*
X124848168Y-102773910D01*
X124865438Y-102789562D01*
X124881090Y-102806832D01*
X124894974Y-102825552D01*
X124906956Y-102845543D01*
X124916921Y-102866613D01*
X124924773Y-102888557D01*
X124930437Y-102911166D01*
X124933856Y-102934221D01*
X124935000Y-102957500D01*
X124935000Y-103532500D01*
X124933856Y-103555779D01*
X124930437Y-103578834D01*
X124924773Y-103601443D01*
X124916921Y-103623387D01*
X124906956Y-103644457D01*
X124894974Y-103664448D01*
X124881090Y-103683168D01*
X124865438Y-103700438D01*
X124848168Y-103716090D01*
X124829448Y-103729974D01*
X124809457Y-103741956D01*
X124788387Y-103751921D01*
X124766443Y-103759773D01*
X124743834Y-103765437D01*
X124720779Y-103768856D01*
X124697500Y-103770000D01*
X124222500Y-103770000D01*
X124199221Y-103768856D01*
X124176166Y-103765437D01*
X124153557Y-103759773D01*
X124131613Y-103751921D01*
X124110543Y-103741956D01*
X124090552Y-103729974D01*
X124071832Y-103716090D01*
X124054562Y-103700438D01*
X124038910Y-103683168D01*
X124025026Y-103664448D01*
X124013044Y-103644457D01*
X124003079Y-103623387D01*
X123995227Y-103601443D01*
X123989563Y-103578834D01*
X123986144Y-103555779D01*
X123985000Y-103532500D01*
X123985000Y-102957500D01*
X123986144Y-102934221D01*
X123989563Y-102911166D01*
X123995227Y-102888557D01*
X124003079Y-102866613D01*
X124013044Y-102845543D01*
X124025026Y-102825552D01*
X124038910Y-102806832D01*
X124054562Y-102789562D01*
X124071832Y-102773910D01*
X124090552Y-102760026D01*
X124110543Y-102748044D01*
X124131613Y-102738079D01*
X124153557Y-102730227D01*
X124176166Y-102724563D01*
X124199221Y-102721144D01*
X124222500Y-102720000D01*
X124697500Y-102720000D01*
X124720779Y-102721144D01*
X124720779Y-102721144D01*
G37*
D12*
X124460000Y-103245000D03*
D11*
G36*
X124720779Y-104471144D02*
X124743834Y-104474563D01*
X124766443Y-104480227D01*
X124788387Y-104488079D01*
X124809457Y-104498044D01*
X124829448Y-104510026D01*
X124848168Y-104523910D01*
X124865438Y-104539562D01*
X124881090Y-104556832D01*
X124894974Y-104575552D01*
X124906956Y-104595543D01*
X124916921Y-104616613D01*
X124924773Y-104638557D01*
X124930437Y-104661166D01*
X124933856Y-104684221D01*
X124935000Y-104707500D01*
X124935000Y-105282500D01*
X124933856Y-105305779D01*
X124930437Y-105328834D01*
X124924773Y-105351443D01*
X124916921Y-105373387D01*
X124906956Y-105394457D01*
X124894974Y-105414448D01*
X124881090Y-105433168D01*
X124865438Y-105450438D01*
X124848168Y-105466090D01*
X124829448Y-105479974D01*
X124809457Y-105491956D01*
X124788387Y-105501921D01*
X124766443Y-105509773D01*
X124743834Y-105515437D01*
X124720779Y-105518856D01*
X124697500Y-105520000D01*
X124222500Y-105520000D01*
X124199221Y-105518856D01*
X124176166Y-105515437D01*
X124153557Y-105509773D01*
X124131613Y-105501921D01*
X124110543Y-105491956D01*
X124090552Y-105479974D01*
X124071832Y-105466090D01*
X124054562Y-105450438D01*
X124038910Y-105433168D01*
X124025026Y-105414448D01*
X124013044Y-105394457D01*
X124003079Y-105373387D01*
X123995227Y-105351443D01*
X123989563Y-105328834D01*
X123986144Y-105305779D01*
X123985000Y-105282500D01*
X123985000Y-104707500D01*
X123986144Y-104684221D01*
X123989563Y-104661166D01*
X123995227Y-104638557D01*
X124003079Y-104616613D01*
X124013044Y-104595543D01*
X124025026Y-104575552D01*
X124038910Y-104556832D01*
X124054562Y-104539562D01*
X124071832Y-104523910D01*
X124090552Y-104510026D01*
X124110543Y-104498044D01*
X124131613Y-104488079D01*
X124153557Y-104480227D01*
X124176166Y-104474563D01*
X124199221Y-104471144D01*
X124222500Y-104470000D01*
X124697500Y-104470000D01*
X124720779Y-104471144D01*
X124720779Y-104471144D01*
G37*
D12*
X124460000Y-104995000D03*
G04 #@! TD*
D11*
G04 #@! TO.C,R15*
G36*
X158180779Y-98726144D02*
X158203834Y-98729563D01*
X158226443Y-98735227D01*
X158248387Y-98743079D01*
X158269457Y-98753044D01*
X158289448Y-98765026D01*
X158308168Y-98778910D01*
X158325438Y-98794562D01*
X158341090Y-98811832D01*
X158354974Y-98830552D01*
X158366956Y-98850543D01*
X158376921Y-98871613D01*
X158384773Y-98893557D01*
X158390437Y-98916166D01*
X158393856Y-98939221D01*
X158395000Y-98962500D01*
X158395000Y-99537500D01*
X158393856Y-99560779D01*
X158390437Y-99583834D01*
X158384773Y-99606443D01*
X158376921Y-99628387D01*
X158366956Y-99649457D01*
X158354974Y-99669448D01*
X158341090Y-99688168D01*
X158325438Y-99705438D01*
X158308168Y-99721090D01*
X158289448Y-99734974D01*
X158269457Y-99746956D01*
X158248387Y-99756921D01*
X158226443Y-99764773D01*
X158203834Y-99770437D01*
X158180779Y-99773856D01*
X158157500Y-99775000D01*
X157682500Y-99775000D01*
X157659221Y-99773856D01*
X157636166Y-99770437D01*
X157613557Y-99764773D01*
X157591613Y-99756921D01*
X157570543Y-99746956D01*
X157550552Y-99734974D01*
X157531832Y-99721090D01*
X157514562Y-99705438D01*
X157498910Y-99688168D01*
X157485026Y-99669448D01*
X157473044Y-99649457D01*
X157463079Y-99628387D01*
X157455227Y-99606443D01*
X157449563Y-99583834D01*
X157446144Y-99560779D01*
X157445000Y-99537500D01*
X157445000Y-98962500D01*
X157446144Y-98939221D01*
X157449563Y-98916166D01*
X157455227Y-98893557D01*
X157463079Y-98871613D01*
X157473044Y-98850543D01*
X157485026Y-98830552D01*
X157498910Y-98811832D01*
X157514562Y-98794562D01*
X157531832Y-98778910D01*
X157550552Y-98765026D01*
X157570543Y-98753044D01*
X157591613Y-98743079D01*
X157613557Y-98735227D01*
X157636166Y-98729563D01*
X157659221Y-98726144D01*
X157682500Y-98725000D01*
X158157500Y-98725000D01*
X158180779Y-98726144D01*
X158180779Y-98726144D01*
G37*
D12*
X157920000Y-99250000D03*
D11*
G36*
X158180779Y-100476144D02*
X158203834Y-100479563D01*
X158226443Y-100485227D01*
X158248387Y-100493079D01*
X158269457Y-100503044D01*
X158289448Y-100515026D01*
X158308168Y-100528910D01*
X158325438Y-100544562D01*
X158341090Y-100561832D01*
X158354974Y-100580552D01*
X158366956Y-100600543D01*
X158376921Y-100621613D01*
X158384773Y-100643557D01*
X158390437Y-100666166D01*
X158393856Y-100689221D01*
X158395000Y-100712500D01*
X158395000Y-101287500D01*
X158393856Y-101310779D01*
X158390437Y-101333834D01*
X158384773Y-101356443D01*
X158376921Y-101378387D01*
X158366956Y-101399457D01*
X158354974Y-101419448D01*
X158341090Y-101438168D01*
X158325438Y-101455438D01*
X158308168Y-101471090D01*
X158289448Y-101484974D01*
X158269457Y-101496956D01*
X158248387Y-101506921D01*
X158226443Y-101514773D01*
X158203834Y-101520437D01*
X158180779Y-101523856D01*
X158157500Y-101525000D01*
X157682500Y-101525000D01*
X157659221Y-101523856D01*
X157636166Y-101520437D01*
X157613557Y-101514773D01*
X157591613Y-101506921D01*
X157570543Y-101496956D01*
X157550552Y-101484974D01*
X157531832Y-101471090D01*
X157514562Y-101455438D01*
X157498910Y-101438168D01*
X157485026Y-101419448D01*
X157473044Y-101399457D01*
X157463079Y-101378387D01*
X157455227Y-101356443D01*
X157449563Y-101333834D01*
X157446144Y-101310779D01*
X157445000Y-101287500D01*
X157445000Y-100712500D01*
X157446144Y-100689221D01*
X157449563Y-100666166D01*
X157455227Y-100643557D01*
X157463079Y-100621613D01*
X157473044Y-100600543D01*
X157485026Y-100580552D01*
X157498910Y-100561832D01*
X157514562Y-100544562D01*
X157531832Y-100528910D01*
X157550552Y-100515026D01*
X157570543Y-100503044D01*
X157591613Y-100493079D01*
X157613557Y-100485227D01*
X157636166Y-100479563D01*
X157659221Y-100476144D01*
X157682500Y-100475000D01*
X158157500Y-100475000D01*
X158180779Y-100476144D01*
X158180779Y-100476144D01*
G37*
D12*
X157920000Y-101000000D03*
G04 #@! TD*
D11*
G04 #@! TO.C,R16*
G36*
X159980779Y-98736144D02*
X160003834Y-98739563D01*
X160026443Y-98745227D01*
X160048387Y-98753079D01*
X160069457Y-98763044D01*
X160089448Y-98775026D01*
X160108168Y-98788910D01*
X160125438Y-98804562D01*
X160141090Y-98821832D01*
X160154974Y-98840552D01*
X160166956Y-98860543D01*
X160176921Y-98881613D01*
X160184773Y-98903557D01*
X160190437Y-98926166D01*
X160193856Y-98949221D01*
X160195000Y-98972500D01*
X160195000Y-99547500D01*
X160193856Y-99570779D01*
X160190437Y-99593834D01*
X160184773Y-99616443D01*
X160176921Y-99638387D01*
X160166956Y-99659457D01*
X160154974Y-99679448D01*
X160141090Y-99698168D01*
X160125438Y-99715438D01*
X160108168Y-99731090D01*
X160089448Y-99744974D01*
X160069457Y-99756956D01*
X160048387Y-99766921D01*
X160026443Y-99774773D01*
X160003834Y-99780437D01*
X159980779Y-99783856D01*
X159957500Y-99785000D01*
X159482500Y-99785000D01*
X159459221Y-99783856D01*
X159436166Y-99780437D01*
X159413557Y-99774773D01*
X159391613Y-99766921D01*
X159370543Y-99756956D01*
X159350552Y-99744974D01*
X159331832Y-99731090D01*
X159314562Y-99715438D01*
X159298910Y-99698168D01*
X159285026Y-99679448D01*
X159273044Y-99659457D01*
X159263079Y-99638387D01*
X159255227Y-99616443D01*
X159249563Y-99593834D01*
X159246144Y-99570779D01*
X159245000Y-99547500D01*
X159245000Y-98972500D01*
X159246144Y-98949221D01*
X159249563Y-98926166D01*
X159255227Y-98903557D01*
X159263079Y-98881613D01*
X159273044Y-98860543D01*
X159285026Y-98840552D01*
X159298910Y-98821832D01*
X159314562Y-98804562D01*
X159331832Y-98788910D01*
X159350552Y-98775026D01*
X159370543Y-98763044D01*
X159391613Y-98753079D01*
X159413557Y-98745227D01*
X159436166Y-98739563D01*
X159459221Y-98736144D01*
X159482500Y-98735000D01*
X159957500Y-98735000D01*
X159980779Y-98736144D01*
X159980779Y-98736144D01*
G37*
D12*
X159720000Y-99260000D03*
D11*
G36*
X159980779Y-100486144D02*
X160003834Y-100489563D01*
X160026443Y-100495227D01*
X160048387Y-100503079D01*
X160069457Y-100513044D01*
X160089448Y-100525026D01*
X160108168Y-100538910D01*
X160125438Y-100554562D01*
X160141090Y-100571832D01*
X160154974Y-100590552D01*
X160166956Y-100610543D01*
X160176921Y-100631613D01*
X160184773Y-100653557D01*
X160190437Y-100676166D01*
X160193856Y-100699221D01*
X160195000Y-100722500D01*
X160195000Y-101297500D01*
X160193856Y-101320779D01*
X160190437Y-101343834D01*
X160184773Y-101366443D01*
X160176921Y-101388387D01*
X160166956Y-101409457D01*
X160154974Y-101429448D01*
X160141090Y-101448168D01*
X160125438Y-101465438D01*
X160108168Y-101481090D01*
X160089448Y-101494974D01*
X160069457Y-101506956D01*
X160048387Y-101516921D01*
X160026443Y-101524773D01*
X160003834Y-101530437D01*
X159980779Y-101533856D01*
X159957500Y-101535000D01*
X159482500Y-101535000D01*
X159459221Y-101533856D01*
X159436166Y-101530437D01*
X159413557Y-101524773D01*
X159391613Y-101516921D01*
X159370543Y-101506956D01*
X159350552Y-101494974D01*
X159331832Y-101481090D01*
X159314562Y-101465438D01*
X159298910Y-101448168D01*
X159285026Y-101429448D01*
X159273044Y-101409457D01*
X159263079Y-101388387D01*
X159255227Y-101366443D01*
X159249563Y-101343834D01*
X159246144Y-101320779D01*
X159245000Y-101297500D01*
X159245000Y-100722500D01*
X159246144Y-100699221D01*
X159249563Y-100676166D01*
X159255227Y-100653557D01*
X159263079Y-100631613D01*
X159273044Y-100610543D01*
X159285026Y-100590552D01*
X159298910Y-100571832D01*
X159314562Y-100554562D01*
X159331832Y-100538910D01*
X159350552Y-100525026D01*
X159370543Y-100513044D01*
X159391613Y-100503079D01*
X159413557Y-100495227D01*
X159436166Y-100489563D01*
X159459221Y-100486144D01*
X159482500Y-100485000D01*
X159957500Y-100485000D01*
X159980779Y-100486144D01*
X159980779Y-100486144D01*
G37*
D12*
X159720000Y-101010000D03*
G04 #@! TD*
D11*
G04 #@! TO.C,R17*
G36*
X132222183Y-102967299D02*
X132245238Y-102970718D01*
X132267847Y-102976382D01*
X132289791Y-102984234D01*
X132310861Y-102994199D01*
X132330852Y-103006181D01*
X132349572Y-103020065D01*
X132366842Y-103035717D01*
X132382494Y-103052987D01*
X132396378Y-103071707D01*
X132408360Y-103091698D01*
X132418325Y-103112768D01*
X132426177Y-103134712D01*
X132431841Y-103157321D01*
X132435260Y-103180376D01*
X132436404Y-103203655D01*
X132436404Y-103678655D01*
X132435260Y-103701934D01*
X132431841Y-103724989D01*
X132426177Y-103747598D01*
X132418325Y-103769542D01*
X132408360Y-103790612D01*
X132396378Y-103810603D01*
X132382494Y-103829323D01*
X132366842Y-103846593D01*
X132349572Y-103862245D01*
X132330852Y-103876129D01*
X132310861Y-103888111D01*
X132289791Y-103898076D01*
X132267847Y-103905928D01*
X132245238Y-103911592D01*
X132222183Y-103915011D01*
X132198904Y-103916155D01*
X131623904Y-103916155D01*
X131600625Y-103915011D01*
X131577570Y-103911592D01*
X131554961Y-103905928D01*
X131533017Y-103898076D01*
X131511947Y-103888111D01*
X131491956Y-103876129D01*
X131473236Y-103862245D01*
X131455966Y-103846593D01*
X131440314Y-103829323D01*
X131426430Y-103810603D01*
X131414448Y-103790612D01*
X131404483Y-103769542D01*
X131396631Y-103747598D01*
X131390967Y-103724989D01*
X131387548Y-103701934D01*
X131386404Y-103678655D01*
X131386404Y-103203655D01*
X131387548Y-103180376D01*
X131390967Y-103157321D01*
X131396631Y-103134712D01*
X131404483Y-103112768D01*
X131414448Y-103091698D01*
X131426430Y-103071707D01*
X131440314Y-103052987D01*
X131455966Y-103035717D01*
X131473236Y-103020065D01*
X131491956Y-103006181D01*
X131511947Y-102994199D01*
X131533017Y-102984234D01*
X131554961Y-102976382D01*
X131577570Y-102970718D01*
X131600625Y-102967299D01*
X131623904Y-102966155D01*
X132198904Y-102966155D01*
X132222183Y-102967299D01*
X132222183Y-102967299D01*
G37*
D12*
X131911404Y-103441155D03*
D11*
G36*
X130472183Y-102967299D02*
X130495238Y-102970718D01*
X130517847Y-102976382D01*
X130539791Y-102984234D01*
X130560861Y-102994199D01*
X130580852Y-103006181D01*
X130599572Y-103020065D01*
X130616842Y-103035717D01*
X130632494Y-103052987D01*
X130646378Y-103071707D01*
X130658360Y-103091698D01*
X130668325Y-103112768D01*
X130676177Y-103134712D01*
X130681841Y-103157321D01*
X130685260Y-103180376D01*
X130686404Y-103203655D01*
X130686404Y-103678655D01*
X130685260Y-103701934D01*
X130681841Y-103724989D01*
X130676177Y-103747598D01*
X130668325Y-103769542D01*
X130658360Y-103790612D01*
X130646378Y-103810603D01*
X130632494Y-103829323D01*
X130616842Y-103846593D01*
X130599572Y-103862245D01*
X130580852Y-103876129D01*
X130560861Y-103888111D01*
X130539791Y-103898076D01*
X130517847Y-103905928D01*
X130495238Y-103911592D01*
X130472183Y-103915011D01*
X130448904Y-103916155D01*
X129873904Y-103916155D01*
X129850625Y-103915011D01*
X129827570Y-103911592D01*
X129804961Y-103905928D01*
X129783017Y-103898076D01*
X129761947Y-103888111D01*
X129741956Y-103876129D01*
X129723236Y-103862245D01*
X129705966Y-103846593D01*
X129690314Y-103829323D01*
X129676430Y-103810603D01*
X129664448Y-103790612D01*
X129654483Y-103769542D01*
X129646631Y-103747598D01*
X129640967Y-103724989D01*
X129637548Y-103701934D01*
X129636404Y-103678655D01*
X129636404Y-103203655D01*
X129637548Y-103180376D01*
X129640967Y-103157321D01*
X129646631Y-103134712D01*
X129654483Y-103112768D01*
X129664448Y-103091698D01*
X129676430Y-103071707D01*
X129690314Y-103052987D01*
X129705966Y-103035717D01*
X129723236Y-103020065D01*
X129741956Y-103006181D01*
X129761947Y-102994199D01*
X129783017Y-102984234D01*
X129804961Y-102976382D01*
X129827570Y-102970718D01*
X129850625Y-102967299D01*
X129873904Y-102966155D01*
X130448904Y-102966155D01*
X130472183Y-102967299D01*
X130472183Y-102967299D01*
G37*
D12*
X130161404Y-103441155D03*
G04 #@! TD*
D17*
G04 #@! TO.C,SW1*
X121190000Y-91760000D03*
X121190000Y-95160000D03*
G04 #@! TD*
D18*
G04 #@! TO.C,U1*
X160698880Y-106849700D03*
X160698880Y-108048580D03*
X160698880Y-109250000D03*
X160698880Y-110448880D03*
X160698880Y-111650300D03*
X159500000Y-106849700D03*
X159500000Y-108048580D03*
X159500000Y-109250000D03*
X159500000Y-110448880D03*
X159500000Y-111650300D03*
X158298580Y-106849700D03*
X158298580Y-108048580D03*
X158298580Y-109250000D03*
X158298580Y-110448880D03*
X158298580Y-111650300D03*
X157099700Y-106849700D03*
X157099700Y-108048580D03*
X157099700Y-109250000D03*
X157099700Y-110448880D03*
X157099700Y-111650300D03*
D19*
X162697860Y-114650040D03*
X162697860Y-113550220D03*
X162697860Y-112450400D03*
X162697860Y-111350580D03*
X162697860Y-110250760D03*
X162697860Y-109150940D03*
X162697860Y-108051120D03*
X162697860Y-106951300D03*
X154900060Y-106951300D03*
X154900060Y-108051120D03*
X154900060Y-109150940D03*
X154900060Y-110250760D03*
X154900060Y-111350580D03*
X154900060Y-112450400D03*
X154900060Y-113550220D03*
X154900060Y-114650040D03*
G04 #@! TD*
D20*
G04 #@! TO.C,U3*
X133854004Y-101450555D03*
X133854004Y-101933155D03*
X133854004Y-102441155D03*
X133854004Y-102949155D03*
X133854004Y-103431755D03*
X137968804Y-103431755D03*
X137968804Y-102949155D03*
X137968804Y-102441155D03*
X137968804Y-101933155D03*
X137968804Y-101450555D03*
G04 #@! TD*
D21*
G04 #@! TO.C,U4*
X136940000Y-73230000D03*
X136940000Y-75130000D03*
X139140000Y-75130000D03*
X139140000Y-74180000D03*
X139140000Y-73230000D03*
G04 #@! TD*
D22*
G04 #@! TO.C,U5*
X148870000Y-99480000D03*
D23*
X146145850Y-97575000D03*
X146145850Y-98845000D03*
X146145850Y-100115000D03*
X146145850Y-101385000D03*
X151594150Y-101385000D03*
X151594150Y-100115000D03*
X151594150Y-98845000D03*
X151594150Y-97575000D03*
G04 #@! TD*
D24*
G04 #@! TO.C,USB_MICRO_CONN1*
X124820000Y-84210000D03*
X124820000Y-83560000D03*
X124820000Y-82910000D03*
X124820000Y-82260000D03*
X124820000Y-81610000D03*
D25*
X124460000Y-85372500D03*
X124460000Y-80447500D03*
D26*
X122160000Y-85820000D03*
X122160000Y-80000000D03*
D27*
X122160000Y-83750000D03*
X122160000Y-82070000D03*
G04 #@! TD*
D28*
G04 #@! TO.C,U2*
X159200000Y-69412500D03*
D11*
G36*
X158995096Y-68419025D02*
X158995381Y-68418087D01*
X158995843Y-68417222D01*
X158996464Y-68416464D01*
X158997222Y-68415843D01*
X158998087Y-68415381D01*
X158999025Y-68415096D01*
X159000000Y-68415000D01*
X159400000Y-68415000D01*
X159400975Y-68415096D01*
X159401913Y-68415381D01*
X159402778Y-68415843D01*
X159403536Y-68416464D01*
X159404157Y-68417222D01*
X159404619Y-68418087D01*
X159404904Y-68419025D01*
X159405000Y-68420000D01*
X159405000Y-69080000D01*
X159404904Y-69080975D01*
X159404619Y-69081913D01*
X159404157Y-69082778D01*
X159403536Y-69083536D01*
X159402778Y-69084157D01*
X159401913Y-69084619D01*
X159400975Y-69084904D01*
X159400000Y-69085000D01*
X159400000Y-69750000D01*
X159250000Y-69750000D01*
X159000000Y-69500000D01*
X159000000Y-69085000D01*
X158999025Y-69084904D01*
X158998087Y-69084619D01*
X158997222Y-69084157D01*
X158996464Y-69083536D01*
X158995843Y-69082778D01*
X158995381Y-69081913D01*
X158995096Y-69080975D01*
X158995000Y-69080000D01*
X158995000Y-68420000D01*
X158995096Y-68419025D01*
X158995096Y-68419025D01*
G37*
D28*
X159700000Y-69412500D03*
D11*
G36*
X159495096Y-68419025D02*
X159495381Y-68418087D01*
X159495843Y-68417222D01*
X159496464Y-68416464D01*
X159497222Y-68415843D01*
X159498087Y-68415381D01*
X159499025Y-68415096D01*
X159500000Y-68415000D01*
X159900000Y-68415000D01*
X159900975Y-68415096D01*
X159901913Y-68415381D01*
X159902778Y-68415843D01*
X159903536Y-68416464D01*
X159904157Y-68417222D01*
X159904619Y-68418087D01*
X159904904Y-68419025D01*
X159905000Y-68420000D01*
X159905000Y-69080000D01*
X159904904Y-69080975D01*
X159904619Y-69081913D01*
X159904157Y-69082778D01*
X159903536Y-69083536D01*
X159902778Y-69084157D01*
X159901913Y-69084619D01*
X159900975Y-69084904D01*
X159900000Y-69085000D01*
X159900000Y-69750000D01*
X159500000Y-69750000D01*
X159500000Y-69085000D01*
X159499025Y-69084904D01*
X159498087Y-69084619D01*
X159497222Y-69084157D01*
X159496464Y-69083536D01*
X159495843Y-69082778D01*
X159495381Y-69081913D01*
X159495096Y-69080975D01*
X159495000Y-69080000D01*
X159495000Y-68420000D01*
X159495096Y-68419025D01*
X159495096Y-68419025D01*
G37*
D28*
X160200000Y-69412500D03*
D11*
G36*
X159995096Y-68419025D02*
X159995381Y-68418087D01*
X159995843Y-68417222D01*
X159996464Y-68416464D01*
X159997222Y-68415843D01*
X159998087Y-68415381D01*
X159999025Y-68415096D01*
X160000000Y-68415000D01*
X160400000Y-68415000D01*
X160400975Y-68415096D01*
X160401913Y-68415381D01*
X160402778Y-68415843D01*
X160403536Y-68416464D01*
X160404157Y-68417222D01*
X160404619Y-68418087D01*
X160404904Y-68419025D01*
X160405000Y-68420000D01*
X160405000Y-69080000D01*
X160404904Y-69080975D01*
X160404619Y-69081913D01*
X160404157Y-69082778D01*
X160403536Y-69083536D01*
X160402778Y-69084157D01*
X160401913Y-69084619D01*
X160400975Y-69084904D01*
X160400000Y-69085000D01*
X160400000Y-69750000D01*
X160000000Y-69750000D01*
X160000000Y-69085000D01*
X159999025Y-69084904D01*
X159998087Y-69084619D01*
X159997222Y-69084157D01*
X159996464Y-69083536D01*
X159995843Y-69082778D01*
X159995381Y-69081913D01*
X159995096Y-69080975D01*
X159995000Y-69080000D01*
X159995000Y-68420000D01*
X159995096Y-68419025D01*
X159995096Y-68419025D01*
G37*
D28*
X160700000Y-69412500D03*
D11*
G36*
X160495096Y-68419025D02*
X160495381Y-68418087D01*
X160495843Y-68417222D01*
X160496464Y-68416464D01*
X160497222Y-68415843D01*
X160498087Y-68415381D01*
X160499025Y-68415096D01*
X160500000Y-68415000D01*
X160900000Y-68415000D01*
X160900975Y-68415096D01*
X160901913Y-68415381D01*
X160902778Y-68415843D01*
X160903536Y-68416464D01*
X160904157Y-68417222D01*
X160904619Y-68418087D01*
X160904904Y-68419025D01*
X160905000Y-68420000D01*
X160905000Y-69080000D01*
X160904904Y-69080975D01*
X160904619Y-69081913D01*
X160904157Y-69082778D01*
X160903536Y-69083536D01*
X160902778Y-69084157D01*
X160901913Y-69084619D01*
X160900975Y-69084904D01*
X160900000Y-69085000D01*
X160900000Y-69500000D01*
X160650000Y-69750000D01*
X160500000Y-69750000D01*
X160500000Y-69085000D01*
X160499025Y-69084904D01*
X160498087Y-69084619D01*
X160497222Y-69084157D01*
X160496464Y-69083536D01*
X160495843Y-69082778D01*
X160495381Y-69081913D01*
X160495096Y-69080975D01*
X160495000Y-69080000D01*
X160495000Y-68420000D01*
X160495096Y-68419025D01*
X160495096Y-68419025D01*
G37*
D28*
X160837500Y-70050000D03*
D11*
G36*
X160750000Y-69850000D02*
X161165000Y-69850000D01*
X161165096Y-69849025D01*
X161165381Y-69848087D01*
X161165843Y-69847222D01*
X161166464Y-69846464D01*
X161167222Y-69845843D01*
X161168087Y-69845381D01*
X161169025Y-69845096D01*
X161170000Y-69845000D01*
X161830000Y-69845000D01*
X161830975Y-69845096D01*
X161831913Y-69845381D01*
X161832778Y-69845843D01*
X161833536Y-69846464D01*
X161834157Y-69847222D01*
X161834619Y-69848087D01*
X161834904Y-69849025D01*
X161835000Y-69850000D01*
X161835000Y-70250000D01*
X161834904Y-70250975D01*
X161834619Y-70251913D01*
X161834157Y-70252778D01*
X161833536Y-70253536D01*
X161832778Y-70254157D01*
X161831913Y-70254619D01*
X161830975Y-70254904D01*
X161830000Y-70255000D01*
X161170000Y-70255000D01*
X161169025Y-70254904D01*
X161168087Y-70254619D01*
X161167222Y-70254157D01*
X161166464Y-70253536D01*
X161165843Y-70252778D01*
X161165381Y-70251913D01*
X161165096Y-70250975D01*
X161165000Y-70250000D01*
X160500000Y-70250000D01*
X160500000Y-70100000D01*
X160750000Y-69850000D01*
X160750000Y-69850000D01*
G37*
D28*
X160837500Y-70550000D03*
D11*
G36*
X161165000Y-70350000D02*
X161165096Y-70349025D01*
X161165381Y-70348087D01*
X161165843Y-70347222D01*
X161166464Y-70346464D01*
X161167222Y-70345843D01*
X161168087Y-70345381D01*
X161169025Y-70345096D01*
X161170000Y-70345000D01*
X161830000Y-70345000D01*
X161830975Y-70345096D01*
X161831913Y-70345381D01*
X161832778Y-70345843D01*
X161833536Y-70346464D01*
X161834157Y-70347222D01*
X161834619Y-70348087D01*
X161834904Y-70349025D01*
X161835000Y-70350000D01*
X161835000Y-70750000D01*
X161834904Y-70750975D01*
X161834619Y-70751913D01*
X161834157Y-70752778D01*
X161833536Y-70753536D01*
X161832778Y-70754157D01*
X161831913Y-70754619D01*
X161830975Y-70754904D01*
X161830000Y-70755000D01*
X161170000Y-70755000D01*
X161169025Y-70754904D01*
X161168087Y-70754619D01*
X161167222Y-70754157D01*
X161166464Y-70753536D01*
X161165843Y-70752778D01*
X161165381Y-70751913D01*
X161165096Y-70750975D01*
X161165000Y-70750000D01*
X160500000Y-70750000D01*
X160500000Y-70350000D01*
X161165000Y-70350000D01*
X161165000Y-70350000D01*
G37*
D28*
X160837500Y-71050000D03*
D11*
G36*
X161165000Y-70850000D02*
X161165096Y-70849025D01*
X161165381Y-70848087D01*
X161165843Y-70847222D01*
X161166464Y-70846464D01*
X161167222Y-70845843D01*
X161168087Y-70845381D01*
X161169025Y-70845096D01*
X161170000Y-70845000D01*
X161830000Y-70845000D01*
X161830975Y-70845096D01*
X161831913Y-70845381D01*
X161832778Y-70845843D01*
X161833536Y-70846464D01*
X161834157Y-70847222D01*
X161834619Y-70848087D01*
X161834904Y-70849025D01*
X161835000Y-70850000D01*
X161835000Y-71250000D01*
X161834904Y-71250975D01*
X161834619Y-71251913D01*
X161834157Y-71252778D01*
X161833536Y-71253536D01*
X161832778Y-71254157D01*
X161831913Y-71254619D01*
X161830975Y-71254904D01*
X161830000Y-71255000D01*
X161170000Y-71255000D01*
X161169025Y-71254904D01*
X161168087Y-71254619D01*
X161167222Y-71254157D01*
X161166464Y-71253536D01*
X161165843Y-71252778D01*
X161165381Y-71251913D01*
X161165096Y-71250975D01*
X161165000Y-71250000D01*
X160750000Y-71250000D01*
X160500000Y-71000000D01*
X160500000Y-70850000D01*
X161165000Y-70850000D01*
X161165000Y-70850000D01*
G37*
D28*
X160700000Y-71687500D03*
D11*
G36*
X160495096Y-72019025D02*
X160495381Y-72018087D01*
X160495843Y-72017222D01*
X160496464Y-72016464D01*
X160497222Y-72015843D01*
X160498087Y-72015381D01*
X160499025Y-72015096D01*
X160500000Y-72015000D01*
X160500000Y-71350000D01*
X160650000Y-71350000D01*
X160900000Y-71600000D01*
X160900000Y-72015000D01*
X160900975Y-72015096D01*
X160901913Y-72015381D01*
X160902778Y-72015843D01*
X160903536Y-72016464D01*
X160904157Y-72017222D01*
X160904619Y-72018087D01*
X160904904Y-72019025D01*
X160905000Y-72020000D01*
X160905000Y-72680000D01*
X160904904Y-72680975D01*
X160904619Y-72681913D01*
X160904157Y-72682778D01*
X160903536Y-72683536D01*
X160902778Y-72684157D01*
X160901913Y-72684619D01*
X160900975Y-72684904D01*
X160900000Y-72685000D01*
X160500000Y-72685000D01*
X160499025Y-72684904D01*
X160498087Y-72684619D01*
X160497222Y-72684157D01*
X160496464Y-72683536D01*
X160495843Y-72682778D01*
X160495381Y-72681913D01*
X160495096Y-72680975D01*
X160495000Y-72680000D01*
X160495000Y-72020000D01*
X160495096Y-72019025D01*
X160495096Y-72019025D01*
G37*
D28*
X160200000Y-71687500D03*
D11*
G36*
X159995096Y-72019025D02*
X159995381Y-72018087D01*
X159995843Y-72017222D01*
X159996464Y-72016464D01*
X159997222Y-72015843D01*
X159998087Y-72015381D01*
X159999025Y-72015096D01*
X160000000Y-72015000D01*
X160000000Y-71350000D01*
X160400000Y-71350000D01*
X160400000Y-72015000D01*
X160400975Y-72015096D01*
X160401913Y-72015381D01*
X160402778Y-72015843D01*
X160403536Y-72016464D01*
X160404157Y-72017222D01*
X160404619Y-72018087D01*
X160404904Y-72019025D01*
X160405000Y-72020000D01*
X160405000Y-72680000D01*
X160404904Y-72680975D01*
X160404619Y-72681913D01*
X160404157Y-72682778D01*
X160403536Y-72683536D01*
X160402778Y-72684157D01*
X160401913Y-72684619D01*
X160400975Y-72684904D01*
X160400000Y-72685000D01*
X160000000Y-72685000D01*
X159999025Y-72684904D01*
X159998087Y-72684619D01*
X159997222Y-72684157D01*
X159996464Y-72683536D01*
X159995843Y-72682778D01*
X159995381Y-72681913D01*
X159995096Y-72680975D01*
X159995000Y-72680000D01*
X159995000Y-72020000D01*
X159995096Y-72019025D01*
X159995096Y-72019025D01*
G37*
D28*
X159062500Y-70050000D03*
D11*
G36*
X158065096Y-69849025D02*
X158065381Y-69848087D01*
X158065843Y-69847222D01*
X158066464Y-69846464D01*
X158067222Y-69845843D01*
X158068087Y-69845381D01*
X158069025Y-69845096D01*
X158070000Y-69845000D01*
X158730000Y-69845000D01*
X158730975Y-69845096D01*
X158731913Y-69845381D01*
X158732778Y-69845843D01*
X158733536Y-69846464D01*
X158734157Y-69847222D01*
X158734619Y-69848087D01*
X158734904Y-69849025D01*
X158735000Y-69850000D01*
X159150000Y-69850000D01*
X159400000Y-70100000D01*
X159400000Y-70250000D01*
X158735000Y-70250000D01*
X158734904Y-70250975D01*
X158734619Y-70251913D01*
X158734157Y-70252778D01*
X158733536Y-70253536D01*
X158732778Y-70254157D01*
X158731913Y-70254619D01*
X158730975Y-70254904D01*
X158730000Y-70255000D01*
X158070000Y-70255000D01*
X158069025Y-70254904D01*
X158068087Y-70254619D01*
X158067222Y-70254157D01*
X158066464Y-70253536D01*
X158065843Y-70252778D01*
X158065381Y-70251913D01*
X158065096Y-70250975D01*
X158065000Y-70250000D01*
X158065000Y-69850000D01*
X158065096Y-69849025D01*
X158065096Y-69849025D01*
G37*
D28*
X159062500Y-70550000D03*
D11*
G36*
X158065096Y-70349025D02*
X158065381Y-70348087D01*
X158065843Y-70347222D01*
X158066464Y-70346464D01*
X158067222Y-70345843D01*
X158068087Y-70345381D01*
X158069025Y-70345096D01*
X158070000Y-70345000D01*
X158730000Y-70345000D01*
X158730975Y-70345096D01*
X158731913Y-70345381D01*
X158732778Y-70345843D01*
X158733536Y-70346464D01*
X158734157Y-70347222D01*
X158734619Y-70348087D01*
X158734904Y-70349025D01*
X158735000Y-70350000D01*
X159400000Y-70350000D01*
X159400000Y-70750000D01*
X158735000Y-70750000D01*
X158734904Y-70750975D01*
X158734619Y-70751913D01*
X158734157Y-70752778D01*
X158733536Y-70753536D01*
X158732778Y-70754157D01*
X158731913Y-70754619D01*
X158730975Y-70754904D01*
X158730000Y-70755000D01*
X158070000Y-70755000D01*
X158069025Y-70754904D01*
X158068087Y-70754619D01*
X158067222Y-70754157D01*
X158066464Y-70753536D01*
X158065843Y-70752778D01*
X158065381Y-70751913D01*
X158065096Y-70750975D01*
X158065000Y-70750000D01*
X158065000Y-70350000D01*
X158065096Y-70349025D01*
X158065096Y-70349025D01*
G37*
D28*
X159062500Y-71050000D03*
D11*
G36*
X158065096Y-70849025D02*
X158065381Y-70848087D01*
X158065843Y-70847222D01*
X158066464Y-70846464D01*
X158067222Y-70845843D01*
X158068087Y-70845381D01*
X158069025Y-70845096D01*
X158070000Y-70845000D01*
X158730000Y-70845000D01*
X158730975Y-70845096D01*
X158731913Y-70845381D01*
X158732778Y-70845843D01*
X158733536Y-70846464D01*
X158734157Y-70847222D01*
X158734619Y-70848087D01*
X158734904Y-70849025D01*
X158735000Y-70850000D01*
X159400000Y-70850000D01*
X159400000Y-71000000D01*
X159150000Y-71250000D01*
X158735000Y-71250000D01*
X158734904Y-71250975D01*
X158734619Y-71251913D01*
X158734157Y-71252778D01*
X158733536Y-71253536D01*
X158732778Y-71254157D01*
X158731913Y-71254619D01*
X158730975Y-71254904D01*
X158730000Y-71255000D01*
X158070000Y-71255000D01*
X158069025Y-71254904D01*
X158068087Y-71254619D01*
X158067222Y-71254157D01*
X158066464Y-71253536D01*
X158065843Y-71252778D01*
X158065381Y-71251913D01*
X158065096Y-71250975D01*
X158065000Y-71250000D01*
X158065000Y-70850000D01*
X158065096Y-70849025D01*
X158065096Y-70849025D01*
G37*
D28*
X159700000Y-71687500D03*
D11*
G36*
X159495096Y-72019025D02*
X159495381Y-72018087D01*
X159495843Y-72017222D01*
X159496464Y-72016464D01*
X159497222Y-72015843D01*
X159498087Y-72015381D01*
X159499025Y-72015096D01*
X159500000Y-72015000D01*
X159500000Y-71350000D01*
X159900000Y-71350000D01*
X159900000Y-72015000D01*
X159900975Y-72015096D01*
X159901913Y-72015381D01*
X159902778Y-72015843D01*
X159903536Y-72016464D01*
X159904157Y-72017222D01*
X159904619Y-72018087D01*
X159904904Y-72019025D01*
X159905000Y-72020000D01*
X159905000Y-72680000D01*
X159904904Y-72680975D01*
X159904619Y-72681913D01*
X159904157Y-72682778D01*
X159903536Y-72683536D01*
X159902778Y-72684157D01*
X159901913Y-72684619D01*
X159900975Y-72684904D01*
X159900000Y-72685000D01*
X159500000Y-72685000D01*
X159499025Y-72684904D01*
X159498087Y-72684619D01*
X159497222Y-72684157D01*
X159496464Y-72683536D01*
X159495843Y-72682778D01*
X159495381Y-72681913D01*
X159495096Y-72680975D01*
X159495000Y-72680000D01*
X159495000Y-72020000D01*
X159495096Y-72019025D01*
X159495096Y-72019025D01*
G37*
D28*
X159200000Y-71687500D03*
D11*
G36*
X158995096Y-72019025D02*
X158995381Y-72018087D01*
X158995843Y-72017222D01*
X158996464Y-72016464D01*
X158997222Y-72015843D01*
X158998087Y-72015381D01*
X158999025Y-72015096D01*
X159000000Y-72015000D01*
X159000000Y-71600000D01*
X159250000Y-71350000D01*
X159400000Y-71350000D01*
X159400000Y-72015000D01*
X159400975Y-72015096D01*
X159401913Y-72015381D01*
X159402778Y-72015843D01*
X159403536Y-72016464D01*
X159404157Y-72017222D01*
X159404619Y-72018087D01*
X159404904Y-72019025D01*
X159405000Y-72020000D01*
X159405000Y-72680000D01*
X159404904Y-72680975D01*
X159404619Y-72681913D01*
X159404157Y-72682778D01*
X159403536Y-72683536D01*
X159402778Y-72684157D01*
X159401913Y-72684619D01*
X159400975Y-72684904D01*
X159400000Y-72685000D01*
X159000000Y-72685000D01*
X158999025Y-72684904D01*
X158998087Y-72684619D01*
X158997222Y-72684157D01*
X158996464Y-72683536D01*
X158995843Y-72682778D01*
X158995381Y-72681913D01*
X158995096Y-72680975D01*
X158995000Y-72680000D01*
X158995000Y-72020000D01*
X158995096Y-72019025D01*
X158995096Y-72019025D01*
G37*
G04 #@! TD*
G04 #@! TO.C,R18*
G36*
X157685779Y-80026144D02*
X157708834Y-80029563D01*
X157731443Y-80035227D01*
X157753387Y-80043079D01*
X157774457Y-80053044D01*
X157794448Y-80065026D01*
X157813168Y-80078910D01*
X157830438Y-80094562D01*
X157846090Y-80111832D01*
X157859974Y-80130552D01*
X157871956Y-80150543D01*
X157881921Y-80171613D01*
X157889773Y-80193557D01*
X157895437Y-80216166D01*
X157898856Y-80239221D01*
X157900000Y-80262500D01*
X157900000Y-80737500D01*
X157898856Y-80760779D01*
X157895437Y-80783834D01*
X157889773Y-80806443D01*
X157881921Y-80828387D01*
X157871956Y-80849457D01*
X157859974Y-80869448D01*
X157846090Y-80888168D01*
X157830438Y-80905438D01*
X157813168Y-80921090D01*
X157794448Y-80934974D01*
X157774457Y-80946956D01*
X157753387Y-80956921D01*
X157731443Y-80964773D01*
X157708834Y-80970437D01*
X157685779Y-80973856D01*
X157662500Y-80975000D01*
X157087500Y-80975000D01*
X157064221Y-80973856D01*
X157041166Y-80970437D01*
X157018557Y-80964773D01*
X156996613Y-80956921D01*
X156975543Y-80946956D01*
X156955552Y-80934974D01*
X156936832Y-80921090D01*
X156919562Y-80905438D01*
X156903910Y-80888168D01*
X156890026Y-80869448D01*
X156878044Y-80849457D01*
X156868079Y-80828387D01*
X156860227Y-80806443D01*
X156854563Y-80783834D01*
X156851144Y-80760779D01*
X156850000Y-80737500D01*
X156850000Y-80262500D01*
X156851144Y-80239221D01*
X156854563Y-80216166D01*
X156860227Y-80193557D01*
X156868079Y-80171613D01*
X156878044Y-80150543D01*
X156890026Y-80130552D01*
X156903910Y-80111832D01*
X156919562Y-80094562D01*
X156936832Y-80078910D01*
X156955552Y-80065026D01*
X156975543Y-80053044D01*
X156996613Y-80043079D01*
X157018557Y-80035227D01*
X157041166Y-80029563D01*
X157064221Y-80026144D01*
X157087500Y-80025000D01*
X157662500Y-80025000D01*
X157685779Y-80026144D01*
X157685779Y-80026144D01*
G37*
D12*
X157375000Y-80500000D03*
D11*
G36*
X159435779Y-80026144D02*
X159458834Y-80029563D01*
X159481443Y-80035227D01*
X159503387Y-80043079D01*
X159524457Y-80053044D01*
X159544448Y-80065026D01*
X159563168Y-80078910D01*
X159580438Y-80094562D01*
X159596090Y-80111832D01*
X159609974Y-80130552D01*
X159621956Y-80150543D01*
X159631921Y-80171613D01*
X159639773Y-80193557D01*
X159645437Y-80216166D01*
X159648856Y-80239221D01*
X159650000Y-80262500D01*
X159650000Y-80737500D01*
X159648856Y-80760779D01*
X159645437Y-80783834D01*
X159639773Y-80806443D01*
X159631921Y-80828387D01*
X159621956Y-80849457D01*
X159609974Y-80869448D01*
X159596090Y-80888168D01*
X159580438Y-80905438D01*
X159563168Y-80921090D01*
X159544448Y-80934974D01*
X159524457Y-80946956D01*
X159503387Y-80956921D01*
X159481443Y-80964773D01*
X159458834Y-80970437D01*
X159435779Y-80973856D01*
X159412500Y-80975000D01*
X158837500Y-80975000D01*
X158814221Y-80973856D01*
X158791166Y-80970437D01*
X158768557Y-80964773D01*
X158746613Y-80956921D01*
X158725543Y-80946956D01*
X158705552Y-80934974D01*
X158686832Y-80921090D01*
X158669562Y-80905438D01*
X158653910Y-80888168D01*
X158640026Y-80869448D01*
X158628044Y-80849457D01*
X158618079Y-80828387D01*
X158610227Y-80806443D01*
X158604563Y-80783834D01*
X158601144Y-80760779D01*
X158600000Y-80737500D01*
X158600000Y-80262500D01*
X158601144Y-80239221D01*
X158604563Y-80216166D01*
X158610227Y-80193557D01*
X158618079Y-80171613D01*
X158628044Y-80150543D01*
X158640026Y-80130552D01*
X158653910Y-80111832D01*
X158669562Y-80094562D01*
X158686832Y-80078910D01*
X158705552Y-80065026D01*
X158725543Y-80053044D01*
X158746613Y-80043079D01*
X158768557Y-80035227D01*
X158791166Y-80029563D01*
X158814221Y-80026144D01*
X158837500Y-80025000D01*
X159412500Y-80025000D01*
X159435779Y-80026144D01*
X159435779Y-80026144D01*
G37*
D12*
X159125000Y-80500000D03*
G04 #@! TD*
D16*
G04 #@! TO.C,Q2*
X130900000Y-75250000D03*
X129000000Y-75250000D03*
X129950000Y-73250000D03*
G04 #@! TD*
D11*
G04 #@! TO.C,C19*
G36*
X161440779Y-77786144D02*
X161463834Y-77789563D01*
X161486443Y-77795227D01*
X161508387Y-77803079D01*
X161529457Y-77813044D01*
X161549448Y-77825026D01*
X161568168Y-77838910D01*
X161585438Y-77854562D01*
X161601090Y-77871832D01*
X161614974Y-77890552D01*
X161626956Y-77910543D01*
X161636921Y-77931613D01*
X161644773Y-77953557D01*
X161650437Y-77976166D01*
X161653856Y-77999221D01*
X161655000Y-78022500D01*
X161655000Y-78497500D01*
X161653856Y-78520779D01*
X161650437Y-78543834D01*
X161644773Y-78566443D01*
X161636921Y-78588387D01*
X161626956Y-78609457D01*
X161614974Y-78629448D01*
X161601090Y-78648168D01*
X161585438Y-78665438D01*
X161568168Y-78681090D01*
X161549448Y-78694974D01*
X161529457Y-78706956D01*
X161508387Y-78716921D01*
X161486443Y-78724773D01*
X161463834Y-78730437D01*
X161440779Y-78733856D01*
X161417500Y-78735000D01*
X160842500Y-78735000D01*
X160819221Y-78733856D01*
X160796166Y-78730437D01*
X160773557Y-78724773D01*
X160751613Y-78716921D01*
X160730543Y-78706956D01*
X160710552Y-78694974D01*
X160691832Y-78681090D01*
X160674562Y-78665438D01*
X160658910Y-78648168D01*
X160645026Y-78629448D01*
X160633044Y-78609457D01*
X160623079Y-78588387D01*
X160615227Y-78566443D01*
X160609563Y-78543834D01*
X160606144Y-78520779D01*
X160605000Y-78497500D01*
X160605000Y-78022500D01*
X160606144Y-77999221D01*
X160609563Y-77976166D01*
X160615227Y-77953557D01*
X160623079Y-77931613D01*
X160633044Y-77910543D01*
X160645026Y-77890552D01*
X160658910Y-77871832D01*
X160674562Y-77854562D01*
X160691832Y-77838910D01*
X160710552Y-77825026D01*
X160730543Y-77813044D01*
X160751613Y-77803079D01*
X160773557Y-77795227D01*
X160796166Y-77789563D01*
X160819221Y-77786144D01*
X160842500Y-77785000D01*
X161417500Y-77785000D01*
X161440779Y-77786144D01*
X161440779Y-77786144D01*
G37*
D12*
X161130000Y-78260000D03*
D11*
G36*
X159690779Y-77786144D02*
X159713834Y-77789563D01*
X159736443Y-77795227D01*
X159758387Y-77803079D01*
X159779457Y-77813044D01*
X159799448Y-77825026D01*
X159818168Y-77838910D01*
X159835438Y-77854562D01*
X159851090Y-77871832D01*
X159864974Y-77890552D01*
X159876956Y-77910543D01*
X159886921Y-77931613D01*
X159894773Y-77953557D01*
X159900437Y-77976166D01*
X159903856Y-77999221D01*
X159905000Y-78022500D01*
X159905000Y-78497500D01*
X159903856Y-78520779D01*
X159900437Y-78543834D01*
X159894773Y-78566443D01*
X159886921Y-78588387D01*
X159876956Y-78609457D01*
X159864974Y-78629448D01*
X159851090Y-78648168D01*
X159835438Y-78665438D01*
X159818168Y-78681090D01*
X159799448Y-78694974D01*
X159779457Y-78706956D01*
X159758387Y-78716921D01*
X159736443Y-78724773D01*
X159713834Y-78730437D01*
X159690779Y-78733856D01*
X159667500Y-78735000D01*
X159092500Y-78735000D01*
X159069221Y-78733856D01*
X159046166Y-78730437D01*
X159023557Y-78724773D01*
X159001613Y-78716921D01*
X158980543Y-78706956D01*
X158960552Y-78694974D01*
X158941832Y-78681090D01*
X158924562Y-78665438D01*
X158908910Y-78648168D01*
X158895026Y-78629448D01*
X158883044Y-78609457D01*
X158873079Y-78588387D01*
X158865227Y-78566443D01*
X158859563Y-78543834D01*
X158856144Y-78520779D01*
X158855000Y-78497500D01*
X158855000Y-78022500D01*
X158856144Y-77999221D01*
X158859563Y-77976166D01*
X158865227Y-77953557D01*
X158873079Y-77931613D01*
X158883044Y-77910543D01*
X158895026Y-77890552D01*
X158908910Y-77871832D01*
X158924562Y-77854562D01*
X158941832Y-77838910D01*
X158960552Y-77825026D01*
X158980543Y-77813044D01*
X159001613Y-77803079D01*
X159023557Y-77795227D01*
X159046166Y-77789563D01*
X159069221Y-77786144D01*
X159092500Y-77785000D01*
X159667500Y-77785000D01*
X159690779Y-77786144D01*
X159690779Y-77786144D01*
G37*
D12*
X159380000Y-78260000D03*
G04 #@! TD*
D11*
G04 #@! TO.C,C20*
G36*
X159690779Y-76536144D02*
X159713834Y-76539563D01*
X159736443Y-76545227D01*
X159758387Y-76553079D01*
X159779457Y-76563044D01*
X159799448Y-76575026D01*
X159818168Y-76588910D01*
X159835438Y-76604562D01*
X159851090Y-76621832D01*
X159864974Y-76640552D01*
X159876956Y-76660543D01*
X159886921Y-76681613D01*
X159894773Y-76703557D01*
X159900437Y-76726166D01*
X159903856Y-76749221D01*
X159905000Y-76772500D01*
X159905000Y-77247500D01*
X159903856Y-77270779D01*
X159900437Y-77293834D01*
X159894773Y-77316443D01*
X159886921Y-77338387D01*
X159876956Y-77359457D01*
X159864974Y-77379448D01*
X159851090Y-77398168D01*
X159835438Y-77415438D01*
X159818168Y-77431090D01*
X159799448Y-77444974D01*
X159779457Y-77456956D01*
X159758387Y-77466921D01*
X159736443Y-77474773D01*
X159713834Y-77480437D01*
X159690779Y-77483856D01*
X159667500Y-77485000D01*
X159092500Y-77485000D01*
X159069221Y-77483856D01*
X159046166Y-77480437D01*
X159023557Y-77474773D01*
X159001613Y-77466921D01*
X158980543Y-77456956D01*
X158960552Y-77444974D01*
X158941832Y-77431090D01*
X158924562Y-77415438D01*
X158908910Y-77398168D01*
X158895026Y-77379448D01*
X158883044Y-77359457D01*
X158873079Y-77338387D01*
X158865227Y-77316443D01*
X158859563Y-77293834D01*
X158856144Y-77270779D01*
X158855000Y-77247500D01*
X158855000Y-76772500D01*
X158856144Y-76749221D01*
X158859563Y-76726166D01*
X158865227Y-76703557D01*
X158873079Y-76681613D01*
X158883044Y-76660543D01*
X158895026Y-76640552D01*
X158908910Y-76621832D01*
X158924562Y-76604562D01*
X158941832Y-76588910D01*
X158960552Y-76575026D01*
X158980543Y-76563044D01*
X159001613Y-76553079D01*
X159023557Y-76545227D01*
X159046166Y-76539563D01*
X159069221Y-76536144D01*
X159092500Y-76535000D01*
X159667500Y-76535000D01*
X159690779Y-76536144D01*
X159690779Y-76536144D01*
G37*
D12*
X159380000Y-77010000D03*
D11*
G36*
X161440779Y-76536144D02*
X161463834Y-76539563D01*
X161486443Y-76545227D01*
X161508387Y-76553079D01*
X161529457Y-76563044D01*
X161549448Y-76575026D01*
X161568168Y-76588910D01*
X161585438Y-76604562D01*
X161601090Y-76621832D01*
X161614974Y-76640552D01*
X161626956Y-76660543D01*
X161636921Y-76681613D01*
X161644773Y-76703557D01*
X161650437Y-76726166D01*
X161653856Y-76749221D01*
X161655000Y-76772500D01*
X161655000Y-77247500D01*
X161653856Y-77270779D01*
X161650437Y-77293834D01*
X161644773Y-77316443D01*
X161636921Y-77338387D01*
X161626956Y-77359457D01*
X161614974Y-77379448D01*
X161601090Y-77398168D01*
X161585438Y-77415438D01*
X161568168Y-77431090D01*
X161549448Y-77444974D01*
X161529457Y-77456956D01*
X161508387Y-77466921D01*
X161486443Y-77474773D01*
X161463834Y-77480437D01*
X161440779Y-77483856D01*
X161417500Y-77485000D01*
X160842500Y-77485000D01*
X160819221Y-77483856D01*
X160796166Y-77480437D01*
X160773557Y-77474773D01*
X160751613Y-77466921D01*
X160730543Y-77456956D01*
X160710552Y-77444974D01*
X160691832Y-77431090D01*
X160674562Y-77415438D01*
X160658910Y-77398168D01*
X160645026Y-77379448D01*
X160633044Y-77359457D01*
X160623079Y-77338387D01*
X160615227Y-77316443D01*
X160609563Y-77293834D01*
X160606144Y-77270779D01*
X160605000Y-77247500D01*
X160605000Y-76772500D01*
X160606144Y-76749221D01*
X160609563Y-76726166D01*
X160615227Y-76703557D01*
X160623079Y-76681613D01*
X160633044Y-76660543D01*
X160645026Y-76640552D01*
X160658910Y-76621832D01*
X160674562Y-76604562D01*
X160691832Y-76588910D01*
X160710552Y-76575026D01*
X160730543Y-76563044D01*
X160751613Y-76553079D01*
X160773557Y-76545227D01*
X160796166Y-76539563D01*
X160819221Y-76536144D01*
X160842500Y-76535000D01*
X161417500Y-76535000D01*
X161440779Y-76536144D01*
X161440779Y-76536144D01*
G37*
D12*
X161130000Y-77010000D03*
G04 #@! TD*
M02*
