M48
; DRILL file {KiCad 5.1.5+dfsg1-2build2} date Sun 31 Jan 2021 04:10:30 PM PST
; FORMAT={-:-/ absolute / metric / decimal}
; #@! TF.CreationDate,2021-01-31T16:10:30-08:00
; #@! TF.GenerationSoftware,Kicad,Pcbnew,5.1.5+dfsg1-2build2
; #@! TF.FileFunction,Plated,1,2,PTH
FMAT,2
METRIC
T1C0.200
T2C0.500
T3C1.000
%
G90
G05
T1
X121.14Y-108.09
X121.15Y-105.14
X123.1Y-104.15
X124.85Y-107.55
X125.5Y-76.25
X125.95Y-100.4
X126.7Y-107.6
X126.95Y-86.85
X127.0Y-74.65
X127.15Y-90.699
X128.75Y-85.1
X128.75Y-89.95
X129.15Y-83.3
X129.29Y-78.75
X129.85Y-68.35
X129.85Y-70.55
X130.25Y-82.25
X130.302Y-97.155
X130.85Y-93.95
X131.0Y-87.3
X131.75Y-85.75
X132.0Y-77.25
X132.45Y-81.5
X133.424Y-85.15
X134.0Y-79.95
X134.2Y-82.5
X134.5Y-89.75
X134.75Y-76.25
X135.65Y-75.15
X136.24Y-81.41
X136.3Y-78.15
X136.445Y-85.75
X136.445Y-87.85
X136.495Y-83.35
X136.5Y-84.4
X136.695Y-92.9
X138.6Y-80.1
X139.05Y-80.9
X139.45Y-80.1
X139.93Y-94.93
X140.35Y-76.65
X140.445Y-80.1
X141.045Y-77.5
X141.17Y-91.64
X141.54Y-89.14
X142.14Y-91.65
X142.3Y-89.15
X143.5Y-104.35
X143.6Y-88.75
X144.95Y-84.2
X145.25Y-88.55
X145.25Y-95.35
X145.4Y-76.8
X145.55Y-79.0
X147.02Y-96.65
X147.25Y-103.0
X147.437Y-87.874
X147.45Y-81.4
X147.68Y-84.02
X147.701Y-87.376
X148.209Y-89.662
X148.336Y-88.9
X149.2Y-78.75
X149.2Y-96.65
X150.4Y-76.45
X150.95Y-83.75
X151.04Y-96.34
X151.65Y-79.0
X152.15Y-81.4
X152.55Y-85.05
X153.25Y-82.7
X153.46Y-114.39
X153.745Y-111.35
X153.75Y-107.0
X153.75Y-108.05
X153.8Y-79.35
X154.3Y-86.2
X154.4Y-78.35
X154.6Y-84.75
X155.245Y-81.4
X155.6Y-80.35
X156.15Y-101.0
X157.865Y-91.752
X158.115Y-92.329
X158.595Y-87.65
X161.95Y-99.0
X162.55Y-101.5
X162.7Y-105.3
X162.814Y-88.265
X163.4Y-106.15
X164.195Y-109.225
X164.2Y-110.35
X164.2Y-111.325
X164.2Y-112.35
X164.2Y-113.5
X164.2Y-114.7
X165.18Y-84.455
X165.227Y-86.614
X165.7Y-92.1
X166.7Y-67.15
X166.706Y-104.69
X166.795Y-103.95
X168.021Y-82.804
T2
X131.5Y-80.25
X131.5Y-81.25
X131.5Y-82.25
X156.264Y-82.91
X156.264Y-83.91
X157.264Y-82.91
X157.264Y-83.91
X156.313Y-77.814
X156.313Y-78.814
X157.313Y-77.814
X157.313Y-78.814
T3
X162.433Y-72.517
X162.433Y-75.057
X162.433Y-77.597
X162.433Y-80.137
X162.433Y-82.677
X164.973Y-72.517
X164.973Y-75.057
X164.973Y-77.597
X164.973Y-80.137
X164.973Y-82.677
X135.89Y-102.87
X138.43Y-102.87
T0
M30
