G04 #@! TF.GenerationSoftware,KiCad,Pcbnew,5.0.2-bee76a0~70~ubuntu18.04.1*
G04 #@! TF.CreationDate,2020-07-18T23:39:56-07:00*
G04 #@! TF.ProjectId,light_thing_hw,6c696768-745f-4746-9869-6e675f68772e,rev?*
G04 #@! TF.SameCoordinates,Original*
G04 #@! TF.FileFunction,Soldermask,Bot*
G04 #@! TF.FilePolarity,Negative*
%FSLAX46Y46*%
G04 Gerber Fmt 4.6, Leading zero omitted, Abs format (unit mm)*
G04 Created by KiCad (PCBNEW 5.0.2-bee76a0~70~ubuntu18.04.1) date Sat 18 Jul 2020 11:39:56 PM PDT*
%MOMM*%
%LPD*%
G01*
G04 APERTURE LIST*
%ADD10C,0.100000*%
G04 APERTURE END LIST*
D10*
G36*
X163096640Y-114999290D02*
X162299080Y-114999290D01*
X162299080Y-114300790D01*
X163096640Y-114300790D01*
X163096640Y-114999290D01*
X163096640Y-114999290D01*
G37*
G36*
X155298840Y-114999290D02*
X154501280Y-114999290D01*
X154501280Y-114300790D01*
X155298840Y-114300790D01*
X155298840Y-114999290D01*
X155298840Y-114999290D01*
G37*
G36*
X124164208Y-112853235D02*
X124189886Y-112861025D01*
X124213557Y-112873677D01*
X124234300Y-112890700D01*
X124251323Y-112911443D01*
X124263975Y-112935114D01*
X124271765Y-112960792D01*
X124275000Y-112993641D01*
X124275000Y-114306359D01*
X124271765Y-114339208D01*
X124263975Y-114364886D01*
X124251323Y-114388557D01*
X124234300Y-114409300D01*
X124213557Y-114426323D01*
X124189886Y-114438975D01*
X124164208Y-114446765D01*
X124131359Y-114450000D01*
X123618641Y-114450000D01*
X123585792Y-114446765D01*
X123560114Y-114438975D01*
X123536443Y-114426323D01*
X123515700Y-114409300D01*
X123498677Y-114388557D01*
X123486025Y-114364886D01*
X123478235Y-114339208D01*
X123475000Y-114306359D01*
X123475000Y-112993641D01*
X123478235Y-112960792D01*
X123486025Y-112935114D01*
X123498677Y-112911443D01*
X123515700Y-112890700D01*
X123536443Y-112873677D01*
X123560114Y-112861025D01*
X123585792Y-112853235D01*
X123618641Y-112850000D01*
X124131359Y-112850000D01*
X124164208Y-112853235D01*
X124164208Y-112853235D01*
G37*
G36*
X125414208Y-112853235D02*
X125439886Y-112861025D01*
X125463557Y-112873677D01*
X125484300Y-112890700D01*
X125501323Y-112911443D01*
X125513975Y-112935114D01*
X125521765Y-112960792D01*
X125525000Y-112993641D01*
X125525000Y-114306359D01*
X125521765Y-114339208D01*
X125513975Y-114364886D01*
X125501323Y-114388557D01*
X125484300Y-114409300D01*
X125463557Y-114426323D01*
X125439886Y-114438975D01*
X125414208Y-114446765D01*
X125381359Y-114450000D01*
X124868641Y-114450000D01*
X124835792Y-114446765D01*
X124810114Y-114438975D01*
X124786443Y-114426323D01*
X124765700Y-114409300D01*
X124748677Y-114388557D01*
X124736025Y-114364886D01*
X124728235Y-114339208D01*
X124725000Y-114306359D01*
X124725000Y-112993641D01*
X124728235Y-112960792D01*
X124736025Y-112935114D01*
X124748677Y-112911443D01*
X124765700Y-112890700D01*
X124786443Y-112873677D01*
X124810114Y-112861025D01*
X124835792Y-112853235D01*
X124868641Y-112850000D01*
X125381359Y-112850000D01*
X125414208Y-112853235D01*
X125414208Y-112853235D01*
G37*
G36*
X155298840Y-113899470D02*
X154501280Y-113899470D01*
X154501280Y-113200970D01*
X155298840Y-113200970D01*
X155298840Y-113899470D01*
X155298840Y-113899470D01*
G37*
G36*
X163096640Y-113899470D02*
X162299080Y-113899470D01*
X162299080Y-113200970D01*
X163096640Y-113200970D01*
X163096640Y-113899470D01*
X163096640Y-113899470D01*
G37*
G36*
X163096640Y-112799650D02*
X162299080Y-112799650D01*
X162299080Y-112101150D01*
X163096640Y-112101150D01*
X163096640Y-112799650D01*
X163096640Y-112799650D01*
G37*
G36*
X155298840Y-112799650D02*
X154501280Y-112799650D01*
X154501280Y-112101150D01*
X155298840Y-112101150D01*
X155298840Y-112799650D01*
X155298840Y-112799650D01*
G37*
G36*
X122250309Y-109253567D02*
X122279234Y-109262341D01*
X122305885Y-109276586D01*
X122329244Y-109295756D01*
X122348414Y-109319115D01*
X122362659Y-109345766D01*
X122371433Y-109374691D01*
X122375000Y-109410903D01*
X122375000Y-112089097D01*
X122371433Y-112125309D01*
X122362659Y-112154234D01*
X122348414Y-112180885D01*
X122329244Y-112204244D01*
X122305885Y-112223414D01*
X122279234Y-112237659D01*
X122250309Y-112246433D01*
X122214097Y-112250000D01*
X120435903Y-112250000D01*
X120399691Y-112246433D01*
X120370766Y-112237659D01*
X120344115Y-112223414D01*
X120320756Y-112204244D01*
X120301586Y-112180885D01*
X120287341Y-112154234D01*
X120278567Y-112125309D01*
X120275000Y-112089097D01*
X120275000Y-109410903D01*
X120278567Y-109374691D01*
X120287341Y-109345766D01*
X120301586Y-109319115D01*
X120320756Y-109295756D01*
X120344115Y-109276586D01*
X120370766Y-109262341D01*
X120399691Y-109253567D01*
X120435903Y-109250000D01*
X122214097Y-109250000D01*
X122250309Y-109253567D01*
X122250309Y-109253567D01*
G37*
G36*
X128600309Y-109253567D02*
X128629234Y-109262341D01*
X128655885Y-109276586D01*
X128679244Y-109295756D01*
X128698414Y-109319115D01*
X128712659Y-109345766D01*
X128721433Y-109374691D01*
X128725000Y-109410903D01*
X128725000Y-112089097D01*
X128721433Y-112125309D01*
X128712659Y-112154234D01*
X128698414Y-112180885D01*
X128679244Y-112204244D01*
X128655885Y-112223414D01*
X128629234Y-112237659D01*
X128600309Y-112246433D01*
X128564097Y-112250000D01*
X126785903Y-112250000D01*
X126749691Y-112246433D01*
X126720766Y-112237659D01*
X126694115Y-112223414D01*
X126670756Y-112204244D01*
X126651586Y-112180885D01*
X126637341Y-112154234D01*
X126628567Y-112125309D01*
X126625000Y-112089097D01*
X126625000Y-109410903D01*
X126628567Y-109374691D01*
X126637341Y-109345766D01*
X126651586Y-109319115D01*
X126670756Y-109295756D01*
X126694115Y-109276586D01*
X126720766Y-109262341D01*
X126749691Y-109253567D01*
X126785903Y-109250000D01*
X128564097Y-109250000D01*
X128600309Y-109253567D01*
X128600309Y-109253567D01*
G37*
G36*
X159587425Y-111362098D02*
X159641970Y-111384691D01*
X159691063Y-111417494D01*
X159732806Y-111459237D01*
X159765609Y-111508330D01*
X159788202Y-111562875D01*
X159799720Y-111620781D01*
X159799720Y-111679819D01*
X159788202Y-111737725D01*
X159765609Y-111792270D01*
X159732806Y-111841363D01*
X159691063Y-111883106D01*
X159641970Y-111915909D01*
X159587425Y-111938502D01*
X159529520Y-111950020D01*
X159470480Y-111950020D01*
X159412575Y-111938502D01*
X159358030Y-111915909D01*
X159308937Y-111883106D01*
X159267194Y-111841363D01*
X159234391Y-111792270D01*
X159211798Y-111737725D01*
X159200280Y-111679819D01*
X159200280Y-111620781D01*
X159211798Y-111562875D01*
X159234391Y-111508330D01*
X159267194Y-111459237D01*
X159308937Y-111417494D01*
X159358030Y-111384691D01*
X159412575Y-111362098D01*
X159470480Y-111350580D01*
X159529520Y-111350580D01*
X159587425Y-111362098D01*
X159587425Y-111362098D01*
G37*
G36*
X160786305Y-111362098D02*
X160840850Y-111384691D01*
X160889943Y-111417494D01*
X160931686Y-111459237D01*
X160964489Y-111508330D01*
X160987082Y-111562875D01*
X160998600Y-111620781D01*
X160998600Y-111679819D01*
X160987082Y-111737725D01*
X160964489Y-111792270D01*
X160931686Y-111841363D01*
X160889943Y-111883106D01*
X160840850Y-111915909D01*
X160786305Y-111938502D01*
X160728400Y-111950020D01*
X160669360Y-111950020D01*
X160611455Y-111938502D01*
X160556910Y-111915909D01*
X160507817Y-111883106D01*
X160466074Y-111841363D01*
X160433271Y-111792270D01*
X160410678Y-111737725D01*
X160399160Y-111679819D01*
X160399160Y-111620781D01*
X160410678Y-111562875D01*
X160433271Y-111508330D01*
X160466074Y-111459237D01*
X160507817Y-111417494D01*
X160556910Y-111384691D01*
X160611455Y-111362098D01*
X160669360Y-111350580D01*
X160728400Y-111350580D01*
X160786305Y-111362098D01*
X160786305Y-111362098D01*
G37*
G36*
X157187125Y-111362098D02*
X157241670Y-111384691D01*
X157290763Y-111417494D01*
X157332506Y-111459237D01*
X157365309Y-111508330D01*
X157387902Y-111562875D01*
X157399420Y-111620781D01*
X157399420Y-111679819D01*
X157387902Y-111737725D01*
X157365309Y-111792270D01*
X157332506Y-111841363D01*
X157290763Y-111883106D01*
X157241670Y-111915909D01*
X157187125Y-111938502D01*
X157129220Y-111950020D01*
X157070180Y-111950020D01*
X157012275Y-111938502D01*
X156957730Y-111915909D01*
X156908637Y-111883106D01*
X156866894Y-111841363D01*
X156834091Y-111792270D01*
X156811498Y-111737725D01*
X156799980Y-111679819D01*
X156799980Y-111620781D01*
X156811498Y-111562875D01*
X156834091Y-111508330D01*
X156866894Y-111459237D01*
X156908637Y-111417494D01*
X156957730Y-111384691D01*
X157012275Y-111362098D01*
X157070180Y-111350580D01*
X157129220Y-111350580D01*
X157187125Y-111362098D01*
X157187125Y-111362098D01*
G37*
G36*
X158386005Y-111362098D02*
X158440550Y-111384691D01*
X158489643Y-111417494D01*
X158531386Y-111459237D01*
X158564189Y-111508330D01*
X158586782Y-111562875D01*
X158598300Y-111620781D01*
X158598300Y-111679819D01*
X158586782Y-111737725D01*
X158564189Y-111792270D01*
X158531386Y-111841363D01*
X158489643Y-111883106D01*
X158440550Y-111915909D01*
X158386005Y-111938502D01*
X158328100Y-111950020D01*
X158269060Y-111950020D01*
X158211155Y-111938502D01*
X158156610Y-111915909D01*
X158107517Y-111883106D01*
X158065774Y-111841363D01*
X158032971Y-111792270D01*
X158010378Y-111737725D01*
X157998860Y-111679819D01*
X157998860Y-111620781D01*
X158010378Y-111562875D01*
X158032971Y-111508330D01*
X158065774Y-111459237D01*
X158107517Y-111417494D01*
X158156610Y-111384691D01*
X158211155Y-111362098D01*
X158269060Y-111350580D01*
X158328100Y-111350580D01*
X158386005Y-111362098D01*
X158386005Y-111362098D01*
G37*
G36*
X155298840Y-111699830D02*
X154501280Y-111699830D01*
X154501280Y-111001330D01*
X155298840Y-111001330D01*
X155298840Y-111699830D01*
X155298840Y-111699830D01*
G37*
G36*
X163096640Y-111699830D02*
X162299080Y-111699830D01*
X162299080Y-111001330D01*
X163096640Y-111001330D01*
X163096640Y-111699830D01*
X163096640Y-111699830D01*
G37*
G36*
X160786305Y-110160678D02*
X160840850Y-110183271D01*
X160889943Y-110216074D01*
X160931686Y-110257817D01*
X160964489Y-110306910D01*
X160987082Y-110361455D01*
X160998600Y-110419361D01*
X160998600Y-110478399D01*
X160987082Y-110536305D01*
X160964489Y-110590850D01*
X160931686Y-110639943D01*
X160889943Y-110681686D01*
X160840850Y-110714489D01*
X160786305Y-110737082D01*
X160728400Y-110748600D01*
X160669360Y-110748600D01*
X160611455Y-110737082D01*
X160556910Y-110714489D01*
X160507817Y-110681686D01*
X160466074Y-110639943D01*
X160433271Y-110590850D01*
X160410678Y-110536305D01*
X160399160Y-110478399D01*
X160399160Y-110419361D01*
X160410678Y-110361455D01*
X160433271Y-110306910D01*
X160466074Y-110257817D01*
X160507817Y-110216074D01*
X160556910Y-110183271D01*
X160611455Y-110160678D01*
X160669360Y-110149160D01*
X160728400Y-110149160D01*
X160786305Y-110160678D01*
X160786305Y-110160678D01*
G37*
G36*
X157187125Y-110160678D02*
X157241670Y-110183271D01*
X157290763Y-110216074D01*
X157332506Y-110257817D01*
X157365309Y-110306910D01*
X157387902Y-110361455D01*
X157399420Y-110419361D01*
X157399420Y-110478399D01*
X157387902Y-110536305D01*
X157365309Y-110590850D01*
X157332506Y-110639943D01*
X157290763Y-110681686D01*
X157241670Y-110714489D01*
X157187125Y-110737082D01*
X157129220Y-110748600D01*
X157070180Y-110748600D01*
X157012275Y-110737082D01*
X156957730Y-110714489D01*
X156908637Y-110681686D01*
X156866894Y-110639943D01*
X156834091Y-110590850D01*
X156811498Y-110536305D01*
X156799980Y-110478399D01*
X156799980Y-110419361D01*
X156811498Y-110361455D01*
X156834091Y-110306910D01*
X156866894Y-110257817D01*
X156908637Y-110216074D01*
X156957730Y-110183271D01*
X157012275Y-110160678D01*
X157070180Y-110149160D01*
X157129220Y-110149160D01*
X157187125Y-110160678D01*
X157187125Y-110160678D01*
G37*
G36*
X158386005Y-110160678D02*
X158440550Y-110183271D01*
X158489643Y-110216074D01*
X158531386Y-110257817D01*
X158564189Y-110306910D01*
X158586782Y-110361455D01*
X158598300Y-110419361D01*
X158598300Y-110478399D01*
X158586782Y-110536305D01*
X158564189Y-110590850D01*
X158531386Y-110639943D01*
X158489643Y-110681686D01*
X158440550Y-110714489D01*
X158386005Y-110737082D01*
X158328100Y-110748600D01*
X158269060Y-110748600D01*
X158211155Y-110737082D01*
X158156610Y-110714489D01*
X158107517Y-110681686D01*
X158065774Y-110639943D01*
X158032971Y-110590850D01*
X158010378Y-110536305D01*
X157998860Y-110478399D01*
X157998860Y-110419361D01*
X158010378Y-110361455D01*
X158032971Y-110306910D01*
X158065774Y-110257817D01*
X158107517Y-110216074D01*
X158156610Y-110183271D01*
X158211155Y-110160678D01*
X158269060Y-110149160D01*
X158328100Y-110149160D01*
X158386005Y-110160678D01*
X158386005Y-110160678D01*
G37*
G36*
X159587425Y-110160678D02*
X159641970Y-110183271D01*
X159691063Y-110216074D01*
X159732806Y-110257817D01*
X159765609Y-110306910D01*
X159788202Y-110361455D01*
X159799720Y-110419361D01*
X159799720Y-110478399D01*
X159788202Y-110536305D01*
X159765609Y-110590850D01*
X159732806Y-110639943D01*
X159691063Y-110681686D01*
X159641970Y-110714489D01*
X159587425Y-110737082D01*
X159529520Y-110748600D01*
X159470480Y-110748600D01*
X159412575Y-110737082D01*
X159358030Y-110714489D01*
X159308937Y-110681686D01*
X159267194Y-110639943D01*
X159234391Y-110590850D01*
X159211798Y-110536305D01*
X159200280Y-110478399D01*
X159200280Y-110419361D01*
X159211798Y-110361455D01*
X159234391Y-110306910D01*
X159267194Y-110257817D01*
X159308937Y-110216074D01*
X159358030Y-110183271D01*
X159412575Y-110160678D01*
X159470480Y-110149160D01*
X159529520Y-110149160D01*
X159587425Y-110160678D01*
X159587425Y-110160678D01*
G37*
G36*
X155298840Y-110600010D02*
X154501280Y-110600010D01*
X154501280Y-109901510D01*
X155298840Y-109901510D01*
X155298840Y-110600010D01*
X155298840Y-110600010D01*
G37*
G36*
X163096640Y-110600010D02*
X162299080Y-110600010D01*
X162299080Y-109901510D01*
X163096640Y-109901510D01*
X163096640Y-110600010D01*
X163096640Y-110600010D01*
G37*
G36*
X157187125Y-108961798D02*
X157241670Y-108984391D01*
X157290763Y-109017194D01*
X157332506Y-109058937D01*
X157365309Y-109108030D01*
X157387902Y-109162575D01*
X157399420Y-109220481D01*
X157399420Y-109279519D01*
X157387902Y-109337425D01*
X157365309Y-109391970D01*
X157332506Y-109441063D01*
X157290763Y-109482806D01*
X157241670Y-109515609D01*
X157187125Y-109538202D01*
X157129220Y-109549720D01*
X157070180Y-109549720D01*
X157012275Y-109538202D01*
X156957730Y-109515609D01*
X156908637Y-109482806D01*
X156866894Y-109441063D01*
X156834091Y-109391970D01*
X156811498Y-109337425D01*
X156799980Y-109279519D01*
X156799980Y-109220481D01*
X156811498Y-109162575D01*
X156834091Y-109108030D01*
X156866894Y-109058937D01*
X156908637Y-109017194D01*
X156957730Y-108984391D01*
X157012275Y-108961798D01*
X157070180Y-108950280D01*
X157129220Y-108950280D01*
X157187125Y-108961798D01*
X157187125Y-108961798D01*
G37*
G36*
X158386005Y-108961798D02*
X158440550Y-108984391D01*
X158489643Y-109017194D01*
X158531386Y-109058937D01*
X158564189Y-109108030D01*
X158586782Y-109162575D01*
X158598300Y-109220481D01*
X158598300Y-109279519D01*
X158586782Y-109337425D01*
X158564189Y-109391970D01*
X158531386Y-109441063D01*
X158489643Y-109482806D01*
X158440550Y-109515609D01*
X158386005Y-109538202D01*
X158328100Y-109549720D01*
X158269060Y-109549720D01*
X158211155Y-109538202D01*
X158156610Y-109515609D01*
X158107517Y-109482806D01*
X158065774Y-109441063D01*
X158032971Y-109391970D01*
X158010378Y-109337425D01*
X157998860Y-109279519D01*
X157998860Y-109220481D01*
X158010378Y-109162575D01*
X158032971Y-109108030D01*
X158065774Y-109058937D01*
X158107517Y-109017194D01*
X158156610Y-108984391D01*
X158211155Y-108961798D01*
X158269060Y-108950280D01*
X158328100Y-108950280D01*
X158386005Y-108961798D01*
X158386005Y-108961798D01*
G37*
G36*
X159587425Y-108961798D02*
X159641970Y-108984391D01*
X159691063Y-109017194D01*
X159732806Y-109058937D01*
X159765609Y-109108030D01*
X159788202Y-109162575D01*
X159799720Y-109220481D01*
X159799720Y-109279519D01*
X159788202Y-109337425D01*
X159765609Y-109391970D01*
X159732806Y-109441063D01*
X159691063Y-109482806D01*
X159641970Y-109515609D01*
X159587425Y-109538202D01*
X159529520Y-109549720D01*
X159470480Y-109549720D01*
X159412575Y-109538202D01*
X159358030Y-109515609D01*
X159308937Y-109482806D01*
X159267194Y-109441063D01*
X159234391Y-109391970D01*
X159211798Y-109337425D01*
X159200280Y-109279519D01*
X159200280Y-109220481D01*
X159211798Y-109162575D01*
X159234391Y-109108030D01*
X159267194Y-109058937D01*
X159308937Y-109017194D01*
X159358030Y-108984391D01*
X159412575Y-108961798D01*
X159470480Y-108950280D01*
X159529520Y-108950280D01*
X159587425Y-108961798D01*
X159587425Y-108961798D01*
G37*
G36*
X160786305Y-108961798D02*
X160840850Y-108984391D01*
X160889943Y-109017194D01*
X160931686Y-109058937D01*
X160964489Y-109108030D01*
X160987082Y-109162575D01*
X160998600Y-109220481D01*
X160998600Y-109279519D01*
X160987082Y-109337425D01*
X160964489Y-109391970D01*
X160931686Y-109441063D01*
X160889943Y-109482806D01*
X160840850Y-109515609D01*
X160786305Y-109538202D01*
X160728400Y-109549720D01*
X160669360Y-109549720D01*
X160611455Y-109538202D01*
X160556910Y-109515609D01*
X160507817Y-109482806D01*
X160466074Y-109441063D01*
X160433271Y-109391970D01*
X160410678Y-109337425D01*
X160399160Y-109279519D01*
X160399160Y-109220481D01*
X160410678Y-109162575D01*
X160433271Y-109108030D01*
X160466074Y-109058937D01*
X160507817Y-109017194D01*
X160556910Y-108984391D01*
X160611455Y-108961798D01*
X160669360Y-108950280D01*
X160728400Y-108950280D01*
X160786305Y-108961798D01*
X160786305Y-108961798D01*
G37*
G36*
X155298840Y-109500190D02*
X154501280Y-109500190D01*
X154501280Y-108801690D01*
X155298840Y-108801690D01*
X155298840Y-109500190D01*
X155298840Y-109500190D01*
G37*
G36*
X163096640Y-109500190D02*
X162299080Y-109500190D01*
X162299080Y-108801690D01*
X163096640Y-108801690D01*
X163096640Y-109500190D01*
X163096640Y-109500190D01*
G37*
G36*
X155298840Y-108400370D02*
X154501280Y-108400370D01*
X154501280Y-107701870D01*
X155298840Y-107701870D01*
X155298840Y-108400370D01*
X155298840Y-108400370D01*
G37*
G36*
X163096640Y-108400370D02*
X162299080Y-108400370D01*
X162299080Y-107701870D01*
X163096640Y-107701870D01*
X163096640Y-108400370D01*
X163096640Y-108400370D01*
G37*
G36*
X158386005Y-107760378D02*
X158440550Y-107782971D01*
X158489643Y-107815774D01*
X158531386Y-107857517D01*
X158564189Y-107906610D01*
X158586782Y-107961155D01*
X158598300Y-108019061D01*
X158598300Y-108078099D01*
X158586782Y-108136005D01*
X158564189Y-108190550D01*
X158531386Y-108239643D01*
X158489643Y-108281386D01*
X158440550Y-108314189D01*
X158386005Y-108336782D01*
X158328100Y-108348300D01*
X158269060Y-108348300D01*
X158211155Y-108336782D01*
X158156610Y-108314189D01*
X158107517Y-108281386D01*
X158065774Y-108239643D01*
X158032971Y-108190550D01*
X158010378Y-108136005D01*
X157998860Y-108078099D01*
X157998860Y-108019061D01*
X158010378Y-107961155D01*
X158032971Y-107906610D01*
X158065774Y-107857517D01*
X158107517Y-107815774D01*
X158156610Y-107782971D01*
X158211155Y-107760378D01*
X158269060Y-107748860D01*
X158328100Y-107748860D01*
X158386005Y-107760378D01*
X158386005Y-107760378D01*
G37*
G36*
X157187125Y-107760378D02*
X157241670Y-107782971D01*
X157290763Y-107815774D01*
X157332506Y-107857517D01*
X157365309Y-107906610D01*
X157387902Y-107961155D01*
X157399420Y-108019061D01*
X157399420Y-108078099D01*
X157387902Y-108136005D01*
X157365309Y-108190550D01*
X157332506Y-108239643D01*
X157290763Y-108281386D01*
X157241670Y-108314189D01*
X157187125Y-108336782D01*
X157129220Y-108348300D01*
X157070180Y-108348300D01*
X157012275Y-108336782D01*
X156957730Y-108314189D01*
X156908637Y-108281386D01*
X156866894Y-108239643D01*
X156834091Y-108190550D01*
X156811498Y-108136005D01*
X156799980Y-108078099D01*
X156799980Y-108019061D01*
X156811498Y-107961155D01*
X156834091Y-107906610D01*
X156866894Y-107857517D01*
X156908637Y-107815774D01*
X156957730Y-107782971D01*
X157012275Y-107760378D01*
X157070180Y-107748860D01*
X157129220Y-107748860D01*
X157187125Y-107760378D01*
X157187125Y-107760378D01*
G37*
G36*
X159587425Y-107760378D02*
X159641970Y-107782971D01*
X159691063Y-107815774D01*
X159732806Y-107857517D01*
X159765609Y-107906610D01*
X159788202Y-107961155D01*
X159799720Y-108019061D01*
X159799720Y-108078099D01*
X159788202Y-108136005D01*
X159765609Y-108190550D01*
X159732806Y-108239643D01*
X159691063Y-108281386D01*
X159641970Y-108314189D01*
X159587425Y-108336782D01*
X159529520Y-108348300D01*
X159470480Y-108348300D01*
X159412575Y-108336782D01*
X159358030Y-108314189D01*
X159308937Y-108281386D01*
X159267194Y-108239643D01*
X159234391Y-108190550D01*
X159211798Y-108136005D01*
X159200280Y-108078099D01*
X159200280Y-108019061D01*
X159211798Y-107961155D01*
X159234391Y-107906610D01*
X159267194Y-107857517D01*
X159308937Y-107815774D01*
X159358030Y-107782971D01*
X159412575Y-107760378D01*
X159470480Y-107748860D01*
X159529520Y-107748860D01*
X159587425Y-107760378D01*
X159587425Y-107760378D01*
G37*
G36*
X160786305Y-107760378D02*
X160840850Y-107782971D01*
X160889943Y-107815774D01*
X160931686Y-107857517D01*
X160964489Y-107906610D01*
X160987082Y-107961155D01*
X160998600Y-108019061D01*
X160998600Y-108078099D01*
X160987082Y-108136005D01*
X160964489Y-108190550D01*
X160931686Y-108239643D01*
X160889943Y-108281386D01*
X160840850Y-108314189D01*
X160786305Y-108336782D01*
X160728400Y-108348300D01*
X160669360Y-108348300D01*
X160611455Y-108336782D01*
X160556910Y-108314189D01*
X160507817Y-108281386D01*
X160466074Y-108239643D01*
X160433271Y-108190550D01*
X160410678Y-108136005D01*
X160399160Y-108078099D01*
X160399160Y-108019061D01*
X160410678Y-107961155D01*
X160433271Y-107906610D01*
X160466074Y-107857517D01*
X160507817Y-107815774D01*
X160556910Y-107782971D01*
X160611455Y-107760378D01*
X160669360Y-107748860D01*
X160728400Y-107748860D01*
X160786305Y-107760378D01*
X160786305Y-107760378D01*
G37*
G36*
X155298840Y-107300550D02*
X154501280Y-107300550D01*
X154501280Y-106602050D01*
X155298840Y-106602050D01*
X155298840Y-107300550D01*
X155298840Y-107300550D01*
G37*
G36*
X163096640Y-107300550D02*
X162299080Y-107300550D01*
X162299080Y-106602050D01*
X163096640Y-106602050D01*
X163096640Y-107300550D01*
X163096640Y-107300550D01*
G37*
G36*
X121529024Y-106218955D02*
X121561736Y-106228879D01*
X121591890Y-106244997D01*
X121618316Y-106266684D01*
X121640003Y-106293110D01*
X121656121Y-106323264D01*
X121666045Y-106355976D01*
X121670000Y-106396138D01*
X121670000Y-106983862D01*
X121666045Y-107024024D01*
X121656121Y-107056736D01*
X121640003Y-107086890D01*
X121618316Y-107113316D01*
X121591890Y-107135003D01*
X121561736Y-107151121D01*
X121529024Y-107161045D01*
X121488862Y-107165000D01*
X120801138Y-107165000D01*
X120760976Y-107161045D01*
X120728264Y-107151121D01*
X120698110Y-107135003D01*
X120671684Y-107113316D01*
X120649997Y-107086890D01*
X120633879Y-107056736D01*
X120623955Y-107024024D01*
X120620000Y-106983862D01*
X120620000Y-106396138D01*
X120623955Y-106355976D01*
X120633879Y-106323264D01*
X120649997Y-106293110D01*
X120671684Y-106266684D01*
X120698110Y-106244997D01*
X120728264Y-106228879D01*
X120760976Y-106218955D01*
X120801138Y-106215000D01*
X121488862Y-106215000D01*
X121529024Y-106218955D01*
X121529024Y-106218955D01*
G37*
G36*
X123279024Y-106218955D02*
X123311736Y-106228879D01*
X123341890Y-106244997D01*
X123368316Y-106266684D01*
X123390003Y-106293110D01*
X123406121Y-106323264D01*
X123416045Y-106355976D01*
X123420000Y-106396138D01*
X123420000Y-106983862D01*
X123416045Y-107024024D01*
X123406121Y-107056736D01*
X123390003Y-107086890D01*
X123368316Y-107113316D01*
X123341890Y-107135003D01*
X123311736Y-107151121D01*
X123279024Y-107161045D01*
X123238862Y-107165000D01*
X122551138Y-107165000D01*
X122510976Y-107161045D01*
X122478264Y-107151121D01*
X122448110Y-107135003D01*
X122421684Y-107113316D01*
X122399997Y-107086890D01*
X122383879Y-107056736D01*
X122373955Y-107024024D01*
X122370000Y-106983862D01*
X122370000Y-106396138D01*
X122373955Y-106355976D01*
X122383879Y-106323264D01*
X122399997Y-106293110D01*
X122421684Y-106266684D01*
X122448110Y-106244997D01*
X122478264Y-106228879D01*
X122510976Y-106218955D01*
X122551138Y-106215000D01*
X123238862Y-106215000D01*
X123279024Y-106218955D01*
X123279024Y-106218955D01*
G37*
G36*
X158386005Y-106561498D02*
X158440550Y-106584091D01*
X158489643Y-106616894D01*
X158531386Y-106658637D01*
X158564189Y-106707730D01*
X158586782Y-106762275D01*
X158598300Y-106820180D01*
X158598300Y-106879220D01*
X158586782Y-106937125D01*
X158564189Y-106991670D01*
X158531386Y-107040763D01*
X158489643Y-107082506D01*
X158440550Y-107115309D01*
X158417216Y-107124974D01*
X158386005Y-107137902D01*
X158328100Y-107149420D01*
X158269060Y-107149420D01*
X158211155Y-107137902D01*
X158179944Y-107124974D01*
X158156610Y-107115309D01*
X158107517Y-107082506D01*
X158065774Y-107040763D01*
X158032971Y-106991670D01*
X158010378Y-106937125D01*
X157998860Y-106879220D01*
X157998860Y-106820180D01*
X158010378Y-106762275D01*
X158032971Y-106707730D01*
X158065774Y-106658637D01*
X158107517Y-106616894D01*
X158156610Y-106584091D01*
X158211155Y-106561498D01*
X158269060Y-106549980D01*
X158328100Y-106549980D01*
X158386005Y-106561498D01*
X158386005Y-106561498D01*
G37*
G36*
X157187125Y-106561498D02*
X157241670Y-106584091D01*
X157290763Y-106616894D01*
X157332506Y-106658637D01*
X157365309Y-106707730D01*
X157387902Y-106762275D01*
X157399420Y-106820180D01*
X157399420Y-106879220D01*
X157387902Y-106937125D01*
X157365309Y-106991670D01*
X157332506Y-107040763D01*
X157290763Y-107082506D01*
X157241670Y-107115309D01*
X157218336Y-107124974D01*
X157187125Y-107137902D01*
X157129220Y-107149420D01*
X157070180Y-107149420D01*
X157012275Y-107137902D01*
X156981064Y-107124974D01*
X156957730Y-107115309D01*
X156908637Y-107082506D01*
X156866894Y-107040763D01*
X156834091Y-106991670D01*
X156811498Y-106937125D01*
X156799980Y-106879220D01*
X156799980Y-106820180D01*
X156811498Y-106762275D01*
X156834091Y-106707730D01*
X156866894Y-106658637D01*
X156908637Y-106616894D01*
X156957730Y-106584091D01*
X157012275Y-106561498D01*
X157070180Y-106549980D01*
X157129220Y-106549980D01*
X157187125Y-106561498D01*
X157187125Y-106561498D01*
G37*
G36*
X160786305Y-106561498D02*
X160840850Y-106584091D01*
X160889943Y-106616894D01*
X160931686Y-106658637D01*
X160964489Y-106707730D01*
X160987082Y-106762275D01*
X160998600Y-106820180D01*
X160998600Y-106879220D01*
X160987082Y-106937125D01*
X160964489Y-106991670D01*
X160931686Y-107040763D01*
X160889943Y-107082506D01*
X160840850Y-107115309D01*
X160817516Y-107124974D01*
X160786305Y-107137902D01*
X160728400Y-107149420D01*
X160669360Y-107149420D01*
X160611455Y-107137902D01*
X160580244Y-107124974D01*
X160556910Y-107115309D01*
X160507817Y-107082506D01*
X160466074Y-107040763D01*
X160433271Y-106991670D01*
X160410678Y-106937125D01*
X160399160Y-106879220D01*
X160399160Y-106820180D01*
X160410678Y-106762275D01*
X160433271Y-106707730D01*
X160466074Y-106658637D01*
X160507817Y-106616894D01*
X160556910Y-106584091D01*
X160611455Y-106561498D01*
X160669360Y-106549980D01*
X160728400Y-106549980D01*
X160786305Y-106561498D01*
X160786305Y-106561498D01*
G37*
G36*
X159587425Y-106561498D02*
X159641970Y-106584091D01*
X159691063Y-106616894D01*
X159732806Y-106658637D01*
X159765609Y-106707730D01*
X159788202Y-106762275D01*
X159799720Y-106820180D01*
X159799720Y-106879220D01*
X159788202Y-106937125D01*
X159765609Y-106991670D01*
X159732806Y-107040763D01*
X159691063Y-107082506D01*
X159641970Y-107115309D01*
X159618636Y-107124974D01*
X159587425Y-107137902D01*
X159529520Y-107149420D01*
X159470480Y-107149420D01*
X159412575Y-107137902D01*
X159381364Y-107124974D01*
X159358030Y-107115309D01*
X159308937Y-107082506D01*
X159267194Y-107040763D01*
X159234391Y-106991670D01*
X159211798Y-106937125D01*
X159200280Y-106879220D01*
X159200280Y-106820180D01*
X159211798Y-106762275D01*
X159234391Y-106707730D01*
X159267194Y-106658637D01*
X159308937Y-106616894D01*
X159358030Y-106584091D01*
X159412575Y-106561498D01*
X159470480Y-106549980D01*
X159529520Y-106549980D01*
X159587425Y-106561498D01*
X159587425Y-106561498D01*
G37*
G36*
X124794024Y-104473955D02*
X124826736Y-104483879D01*
X124856890Y-104499997D01*
X124883316Y-104521684D01*
X124905003Y-104548110D01*
X124921121Y-104578264D01*
X124931045Y-104610976D01*
X124935000Y-104651138D01*
X124935000Y-105338862D01*
X124931045Y-105379024D01*
X124921121Y-105411736D01*
X124905003Y-105441890D01*
X124883316Y-105468316D01*
X124856890Y-105490003D01*
X124826736Y-105506121D01*
X124794024Y-105516045D01*
X124753862Y-105520000D01*
X124166138Y-105520000D01*
X124125976Y-105516045D01*
X124093264Y-105506121D01*
X124063110Y-105490003D01*
X124036684Y-105468316D01*
X124014997Y-105441890D01*
X123998879Y-105411736D01*
X123988955Y-105379024D01*
X123985000Y-105338862D01*
X123985000Y-104651138D01*
X123988955Y-104610976D01*
X123998879Y-104578264D01*
X124014997Y-104548110D01*
X124036684Y-104521684D01*
X124063110Y-104499997D01*
X124093264Y-104483879D01*
X124125976Y-104473955D01*
X124166138Y-104470000D01*
X124753862Y-104470000D01*
X124794024Y-104473955D01*
X124794024Y-104473955D01*
G37*
G36*
X140245428Y-103670110D02*
X140278140Y-103680034D01*
X140308294Y-103696152D01*
X140334720Y-103717839D01*
X140356407Y-103744265D01*
X140372525Y-103774419D01*
X140382449Y-103807131D01*
X140386404Y-103847293D01*
X140386404Y-104535017D01*
X140382449Y-104575179D01*
X140372525Y-104607891D01*
X140356407Y-104638045D01*
X140334720Y-104664471D01*
X140308294Y-104686158D01*
X140278140Y-104702276D01*
X140245428Y-104712200D01*
X140205266Y-104716155D01*
X139617542Y-104716155D01*
X139577380Y-104712200D01*
X139544668Y-104702276D01*
X139514514Y-104686158D01*
X139488088Y-104664471D01*
X139466401Y-104638045D01*
X139450283Y-104607891D01*
X139440359Y-104575179D01*
X139436404Y-104535017D01*
X139436404Y-103847293D01*
X139440359Y-103807131D01*
X139450283Y-103774419D01*
X139466401Y-103744265D01*
X139488088Y-103717839D01*
X139514514Y-103696152D01*
X139544668Y-103680034D01*
X139577380Y-103670110D01*
X139617542Y-103666155D01*
X140205266Y-103666155D01*
X140245428Y-103670110D01*
X140245428Y-103670110D01*
G37*
G36*
X132295428Y-102970110D02*
X132328140Y-102980034D01*
X132358294Y-102996152D01*
X132384720Y-103017839D01*
X132406407Y-103044265D01*
X132422525Y-103074419D01*
X132432449Y-103107131D01*
X132436404Y-103147293D01*
X132436404Y-103735017D01*
X132432449Y-103775179D01*
X132422525Y-103807891D01*
X132406407Y-103838045D01*
X132384720Y-103864471D01*
X132358294Y-103886158D01*
X132328140Y-103902276D01*
X132295428Y-103912200D01*
X132255266Y-103916155D01*
X131567542Y-103916155D01*
X131527380Y-103912200D01*
X131494668Y-103902276D01*
X131464514Y-103886158D01*
X131438088Y-103864471D01*
X131416401Y-103838045D01*
X131400283Y-103807891D01*
X131390359Y-103775179D01*
X131386404Y-103735017D01*
X131386404Y-103147293D01*
X131390359Y-103107131D01*
X131400283Y-103074419D01*
X131416401Y-103044265D01*
X131438088Y-103017839D01*
X131464514Y-102996152D01*
X131494668Y-102980034D01*
X131527380Y-102970110D01*
X131567542Y-102966155D01*
X132255266Y-102966155D01*
X132295428Y-102970110D01*
X132295428Y-102970110D01*
G37*
G36*
X130545428Y-102970110D02*
X130578140Y-102980034D01*
X130608294Y-102996152D01*
X130634720Y-103017839D01*
X130656407Y-103044265D01*
X130672525Y-103074419D01*
X130682449Y-103107131D01*
X130686404Y-103147293D01*
X130686404Y-103735017D01*
X130682449Y-103775179D01*
X130672525Y-103807891D01*
X130656407Y-103838045D01*
X130634720Y-103864471D01*
X130608294Y-103886158D01*
X130578140Y-103902276D01*
X130545428Y-103912200D01*
X130505266Y-103916155D01*
X129817542Y-103916155D01*
X129777380Y-103912200D01*
X129744668Y-103902276D01*
X129714514Y-103886158D01*
X129688088Y-103864471D01*
X129666401Y-103838045D01*
X129650283Y-103807891D01*
X129640359Y-103775179D01*
X129636404Y-103735017D01*
X129636404Y-103147293D01*
X129640359Y-103107131D01*
X129650283Y-103074419D01*
X129666401Y-103044265D01*
X129688088Y-103017839D01*
X129714514Y-102996152D01*
X129744668Y-102980034D01*
X129777380Y-102970110D01*
X129817542Y-102966155D01*
X130505266Y-102966155D01*
X130545428Y-102970110D01*
X130545428Y-102970110D01*
G37*
G36*
X124794024Y-102723955D02*
X124826736Y-102733879D01*
X124856890Y-102749997D01*
X124883316Y-102771684D01*
X124905003Y-102798110D01*
X124921121Y-102828264D01*
X124931045Y-102860976D01*
X124935000Y-102901138D01*
X124935000Y-103588862D01*
X124931045Y-103629023D01*
X124921121Y-103661736D01*
X124905003Y-103691890D01*
X124883316Y-103718316D01*
X124856890Y-103740003D01*
X124826736Y-103756121D01*
X124794024Y-103766045D01*
X124753862Y-103770000D01*
X124166138Y-103770000D01*
X124125976Y-103766045D01*
X124093264Y-103756121D01*
X124063110Y-103740003D01*
X124036684Y-103718316D01*
X124014997Y-103691890D01*
X123998879Y-103661736D01*
X123988955Y-103629023D01*
X123985000Y-103588862D01*
X123985000Y-102901138D01*
X123988955Y-102860976D01*
X123998879Y-102828264D01*
X124014997Y-102798110D01*
X124036684Y-102771684D01*
X124063110Y-102749997D01*
X124093264Y-102733879D01*
X124125976Y-102723955D01*
X124166138Y-102720000D01*
X124753862Y-102720000D01*
X124794024Y-102723955D01*
X124794024Y-102723955D01*
G37*
G36*
X138718104Y-103584155D02*
X137219504Y-103584155D01*
X137219504Y-101298155D01*
X138718104Y-101298155D01*
X138718104Y-103584155D01*
X138718104Y-103584155D01*
G37*
G36*
X134603304Y-103584155D02*
X133104704Y-103584155D01*
X133104704Y-101298155D01*
X134603304Y-101298155D01*
X134603304Y-103584155D01*
X134603304Y-103584155D01*
G37*
G36*
X140245428Y-101920110D02*
X140278140Y-101930034D01*
X140308294Y-101946152D01*
X140334720Y-101967839D01*
X140356407Y-101994265D01*
X140372525Y-102024419D01*
X140382449Y-102057131D01*
X140386404Y-102097293D01*
X140386404Y-102785017D01*
X140382449Y-102825179D01*
X140372525Y-102857891D01*
X140356407Y-102888045D01*
X140334720Y-102914471D01*
X140308294Y-102936158D01*
X140278140Y-102952276D01*
X140245428Y-102962200D01*
X140205266Y-102966155D01*
X139617542Y-102966155D01*
X139577380Y-102962200D01*
X139544668Y-102952276D01*
X139514514Y-102936158D01*
X139488088Y-102914471D01*
X139466401Y-102888045D01*
X139450283Y-102857891D01*
X139440359Y-102825179D01*
X139436404Y-102785017D01*
X139436404Y-102097293D01*
X139440359Y-102057131D01*
X139450283Y-102024419D01*
X139466401Y-101994265D01*
X139488088Y-101967839D01*
X139514514Y-101946152D01*
X139544668Y-101930034D01*
X139577380Y-101920110D01*
X139617542Y-101916155D01*
X140205266Y-101916155D01*
X140245428Y-101920110D01*
X140245428Y-101920110D01*
G37*
G36*
X144374024Y-101288955D02*
X144406736Y-101298879D01*
X144436890Y-101314997D01*
X144463316Y-101336684D01*
X144485003Y-101363110D01*
X144501121Y-101393264D01*
X144511045Y-101425976D01*
X144515000Y-101466138D01*
X144515000Y-102153862D01*
X144511045Y-102194024D01*
X144501121Y-102226736D01*
X144485003Y-102256890D01*
X144463316Y-102283316D01*
X144436890Y-102305003D01*
X144406736Y-102321121D01*
X144374024Y-102331045D01*
X144333862Y-102335000D01*
X143746138Y-102335000D01*
X143705976Y-102331045D01*
X143673264Y-102321121D01*
X143643110Y-102305003D01*
X143616684Y-102283316D01*
X143594997Y-102256890D01*
X143578879Y-102226736D01*
X143568955Y-102194024D01*
X143565000Y-102153862D01*
X143565000Y-101466138D01*
X143568955Y-101425976D01*
X143578879Y-101393264D01*
X143594997Y-101363110D01*
X143616684Y-101336684D01*
X143643110Y-101314997D01*
X143673264Y-101298879D01*
X143705976Y-101288955D01*
X143746138Y-101285000D01*
X144333862Y-101285000D01*
X144374024Y-101288955D01*
X144374024Y-101288955D01*
G37*
G36*
X132295428Y-100970110D02*
X132328140Y-100980034D01*
X132358294Y-100996152D01*
X132384720Y-101017839D01*
X132406407Y-101044265D01*
X132422525Y-101074419D01*
X132432449Y-101107131D01*
X132436404Y-101147293D01*
X132436404Y-101735017D01*
X132432449Y-101775179D01*
X132422525Y-101807891D01*
X132406407Y-101838045D01*
X132384720Y-101864471D01*
X132358294Y-101886158D01*
X132328140Y-101902276D01*
X132295428Y-101912200D01*
X132255266Y-101916155D01*
X131567542Y-101916155D01*
X131527380Y-101912200D01*
X131494668Y-101902276D01*
X131464514Y-101886158D01*
X131438088Y-101864471D01*
X131416401Y-101838045D01*
X131400283Y-101807891D01*
X131390359Y-101775179D01*
X131386404Y-101735017D01*
X131386404Y-101147293D01*
X131390359Y-101107131D01*
X131400283Y-101074419D01*
X131416401Y-101044265D01*
X131438088Y-101017839D01*
X131464514Y-100996152D01*
X131494668Y-100980034D01*
X131527380Y-100970110D01*
X131567542Y-100966155D01*
X132255266Y-100966155D01*
X132295428Y-100970110D01*
X132295428Y-100970110D01*
G37*
G36*
X130545428Y-100970110D02*
X130578140Y-100980034D01*
X130608294Y-100996152D01*
X130634720Y-101017839D01*
X130656407Y-101044265D01*
X130672525Y-101074419D01*
X130682449Y-101107131D01*
X130686404Y-101147293D01*
X130686404Y-101735017D01*
X130682449Y-101775179D01*
X130672525Y-101807891D01*
X130656407Y-101838045D01*
X130634720Y-101864471D01*
X130608294Y-101886158D01*
X130578140Y-101902276D01*
X130545428Y-101912200D01*
X130505266Y-101916155D01*
X129817542Y-101916155D01*
X129777380Y-101912200D01*
X129744668Y-101902276D01*
X129714514Y-101886158D01*
X129688088Y-101864471D01*
X129666401Y-101838045D01*
X129650283Y-101807891D01*
X129640359Y-101775179D01*
X129636404Y-101735017D01*
X129636404Y-101147293D01*
X129640359Y-101107131D01*
X129650283Y-101074419D01*
X129666401Y-101044265D01*
X129688088Y-101017839D01*
X129714514Y-100996152D01*
X129744668Y-100980034D01*
X129777380Y-100970110D01*
X129817542Y-100966155D01*
X130505266Y-100966155D01*
X130545428Y-100970110D01*
X130545428Y-100970110D01*
G37*
G36*
X146876100Y-101651700D02*
X145415600Y-101651700D01*
X145415600Y-101118300D01*
X146876100Y-101118300D01*
X146876100Y-101651700D01*
X146876100Y-101651700D01*
G37*
G36*
X152324400Y-101651700D02*
X150863900Y-101651700D01*
X150863900Y-101118300D01*
X152324400Y-101118300D01*
X152324400Y-101651700D01*
X152324400Y-101651700D01*
G37*
G36*
X160054024Y-100488955D02*
X160086736Y-100498879D01*
X160116890Y-100514997D01*
X160143316Y-100536684D01*
X160165003Y-100563110D01*
X160181121Y-100593264D01*
X160191045Y-100625976D01*
X160195000Y-100666138D01*
X160195000Y-101353862D01*
X160191045Y-101394024D01*
X160181121Y-101426736D01*
X160165003Y-101456890D01*
X160143316Y-101483316D01*
X160116890Y-101505003D01*
X160086736Y-101521121D01*
X160054024Y-101531045D01*
X160013862Y-101535000D01*
X159426138Y-101535000D01*
X159385976Y-101531045D01*
X159353264Y-101521121D01*
X159323110Y-101505003D01*
X159296684Y-101483316D01*
X159274997Y-101456890D01*
X159258879Y-101426736D01*
X159248955Y-101394024D01*
X159245000Y-101353862D01*
X159245000Y-100666138D01*
X159248955Y-100625976D01*
X159258879Y-100593264D01*
X159274997Y-100563110D01*
X159296684Y-100536684D01*
X159323110Y-100514997D01*
X159353264Y-100498879D01*
X159385976Y-100488955D01*
X159426138Y-100485000D01*
X160013862Y-100485000D01*
X160054024Y-100488955D01*
X160054024Y-100488955D01*
G37*
G36*
X158254024Y-100478955D02*
X158286736Y-100488879D01*
X158316890Y-100504997D01*
X158343316Y-100526684D01*
X158365003Y-100553110D01*
X158381121Y-100583264D01*
X158391045Y-100615976D01*
X158395000Y-100656138D01*
X158395000Y-101343862D01*
X158391045Y-101384024D01*
X158381121Y-101416736D01*
X158365003Y-101446890D01*
X158343316Y-101473316D01*
X158316890Y-101495003D01*
X158286736Y-101511121D01*
X158254024Y-101521045D01*
X158213862Y-101525000D01*
X157626138Y-101525000D01*
X157585976Y-101521045D01*
X157553264Y-101511121D01*
X157523110Y-101495003D01*
X157496684Y-101473316D01*
X157474997Y-101446890D01*
X157458879Y-101416736D01*
X157448955Y-101384024D01*
X157445000Y-101343862D01*
X157445000Y-100656138D01*
X157448955Y-100615976D01*
X157458879Y-100583264D01*
X157474997Y-100553110D01*
X157496684Y-100526684D01*
X157523110Y-100504997D01*
X157553264Y-100488879D01*
X157585976Y-100478955D01*
X157626138Y-100475000D01*
X158213862Y-100475000D01*
X158254024Y-100478955D01*
X158254024Y-100478955D01*
G37*
G36*
X150076500Y-101029400D02*
X147663500Y-101029400D01*
X147663500Y-97930600D01*
X150076500Y-97930600D01*
X150076500Y-101029400D01*
X150076500Y-101029400D01*
G37*
G36*
X124850000Y-100700000D02*
X124050000Y-100700000D01*
X124050000Y-99800000D01*
X124850000Y-99800000D01*
X124850000Y-100700000D01*
X124850000Y-100700000D01*
G37*
G36*
X122950000Y-100700000D02*
X122150000Y-100700000D01*
X122150000Y-99800000D01*
X122950000Y-99800000D01*
X122950000Y-100700000D01*
X122950000Y-100700000D01*
G37*
G36*
X144374024Y-99538955D02*
X144406736Y-99548879D01*
X144436890Y-99564997D01*
X144463316Y-99586684D01*
X144485003Y-99613110D01*
X144501121Y-99643264D01*
X144511045Y-99675976D01*
X144515000Y-99716138D01*
X144515000Y-100403862D01*
X144511045Y-100444024D01*
X144501121Y-100476736D01*
X144485003Y-100506890D01*
X144463316Y-100533316D01*
X144436890Y-100555003D01*
X144406736Y-100571121D01*
X144374024Y-100581045D01*
X144333862Y-100585000D01*
X143746138Y-100585000D01*
X143705976Y-100581045D01*
X143673264Y-100571121D01*
X143643110Y-100555003D01*
X143616684Y-100533316D01*
X143594997Y-100506890D01*
X143578879Y-100476736D01*
X143568955Y-100444024D01*
X143565000Y-100403862D01*
X143565000Y-99716138D01*
X143568955Y-99675976D01*
X143578879Y-99643264D01*
X143594997Y-99613110D01*
X143616684Y-99586684D01*
X143643110Y-99564997D01*
X143673264Y-99548879D01*
X143705976Y-99538955D01*
X143746138Y-99535000D01*
X144333862Y-99535000D01*
X144374024Y-99538955D01*
X144374024Y-99538955D01*
G37*
G36*
X146876100Y-100381700D02*
X145415600Y-100381700D01*
X145415600Y-99848300D01*
X146876100Y-99848300D01*
X146876100Y-100381700D01*
X146876100Y-100381700D01*
G37*
G36*
X152324400Y-100381700D02*
X150863900Y-100381700D01*
X150863900Y-99848300D01*
X152324400Y-99848300D01*
X152324400Y-100381700D01*
X152324400Y-100381700D01*
G37*
G36*
X137170428Y-98970110D02*
X137203140Y-98980034D01*
X137233294Y-98996152D01*
X137259720Y-99017839D01*
X137281407Y-99044265D01*
X137297525Y-99074419D01*
X137307449Y-99107131D01*
X137311404Y-99147293D01*
X137311404Y-99735017D01*
X137307449Y-99775179D01*
X137297525Y-99807891D01*
X137281407Y-99838045D01*
X137259720Y-99864471D01*
X137233294Y-99886158D01*
X137203140Y-99902276D01*
X137170428Y-99912200D01*
X137130266Y-99916155D01*
X136442542Y-99916155D01*
X136402380Y-99912200D01*
X136369668Y-99902276D01*
X136339514Y-99886158D01*
X136313088Y-99864471D01*
X136291401Y-99838045D01*
X136275283Y-99807891D01*
X136265359Y-99775179D01*
X136261404Y-99735017D01*
X136261404Y-99147293D01*
X136265359Y-99107131D01*
X136275283Y-99074419D01*
X136291401Y-99044265D01*
X136313088Y-99017839D01*
X136339514Y-98996152D01*
X136369668Y-98980034D01*
X136402380Y-98970110D01*
X136442542Y-98966155D01*
X137130266Y-98966155D01*
X137170428Y-98970110D01*
X137170428Y-98970110D01*
G37*
G36*
X135420428Y-98970110D02*
X135453140Y-98980034D01*
X135483294Y-98996152D01*
X135509720Y-99017839D01*
X135531407Y-99044265D01*
X135547525Y-99074419D01*
X135557449Y-99107131D01*
X135561404Y-99147293D01*
X135561404Y-99735017D01*
X135557449Y-99775179D01*
X135547525Y-99807891D01*
X135531407Y-99838045D01*
X135509720Y-99864471D01*
X135483294Y-99886158D01*
X135453140Y-99902276D01*
X135420428Y-99912200D01*
X135380266Y-99916155D01*
X134692542Y-99916155D01*
X134652380Y-99912200D01*
X134619668Y-99902276D01*
X134589514Y-99886158D01*
X134563088Y-99864471D01*
X134541401Y-99838045D01*
X134525283Y-99807891D01*
X134515359Y-99775179D01*
X134511404Y-99735017D01*
X134511404Y-99147293D01*
X134515359Y-99107131D01*
X134525283Y-99074419D01*
X134541401Y-99044265D01*
X134563088Y-99017839D01*
X134589514Y-98996152D01*
X134619668Y-98980034D01*
X134652380Y-98970110D01*
X134692542Y-98966155D01*
X135380266Y-98966155D01*
X135420428Y-98970110D01*
X135420428Y-98970110D01*
G37*
G36*
X160054024Y-98738955D02*
X160086736Y-98748879D01*
X160116890Y-98764997D01*
X160143316Y-98786684D01*
X160165003Y-98813110D01*
X160181121Y-98843264D01*
X160191045Y-98875976D01*
X160195000Y-98916138D01*
X160195000Y-99603862D01*
X160191045Y-99644024D01*
X160181121Y-99676736D01*
X160165003Y-99706890D01*
X160143316Y-99733316D01*
X160116890Y-99755003D01*
X160086736Y-99771121D01*
X160054024Y-99781045D01*
X160013862Y-99785000D01*
X159426138Y-99785000D01*
X159385976Y-99781045D01*
X159353264Y-99771121D01*
X159323110Y-99755003D01*
X159296684Y-99733316D01*
X159274997Y-99706890D01*
X159258879Y-99676736D01*
X159248955Y-99644024D01*
X159245000Y-99603862D01*
X159245000Y-98916138D01*
X159248955Y-98875976D01*
X159258879Y-98843264D01*
X159274997Y-98813110D01*
X159296684Y-98786684D01*
X159323110Y-98764997D01*
X159353264Y-98748879D01*
X159385976Y-98738955D01*
X159426138Y-98735000D01*
X160013862Y-98735000D01*
X160054024Y-98738955D01*
X160054024Y-98738955D01*
G37*
G36*
X158254024Y-98728955D02*
X158286736Y-98738879D01*
X158316890Y-98754997D01*
X158343316Y-98776684D01*
X158365003Y-98803110D01*
X158381121Y-98833264D01*
X158391045Y-98865976D01*
X158395000Y-98906138D01*
X158395000Y-99593862D01*
X158391045Y-99634024D01*
X158381121Y-99666736D01*
X158365003Y-99696890D01*
X158343316Y-99723316D01*
X158316890Y-99745003D01*
X158286736Y-99761121D01*
X158254024Y-99771045D01*
X158213862Y-99775000D01*
X157626138Y-99775000D01*
X157585976Y-99771045D01*
X157553264Y-99761121D01*
X157523110Y-99745003D01*
X157496684Y-99723316D01*
X157474997Y-99696890D01*
X157458879Y-99666736D01*
X157448955Y-99634024D01*
X157445000Y-99593862D01*
X157445000Y-98906138D01*
X157448955Y-98865976D01*
X157458879Y-98833264D01*
X157474997Y-98803110D01*
X157496684Y-98776684D01*
X157523110Y-98754997D01*
X157553264Y-98738879D01*
X157585976Y-98728955D01*
X157626138Y-98725000D01*
X158213862Y-98725000D01*
X158254024Y-98728955D01*
X158254024Y-98728955D01*
G37*
G36*
X156124024Y-98728955D02*
X156156736Y-98738879D01*
X156186890Y-98754997D01*
X156213316Y-98776684D01*
X156235003Y-98803110D01*
X156251121Y-98833264D01*
X156261045Y-98865976D01*
X156265000Y-98906138D01*
X156265000Y-99493862D01*
X156261045Y-99534024D01*
X156251121Y-99566736D01*
X156235003Y-99596890D01*
X156213316Y-99623316D01*
X156186890Y-99645003D01*
X156156736Y-99661121D01*
X156124024Y-99671045D01*
X156083862Y-99675000D01*
X155396138Y-99675000D01*
X155355976Y-99671045D01*
X155323264Y-99661121D01*
X155293110Y-99645003D01*
X155266684Y-99623316D01*
X155244997Y-99596890D01*
X155228879Y-99566736D01*
X155218955Y-99534024D01*
X155215000Y-99493862D01*
X155215000Y-98906138D01*
X155218955Y-98865976D01*
X155228879Y-98833264D01*
X155244997Y-98803110D01*
X155266684Y-98776684D01*
X155293110Y-98754997D01*
X155323264Y-98738879D01*
X155355976Y-98728955D01*
X155396138Y-98725000D01*
X156083862Y-98725000D01*
X156124024Y-98728955D01*
X156124024Y-98728955D01*
G37*
G36*
X154374024Y-98728955D02*
X154406736Y-98738879D01*
X154436890Y-98754997D01*
X154463316Y-98776684D01*
X154485003Y-98803110D01*
X154501121Y-98833264D01*
X154511045Y-98865976D01*
X154515000Y-98906138D01*
X154515000Y-99493862D01*
X154511045Y-99534024D01*
X154501121Y-99566736D01*
X154485003Y-99596890D01*
X154463316Y-99623316D01*
X154436890Y-99645003D01*
X154406736Y-99661121D01*
X154374024Y-99671045D01*
X154333862Y-99675000D01*
X153646138Y-99675000D01*
X153605976Y-99671045D01*
X153573264Y-99661121D01*
X153543110Y-99645003D01*
X153516684Y-99623316D01*
X153494997Y-99596890D01*
X153478879Y-99566736D01*
X153468955Y-99534024D01*
X153465000Y-99493862D01*
X153465000Y-98906138D01*
X153468955Y-98865976D01*
X153478879Y-98833264D01*
X153494997Y-98803110D01*
X153516684Y-98776684D01*
X153543110Y-98754997D01*
X153573264Y-98738879D01*
X153605976Y-98728955D01*
X153646138Y-98725000D01*
X154333862Y-98725000D01*
X154374024Y-98728955D01*
X154374024Y-98728955D01*
G37*
G36*
X152324400Y-99111700D02*
X150863900Y-99111700D01*
X150863900Y-98578300D01*
X152324400Y-98578300D01*
X152324400Y-99111700D01*
X152324400Y-99111700D01*
G37*
G36*
X146876100Y-99111700D02*
X145415600Y-99111700D01*
X145415600Y-98578300D01*
X146876100Y-98578300D01*
X146876100Y-99111700D01*
X146876100Y-99111700D01*
G37*
G36*
X123900000Y-98700000D02*
X123100000Y-98700000D01*
X123100000Y-97800000D01*
X123900000Y-97800000D01*
X123900000Y-98700000D01*
X123900000Y-98700000D01*
G37*
G36*
X156129024Y-97008955D02*
X156161736Y-97018879D01*
X156191890Y-97034997D01*
X156218316Y-97056684D01*
X156240003Y-97083110D01*
X156256121Y-97113264D01*
X156266045Y-97145976D01*
X156270000Y-97186138D01*
X156270000Y-97773862D01*
X156266045Y-97814024D01*
X156256121Y-97846736D01*
X156240003Y-97876890D01*
X156218316Y-97903316D01*
X156191890Y-97925003D01*
X156161736Y-97941121D01*
X156129024Y-97951045D01*
X156088862Y-97955000D01*
X155401138Y-97955000D01*
X155360976Y-97951045D01*
X155328264Y-97941121D01*
X155298110Y-97925003D01*
X155271684Y-97903316D01*
X155249997Y-97876890D01*
X155233879Y-97846736D01*
X155223955Y-97814024D01*
X155220000Y-97773862D01*
X155220000Y-97186138D01*
X155223955Y-97145976D01*
X155233879Y-97113264D01*
X155249997Y-97083110D01*
X155271684Y-97056684D01*
X155298110Y-97034997D01*
X155328264Y-97018879D01*
X155360976Y-97008955D01*
X155401138Y-97005000D01*
X156088862Y-97005000D01*
X156129024Y-97008955D01*
X156129024Y-97008955D01*
G37*
G36*
X154379024Y-97008955D02*
X154411736Y-97018879D01*
X154441890Y-97034997D01*
X154468316Y-97056684D01*
X154490003Y-97083110D01*
X154506121Y-97113264D01*
X154516045Y-97145976D01*
X154520000Y-97186138D01*
X154520000Y-97773862D01*
X154516045Y-97814024D01*
X154506121Y-97846736D01*
X154490003Y-97876890D01*
X154468316Y-97903316D01*
X154441890Y-97925003D01*
X154411736Y-97941121D01*
X154379024Y-97951045D01*
X154338862Y-97955000D01*
X153651138Y-97955000D01*
X153610976Y-97951045D01*
X153578264Y-97941121D01*
X153548110Y-97925003D01*
X153521684Y-97903316D01*
X153499997Y-97876890D01*
X153483879Y-97846736D01*
X153473955Y-97814024D01*
X153470000Y-97773862D01*
X153470000Y-97186138D01*
X153473955Y-97145976D01*
X153483879Y-97113264D01*
X153499997Y-97083110D01*
X153521684Y-97056684D01*
X153548110Y-97034997D01*
X153578264Y-97018879D01*
X153610976Y-97008955D01*
X153651138Y-97005000D01*
X154338862Y-97005000D01*
X154379024Y-97008955D01*
X154379024Y-97008955D01*
G37*
G36*
X152324400Y-97841700D02*
X150863900Y-97841700D01*
X150863900Y-97308300D01*
X152324400Y-97308300D01*
X152324400Y-97841700D01*
X152324400Y-97841700D01*
G37*
G36*
X146876100Y-97841700D02*
X145415600Y-97841700D01*
X145415600Y-97308300D01*
X146876100Y-97308300D01*
X146876100Y-97841700D01*
X146876100Y-97841700D01*
G37*
G36*
X125954024Y-94778955D02*
X125986736Y-94788879D01*
X126016890Y-94804997D01*
X126043316Y-94826684D01*
X126065003Y-94853110D01*
X126081121Y-94883264D01*
X126091045Y-94915976D01*
X126095000Y-94956138D01*
X126095000Y-95543862D01*
X126091045Y-95584024D01*
X126081121Y-95616736D01*
X126065003Y-95646890D01*
X126043316Y-95673316D01*
X126016890Y-95695003D01*
X125986736Y-95711121D01*
X125954024Y-95721045D01*
X125913862Y-95725000D01*
X125226138Y-95725000D01*
X125185976Y-95721045D01*
X125153264Y-95711121D01*
X125123110Y-95695003D01*
X125096684Y-95673316D01*
X125074997Y-95646890D01*
X125058879Y-95616736D01*
X125048955Y-95584024D01*
X125045000Y-95543862D01*
X125045000Y-94956138D01*
X125048955Y-94915976D01*
X125058879Y-94883264D01*
X125074997Y-94853110D01*
X125096684Y-94826684D01*
X125123110Y-94804997D01*
X125153264Y-94788879D01*
X125185976Y-94778955D01*
X125226138Y-94775000D01*
X125913862Y-94775000D01*
X125954024Y-94778955D01*
X125954024Y-94778955D01*
G37*
G36*
X127704024Y-94778955D02*
X127736736Y-94788879D01*
X127766890Y-94804997D01*
X127793316Y-94826684D01*
X127815003Y-94853110D01*
X127831121Y-94883264D01*
X127841045Y-94915976D01*
X127845000Y-94956138D01*
X127845000Y-95543862D01*
X127841045Y-95584024D01*
X127831121Y-95616736D01*
X127815003Y-95646890D01*
X127793316Y-95673316D01*
X127766890Y-95695003D01*
X127736736Y-95711121D01*
X127704024Y-95721045D01*
X127663862Y-95725000D01*
X126976138Y-95725000D01*
X126935976Y-95721045D01*
X126903264Y-95711121D01*
X126873110Y-95695003D01*
X126846684Y-95673316D01*
X126824997Y-95646890D01*
X126808879Y-95616736D01*
X126798955Y-95584024D01*
X126795000Y-95543862D01*
X126795000Y-94956138D01*
X126798955Y-94915976D01*
X126808879Y-94883264D01*
X126824997Y-94853110D01*
X126846684Y-94826684D01*
X126873110Y-94804997D01*
X126903264Y-94788879D01*
X126935976Y-94778955D01*
X126976138Y-94775000D01*
X127663862Y-94775000D01*
X127704024Y-94778955D01*
X127704024Y-94778955D01*
G37*
G36*
X122040000Y-95610000D02*
X120340000Y-95610000D01*
X120340000Y-94710000D01*
X122040000Y-94710000D01*
X122040000Y-95610000D01*
X122040000Y-95610000D01*
G37*
G36*
X127704024Y-92918955D02*
X127736736Y-92928879D01*
X127766890Y-92944997D01*
X127793316Y-92966684D01*
X127815003Y-92993110D01*
X127831121Y-93023264D01*
X127841045Y-93055976D01*
X127845000Y-93096138D01*
X127845000Y-93683862D01*
X127841045Y-93724024D01*
X127831121Y-93756736D01*
X127815003Y-93786890D01*
X127793316Y-93813316D01*
X127766890Y-93835003D01*
X127736736Y-93851121D01*
X127704024Y-93861045D01*
X127663862Y-93865000D01*
X126976138Y-93865000D01*
X126935976Y-93861045D01*
X126903264Y-93851121D01*
X126873110Y-93835003D01*
X126846684Y-93813316D01*
X126824997Y-93786890D01*
X126808879Y-93756736D01*
X126798955Y-93724024D01*
X126795000Y-93683862D01*
X126795000Y-93096138D01*
X126798955Y-93055976D01*
X126808879Y-93023264D01*
X126824997Y-92993110D01*
X126846684Y-92966684D01*
X126873110Y-92944997D01*
X126903264Y-92928879D01*
X126935976Y-92918955D01*
X126976138Y-92915000D01*
X127663862Y-92915000D01*
X127704024Y-92918955D01*
X127704024Y-92918955D01*
G37*
G36*
X125954024Y-92918955D02*
X125986736Y-92928879D01*
X126016890Y-92944997D01*
X126043316Y-92966684D01*
X126065003Y-92993110D01*
X126081121Y-93023264D01*
X126091045Y-93055976D01*
X126095000Y-93096138D01*
X126095000Y-93683862D01*
X126091045Y-93724024D01*
X126081121Y-93756736D01*
X126065003Y-93786890D01*
X126043316Y-93813316D01*
X126016890Y-93835003D01*
X125986736Y-93851121D01*
X125954024Y-93861045D01*
X125913862Y-93865000D01*
X125226138Y-93865000D01*
X125185976Y-93861045D01*
X125153264Y-93851121D01*
X125123110Y-93835003D01*
X125096684Y-93813316D01*
X125074997Y-93786890D01*
X125058879Y-93756736D01*
X125048955Y-93724024D01*
X125045000Y-93683862D01*
X125045000Y-93096138D01*
X125048955Y-93055976D01*
X125058879Y-93023264D01*
X125074997Y-92993110D01*
X125096684Y-92966684D01*
X125123110Y-92944997D01*
X125153264Y-92928879D01*
X125185976Y-92918955D01*
X125226138Y-92915000D01*
X125913862Y-92915000D01*
X125954024Y-92918955D01*
X125954024Y-92918955D01*
G37*
G36*
X156689000Y-88433357D02*
X156691402Y-88457743D01*
X156698515Y-88481192D01*
X156710066Y-88502803D01*
X156725612Y-88521745D01*
X156744554Y-88537291D01*
X156766165Y-88548842D01*
X156789614Y-88555955D01*
X156814000Y-88558357D01*
X156838386Y-88555955D01*
X156861835Y-88548842D01*
X156883446Y-88537291D01*
X156910624Y-88512659D01*
X156962026Y-88450026D01*
X157026740Y-88396916D01*
X157026742Y-88396915D01*
X157026743Y-88396914D01*
X157100573Y-88357451D01*
X157180684Y-88333149D01*
X157243122Y-88327000D01*
X157284878Y-88327000D01*
X157347316Y-88333149D01*
X157427427Y-88357451D01*
X157501257Y-88396914D01*
X157501258Y-88396915D01*
X157501260Y-88396916D01*
X157565974Y-88450026D01*
X157617375Y-88512657D01*
X157619086Y-88514743D01*
X157658549Y-88588573D01*
X157682851Y-88668684D01*
X157691056Y-88752000D01*
X157682851Y-88835316D01*
X157658549Y-88915427D01*
X157619086Y-88989257D01*
X157619084Y-88989260D01*
X157565974Y-89053974D01*
X157501260Y-89107084D01*
X157436383Y-89141761D01*
X157416011Y-89155373D01*
X157398684Y-89172700D01*
X157385070Y-89193075D01*
X157375693Y-89215714D01*
X157370912Y-89239747D01*
X157370912Y-89264251D01*
X157375692Y-89288285D01*
X157385069Y-89310924D01*
X157398683Y-89331299D01*
X157416010Y-89348626D01*
X157436383Y-89362239D01*
X157453608Y-89371446D01*
X157501260Y-89396916D01*
X157565974Y-89450026D01*
X157619086Y-89514743D01*
X157658549Y-89588573D01*
X157682851Y-89668684D01*
X157691056Y-89752000D01*
X157682851Y-89835316D01*
X157658549Y-89915427D01*
X157619086Y-89989257D01*
X157619084Y-89989260D01*
X157565974Y-90053974D01*
X157501260Y-90107084D01*
X157436383Y-90141761D01*
X157416011Y-90155373D01*
X157398684Y-90172700D01*
X157385070Y-90193075D01*
X157375693Y-90215714D01*
X157370912Y-90239747D01*
X157370912Y-90264251D01*
X157375692Y-90288285D01*
X157385069Y-90310924D01*
X157398683Y-90331299D01*
X157416010Y-90348626D01*
X157436383Y-90362239D01*
X157501260Y-90396916D01*
X157565974Y-90450026D01*
X157619086Y-90514743D01*
X157658549Y-90588573D01*
X157682851Y-90668684D01*
X157691056Y-90752000D01*
X157682851Y-90835316D01*
X157658549Y-90915427D01*
X157619086Y-90989257D01*
X157619084Y-90989260D01*
X157565974Y-91053974D01*
X157501260Y-91107084D01*
X157436383Y-91141761D01*
X157416011Y-91155373D01*
X157398684Y-91172700D01*
X157385070Y-91193075D01*
X157375693Y-91215714D01*
X157370912Y-91239747D01*
X157370912Y-91264251D01*
X157375692Y-91288285D01*
X157385069Y-91310924D01*
X157398683Y-91331299D01*
X157416010Y-91348626D01*
X157436383Y-91362239D01*
X157501260Y-91396916D01*
X157565974Y-91450026D01*
X157619086Y-91514743D01*
X157658549Y-91588573D01*
X157682851Y-91668684D01*
X157691056Y-91752000D01*
X157682851Y-91835316D01*
X157658549Y-91915427D01*
X157640364Y-91949448D01*
X157619084Y-91989260D01*
X157565974Y-92053974D01*
X157501260Y-92107084D01*
X157436383Y-92141761D01*
X157416011Y-92155373D01*
X157398684Y-92172700D01*
X157385070Y-92193075D01*
X157375693Y-92215714D01*
X157370912Y-92239747D01*
X157370912Y-92264251D01*
X157375692Y-92288285D01*
X157385069Y-92310924D01*
X157398683Y-92331299D01*
X157416010Y-92348626D01*
X157436383Y-92362239D01*
X157501260Y-92396916D01*
X157565974Y-92450026D01*
X157619086Y-92514743D01*
X157658549Y-92588573D01*
X157682851Y-92668684D01*
X157691056Y-92752000D01*
X157682851Y-92835316D01*
X157658549Y-92915427D01*
X157619086Y-92989257D01*
X157619084Y-92989260D01*
X157565974Y-93053974D01*
X157501260Y-93107084D01*
X157501258Y-93107085D01*
X157501257Y-93107086D01*
X157427427Y-93146549D01*
X157347316Y-93170851D01*
X157284878Y-93177000D01*
X157243122Y-93177000D01*
X157180684Y-93170851D01*
X157100573Y-93146549D01*
X157026743Y-93107086D01*
X157026742Y-93107085D01*
X157026740Y-93107084D01*
X156962026Y-93053974D01*
X156908916Y-92989260D01*
X156874239Y-92924383D01*
X156860627Y-92904011D01*
X156843300Y-92886684D01*
X156822925Y-92873070D01*
X156800286Y-92863693D01*
X156776253Y-92858912D01*
X156751749Y-92858912D01*
X156727715Y-92863692D01*
X156705076Y-92873069D01*
X156684701Y-92886683D01*
X156667374Y-92904010D01*
X156653761Y-92924383D01*
X156619084Y-92989260D01*
X156565974Y-93053974D01*
X156501260Y-93107084D01*
X156501258Y-93107085D01*
X156501257Y-93107086D01*
X156427427Y-93146549D01*
X156347316Y-93170851D01*
X156284878Y-93177000D01*
X156243122Y-93177000D01*
X156180684Y-93170851D01*
X156100573Y-93146549D01*
X156026743Y-93107086D01*
X156026742Y-93107085D01*
X156026740Y-93107084D01*
X155962026Y-93053974D01*
X155908916Y-92989260D01*
X155908914Y-92989257D01*
X155869451Y-92915427D01*
X155845149Y-92835316D01*
X155836944Y-92752000D01*
X155845149Y-92668684D01*
X155869451Y-92588573D01*
X155908914Y-92514743D01*
X155962026Y-92450026D01*
X156026740Y-92396916D01*
X156091617Y-92362239D01*
X156111989Y-92348627D01*
X156129316Y-92331300D01*
X156142930Y-92310925D01*
X156152307Y-92288286D01*
X156157088Y-92264253D01*
X156157088Y-92239749D01*
X156157088Y-92239747D01*
X156370912Y-92239747D01*
X156370912Y-92264251D01*
X156375692Y-92288285D01*
X156385069Y-92310924D01*
X156398683Y-92331299D01*
X156416010Y-92348626D01*
X156436383Y-92362239D01*
X156501260Y-92396916D01*
X156565974Y-92450026D01*
X156619084Y-92514740D01*
X156653759Y-92579614D01*
X156667373Y-92599989D01*
X156684700Y-92617316D01*
X156705075Y-92630930D01*
X156727714Y-92640307D01*
X156751747Y-92645088D01*
X156776251Y-92645088D01*
X156800285Y-92640308D01*
X156822924Y-92630931D01*
X156843299Y-92617317D01*
X156860626Y-92599990D01*
X156874241Y-92579614D01*
X156908916Y-92514740D01*
X156962026Y-92450026D01*
X157026740Y-92396916D01*
X157091617Y-92362239D01*
X157111989Y-92348627D01*
X157129316Y-92331300D01*
X157142930Y-92310925D01*
X157152307Y-92288286D01*
X157157088Y-92264253D01*
X157157088Y-92239749D01*
X157152308Y-92215715D01*
X157142931Y-92193076D01*
X157129317Y-92172701D01*
X157111990Y-92155374D01*
X157091617Y-92141761D01*
X157026740Y-92107084D01*
X156962026Y-92053974D01*
X156908916Y-91989260D01*
X156874239Y-91924383D01*
X156860627Y-91904011D01*
X156843300Y-91886684D01*
X156822925Y-91873070D01*
X156800286Y-91863693D01*
X156776253Y-91858912D01*
X156751749Y-91858912D01*
X156727715Y-91863692D01*
X156705076Y-91873069D01*
X156684701Y-91886683D01*
X156667374Y-91904010D01*
X156653761Y-91924383D01*
X156619084Y-91989260D01*
X156565974Y-92053974D01*
X156501260Y-92107084D01*
X156436383Y-92141761D01*
X156416011Y-92155373D01*
X156398684Y-92172700D01*
X156385070Y-92193075D01*
X156375693Y-92215714D01*
X156370912Y-92239747D01*
X156157088Y-92239747D01*
X156152308Y-92215715D01*
X156142931Y-92193076D01*
X156129317Y-92172701D01*
X156111990Y-92155374D01*
X156091617Y-92141761D01*
X156026740Y-92107084D01*
X155962026Y-92053974D01*
X155908916Y-91989260D01*
X155887636Y-91949448D01*
X155869451Y-91915427D01*
X155845149Y-91835316D01*
X155836944Y-91752000D01*
X155845149Y-91668684D01*
X155869451Y-91588573D01*
X155908914Y-91514743D01*
X155962026Y-91450026D01*
X156026740Y-91396916D01*
X156091617Y-91362239D01*
X156111989Y-91348627D01*
X156129316Y-91331300D01*
X156142930Y-91310925D01*
X156152307Y-91288286D01*
X156157088Y-91264253D01*
X156157088Y-91239749D01*
X156157088Y-91239747D01*
X156370912Y-91239747D01*
X156370912Y-91264251D01*
X156375692Y-91288285D01*
X156385069Y-91310924D01*
X156398683Y-91331299D01*
X156416010Y-91348626D01*
X156436383Y-91362239D01*
X156501260Y-91396916D01*
X156565974Y-91450026D01*
X156619084Y-91514740D01*
X156653759Y-91579614D01*
X156667373Y-91599989D01*
X156684700Y-91617316D01*
X156705075Y-91630930D01*
X156727714Y-91640307D01*
X156751747Y-91645088D01*
X156776251Y-91645088D01*
X156800285Y-91640308D01*
X156822924Y-91630931D01*
X156843299Y-91617317D01*
X156860626Y-91599990D01*
X156874241Y-91579614D01*
X156908916Y-91514740D01*
X156962026Y-91450026D01*
X157026740Y-91396916D01*
X157091617Y-91362239D01*
X157111989Y-91348627D01*
X157129316Y-91331300D01*
X157142930Y-91310925D01*
X157152307Y-91288286D01*
X157157088Y-91264253D01*
X157157088Y-91239749D01*
X157152308Y-91215715D01*
X157142931Y-91193076D01*
X157129317Y-91172701D01*
X157111990Y-91155374D01*
X157091617Y-91141761D01*
X157026740Y-91107084D01*
X156962026Y-91053974D01*
X156908916Y-90989260D01*
X156874239Y-90924383D01*
X156860627Y-90904011D01*
X156843300Y-90886684D01*
X156822925Y-90873070D01*
X156800286Y-90863693D01*
X156776253Y-90858912D01*
X156751749Y-90858912D01*
X156727715Y-90863692D01*
X156705076Y-90873069D01*
X156684701Y-90886683D01*
X156667374Y-90904010D01*
X156653761Y-90924383D01*
X156619084Y-90989260D01*
X156565974Y-91053974D01*
X156501260Y-91107084D01*
X156436383Y-91141761D01*
X156416011Y-91155373D01*
X156398684Y-91172700D01*
X156385070Y-91193075D01*
X156375693Y-91215714D01*
X156370912Y-91239747D01*
X156157088Y-91239747D01*
X156152308Y-91215715D01*
X156142931Y-91193076D01*
X156129317Y-91172701D01*
X156111990Y-91155374D01*
X156091617Y-91141761D01*
X156026740Y-91107084D01*
X155962026Y-91053974D01*
X155908916Y-90989260D01*
X155908914Y-90989257D01*
X155869451Y-90915427D01*
X155845149Y-90835316D01*
X155836944Y-90752000D01*
X155845149Y-90668684D01*
X155869451Y-90588573D01*
X155908914Y-90514743D01*
X155962026Y-90450026D01*
X156026740Y-90396916D01*
X156091617Y-90362239D01*
X156111989Y-90348627D01*
X156129316Y-90331300D01*
X156142930Y-90310925D01*
X156152307Y-90288286D01*
X156157088Y-90264253D01*
X156157088Y-90239749D01*
X156157088Y-90239747D01*
X156370912Y-90239747D01*
X156370912Y-90264251D01*
X156375692Y-90288285D01*
X156385069Y-90310924D01*
X156398683Y-90331299D01*
X156416010Y-90348626D01*
X156436383Y-90362239D01*
X156501260Y-90396916D01*
X156565974Y-90450026D01*
X156619084Y-90514740D01*
X156653759Y-90579614D01*
X156667373Y-90599989D01*
X156684700Y-90617316D01*
X156705075Y-90630930D01*
X156727714Y-90640307D01*
X156751747Y-90645088D01*
X156776251Y-90645088D01*
X156800285Y-90640308D01*
X156822924Y-90630931D01*
X156843299Y-90617317D01*
X156860626Y-90599990D01*
X156874241Y-90579614D01*
X156908916Y-90514740D01*
X156962026Y-90450026D01*
X157026740Y-90396916D01*
X157091617Y-90362239D01*
X157111989Y-90348627D01*
X157129316Y-90331300D01*
X157142930Y-90310925D01*
X157152307Y-90288286D01*
X157157088Y-90264253D01*
X157157088Y-90239749D01*
X157152308Y-90215715D01*
X157142931Y-90193076D01*
X157129317Y-90172701D01*
X157111990Y-90155374D01*
X157091617Y-90141761D01*
X157026740Y-90107084D01*
X156962026Y-90053974D01*
X156908916Y-89989260D01*
X156874239Y-89924383D01*
X156860627Y-89904011D01*
X156843300Y-89886684D01*
X156822925Y-89873070D01*
X156800286Y-89863693D01*
X156776253Y-89858912D01*
X156751749Y-89858912D01*
X156727715Y-89863692D01*
X156705076Y-89873069D01*
X156684701Y-89886683D01*
X156667374Y-89904010D01*
X156653761Y-89924383D01*
X156619084Y-89989260D01*
X156565974Y-90053974D01*
X156501260Y-90107084D01*
X156436383Y-90141761D01*
X156416011Y-90155373D01*
X156398684Y-90172700D01*
X156385070Y-90193075D01*
X156375693Y-90215714D01*
X156370912Y-90239747D01*
X156157088Y-90239747D01*
X156152308Y-90215715D01*
X156142931Y-90193076D01*
X156129317Y-90172701D01*
X156111990Y-90155374D01*
X156091617Y-90141761D01*
X156026740Y-90107084D01*
X155962026Y-90053974D01*
X155908916Y-89989260D01*
X155908914Y-89989257D01*
X155869451Y-89915427D01*
X155845149Y-89835316D01*
X155836944Y-89752000D01*
X155845149Y-89668684D01*
X155869451Y-89588573D01*
X155908914Y-89514743D01*
X155962026Y-89450026D01*
X156024660Y-89398623D01*
X156041984Y-89381299D01*
X156055597Y-89360924D01*
X156064975Y-89338285D01*
X156069755Y-89314252D01*
X156069755Y-89302000D01*
X156457643Y-89302000D01*
X156460045Y-89326386D01*
X156467158Y-89349835D01*
X156478709Y-89371446D01*
X156503341Y-89398624D01*
X156565974Y-89450026D01*
X156619084Y-89514740D01*
X156653759Y-89579614D01*
X156667373Y-89599989D01*
X156684700Y-89617316D01*
X156705075Y-89630930D01*
X156727714Y-89640307D01*
X156751747Y-89645088D01*
X156776251Y-89645088D01*
X156800285Y-89640308D01*
X156822924Y-89630931D01*
X156843299Y-89617317D01*
X156860626Y-89599990D01*
X156874241Y-89579614D01*
X156908916Y-89514740D01*
X156962026Y-89450026D01*
X157026740Y-89396916D01*
X157074392Y-89371446D01*
X157091617Y-89362239D01*
X157111989Y-89348627D01*
X157129316Y-89331300D01*
X157142930Y-89310925D01*
X157152307Y-89288286D01*
X157157088Y-89264253D01*
X157157088Y-89239749D01*
X157152308Y-89215715D01*
X157142931Y-89193076D01*
X157129317Y-89172701D01*
X157111990Y-89155374D01*
X157091617Y-89141761D01*
X157026740Y-89107084D01*
X156962026Y-89053974D01*
X156910623Y-88991340D01*
X156893299Y-88974016D01*
X156872924Y-88960403D01*
X156850285Y-88951025D01*
X156826252Y-88946245D01*
X156801747Y-88946245D01*
X156777714Y-88951026D01*
X156755075Y-88960403D01*
X156734700Y-88974017D01*
X156717373Y-88991344D01*
X156703760Y-89011719D01*
X156694382Y-89034358D01*
X156689000Y-89070643D01*
X156689000Y-89177000D01*
X156582643Y-89177000D01*
X156558257Y-89179402D01*
X156534808Y-89186515D01*
X156513197Y-89198066D01*
X156494255Y-89213612D01*
X156478709Y-89232554D01*
X156467158Y-89254165D01*
X156460045Y-89277614D01*
X156457643Y-89302000D01*
X156069755Y-89302000D01*
X156069755Y-89289747D01*
X156064974Y-89265714D01*
X156055597Y-89243075D01*
X156041983Y-89222700D01*
X156024656Y-89205373D01*
X156004281Y-89191760D01*
X155981642Y-89182382D01*
X155945357Y-89177000D01*
X155839000Y-89177000D01*
X155839000Y-88327000D01*
X156689000Y-88327000D01*
X156689000Y-88433357D01*
X156689000Y-88433357D01*
G37*
G36*
X122040000Y-92210000D02*
X120340000Y-92210000D01*
X120340000Y-91310000D01*
X122040000Y-91310000D01*
X122040000Y-92210000D01*
X122040000Y-92210000D01*
G37*
G36*
X127704024Y-91108955D02*
X127736736Y-91118879D01*
X127766890Y-91134997D01*
X127793316Y-91156684D01*
X127815003Y-91183110D01*
X127831121Y-91213264D01*
X127841045Y-91245976D01*
X127845000Y-91286138D01*
X127845000Y-91873862D01*
X127841045Y-91914024D01*
X127831121Y-91946736D01*
X127815003Y-91976890D01*
X127793316Y-92003316D01*
X127766890Y-92025003D01*
X127736736Y-92041121D01*
X127704024Y-92051045D01*
X127663862Y-92055000D01*
X126976138Y-92055000D01*
X126935976Y-92051045D01*
X126903264Y-92041121D01*
X126873110Y-92025003D01*
X126846684Y-92003316D01*
X126824997Y-91976890D01*
X126808879Y-91946736D01*
X126798955Y-91914024D01*
X126795000Y-91873862D01*
X126795000Y-91286138D01*
X126798955Y-91245976D01*
X126808879Y-91213264D01*
X126824997Y-91183110D01*
X126846684Y-91156684D01*
X126873110Y-91134997D01*
X126903264Y-91118879D01*
X126935976Y-91108955D01*
X126976138Y-91105000D01*
X127663862Y-91105000D01*
X127704024Y-91108955D01*
X127704024Y-91108955D01*
G37*
G36*
X125954024Y-91108955D02*
X125986736Y-91118879D01*
X126016890Y-91134997D01*
X126043316Y-91156684D01*
X126065003Y-91183110D01*
X126081121Y-91213264D01*
X126091045Y-91245976D01*
X126095000Y-91286138D01*
X126095000Y-91873862D01*
X126091045Y-91914024D01*
X126081121Y-91946736D01*
X126065003Y-91976890D01*
X126043316Y-92003316D01*
X126016890Y-92025003D01*
X125986736Y-92041121D01*
X125954024Y-92051045D01*
X125913862Y-92055000D01*
X125226138Y-92055000D01*
X125185976Y-92051045D01*
X125153264Y-92041121D01*
X125123110Y-92025003D01*
X125096684Y-92003316D01*
X125074997Y-91976890D01*
X125058879Y-91946736D01*
X125048955Y-91914024D01*
X125045000Y-91873862D01*
X125045000Y-91286138D01*
X125048955Y-91245976D01*
X125058879Y-91213264D01*
X125074997Y-91183110D01*
X125096684Y-91156684D01*
X125123110Y-91134997D01*
X125153264Y-91118879D01*
X125185976Y-91108955D01*
X125226138Y-91105000D01*
X125913862Y-91105000D01*
X125954024Y-91108955D01*
X125954024Y-91108955D01*
G37*
G36*
X123110000Y-87007500D02*
X121210000Y-87007500D01*
X121210000Y-84632500D01*
X123110000Y-84632500D01*
X123110000Y-87007500D01*
X123110000Y-87007500D01*
G37*
G36*
X125510000Y-86110000D02*
X123410000Y-86110000D01*
X123410000Y-84635000D01*
X124005000Y-84635000D01*
X124029386Y-84632598D01*
X124052835Y-84625485D01*
X124074446Y-84613934D01*
X124093388Y-84598388D01*
X124108934Y-84579446D01*
X124120485Y-84557835D01*
X124127598Y-84534386D01*
X124130000Y-84510000D01*
X124130000Y-81310000D01*
X124127598Y-81285614D01*
X124120485Y-81262165D01*
X124108934Y-81240554D01*
X124093388Y-81221612D01*
X124074446Y-81206066D01*
X124052835Y-81194515D01*
X124029386Y-81187402D01*
X124005000Y-81185000D01*
X123410000Y-81185000D01*
X123410000Y-79710000D01*
X125510000Y-79710000D01*
X125510000Y-86110000D01*
X125510000Y-86110000D01*
G37*
G36*
X123110000Y-84337500D02*
X121210000Y-84337500D01*
X121210000Y-83162500D01*
X123110000Y-83162500D01*
X123110000Y-84337500D01*
X123110000Y-84337500D01*
G37*
G36*
X156689000Y-82591357D02*
X156691402Y-82615743D01*
X156698515Y-82639192D01*
X156710066Y-82660803D01*
X156725612Y-82679745D01*
X156744554Y-82695291D01*
X156766165Y-82706842D01*
X156789614Y-82713955D01*
X156814000Y-82716357D01*
X156838386Y-82713955D01*
X156861835Y-82706842D01*
X156883446Y-82695291D01*
X156910624Y-82670659D01*
X156962026Y-82608026D01*
X157026740Y-82554916D01*
X157026742Y-82554915D01*
X157026743Y-82554914D01*
X157100573Y-82515451D01*
X157180684Y-82491149D01*
X157243122Y-82485000D01*
X157284878Y-82485000D01*
X157347316Y-82491149D01*
X157427427Y-82515451D01*
X157501257Y-82554914D01*
X157501258Y-82554915D01*
X157501260Y-82554916D01*
X157565974Y-82608026D01*
X157617375Y-82670657D01*
X157619086Y-82672743D01*
X157658549Y-82746573D01*
X157682851Y-82826684D01*
X157691056Y-82910000D01*
X157682851Y-82993316D01*
X157658549Y-83073427D01*
X157619086Y-83147257D01*
X157619084Y-83147260D01*
X157565974Y-83211974D01*
X157501260Y-83265084D01*
X157436383Y-83299761D01*
X157416011Y-83313373D01*
X157398684Y-83330700D01*
X157385070Y-83351075D01*
X157375693Y-83373714D01*
X157370912Y-83397747D01*
X157370912Y-83422251D01*
X157375692Y-83446285D01*
X157385069Y-83468924D01*
X157398683Y-83489299D01*
X157416010Y-83506626D01*
X157436383Y-83520239D01*
X157453608Y-83529446D01*
X157501260Y-83554916D01*
X157565974Y-83608026D01*
X157619086Y-83672743D01*
X157658549Y-83746573D01*
X157682851Y-83826684D01*
X157691056Y-83910000D01*
X157682851Y-83993316D01*
X157658549Y-84073427D01*
X157619086Y-84147257D01*
X157619084Y-84147260D01*
X157565974Y-84211974D01*
X157501260Y-84265084D01*
X157501258Y-84265085D01*
X157501257Y-84265086D01*
X157427427Y-84304549D01*
X157347316Y-84328851D01*
X157284878Y-84335000D01*
X157243122Y-84335000D01*
X157180684Y-84328851D01*
X157100573Y-84304549D01*
X157026743Y-84265086D01*
X157026742Y-84265085D01*
X157026740Y-84265084D01*
X156962026Y-84211974D01*
X156908916Y-84147260D01*
X156874239Y-84082383D01*
X156860627Y-84062011D01*
X156843300Y-84044684D01*
X156822925Y-84031070D01*
X156800286Y-84021693D01*
X156776253Y-84016912D01*
X156751749Y-84016912D01*
X156727715Y-84021692D01*
X156705076Y-84031069D01*
X156684701Y-84044683D01*
X156667374Y-84062010D01*
X156653761Y-84082383D01*
X156619084Y-84147260D01*
X156565974Y-84211974D01*
X156501260Y-84265084D01*
X156501258Y-84265085D01*
X156501257Y-84265086D01*
X156427427Y-84304549D01*
X156347316Y-84328851D01*
X156284878Y-84335000D01*
X156243122Y-84335000D01*
X156180684Y-84328851D01*
X156100573Y-84304549D01*
X156026743Y-84265086D01*
X156026742Y-84265085D01*
X156026740Y-84265084D01*
X155962026Y-84211974D01*
X155908916Y-84147260D01*
X155908914Y-84147257D01*
X155869451Y-84073427D01*
X155845149Y-83993316D01*
X155836944Y-83910000D01*
X155845149Y-83826684D01*
X155869451Y-83746573D01*
X155908914Y-83672743D01*
X155962026Y-83608026D01*
X156024660Y-83556623D01*
X156041984Y-83539299D01*
X156055597Y-83518924D01*
X156064975Y-83496285D01*
X156069755Y-83472252D01*
X156069755Y-83460000D01*
X156457643Y-83460000D01*
X156460045Y-83484386D01*
X156467158Y-83507835D01*
X156478709Y-83529446D01*
X156503341Y-83556624D01*
X156565974Y-83608026D01*
X156619084Y-83672740D01*
X156653759Y-83737614D01*
X156667373Y-83757989D01*
X156684700Y-83775316D01*
X156705075Y-83788930D01*
X156727714Y-83798307D01*
X156751747Y-83803088D01*
X156776251Y-83803088D01*
X156800285Y-83798308D01*
X156822924Y-83788931D01*
X156843299Y-83775317D01*
X156860626Y-83757990D01*
X156874241Y-83737614D01*
X156908916Y-83672740D01*
X156962026Y-83608026D01*
X157026740Y-83554916D01*
X157074392Y-83529446D01*
X157091617Y-83520239D01*
X157111989Y-83506627D01*
X157129316Y-83489300D01*
X157142930Y-83468925D01*
X157152307Y-83446286D01*
X157157088Y-83422253D01*
X157157088Y-83397749D01*
X157152308Y-83373715D01*
X157142931Y-83351076D01*
X157129317Y-83330701D01*
X157111990Y-83313374D01*
X157091617Y-83299761D01*
X157026740Y-83265084D01*
X156962026Y-83211974D01*
X156910623Y-83149340D01*
X156893299Y-83132016D01*
X156872924Y-83118403D01*
X156850285Y-83109025D01*
X156826252Y-83104245D01*
X156801747Y-83104245D01*
X156777714Y-83109026D01*
X156755075Y-83118403D01*
X156734700Y-83132017D01*
X156717373Y-83149344D01*
X156703760Y-83169719D01*
X156694382Y-83192358D01*
X156689000Y-83228643D01*
X156689000Y-83335000D01*
X156582643Y-83335000D01*
X156558257Y-83337402D01*
X156534808Y-83344515D01*
X156513197Y-83356066D01*
X156494255Y-83371612D01*
X156478709Y-83390554D01*
X156467158Y-83412165D01*
X156460045Y-83435614D01*
X156457643Y-83460000D01*
X156069755Y-83460000D01*
X156069755Y-83447747D01*
X156064974Y-83423714D01*
X156055597Y-83401075D01*
X156041983Y-83380700D01*
X156024656Y-83363373D01*
X156004281Y-83349760D01*
X155981642Y-83340382D01*
X155945357Y-83335000D01*
X155839000Y-83335000D01*
X155839000Y-82485000D01*
X156689000Y-82485000D01*
X156689000Y-82591357D01*
X156689000Y-82591357D01*
G37*
G36*
X131925000Y-80675000D02*
X131818643Y-80675000D01*
X131794257Y-80677402D01*
X131770808Y-80684515D01*
X131749197Y-80696066D01*
X131730255Y-80711612D01*
X131714709Y-80730554D01*
X131703158Y-80752165D01*
X131696045Y-80775614D01*
X131693643Y-80800000D01*
X131696045Y-80824386D01*
X131703158Y-80847835D01*
X131714709Y-80869446D01*
X131739341Y-80896624D01*
X131801974Y-80948026D01*
X131855086Y-81012743D01*
X131894549Y-81086573D01*
X131918851Y-81166684D01*
X131927056Y-81250000D01*
X131918851Y-81333316D01*
X131894549Y-81413427D01*
X131855086Y-81487257D01*
X131855084Y-81487260D01*
X131801974Y-81551974D01*
X131737260Y-81605084D01*
X131672383Y-81639761D01*
X131652011Y-81653373D01*
X131634684Y-81670700D01*
X131621070Y-81691075D01*
X131611693Y-81713714D01*
X131606912Y-81737747D01*
X131606912Y-81762251D01*
X131611692Y-81786285D01*
X131621069Y-81808924D01*
X131634683Y-81829299D01*
X131652010Y-81846626D01*
X131672383Y-81860239D01*
X131737260Y-81894916D01*
X131801974Y-81948026D01*
X131855086Y-82012743D01*
X131894549Y-82086573D01*
X131918851Y-82166684D01*
X131927056Y-82250000D01*
X131918851Y-82333316D01*
X131894549Y-82413427D01*
X131856292Y-82485000D01*
X131855084Y-82487260D01*
X131801974Y-82551974D01*
X131737260Y-82605084D01*
X131737258Y-82605085D01*
X131737257Y-82605086D01*
X131663427Y-82644549D01*
X131583316Y-82668851D01*
X131520878Y-82675000D01*
X131479122Y-82675000D01*
X131416684Y-82668851D01*
X131336573Y-82644549D01*
X131262743Y-82605086D01*
X131262742Y-82605085D01*
X131262740Y-82605084D01*
X131198026Y-82551974D01*
X131144916Y-82487260D01*
X131143708Y-82485000D01*
X131105451Y-82413427D01*
X131081149Y-82333316D01*
X131072944Y-82250000D01*
X131081149Y-82166684D01*
X131105451Y-82086573D01*
X131144914Y-82012743D01*
X131198026Y-81948026D01*
X131262740Y-81894916D01*
X131327617Y-81860239D01*
X131347989Y-81846627D01*
X131365316Y-81829300D01*
X131378930Y-81808925D01*
X131388307Y-81786286D01*
X131393088Y-81762253D01*
X131393088Y-81737749D01*
X131388308Y-81713715D01*
X131378931Y-81691076D01*
X131365317Y-81670701D01*
X131347990Y-81653374D01*
X131327617Y-81639761D01*
X131262740Y-81605084D01*
X131198026Y-81551974D01*
X131144916Y-81487260D01*
X131144914Y-81487257D01*
X131105451Y-81413427D01*
X131081149Y-81333316D01*
X131072944Y-81250000D01*
X131081149Y-81166684D01*
X131105451Y-81086573D01*
X131144914Y-81012743D01*
X131198026Y-80948026D01*
X131260660Y-80896623D01*
X131277984Y-80879299D01*
X131291597Y-80858924D01*
X131300975Y-80836285D01*
X131305755Y-80812252D01*
X131305755Y-80787747D01*
X131300974Y-80763714D01*
X131291597Y-80741075D01*
X131277983Y-80720700D01*
X131260656Y-80703373D01*
X131240281Y-80689760D01*
X131217642Y-80680382D01*
X131181357Y-80675000D01*
X131075000Y-80675000D01*
X131075000Y-79825000D01*
X131925000Y-79825000D01*
X131925000Y-80675000D01*
X131925000Y-80675000D01*
G37*
G36*
X123110000Y-82657500D02*
X121210000Y-82657500D01*
X121210000Y-81482500D01*
X123110000Y-81482500D01*
X123110000Y-82657500D01*
X123110000Y-82657500D01*
G37*
G36*
X123110000Y-81187500D02*
X121210000Y-81187500D01*
X121210000Y-78812500D01*
X123110000Y-78812500D01*
X123110000Y-81187500D01*
X123110000Y-81187500D01*
G37*
G36*
X159509024Y-80028955D02*
X159541736Y-80038879D01*
X159571890Y-80054997D01*
X159598316Y-80076684D01*
X159620003Y-80103110D01*
X159636121Y-80133264D01*
X159646045Y-80165976D01*
X159650000Y-80206138D01*
X159650000Y-80793862D01*
X159646045Y-80834024D01*
X159636121Y-80866736D01*
X159620003Y-80896890D01*
X159598316Y-80923316D01*
X159571890Y-80945003D01*
X159541736Y-80961121D01*
X159509024Y-80971045D01*
X159468862Y-80975000D01*
X158781138Y-80975000D01*
X158740976Y-80971045D01*
X158708264Y-80961121D01*
X158678110Y-80945003D01*
X158651684Y-80923316D01*
X158629997Y-80896890D01*
X158613879Y-80866736D01*
X158603955Y-80834024D01*
X158600000Y-80793862D01*
X158600000Y-80206138D01*
X158603955Y-80165976D01*
X158613879Y-80133264D01*
X158629997Y-80103110D01*
X158651684Y-80076684D01*
X158678110Y-80054997D01*
X158708264Y-80038879D01*
X158740976Y-80028955D01*
X158781138Y-80025000D01*
X159468862Y-80025000D01*
X159509024Y-80028955D01*
X159509024Y-80028955D01*
G37*
G36*
X157759024Y-80028955D02*
X157791736Y-80038879D01*
X157821890Y-80054997D01*
X157848316Y-80076684D01*
X157870003Y-80103110D01*
X157886121Y-80133264D01*
X157896045Y-80165976D01*
X157900000Y-80206138D01*
X157900000Y-80793862D01*
X157896045Y-80834024D01*
X157886121Y-80866736D01*
X157870003Y-80896890D01*
X157848316Y-80923316D01*
X157821890Y-80945003D01*
X157791736Y-80961121D01*
X157759024Y-80971045D01*
X157718862Y-80975000D01*
X157031138Y-80975000D01*
X156990976Y-80971045D01*
X156958264Y-80961121D01*
X156928110Y-80945003D01*
X156901684Y-80923316D01*
X156879997Y-80896890D01*
X156863879Y-80866736D01*
X156853955Y-80834024D01*
X156850000Y-80793862D01*
X156850000Y-80206138D01*
X156853955Y-80165976D01*
X156863879Y-80133264D01*
X156879997Y-80103110D01*
X156901684Y-80076684D01*
X156928110Y-80054997D01*
X156958264Y-80038879D01*
X156990976Y-80028955D01*
X157031138Y-80025000D01*
X157718862Y-80025000D01*
X157759024Y-80028955D01*
X157759024Y-80028955D01*
G37*
G36*
X156396056Y-77395281D02*
X156476167Y-77419583D01*
X156549997Y-77459046D01*
X156549998Y-77459047D01*
X156550000Y-77459048D01*
X156576062Y-77480437D01*
X156614714Y-77512158D01*
X156667824Y-77576872D01*
X156702499Y-77641746D01*
X156716113Y-77662121D01*
X156733440Y-77679448D01*
X156753815Y-77693062D01*
X156776454Y-77702439D01*
X156800487Y-77707220D01*
X156824991Y-77707220D01*
X156849025Y-77702440D01*
X156871664Y-77693063D01*
X156892039Y-77679449D01*
X156909366Y-77662122D01*
X156922981Y-77641746D01*
X156957656Y-77576872D01*
X157010766Y-77512158D01*
X157049418Y-77480437D01*
X157075480Y-77459048D01*
X157075482Y-77459047D01*
X157075483Y-77459046D01*
X157149313Y-77419583D01*
X157229424Y-77395281D01*
X157291862Y-77389132D01*
X157333618Y-77389132D01*
X157396056Y-77395281D01*
X157476167Y-77419583D01*
X157549997Y-77459046D01*
X157549998Y-77459047D01*
X157550000Y-77459048D01*
X157576062Y-77480437D01*
X157614714Y-77512158D01*
X157667826Y-77576875D01*
X157707289Y-77650705D01*
X157731591Y-77730816D01*
X157739796Y-77814132D01*
X157731591Y-77897448D01*
X157707289Y-77977559D01*
X157667826Y-78051389D01*
X157667824Y-78051392D01*
X157614714Y-78116106D01*
X157552080Y-78167509D01*
X157534756Y-78184833D01*
X157521143Y-78205208D01*
X157511765Y-78227847D01*
X157506985Y-78251880D01*
X157506985Y-78276385D01*
X157511766Y-78300418D01*
X157521143Y-78323057D01*
X157534757Y-78343432D01*
X157552084Y-78360759D01*
X157572459Y-78374372D01*
X157595098Y-78383750D01*
X157631383Y-78389132D01*
X157737740Y-78389132D01*
X157737740Y-79239132D01*
X156887740Y-79239132D01*
X156887740Y-79132775D01*
X156885338Y-79108389D01*
X156878225Y-79084940D01*
X156866674Y-79063329D01*
X156851128Y-79044387D01*
X156832186Y-79028841D01*
X156810575Y-79017290D01*
X156787126Y-79010177D01*
X156762740Y-79007775D01*
X156738354Y-79010177D01*
X156714905Y-79017290D01*
X156693294Y-79028841D01*
X156666116Y-79053473D01*
X156614714Y-79116106D01*
X156550000Y-79169216D01*
X156549998Y-79169217D01*
X156549997Y-79169218D01*
X156476167Y-79208681D01*
X156396056Y-79232983D01*
X156333618Y-79239132D01*
X156291862Y-79239132D01*
X156229424Y-79232983D01*
X156149313Y-79208681D01*
X156075483Y-79169218D01*
X156075482Y-79169217D01*
X156075480Y-79169216D01*
X156010766Y-79116106D01*
X155957656Y-79051392D01*
X155957654Y-79051389D01*
X155918191Y-78977559D01*
X155893889Y-78897448D01*
X155885684Y-78814132D01*
X155893889Y-78730816D01*
X155918191Y-78650705D01*
X155957654Y-78576875D01*
X155959366Y-78574789D01*
X156010766Y-78512158D01*
X156075480Y-78459048D01*
X156140357Y-78424371D01*
X156160729Y-78410759D01*
X156178056Y-78393432D01*
X156191670Y-78373057D01*
X156201047Y-78350418D01*
X156205828Y-78326385D01*
X156205828Y-78301881D01*
X156205828Y-78301879D01*
X156419652Y-78301879D01*
X156419652Y-78326383D01*
X156424432Y-78350417D01*
X156433809Y-78373056D01*
X156447423Y-78393431D01*
X156464750Y-78410758D01*
X156485123Y-78424371D01*
X156550000Y-78459048D01*
X156614714Y-78512158D01*
X156666117Y-78574792D01*
X156683441Y-78592116D01*
X156703816Y-78605729D01*
X156726455Y-78615107D01*
X156750488Y-78619887D01*
X156774993Y-78619887D01*
X156799026Y-78615106D01*
X156821665Y-78605729D01*
X156842040Y-78592115D01*
X156859367Y-78574788D01*
X156872980Y-78554413D01*
X156882358Y-78531774D01*
X156887740Y-78495489D01*
X156887740Y-78389132D01*
X156994097Y-78389132D01*
X157018483Y-78386730D01*
X157041932Y-78379617D01*
X157063543Y-78368066D01*
X157082485Y-78352520D01*
X157098031Y-78333578D01*
X157109582Y-78311967D01*
X157116695Y-78288518D01*
X157119097Y-78264132D01*
X157116695Y-78239746D01*
X157109582Y-78216297D01*
X157098031Y-78194686D01*
X157073399Y-78167508D01*
X157010766Y-78116106D01*
X156957656Y-78051392D01*
X156922979Y-77986515D01*
X156909367Y-77966143D01*
X156892040Y-77948816D01*
X156871665Y-77935202D01*
X156849026Y-77925825D01*
X156824993Y-77921044D01*
X156800489Y-77921044D01*
X156776455Y-77925824D01*
X156753816Y-77935201D01*
X156733441Y-77948815D01*
X156716114Y-77966142D01*
X156702501Y-77986515D01*
X156667824Y-78051392D01*
X156614714Y-78116106D01*
X156550000Y-78169216D01*
X156485123Y-78203893D01*
X156464751Y-78217505D01*
X156447424Y-78234832D01*
X156433810Y-78255207D01*
X156424433Y-78277846D01*
X156419652Y-78301879D01*
X156205828Y-78301879D01*
X156201048Y-78277847D01*
X156191671Y-78255208D01*
X156178057Y-78234833D01*
X156160730Y-78217506D01*
X156140357Y-78203893D01*
X156075480Y-78169216D01*
X156010766Y-78116106D01*
X155957656Y-78051392D01*
X155957654Y-78051389D01*
X155918191Y-77977559D01*
X155893889Y-77897448D01*
X155885684Y-77814132D01*
X155893889Y-77730816D01*
X155918191Y-77650705D01*
X155957654Y-77576875D01*
X156010766Y-77512158D01*
X156049418Y-77480437D01*
X156075480Y-77459048D01*
X156075482Y-77459047D01*
X156075483Y-77459046D01*
X156149313Y-77419583D01*
X156229424Y-77395281D01*
X156291862Y-77389132D01*
X156333618Y-77389132D01*
X156396056Y-77395281D01*
X156396056Y-77395281D01*
G37*
G36*
X159764024Y-77788955D02*
X159796736Y-77798879D01*
X159826890Y-77814997D01*
X159853316Y-77836684D01*
X159875003Y-77863110D01*
X159891121Y-77893264D01*
X159901045Y-77925976D01*
X159905000Y-77966138D01*
X159905000Y-78553862D01*
X159901045Y-78594024D01*
X159891121Y-78626736D01*
X159875003Y-78656890D01*
X159853316Y-78683316D01*
X159826890Y-78705003D01*
X159796736Y-78721121D01*
X159764024Y-78731045D01*
X159723862Y-78735000D01*
X159036138Y-78735000D01*
X158995976Y-78731045D01*
X158963264Y-78721121D01*
X158933110Y-78705003D01*
X158906684Y-78683316D01*
X158884997Y-78656890D01*
X158868879Y-78626736D01*
X158858955Y-78594024D01*
X158855000Y-78553862D01*
X158855000Y-77966138D01*
X158858955Y-77925976D01*
X158868879Y-77893264D01*
X158884997Y-77863110D01*
X158906684Y-77836684D01*
X158933110Y-77814997D01*
X158963264Y-77798879D01*
X158995976Y-77788955D01*
X159036138Y-77785000D01*
X159723862Y-77785000D01*
X159764024Y-77788955D01*
X159764024Y-77788955D01*
G37*
G36*
X161514024Y-77788955D02*
X161546736Y-77798879D01*
X161576890Y-77814997D01*
X161603316Y-77836684D01*
X161625003Y-77863110D01*
X161641121Y-77893264D01*
X161651045Y-77925976D01*
X161655000Y-77966138D01*
X161655000Y-78553862D01*
X161651045Y-78594024D01*
X161641121Y-78626736D01*
X161625003Y-78656890D01*
X161603316Y-78683316D01*
X161576890Y-78705003D01*
X161546736Y-78721121D01*
X161514024Y-78731045D01*
X161473862Y-78735000D01*
X160786138Y-78735000D01*
X160745976Y-78731045D01*
X160713264Y-78721121D01*
X160683110Y-78705003D01*
X160656684Y-78683316D01*
X160634997Y-78656890D01*
X160618879Y-78626736D01*
X160608955Y-78594024D01*
X160605000Y-78553862D01*
X160605000Y-77966138D01*
X160608955Y-77925976D01*
X160618879Y-77893264D01*
X160634997Y-77863110D01*
X160656684Y-77836684D01*
X160683110Y-77814997D01*
X160713264Y-77798879D01*
X160745976Y-77788955D01*
X160786138Y-77785000D01*
X161473862Y-77785000D01*
X161514024Y-77788955D01*
X161514024Y-77788955D01*
G37*
G36*
X161514024Y-76538955D02*
X161546736Y-76548879D01*
X161576890Y-76564997D01*
X161603316Y-76586684D01*
X161625003Y-76613110D01*
X161641121Y-76643264D01*
X161651045Y-76675976D01*
X161655000Y-76716138D01*
X161655000Y-77303862D01*
X161651045Y-77344024D01*
X161641121Y-77376736D01*
X161625003Y-77406890D01*
X161603316Y-77433316D01*
X161576890Y-77455003D01*
X161546736Y-77471121D01*
X161514024Y-77481045D01*
X161473862Y-77485000D01*
X160786138Y-77485000D01*
X160745976Y-77481045D01*
X160713264Y-77471121D01*
X160683110Y-77455003D01*
X160656684Y-77433316D01*
X160634997Y-77406890D01*
X160618879Y-77376736D01*
X160608955Y-77344024D01*
X160605000Y-77303862D01*
X160605000Y-76716138D01*
X160608955Y-76675976D01*
X160618879Y-76643264D01*
X160634997Y-76613110D01*
X160656684Y-76586684D01*
X160683110Y-76564997D01*
X160713264Y-76548879D01*
X160745976Y-76538955D01*
X160786138Y-76535000D01*
X161473862Y-76535000D01*
X161514024Y-76538955D01*
X161514024Y-76538955D01*
G37*
G36*
X159764024Y-76538955D02*
X159796736Y-76548879D01*
X159826890Y-76564997D01*
X159853316Y-76586684D01*
X159875003Y-76613110D01*
X159891121Y-76643264D01*
X159901045Y-76675976D01*
X159905000Y-76716138D01*
X159905000Y-77303862D01*
X159901045Y-77344024D01*
X159891121Y-77376736D01*
X159875003Y-77406890D01*
X159853316Y-77433316D01*
X159826890Y-77455003D01*
X159796736Y-77471121D01*
X159764024Y-77481045D01*
X159723862Y-77485000D01*
X159036138Y-77485000D01*
X158995976Y-77481045D01*
X158963264Y-77471121D01*
X158933110Y-77455003D01*
X158906684Y-77433316D01*
X158884997Y-77406890D01*
X158868879Y-77376736D01*
X158858955Y-77344024D01*
X158855000Y-77303862D01*
X158855000Y-76716138D01*
X158858955Y-76675976D01*
X158868879Y-76643264D01*
X158884997Y-76613110D01*
X158906684Y-76586684D01*
X158933110Y-76564997D01*
X158963264Y-76548879D01*
X158995976Y-76538955D01*
X159036138Y-76535000D01*
X159723862Y-76535000D01*
X159764024Y-76538955D01*
X159764024Y-76538955D01*
G37*
G36*
X160704024Y-75118955D02*
X160736736Y-75128879D01*
X160766890Y-75144997D01*
X160793316Y-75166684D01*
X160815003Y-75193110D01*
X160831121Y-75223264D01*
X160841045Y-75255976D01*
X160845000Y-75296138D01*
X160845000Y-75883862D01*
X160841045Y-75924024D01*
X160831121Y-75956736D01*
X160815003Y-75986890D01*
X160793316Y-76013316D01*
X160766890Y-76035003D01*
X160736736Y-76051121D01*
X160704024Y-76061045D01*
X160663862Y-76065000D01*
X159976138Y-76065000D01*
X159935976Y-76061045D01*
X159903264Y-76051121D01*
X159873110Y-76035003D01*
X159846684Y-76013316D01*
X159824997Y-75986890D01*
X159808879Y-75956736D01*
X159798955Y-75924024D01*
X159795000Y-75883862D01*
X159795000Y-75296138D01*
X159798955Y-75255976D01*
X159808879Y-75223264D01*
X159824997Y-75193110D01*
X159846684Y-75166684D01*
X159873110Y-75144997D01*
X159903264Y-75128879D01*
X159935976Y-75118955D01*
X159976138Y-75115000D01*
X160663862Y-75115000D01*
X160704024Y-75118955D01*
X160704024Y-75118955D01*
G37*
G36*
X158954024Y-75118955D02*
X158986736Y-75128879D01*
X159016890Y-75144997D01*
X159043316Y-75166684D01*
X159065003Y-75193110D01*
X159081121Y-75223264D01*
X159091045Y-75255976D01*
X159095000Y-75296138D01*
X159095000Y-75883862D01*
X159091045Y-75924024D01*
X159081121Y-75956736D01*
X159065003Y-75986890D01*
X159043316Y-76013316D01*
X159016890Y-76035003D01*
X158986736Y-76051121D01*
X158954024Y-76061045D01*
X158913862Y-76065000D01*
X158226138Y-76065000D01*
X158185976Y-76061045D01*
X158153264Y-76051121D01*
X158123110Y-76035003D01*
X158096684Y-76013316D01*
X158074997Y-75986890D01*
X158058879Y-75956736D01*
X158048955Y-75924024D01*
X158045000Y-75883862D01*
X158045000Y-75296138D01*
X158048955Y-75255976D01*
X158058879Y-75223264D01*
X158074997Y-75193110D01*
X158096684Y-75166684D01*
X158123110Y-75144997D01*
X158153264Y-75128879D01*
X158185976Y-75118955D01*
X158226138Y-75115000D01*
X158913862Y-75115000D01*
X158954024Y-75118955D01*
X158954024Y-75118955D01*
G37*
G36*
X141364024Y-74778955D02*
X141396736Y-74788879D01*
X141426890Y-74804997D01*
X141453316Y-74826684D01*
X141475003Y-74853110D01*
X141491121Y-74883264D01*
X141501045Y-74915976D01*
X141505000Y-74956138D01*
X141505000Y-75543862D01*
X141501045Y-75584024D01*
X141491121Y-75616736D01*
X141475003Y-75646890D01*
X141453316Y-75673316D01*
X141426890Y-75695003D01*
X141396736Y-75711121D01*
X141364024Y-75721045D01*
X141323862Y-75725000D01*
X140636138Y-75725000D01*
X140595976Y-75721045D01*
X140563264Y-75711121D01*
X140533110Y-75695003D01*
X140506684Y-75673316D01*
X140484997Y-75646890D01*
X140468879Y-75616736D01*
X140458955Y-75584024D01*
X140455000Y-75543862D01*
X140455000Y-74956138D01*
X140458955Y-74915976D01*
X140468879Y-74883264D01*
X140484997Y-74853110D01*
X140506684Y-74826684D01*
X140533110Y-74804997D01*
X140563264Y-74788879D01*
X140595976Y-74778955D01*
X140636138Y-74775000D01*
X141323862Y-74775000D01*
X141364024Y-74778955D01*
X141364024Y-74778955D01*
G37*
G36*
X143114024Y-74778955D02*
X143146736Y-74788879D01*
X143176890Y-74804997D01*
X143203316Y-74826684D01*
X143225003Y-74853110D01*
X143241121Y-74883264D01*
X143251045Y-74915976D01*
X143255000Y-74956138D01*
X143255000Y-75543862D01*
X143251045Y-75584024D01*
X143241121Y-75616736D01*
X143225003Y-75646890D01*
X143203316Y-75673316D01*
X143176890Y-75695003D01*
X143146736Y-75711121D01*
X143114024Y-75721045D01*
X143073862Y-75725000D01*
X142386138Y-75725000D01*
X142345976Y-75721045D01*
X142313264Y-75711121D01*
X142283110Y-75695003D01*
X142256684Y-75673316D01*
X142234997Y-75646890D01*
X142218879Y-75616736D01*
X142208955Y-75584024D01*
X142205000Y-75543862D01*
X142205000Y-74956138D01*
X142208955Y-74915976D01*
X142218879Y-74883264D01*
X142234997Y-74853110D01*
X142256684Y-74826684D01*
X142283110Y-74804997D01*
X142313264Y-74788879D01*
X142345976Y-74778955D01*
X142386138Y-74775000D01*
X143073862Y-74775000D01*
X143114024Y-74778955D01*
X143114024Y-74778955D01*
G37*
G36*
X145064024Y-74758955D02*
X145096736Y-74768879D01*
X145126890Y-74784997D01*
X145153316Y-74806684D01*
X145175003Y-74833110D01*
X145191121Y-74863264D01*
X145201045Y-74895976D01*
X145205000Y-74936138D01*
X145205000Y-75523862D01*
X145201045Y-75564024D01*
X145191121Y-75596736D01*
X145175003Y-75626890D01*
X145153316Y-75653316D01*
X145126890Y-75675003D01*
X145096736Y-75691121D01*
X145064024Y-75701045D01*
X145023862Y-75705000D01*
X144336138Y-75705000D01*
X144295976Y-75701045D01*
X144263264Y-75691121D01*
X144233110Y-75675003D01*
X144206684Y-75653316D01*
X144184997Y-75626890D01*
X144168879Y-75596736D01*
X144158955Y-75564024D01*
X144155000Y-75523862D01*
X144155000Y-74936138D01*
X144158955Y-74895976D01*
X144168879Y-74863264D01*
X144184997Y-74833110D01*
X144206684Y-74806684D01*
X144233110Y-74784997D01*
X144263264Y-74768879D01*
X144295976Y-74758955D01*
X144336138Y-74755000D01*
X145023862Y-74755000D01*
X145064024Y-74758955D01*
X145064024Y-74758955D01*
G37*
G36*
X146814024Y-74758955D02*
X146846736Y-74768879D01*
X146876890Y-74784997D01*
X146903316Y-74806684D01*
X146925003Y-74833110D01*
X146941121Y-74863264D01*
X146951045Y-74895976D01*
X146955000Y-74936138D01*
X146955000Y-75523862D01*
X146951045Y-75564024D01*
X146941121Y-75596736D01*
X146925003Y-75626890D01*
X146903316Y-75653316D01*
X146876890Y-75675003D01*
X146846736Y-75691121D01*
X146814024Y-75701045D01*
X146773862Y-75705000D01*
X146086138Y-75705000D01*
X146045976Y-75701045D01*
X146013264Y-75691121D01*
X145983110Y-75675003D01*
X145956684Y-75653316D01*
X145934997Y-75626890D01*
X145918879Y-75596736D01*
X145908955Y-75564024D01*
X145905000Y-75523862D01*
X145905000Y-74936138D01*
X145908955Y-74895976D01*
X145918879Y-74863264D01*
X145934997Y-74833110D01*
X145956684Y-74806684D01*
X145983110Y-74784997D01*
X146013264Y-74768879D01*
X146045976Y-74758955D01*
X146086138Y-74755000D01*
X146773862Y-74755000D01*
X146814024Y-74758955D01*
X146814024Y-74758955D01*
G37*
G36*
X129400000Y-75700000D02*
X128600000Y-75700000D01*
X128600000Y-74800000D01*
X129400000Y-74800000D01*
X129400000Y-75700000D01*
X129400000Y-75700000D01*
G37*
G36*
X131300000Y-75700000D02*
X130500000Y-75700000D01*
X130500000Y-74800000D01*
X131300000Y-74800000D01*
X131300000Y-75700000D01*
X131300000Y-75700000D01*
G37*
G36*
X121834024Y-74603955D02*
X121866736Y-74613879D01*
X121896890Y-74629997D01*
X121923316Y-74651684D01*
X121945003Y-74678110D01*
X121961121Y-74708264D01*
X121971045Y-74740976D01*
X121975000Y-74781138D01*
X121975000Y-75468862D01*
X121971045Y-75509024D01*
X121961121Y-75541736D01*
X121945003Y-75571890D01*
X121923316Y-75598316D01*
X121896890Y-75620003D01*
X121866736Y-75636121D01*
X121834024Y-75646045D01*
X121793862Y-75650000D01*
X121206138Y-75650000D01*
X121165976Y-75646045D01*
X121133264Y-75636121D01*
X121103110Y-75620003D01*
X121076684Y-75598316D01*
X121054997Y-75571890D01*
X121038879Y-75541736D01*
X121028955Y-75509024D01*
X121025000Y-75468862D01*
X121025000Y-74781138D01*
X121028955Y-74740976D01*
X121038879Y-74708264D01*
X121054997Y-74678110D01*
X121076684Y-74651684D01*
X121103110Y-74629997D01*
X121133264Y-74613879D01*
X121165976Y-74603955D01*
X121206138Y-74600000D01*
X121793862Y-74600000D01*
X121834024Y-74603955D01*
X121834024Y-74603955D01*
G37*
G36*
X123834024Y-74603955D02*
X123866736Y-74613879D01*
X123896890Y-74629997D01*
X123923316Y-74651684D01*
X123945003Y-74678110D01*
X123961121Y-74708264D01*
X123971045Y-74740976D01*
X123975000Y-74781138D01*
X123975000Y-75468862D01*
X123971045Y-75509024D01*
X123961121Y-75541736D01*
X123945003Y-75571890D01*
X123923316Y-75598316D01*
X123896890Y-75620003D01*
X123866736Y-75636121D01*
X123834024Y-75646045D01*
X123793862Y-75650000D01*
X123206138Y-75650000D01*
X123165976Y-75646045D01*
X123133264Y-75636121D01*
X123103110Y-75620003D01*
X123076684Y-75598316D01*
X123054997Y-75571890D01*
X123038879Y-75541736D01*
X123028955Y-75509024D01*
X123025000Y-75468862D01*
X123025000Y-74781138D01*
X123028955Y-74740976D01*
X123038879Y-74708264D01*
X123054997Y-74678110D01*
X123076684Y-74651684D01*
X123103110Y-74629997D01*
X123133264Y-74613879D01*
X123165976Y-74603955D01*
X123206138Y-74600000D01*
X123793862Y-74600000D01*
X123834024Y-74603955D01*
X123834024Y-74603955D01*
G37*
G36*
X137470000Y-75455000D02*
X136410000Y-75455000D01*
X136410000Y-74805000D01*
X137470000Y-74805000D01*
X137470000Y-75455000D01*
X137470000Y-75455000D01*
G37*
G36*
X139670000Y-75455000D02*
X138610000Y-75455000D01*
X138610000Y-74805000D01*
X139670000Y-74805000D01*
X139670000Y-75455000D01*
X139670000Y-75455000D01*
G37*
G36*
X139670000Y-74505000D02*
X138610000Y-74505000D01*
X138610000Y-73855000D01*
X139670000Y-73855000D01*
X139670000Y-74505000D01*
X139670000Y-74505000D01*
G37*
G36*
X123834024Y-72853955D02*
X123866736Y-72863879D01*
X123896890Y-72879997D01*
X123923316Y-72901684D01*
X123945003Y-72928110D01*
X123961121Y-72958264D01*
X123971045Y-72990976D01*
X123975000Y-73031138D01*
X123975000Y-73718862D01*
X123971045Y-73759024D01*
X123961121Y-73791736D01*
X123945003Y-73821890D01*
X123923316Y-73848316D01*
X123896890Y-73870003D01*
X123866736Y-73886121D01*
X123834024Y-73896045D01*
X123793862Y-73900000D01*
X123206138Y-73900000D01*
X123165976Y-73896045D01*
X123133264Y-73886121D01*
X123103110Y-73870003D01*
X123076684Y-73848316D01*
X123054997Y-73821890D01*
X123038879Y-73791736D01*
X123028955Y-73759024D01*
X123025000Y-73718862D01*
X123025000Y-73031138D01*
X123028955Y-72990976D01*
X123038879Y-72958264D01*
X123054997Y-72928110D01*
X123076684Y-72901684D01*
X123103110Y-72879997D01*
X123133264Y-72863879D01*
X123165976Y-72853955D01*
X123206138Y-72850000D01*
X123793862Y-72850000D01*
X123834024Y-72853955D01*
X123834024Y-72853955D01*
G37*
G36*
X121834024Y-72853955D02*
X121866736Y-72863879D01*
X121896890Y-72879997D01*
X121923316Y-72901684D01*
X121945003Y-72928110D01*
X121961121Y-72958264D01*
X121971045Y-72990976D01*
X121975000Y-73031138D01*
X121975000Y-73718862D01*
X121971045Y-73759024D01*
X121961121Y-73791736D01*
X121945003Y-73821890D01*
X121923316Y-73848316D01*
X121896890Y-73870003D01*
X121866736Y-73886121D01*
X121834024Y-73896045D01*
X121793862Y-73900000D01*
X121206138Y-73900000D01*
X121165976Y-73896045D01*
X121133264Y-73886121D01*
X121103110Y-73870003D01*
X121076684Y-73848316D01*
X121054997Y-73821890D01*
X121038879Y-73791736D01*
X121028955Y-73759024D01*
X121025000Y-73718862D01*
X121025000Y-73031138D01*
X121028955Y-72990976D01*
X121038879Y-72958264D01*
X121054997Y-72928110D01*
X121076684Y-72901684D01*
X121103110Y-72879997D01*
X121133264Y-72863879D01*
X121165976Y-72853955D01*
X121206138Y-72850000D01*
X121793862Y-72850000D01*
X121834024Y-72853955D01*
X121834024Y-72853955D01*
G37*
G36*
X143114024Y-72868955D02*
X143146736Y-72878879D01*
X143176890Y-72894997D01*
X143203316Y-72916684D01*
X143225003Y-72943110D01*
X143241121Y-72973264D01*
X143251045Y-73005976D01*
X143255000Y-73046138D01*
X143255000Y-73633862D01*
X143251045Y-73674024D01*
X143241121Y-73706736D01*
X143225003Y-73736890D01*
X143203316Y-73763316D01*
X143176890Y-73785003D01*
X143146736Y-73801121D01*
X143114024Y-73811045D01*
X143073862Y-73815000D01*
X142386138Y-73815000D01*
X142345976Y-73811045D01*
X142313264Y-73801121D01*
X142283110Y-73785003D01*
X142256684Y-73763316D01*
X142234997Y-73736890D01*
X142218879Y-73706736D01*
X142208955Y-73674024D01*
X142205000Y-73633862D01*
X142205000Y-73046138D01*
X142208955Y-73005976D01*
X142218879Y-72973264D01*
X142234997Y-72943110D01*
X142256684Y-72916684D01*
X142283110Y-72894997D01*
X142313264Y-72878879D01*
X142345976Y-72868955D01*
X142386138Y-72865000D01*
X143073862Y-72865000D01*
X143114024Y-72868955D01*
X143114024Y-72868955D01*
G37*
G36*
X141364024Y-72868955D02*
X141396736Y-72878879D01*
X141426890Y-72894997D01*
X141453316Y-72916684D01*
X141475003Y-72943110D01*
X141491121Y-72973264D01*
X141501045Y-73005976D01*
X141505000Y-73046138D01*
X141505000Y-73633862D01*
X141501045Y-73674024D01*
X141491121Y-73706736D01*
X141475003Y-73736890D01*
X141453316Y-73763316D01*
X141426890Y-73785003D01*
X141396736Y-73801121D01*
X141364024Y-73811045D01*
X141323862Y-73815000D01*
X140636138Y-73815000D01*
X140595976Y-73811045D01*
X140563264Y-73801121D01*
X140533110Y-73785003D01*
X140506684Y-73763316D01*
X140484997Y-73736890D01*
X140468879Y-73706736D01*
X140458955Y-73674024D01*
X140455000Y-73633862D01*
X140455000Y-73046138D01*
X140458955Y-73005976D01*
X140468879Y-72973264D01*
X140484997Y-72943110D01*
X140506684Y-72916684D01*
X140533110Y-72894997D01*
X140563264Y-72878879D01*
X140595976Y-72868955D01*
X140636138Y-72865000D01*
X141323862Y-72865000D01*
X141364024Y-72868955D01*
X141364024Y-72868955D01*
G37*
G36*
X145059024Y-72868955D02*
X145091736Y-72878879D01*
X145121890Y-72894997D01*
X145148316Y-72916684D01*
X145170003Y-72943110D01*
X145186121Y-72973264D01*
X145196045Y-73005976D01*
X145200000Y-73046138D01*
X145200000Y-73633862D01*
X145196045Y-73674024D01*
X145186121Y-73706736D01*
X145170003Y-73736890D01*
X145148316Y-73763316D01*
X145121890Y-73785003D01*
X145091736Y-73801121D01*
X145059024Y-73811045D01*
X145018862Y-73815000D01*
X144331138Y-73815000D01*
X144290976Y-73811045D01*
X144258264Y-73801121D01*
X144228110Y-73785003D01*
X144201684Y-73763316D01*
X144179997Y-73736890D01*
X144163879Y-73706736D01*
X144153955Y-73674024D01*
X144150000Y-73633862D01*
X144150000Y-73046138D01*
X144153955Y-73005976D01*
X144163879Y-72973264D01*
X144179997Y-72943110D01*
X144201684Y-72916684D01*
X144228110Y-72894997D01*
X144258264Y-72878879D01*
X144290976Y-72868955D01*
X144331138Y-72865000D01*
X145018862Y-72865000D01*
X145059024Y-72868955D01*
X145059024Y-72868955D01*
G37*
G36*
X146809024Y-72868955D02*
X146841736Y-72878879D01*
X146871890Y-72894997D01*
X146898316Y-72916684D01*
X146920003Y-72943110D01*
X146936121Y-72973264D01*
X146946045Y-73005976D01*
X146950000Y-73046138D01*
X146950000Y-73633862D01*
X146946045Y-73674024D01*
X146936121Y-73706736D01*
X146920003Y-73736890D01*
X146898316Y-73763316D01*
X146871890Y-73785003D01*
X146841736Y-73801121D01*
X146809024Y-73811045D01*
X146768862Y-73815000D01*
X146081138Y-73815000D01*
X146040976Y-73811045D01*
X146008264Y-73801121D01*
X145978110Y-73785003D01*
X145951684Y-73763316D01*
X145929997Y-73736890D01*
X145913879Y-73706736D01*
X145903955Y-73674024D01*
X145900000Y-73633862D01*
X145900000Y-73046138D01*
X145903955Y-73005976D01*
X145913879Y-72973264D01*
X145929997Y-72943110D01*
X145951684Y-72916684D01*
X145978110Y-72894997D01*
X146008264Y-72878879D01*
X146040976Y-72868955D01*
X146081138Y-72865000D01*
X146768862Y-72865000D01*
X146809024Y-72868955D01*
X146809024Y-72868955D01*
G37*
G36*
X130350000Y-73700000D02*
X129550000Y-73700000D01*
X129550000Y-72800000D01*
X130350000Y-72800000D01*
X130350000Y-73700000D01*
X130350000Y-73700000D01*
G37*
G36*
X135504024Y-72638955D02*
X135536736Y-72648879D01*
X135566890Y-72664997D01*
X135593316Y-72686684D01*
X135615003Y-72713110D01*
X135631121Y-72743264D01*
X135641045Y-72775976D01*
X135645000Y-72816138D01*
X135645000Y-73403862D01*
X135641045Y-73444024D01*
X135631121Y-73476736D01*
X135615003Y-73506890D01*
X135593316Y-73533316D01*
X135566890Y-73555003D01*
X135536736Y-73571121D01*
X135504024Y-73581045D01*
X135463862Y-73585000D01*
X134776138Y-73585000D01*
X134735976Y-73581045D01*
X134703264Y-73571121D01*
X134673110Y-73555003D01*
X134646684Y-73533316D01*
X134624997Y-73506890D01*
X134608879Y-73476736D01*
X134598955Y-73444024D01*
X134595000Y-73403862D01*
X134595000Y-72816138D01*
X134598955Y-72775976D01*
X134608879Y-72743264D01*
X134624997Y-72713110D01*
X134646684Y-72686684D01*
X134673110Y-72664997D01*
X134703264Y-72648879D01*
X134735976Y-72638955D01*
X134776138Y-72635000D01*
X135463862Y-72635000D01*
X135504024Y-72638955D01*
X135504024Y-72638955D01*
G37*
G36*
X133754024Y-72638955D02*
X133786736Y-72648879D01*
X133816890Y-72664997D01*
X133843316Y-72686684D01*
X133865003Y-72713110D01*
X133881121Y-72743264D01*
X133891045Y-72775976D01*
X133895000Y-72816138D01*
X133895000Y-73403862D01*
X133891045Y-73444024D01*
X133881121Y-73476736D01*
X133865003Y-73506890D01*
X133843316Y-73533316D01*
X133816890Y-73555003D01*
X133786736Y-73571121D01*
X133754024Y-73581045D01*
X133713862Y-73585000D01*
X133026138Y-73585000D01*
X132985976Y-73581045D01*
X132953264Y-73571121D01*
X132923110Y-73555003D01*
X132896684Y-73533316D01*
X132874997Y-73506890D01*
X132858879Y-73476736D01*
X132848955Y-73444024D01*
X132845000Y-73403862D01*
X132845000Y-72816138D01*
X132848955Y-72775976D01*
X132858879Y-72743264D01*
X132874997Y-72713110D01*
X132896684Y-72686684D01*
X132923110Y-72664997D01*
X132953264Y-72648879D01*
X132985976Y-72638955D01*
X133026138Y-72635000D01*
X133713862Y-72635000D01*
X133754024Y-72638955D01*
X133754024Y-72638955D01*
G37*
G36*
X137470000Y-73555000D02*
X136410000Y-73555000D01*
X136410000Y-72905000D01*
X137470000Y-72905000D01*
X137470000Y-73555000D01*
X137470000Y-73555000D01*
G37*
G36*
X139670000Y-73555000D02*
X138610000Y-73555000D01*
X138610000Y-72905000D01*
X139670000Y-72905000D01*
X139670000Y-73555000D01*
X139670000Y-73555000D01*
G37*
G36*
X159397612Y-68414429D02*
X159400954Y-68415094D01*
X159400975Y-68415096D01*
X159400995Y-68415102D01*
X159401492Y-68415201D01*
X159402158Y-68415477D01*
X159425607Y-68422592D01*
X159449993Y-68424995D01*
X159474380Y-68422594D01*
X159497842Y-68415477D01*
X159498508Y-68415201D01*
X159499005Y-68415102D01*
X159499025Y-68415096D01*
X159499046Y-68415094D01*
X159502388Y-68414429D01*
X159503070Y-68414395D01*
X159896930Y-68414395D01*
X159897612Y-68414429D01*
X159900954Y-68415094D01*
X159900975Y-68415096D01*
X159900995Y-68415102D01*
X159901492Y-68415201D01*
X159902158Y-68415477D01*
X159925607Y-68422592D01*
X159949993Y-68424995D01*
X159974380Y-68422594D01*
X159997842Y-68415477D01*
X159998508Y-68415201D01*
X159999005Y-68415102D01*
X159999025Y-68415096D01*
X159999046Y-68415094D01*
X160002388Y-68414429D01*
X160003070Y-68414395D01*
X160396930Y-68414395D01*
X160397612Y-68414429D01*
X160400954Y-68415094D01*
X160400975Y-68415096D01*
X160400995Y-68415102D01*
X160401492Y-68415201D01*
X160402158Y-68415477D01*
X160425607Y-68422592D01*
X160449993Y-68424995D01*
X160474380Y-68422594D01*
X160497842Y-68415477D01*
X160498508Y-68415201D01*
X160499005Y-68415102D01*
X160499025Y-68415096D01*
X160499046Y-68415094D01*
X160502388Y-68414429D01*
X160503070Y-68414395D01*
X160896930Y-68414395D01*
X160897612Y-68414429D01*
X160900954Y-68415094D01*
X160900975Y-68415096D01*
X160900995Y-68415102D01*
X160901492Y-68415201D01*
X160902362Y-68415562D01*
X160903136Y-68416078D01*
X160903459Y-68416401D01*
X160903536Y-68416464D01*
X160903599Y-68416541D01*
X160903922Y-68416864D01*
X160904438Y-68417638D01*
X160904799Y-68418508D01*
X160904898Y-68419005D01*
X160904904Y-68419025D01*
X160904906Y-68419046D01*
X160905571Y-68422388D01*
X160905605Y-68423070D01*
X160905605Y-69076930D01*
X160905571Y-69077612D01*
X160904907Y-69080949D01*
X160904904Y-69080975D01*
X160904896Y-69081000D01*
X160903013Y-69090459D01*
X160900605Y-69114874D01*
X160900605Y-69493863D01*
X160900001Y-69499999D01*
X160896080Y-69504776D01*
X160764849Y-69636007D01*
X160749303Y-69654949D01*
X160737752Y-69676560D01*
X160730639Y-69700009D01*
X160728237Y-69724395D01*
X160730639Y-69748781D01*
X160737752Y-69772230D01*
X160749303Y-69793841D01*
X160764849Y-69812783D01*
X160783791Y-69828329D01*
X160805402Y-69839880D01*
X160828851Y-69846993D01*
X160853237Y-69849395D01*
X161135126Y-69849395D01*
X161159541Y-69846987D01*
X161169000Y-69845104D01*
X161169025Y-69845096D01*
X161169051Y-69845093D01*
X161172388Y-69844429D01*
X161173070Y-69844395D01*
X161826930Y-69844395D01*
X161827612Y-69844429D01*
X161830954Y-69845094D01*
X161830975Y-69845096D01*
X161830995Y-69845102D01*
X161831492Y-69845201D01*
X161832362Y-69845562D01*
X161833136Y-69846078D01*
X161833459Y-69846401D01*
X161833536Y-69846464D01*
X161833599Y-69846541D01*
X161833922Y-69846864D01*
X161834438Y-69847638D01*
X161834799Y-69848508D01*
X161834898Y-69849005D01*
X161834904Y-69849025D01*
X161834906Y-69849046D01*
X161835571Y-69852388D01*
X161835605Y-69853070D01*
X161835605Y-70246930D01*
X161835571Y-70247612D01*
X161834906Y-70250954D01*
X161834904Y-70250975D01*
X161834898Y-70250995D01*
X161834799Y-70251492D01*
X161834523Y-70252158D01*
X161827408Y-70275607D01*
X161825005Y-70299993D01*
X161827406Y-70324380D01*
X161834523Y-70347842D01*
X161834799Y-70348508D01*
X161834898Y-70349005D01*
X161834904Y-70349025D01*
X161834906Y-70349046D01*
X161835571Y-70352388D01*
X161835605Y-70353070D01*
X161835605Y-70746930D01*
X161835571Y-70747612D01*
X161834906Y-70750954D01*
X161834904Y-70750975D01*
X161834898Y-70750995D01*
X161834799Y-70751492D01*
X161834523Y-70752158D01*
X161827408Y-70775607D01*
X161825005Y-70799993D01*
X161827406Y-70824380D01*
X161834523Y-70847842D01*
X161834799Y-70848508D01*
X161834898Y-70849005D01*
X161834904Y-70849025D01*
X161834906Y-70849046D01*
X161835571Y-70852388D01*
X161835605Y-70853070D01*
X161835605Y-71246930D01*
X161835571Y-71247612D01*
X161834906Y-71250954D01*
X161834904Y-71250975D01*
X161834898Y-71250995D01*
X161834799Y-71251492D01*
X161834438Y-71252362D01*
X161833922Y-71253136D01*
X161833599Y-71253459D01*
X161833536Y-71253536D01*
X161833459Y-71253599D01*
X161833136Y-71253922D01*
X161832362Y-71254438D01*
X161831492Y-71254799D01*
X161830995Y-71254898D01*
X161830975Y-71254904D01*
X161830954Y-71254906D01*
X161827612Y-71255571D01*
X161826930Y-71255605D01*
X161173070Y-71255605D01*
X161172388Y-71255571D01*
X161169051Y-71254907D01*
X161169025Y-71254904D01*
X161169000Y-71254896D01*
X161159541Y-71253013D01*
X161135126Y-71250605D01*
X160853237Y-71250605D01*
X160828851Y-71253007D01*
X160805402Y-71260120D01*
X160783791Y-71271671D01*
X160764849Y-71287217D01*
X160749303Y-71306159D01*
X160737752Y-71327770D01*
X160730639Y-71351219D01*
X160728237Y-71375605D01*
X160730639Y-71399991D01*
X160737752Y-71423440D01*
X160749303Y-71445051D01*
X160764849Y-71463993D01*
X160896080Y-71595224D01*
X160900000Y-71600000D01*
X160900001Y-71600001D01*
X160900605Y-71606137D01*
X160900605Y-71985126D01*
X160903013Y-72009541D01*
X160904896Y-72019000D01*
X160904904Y-72019025D01*
X160904907Y-72019051D01*
X160905571Y-72022388D01*
X160905605Y-72023070D01*
X160905605Y-72676930D01*
X160905571Y-72677612D01*
X160904906Y-72680954D01*
X160904904Y-72680975D01*
X160904898Y-72680995D01*
X160904799Y-72681492D01*
X160904438Y-72682362D01*
X160903922Y-72683136D01*
X160903599Y-72683459D01*
X160903536Y-72683536D01*
X160903459Y-72683599D01*
X160903136Y-72683922D01*
X160902362Y-72684438D01*
X160901492Y-72684799D01*
X160900995Y-72684898D01*
X160900975Y-72684904D01*
X160900954Y-72684906D01*
X160897612Y-72685571D01*
X160896930Y-72685605D01*
X160503070Y-72685605D01*
X160502388Y-72685571D01*
X160499046Y-72684906D01*
X160499025Y-72684904D01*
X160499005Y-72684898D01*
X160498508Y-72684799D01*
X160497842Y-72684523D01*
X160474393Y-72677408D01*
X160450007Y-72675005D01*
X160425620Y-72677406D01*
X160402158Y-72684523D01*
X160401492Y-72684799D01*
X160400995Y-72684898D01*
X160400975Y-72684904D01*
X160400954Y-72684906D01*
X160397612Y-72685571D01*
X160396930Y-72685605D01*
X160003070Y-72685605D01*
X160002388Y-72685571D01*
X159999046Y-72684906D01*
X159999025Y-72684904D01*
X159999005Y-72684898D01*
X159998508Y-72684799D01*
X159997842Y-72684523D01*
X159974393Y-72677408D01*
X159950007Y-72675005D01*
X159925620Y-72677406D01*
X159902158Y-72684523D01*
X159901492Y-72684799D01*
X159900995Y-72684898D01*
X159900975Y-72684904D01*
X159900954Y-72684906D01*
X159897612Y-72685571D01*
X159896930Y-72685605D01*
X159503070Y-72685605D01*
X159502388Y-72685571D01*
X159499046Y-72684906D01*
X159499025Y-72684904D01*
X159499005Y-72684898D01*
X159498508Y-72684799D01*
X159497842Y-72684523D01*
X159474393Y-72677408D01*
X159450007Y-72675005D01*
X159425620Y-72677406D01*
X159402158Y-72684523D01*
X159401492Y-72684799D01*
X159400995Y-72684898D01*
X159400975Y-72684904D01*
X159400954Y-72684906D01*
X159397612Y-72685571D01*
X159396930Y-72685605D01*
X159003070Y-72685605D01*
X159002388Y-72685571D01*
X158999046Y-72684906D01*
X158999025Y-72684904D01*
X158999005Y-72684898D01*
X158998508Y-72684799D01*
X158997638Y-72684438D01*
X158996864Y-72683922D01*
X158996541Y-72683599D01*
X158996464Y-72683536D01*
X158996401Y-72683459D01*
X158996078Y-72683136D01*
X158995562Y-72682362D01*
X158995201Y-72681492D01*
X158995102Y-72680995D01*
X158995096Y-72680975D01*
X158995094Y-72680954D01*
X158994429Y-72677612D01*
X158994395Y-72676930D01*
X158994395Y-72023070D01*
X158994429Y-72022388D01*
X158995093Y-72019051D01*
X158995096Y-72019025D01*
X158995104Y-72019000D01*
X158996987Y-72009541D01*
X158999395Y-71985126D01*
X158999395Y-71606137D01*
X158999999Y-71600001D01*
X159000000Y-71600000D01*
X159003920Y-71595224D01*
X159135151Y-71463993D01*
X159150697Y-71445051D01*
X159162248Y-71423440D01*
X159169361Y-71399991D01*
X159171763Y-71375605D01*
X159169361Y-71351219D01*
X159162248Y-71327770D01*
X159150697Y-71306159D01*
X159135151Y-71287217D01*
X159116209Y-71271671D01*
X159094598Y-71260120D01*
X159071149Y-71253007D01*
X159046763Y-71250605D01*
X158764874Y-71250605D01*
X158740459Y-71253013D01*
X158731000Y-71254896D01*
X158730975Y-71254904D01*
X158730949Y-71254907D01*
X158727612Y-71255571D01*
X158726930Y-71255605D01*
X158073070Y-71255605D01*
X158072388Y-71255571D01*
X158069046Y-71254906D01*
X158069025Y-71254904D01*
X158069005Y-71254898D01*
X158068508Y-71254799D01*
X158067638Y-71254438D01*
X158066864Y-71253922D01*
X158066541Y-71253599D01*
X158066464Y-71253536D01*
X158066401Y-71253459D01*
X158066078Y-71253136D01*
X158065562Y-71252362D01*
X158065201Y-71251492D01*
X158065102Y-71250995D01*
X158065096Y-71250975D01*
X158065094Y-71250954D01*
X158064429Y-71247612D01*
X158064395Y-71246930D01*
X158064395Y-70853070D01*
X158064429Y-70852388D01*
X158065094Y-70849046D01*
X158065096Y-70849025D01*
X158065102Y-70849005D01*
X158065201Y-70848508D01*
X158065477Y-70847842D01*
X158072592Y-70824393D01*
X158074995Y-70800007D01*
X158072594Y-70775620D01*
X158065477Y-70752158D01*
X158065201Y-70751492D01*
X158065102Y-70750995D01*
X158065096Y-70750975D01*
X158065094Y-70750954D01*
X158064429Y-70747612D01*
X158064395Y-70746930D01*
X158064395Y-70353070D01*
X158064429Y-70352388D01*
X158065094Y-70349046D01*
X158065096Y-70349025D01*
X158065102Y-70349005D01*
X158065201Y-70348508D01*
X158065477Y-70347842D01*
X158072592Y-70324393D01*
X158074995Y-70300007D01*
X158072594Y-70275620D01*
X158065477Y-70252158D01*
X158065201Y-70251492D01*
X158065102Y-70250995D01*
X158065096Y-70250975D01*
X158065094Y-70250954D01*
X158064429Y-70247612D01*
X158064395Y-70246930D01*
X158064395Y-69875605D01*
X159228237Y-69875605D01*
X159230639Y-69899991D01*
X159237752Y-69923440D01*
X159249303Y-69945051D01*
X159264849Y-69963993D01*
X159396080Y-70095224D01*
X159400000Y-70100000D01*
X159400001Y-70100001D01*
X159400605Y-70106137D01*
X159400605Y-70243863D01*
X159400001Y-70249999D01*
X159397061Y-70259690D01*
X159395390Y-70263725D01*
X159390612Y-70287758D01*
X159390614Y-70312263D01*
X159395397Y-70336296D01*
X159397065Y-70340322D01*
X159400001Y-70350000D01*
X159400605Y-70356137D01*
X159400605Y-70743863D01*
X159400001Y-70749999D01*
X159397061Y-70759690D01*
X159395390Y-70763725D01*
X159390612Y-70787758D01*
X159390614Y-70812263D01*
X159395397Y-70836296D01*
X159397065Y-70840322D01*
X159400001Y-70850000D01*
X159400605Y-70856137D01*
X159400605Y-70993863D01*
X159400001Y-70999999D01*
X159396080Y-71004776D01*
X159264849Y-71136007D01*
X159249303Y-71154949D01*
X159237752Y-71176560D01*
X159230639Y-71200009D01*
X159228237Y-71224395D01*
X159230639Y-71248781D01*
X159237752Y-71272230D01*
X159249303Y-71293841D01*
X159264849Y-71312783D01*
X159283791Y-71328329D01*
X159305402Y-71339880D01*
X159328851Y-71346993D01*
X159353237Y-71349395D01*
X159393863Y-71349395D01*
X159399999Y-71349999D01*
X159409690Y-71352939D01*
X159413725Y-71354610D01*
X159437758Y-71359388D01*
X159462263Y-71359386D01*
X159486296Y-71354603D01*
X159490322Y-71352935D01*
X159500001Y-71349999D01*
X159506137Y-71349395D01*
X159893863Y-71349395D01*
X159899999Y-71349999D01*
X159909690Y-71352939D01*
X159913725Y-71354610D01*
X159937758Y-71359388D01*
X159962263Y-71359386D01*
X159986296Y-71354603D01*
X159990322Y-71352935D01*
X160000001Y-71349999D01*
X160006137Y-71349395D01*
X160393863Y-71349395D01*
X160399999Y-71349999D01*
X160409690Y-71352939D01*
X160413725Y-71354610D01*
X160437758Y-71359388D01*
X160462263Y-71359386D01*
X160486296Y-71354603D01*
X160490322Y-71352935D01*
X160500001Y-71349999D01*
X160506137Y-71349395D01*
X160546763Y-71349395D01*
X160571149Y-71346993D01*
X160594598Y-71339880D01*
X160616209Y-71328329D01*
X160635151Y-71312783D01*
X160650697Y-71293841D01*
X160662248Y-71272230D01*
X160669361Y-71248781D01*
X160671763Y-71224395D01*
X160669361Y-71200009D01*
X160662248Y-71176560D01*
X160650697Y-71154949D01*
X160635151Y-71136007D01*
X160503920Y-71004776D01*
X160499999Y-70999999D01*
X160499395Y-70993863D01*
X160499395Y-70856137D01*
X160499999Y-70850000D01*
X160502939Y-70840310D01*
X160504610Y-70836275D01*
X160509388Y-70812242D01*
X160509386Y-70787737D01*
X160504603Y-70763704D01*
X160502935Y-70759678D01*
X160499999Y-70749999D01*
X160499395Y-70743863D01*
X160499395Y-70356137D01*
X160499999Y-70350000D01*
X160502939Y-70340310D01*
X160504610Y-70336275D01*
X160509388Y-70312242D01*
X160509386Y-70287737D01*
X160504603Y-70263704D01*
X160502935Y-70259678D01*
X160499999Y-70249999D01*
X160499395Y-70243863D01*
X160499395Y-70106137D01*
X160499999Y-70100001D01*
X160500000Y-70100000D01*
X160503920Y-70095224D01*
X160635151Y-69963993D01*
X160650697Y-69945051D01*
X160662248Y-69923440D01*
X160669361Y-69899991D01*
X160671763Y-69875605D01*
X160669361Y-69851219D01*
X160662248Y-69827770D01*
X160650697Y-69806159D01*
X160635151Y-69787217D01*
X160616209Y-69771671D01*
X160594598Y-69760120D01*
X160571149Y-69753007D01*
X160546763Y-69750605D01*
X160506137Y-69750605D01*
X160500001Y-69750001D01*
X160490310Y-69747061D01*
X160486275Y-69745390D01*
X160462242Y-69740612D01*
X160437737Y-69740614D01*
X160413704Y-69745397D01*
X160409678Y-69747065D01*
X160399999Y-69750001D01*
X160393863Y-69750605D01*
X160006137Y-69750605D01*
X160000001Y-69750001D01*
X159990310Y-69747061D01*
X159986275Y-69745390D01*
X159962242Y-69740612D01*
X159937737Y-69740614D01*
X159913704Y-69745397D01*
X159909678Y-69747065D01*
X159899999Y-69750001D01*
X159893863Y-69750605D01*
X159506137Y-69750605D01*
X159500001Y-69750001D01*
X159490310Y-69747061D01*
X159486275Y-69745390D01*
X159462242Y-69740612D01*
X159437737Y-69740614D01*
X159413704Y-69745397D01*
X159409678Y-69747065D01*
X159399999Y-69750001D01*
X159393863Y-69750605D01*
X159353237Y-69750605D01*
X159328851Y-69753007D01*
X159305402Y-69760120D01*
X159283791Y-69771671D01*
X159264849Y-69787217D01*
X159249303Y-69806159D01*
X159237752Y-69827770D01*
X159230639Y-69851219D01*
X159228237Y-69875605D01*
X158064395Y-69875605D01*
X158064395Y-69853070D01*
X158064429Y-69852388D01*
X158065094Y-69849046D01*
X158065096Y-69849025D01*
X158065102Y-69849005D01*
X158065201Y-69848508D01*
X158065562Y-69847638D01*
X158066078Y-69846864D01*
X158066401Y-69846541D01*
X158066464Y-69846464D01*
X158066541Y-69846401D01*
X158066864Y-69846078D01*
X158067638Y-69845562D01*
X158068508Y-69845201D01*
X158069005Y-69845102D01*
X158069025Y-69845096D01*
X158069046Y-69845094D01*
X158072388Y-69844429D01*
X158073070Y-69844395D01*
X158726930Y-69844395D01*
X158727612Y-69844429D01*
X158730949Y-69845093D01*
X158730975Y-69845096D01*
X158731000Y-69845104D01*
X158740459Y-69846987D01*
X158764874Y-69849395D01*
X159046763Y-69849395D01*
X159071149Y-69846993D01*
X159094598Y-69839880D01*
X159116209Y-69828329D01*
X159135151Y-69812783D01*
X159150697Y-69793841D01*
X159162248Y-69772230D01*
X159169361Y-69748781D01*
X159171763Y-69724395D01*
X159169361Y-69700009D01*
X159162248Y-69676560D01*
X159150697Y-69654949D01*
X159135151Y-69636007D01*
X159003920Y-69504776D01*
X158999999Y-69499999D01*
X158999395Y-69493863D01*
X158999395Y-69114874D01*
X158996987Y-69090459D01*
X158995104Y-69081000D01*
X158995096Y-69080975D01*
X158995093Y-69080949D01*
X158994429Y-69077612D01*
X158994395Y-69076930D01*
X158994395Y-68423070D01*
X158994429Y-68422388D01*
X158995094Y-68419046D01*
X158995096Y-68419025D01*
X158995102Y-68419005D01*
X158995201Y-68418508D01*
X158995562Y-68417638D01*
X158996078Y-68416864D01*
X158996401Y-68416541D01*
X158996464Y-68416464D01*
X158996541Y-68416401D01*
X158996864Y-68416078D01*
X158997638Y-68415562D01*
X158998508Y-68415201D01*
X158999005Y-68415102D01*
X158999025Y-68415096D01*
X158999046Y-68415094D01*
X159002388Y-68414429D01*
X159003070Y-68414395D01*
X159396930Y-68414395D01*
X159397612Y-68414429D01*
X159397612Y-68414429D01*
G37*
G36*
X156964024Y-71078351D02*
X156996736Y-71088275D01*
X157026890Y-71104393D01*
X157053316Y-71126080D01*
X157075003Y-71152506D01*
X157091121Y-71182660D01*
X157101045Y-71215372D01*
X157105000Y-71255534D01*
X157105000Y-71843258D01*
X157101045Y-71883420D01*
X157091121Y-71916132D01*
X157075003Y-71946286D01*
X157053316Y-71972712D01*
X157026890Y-71994399D01*
X156996736Y-72010517D01*
X156964024Y-72020441D01*
X156923862Y-72024396D01*
X156236138Y-72024396D01*
X156195976Y-72020441D01*
X156163264Y-72010517D01*
X156133110Y-71994399D01*
X156106684Y-71972712D01*
X156084997Y-71946286D01*
X156068879Y-71916132D01*
X156058955Y-71883420D01*
X156055000Y-71843258D01*
X156055000Y-71255534D01*
X156058955Y-71215372D01*
X156068879Y-71182660D01*
X156084997Y-71152506D01*
X156106684Y-71126080D01*
X156133110Y-71104393D01*
X156163264Y-71088275D01*
X156195976Y-71078351D01*
X156236138Y-71074396D01*
X156923862Y-71074396D01*
X156964024Y-71078351D01*
X156964024Y-71078351D01*
G37*
G36*
X155214024Y-71078351D02*
X155246736Y-71088275D01*
X155276890Y-71104393D01*
X155303316Y-71126080D01*
X155325003Y-71152506D01*
X155341121Y-71182660D01*
X155351045Y-71215372D01*
X155355000Y-71255534D01*
X155355000Y-71843258D01*
X155351045Y-71883420D01*
X155341121Y-71916132D01*
X155325003Y-71946286D01*
X155303316Y-71972712D01*
X155276890Y-71994399D01*
X155246736Y-72010517D01*
X155214024Y-72020441D01*
X155173862Y-72024396D01*
X154486138Y-72024396D01*
X154445976Y-72020441D01*
X154413264Y-72010517D01*
X154383110Y-71994399D01*
X154356684Y-71972712D01*
X154334997Y-71946286D01*
X154318879Y-71916132D01*
X154308955Y-71883420D01*
X154305000Y-71843258D01*
X154305000Y-71255534D01*
X154308955Y-71215372D01*
X154318879Y-71182660D01*
X154334997Y-71152506D01*
X154356684Y-71126080D01*
X154383110Y-71104393D01*
X154413264Y-71088275D01*
X154445976Y-71078351D01*
X154486138Y-71074396D01*
X155173862Y-71074396D01*
X155214024Y-71078351D01*
X155214024Y-71078351D01*
G37*
G36*
X142060000Y-71470000D02*
X141060000Y-71470000D01*
X141060000Y-70470000D01*
X142060000Y-70470000D01*
X142060000Y-71470000D01*
X142060000Y-71470000D01*
G37*
G36*
X139560000Y-71470000D02*
X138560000Y-71470000D01*
X138560000Y-70470000D01*
X139560000Y-70470000D01*
X139560000Y-71470000D01*
X139560000Y-71470000D01*
G37*
G36*
X137619024Y-70508955D02*
X137651736Y-70518879D01*
X137681890Y-70534997D01*
X137708316Y-70556684D01*
X137730003Y-70583110D01*
X137746121Y-70613264D01*
X137756045Y-70645976D01*
X137760000Y-70686138D01*
X137760000Y-71273862D01*
X137756045Y-71314024D01*
X137746121Y-71346736D01*
X137730003Y-71376890D01*
X137708316Y-71403316D01*
X137681890Y-71425003D01*
X137651736Y-71441121D01*
X137619024Y-71451045D01*
X137578862Y-71455000D01*
X136891138Y-71455000D01*
X136850976Y-71451045D01*
X136818264Y-71441121D01*
X136788110Y-71425003D01*
X136761684Y-71403316D01*
X136739997Y-71376890D01*
X136723879Y-71346736D01*
X136713955Y-71314024D01*
X136710000Y-71273862D01*
X136710000Y-70686138D01*
X136713955Y-70645976D01*
X136723879Y-70613264D01*
X136739997Y-70583110D01*
X136761684Y-70556684D01*
X136788110Y-70534997D01*
X136818264Y-70518879D01*
X136850976Y-70508955D01*
X136891138Y-70505000D01*
X137578862Y-70505000D01*
X137619024Y-70508955D01*
X137619024Y-70508955D01*
G37*
G36*
X135869024Y-70508955D02*
X135901736Y-70518879D01*
X135931890Y-70534997D01*
X135958316Y-70556684D01*
X135980003Y-70583110D01*
X135996121Y-70613264D01*
X136006045Y-70645976D01*
X136010000Y-70686138D01*
X136010000Y-71273862D01*
X136006045Y-71314024D01*
X135996121Y-71346736D01*
X135980003Y-71376890D01*
X135958316Y-71403316D01*
X135931890Y-71425003D01*
X135901736Y-71441121D01*
X135869024Y-71451045D01*
X135828862Y-71455000D01*
X135141138Y-71455000D01*
X135100976Y-71451045D01*
X135068264Y-71441121D01*
X135038110Y-71425003D01*
X135011684Y-71403316D01*
X134989997Y-71376890D01*
X134973879Y-71346736D01*
X134963955Y-71314024D01*
X134960000Y-71273862D01*
X134960000Y-70686138D01*
X134963955Y-70645976D01*
X134973879Y-70613264D01*
X134989997Y-70583110D01*
X135011684Y-70556684D01*
X135038110Y-70534997D01*
X135068264Y-70518879D01*
X135100976Y-70508955D01*
X135141138Y-70505000D01*
X135828862Y-70505000D01*
X135869024Y-70508955D01*
X135869024Y-70508955D01*
G37*
G36*
X127384024Y-69278955D02*
X127416736Y-69288879D01*
X127446890Y-69304997D01*
X127473316Y-69326684D01*
X127495003Y-69353110D01*
X127511121Y-69383264D01*
X127521045Y-69415976D01*
X127525000Y-69456138D01*
X127525000Y-70043862D01*
X127521045Y-70084024D01*
X127511121Y-70116736D01*
X127495003Y-70146890D01*
X127473316Y-70173316D01*
X127446890Y-70195003D01*
X127416736Y-70211121D01*
X127384024Y-70221045D01*
X127343862Y-70225000D01*
X126656138Y-70225000D01*
X126615976Y-70221045D01*
X126583264Y-70211121D01*
X126553110Y-70195003D01*
X126526684Y-70173316D01*
X126504997Y-70146890D01*
X126488879Y-70116736D01*
X126478955Y-70084024D01*
X126475000Y-70043862D01*
X126475000Y-69456138D01*
X126478955Y-69415976D01*
X126488879Y-69383264D01*
X126504997Y-69353110D01*
X126526684Y-69326684D01*
X126553110Y-69304997D01*
X126583264Y-69288879D01*
X126615976Y-69278955D01*
X126656138Y-69275000D01*
X127343862Y-69275000D01*
X127384024Y-69278955D01*
X127384024Y-69278955D01*
G37*
G36*
X125634024Y-69278955D02*
X125666736Y-69288879D01*
X125696890Y-69304997D01*
X125723316Y-69326684D01*
X125745003Y-69353110D01*
X125761121Y-69383264D01*
X125771045Y-69415976D01*
X125775000Y-69456138D01*
X125775000Y-70043862D01*
X125771045Y-70084024D01*
X125761121Y-70116736D01*
X125745003Y-70146890D01*
X125723316Y-70173316D01*
X125696890Y-70195003D01*
X125666736Y-70211121D01*
X125634024Y-70221045D01*
X125593862Y-70225000D01*
X124906138Y-70225000D01*
X124865976Y-70221045D01*
X124833264Y-70211121D01*
X124803110Y-70195003D01*
X124776684Y-70173316D01*
X124754997Y-70146890D01*
X124738879Y-70116736D01*
X124728955Y-70084024D01*
X124725000Y-70043862D01*
X124725000Y-69456138D01*
X124728955Y-69415976D01*
X124738879Y-69383264D01*
X124754997Y-69353110D01*
X124776684Y-69326684D01*
X124803110Y-69304997D01*
X124833264Y-69288879D01*
X124865976Y-69278955D01*
X124906138Y-69275000D01*
X125593862Y-69275000D01*
X125634024Y-69278955D01*
X125634024Y-69278955D01*
G37*
G36*
X127384024Y-67778955D02*
X127416736Y-67788879D01*
X127446890Y-67804997D01*
X127473316Y-67826684D01*
X127495003Y-67853110D01*
X127511121Y-67883264D01*
X127521045Y-67915976D01*
X127525000Y-67956138D01*
X127525000Y-68543862D01*
X127521045Y-68584024D01*
X127511121Y-68616736D01*
X127495003Y-68646890D01*
X127473316Y-68673316D01*
X127446890Y-68695003D01*
X127416736Y-68711121D01*
X127384024Y-68721045D01*
X127343862Y-68725000D01*
X126656138Y-68725000D01*
X126615976Y-68721045D01*
X126583264Y-68711121D01*
X126553110Y-68695003D01*
X126526684Y-68673316D01*
X126504997Y-68646890D01*
X126488879Y-68616736D01*
X126478955Y-68584024D01*
X126475000Y-68543862D01*
X126475000Y-67956138D01*
X126478955Y-67915976D01*
X126488879Y-67883264D01*
X126504997Y-67853110D01*
X126526684Y-67826684D01*
X126553110Y-67804997D01*
X126583264Y-67788879D01*
X126615976Y-67778955D01*
X126656138Y-67775000D01*
X127343862Y-67775000D01*
X127384024Y-67778955D01*
X127384024Y-67778955D01*
G37*
G36*
X125634024Y-67778955D02*
X125666736Y-67788879D01*
X125696890Y-67804997D01*
X125723316Y-67826684D01*
X125745003Y-67853110D01*
X125761121Y-67883264D01*
X125771045Y-67915976D01*
X125775000Y-67956138D01*
X125775000Y-68543862D01*
X125771045Y-68584024D01*
X125761121Y-68616736D01*
X125745003Y-68646890D01*
X125723316Y-68673316D01*
X125696890Y-68695003D01*
X125666736Y-68711121D01*
X125634024Y-68721045D01*
X125593862Y-68725000D01*
X124906138Y-68725000D01*
X124865976Y-68721045D01*
X124833264Y-68711121D01*
X124803110Y-68695003D01*
X124776684Y-68673316D01*
X124754997Y-68646890D01*
X124738879Y-68616736D01*
X124728955Y-68584024D01*
X124725000Y-68543862D01*
X124725000Y-67956138D01*
X124728955Y-67915976D01*
X124738879Y-67883264D01*
X124754997Y-67853110D01*
X124776684Y-67826684D01*
X124803110Y-67804997D01*
X124833264Y-67788879D01*
X124865976Y-67778955D01*
X124906138Y-67775000D01*
X125593862Y-67775000D01*
X125634024Y-67778955D01*
X125634024Y-67778955D01*
G37*
M02*
