G04 #@! TF.GenerationSoftware,KiCad,Pcbnew,5.0.2-bee76a0~70~ubuntu18.04.1*
G04 #@! TF.CreationDate,2020-10-11T23:46:09-07:00*
G04 #@! TF.ProjectId,light_thing_hw,6c696768-745f-4746-9869-6e675f68772e,rev?*
G04 #@! TF.SameCoordinates,Original*
G04 #@! TF.FileFunction,Soldermask,Top*
G04 #@! TF.FilePolarity,Negative*
%FSLAX46Y46*%
G04 Gerber Fmt 4.6, Leading zero omitted, Abs format (unit mm)*
G04 Created by KiCad (PCBNEW 5.0.2-bee76a0~70~ubuntu18.04.1) date Sun 11 Oct 2020 11:46:09 PM PDT*
%MOMM*%
%LPD*%
G01*
G04 APERTURE LIST*
%ADD10C,0.100000*%
G04 APERTURE END LIST*
D10*
G36*
X145084024Y-102548955D02*
X145116736Y-102558879D01*
X145146890Y-102574997D01*
X145173316Y-102596684D01*
X145195003Y-102623110D01*
X145211121Y-102653264D01*
X145221045Y-102685976D01*
X145225000Y-102726138D01*
X145225000Y-103313862D01*
X145221045Y-103354024D01*
X145211121Y-103386736D01*
X145195003Y-103416890D01*
X145173316Y-103443316D01*
X145146890Y-103465003D01*
X145116736Y-103481121D01*
X145084024Y-103491045D01*
X145043862Y-103495000D01*
X144356138Y-103495000D01*
X144315976Y-103491045D01*
X144283264Y-103481121D01*
X144253110Y-103465003D01*
X144226684Y-103443316D01*
X144204997Y-103416890D01*
X144188879Y-103386736D01*
X144178955Y-103354024D01*
X144175000Y-103313862D01*
X144175000Y-102726138D01*
X144178955Y-102685976D01*
X144188879Y-102653264D01*
X144204997Y-102623110D01*
X144226684Y-102596684D01*
X144253110Y-102574997D01*
X144283264Y-102558879D01*
X144315976Y-102548955D01*
X144356138Y-102545000D01*
X145043862Y-102545000D01*
X145084024Y-102548955D01*
X145084024Y-102548955D01*
G37*
G36*
X143334024Y-102548955D02*
X143366736Y-102558879D01*
X143396890Y-102574997D01*
X143423316Y-102596684D01*
X143445003Y-102623110D01*
X143461121Y-102653264D01*
X143471045Y-102685976D01*
X143475000Y-102726138D01*
X143475000Y-103313862D01*
X143471045Y-103354024D01*
X143461121Y-103386736D01*
X143445003Y-103416890D01*
X143423316Y-103443316D01*
X143396890Y-103465003D01*
X143366736Y-103481121D01*
X143334024Y-103491045D01*
X143293862Y-103495000D01*
X142606138Y-103495000D01*
X142565976Y-103491045D01*
X142533264Y-103481121D01*
X142503110Y-103465003D01*
X142476684Y-103443316D01*
X142454997Y-103416890D01*
X142438879Y-103386736D01*
X142428955Y-103354024D01*
X142425000Y-103313862D01*
X142425000Y-102726138D01*
X142428955Y-102685976D01*
X142438879Y-102653264D01*
X142454997Y-102623110D01*
X142470434Y-102604299D01*
X142484048Y-102583925D01*
X142484714Y-102582318D01*
X142498924Y-102577233D01*
X142533262Y-102558879D01*
X142565976Y-102548955D01*
X142606138Y-102545000D01*
X143293862Y-102545000D01*
X143334024Y-102548955D01*
X143334024Y-102548955D01*
G37*
G36*
X149794024Y-102208955D02*
X149826736Y-102218879D01*
X149856890Y-102234997D01*
X149883316Y-102256684D01*
X149905003Y-102283110D01*
X149921121Y-102313264D01*
X149931045Y-102345976D01*
X149935000Y-102386138D01*
X149935000Y-103073862D01*
X149931045Y-103114024D01*
X149921121Y-103146736D01*
X149905003Y-103176890D01*
X149883316Y-103203316D01*
X149856890Y-103225003D01*
X149826736Y-103241121D01*
X149794024Y-103251045D01*
X149753862Y-103255000D01*
X149166138Y-103255000D01*
X149125976Y-103251045D01*
X149093264Y-103241121D01*
X149063110Y-103225003D01*
X149036684Y-103203316D01*
X149014997Y-103176890D01*
X148998879Y-103146736D01*
X148988955Y-103114024D01*
X148985000Y-103073862D01*
X148985000Y-102386138D01*
X148988955Y-102345976D01*
X148998879Y-102313264D01*
X149014997Y-102283110D01*
X149036684Y-102256684D01*
X149063110Y-102234997D01*
X149093264Y-102218879D01*
X149125976Y-102208955D01*
X149166138Y-102205000D01*
X149753862Y-102205000D01*
X149794024Y-102208955D01*
X149794024Y-102208955D01*
G37*
G36*
X142315000Y-102400000D02*
X140765000Y-102400000D01*
X140765000Y-101100000D01*
X142315000Y-101100000D01*
X142315000Y-102400000D01*
X142315000Y-102400000D01*
G37*
G36*
X134355000Y-102400000D02*
X132805000Y-102400000D01*
X132805000Y-101100000D01*
X134355000Y-101100000D01*
X134355000Y-102400000D01*
X134355000Y-102400000D01*
G37*
G36*
X149794024Y-100458955D02*
X149826736Y-100468879D01*
X149856890Y-100484997D01*
X149883316Y-100506684D01*
X149905003Y-100533110D01*
X149921121Y-100563264D01*
X149931045Y-100595976D01*
X149935000Y-100636138D01*
X149935000Y-101323862D01*
X149931045Y-101364024D01*
X149921121Y-101396736D01*
X149905003Y-101426890D01*
X149883316Y-101453316D01*
X149856890Y-101475003D01*
X149826736Y-101491121D01*
X149794024Y-101501045D01*
X149753862Y-101505000D01*
X149166138Y-101505000D01*
X149125976Y-101501045D01*
X149093264Y-101491121D01*
X149063110Y-101475003D01*
X149036684Y-101453316D01*
X149014997Y-101426890D01*
X148998879Y-101396736D01*
X148988955Y-101364024D01*
X148985000Y-101323862D01*
X148985000Y-100636138D01*
X148988955Y-100595976D01*
X148998879Y-100563264D01*
X149014997Y-100533110D01*
X149036684Y-100506684D01*
X149063110Y-100484997D01*
X149093264Y-100468879D01*
X149125976Y-100458955D01*
X149166138Y-100455000D01*
X149753862Y-100455000D01*
X149794024Y-100458955D01*
X149794024Y-100458955D01*
G37*
G36*
X150917612Y-96954429D02*
X150920954Y-96955094D01*
X150920975Y-96955096D01*
X150920995Y-96955102D01*
X150921492Y-96955201D01*
X150922158Y-96955477D01*
X150945607Y-96962592D01*
X150969993Y-96964995D01*
X150994380Y-96962594D01*
X151017842Y-96955477D01*
X151018508Y-96955201D01*
X151019005Y-96955102D01*
X151019025Y-96955096D01*
X151019046Y-96955094D01*
X151022388Y-96954429D01*
X151023070Y-96954395D01*
X151416930Y-96954395D01*
X151417612Y-96954429D01*
X151420954Y-96955094D01*
X151420975Y-96955096D01*
X151420995Y-96955102D01*
X151421492Y-96955201D01*
X151422158Y-96955477D01*
X151445607Y-96962592D01*
X151469993Y-96964995D01*
X151494380Y-96962594D01*
X151517842Y-96955477D01*
X151518508Y-96955201D01*
X151519005Y-96955102D01*
X151519025Y-96955096D01*
X151519046Y-96955094D01*
X151522388Y-96954429D01*
X151523070Y-96954395D01*
X151916930Y-96954395D01*
X151917612Y-96954429D01*
X151920954Y-96955094D01*
X151920975Y-96955096D01*
X151920995Y-96955102D01*
X151921492Y-96955201D01*
X151922158Y-96955477D01*
X151945607Y-96962592D01*
X151969993Y-96964995D01*
X151994380Y-96962594D01*
X152017842Y-96955477D01*
X152018508Y-96955201D01*
X152019005Y-96955102D01*
X152019025Y-96955096D01*
X152019046Y-96955094D01*
X152022388Y-96954429D01*
X152023070Y-96954395D01*
X152416930Y-96954395D01*
X152417612Y-96954429D01*
X152420954Y-96955094D01*
X152420975Y-96955096D01*
X152420995Y-96955102D01*
X152421492Y-96955201D01*
X152422362Y-96955562D01*
X152423136Y-96956078D01*
X152423459Y-96956401D01*
X152423536Y-96956464D01*
X152423599Y-96956541D01*
X152423922Y-96956864D01*
X152424438Y-96957638D01*
X152424799Y-96958508D01*
X152424898Y-96959005D01*
X152424904Y-96959025D01*
X152424906Y-96959046D01*
X152425571Y-96962388D01*
X152425605Y-96963070D01*
X152425605Y-97616930D01*
X152425571Y-97617612D01*
X152424907Y-97620949D01*
X152424904Y-97620975D01*
X152424896Y-97621000D01*
X152423013Y-97630459D01*
X152420605Y-97654874D01*
X152420605Y-98033863D01*
X152420001Y-98039999D01*
X152416080Y-98044776D01*
X152284849Y-98176007D01*
X152269303Y-98194949D01*
X152257752Y-98216560D01*
X152250639Y-98240009D01*
X152248237Y-98264395D01*
X152250639Y-98288781D01*
X152257752Y-98312230D01*
X152269303Y-98333841D01*
X152284849Y-98352783D01*
X152303791Y-98368329D01*
X152325402Y-98379880D01*
X152348851Y-98386993D01*
X152373237Y-98389395D01*
X152655126Y-98389395D01*
X152679541Y-98386987D01*
X152689000Y-98385104D01*
X152689025Y-98385096D01*
X152689051Y-98385093D01*
X152692388Y-98384429D01*
X152693070Y-98384395D01*
X153346930Y-98384395D01*
X153347612Y-98384429D01*
X153350954Y-98385094D01*
X153350975Y-98385096D01*
X153350995Y-98385102D01*
X153351492Y-98385201D01*
X153352362Y-98385562D01*
X153353136Y-98386078D01*
X153353459Y-98386401D01*
X153353536Y-98386464D01*
X153353599Y-98386541D01*
X153353922Y-98386864D01*
X153354438Y-98387638D01*
X153354799Y-98388508D01*
X153354898Y-98389005D01*
X153354904Y-98389025D01*
X153354906Y-98389046D01*
X153355571Y-98392388D01*
X153355605Y-98393070D01*
X153355605Y-98786930D01*
X153355571Y-98787612D01*
X153354906Y-98790954D01*
X153354904Y-98790975D01*
X153354898Y-98790995D01*
X153354799Y-98791492D01*
X153354523Y-98792158D01*
X153347408Y-98815607D01*
X153345005Y-98839993D01*
X153347406Y-98864380D01*
X153354523Y-98887842D01*
X153354799Y-98888508D01*
X153354898Y-98889005D01*
X153354904Y-98889025D01*
X153354906Y-98889046D01*
X153355571Y-98892388D01*
X153355605Y-98893070D01*
X153355605Y-99286930D01*
X153355571Y-99287612D01*
X153354906Y-99290954D01*
X153354904Y-99290975D01*
X153354898Y-99290995D01*
X153354799Y-99291492D01*
X153354523Y-99292158D01*
X153347408Y-99315607D01*
X153345005Y-99339993D01*
X153347406Y-99364380D01*
X153354523Y-99387842D01*
X153354799Y-99388508D01*
X153354898Y-99389005D01*
X153354904Y-99389025D01*
X153354906Y-99389046D01*
X153355571Y-99392388D01*
X153355605Y-99393070D01*
X153355605Y-99786930D01*
X153355571Y-99787612D01*
X153354906Y-99790954D01*
X153354904Y-99790975D01*
X153354898Y-99790995D01*
X153354799Y-99791492D01*
X153354438Y-99792362D01*
X153353922Y-99793136D01*
X153353599Y-99793459D01*
X153353536Y-99793536D01*
X153353459Y-99793599D01*
X153353136Y-99793922D01*
X153352362Y-99794438D01*
X153351492Y-99794799D01*
X153350995Y-99794898D01*
X153350975Y-99794904D01*
X153350954Y-99794906D01*
X153347612Y-99795571D01*
X153346930Y-99795605D01*
X152693070Y-99795605D01*
X152692388Y-99795571D01*
X152689051Y-99794907D01*
X152689025Y-99794904D01*
X152689000Y-99794896D01*
X152679541Y-99793013D01*
X152655126Y-99790605D01*
X152373237Y-99790605D01*
X152348851Y-99793007D01*
X152325402Y-99800120D01*
X152303791Y-99811671D01*
X152284849Y-99827217D01*
X152269303Y-99846159D01*
X152257752Y-99867770D01*
X152250639Y-99891219D01*
X152248237Y-99915605D01*
X152250639Y-99939991D01*
X152257752Y-99963440D01*
X152269303Y-99985051D01*
X152284849Y-100003993D01*
X152416080Y-100135224D01*
X152420000Y-100140000D01*
X152420001Y-100140001D01*
X152420605Y-100146137D01*
X152420605Y-100525126D01*
X152423013Y-100549541D01*
X152424896Y-100559000D01*
X152424904Y-100559025D01*
X152424907Y-100559051D01*
X152425571Y-100562388D01*
X152425605Y-100563070D01*
X152425605Y-101216930D01*
X152425571Y-101217612D01*
X152424906Y-101220954D01*
X152424904Y-101220975D01*
X152424898Y-101220995D01*
X152424799Y-101221492D01*
X152424438Y-101222362D01*
X152423922Y-101223136D01*
X152423599Y-101223459D01*
X152423536Y-101223536D01*
X152423459Y-101223599D01*
X152423136Y-101223922D01*
X152422362Y-101224438D01*
X152421492Y-101224799D01*
X152420995Y-101224898D01*
X152420975Y-101224904D01*
X152420954Y-101224906D01*
X152417612Y-101225571D01*
X152416930Y-101225605D01*
X152023070Y-101225605D01*
X152022388Y-101225571D01*
X152019046Y-101224906D01*
X152019025Y-101224904D01*
X152019005Y-101224898D01*
X152018508Y-101224799D01*
X152017842Y-101224523D01*
X151994393Y-101217408D01*
X151970007Y-101215005D01*
X151945620Y-101217406D01*
X151922158Y-101224523D01*
X151921492Y-101224799D01*
X151920995Y-101224898D01*
X151920975Y-101224904D01*
X151920954Y-101224906D01*
X151917612Y-101225571D01*
X151916930Y-101225605D01*
X151523070Y-101225605D01*
X151522388Y-101225571D01*
X151519046Y-101224906D01*
X151519025Y-101224904D01*
X151519005Y-101224898D01*
X151518508Y-101224799D01*
X151517842Y-101224523D01*
X151494393Y-101217408D01*
X151470007Y-101215005D01*
X151445620Y-101217406D01*
X151422158Y-101224523D01*
X151421492Y-101224799D01*
X151420995Y-101224898D01*
X151420975Y-101224904D01*
X151420954Y-101224906D01*
X151417612Y-101225571D01*
X151416930Y-101225605D01*
X151023070Y-101225605D01*
X151022388Y-101225571D01*
X151019046Y-101224906D01*
X151019025Y-101224904D01*
X151019005Y-101224898D01*
X151018508Y-101224799D01*
X151017842Y-101224523D01*
X150994393Y-101217408D01*
X150970007Y-101215005D01*
X150945620Y-101217406D01*
X150922158Y-101224523D01*
X150921492Y-101224799D01*
X150920995Y-101224898D01*
X150920975Y-101224904D01*
X150920954Y-101224906D01*
X150917612Y-101225571D01*
X150916930Y-101225605D01*
X150523070Y-101225605D01*
X150522388Y-101225571D01*
X150519046Y-101224906D01*
X150519025Y-101224904D01*
X150519005Y-101224898D01*
X150518508Y-101224799D01*
X150517638Y-101224438D01*
X150516864Y-101223922D01*
X150516541Y-101223599D01*
X150516464Y-101223536D01*
X150516401Y-101223459D01*
X150516078Y-101223136D01*
X150515562Y-101222362D01*
X150515201Y-101221492D01*
X150515102Y-101220995D01*
X150515096Y-101220975D01*
X150515094Y-101220954D01*
X150514429Y-101217612D01*
X150514395Y-101216930D01*
X150514395Y-100563070D01*
X150514429Y-100562388D01*
X150515093Y-100559051D01*
X150515096Y-100559025D01*
X150515104Y-100559000D01*
X150516987Y-100549541D01*
X150519395Y-100525126D01*
X150519395Y-100146137D01*
X150519999Y-100140001D01*
X150520000Y-100140000D01*
X150523920Y-100135224D01*
X150655151Y-100003993D01*
X150670697Y-99985051D01*
X150682248Y-99963440D01*
X150689361Y-99939991D01*
X150691763Y-99915605D01*
X150689361Y-99891219D01*
X150682248Y-99867770D01*
X150670697Y-99846159D01*
X150655151Y-99827217D01*
X150636209Y-99811671D01*
X150614598Y-99800120D01*
X150591149Y-99793007D01*
X150566763Y-99790605D01*
X150284874Y-99790605D01*
X150260459Y-99793013D01*
X150251000Y-99794896D01*
X150250975Y-99794904D01*
X150250949Y-99794907D01*
X150247612Y-99795571D01*
X150246930Y-99795605D01*
X149593070Y-99795605D01*
X149592388Y-99795571D01*
X149589046Y-99794906D01*
X149589025Y-99794904D01*
X149589005Y-99794898D01*
X149588508Y-99794799D01*
X149587638Y-99794438D01*
X149586864Y-99793922D01*
X149586541Y-99793599D01*
X149586464Y-99793536D01*
X149586401Y-99793459D01*
X149586078Y-99793136D01*
X149585562Y-99792362D01*
X149585201Y-99791492D01*
X149585102Y-99790995D01*
X149585096Y-99790975D01*
X149585094Y-99790954D01*
X149584429Y-99787612D01*
X149584395Y-99786930D01*
X149584395Y-99393070D01*
X149584429Y-99392388D01*
X149585094Y-99389046D01*
X149585096Y-99389025D01*
X149585102Y-99389005D01*
X149585201Y-99388508D01*
X149585477Y-99387842D01*
X149592592Y-99364393D01*
X149594995Y-99340007D01*
X149592594Y-99315620D01*
X149585477Y-99292158D01*
X149585201Y-99291492D01*
X149585102Y-99290995D01*
X149585096Y-99290975D01*
X149585094Y-99290954D01*
X149584429Y-99287612D01*
X149584395Y-99286930D01*
X149584395Y-98893070D01*
X149584429Y-98892388D01*
X149585094Y-98889046D01*
X149585096Y-98889025D01*
X149585102Y-98889005D01*
X149585201Y-98888508D01*
X149585477Y-98887842D01*
X149592592Y-98864393D01*
X149594995Y-98840007D01*
X149592594Y-98815620D01*
X149585477Y-98792158D01*
X149585201Y-98791492D01*
X149585102Y-98790995D01*
X149585096Y-98790975D01*
X149585094Y-98790954D01*
X149584429Y-98787612D01*
X149584395Y-98786930D01*
X149584395Y-98415605D01*
X150748237Y-98415605D01*
X150750639Y-98439991D01*
X150757752Y-98463440D01*
X150769303Y-98485051D01*
X150784849Y-98503993D01*
X150916080Y-98635224D01*
X150920000Y-98640000D01*
X150920001Y-98640001D01*
X150920605Y-98646137D01*
X150920605Y-98783863D01*
X150920001Y-98789999D01*
X150917061Y-98799690D01*
X150915390Y-98803725D01*
X150910612Y-98827758D01*
X150910614Y-98852263D01*
X150915397Y-98876296D01*
X150917065Y-98880322D01*
X150920001Y-98890000D01*
X150920605Y-98896137D01*
X150920605Y-99283863D01*
X150920001Y-99289999D01*
X150917061Y-99299690D01*
X150915390Y-99303725D01*
X150910612Y-99327758D01*
X150910614Y-99352263D01*
X150915397Y-99376296D01*
X150917065Y-99380322D01*
X150920001Y-99390000D01*
X150920605Y-99396137D01*
X150920605Y-99533863D01*
X150920001Y-99539999D01*
X150916080Y-99544776D01*
X150784849Y-99676007D01*
X150769303Y-99694949D01*
X150757752Y-99716560D01*
X150750639Y-99740009D01*
X150748237Y-99764395D01*
X150750639Y-99788781D01*
X150757752Y-99812230D01*
X150769303Y-99833841D01*
X150784849Y-99852783D01*
X150803791Y-99868329D01*
X150825402Y-99879880D01*
X150848851Y-99886993D01*
X150873237Y-99889395D01*
X150913863Y-99889395D01*
X150919999Y-99889999D01*
X150929690Y-99892939D01*
X150933725Y-99894610D01*
X150957758Y-99899388D01*
X150982263Y-99899386D01*
X151006296Y-99894603D01*
X151010322Y-99892935D01*
X151020001Y-99889999D01*
X151026137Y-99889395D01*
X151413863Y-99889395D01*
X151419999Y-99889999D01*
X151429690Y-99892939D01*
X151433725Y-99894610D01*
X151457758Y-99899388D01*
X151482263Y-99899386D01*
X151506296Y-99894603D01*
X151510322Y-99892935D01*
X151520001Y-99889999D01*
X151526137Y-99889395D01*
X151913863Y-99889395D01*
X151919999Y-99889999D01*
X151929690Y-99892939D01*
X151933725Y-99894610D01*
X151957758Y-99899388D01*
X151982263Y-99899386D01*
X152006296Y-99894603D01*
X152010322Y-99892935D01*
X152020001Y-99889999D01*
X152026137Y-99889395D01*
X152066763Y-99889395D01*
X152091149Y-99886993D01*
X152114598Y-99879880D01*
X152136209Y-99868329D01*
X152155151Y-99852783D01*
X152170697Y-99833841D01*
X152182248Y-99812230D01*
X152189361Y-99788781D01*
X152191763Y-99764395D01*
X152189361Y-99740009D01*
X152182248Y-99716560D01*
X152170697Y-99694949D01*
X152155151Y-99676007D01*
X152023920Y-99544776D01*
X152019999Y-99539999D01*
X152019395Y-99533863D01*
X152019395Y-99396137D01*
X152019999Y-99390000D01*
X152022939Y-99380310D01*
X152024610Y-99376275D01*
X152029388Y-99352242D01*
X152029386Y-99327737D01*
X152024603Y-99303704D01*
X152022935Y-99299678D01*
X152019999Y-99289999D01*
X152019395Y-99283863D01*
X152019395Y-98896137D01*
X152019999Y-98890000D01*
X152022939Y-98880310D01*
X152024610Y-98876275D01*
X152029388Y-98852242D01*
X152029386Y-98827737D01*
X152024603Y-98803704D01*
X152022935Y-98799678D01*
X152019999Y-98789999D01*
X152019395Y-98783863D01*
X152019395Y-98646137D01*
X152019999Y-98640001D01*
X152020000Y-98640000D01*
X152023920Y-98635224D01*
X152155151Y-98503993D01*
X152170697Y-98485051D01*
X152182248Y-98463440D01*
X152189361Y-98439991D01*
X152191763Y-98415605D01*
X152189361Y-98391219D01*
X152182248Y-98367770D01*
X152170697Y-98346159D01*
X152155151Y-98327217D01*
X152136209Y-98311671D01*
X152114598Y-98300120D01*
X152091149Y-98293007D01*
X152066763Y-98290605D01*
X152026137Y-98290605D01*
X152020001Y-98290001D01*
X152010310Y-98287061D01*
X152006275Y-98285390D01*
X151982242Y-98280612D01*
X151957737Y-98280614D01*
X151933704Y-98285397D01*
X151929678Y-98287065D01*
X151919999Y-98290001D01*
X151913863Y-98290605D01*
X151526137Y-98290605D01*
X151520001Y-98290001D01*
X151510310Y-98287061D01*
X151506275Y-98285390D01*
X151482242Y-98280612D01*
X151457737Y-98280614D01*
X151433704Y-98285397D01*
X151429678Y-98287065D01*
X151419999Y-98290001D01*
X151413863Y-98290605D01*
X151026137Y-98290605D01*
X151020001Y-98290001D01*
X151010310Y-98287061D01*
X151006275Y-98285390D01*
X150982242Y-98280612D01*
X150957737Y-98280614D01*
X150933704Y-98285397D01*
X150929678Y-98287065D01*
X150919999Y-98290001D01*
X150913863Y-98290605D01*
X150873237Y-98290605D01*
X150848851Y-98293007D01*
X150825402Y-98300120D01*
X150803791Y-98311671D01*
X150784849Y-98327217D01*
X150769303Y-98346159D01*
X150757752Y-98367770D01*
X150750639Y-98391219D01*
X150748237Y-98415605D01*
X149584395Y-98415605D01*
X149584395Y-98393070D01*
X149584429Y-98392388D01*
X149585094Y-98389046D01*
X149585096Y-98389025D01*
X149585102Y-98389005D01*
X149585201Y-98388508D01*
X149585562Y-98387638D01*
X149586078Y-98386864D01*
X149586401Y-98386541D01*
X149586464Y-98386464D01*
X149586541Y-98386401D01*
X149586864Y-98386078D01*
X149587638Y-98385562D01*
X149588508Y-98385201D01*
X149589005Y-98385102D01*
X149589025Y-98385096D01*
X149589046Y-98385094D01*
X149592388Y-98384429D01*
X149593070Y-98384395D01*
X150246930Y-98384395D01*
X150247612Y-98384429D01*
X150250949Y-98385093D01*
X150250975Y-98385096D01*
X150251000Y-98385104D01*
X150260459Y-98386987D01*
X150284874Y-98389395D01*
X150566763Y-98389395D01*
X150591149Y-98386993D01*
X150614598Y-98379880D01*
X150636209Y-98368329D01*
X150655151Y-98352783D01*
X150670697Y-98333841D01*
X150682248Y-98312230D01*
X150689361Y-98288781D01*
X150691763Y-98264395D01*
X150689361Y-98240009D01*
X150682248Y-98216560D01*
X150670697Y-98194949D01*
X150655151Y-98176007D01*
X150523920Y-98044776D01*
X150519999Y-98039999D01*
X150519395Y-98033863D01*
X150519395Y-97654874D01*
X150516987Y-97630459D01*
X150515104Y-97621000D01*
X150515096Y-97620975D01*
X150515093Y-97620949D01*
X150514429Y-97617612D01*
X150514395Y-97616930D01*
X150514395Y-96963070D01*
X150514429Y-96962388D01*
X150515094Y-96959046D01*
X150515096Y-96959025D01*
X150515102Y-96959005D01*
X150515201Y-96958508D01*
X150515562Y-96957638D01*
X150516078Y-96956864D01*
X150516401Y-96956541D01*
X150516464Y-96956464D01*
X150516541Y-96956401D01*
X150516864Y-96956078D01*
X150517638Y-96955562D01*
X150518508Y-96955201D01*
X150519005Y-96955102D01*
X150519025Y-96955096D01*
X150519046Y-96955094D01*
X150522388Y-96954429D01*
X150523070Y-96954395D01*
X150916930Y-96954395D01*
X150917612Y-96954429D01*
X150917612Y-96954429D01*
G37*
G36*
X134355000Y-97900000D02*
X132805000Y-97900000D01*
X132805000Y-96600000D01*
X134355000Y-96600000D01*
X134355000Y-97900000D01*
X134355000Y-97900000D01*
G37*
G36*
X142315000Y-97900000D02*
X140765000Y-97900000D01*
X140765000Y-96600000D01*
X142315000Y-96600000D01*
X142315000Y-97900000D01*
X142315000Y-97900000D01*
G37*
G36*
X154329024Y-96798955D02*
X154361736Y-96808879D01*
X154391890Y-96824997D01*
X154418316Y-96846684D01*
X154440003Y-96873110D01*
X154456121Y-96903264D01*
X154466045Y-96935976D01*
X154470000Y-96976138D01*
X154470000Y-97563862D01*
X154466045Y-97604024D01*
X154456121Y-97636736D01*
X154440003Y-97666890D01*
X154418316Y-97693316D01*
X154391890Y-97715003D01*
X154361736Y-97731121D01*
X154329024Y-97741045D01*
X154288862Y-97745000D01*
X153601138Y-97745000D01*
X153560976Y-97741045D01*
X153528264Y-97731121D01*
X153498110Y-97715003D01*
X153471684Y-97693316D01*
X153449997Y-97666890D01*
X153433879Y-97636736D01*
X153423955Y-97604024D01*
X153420000Y-97563862D01*
X153420000Y-96976138D01*
X153423955Y-96935976D01*
X153433879Y-96903264D01*
X153449997Y-96873110D01*
X153471684Y-96846684D01*
X153498110Y-96824997D01*
X153528264Y-96808879D01*
X153560976Y-96798955D01*
X153601138Y-96795000D01*
X154288862Y-96795000D01*
X154329024Y-96798955D01*
X154329024Y-96798955D01*
G37*
G36*
X156079024Y-96798955D02*
X156111736Y-96808879D01*
X156141890Y-96824997D01*
X156168316Y-96846684D01*
X156190003Y-96873110D01*
X156206121Y-96903264D01*
X156216045Y-96935976D01*
X156220000Y-96976138D01*
X156220000Y-97563862D01*
X156216045Y-97604024D01*
X156206121Y-97636736D01*
X156190003Y-97666890D01*
X156168316Y-97693316D01*
X156141890Y-97715003D01*
X156111736Y-97731121D01*
X156079024Y-97741045D01*
X156038862Y-97745000D01*
X155351138Y-97745000D01*
X155310976Y-97741045D01*
X155278264Y-97731121D01*
X155248110Y-97715003D01*
X155221684Y-97693316D01*
X155199997Y-97666890D01*
X155183879Y-97636736D01*
X155173955Y-97604024D01*
X155170000Y-97563862D01*
X155170000Y-96976138D01*
X155173955Y-96935976D01*
X155183879Y-96903264D01*
X155199997Y-96873110D01*
X155221684Y-96846684D01*
X155248110Y-96824997D01*
X155278264Y-96808879D01*
X155310976Y-96798955D01*
X155351138Y-96795000D01*
X156038862Y-96795000D01*
X156079024Y-96798955D01*
X156079024Y-96798955D01*
G37*
G36*
X151785845Y-94099215D02*
X151876839Y-94136906D01*
X151911151Y-94159833D01*
X151958734Y-94191627D01*
X152028373Y-94261266D01*
X152028375Y-94261269D01*
X152083094Y-94343161D01*
X152120785Y-94434155D01*
X152140000Y-94530754D01*
X152140000Y-94629246D01*
X152120785Y-94725845D01*
X152083094Y-94816839D01*
X152039500Y-94882082D01*
X152028373Y-94898734D01*
X151958734Y-94968373D01*
X151958731Y-94968375D01*
X151876839Y-95023094D01*
X151876838Y-95023095D01*
X151876837Y-95023095D01*
X151863317Y-95028695D01*
X151785845Y-95060785D01*
X151689246Y-95080000D01*
X151590754Y-95080000D01*
X151494155Y-95060785D01*
X151416683Y-95028695D01*
X151403163Y-95023095D01*
X151403162Y-95023095D01*
X151403161Y-95023094D01*
X151321269Y-94968375D01*
X151321266Y-94968373D01*
X151251627Y-94898734D01*
X151240500Y-94882082D01*
X151196906Y-94816839D01*
X151159215Y-94725845D01*
X151140000Y-94629246D01*
X151140000Y-94530754D01*
X151159215Y-94434155D01*
X151196906Y-94343161D01*
X151251625Y-94261269D01*
X151251627Y-94261266D01*
X151321266Y-94191627D01*
X151368849Y-94159833D01*
X151403161Y-94136906D01*
X151494155Y-94099215D01*
X151590754Y-94080000D01*
X151689246Y-94080000D01*
X151785845Y-94099215D01*
X151785845Y-94099215D01*
G37*
G36*
X153385845Y-94099215D02*
X153476839Y-94136906D01*
X153511151Y-94159833D01*
X153558734Y-94191627D01*
X153628373Y-94261266D01*
X153628375Y-94261269D01*
X153683094Y-94343161D01*
X153720785Y-94434155D01*
X153740000Y-94530754D01*
X153740000Y-94629246D01*
X153720785Y-94725845D01*
X153683094Y-94816839D01*
X153639500Y-94882082D01*
X153628373Y-94898734D01*
X153558734Y-94968373D01*
X153558731Y-94968375D01*
X153476839Y-95023094D01*
X153476838Y-95023095D01*
X153476837Y-95023095D01*
X153463317Y-95028695D01*
X153385845Y-95060785D01*
X153289246Y-95080000D01*
X153190754Y-95080000D01*
X153094155Y-95060785D01*
X153016683Y-95028695D01*
X153003163Y-95023095D01*
X153003162Y-95023095D01*
X153003161Y-95023094D01*
X152921269Y-94968375D01*
X152921266Y-94968373D01*
X152851627Y-94898734D01*
X152840500Y-94882082D01*
X152796906Y-94816839D01*
X152759215Y-94725845D01*
X152740000Y-94629246D01*
X152740000Y-94530754D01*
X152759215Y-94434155D01*
X152796906Y-94343161D01*
X152851625Y-94261269D01*
X152851627Y-94261266D01*
X152921266Y-94191627D01*
X152968849Y-94159833D01*
X153003161Y-94136906D01*
X153094155Y-94099215D01*
X153190754Y-94080000D01*
X153289246Y-94080000D01*
X153385845Y-94099215D01*
X153385845Y-94099215D01*
G37*
G36*
X143443595Y-93982650D02*
X143476307Y-93992574D01*
X143506461Y-94008692D01*
X143532887Y-94030379D01*
X143554574Y-94056805D01*
X143570692Y-94086959D01*
X143580616Y-94119671D01*
X143584571Y-94159833D01*
X143584571Y-94847557D01*
X143580616Y-94887719D01*
X143570692Y-94920431D01*
X143554574Y-94950585D01*
X143532887Y-94977011D01*
X143506461Y-94998698D01*
X143476307Y-95014816D01*
X143443595Y-95024740D01*
X143403433Y-95028695D01*
X142815709Y-95028695D01*
X142775547Y-95024740D01*
X142742835Y-95014816D01*
X142712681Y-94998698D01*
X142686255Y-94977011D01*
X142664568Y-94950585D01*
X142648450Y-94920431D01*
X142638526Y-94887719D01*
X142634571Y-94847557D01*
X142634571Y-94159833D01*
X142638526Y-94119671D01*
X142648450Y-94086959D01*
X142664568Y-94056805D01*
X142686255Y-94030379D01*
X142712681Y-94008692D01*
X142742835Y-93992574D01*
X142775547Y-93982650D01*
X142815709Y-93978695D01*
X143403433Y-93978695D01*
X143443595Y-93982650D01*
X143443595Y-93982650D01*
G37*
G36*
X146950183Y-92592058D02*
X146982895Y-92601982D01*
X147013049Y-92618100D01*
X147039475Y-92639787D01*
X147061162Y-92666213D01*
X147077280Y-92696367D01*
X147087204Y-92729079D01*
X147091159Y-92769241D01*
X147091159Y-93356965D01*
X147087204Y-93397127D01*
X147077280Y-93429839D01*
X147061162Y-93459993D01*
X147039475Y-93486419D01*
X147013049Y-93508106D01*
X146982895Y-93524224D01*
X146950183Y-93534148D01*
X146910021Y-93538103D01*
X146222297Y-93538103D01*
X146182135Y-93534148D01*
X146149423Y-93524224D01*
X146119269Y-93508106D01*
X146092843Y-93486419D01*
X146071156Y-93459993D01*
X146055038Y-93429839D01*
X146045114Y-93397127D01*
X146041159Y-93356965D01*
X146041159Y-92769241D01*
X146045114Y-92729079D01*
X146055038Y-92696367D01*
X146071156Y-92666213D01*
X146092843Y-92639787D01*
X146119269Y-92618100D01*
X146149423Y-92601982D01*
X146182135Y-92592058D01*
X146222297Y-92588103D01*
X146910021Y-92588103D01*
X146950183Y-92592058D01*
X146950183Y-92592058D01*
G37*
G36*
X145200183Y-92592058D02*
X145232895Y-92601982D01*
X145263049Y-92618100D01*
X145289475Y-92639787D01*
X145311162Y-92666213D01*
X145327280Y-92696367D01*
X145337204Y-92729079D01*
X145341159Y-92769241D01*
X145341159Y-93356965D01*
X145337204Y-93397127D01*
X145327280Y-93429839D01*
X145311162Y-93459993D01*
X145289475Y-93486419D01*
X145263049Y-93508106D01*
X145232895Y-93524224D01*
X145200183Y-93534148D01*
X145160021Y-93538103D01*
X144472297Y-93538103D01*
X144432135Y-93534148D01*
X144399423Y-93524224D01*
X144369269Y-93508106D01*
X144342843Y-93486419D01*
X144321156Y-93459993D01*
X144305038Y-93429839D01*
X144295114Y-93397127D01*
X144291159Y-93356965D01*
X144291159Y-92769241D01*
X144295114Y-92729079D01*
X144305038Y-92696367D01*
X144321156Y-92666213D01*
X144342843Y-92639787D01*
X144369269Y-92618100D01*
X144399423Y-92601982D01*
X144432135Y-92592058D01*
X144472297Y-92588103D01*
X145160021Y-92588103D01*
X145200183Y-92592058D01*
X145200183Y-92592058D01*
G37*
G36*
X132213595Y-92502650D02*
X132246307Y-92512574D01*
X132276461Y-92528692D01*
X132302887Y-92550379D01*
X132324574Y-92576805D01*
X132340692Y-92606959D01*
X132350616Y-92639671D01*
X132354571Y-92679833D01*
X132354571Y-93267557D01*
X132350616Y-93307719D01*
X132340692Y-93340431D01*
X132324574Y-93370585D01*
X132302887Y-93397011D01*
X132276461Y-93418698D01*
X132246307Y-93434816D01*
X132213595Y-93444740D01*
X132173433Y-93448695D01*
X131485709Y-93448695D01*
X131445547Y-93444740D01*
X131412835Y-93434816D01*
X131382681Y-93418698D01*
X131356255Y-93397011D01*
X131334568Y-93370585D01*
X131318450Y-93340431D01*
X131308526Y-93307719D01*
X131304571Y-93267557D01*
X131304571Y-92679833D01*
X131308526Y-92639671D01*
X131318450Y-92606959D01*
X131334568Y-92576805D01*
X131356255Y-92550379D01*
X131382681Y-92528692D01*
X131412835Y-92512574D01*
X131445547Y-92502650D01*
X131485709Y-92498695D01*
X132173433Y-92498695D01*
X132213595Y-92502650D01*
X132213595Y-92502650D01*
G37*
G36*
X133963595Y-92502650D02*
X133996307Y-92512574D01*
X134026461Y-92528692D01*
X134052887Y-92550379D01*
X134074574Y-92576805D01*
X134090692Y-92606959D01*
X134100616Y-92639671D01*
X134104571Y-92679833D01*
X134104571Y-93267557D01*
X134100616Y-93307719D01*
X134090692Y-93340431D01*
X134074574Y-93370585D01*
X134052887Y-93397011D01*
X134026461Y-93418698D01*
X133996307Y-93434816D01*
X133963595Y-93444740D01*
X133923433Y-93448695D01*
X133235709Y-93448695D01*
X133195547Y-93444740D01*
X133162835Y-93434816D01*
X133132681Y-93418698D01*
X133106255Y-93397011D01*
X133084568Y-93370585D01*
X133068450Y-93340431D01*
X133058526Y-93307719D01*
X133054571Y-93267557D01*
X133054571Y-92679833D01*
X133058526Y-92639671D01*
X133068450Y-92606959D01*
X133084568Y-92576805D01*
X133106255Y-92550379D01*
X133132681Y-92528692D01*
X133162835Y-92512574D01*
X133195547Y-92502650D01*
X133235709Y-92498695D01*
X133923433Y-92498695D01*
X133963595Y-92502650D01*
X133963595Y-92502650D01*
G37*
G36*
X143443595Y-92232650D02*
X143476307Y-92242574D01*
X143506461Y-92258692D01*
X143532887Y-92280379D01*
X143554574Y-92306805D01*
X143570692Y-92336959D01*
X143580616Y-92369671D01*
X143584571Y-92409833D01*
X143584571Y-93097557D01*
X143580616Y-93137719D01*
X143570692Y-93170431D01*
X143554574Y-93200585D01*
X143532887Y-93227011D01*
X143506461Y-93248698D01*
X143476307Y-93264816D01*
X143443595Y-93274740D01*
X143403433Y-93278695D01*
X142815709Y-93278695D01*
X142775547Y-93274740D01*
X142742835Y-93264816D01*
X142712681Y-93248698D01*
X142686255Y-93227011D01*
X142664568Y-93200585D01*
X142648450Y-93170431D01*
X142638526Y-93137719D01*
X142634571Y-93097557D01*
X142634571Y-92409833D01*
X142638526Y-92369671D01*
X142648450Y-92336959D01*
X142664568Y-92306805D01*
X142686255Y-92280379D01*
X142712681Y-92258692D01*
X142742835Y-92242574D01*
X142775547Y-92232650D01*
X142815709Y-92228695D01*
X143403433Y-92228695D01*
X143443595Y-92232650D01*
X143443595Y-92232650D01*
G37*
G36*
X156689000Y-88433357D02*
X156691402Y-88457743D01*
X156698515Y-88481192D01*
X156710066Y-88502803D01*
X156725612Y-88521745D01*
X156744554Y-88537291D01*
X156766165Y-88548842D01*
X156789614Y-88555955D01*
X156814000Y-88558357D01*
X156838386Y-88555955D01*
X156861835Y-88548842D01*
X156883446Y-88537291D01*
X156910624Y-88512659D01*
X156962026Y-88450026D01*
X157026740Y-88396916D01*
X157026742Y-88396915D01*
X157026743Y-88396914D01*
X157100573Y-88357451D01*
X157180684Y-88333149D01*
X157243122Y-88327000D01*
X157284878Y-88327000D01*
X157347316Y-88333149D01*
X157427427Y-88357451D01*
X157501257Y-88396914D01*
X157501258Y-88396915D01*
X157501260Y-88396916D01*
X157565974Y-88450026D01*
X157617375Y-88512657D01*
X157619086Y-88514743D01*
X157658549Y-88588573D01*
X157682851Y-88668684D01*
X157691056Y-88752000D01*
X157682851Y-88835316D01*
X157658549Y-88915427D01*
X157619086Y-88989257D01*
X157619084Y-88989260D01*
X157565974Y-89053974D01*
X157501260Y-89107084D01*
X157436383Y-89141761D01*
X157416011Y-89155373D01*
X157398684Y-89172700D01*
X157385070Y-89193075D01*
X157375693Y-89215714D01*
X157370912Y-89239747D01*
X157370912Y-89264251D01*
X157375692Y-89288285D01*
X157385069Y-89310924D01*
X157398683Y-89331299D01*
X157416010Y-89348626D01*
X157436383Y-89362239D01*
X157453608Y-89371446D01*
X157501260Y-89396916D01*
X157565974Y-89450026D01*
X157619086Y-89514743D01*
X157658549Y-89588573D01*
X157682851Y-89668684D01*
X157691056Y-89752000D01*
X157682851Y-89835316D01*
X157658549Y-89915427D01*
X157619086Y-89989257D01*
X157619084Y-89989260D01*
X157565974Y-90053974D01*
X157501260Y-90107084D01*
X157436383Y-90141761D01*
X157416011Y-90155373D01*
X157398684Y-90172700D01*
X157385070Y-90193075D01*
X157375693Y-90215714D01*
X157370912Y-90239747D01*
X157370912Y-90264251D01*
X157375692Y-90288285D01*
X157385069Y-90310924D01*
X157398683Y-90331299D01*
X157416010Y-90348626D01*
X157436383Y-90362239D01*
X157501260Y-90396916D01*
X157565974Y-90450026D01*
X157619086Y-90514743D01*
X157658549Y-90588573D01*
X157682851Y-90668684D01*
X157691056Y-90752000D01*
X157682851Y-90835316D01*
X157658549Y-90915427D01*
X157619086Y-90989257D01*
X157619084Y-90989260D01*
X157565974Y-91053974D01*
X157501260Y-91107084D01*
X157436383Y-91141761D01*
X157416011Y-91155373D01*
X157398684Y-91172700D01*
X157385070Y-91193075D01*
X157375693Y-91215714D01*
X157370912Y-91239747D01*
X157370912Y-91264251D01*
X157375692Y-91288285D01*
X157385069Y-91310924D01*
X157398683Y-91331299D01*
X157416010Y-91348626D01*
X157436383Y-91362239D01*
X157501260Y-91396916D01*
X157565974Y-91450026D01*
X157619086Y-91514743D01*
X157658549Y-91588573D01*
X157682851Y-91668684D01*
X157691056Y-91752000D01*
X157682851Y-91835316D01*
X157658549Y-91915427D01*
X157619086Y-91989257D01*
X157619084Y-91989260D01*
X157565974Y-92053974D01*
X157501260Y-92107084D01*
X157436383Y-92141761D01*
X157416011Y-92155373D01*
X157398684Y-92172700D01*
X157385070Y-92193075D01*
X157375693Y-92215714D01*
X157370912Y-92239747D01*
X157370912Y-92264251D01*
X157375692Y-92288285D01*
X157385069Y-92310924D01*
X157398683Y-92331299D01*
X157416010Y-92348626D01*
X157436383Y-92362239D01*
X157501260Y-92396916D01*
X157565974Y-92450026D01*
X157609661Y-92503258D01*
X157619086Y-92514743D01*
X157658549Y-92588573D01*
X157682851Y-92668684D01*
X157691056Y-92752000D01*
X157682851Y-92835316D01*
X157658549Y-92915427D01*
X157619086Y-92989257D01*
X157619084Y-92989260D01*
X157565974Y-93053974D01*
X157501260Y-93107084D01*
X157501258Y-93107085D01*
X157501257Y-93107086D01*
X157427427Y-93146549D01*
X157347316Y-93170851D01*
X157284878Y-93177000D01*
X157243122Y-93177000D01*
X157180684Y-93170851D01*
X157100573Y-93146549D01*
X157026743Y-93107086D01*
X157026742Y-93107085D01*
X157026740Y-93107084D01*
X156962026Y-93053974D01*
X156908916Y-92989260D01*
X156874239Y-92924383D01*
X156860627Y-92904011D01*
X156843300Y-92886684D01*
X156822925Y-92873070D01*
X156800286Y-92863693D01*
X156776253Y-92858912D01*
X156751749Y-92858912D01*
X156727715Y-92863692D01*
X156705076Y-92873069D01*
X156684701Y-92886683D01*
X156667374Y-92904010D01*
X156653761Y-92924383D01*
X156619084Y-92989260D01*
X156565974Y-93053974D01*
X156501260Y-93107084D01*
X156501258Y-93107085D01*
X156501257Y-93107086D01*
X156427427Y-93146549D01*
X156347316Y-93170851D01*
X156284878Y-93177000D01*
X156243122Y-93177000D01*
X156180684Y-93170851D01*
X156100573Y-93146549D01*
X156026743Y-93107086D01*
X156026742Y-93107085D01*
X156026740Y-93107084D01*
X155962026Y-93053974D01*
X155908916Y-92989260D01*
X155908914Y-92989257D01*
X155869451Y-92915427D01*
X155845149Y-92835316D01*
X155836944Y-92752000D01*
X155845149Y-92668684D01*
X155869451Y-92588573D01*
X155908914Y-92514743D01*
X155918340Y-92503258D01*
X155962026Y-92450026D01*
X156026740Y-92396916D01*
X156091617Y-92362239D01*
X156111989Y-92348627D01*
X156129316Y-92331300D01*
X156142930Y-92310925D01*
X156152307Y-92288286D01*
X156157088Y-92264253D01*
X156157088Y-92239749D01*
X156157088Y-92239747D01*
X156370912Y-92239747D01*
X156370912Y-92264251D01*
X156375692Y-92288285D01*
X156385069Y-92310924D01*
X156398683Y-92331299D01*
X156416010Y-92348626D01*
X156436383Y-92362239D01*
X156501260Y-92396916D01*
X156565974Y-92450026D01*
X156619084Y-92514740D01*
X156653759Y-92579614D01*
X156667373Y-92599989D01*
X156684700Y-92617316D01*
X156705075Y-92630930D01*
X156727714Y-92640307D01*
X156751747Y-92645088D01*
X156776251Y-92645088D01*
X156800285Y-92640308D01*
X156822924Y-92630931D01*
X156843299Y-92617317D01*
X156860626Y-92599990D01*
X156874241Y-92579614D01*
X156908916Y-92514740D01*
X156962026Y-92450026D01*
X157026740Y-92396916D01*
X157091617Y-92362239D01*
X157111989Y-92348627D01*
X157129316Y-92331300D01*
X157142930Y-92310925D01*
X157152307Y-92288286D01*
X157157088Y-92264253D01*
X157157088Y-92239749D01*
X157152308Y-92215715D01*
X157142931Y-92193076D01*
X157129317Y-92172701D01*
X157111990Y-92155374D01*
X157091617Y-92141761D01*
X157026740Y-92107084D01*
X156962026Y-92053974D01*
X156908916Y-91989260D01*
X156874239Y-91924383D01*
X156860627Y-91904011D01*
X156843300Y-91886684D01*
X156822925Y-91873070D01*
X156800286Y-91863693D01*
X156776253Y-91858912D01*
X156751749Y-91858912D01*
X156727715Y-91863692D01*
X156705076Y-91873069D01*
X156684701Y-91886683D01*
X156667374Y-91904010D01*
X156653761Y-91924383D01*
X156619084Y-91989260D01*
X156565974Y-92053974D01*
X156501260Y-92107084D01*
X156436383Y-92141761D01*
X156416011Y-92155373D01*
X156398684Y-92172700D01*
X156385070Y-92193075D01*
X156375693Y-92215714D01*
X156370912Y-92239747D01*
X156157088Y-92239747D01*
X156152308Y-92215715D01*
X156142931Y-92193076D01*
X156129317Y-92172701D01*
X156111990Y-92155374D01*
X156091617Y-92141761D01*
X156026740Y-92107084D01*
X155962026Y-92053974D01*
X155908916Y-91989260D01*
X155908914Y-91989257D01*
X155869451Y-91915427D01*
X155845149Y-91835316D01*
X155836944Y-91752000D01*
X155845149Y-91668684D01*
X155869451Y-91588573D01*
X155908914Y-91514743D01*
X155962026Y-91450026D01*
X156026740Y-91396916D01*
X156091617Y-91362239D01*
X156111989Y-91348627D01*
X156129316Y-91331300D01*
X156142930Y-91310925D01*
X156152307Y-91288286D01*
X156157088Y-91264253D01*
X156157088Y-91239749D01*
X156157088Y-91239747D01*
X156370912Y-91239747D01*
X156370912Y-91264251D01*
X156375692Y-91288285D01*
X156385069Y-91310924D01*
X156398683Y-91331299D01*
X156416010Y-91348626D01*
X156436383Y-91362239D01*
X156501260Y-91396916D01*
X156565974Y-91450026D01*
X156619084Y-91514740D01*
X156653759Y-91579614D01*
X156667373Y-91599989D01*
X156684700Y-91617316D01*
X156705075Y-91630930D01*
X156727714Y-91640307D01*
X156751747Y-91645088D01*
X156776251Y-91645088D01*
X156800285Y-91640308D01*
X156822924Y-91630931D01*
X156843299Y-91617317D01*
X156860626Y-91599990D01*
X156874241Y-91579614D01*
X156908916Y-91514740D01*
X156962026Y-91450026D01*
X157026740Y-91396916D01*
X157091617Y-91362239D01*
X157111989Y-91348627D01*
X157129316Y-91331300D01*
X157142930Y-91310925D01*
X157152307Y-91288286D01*
X157157088Y-91264253D01*
X157157088Y-91239749D01*
X157152308Y-91215715D01*
X157142931Y-91193076D01*
X157129317Y-91172701D01*
X157111990Y-91155374D01*
X157091617Y-91141761D01*
X157026740Y-91107084D01*
X156962026Y-91053974D01*
X156908916Y-90989260D01*
X156874239Y-90924383D01*
X156860627Y-90904011D01*
X156843300Y-90886684D01*
X156822925Y-90873070D01*
X156800286Y-90863693D01*
X156776253Y-90858912D01*
X156751749Y-90858912D01*
X156727715Y-90863692D01*
X156705076Y-90873069D01*
X156684701Y-90886683D01*
X156667374Y-90904010D01*
X156653761Y-90924383D01*
X156619084Y-90989260D01*
X156565974Y-91053974D01*
X156501260Y-91107084D01*
X156436383Y-91141761D01*
X156416011Y-91155373D01*
X156398684Y-91172700D01*
X156385070Y-91193075D01*
X156375693Y-91215714D01*
X156370912Y-91239747D01*
X156157088Y-91239747D01*
X156152308Y-91215715D01*
X156142931Y-91193076D01*
X156129317Y-91172701D01*
X156111990Y-91155374D01*
X156091617Y-91141761D01*
X156026740Y-91107084D01*
X155962026Y-91053974D01*
X155908916Y-90989260D01*
X155908914Y-90989257D01*
X155869451Y-90915427D01*
X155845149Y-90835316D01*
X155836944Y-90752000D01*
X155845149Y-90668684D01*
X155869451Y-90588573D01*
X155908914Y-90514743D01*
X155962026Y-90450026D01*
X156026740Y-90396916D01*
X156091617Y-90362239D01*
X156111989Y-90348627D01*
X156129316Y-90331300D01*
X156142930Y-90310925D01*
X156152307Y-90288286D01*
X156157088Y-90264253D01*
X156157088Y-90239749D01*
X156157088Y-90239747D01*
X156370912Y-90239747D01*
X156370912Y-90264251D01*
X156375692Y-90288285D01*
X156385069Y-90310924D01*
X156398683Y-90331299D01*
X156416010Y-90348626D01*
X156436383Y-90362239D01*
X156501260Y-90396916D01*
X156565974Y-90450026D01*
X156619084Y-90514740D01*
X156635080Y-90544666D01*
X156653759Y-90579614D01*
X156667373Y-90599989D01*
X156684700Y-90617316D01*
X156705075Y-90630930D01*
X156727714Y-90640307D01*
X156751747Y-90645088D01*
X156776251Y-90645088D01*
X156800285Y-90640308D01*
X156822924Y-90630931D01*
X156843299Y-90617317D01*
X156860626Y-90599990D01*
X156874241Y-90579614D01*
X156892921Y-90544666D01*
X156908916Y-90514740D01*
X156962026Y-90450026D01*
X157026740Y-90396916D01*
X157091617Y-90362239D01*
X157111989Y-90348627D01*
X157129316Y-90331300D01*
X157142930Y-90310925D01*
X157152307Y-90288286D01*
X157157088Y-90264253D01*
X157157088Y-90239749D01*
X157152308Y-90215715D01*
X157142931Y-90193076D01*
X157129317Y-90172701D01*
X157111990Y-90155374D01*
X157091617Y-90141761D01*
X157026740Y-90107084D01*
X156962026Y-90053974D01*
X156908916Y-89989260D01*
X156874239Y-89924383D01*
X156860627Y-89904011D01*
X156843300Y-89886684D01*
X156822925Y-89873070D01*
X156800286Y-89863693D01*
X156776253Y-89858912D01*
X156751749Y-89858912D01*
X156727715Y-89863692D01*
X156705076Y-89873069D01*
X156684701Y-89886683D01*
X156667374Y-89904010D01*
X156653761Y-89924383D01*
X156619084Y-89989260D01*
X156565974Y-90053974D01*
X156501260Y-90107084D01*
X156436383Y-90141761D01*
X156416011Y-90155373D01*
X156398684Y-90172700D01*
X156385070Y-90193075D01*
X156375693Y-90215714D01*
X156370912Y-90239747D01*
X156157088Y-90239747D01*
X156152308Y-90215715D01*
X156142931Y-90193076D01*
X156129317Y-90172701D01*
X156111990Y-90155374D01*
X156091617Y-90141761D01*
X156026740Y-90107084D01*
X155962026Y-90053974D01*
X155908916Y-89989260D01*
X155908914Y-89989257D01*
X155869451Y-89915427D01*
X155845149Y-89835316D01*
X155836944Y-89752000D01*
X155845149Y-89668684D01*
X155869451Y-89588573D01*
X155908914Y-89514743D01*
X155962026Y-89450026D01*
X156024660Y-89398623D01*
X156041984Y-89381299D01*
X156055597Y-89360924D01*
X156064975Y-89338285D01*
X156069755Y-89314252D01*
X156069755Y-89302000D01*
X156457643Y-89302000D01*
X156460045Y-89326386D01*
X156467158Y-89349835D01*
X156478709Y-89371446D01*
X156503341Y-89398624D01*
X156565974Y-89450026D01*
X156619084Y-89514740D01*
X156653759Y-89579614D01*
X156667373Y-89599989D01*
X156684700Y-89617316D01*
X156705075Y-89630930D01*
X156727714Y-89640307D01*
X156751747Y-89645088D01*
X156776251Y-89645088D01*
X156800285Y-89640308D01*
X156822924Y-89630931D01*
X156843299Y-89617317D01*
X156860626Y-89599990D01*
X156874241Y-89579614D01*
X156908916Y-89514740D01*
X156962026Y-89450026D01*
X157026740Y-89396916D01*
X157074392Y-89371446D01*
X157091617Y-89362239D01*
X157111989Y-89348627D01*
X157129316Y-89331300D01*
X157142930Y-89310925D01*
X157152307Y-89288286D01*
X157157088Y-89264253D01*
X157157088Y-89239749D01*
X157152308Y-89215715D01*
X157142931Y-89193076D01*
X157129317Y-89172701D01*
X157111990Y-89155374D01*
X157091617Y-89141761D01*
X157026740Y-89107084D01*
X156962026Y-89053974D01*
X156910623Y-88991340D01*
X156893299Y-88974016D01*
X156872924Y-88960403D01*
X156850285Y-88951025D01*
X156826252Y-88946245D01*
X156801747Y-88946245D01*
X156777714Y-88951026D01*
X156755075Y-88960403D01*
X156734700Y-88974017D01*
X156717373Y-88991344D01*
X156703760Y-89011719D01*
X156694382Y-89034358D01*
X156689000Y-89070643D01*
X156689000Y-89177000D01*
X156582643Y-89177000D01*
X156558257Y-89179402D01*
X156534808Y-89186515D01*
X156513197Y-89198066D01*
X156494255Y-89213612D01*
X156478709Y-89232554D01*
X156467158Y-89254165D01*
X156460045Y-89277614D01*
X156457643Y-89302000D01*
X156069755Y-89302000D01*
X156069755Y-89289747D01*
X156064974Y-89265714D01*
X156055597Y-89243075D01*
X156041983Y-89222700D01*
X156024656Y-89205373D01*
X156004281Y-89191760D01*
X155981642Y-89182382D01*
X155945357Y-89177000D01*
X155839000Y-89177000D01*
X155839000Y-88327000D01*
X156689000Y-88327000D01*
X156689000Y-88433357D01*
X156689000Y-88433357D01*
G37*
G36*
X144764571Y-90823695D02*
X137014571Y-90823695D01*
X137014571Y-89823695D01*
X144764571Y-89823695D01*
X144764571Y-90823695D01*
X144764571Y-90823695D01*
G37*
G36*
X133733595Y-89742650D02*
X133766307Y-89752574D01*
X133796461Y-89768692D01*
X133822887Y-89790379D01*
X133844574Y-89816805D01*
X133860692Y-89846959D01*
X133870616Y-89879671D01*
X133874571Y-89919833D01*
X133874571Y-90607557D01*
X133870616Y-90647719D01*
X133860692Y-90680431D01*
X133844574Y-90710585D01*
X133822887Y-90737011D01*
X133796461Y-90758698D01*
X133766307Y-90774816D01*
X133733595Y-90784740D01*
X133693433Y-90788695D01*
X133105709Y-90788695D01*
X133065547Y-90784740D01*
X133032835Y-90774816D01*
X133002681Y-90758698D01*
X132976255Y-90737011D01*
X132954568Y-90710585D01*
X132938450Y-90680431D01*
X132928526Y-90647719D01*
X132924571Y-90607557D01*
X132924571Y-89919833D01*
X132928526Y-89879671D01*
X132938450Y-89846959D01*
X132954568Y-89816805D01*
X132976255Y-89790379D01*
X133002681Y-89768692D01*
X133032835Y-89752574D01*
X133065547Y-89742650D01*
X133105709Y-89738695D01*
X133693433Y-89738695D01*
X133733595Y-89742650D01*
X133733595Y-89742650D01*
G37*
G36*
X131865650Y-89736121D02*
X131898362Y-89746045D01*
X131928516Y-89762163D01*
X131954942Y-89783850D01*
X131976629Y-89810276D01*
X131992747Y-89840430D01*
X132002671Y-89873142D01*
X132006626Y-89913304D01*
X132006626Y-90601028D01*
X132002671Y-90641190D01*
X131992747Y-90673902D01*
X131976629Y-90704056D01*
X131954942Y-90730482D01*
X131928516Y-90752169D01*
X131898362Y-90768287D01*
X131865650Y-90778211D01*
X131825488Y-90782166D01*
X131237764Y-90782166D01*
X131197602Y-90778211D01*
X131164890Y-90768287D01*
X131134736Y-90752169D01*
X131108310Y-90730482D01*
X131086623Y-90704056D01*
X131070505Y-90673902D01*
X131060581Y-90641190D01*
X131056626Y-90601028D01*
X131056626Y-89913304D01*
X131060581Y-89873142D01*
X131070505Y-89840430D01*
X131086623Y-89810276D01*
X131108310Y-89783850D01*
X131134736Y-89762163D01*
X131164890Y-89746045D01*
X131197602Y-89736121D01*
X131237764Y-89732166D01*
X131825488Y-89732166D01*
X131865650Y-89736121D01*
X131865650Y-89736121D01*
G37*
G36*
X133733595Y-87992650D02*
X133766307Y-88002574D01*
X133796461Y-88018692D01*
X133822887Y-88040379D01*
X133844574Y-88066805D01*
X133860692Y-88096959D01*
X133870616Y-88129671D01*
X133874571Y-88169833D01*
X133874571Y-88857557D01*
X133870616Y-88897719D01*
X133860692Y-88930431D01*
X133844574Y-88960585D01*
X133822887Y-88987011D01*
X133796461Y-89008698D01*
X133766307Y-89024816D01*
X133733595Y-89034740D01*
X133693433Y-89038695D01*
X133105709Y-89038695D01*
X133065547Y-89034740D01*
X133032835Y-89024816D01*
X133002681Y-89008698D01*
X132976255Y-88987011D01*
X132954568Y-88960585D01*
X132938450Y-88930431D01*
X132928526Y-88897719D01*
X132924571Y-88857557D01*
X132924571Y-88169833D01*
X132928526Y-88129671D01*
X132938450Y-88096959D01*
X132954568Y-88066805D01*
X132976255Y-88040379D01*
X133002681Y-88018692D01*
X133032835Y-88002574D01*
X133065547Y-87992650D01*
X133105709Y-87988695D01*
X133693433Y-87988695D01*
X133733595Y-87992650D01*
X133733595Y-87992650D01*
G37*
G36*
X131865650Y-87986121D02*
X131898362Y-87996045D01*
X131928516Y-88012163D01*
X131954942Y-88033850D01*
X131976629Y-88060276D01*
X131992747Y-88090430D01*
X132002671Y-88123142D01*
X132006626Y-88163304D01*
X132006626Y-88851028D01*
X132002671Y-88891190D01*
X131992747Y-88923902D01*
X131976629Y-88954056D01*
X131954942Y-88980482D01*
X131928516Y-89002169D01*
X131898362Y-89018287D01*
X131865650Y-89028211D01*
X131825488Y-89032166D01*
X131237764Y-89032166D01*
X131197602Y-89028211D01*
X131164890Y-89018287D01*
X131134736Y-89002169D01*
X131108310Y-88980482D01*
X131086623Y-88954056D01*
X131070505Y-88923902D01*
X131060581Y-88891190D01*
X131056626Y-88851028D01*
X131056626Y-88163304D01*
X131060581Y-88123142D01*
X131070505Y-88090430D01*
X131086623Y-88060276D01*
X131108310Y-88033850D01*
X131134736Y-88012163D01*
X131164890Y-87996045D01*
X131197602Y-87986121D01*
X131237764Y-87982166D01*
X131825488Y-87982166D01*
X131865650Y-87986121D01*
X131865650Y-87986121D01*
G37*
G36*
X147089571Y-88498695D02*
X146089571Y-88498695D01*
X146089571Y-80748695D01*
X147089571Y-80748695D01*
X147089571Y-88498695D01*
X147089571Y-88498695D01*
G37*
G36*
X135689571Y-88498695D02*
X134689571Y-88498695D01*
X134689571Y-80748695D01*
X135689571Y-80748695D01*
X135689571Y-88498695D01*
X135689571Y-88498695D01*
G37*
G36*
X156689000Y-82591357D02*
X156691402Y-82615743D01*
X156698515Y-82639192D01*
X156710066Y-82660803D01*
X156725612Y-82679745D01*
X156744554Y-82695291D01*
X156766165Y-82706842D01*
X156789614Y-82713955D01*
X156814000Y-82716357D01*
X156838386Y-82713955D01*
X156861835Y-82706842D01*
X156883446Y-82695291D01*
X156910624Y-82670659D01*
X156962026Y-82608026D01*
X157026740Y-82554916D01*
X157026742Y-82554915D01*
X157026743Y-82554914D01*
X157100573Y-82515451D01*
X157180684Y-82491149D01*
X157243122Y-82485000D01*
X157284878Y-82485000D01*
X157347316Y-82491149D01*
X157427427Y-82515451D01*
X157501257Y-82554914D01*
X157501258Y-82554915D01*
X157501260Y-82554916D01*
X157565974Y-82608026D01*
X157617375Y-82670657D01*
X157619086Y-82672743D01*
X157658549Y-82746573D01*
X157682851Y-82826684D01*
X157691056Y-82910000D01*
X157682851Y-82993316D01*
X157658549Y-83073427D01*
X157619086Y-83147257D01*
X157619084Y-83147260D01*
X157565974Y-83211974D01*
X157501260Y-83265084D01*
X157436383Y-83299761D01*
X157416011Y-83313373D01*
X157398684Y-83330700D01*
X157385070Y-83351075D01*
X157375693Y-83373714D01*
X157370912Y-83397747D01*
X157370912Y-83422251D01*
X157375692Y-83446285D01*
X157385069Y-83468924D01*
X157398683Y-83489299D01*
X157416010Y-83506626D01*
X157436383Y-83520239D01*
X157501260Y-83554916D01*
X157565974Y-83608026D01*
X157598550Y-83647719D01*
X157619086Y-83672743D01*
X157658549Y-83746573D01*
X157682851Y-83826684D01*
X157691056Y-83910000D01*
X157682851Y-83993316D01*
X157658549Y-84073427D01*
X157619086Y-84147257D01*
X157619084Y-84147260D01*
X157565974Y-84211974D01*
X157501260Y-84265084D01*
X157501258Y-84265085D01*
X157501257Y-84265086D01*
X157427427Y-84304549D01*
X157347316Y-84328851D01*
X157284878Y-84335000D01*
X157243122Y-84335000D01*
X157180684Y-84328851D01*
X157100573Y-84304549D01*
X157026743Y-84265086D01*
X157026742Y-84265085D01*
X157026740Y-84265084D01*
X156962026Y-84211974D01*
X156908916Y-84147260D01*
X156874239Y-84082383D01*
X156860627Y-84062011D01*
X156843300Y-84044684D01*
X156822925Y-84031070D01*
X156800286Y-84021693D01*
X156776253Y-84016912D01*
X156751749Y-84016912D01*
X156727715Y-84021692D01*
X156705076Y-84031069D01*
X156684701Y-84044683D01*
X156667374Y-84062010D01*
X156653761Y-84082383D01*
X156619084Y-84147260D01*
X156565974Y-84211974D01*
X156501260Y-84265084D01*
X156501258Y-84265085D01*
X156501257Y-84265086D01*
X156427427Y-84304549D01*
X156347316Y-84328851D01*
X156284878Y-84335000D01*
X156243122Y-84335000D01*
X156180684Y-84328851D01*
X156100573Y-84304549D01*
X156026743Y-84265086D01*
X156026742Y-84265085D01*
X156026740Y-84265084D01*
X155962026Y-84211974D01*
X155908916Y-84147260D01*
X155908914Y-84147257D01*
X155869451Y-84073427D01*
X155845149Y-83993316D01*
X155836944Y-83910000D01*
X155845149Y-83826684D01*
X155869451Y-83746573D01*
X155908914Y-83672743D01*
X155929451Y-83647719D01*
X155962026Y-83608026D01*
X156024660Y-83556623D01*
X156041984Y-83539299D01*
X156055597Y-83518924D01*
X156064975Y-83496285D01*
X156069755Y-83472252D01*
X156069755Y-83460000D01*
X156457643Y-83460000D01*
X156460045Y-83484386D01*
X156467158Y-83507835D01*
X156478709Y-83529446D01*
X156503341Y-83556624D01*
X156554944Y-83598974D01*
X156565974Y-83608026D01*
X156619084Y-83672740D01*
X156653759Y-83737614D01*
X156667373Y-83757989D01*
X156684700Y-83775316D01*
X156705075Y-83788930D01*
X156727714Y-83798307D01*
X156751747Y-83803088D01*
X156776251Y-83803088D01*
X156800285Y-83798308D01*
X156822924Y-83788931D01*
X156843299Y-83775317D01*
X156860626Y-83757990D01*
X156874241Y-83737614D01*
X156908916Y-83672740D01*
X156962026Y-83608026D01*
X157026740Y-83554916D01*
X157055958Y-83539299D01*
X157091617Y-83520239D01*
X157111989Y-83506627D01*
X157129316Y-83489300D01*
X157142930Y-83468925D01*
X157152307Y-83446286D01*
X157157088Y-83422253D01*
X157157088Y-83397749D01*
X157152308Y-83373715D01*
X157142931Y-83351076D01*
X157129317Y-83330701D01*
X157111990Y-83313374D01*
X157091617Y-83299761D01*
X157026740Y-83265084D01*
X156962026Y-83211974D01*
X156910623Y-83149340D01*
X156893299Y-83132016D01*
X156872924Y-83118403D01*
X156850285Y-83109025D01*
X156826252Y-83104245D01*
X156801747Y-83104245D01*
X156777714Y-83109026D01*
X156755075Y-83118403D01*
X156734700Y-83132017D01*
X156717373Y-83149344D01*
X156703760Y-83169719D01*
X156694382Y-83192358D01*
X156689000Y-83228643D01*
X156689000Y-83335000D01*
X156582643Y-83335000D01*
X156558257Y-83337402D01*
X156534808Y-83344515D01*
X156513197Y-83356066D01*
X156494255Y-83371612D01*
X156478709Y-83390554D01*
X156467158Y-83412165D01*
X156460045Y-83435614D01*
X156457643Y-83460000D01*
X156069755Y-83460000D01*
X156069755Y-83447747D01*
X156064974Y-83423714D01*
X156055597Y-83401075D01*
X156041983Y-83380700D01*
X156024656Y-83363373D01*
X156004281Y-83349760D01*
X155981642Y-83340382D01*
X155945357Y-83335000D01*
X155839000Y-83335000D01*
X155839000Y-82485000D01*
X156689000Y-82485000D01*
X156689000Y-82591357D01*
X156689000Y-82591357D01*
G37*
G36*
X133733595Y-82742650D02*
X133766307Y-82752574D01*
X133796461Y-82768692D01*
X133822887Y-82790379D01*
X133844574Y-82816805D01*
X133860692Y-82846959D01*
X133870616Y-82879671D01*
X133874571Y-82919833D01*
X133874571Y-83607557D01*
X133870616Y-83647719D01*
X133860692Y-83680431D01*
X133844574Y-83710585D01*
X133822887Y-83737011D01*
X133796461Y-83758698D01*
X133766307Y-83774816D01*
X133733595Y-83784740D01*
X133693433Y-83788695D01*
X133105709Y-83788695D01*
X133065547Y-83784740D01*
X133032835Y-83774816D01*
X133002681Y-83758698D01*
X132976255Y-83737011D01*
X132954568Y-83710585D01*
X132938450Y-83680431D01*
X132928526Y-83647719D01*
X132924571Y-83607557D01*
X132924571Y-82919833D01*
X132928526Y-82879671D01*
X132938450Y-82846959D01*
X132954568Y-82816805D01*
X132976255Y-82790379D01*
X133002681Y-82768692D01*
X133032835Y-82752574D01*
X133065547Y-82742650D01*
X133105709Y-82738695D01*
X133693433Y-82738695D01*
X133733595Y-82742650D01*
X133733595Y-82742650D01*
G37*
G36*
X150298024Y-82692955D02*
X150330736Y-82702879D01*
X150360890Y-82718997D01*
X150387316Y-82740684D01*
X150409003Y-82767110D01*
X150425121Y-82797264D01*
X150435045Y-82829976D01*
X150439000Y-82870138D01*
X150439000Y-83457862D01*
X150435045Y-83498024D01*
X150425121Y-83530736D01*
X150409003Y-83560890D01*
X150387316Y-83587316D01*
X150360890Y-83609003D01*
X150330736Y-83625121D01*
X150298024Y-83635045D01*
X150257862Y-83639000D01*
X149570138Y-83639000D01*
X149529976Y-83635045D01*
X149497264Y-83625121D01*
X149467110Y-83609003D01*
X149440684Y-83587316D01*
X149418997Y-83560890D01*
X149402879Y-83530736D01*
X149392955Y-83498024D01*
X149389000Y-83457862D01*
X149389000Y-82870138D01*
X149392955Y-82829976D01*
X149402879Y-82797264D01*
X149418997Y-82767110D01*
X149440684Y-82740684D01*
X149467110Y-82718997D01*
X149497264Y-82702879D01*
X149529976Y-82692955D01*
X149570138Y-82689000D01*
X150257862Y-82689000D01*
X150298024Y-82692955D01*
X150298024Y-82692955D01*
G37*
G36*
X148548024Y-82692955D02*
X148580736Y-82702879D01*
X148610890Y-82718997D01*
X148637316Y-82740684D01*
X148659003Y-82767110D01*
X148675121Y-82797264D01*
X148685045Y-82829976D01*
X148689000Y-82870138D01*
X148689000Y-83457862D01*
X148685045Y-83498024D01*
X148675121Y-83530736D01*
X148659003Y-83560890D01*
X148637316Y-83587316D01*
X148610890Y-83609003D01*
X148580736Y-83625121D01*
X148548024Y-83635045D01*
X148507862Y-83639000D01*
X147820138Y-83639000D01*
X147779976Y-83635045D01*
X147747264Y-83625121D01*
X147717110Y-83609003D01*
X147690684Y-83587316D01*
X147668997Y-83560890D01*
X147652879Y-83530736D01*
X147642955Y-83498024D01*
X147639000Y-83457862D01*
X147639000Y-82870138D01*
X147642955Y-82829976D01*
X147652879Y-82797264D01*
X147668997Y-82767110D01*
X147690684Y-82740684D01*
X147717110Y-82718997D01*
X147747264Y-82702879D01*
X147779976Y-82692955D01*
X147820138Y-82689000D01*
X148507862Y-82689000D01*
X148548024Y-82692955D01*
X148548024Y-82692955D01*
G37*
G36*
X131925000Y-80675000D02*
X131818643Y-80675000D01*
X131794257Y-80677402D01*
X131770808Y-80684515D01*
X131749197Y-80696066D01*
X131730255Y-80711612D01*
X131714709Y-80730554D01*
X131703158Y-80752165D01*
X131696045Y-80775614D01*
X131693643Y-80800000D01*
X131696045Y-80824386D01*
X131703158Y-80847835D01*
X131714709Y-80869446D01*
X131739341Y-80896624D01*
X131801974Y-80948026D01*
X131850188Y-81006774D01*
X131855086Y-81012743D01*
X131894549Y-81086573D01*
X131918851Y-81166684D01*
X131927056Y-81250000D01*
X131918851Y-81333316D01*
X131894549Y-81413427D01*
X131855086Y-81487257D01*
X131855084Y-81487260D01*
X131801974Y-81551974D01*
X131737260Y-81605084D01*
X131672383Y-81639761D01*
X131652011Y-81653373D01*
X131634684Y-81670700D01*
X131621070Y-81691075D01*
X131611693Y-81713714D01*
X131606912Y-81737747D01*
X131606912Y-81762251D01*
X131611692Y-81786285D01*
X131621069Y-81808924D01*
X131634683Y-81829299D01*
X131652010Y-81846626D01*
X131672383Y-81860239D01*
X131737260Y-81894916D01*
X131801974Y-81948026D01*
X131851767Y-82008698D01*
X131855086Y-82012743D01*
X131894549Y-82086573D01*
X131918851Y-82166684D01*
X131927056Y-82250000D01*
X131918851Y-82333316D01*
X131894549Y-82413427D01*
X131856292Y-82485000D01*
X131855084Y-82487260D01*
X131801974Y-82551974D01*
X131737260Y-82605084D01*
X131737258Y-82605085D01*
X131737257Y-82605086D01*
X131663427Y-82644549D01*
X131583316Y-82668851D01*
X131520878Y-82675000D01*
X131479122Y-82675000D01*
X131416684Y-82668851D01*
X131336573Y-82644549D01*
X131262743Y-82605086D01*
X131262742Y-82605085D01*
X131262740Y-82605084D01*
X131198026Y-82551974D01*
X131144916Y-82487260D01*
X131143708Y-82485000D01*
X131105451Y-82413427D01*
X131081149Y-82333316D01*
X131072944Y-82250000D01*
X131081149Y-82166684D01*
X131105451Y-82086573D01*
X131144914Y-82012743D01*
X131148234Y-82008698D01*
X131198026Y-81948026D01*
X131262740Y-81894916D01*
X131327617Y-81860239D01*
X131347989Y-81846627D01*
X131365316Y-81829300D01*
X131378930Y-81808925D01*
X131388307Y-81786286D01*
X131393088Y-81762253D01*
X131393088Y-81737749D01*
X131388308Y-81713715D01*
X131378931Y-81691076D01*
X131365317Y-81670701D01*
X131347990Y-81653374D01*
X131327617Y-81639761D01*
X131262740Y-81605084D01*
X131198026Y-81551974D01*
X131144916Y-81487260D01*
X131144914Y-81487257D01*
X131105451Y-81413427D01*
X131081149Y-81333316D01*
X131072944Y-81250000D01*
X131081149Y-81166684D01*
X131105451Y-81086573D01*
X131144914Y-81012743D01*
X131149813Y-81006774D01*
X131198026Y-80948026D01*
X131260660Y-80896623D01*
X131277984Y-80879299D01*
X131291597Y-80858924D01*
X131300975Y-80836285D01*
X131305755Y-80812252D01*
X131305755Y-80787747D01*
X131300974Y-80763714D01*
X131291597Y-80741075D01*
X131277983Y-80720700D01*
X131260656Y-80703373D01*
X131240281Y-80689760D01*
X131217642Y-80680382D01*
X131181357Y-80675000D01*
X131075000Y-80675000D01*
X131075000Y-79825000D01*
X131925000Y-79825000D01*
X131925000Y-80675000D01*
X131925000Y-80675000D01*
G37*
G36*
X133733595Y-80992650D02*
X133766307Y-81002574D01*
X133796461Y-81018692D01*
X133822887Y-81040379D01*
X133844574Y-81066805D01*
X133860692Y-81096959D01*
X133870616Y-81129671D01*
X133874571Y-81169833D01*
X133874571Y-81857557D01*
X133870616Y-81897719D01*
X133860692Y-81930431D01*
X133844574Y-81960585D01*
X133822887Y-81987011D01*
X133796461Y-82008698D01*
X133766307Y-82024816D01*
X133733595Y-82034740D01*
X133693433Y-82038695D01*
X133105709Y-82038695D01*
X133065547Y-82034740D01*
X133032835Y-82024816D01*
X133002681Y-82008698D01*
X132976255Y-81987011D01*
X132954568Y-81960585D01*
X132938450Y-81930431D01*
X132928526Y-81897719D01*
X132924571Y-81857557D01*
X132924571Y-81169833D01*
X132928526Y-81129671D01*
X132938450Y-81096959D01*
X132954568Y-81066805D01*
X132976255Y-81040379D01*
X133002681Y-81018692D01*
X133032835Y-81002574D01*
X133065547Y-80992650D01*
X133105709Y-80988695D01*
X133693433Y-80988695D01*
X133733595Y-80992650D01*
X133733595Y-80992650D01*
G37*
G36*
X148593595Y-80387650D02*
X148626307Y-80397574D01*
X148656461Y-80413692D01*
X148682887Y-80435379D01*
X148704574Y-80461805D01*
X148720692Y-80491959D01*
X148730616Y-80524671D01*
X148734571Y-80564833D01*
X148734571Y-81252557D01*
X148730616Y-81292719D01*
X148720692Y-81325431D01*
X148704574Y-81355585D01*
X148682887Y-81382011D01*
X148656461Y-81403698D01*
X148626307Y-81419816D01*
X148593595Y-81429740D01*
X148553433Y-81433695D01*
X147965709Y-81433695D01*
X147925547Y-81429740D01*
X147892835Y-81419816D01*
X147862681Y-81403698D01*
X147836255Y-81382011D01*
X147814568Y-81355585D01*
X147798450Y-81325431D01*
X147788526Y-81292719D01*
X147784571Y-81252557D01*
X147784571Y-80564833D01*
X147788526Y-80524671D01*
X147798450Y-80491959D01*
X147814568Y-80461805D01*
X147836255Y-80435379D01*
X147862681Y-80413692D01*
X147892835Y-80397574D01*
X147925547Y-80387650D01*
X147965709Y-80383695D01*
X148553433Y-80383695D01*
X148593595Y-80387650D01*
X148593595Y-80387650D01*
G37*
G36*
X148593595Y-78637650D02*
X148626307Y-78647574D01*
X148656461Y-78663692D01*
X148682887Y-78685379D01*
X148704574Y-78711805D01*
X148720692Y-78741959D01*
X148730616Y-78774671D01*
X148734571Y-78814833D01*
X148734571Y-79502557D01*
X148730616Y-79542719D01*
X148720692Y-79575431D01*
X148704574Y-79605585D01*
X148682887Y-79632011D01*
X148656461Y-79653698D01*
X148626307Y-79669816D01*
X148593595Y-79679740D01*
X148553433Y-79683695D01*
X147965709Y-79683695D01*
X147925547Y-79679740D01*
X147892835Y-79669816D01*
X147862681Y-79653698D01*
X147836255Y-79632011D01*
X147814568Y-79605585D01*
X147798450Y-79575431D01*
X147788526Y-79542719D01*
X147784571Y-79502557D01*
X147784571Y-78814833D01*
X147788526Y-78774671D01*
X147798450Y-78741959D01*
X147814568Y-78711805D01*
X147836255Y-78685379D01*
X147862681Y-78663692D01*
X147892835Y-78647574D01*
X147925547Y-78637650D01*
X147965709Y-78633695D01*
X148553433Y-78633695D01*
X148593595Y-78637650D01*
X148593595Y-78637650D01*
G37*
G36*
X144764571Y-79423695D02*
X137014571Y-79423695D01*
X137014571Y-78423695D01*
X144764571Y-78423695D01*
X144764571Y-79423695D01*
X144764571Y-79423695D01*
G37*
G36*
X156396056Y-77395281D02*
X156476167Y-77419583D01*
X156549997Y-77459046D01*
X156549998Y-77459047D01*
X156550000Y-77459048D01*
X156551151Y-77459993D01*
X156614714Y-77512158D01*
X156667824Y-77576872D01*
X156702499Y-77641746D01*
X156716113Y-77662121D01*
X156733440Y-77679448D01*
X156753815Y-77693062D01*
X156776454Y-77702439D01*
X156800487Y-77707220D01*
X156824991Y-77707220D01*
X156849025Y-77702440D01*
X156871664Y-77693063D01*
X156892039Y-77679449D01*
X156909366Y-77662122D01*
X156922981Y-77641746D01*
X156957656Y-77576872D01*
X157010766Y-77512158D01*
X157074329Y-77459993D01*
X157075480Y-77459048D01*
X157075482Y-77459047D01*
X157075483Y-77459046D01*
X157149313Y-77419583D01*
X157229424Y-77395281D01*
X157291862Y-77389132D01*
X157333618Y-77389132D01*
X157396056Y-77395281D01*
X157476167Y-77419583D01*
X157549997Y-77459046D01*
X157549998Y-77459047D01*
X157550000Y-77459048D01*
X157614714Y-77512158D01*
X157621170Y-77520024D01*
X157667826Y-77576875D01*
X157707289Y-77650705D01*
X157731591Y-77730816D01*
X157739796Y-77814132D01*
X157731591Y-77897448D01*
X157707289Y-77977559D01*
X157667826Y-78051389D01*
X157667824Y-78051392D01*
X157614714Y-78116106D01*
X157552080Y-78167509D01*
X157534756Y-78184833D01*
X157521143Y-78205208D01*
X157511765Y-78227847D01*
X157506985Y-78251880D01*
X157506985Y-78276385D01*
X157511766Y-78300418D01*
X157521143Y-78323057D01*
X157534757Y-78343432D01*
X157552084Y-78360759D01*
X157572459Y-78374372D01*
X157595098Y-78383750D01*
X157631383Y-78389132D01*
X157737740Y-78389132D01*
X157737740Y-79239132D01*
X156887740Y-79239132D01*
X156887740Y-79132775D01*
X156885338Y-79108389D01*
X156878225Y-79084940D01*
X156866674Y-79063329D01*
X156851128Y-79044387D01*
X156832186Y-79028841D01*
X156810575Y-79017290D01*
X156787126Y-79010177D01*
X156762740Y-79007775D01*
X156738354Y-79010177D01*
X156714905Y-79017290D01*
X156693294Y-79028841D01*
X156666116Y-79053473D01*
X156614714Y-79116106D01*
X156550000Y-79169216D01*
X156549998Y-79169217D01*
X156549997Y-79169218D01*
X156476167Y-79208681D01*
X156396056Y-79232983D01*
X156333618Y-79239132D01*
X156291862Y-79239132D01*
X156229424Y-79232983D01*
X156149313Y-79208681D01*
X156075483Y-79169218D01*
X156075482Y-79169217D01*
X156075480Y-79169216D01*
X156010766Y-79116106D01*
X155957656Y-79051392D01*
X155957654Y-79051389D01*
X155918191Y-78977559D01*
X155893889Y-78897448D01*
X155885684Y-78814132D01*
X155893889Y-78730816D01*
X155918191Y-78650705D01*
X155957654Y-78576875D01*
X155959366Y-78574789D01*
X156010766Y-78512158D01*
X156075480Y-78459048D01*
X156140357Y-78424371D01*
X156160729Y-78410759D01*
X156178056Y-78393432D01*
X156191670Y-78373057D01*
X156201047Y-78350418D01*
X156205828Y-78326385D01*
X156205828Y-78301881D01*
X156205828Y-78301879D01*
X156419652Y-78301879D01*
X156419652Y-78326383D01*
X156424432Y-78350417D01*
X156433809Y-78373056D01*
X156447423Y-78393431D01*
X156464750Y-78410758D01*
X156485123Y-78424371D01*
X156550000Y-78459048D01*
X156614714Y-78512158D01*
X156666117Y-78574792D01*
X156683441Y-78592116D01*
X156703816Y-78605729D01*
X156726455Y-78615107D01*
X156750488Y-78619887D01*
X156774993Y-78619887D01*
X156799026Y-78615106D01*
X156821665Y-78605729D01*
X156842040Y-78592115D01*
X156859367Y-78574788D01*
X156872980Y-78554413D01*
X156882358Y-78531774D01*
X156887740Y-78495489D01*
X156887740Y-78389132D01*
X156994097Y-78389132D01*
X157018483Y-78386730D01*
X157041932Y-78379617D01*
X157063543Y-78368066D01*
X157082485Y-78352520D01*
X157098031Y-78333578D01*
X157109582Y-78311967D01*
X157116695Y-78288518D01*
X157119097Y-78264132D01*
X157116695Y-78239746D01*
X157109582Y-78216297D01*
X157098031Y-78194686D01*
X157073399Y-78167508D01*
X157010766Y-78116106D01*
X156957656Y-78051392D01*
X156922979Y-77986515D01*
X156909367Y-77966143D01*
X156892040Y-77948816D01*
X156871665Y-77935202D01*
X156849026Y-77925825D01*
X156824993Y-77921044D01*
X156800489Y-77921044D01*
X156776455Y-77925824D01*
X156753816Y-77935201D01*
X156733441Y-77948815D01*
X156716114Y-77966142D01*
X156702501Y-77986515D01*
X156667824Y-78051392D01*
X156614714Y-78116106D01*
X156550000Y-78169216D01*
X156485123Y-78203893D01*
X156464751Y-78217505D01*
X156447424Y-78234832D01*
X156433810Y-78255207D01*
X156424433Y-78277846D01*
X156419652Y-78301879D01*
X156205828Y-78301879D01*
X156201048Y-78277847D01*
X156191671Y-78255208D01*
X156178057Y-78234833D01*
X156160730Y-78217506D01*
X156140357Y-78203893D01*
X156075480Y-78169216D01*
X156010766Y-78116106D01*
X155957656Y-78051392D01*
X155957654Y-78051389D01*
X155918191Y-77977559D01*
X155893889Y-77897448D01*
X155885684Y-77814132D01*
X155893889Y-77730816D01*
X155918191Y-77650705D01*
X155957654Y-77576875D01*
X156004311Y-77520024D01*
X156010766Y-77512158D01*
X156075480Y-77459048D01*
X156075482Y-77459047D01*
X156075483Y-77459046D01*
X156149313Y-77419583D01*
X156229424Y-77395281D01*
X156291862Y-77389132D01*
X156333618Y-77389132D01*
X156396056Y-77395281D01*
X156396056Y-77395281D01*
G37*
G36*
X139200183Y-76592058D02*
X139232895Y-76601982D01*
X139263049Y-76618100D01*
X139289475Y-76639787D01*
X139311162Y-76666213D01*
X139327280Y-76696367D01*
X139337204Y-76729079D01*
X139341159Y-76769241D01*
X139341159Y-77356965D01*
X139337204Y-77397127D01*
X139327280Y-77429839D01*
X139311162Y-77459993D01*
X139289475Y-77486419D01*
X139263049Y-77508106D01*
X139232895Y-77524224D01*
X139200183Y-77534148D01*
X139160021Y-77538103D01*
X138472297Y-77538103D01*
X138432135Y-77534148D01*
X138399423Y-77524224D01*
X138369269Y-77508106D01*
X138342843Y-77486419D01*
X138321156Y-77459993D01*
X138305038Y-77429839D01*
X138295114Y-77397127D01*
X138291159Y-77356965D01*
X138291159Y-76769241D01*
X138295114Y-76729079D01*
X138305038Y-76696367D01*
X138321156Y-76666213D01*
X138342843Y-76639787D01*
X138369269Y-76618100D01*
X138399423Y-76601982D01*
X138432135Y-76592058D01*
X138472297Y-76588103D01*
X139160021Y-76588103D01*
X139200183Y-76592058D01*
X139200183Y-76592058D01*
G37*
G36*
X137450183Y-76592058D02*
X137482895Y-76601982D01*
X137513049Y-76618100D01*
X137539475Y-76639787D01*
X137561162Y-76666213D01*
X137577280Y-76696367D01*
X137587204Y-76729079D01*
X137591159Y-76769241D01*
X137591159Y-77356965D01*
X137587204Y-77397127D01*
X137577280Y-77429839D01*
X137561162Y-77459993D01*
X137539475Y-77486419D01*
X137513049Y-77508106D01*
X137482895Y-77524224D01*
X137450183Y-77534148D01*
X137410021Y-77538103D01*
X136722297Y-77538103D01*
X136682135Y-77534148D01*
X136649423Y-77524224D01*
X136619269Y-77508106D01*
X136592843Y-77486419D01*
X136571156Y-77459993D01*
X136555038Y-77429839D01*
X136545114Y-77397127D01*
X136541159Y-77356965D01*
X136541159Y-76769241D01*
X136545114Y-76729079D01*
X136555038Y-76696367D01*
X136571156Y-76666213D01*
X136592843Y-76639787D01*
X136619269Y-76618100D01*
X136649423Y-76601982D01*
X136682135Y-76592058D01*
X136722297Y-76588103D01*
X137410021Y-76588103D01*
X137450183Y-76592058D01*
X137450183Y-76592058D01*
G37*
G36*
X142700183Y-76592058D02*
X142732895Y-76601982D01*
X142763049Y-76618100D01*
X142789475Y-76639787D01*
X142811162Y-76666213D01*
X142827280Y-76696367D01*
X142837204Y-76729079D01*
X142841159Y-76769241D01*
X142841159Y-77356965D01*
X142837204Y-77397127D01*
X142827280Y-77429839D01*
X142811162Y-77459993D01*
X142789475Y-77486419D01*
X142763049Y-77508106D01*
X142732895Y-77524224D01*
X142700183Y-77534148D01*
X142660021Y-77538103D01*
X141972297Y-77538103D01*
X141932135Y-77534148D01*
X141899423Y-77524224D01*
X141869269Y-77508106D01*
X141842843Y-77486419D01*
X141821156Y-77459993D01*
X141805038Y-77429839D01*
X141795114Y-77397127D01*
X141791159Y-77356965D01*
X141791159Y-76769241D01*
X141795114Y-76729079D01*
X141805038Y-76696367D01*
X141821156Y-76666213D01*
X141842843Y-76639787D01*
X141869269Y-76618100D01*
X141899423Y-76601982D01*
X141932135Y-76592058D01*
X141972297Y-76588103D01*
X142660021Y-76588103D01*
X142700183Y-76592058D01*
X142700183Y-76592058D01*
G37*
G36*
X144450183Y-76592058D02*
X144482895Y-76601982D01*
X144513049Y-76618100D01*
X144539475Y-76639787D01*
X144561162Y-76666213D01*
X144577280Y-76696367D01*
X144587204Y-76729079D01*
X144591159Y-76769241D01*
X144591159Y-77356965D01*
X144587204Y-77397127D01*
X144577280Y-77429839D01*
X144561162Y-77459993D01*
X144539475Y-77486419D01*
X144513049Y-77508106D01*
X144482895Y-77524224D01*
X144450183Y-77534148D01*
X144410021Y-77538103D01*
X143722297Y-77538103D01*
X143682135Y-77534148D01*
X143649423Y-77524224D01*
X143619269Y-77508106D01*
X143592843Y-77486419D01*
X143571156Y-77459993D01*
X143555038Y-77429839D01*
X143545114Y-77397127D01*
X143541159Y-77356965D01*
X143541159Y-76769241D01*
X143545114Y-76729079D01*
X143555038Y-76696367D01*
X143571156Y-76666213D01*
X143592843Y-76639787D01*
X143619269Y-76618100D01*
X143649423Y-76601982D01*
X143682135Y-76592058D01*
X143722297Y-76588103D01*
X144410021Y-76588103D01*
X144450183Y-76592058D01*
X144450183Y-76592058D01*
G37*
M02*
