G04 #@! TF.GenerationSoftware,KiCad,Pcbnew,5.0.2-bee76a0~70~ubuntu18.04.1*
G04 #@! TF.CreationDate,2020-07-11T19:39:15-07:00*
G04 #@! TF.ProjectId,light_thing_hw,6c696768-745f-4746-9869-6e675f68772e,rev?*
G04 #@! TF.SameCoordinates,Original*
G04 #@! TF.FileFunction,Legend,Bot*
G04 #@! TF.FilePolarity,Positive*
%FSLAX46Y46*%
G04 Gerber Fmt 4.6, Leading zero omitted, Abs format (unit mm)*
G04 Created by KiCad (PCBNEW 5.0.2-bee76a0~70~ubuntu18.04.1) date Sat 11 Jul 2020 07:39:15 PM PDT*
%MOMM*%
%LPD*%
G01*
G04 APERTURE LIST*
%ADD10C,0.100000*%
%ADD11C,0.200000*%
%ADD12C,0.125000*%
%ADD13C,0.500000*%
%ADD14C,0.120000*%
%ADD15C,0.127000*%
%ADD16C,0.152400*%
%ADD17C,0.150000*%
%ADD18C,0.101600*%
%ADD19C,0.015000*%
G04 APERTURE END LIST*
D10*
X125892857Y-90226190D02*
X125892857Y-90630952D01*
X125869047Y-90678571D01*
X125845238Y-90702380D01*
X125797619Y-90726190D01*
X125702380Y-90726190D01*
X125654761Y-90702380D01*
X125630952Y-90678571D01*
X125607142Y-90630952D01*
X125607142Y-90226190D01*
X125392857Y-90702380D02*
X125321428Y-90726190D01*
X125202380Y-90726190D01*
X125154761Y-90702380D01*
X125130952Y-90678571D01*
X125107142Y-90630952D01*
X125107142Y-90583333D01*
X125130952Y-90535714D01*
X125154761Y-90511904D01*
X125202380Y-90488095D01*
X125297619Y-90464285D01*
X125345238Y-90440476D01*
X125369047Y-90416666D01*
X125392857Y-90369047D01*
X125392857Y-90321428D01*
X125369047Y-90273809D01*
X125345238Y-90250000D01*
X125297619Y-90226190D01*
X125178571Y-90226190D01*
X125107142Y-90250000D01*
X124892857Y-90464285D02*
X124726190Y-90464285D01*
X124654761Y-90726190D02*
X124892857Y-90726190D01*
X124892857Y-90226190D01*
X124654761Y-90226190D01*
X124154761Y-90726190D02*
X124321428Y-90488095D01*
X124440476Y-90726190D02*
X124440476Y-90226190D01*
X124250000Y-90226190D01*
X124202380Y-90250000D01*
X124178571Y-90273809D01*
X124154761Y-90321428D01*
X124154761Y-90392857D01*
X124178571Y-90440476D01*
X124202380Y-90464285D01*
X124250000Y-90488095D01*
X124440476Y-90488095D01*
X123392857Y-90464285D02*
X123321428Y-90488095D01*
X123297619Y-90511904D01*
X123273809Y-90559523D01*
X123273809Y-90630952D01*
X123297619Y-90678571D01*
X123321428Y-90702380D01*
X123369047Y-90726190D01*
X123559523Y-90726190D01*
X123559523Y-90226190D01*
X123392857Y-90226190D01*
X123345238Y-90250000D01*
X123321428Y-90273809D01*
X123297619Y-90321428D01*
X123297619Y-90369047D01*
X123321428Y-90416666D01*
X123345238Y-90440476D01*
X123392857Y-90464285D01*
X123559523Y-90464285D01*
X123059523Y-90226190D02*
X123059523Y-90630952D01*
X123035714Y-90678571D01*
X123011904Y-90702380D01*
X122964285Y-90726190D01*
X122869047Y-90726190D01*
X122821428Y-90702380D01*
X122797619Y-90678571D01*
X122773809Y-90630952D01*
X122773809Y-90226190D01*
X122607142Y-90226190D02*
X122321428Y-90226190D01*
X122464285Y-90726190D02*
X122464285Y-90226190D01*
X122226190Y-90226190D02*
X121940476Y-90226190D01*
X122083333Y-90726190D02*
X122083333Y-90226190D01*
X121678571Y-90226190D02*
X121583333Y-90226190D01*
X121535714Y-90250000D01*
X121488095Y-90297619D01*
X121464285Y-90392857D01*
X121464285Y-90559523D01*
X121488095Y-90654761D01*
X121535714Y-90702380D01*
X121583333Y-90726190D01*
X121678571Y-90726190D01*
X121726190Y-90702380D01*
X121773809Y-90654761D01*
X121797619Y-90559523D01*
X121797619Y-90392857D01*
X121773809Y-90297619D01*
X121726190Y-90250000D01*
X121678571Y-90226190D01*
X121250000Y-90726190D02*
X121250000Y-90226190D01*
X120964285Y-90726190D01*
X120964285Y-90226190D01*
X120083333Y-90726190D02*
X120369047Y-90726190D01*
X120226190Y-90726190D02*
X120226190Y-90226190D01*
X120273809Y-90297619D01*
X120321428Y-90345238D01*
X120369047Y-90369047D01*
X163116666Y-72826190D02*
X163116666Y-72564285D01*
X163140476Y-72516666D01*
X163188095Y-72492857D01*
X163283333Y-72492857D01*
X163330952Y-72516666D01*
X163116666Y-72802380D02*
X163164285Y-72826190D01*
X163283333Y-72826190D01*
X163330952Y-72802380D01*
X163354761Y-72754761D01*
X163354761Y-72707142D01*
X163330952Y-72659523D01*
X163283333Y-72635714D01*
X163164285Y-72635714D01*
X163116666Y-72611904D01*
X162664285Y-72802380D02*
X162711904Y-72826190D01*
X162807142Y-72826190D01*
X162854761Y-72802380D01*
X162878571Y-72778571D01*
X162902380Y-72730952D01*
X162902380Y-72588095D01*
X162878571Y-72540476D01*
X162854761Y-72516666D01*
X162807142Y-72492857D01*
X162711904Y-72492857D01*
X162664285Y-72516666D01*
X162235714Y-72802380D02*
X162283333Y-72826190D01*
X162378571Y-72826190D01*
X162426190Y-72802380D01*
X162450000Y-72778571D01*
X162473809Y-72730952D01*
X162473809Y-72588095D01*
X162450000Y-72540476D01*
X162426190Y-72516666D01*
X162378571Y-72492857D01*
X162283333Y-72492857D01*
X162235714Y-72516666D01*
X161830952Y-72802380D02*
X161878571Y-72826190D01*
X161973809Y-72826190D01*
X162021428Y-72802380D01*
X162045238Y-72754761D01*
X162045238Y-72564285D01*
X162021428Y-72516666D01*
X161973809Y-72492857D01*
X161878571Y-72492857D01*
X161830952Y-72516666D01*
X161807142Y-72564285D01*
X161807142Y-72611904D01*
X162045238Y-72659523D01*
X161521428Y-72826190D02*
X161569047Y-72802380D01*
X161592857Y-72754761D01*
X161592857Y-72326190D01*
X139289023Y-99644488D02*
X139265213Y-99692107D01*
X139265213Y-99787345D01*
X139289023Y-99834964D01*
X139312832Y-99858774D01*
X139360451Y-99882583D01*
X139503308Y-99882583D01*
X139550927Y-99858774D01*
X139574737Y-99834964D01*
X139598546Y-99787345D01*
X139598546Y-99692107D01*
X139574737Y-99644488D01*
X139265213Y-99430202D02*
X139765213Y-99430202D01*
X139265213Y-99215916D02*
X139527118Y-99215916D01*
X139574737Y-99239726D01*
X139598546Y-99287345D01*
X139598546Y-99358774D01*
X139574737Y-99406393D01*
X139550927Y-99430202D01*
X139265213Y-98763535D02*
X139527118Y-98763535D01*
X139574737Y-98787345D01*
X139598546Y-98834964D01*
X139598546Y-98930202D01*
X139574737Y-98977821D01*
X139289023Y-98763535D02*
X139265213Y-98811155D01*
X139265213Y-98930202D01*
X139289023Y-98977821D01*
X139336642Y-99001631D01*
X139384261Y-99001631D01*
X139431880Y-98977821D01*
X139455689Y-98930202D01*
X139455689Y-98811155D01*
X139479499Y-98763535D01*
X139265213Y-98525440D02*
X139598546Y-98525440D01*
X139503308Y-98525440D02*
X139550927Y-98501631D01*
X139574737Y-98477821D01*
X139598546Y-98430202D01*
X139598546Y-98382583D01*
X139598546Y-98001631D02*
X139193784Y-98001631D01*
X139146165Y-98025440D01*
X139122356Y-98049250D01*
X139098546Y-98096869D01*
X139098546Y-98168297D01*
X139122356Y-98215916D01*
X139289023Y-98001631D02*
X139265213Y-98049250D01*
X139265213Y-98144488D01*
X139289023Y-98192107D01*
X139312832Y-98215916D01*
X139360451Y-98239726D01*
X139503308Y-98239726D01*
X139550927Y-98215916D01*
X139574737Y-98192107D01*
X139598546Y-98144488D01*
X139598546Y-98049250D01*
X139574737Y-98001631D01*
X139289023Y-97573059D02*
X139265213Y-97620678D01*
X139265213Y-97715916D01*
X139289023Y-97763535D01*
X139336642Y-97787345D01*
X139527118Y-97787345D01*
X139574737Y-97763535D01*
X139598546Y-97715916D01*
X139598546Y-97620678D01*
X139574737Y-97573059D01*
X139527118Y-97549250D01*
X139479499Y-97549250D01*
X139431880Y-97787345D01*
X139265213Y-97334964D02*
X139598546Y-97334964D01*
X139503308Y-97334964D02*
X139550927Y-97311155D01*
X139574737Y-97287345D01*
X139598546Y-97239726D01*
X139598546Y-97192107D01*
X133726190Y-69845238D02*
X133226190Y-69845238D01*
X133416666Y-69845238D02*
X133392857Y-69892857D01*
X133392857Y-69988095D01*
X133416666Y-70035714D01*
X133440476Y-70059523D01*
X133488095Y-70083333D01*
X133630952Y-70083333D01*
X133678571Y-70059523D01*
X133702380Y-70035714D01*
X133726190Y-69988095D01*
X133726190Y-69892857D01*
X133702380Y-69845238D01*
X133726190Y-70369047D02*
X133702380Y-70321428D01*
X133678571Y-70297619D01*
X133630952Y-70273809D01*
X133488095Y-70273809D01*
X133440476Y-70297619D01*
X133416666Y-70321428D01*
X133392857Y-70369047D01*
X133392857Y-70440476D01*
X133416666Y-70488095D01*
X133440476Y-70511904D01*
X133488095Y-70535714D01*
X133630952Y-70535714D01*
X133678571Y-70511904D01*
X133702380Y-70488095D01*
X133726190Y-70440476D01*
X133726190Y-70369047D01*
X133726190Y-70821428D02*
X133702380Y-70773809D01*
X133678571Y-70750000D01*
X133630952Y-70726190D01*
X133488095Y-70726190D01*
X133440476Y-70750000D01*
X133416666Y-70773809D01*
X133392857Y-70821428D01*
X133392857Y-70892857D01*
X133416666Y-70940476D01*
X133440476Y-70964285D01*
X133488095Y-70988095D01*
X133630952Y-70988095D01*
X133678571Y-70964285D01*
X133702380Y-70940476D01*
X133726190Y-70892857D01*
X133726190Y-70821428D01*
X133702380Y-71178571D02*
X133726190Y-71226190D01*
X133726190Y-71321428D01*
X133702380Y-71369047D01*
X133654761Y-71392857D01*
X133630952Y-71392857D01*
X133583333Y-71369047D01*
X133559523Y-71321428D01*
X133559523Y-71250000D01*
X133535714Y-71202380D01*
X133488095Y-71178571D01*
X133464285Y-71178571D01*
X133416666Y-71202380D01*
X133392857Y-71250000D01*
X133392857Y-71321428D01*
X133416666Y-71369047D01*
X133392857Y-71535714D02*
X133392857Y-71726190D01*
X133226190Y-71607142D02*
X133654761Y-71607142D01*
X133702380Y-71630952D01*
X133726190Y-71678571D01*
X133726190Y-71726190D01*
X151988095Y-103476190D02*
X151678571Y-103476190D01*
X151845238Y-103666666D01*
X151773809Y-103666666D01*
X151726190Y-103690476D01*
X151702380Y-103714285D01*
X151678571Y-103761904D01*
X151678571Y-103880952D01*
X151702380Y-103928571D01*
X151726190Y-103952380D01*
X151773809Y-103976190D01*
X151916666Y-103976190D01*
X151964285Y-103952380D01*
X151988095Y-103928571D01*
X151511904Y-103642857D02*
X151392857Y-103976190D01*
X151273809Y-103642857D01*
X151130952Y-103476190D02*
X150821428Y-103476190D01*
X150988095Y-103666666D01*
X150916666Y-103666666D01*
X150869047Y-103690476D01*
X150845238Y-103714285D01*
X150821428Y-103761904D01*
X150821428Y-103880952D01*
X150845238Y-103928571D01*
X150869047Y-103952380D01*
X150916666Y-103976190D01*
X151059523Y-103976190D01*
X151107142Y-103952380D01*
X151130952Y-103928571D01*
X150226190Y-103976190D02*
X150226190Y-103642857D01*
X150226190Y-103738095D02*
X150202380Y-103690476D01*
X150178571Y-103666666D01*
X150130952Y-103642857D01*
X150083333Y-103642857D01*
X149726190Y-103952380D02*
X149773809Y-103976190D01*
X149869047Y-103976190D01*
X149916666Y-103952380D01*
X149940476Y-103904761D01*
X149940476Y-103714285D01*
X149916666Y-103666666D01*
X149869047Y-103642857D01*
X149773809Y-103642857D01*
X149726190Y-103666666D01*
X149702380Y-103714285D01*
X149702380Y-103761904D01*
X149940476Y-103809523D01*
X149273809Y-103642857D02*
X149273809Y-104047619D01*
X149297619Y-104095238D01*
X149321428Y-104119047D01*
X149369047Y-104142857D01*
X149440476Y-104142857D01*
X149488095Y-104119047D01*
X149273809Y-103952380D02*
X149321428Y-103976190D01*
X149416666Y-103976190D01*
X149464285Y-103952380D01*
X149488095Y-103928571D01*
X149511904Y-103880952D01*
X149511904Y-103738095D01*
X149488095Y-103690476D01*
X149464285Y-103666666D01*
X149416666Y-103642857D01*
X149321428Y-103642857D01*
X149273809Y-103666666D01*
X148821428Y-103642857D02*
X148821428Y-103976190D01*
X149035714Y-103642857D02*
X149035714Y-103904761D01*
X149011904Y-103952380D01*
X148964285Y-103976190D01*
X148892857Y-103976190D01*
X148845238Y-103952380D01*
X148821428Y-103928571D01*
X148511904Y-103976190D02*
X148559523Y-103952380D01*
X148583333Y-103904761D01*
X148583333Y-103476190D01*
X148107142Y-103976190D02*
X148107142Y-103714285D01*
X148130952Y-103666666D01*
X148178571Y-103642857D01*
X148273809Y-103642857D01*
X148321428Y-103666666D01*
X148107142Y-103952380D02*
X148154761Y-103976190D01*
X148273809Y-103976190D01*
X148321428Y-103952380D01*
X148345238Y-103904761D01*
X148345238Y-103857142D01*
X148321428Y-103809523D01*
X148273809Y-103785714D01*
X148154761Y-103785714D01*
X148107142Y-103761904D01*
X147940476Y-103642857D02*
X147750000Y-103642857D01*
X147869047Y-103476190D02*
X147869047Y-103904761D01*
X147845238Y-103952380D01*
X147797619Y-103976190D01*
X147750000Y-103976190D01*
X147511904Y-103976190D02*
X147559523Y-103952380D01*
X147583333Y-103928571D01*
X147607142Y-103880952D01*
X147607142Y-103738095D01*
X147583333Y-103690476D01*
X147559523Y-103666666D01*
X147511904Y-103642857D01*
X147440476Y-103642857D01*
X147392857Y-103666666D01*
X147369047Y-103690476D01*
X147345238Y-103738095D01*
X147345238Y-103880952D01*
X147369047Y-103928571D01*
X147392857Y-103952380D01*
X147440476Y-103976190D01*
X147511904Y-103976190D01*
X147130952Y-103976190D02*
X147130952Y-103642857D01*
X147130952Y-103738095D02*
X147107142Y-103690476D01*
X147083333Y-103666666D01*
X147035714Y-103642857D01*
X146988095Y-103642857D01*
D11*
X132380000Y-67830000D02*
X147380000Y-67830000D01*
X132380000Y-77830000D02*
X132380000Y-67830000D01*
X147380000Y-77830000D02*
X132380000Y-77830000D01*
X147380000Y-67830000D02*
X147380000Y-77830000D01*
X153580000Y-68370000D02*
X153580000Y-73370000D01*
X163580000Y-68370000D02*
X153580000Y-68370000D01*
X163580000Y-73370000D02*
X163580000Y-68370000D01*
X153580000Y-73370000D02*
X163580000Y-73370000D01*
X142380000Y-94330000D02*
X161380000Y-94330000D01*
X142380000Y-105330000D02*
X142380000Y-94330000D01*
X161380000Y-105330000D02*
X142380000Y-105330000D01*
X161380000Y-94330000D02*
X161380000Y-105330000D01*
X128911404Y-107441155D02*
X140911404Y-107441155D01*
X128911404Y-96441155D02*
X128911404Y-107441155D01*
X140911404Y-96441155D02*
X128911404Y-96441155D01*
X140911404Y-107441155D02*
X140911404Y-96441155D01*
D12*
X123554285Y-76407142D02*
X123578095Y-76478571D01*
X123601904Y-76502380D01*
X123649523Y-76526190D01*
X123720952Y-76526190D01*
X123768571Y-76502380D01*
X123792380Y-76478571D01*
X123816190Y-76430952D01*
X123816190Y-76240476D01*
X123316190Y-76240476D01*
X123316190Y-76407142D01*
X123340000Y-76454761D01*
X123363809Y-76478571D01*
X123411428Y-76502380D01*
X123459047Y-76502380D01*
X123506666Y-76478571D01*
X123530476Y-76454761D01*
X123554285Y-76407142D01*
X123554285Y-76240476D01*
X123816190Y-76978571D02*
X123816190Y-76740476D01*
X123316190Y-76740476D01*
X123554285Y-77145238D02*
X123554285Y-77311904D01*
X123816190Y-77383333D02*
X123816190Y-77145238D01*
X123316190Y-77145238D01*
X123316190Y-77383333D01*
X121752380Y-76236666D02*
X121776190Y-76308095D01*
X121776190Y-76427142D01*
X121752380Y-76474761D01*
X121728571Y-76498571D01*
X121680952Y-76522380D01*
X121633333Y-76522380D01*
X121585714Y-76498571D01*
X121561904Y-76474761D01*
X121538095Y-76427142D01*
X121514285Y-76331904D01*
X121490476Y-76284285D01*
X121466666Y-76260476D01*
X121419047Y-76236666D01*
X121371428Y-76236666D01*
X121323809Y-76260476D01*
X121300000Y-76284285D01*
X121276190Y-76331904D01*
X121276190Y-76450952D01*
X121300000Y-76522380D01*
X121276190Y-76665238D02*
X121276190Y-76950952D01*
X121776190Y-76808095D02*
X121276190Y-76808095D01*
D13*
X126500000Y-66250000D02*
X126500000Y-108250000D01*
X167500000Y-66250000D02*
X126500000Y-66250000D01*
X167500000Y-108250000D02*
X167500000Y-66250000D01*
X126500000Y-108250000D02*
X167500000Y-108250000D01*
D14*
G04 #@! TO.C,C5*
X136082671Y-98931155D02*
X135740137Y-98931155D01*
X136082671Y-99951155D02*
X135740137Y-99951155D01*
G04 #@! TO.C,C6*
X130865137Y-101951155D02*
X131207671Y-101951155D01*
X130865137Y-100931155D02*
X131207671Y-100931155D01*
G04 #@! TO.C,C7*
X145010000Y-70546267D02*
X145010000Y-70203733D01*
X143990000Y-70546267D02*
X143990000Y-70203733D01*
G04 #@! TO.C,C8*
X134073733Y-73620000D02*
X134416267Y-73620000D01*
X134073733Y-72600000D02*
X134416267Y-72600000D01*
G04 #@! TO.C,C10*
X142026267Y-73850000D02*
X141683733Y-73850000D01*
X142026267Y-72830000D02*
X141683733Y-72830000D01*
G04 #@! TO.C,C11*
X155876267Y-71039396D02*
X155533733Y-71039396D01*
X155876267Y-72059396D02*
X155533733Y-72059396D01*
G04 #@! TO.C,C12*
X142026267Y-74740000D02*
X141683733Y-74740000D01*
X142026267Y-75760000D02*
X141683733Y-75760000D01*
G04 #@! TO.C,C13*
X126273733Y-94740000D02*
X126616267Y-94740000D01*
X126273733Y-95760000D02*
X126616267Y-95760000D01*
G04 #@! TO.C,C14*
X143530000Y-100763733D02*
X143530000Y-101106267D01*
X144550000Y-100763733D02*
X144550000Y-101106267D01*
G04 #@! TO.C,C15*
X155036267Y-99710000D02*
X154693733Y-99710000D01*
X155036267Y-98690000D02*
X154693733Y-98690000D01*
G04 #@! TO.C,C18*
X155041267Y-96970000D02*
X154698733Y-96970000D01*
X155041267Y-97990000D02*
X154698733Y-97990000D01*
G04 #@! TO.C,D1*
X142210000Y-70120000D02*
X139060000Y-70120000D01*
X142210000Y-71820000D02*
X139060000Y-71820000D01*
X142210000Y-70120000D02*
X142210000Y-71820000D01*
G04 #@! TO.C,D2*
X122235000Y-73450000D02*
X122235000Y-75910000D01*
X122235000Y-75910000D02*
X120765000Y-75910000D01*
X120765000Y-75910000D02*
X120765000Y-73450000D01*
G04 #@! TO.C,D3*
X122765000Y-75910000D02*
X122765000Y-73450000D01*
X124235000Y-75910000D02*
X122765000Y-75910000D01*
X124235000Y-73450000D02*
X124235000Y-75910000D01*
G04 #@! TO.C,J2*
X122265000Y-112510000D02*
X122265000Y-112960000D01*
X122265000Y-112960000D02*
X123215000Y-112960000D01*
X123215000Y-112960000D02*
X123215000Y-114450000D01*
X126735000Y-112510000D02*
X126735000Y-112960000D01*
X126735000Y-112960000D02*
X125785000Y-112960000D01*
X122265000Y-108990000D02*
X122265000Y-108540000D01*
X122265000Y-108540000D02*
X126735000Y-108540000D01*
X126735000Y-108540000D02*
X126735000Y-108990000D01*
G04 #@! TO.C,L1*
X136188733Y-70470000D02*
X136531267Y-70470000D01*
X136188733Y-71490000D02*
X136531267Y-71490000D01*
G04 #@! TO.C,Q1*
X121920000Y-98490000D02*
X122850000Y-98490000D01*
X125080000Y-98490000D02*
X124150000Y-98490000D01*
X125080000Y-98490000D02*
X125080000Y-100650000D01*
X121920000Y-98490000D02*
X121920000Y-99950000D01*
G04 #@! TO.C,R1*
X139401404Y-103144888D02*
X139401404Y-103487422D01*
X140421404Y-103144888D02*
X140421404Y-103487422D01*
G04 #@! TO.C,R2*
X121848733Y-107200000D02*
X122191267Y-107200000D01*
X121848733Y-106180000D02*
X122191267Y-106180000D01*
G04 #@! TO.C,R3*
X145721267Y-73850000D02*
X145378733Y-73850000D01*
X145721267Y-72830000D02*
X145378733Y-72830000D01*
G04 #@! TO.C,R4*
X145383733Y-74720000D02*
X145726267Y-74720000D01*
X145383733Y-75740000D02*
X145726267Y-75740000D01*
G04 #@! TO.C,R6*
X126616267Y-92090000D02*
X126273733Y-92090000D01*
X126616267Y-91070000D02*
X126273733Y-91070000D01*
G04 #@! TO.C,R7*
X126273733Y-93900000D02*
X126616267Y-93900000D01*
X126273733Y-92880000D02*
X126616267Y-92880000D01*
G04 #@! TO.C,R8*
X127113733Y-70760000D02*
X127456267Y-70760000D01*
X127113733Y-69740000D02*
X127456267Y-69740000D01*
G04 #@! TO.C,R9*
X127108733Y-72390000D02*
X127451267Y-72390000D01*
X127108733Y-73410000D02*
X127451267Y-73410000D01*
G04 #@! TO.C,R14*
X123950000Y-104291267D02*
X123950000Y-103948733D01*
X124970000Y-104291267D02*
X124970000Y-103948733D01*
G04 #@! TO.C,R15*
X157410000Y-99953733D02*
X157410000Y-100296267D01*
X158430000Y-99953733D02*
X158430000Y-100296267D01*
G04 #@! TO.C,R16*
X159210000Y-100306267D02*
X159210000Y-99963733D01*
X160230000Y-100306267D02*
X160230000Y-99963733D01*
G04 #@! TO.C,R17*
X130865137Y-102931155D02*
X131207671Y-102931155D01*
X130865137Y-103951155D02*
X131207671Y-103951155D01*
G04 #@! TO.C,SW1*
X119090000Y-92960000D02*
X119470000Y-92460000D01*
X119470000Y-92460000D02*
X119790000Y-92460000D01*
X119090000Y-92960000D02*
X119090000Y-93960000D01*
X119090000Y-93960000D02*
X119470000Y-94460000D01*
X119470000Y-94460000D02*
X119790000Y-94460000D01*
X122590000Y-91810000D02*
X122590000Y-95110000D01*
X122290000Y-91810000D02*
X122590000Y-91810000D01*
X122590000Y-95110000D02*
X122290000Y-95110000D01*
X120090000Y-91810000D02*
X119790000Y-91810000D01*
X119790000Y-91810000D02*
X119790000Y-95110000D01*
X119790000Y-95110000D02*
X120090000Y-95110000D01*
D10*
G04 #@! TO.C,U1*
X154900060Y-106481400D02*
G75*
G02X154900060Y-106181680I0J149860D01*
G01*
X154900060Y-106181680D02*
G75*
G02X154900060Y-106481400I0J-149860D01*
G01*
D15*
X154900060Y-106430600D02*
X154999120Y-106331540D01*
X154900060Y-115130100D02*
X154900060Y-106430600D01*
X154999120Y-106331540D02*
X154900060Y-106331540D01*
X162697860Y-106331540D02*
X154999120Y-106331540D01*
X162697860Y-115130100D02*
X162697860Y-106331540D01*
X154900060Y-115130100D02*
X162697860Y-115130100D01*
D10*
X154900060Y-106481400D02*
X154900060Y-106331540D01*
X154900060Y-106585540D02*
X154900060Y-106481400D01*
X154894980Y-106334080D02*
X154894980Y-106852240D01*
X154900060Y-106181680D02*
X154900060Y-106331540D01*
X154900060Y-105419680D02*
X154900060Y-106181680D01*
X154102500Y-106331540D02*
X154900060Y-106331540D01*
D16*
G04 #@! TO.C,U3*
X132863404Y-101628355D02*
X132863404Y-101247355D01*
X132609404Y-101628355D02*
X132863404Y-101628355D01*
X132609404Y-101247355D02*
X132609404Y-101628355D01*
D10*
X135606604Y-100942555D02*
G75*
G03X136216204Y-100942555I304800J0D01*
G01*
D16*
X136216204Y-100942555D02*
X137410004Y-100942555D01*
X135606604Y-100942555D02*
X136216204Y-100942555D01*
X134412804Y-100942555D02*
X135606604Y-100942555D01*
X137410004Y-103939755D02*
X134412804Y-103939755D01*
D14*
G04 #@! TO.C,U4*
X137140000Y-72570000D02*
X139590000Y-72570000D01*
X138940000Y-75790000D02*
X137140000Y-75790000D01*
D16*
G04 #@! TO.C,U5*
X146749100Y-96863800D02*
X150990900Y-96863800D01*
X150990900Y-102096200D02*
X146749100Y-102096200D01*
D14*
G04 #@! TO.C,USB_MICRO_CONN1*
X125070000Y-79100000D02*
X125070000Y-79480000D01*
X121020000Y-79100000D02*
X120760000Y-79100000D01*
X125070000Y-79100000D02*
X123300000Y-79100000D01*
X125070000Y-86720000D02*
X125070000Y-86340000D01*
X123300000Y-86720000D02*
X125070000Y-86720000D01*
X120760000Y-86720000D02*
X121020000Y-86720000D01*
G04 #@! TO.C,U2*
X158590000Y-68940000D02*
X158740000Y-68940000D01*
X158590000Y-69590000D02*
X158590000Y-68940000D01*
X158590000Y-72160000D02*
X158740000Y-72160000D01*
X158590000Y-71510000D02*
X158590000Y-72160000D01*
X161310000Y-68940000D02*
X161160000Y-68940000D01*
X161310000Y-69590000D02*
X161310000Y-68940000D01*
G04 #@! TO.C,C5*
D17*
X135203070Y-98368297D02*
X135250689Y-98415916D01*
X135393546Y-98463535D01*
X135488784Y-98463535D01*
X135631642Y-98415916D01*
X135726880Y-98320678D01*
X135774499Y-98225440D01*
X135822118Y-98034964D01*
X135822118Y-97892107D01*
X135774499Y-97701631D01*
X135726880Y-97606393D01*
X135631642Y-97511155D01*
X135488784Y-97463535D01*
X135393546Y-97463535D01*
X135250689Y-97511155D01*
X135203070Y-97558774D01*
X134298308Y-97463535D02*
X134774499Y-97463535D01*
X134822118Y-97939726D01*
X134774499Y-97892107D01*
X134679261Y-97844488D01*
X134441165Y-97844488D01*
X134345927Y-97892107D01*
X134298308Y-97939726D01*
X134250689Y-98034964D01*
X134250689Y-98273059D01*
X134298308Y-98368297D01*
X134345927Y-98415916D01*
X134441165Y-98463535D01*
X134679261Y-98463535D01*
X134774499Y-98415916D01*
X134822118Y-98368297D01*
G04 #@! TO.C,C6*
X131078070Y-99798297D02*
X131125689Y-99845916D01*
X131268546Y-99893535D01*
X131363784Y-99893535D01*
X131506642Y-99845916D01*
X131601880Y-99750678D01*
X131649499Y-99655440D01*
X131697118Y-99464964D01*
X131697118Y-99322107D01*
X131649499Y-99131631D01*
X131601880Y-99036393D01*
X131506642Y-98941155D01*
X131363784Y-98893535D01*
X131268546Y-98893535D01*
X131125689Y-98941155D01*
X131078070Y-98988774D01*
X130220927Y-98893535D02*
X130411404Y-98893535D01*
X130506642Y-98941155D01*
X130554261Y-98988774D01*
X130649499Y-99131631D01*
X130697118Y-99322107D01*
X130697118Y-99703059D01*
X130649499Y-99798297D01*
X130601880Y-99845916D01*
X130506642Y-99893535D01*
X130316165Y-99893535D01*
X130220927Y-99845916D01*
X130173308Y-99798297D01*
X130125689Y-99703059D01*
X130125689Y-99464964D01*
X130173308Y-99369726D01*
X130220927Y-99322107D01*
X130316165Y-99274488D01*
X130506642Y-99274488D01*
X130601880Y-99322107D01*
X130649499Y-99369726D01*
X130697118Y-99464964D01*
G04 #@! TO.C,C7*
X146357142Y-69333333D02*
X146404761Y-69285714D01*
X146452380Y-69142857D01*
X146452380Y-69047619D01*
X146404761Y-68904761D01*
X146309523Y-68809523D01*
X146214285Y-68761904D01*
X146023809Y-68714285D01*
X145880952Y-68714285D01*
X145690476Y-68761904D01*
X145595238Y-68809523D01*
X145500000Y-68904761D01*
X145452380Y-69047619D01*
X145452380Y-69142857D01*
X145500000Y-69285714D01*
X145547619Y-69333333D01*
X145452380Y-69666666D02*
X145452380Y-70333333D01*
X146452380Y-69904761D01*
G04 #@! TO.C,C8*
X134411666Y-74897142D02*
X134459285Y-74944761D01*
X134602142Y-74992380D01*
X134697380Y-74992380D01*
X134840238Y-74944761D01*
X134935476Y-74849523D01*
X134983095Y-74754285D01*
X135030714Y-74563809D01*
X135030714Y-74420952D01*
X134983095Y-74230476D01*
X134935476Y-74135238D01*
X134840238Y-74040000D01*
X134697380Y-73992380D01*
X134602142Y-73992380D01*
X134459285Y-74040000D01*
X134411666Y-74087619D01*
X133840238Y-74420952D02*
X133935476Y-74373333D01*
X133983095Y-74325714D01*
X134030714Y-74230476D01*
X134030714Y-74182857D01*
X133983095Y-74087619D01*
X133935476Y-74040000D01*
X133840238Y-73992380D01*
X133649761Y-73992380D01*
X133554523Y-74040000D01*
X133506904Y-74087619D01*
X133459285Y-74182857D01*
X133459285Y-74230476D01*
X133506904Y-74325714D01*
X133554523Y-74373333D01*
X133649761Y-74420952D01*
X133840238Y-74420952D01*
X133935476Y-74468571D01*
X133983095Y-74516190D01*
X134030714Y-74611428D01*
X134030714Y-74801904D01*
X133983095Y-74897142D01*
X133935476Y-74944761D01*
X133840238Y-74992380D01*
X133649761Y-74992380D01*
X133554523Y-74944761D01*
X133506904Y-74897142D01*
X133459285Y-74801904D01*
X133459285Y-74611428D01*
X133506904Y-74516190D01*
X133554523Y-74468571D01*
X133649761Y-74420952D01*
G04 #@! TO.C,C10*
X142292857Y-72347142D02*
X142340476Y-72394761D01*
X142483333Y-72442380D01*
X142578571Y-72442380D01*
X142721428Y-72394761D01*
X142816666Y-72299523D01*
X142864285Y-72204285D01*
X142911904Y-72013809D01*
X142911904Y-71870952D01*
X142864285Y-71680476D01*
X142816666Y-71585238D01*
X142721428Y-71490000D01*
X142578571Y-71442380D01*
X142483333Y-71442380D01*
X142340476Y-71490000D01*
X142292857Y-71537619D01*
X141340476Y-72442380D02*
X141911904Y-72442380D01*
X141626190Y-72442380D02*
X141626190Y-71442380D01*
X141721428Y-71585238D01*
X141816666Y-71680476D01*
X141911904Y-71728095D01*
X140721428Y-71442380D02*
X140626190Y-71442380D01*
X140530952Y-71490000D01*
X140483333Y-71537619D01*
X140435714Y-71632857D01*
X140388095Y-71823333D01*
X140388095Y-72061428D01*
X140435714Y-72251904D01*
X140483333Y-72347142D01*
X140530952Y-72394761D01*
X140626190Y-72442380D01*
X140721428Y-72442380D01*
X140816666Y-72394761D01*
X140864285Y-72347142D01*
X140911904Y-72251904D01*
X140959523Y-72061428D01*
X140959523Y-71823333D01*
X140911904Y-71632857D01*
X140864285Y-71537619D01*
X140816666Y-71490000D01*
X140721428Y-71442380D01*
G04 #@! TO.C,C11*
X156347857Y-70476538D02*
X156395476Y-70524157D01*
X156538333Y-70571776D01*
X156633571Y-70571776D01*
X156776428Y-70524157D01*
X156871666Y-70428919D01*
X156919285Y-70333681D01*
X156966904Y-70143205D01*
X156966904Y-70000348D01*
X156919285Y-69809872D01*
X156871666Y-69714634D01*
X156776428Y-69619396D01*
X156633571Y-69571776D01*
X156538333Y-69571776D01*
X156395476Y-69619396D01*
X156347857Y-69667015D01*
X155395476Y-70571776D02*
X155966904Y-70571776D01*
X155681190Y-70571776D02*
X155681190Y-69571776D01*
X155776428Y-69714634D01*
X155871666Y-69809872D01*
X155966904Y-69857491D01*
X154443095Y-70571776D02*
X155014523Y-70571776D01*
X154728809Y-70571776D02*
X154728809Y-69571776D01*
X154824047Y-69714634D01*
X154919285Y-69809872D01*
X155014523Y-69857491D01*
G04 #@! TO.C,C12*
X142372857Y-77257142D02*
X142420476Y-77304761D01*
X142563333Y-77352380D01*
X142658571Y-77352380D01*
X142801428Y-77304761D01*
X142896666Y-77209523D01*
X142944285Y-77114285D01*
X142991904Y-76923809D01*
X142991904Y-76780952D01*
X142944285Y-76590476D01*
X142896666Y-76495238D01*
X142801428Y-76400000D01*
X142658571Y-76352380D01*
X142563333Y-76352380D01*
X142420476Y-76400000D01*
X142372857Y-76447619D01*
X141420476Y-77352380D02*
X141991904Y-77352380D01*
X141706190Y-77352380D02*
X141706190Y-76352380D01*
X141801428Y-76495238D01*
X141896666Y-76590476D01*
X141991904Y-76638095D01*
X141039523Y-76447619D02*
X140991904Y-76400000D01*
X140896666Y-76352380D01*
X140658571Y-76352380D01*
X140563333Y-76400000D01*
X140515714Y-76447619D01*
X140468095Y-76542857D01*
X140468095Y-76638095D01*
X140515714Y-76780952D01*
X141087142Y-77352380D01*
X140468095Y-77352380D01*
G04 #@! TO.C,C13*
X130302857Y-95677142D02*
X130350476Y-95724761D01*
X130493333Y-95772380D01*
X130588571Y-95772380D01*
X130731428Y-95724761D01*
X130826666Y-95629523D01*
X130874285Y-95534285D01*
X130921904Y-95343809D01*
X130921904Y-95200952D01*
X130874285Y-95010476D01*
X130826666Y-94915238D01*
X130731428Y-94820000D01*
X130588571Y-94772380D01*
X130493333Y-94772380D01*
X130350476Y-94820000D01*
X130302857Y-94867619D01*
X129350476Y-95772380D02*
X129921904Y-95772380D01*
X129636190Y-95772380D02*
X129636190Y-94772380D01*
X129731428Y-94915238D01*
X129826666Y-95010476D01*
X129921904Y-95058095D01*
X129017142Y-94772380D02*
X128398095Y-94772380D01*
X128731428Y-95153333D01*
X128588571Y-95153333D01*
X128493333Y-95200952D01*
X128445714Y-95248571D01*
X128398095Y-95343809D01*
X128398095Y-95581904D01*
X128445714Y-95677142D01*
X128493333Y-95724761D01*
X128588571Y-95772380D01*
X128874285Y-95772380D01*
X128969523Y-95724761D01*
X129017142Y-95677142D01*
G04 #@! TO.C,C14*
X144397142Y-97167142D02*
X144444761Y-97119523D01*
X144492380Y-96976666D01*
X144492380Y-96881428D01*
X144444761Y-96738571D01*
X144349523Y-96643333D01*
X144254285Y-96595714D01*
X144063809Y-96548095D01*
X143920952Y-96548095D01*
X143730476Y-96595714D01*
X143635238Y-96643333D01*
X143540000Y-96738571D01*
X143492380Y-96881428D01*
X143492380Y-96976666D01*
X143540000Y-97119523D01*
X143587619Y-97167142D01*
X144492380Y-98119523D02*
X144492380Y-97548095D01*
X144492380Y-97833809D02*
X143492380Y-97833809D01*
X143635238Y-97738571D01*
X143730476Y-97643333D01*
X143778095Y-97548095D01*
X143825714Y-98976666D02*
X144492380Y-98976666D01*
X143444761Y-98738571D02*
X144159047Y-98500476D01*
X144159047Y-99119523D01*
G04 #@! TO.C,C15*
X155382857Y-101227142D02*
X155430476Y-101274761D01*
X155573333Y-101322380D01*
X155668571Y-101322380D01*
X155811428Y-101274761D01*
X155906666Y-101179523D01*
X155954285Y-101084285D01*
X156001904Y-100893809D01*
X156001904Y-100750952D01*
X155954285Y-100560476D01*
X155906666Y-100465238D01*
X155811428Y-100370000D01*
X155668571Y-100322380D01*
X155573333Y-100322380D01*
X155430476Y-100370000D01*
X155382857Y-100417619D01*
X154430476Y-101322380D02*
X155001904Y-101322380D01*
X154716190Y-101322380D02*
X154716190Y-100322380D01*
X154811428Y-100465238D01*
X154906666Y-100560476D01*
X155001904Y-100608095D01*
X153525714Y-100322380D02*
X154001904Y-100322380D01*
X154049523Y-100798571D01*
X154001904Y-100750952D01*
X153906666Y-100703333D01*
X153668571Y-100703333D01*
X153573333Y-100750952D01*
X153525714Y-100798571D01*
X153478095Y-100893809D01*
X153478095Y-101131904D01*
X153525714Y-101227142D01*
X153573333Y-101274761D01*
X153668571Y-101322380D01*
X153906666Y-101322380D01*
X154001904Y-101274761D01*
X154049523Y-101227142D01*
G04 #@! TO.C,C18*
X155892857Y-96237142D02*
X155940476Y-96284761D01*
X156083333Y-96332380D01*
X156178571Y-96332380D01*
X156321428Y-96284761D01*
X156416666Y-96189523D01*
X156464285Y-96094285D01*
X156511904Y-95903809D01*
X156511904Y-95760952D01*
X156464285Y-95570476D01*
X156416666Y-95475238D01*
X156321428Y-95380000D01*
X156178571Y-95332380D01*
X156083333Y-95332380D01*
X155940476Y-95380000D01*
X155892857Y-95427619D01*
X154940476Y-96332380D02*
X155511904Y-96332380D01*
X155226190Y-96332380D02*
X155226190Y-95332380D01*
X155321428Y-95475238D01*
X155416666Y-95570476D01*
X155511904Y-95618095D01*
X154369047Y-95760952D02*
X154464285Y-95713333D01*
X154511904Y-95665714D01*
X154559523Y-95570476D01*
X154559523Y-95522857D01*
X154511904Y-95427619D01*
X154464285Y-95380000D01*
X154369047Y-95332380D01*
X154178571Y-95332380D01*
X154083333Y-95380000D01*
X154035714Y-95427619D01*
X153988095Y-95522857D01*
X153988095Y-95570476D01*
X154035714Y-95665714D01*
X154083333Y-95713333D01*
X154178571Y-95760952D01*
X154369047Y-95760952D01*
X154464285Y-95808571D01*
X154511904Y-95856190D01*
X154559523Y-95951428D01*
X154559523Y-96141904D01*
X154511904Y-96237142D01*
X154464285Y-96284761D01*
X154369047Y-96332380D01*
X154178571Y-96332380D01*
X154083333Y-96284761D01*
X154035714Y-96237142D01*
X153988095Y-96141904D01*
X153988095Y-95951428D01*
X154035714Y-95856190D01*
X154083333Y-95808571D01*
X154178571Y-95760952D01*
G04 #@! TO.C,D1*
X140858095Y-69682380D02*
X140858095Y-68682380D01*
X140620000Y-68682380D01*
X140477142Y-68730000D01*
X140381904Y-68825238D01*
X140334285Y-68920476D01*
X140286666Y-69110952D01*
X140286666Y-69253809D01*
X140334285Y-69444285D01*
X140381904Y-69539523D01*
X140477142Y-69634761D01*
X140620000Y-69682380D01*
X140858095Y-69682380D01*
X139334285Y-69682380D02*
X139905714Y-69682380D01*
X139620000Y-69682380D02*
X139620000Y-68682380D01*
X139715238Y-68825238D01*
X139810476Y-68920476D01*
X139905714Y-68968095D01*
G04 #@! TO.C,D2*
X121952380Y-70511904D02*
X120952380Y-70511904D01*
X120952380Y-70750000D01*
X121000000Y-70892857D01*
X121095238Y-70988095D01*
X121190476Y-71035714D01*
X121380952Y-71083333D01*
X121523809Y-71083333D01*
X121714285Y-71035714D01*
X121809523Y-70988095D01*
X121904761Y-70892857D01*
X121952380Y-70750000D01*
X121952380Y-70511904D01*
X121047619Y-71464285D02*
X121000000Y-71511904D01*
X120952380Y-71607142D01*
X120952380Y-71845238D01*
X121000000Y-71940476D01*
X121047619Y-71988095D01*
X121142857Y-72035714D01*
X121238095Y-72035714D01*
X121380952Y-71988095D01*
X121952380Y-71416666D01*
X121952380Y-72035714D01*
G04 #@! TO.C,D3*
X123952380Y-70511904D02*
X122952380Y-70511904D01*
X122952380Y-70750000D01*
X123000000Y-70892857D01*
X123095238Y-70988095D01*
X123190476Y-71035714D01*
X123380952Y-71083333D01*
X123523809Y-71083333D01*
X123714285Y-71035714D01*
X123809523Y-70988095D01*
X123904761Y-70892857D01*
X123952380Y-70750000D01*
X123952380Y-70511904D01*
X122952380Y-71416666D02*
X122952380Y-72035714D01*
X123333333Y-71702380D01*
X123333333Y-71845238D01*
X123380952Y-71940476D01*
X123428571Y-71988095D01*
X123523809Y-72035714D01*
X123761904Y-72035714D01*
X123857142Y-71988095D01*
X123904761Y-71940476D01*
X123952380Y-71845238D01*
X123952380Y-71559523D01*
X123904761Y-71464285D01*
X123857142Y-71416666D01*
G04 #@! TO.C,J2*
X131047619Y-113583333D02*
X130333333Y-113583333D01*
X130190476Y-113630952D01*
X130095238Y-113726190D01*
X130047619Y-113869047D01*
X130047619Y-113964285D01*
X130952380Y-113154761D02*
X131000000Y-113107142D01*
X131047619Y-113011904D01*
X131047619Y-112773809D01*
X131000000Y-112678571D01*
X130952380Y-112630952D01*
X130857142Y-112583333D01*
X130761904Y-112583333D01*
X130619047Y-112630952D01*
X130047619Y-113202380D01*
X130047619Y-112583333D01*
G04 #@! TO.C,L1*
X136556666Y-69652380D02*
X137032857Y-69652380D01*
X137032857Y-68652380D01*
X135699523Y-69652380D02*
X136270952Y-69652380D01*
X135985238Y-69652380D02*
X135985238Y-68652380D01*
X136080476Y-68795238D01*
X136175714Y-68890476D01*
X136270952Y-68938095D01*
G04 #@! TO.C,Q1*
X126547619Y-99154761D02*
X126500000Y-99059523D01*
X126404761Y-98964285D01*
X126261904Y-98821428D01*
X126214285Y-98726190D01*
X126214285Y-98630952D01*
X126452380Y-98678571D02*
X126404761Y-98583333D01*
X126309523Y-98488095D01*
X126119047Y-98440476D01*
X125785714Y-98440476D01*
X125595238Y-98488095D01*
X125500000Y-98583333D01*
X125452380Y-98678571D01*
X125452380Y-98869047D01*
X125500000Y-98964285D01*
X125595238Y-99059523D01*
X125785714Y-99107142D01*
X126119047Y-99107142D01*
X126309523Y-99059523D01*
X126404761Y-98964285D01*
X126452380Y-98869047D01*
X126452380Y-98678571D01*
X126452380Y-100059523D02*
X126452380Y-99488095D01*
X126452380Y-99773809D02*
X125452380Y-99773809D01*
X125595238Y-99678571D01*
X125690476Y-99583333D01*
X125738095Y-99488095D01*
G04 #@! TO.C,R1*
X140463784Y-105879488D02*
X139987594Y-105546155D01*
X140463784Y-105308059D02*
X139463784Y-105308059D01*
X139463784Y-105689012D01*
X139511404Y-105784250D01*
X139559023Y-105831869D01*
X139654261Y-105879488D01*
X139797118Y-105879488D01*
X139892356Y-105831869D01*
X139939975Y-105784250D01*
X139987594Y-105689012D01*
X139987594Y-105308059D01*
X140463784Y-106831869D02*
X140463784Y-106260440D01*
X140463784Y-106546155D02*
X139463784Y-106546155D01*
X139606642Y-106450916D01*
X139701880Y-106355678D01*
X139749499Y-106260440D01*
G04 #@! TO.C,R2*
X122186666Y-108572380D02*
X122520000Y-108096190D01*
X122758095Y-108572380D02*
X122758095Y-107572380D01*
X122377142Y-107572380D01*
X122281904Y-107620000D01*
X122234285Y-107667619D01*
X122186666Y-107762857D01*
X122186666Y-107905714D01*
X122234285Y-108000952D01*
X122281904Y-108048571D01*
X122377142Y-108096190D01*
X122758095Y-108096190D01*
X121805714Y-107667619D02*
X121758095Y-107620000D01*
X121662857Y-107572380D01*
X121424761Y-107572380D01*
X121329523Y-107620000D01*
X121281904Y-107667619D01*
X121234285Y-107762857D01*
X121234285Y-107858095D01*
X121281904Y-108000952D01*
X121853333Y-108572380D01*
X121234285Y-108572380D01*
G04 #@! TO.C,R3*
X146166666Y-72452380D02*
X146500000Y-71976190D01*
X146738095Y-72452380D02*
X146738095Y-71452380D01*
X146357142Y-71452380D01*
X146261904Y-71500000D01*
X146214285Y-71547619D01*
X146166666Y-71642857D01*
X146166666Y-71785714D01*
X146214285Y-71880952D01*
X146261904Y-71928571D01*
X146357142Y-71976190D01*
X146738095Y-71976190D01*
X145833333Y-71452380D02*
X145214285Y-71452380D01*
X145547619Y-71833333D01*
X145404761Y-71833333D01*
X145309523Y-71880952D01*
X145261904Y-71928571D01*
X145214285Y-72023809D01*
X145214285Y-72261904D01*
X145261904Y-72357142D01*
X145309523Y-72404761D01*
X145404761Y-72452380D01*
X145690476Y-72452380D01*
X145785714Y-72404761D01*
X145833333Y-72357142D01*
G04 #@! TO.C,R4*
X145666666Y-77372380D02*
X146000000Y-76896190D01*
X146238095Y-77372380D02*
X146238095Y-76372380D01*
X145857142Y-76372380D01*
X145761904Y-76420000D01*
X145714285Y-76467619D01*
X145666666Y-76562857D01*
X145666666Y-76705714D01*
X145714285Y-76800952D01*
X145761904Y-76848571D01*
X145857142Y-76896190D01*
X146238095Y-76896190D01*
X144809523Y-76705714D02*
X144809523Y-77372380D01*
X145047619Y-76324761D02*
X145285714Y-77039047D01*
X144666666Y-77039047D01*
G04 #@! TO.C,R6*
X129656666Y-92142380D02*
X129990000Y-91666190D01*
X130228095Y-92142380D02*
X130228095Y-91142380D01*
X129847142Y-91142380D01*
X129751904Y-91190000D01*
X129704285Y-91237619D01*
X129656666Y-91332857D01*
X129656666Y-91475714D01*
X129704285Y-91570952D01*
X129751904Y-91618571D01*
X129847142Y-91666190D01*
X130228095Y-91666190D01*
X128799523Y-91142380D02*
X128990000Y-91142380D01*
X129085238Y-91190000D01*
X129132857Y-91237619D01*
X129228095Y-91380476D01*
X129275714Y-91570952D01*
X129275714Y-91951904D01*
X129228095Y-92047142D01*
X129180476Y-92094761D01*
X129085238Y-92142380D01*
X128894761Y-92142380D01*
X128799523Y-92094761D01*
X128751904Y-92047142D01*
X128704285Y-91951904D01*
X128704285Y-91713809D01*
X128751904Y-91618571D01*
X128799523Y-91570952D01*
X128894761Y-91523333D01*
X129085238Y-91523333D01*
X129180476Y-91570952D01*
X129228095Y-91618571D01*
X129275714Y-91713809D01*
G04 #@! TO.C,R7*
X129666666Y-93942380D02*
X130000000Y-93466190D01*
X130238095Y-93942380D02*
X130238095Y-92942380D01*
X129857142Y-92942380D01*
X129761904Y-92990000D01*
X129714285Y-93037619D01*
X129666666Y-93132857D01*
X129666666Y-93275714D01*
X129714285Y-93370952D01*
X129761904Y-93418571D01*
X129857142Y-93466190D01*
X130238095Y-93466190D01*
X129333333Y-92942380D02*
X128666666Y-92942380D01*
X129095238Y-93942380D01*
G04 #@! TO.C,R8*
X127451666Y-69222380D02*
X127785000Y-68746190D01*
X128023095Y-69222380D02*
X128023095Y-68222380D01*
X127642142Y-68222380D01*
X127546904Y-68270000D01*
X127499285Y-68317619D01*
X127451666Y-68412857D01*
X127451666Y-68555714D01*
X127499285Y-68650952D01*
X127546904Y-68698571D01*
X127642142Y-68746190D01*
X128023095Y-68746190D01*
X126880238Y-68650952D02*
X126975476Y-68603333D01*
X127023095Y-68555714D01*
X127070714Y-68460476D01*
X127070714Y-68412857D01*
X127023095Y-68317619D01*
X126975476Y-68270000D01*
X126880238Y-68222380D01*
X126689761Y-68222380D01*
X126594523Y-68270000D01*
X126546904Y-68317619D01*
X126499285Y-68412857D01*
X126499285Y-68460476D01*
X126546904Y-68555714D01*
X126594523Y-68603333D01*
X126689761Y-68650952D01*
X126880238Y-68650952D01*
X126975476Y-68698571D01*
X127023095Y-68746190D01*
X127070714Y-68841428D01*
X127070714Y-69031904D01*
X127023095Y-69127142D01*
X126975476Y-69174761D01*
X126880238Y-69222380D01*
X126689761Y-69222380D01*
X126594523Y-69174761D01*
X126546904Y-69127142D01*
X126499285Y-69031904D01*
X126499285Y-68841428D01*
X126546904Y-68746190D01*
X126594523Y-68698571D01*
X126689761Y-68650952D01*
G04 #@! TO.C,R9*
X127446666Y-74782380D02*
X127780000Y-74306190D01*
X128018095Y-74782380D02*
X128018095Y-73782380D01*
X127637142Y-73782380D01*
X127541904Y-73830000D01*
X127494285Y-73877619D01*
X127446666Y-73972857D01*
X127446666Y-74115714D01*
X127494285Y-74210952D01*
X127541904Y-74258571D01*
X127637142Y-74306190D01*
X128018095Y-74306190D01*
X126970476Y-74782380D02*
X126780000Y-74782380D01*
X126684761Y-74734761D01*
X126637142Y-74687142D01*
X126541904Y-74544285D01*
X126494285Y-74353809D01*
X126494285Y-73972857D01*
X126541904Y-73877619D01*
X126589523Y-73830000D01*
X126684761Y-73782380D01*
X126875238Y-73782380D01*
X126970476Y-73830000D01*
X127018095Y-73877619D01*
X127065714Y-73972857D01*
X127065714Y-74210952D01*
X127018095Y-74306190D01*
X126970476Y-74353809D01*
X126875238Y-74401428D01*
X126684761Y-74401428D01*
X126589523Y-74353809D01*
X126541904Y-74306190D01*
X126494285Y-74210952D01*
G04 #@! TO.C,R14*
X126342380Y-103477142D02*
X125866190Y-103143809D01*
X126342380Y-102905714D02*
X125342380Y-102905714D01*
X125342380Y-103286666D01*
X125390000Y-103381904D01*
X125437619Y-103429523D01*
X125532857Y-103477142D01*
X125675714Y-103477142D01*
X125770952Y-103429523D01*
X125818571Y-103381904D01*
X125866190Y-103286666D01*
X125866190Y-102905714D01*
X126342380Y-104429523D02*
X126342380Y-103858095D01*
X126342380Y-104143809D02*
X125342380Y-104143809D01*
X125485238Y-104048571D01*
X125580476Y-103953333D01*
X125628095Y-103858095D01*
X125675714Y-105286666D02*
X126342380Y-105286666D01*
X125294761Y-105048571D02*
X126009047Y-104810476D01*
X126009047Y-105429523D01*
G04 #@! TO.C,R15*
X158332380Y-102737142D02*
X157856190Y-102403809D01*
X158332380Y-102165714D02*
X157332380Y-102165714D01*
X157332380Y-102546666D01*
X157380000Y-102641904D01*
X157427619Y-102689523D01*
X157522857Y-102737142D01*
X157665714Y-102737142D01*
X157760952Y-102689523D01*
X157808571Y-102641904D01*
X157856190Y-102546666D01*
X157856190Y-102165714D01*
X158332380Y-103689523D02*
X158332380Y-103118095D01*
X158332380Y-103403809D02*
X157332380Y-103403809D01*
X157475238Y-103308571D01*
X157570476Y-103213333D01*
X157618095Y-103118095D01*
X157332380Y-104594285D02*
X157332380Y-104118095D01*
X157808571Y-104070476D01*
X157760952Y-104118095D01*
X157713333Y-104213333D01*
X157713333Y-104451428D01*
X157760952Y-104546666D01*
X157808571Y-104594285D01*
X157903809Y-104641904D01*
X158141904Y-104641904D01*
X158237142Y-104594285D01*
X158284761Y-104546666D01*
X158332380Y-104451428D01*
X158332380Y-104213333D01*
X158284761Y-104118095D01*
X158237142Y-104070476D01*
G04 #@! TO.C,R16*
X160232380Y-102727142D02*
X159756190Y-102393809D01*
X160232380Y-102155714D02*
X159232380Y-102155714D01*
X159232380Y-102536666D01*
X159280000Y-102631904D01*
X159327619Y-102679523D01*
X159422857Y-102727142D01*
X159565714Y-102727142D01*
X159660952Y-102679523D01*
X159708571Y-102631904D01*
X159756190Y-102536666D01*
X159756190Y-102155714D01*
X160232380Y-103679523D02*
X160232380Y-103108095D01*
X160232380Y-103393809D02*
X159232380Y-103393809D01*
X159375238Y-103298571D01*
X159470476Y-103203333D01*
X159518095Y-103108095D01*
X159232380Y-104536666D02*
X159232380Y-104346190D01*
X159280000Y-104250952D01*
X159327619Y-104203333D01*
X159470476Y-104108095D01*
X159660952Y-104060476D01*
X160041904Y-104060476D01*
X160137142Y-104108095D01*
X160184761Y-104155714D01*
X160232380Y-104250952D01*
X160232380Y-104441428D01*
X160184761Y-104536666D01*
X160137142Y-104584285D01*
X160041904Y-104631904D01*
X159803809Y-104631904D01*
X159708571Y-104584285D01*
X159660952Y-104536666D01*
X159613333Y-104441428D01*
X159613333Y-104250952D01*
X159660952Y-104155714D01*
X159708571Y-104108095D01*
X159803809Y-104060476D01*
G04 #@! TO.C,R17*
X131554261Y-105893535D02*
X131887594Y-105417345D01*
X132125689Y-105893535D02*
X132125689Y-104893535D01*
X131744737Y-104893535D01*
X131649499Y-104941155D01*
X131601880Y-104988774D01*
X131554261Y-105084012D01*
X131554261Y-105226869D01*
X131601880Y-105322107D01*
X131649499Y-105369726D01*
X131744737Y-105417345D01*
X132125689Y-105417345D01*
X130601880Y-105893535D02*
X131173308Y-105893535D01*
X130887594Y-105893535D02*
X130887594Y-104893535D01*
X130982832Y-105036393D01*
X131078070Y-105131631D01*
X131173308Y-105179250D01*
X130268546Y-104893535D02*
X129601880Y-104893535D01*
X130030451Y-105893535D01*
G04 #@! TO.C,SW1*
X123904761Y-91916666D02*
X123952380Y-92059523D01*
X123952380Y-92297619D01*
X123904761Y-92392857D01*
X123857142Y-92440476D01*
X123761904Y-92488095D01*
X123666666Y-92488095D01*
X123571428Y-92440476D01*
X123523809Y-92392857D01*
X123476190Y-92297619D01*
X123428571Y-92107142D01*
X123380952Y-92011904D01*
X123333333Y-91964285D01*
X123238095Y-91916666D01*
X123142857Y-91916666D01*
X123047619Y-91964285D01*
X123000000Y-92011904D01*
X122952380Y-92107142D01*
X122952380Y-92345238D01*
X123000000Y-92488095D01*
X122952380Y-92821428D02*
X123952380Y-93059523D01*
X123238095Y-93250000D01*
X123952380Y-93440476D01*
X122952380Y-93678571D01*
X123952380Y-94583333D02*
X123952380Y-94011904D01*
X123952380Y-94297619D02*
X122952380Y-94297619D01*
X123095238Y-94202380D01*
X123190476Y-94107142D01*
X123238095Y-94011904D01*
G04 #@! TO.C,U1*
X164065488Y-111170397D02*
X165299202Y-111170397D01*
X165444345Y-111242968D01*
X165516917Y-111315540D01*
X165589488Y-111460682D01*
X165589488Y-111750968D01*
X165516917Y-111896111D01*
X165444345Y-111968682D01*
X165299202Y-112041254D01*
X164065488Y-112041254D01*
X165589488Y-113565254D02*
X165589488Y-112694397D01*
X165589488Y-113129825D02*
X164065488Y-113129825D01*
X164283202Y-112984682D01*
X164428345Y-112839540D01*
X164500917Y-112694397D01*
X151708857Y-113652571D02*
X151636285Y-113434857D01*
X151563714Y-113362285D01*
X151418571Y-113289714D01*
X151200857Y-113289714D01*
X151055714Y-113362285D01*
X150983142Y-113434857D01*
X150910571Y-113580000D01*
X150910571Y-114160571D01*
X152434571Y-114160571D01*
X152434571Y-113652571D01*
X152362000Y-113507428D01*
X152289428Y-113434857D01*
X152144285Y-113362285D01*
X151999142Y-113362285D01*
X151854000Y-113434857D01*
X151781428Y-113507428D01*
X151708857Y-113652571D01*
X151708857Y-114160571D01*
X151055714Y-111765714D02*
X150983142Y-111838285D01*
X150910571Y-112056000D01*
X150910571Y-112201142D01*
X150983142Y-112418857D01*
X151128285Y-112564000D01*
X151273428Y-112636571D01*
X151563714Y-112709142D01*
X151781428Y-112709142D01*
X152071714Y-112636571D01*
X152216857Y-112564000D01*
X152362000Y-112418857D01*
X152434571Y-112201142D01*
X152434571Y-112056000D01*
X152362000Y-111838285D01*
X152289428Y-111765714D01*
X151781428Y-110894857D02*
X151854000Y-111040000D01*
X151926571Y-111112571D01*
X152071714Y-111185142D01*
X152144285Y-111185142D01*
X152289428Y-111112571D01*
X152362000Y-111040000D01*
X152434571Y-110894857D01*
X152434571Y-110604571D01*
X152362000Y-110459428D01*
X152289428Y-110386857D01*
X152144285Y-110314285D01*
X152071714Y-110314285D01*
X151926571Y-110386857D01*
X151854000Y-110459428D01*
X151781428Y-110604571D01*
X151781428Y-110894857D01*
X151708857Y-111040000D01*
X151636285Y-111112571D01*
X151491142Y-111185142D01*
X151200857Y-111185142D01*
X151055714Y-111112571D01*
X150983142Y-111040000D01*
X150910571Y-110894857D01*
X150910571Y-110604571D01*
X150983142Y-110459428D01*
X151055714Y-110386857D01*
X151200857Y-110314285D01*
X151491142Y-110314285D01*
X151636285Y-110386857D01*
X151708857Y-110459428D01*
X151781428Y-110604571D01*
X152434571Y-109806285D02*
X152434571Y-108862857D01*
X151854000Y-109370857D01*
X151854000Y-109153142D01*
X151781428Y-109008000D01*
X151708857Y-108935428D01*
X151563714Y-108862857D01*
X151200857Y-108862857D01*
X151055714Y-108935428D01*
X150983142Y-109008000D01*
X150910571Y-109153142D01*
X150910571Y-109588571D01*
X150983142Y-109733714D01*
X151055714Y-109806285D01*
X152289428Y-108282285D02*
X152362000Y-108209714D01*
X152434571Y-108064571D01*
X152434571Y-107701714D01*
X152362000Y-107556571D01*
X152289428Y-107484000D01*
X152144285Y-107411428D01*
X151999142Y-107411428D01*
X151781428Y-107484000D01*
X150910571Y-108354857D01*
X150910571Y-107411428D01*
X151491142Y-106758285D02*
X151491142Y-105597142D01*
X152434571Y-105089142D02*
X150910571Y-104581142D01*
X152434571Y-104073142D01*
X150910571Y-102766857D02*
X150910571Y-103637714D01*
X150910571Y-103202285D02*
X152434571Y-103202285D01*
X152216857Y-103347428D01*
X152071714Y-103492571D01*
X151999142Y-103637714D01*
D18*
X162031291Y-113675405D02*
X161849862Y-113735881D01*
X161789386Y-113796358D01*
X161728910Y-113917310D01*
X161728910Y-114098739D01*
X161789386Y-114219691D01*
X161849862Y-114280167D01*
X161970815Y-114340643D01*
X162454624Y-114340643D01*
X162454624Y-113070643D01*
X162031291Y-113070643D01*
X161910339Y-113131120D01*
X161849862Y-113191596D01*
X161789386Y-113312548D01*
X161789386Y-113433500D01*
X161849862Y-113554453D01*
X161910339Y-113614929D01*
X162031291Y-113675405D01*
X162454624Y-113675405D01*
X160458910Y-114219691D02*
X160519386Y-114280167D01*
X160700815Y-114340643D01*
X160821767Y-114340643D01*
X161003196Y-114280167D01*
X161124148Y-114159215D01*
X161184624Y-114038262D01*
X161245100Y-113796358D01*
X161245100Y-113614929D01*
X161184624Y-113373024D01*
X161124148Y-113252072D01*
X161003196Y-113131120D01*
X160821767Y-113070643D01*
X160700815Y-113070643D01*
X160519386Y-113131120D01*
X160458910Y-113191596D01*
X159733196Y-113614929D02*
X159854148Y-113554453D01*
X159914624Y-113493977D01*
X159975100Y-113373024D01*
X159975100Y-113312548D01*
X159914624Y-113191596D01*
X159854148Y-113131120D01*
X159733196Y-113070643D01*
X159491291Y-113070643D01*
X159370339Y-113131120D01*
X159309862Y-113191596D01*
X159249386Y-113312548D01*
X159249386Y-113373024D01*
X159309862Y-113493977D01*
X159370339Y-113554453D01*
X159491291Y-113614929D01*
X159733196Y-113614929D01*
X159854148Y-113675405D01*
X159914624Y-113735881D01*
X159975100Y-113856834D01*
X159975100Y-114098739D01*
X159914624Y-114219691D01*
X159854148Y-114280167D01*
X159733196Y-114340643D01*
X159491291Y-114340643D01*
X159370339Y-114280167D01*
X159309862Y-114219691D01*
X159249386Y-114098739D01*
X159249386Y-113856834D01*
X159309862Y-113735881D01*
X159370339Y-113675405D01*
X159491291Y-113614929D01*
X158826053Y-113070643D02*
X158039862Y-113070643D01*
X158463196Y-113554453D01*
X158281767Y-113554453D01*
X158160815Y-113614929D01*
X158100339Y-113675405D01*
X158039862Y-113796358D01*
X158039862Y-114098739D01*
X158100339Y-114219691D01*
X158160815Y-114280167D01*
X158281767Y-114340643D01*
X158644624Y-114340643D01*
X158765577Y-114280167D01*
X158826053Y-114219691D01*
X157556053Y-113191596D02*
X157495577Y-113131120D01*
X157374624Y-113070643D01*
X157072243Y-113070643D01*
X156951291Y-113131120D01*
X156890815Y-113191596D01*
X156830339Y-113312548D01*
X156830339Y-113433500D01*
X156890815Y-113614929D01*
X157616529Y-114340643D01*
X156830339Y-114340643D01*
G04 #@! TO.C,U3*
D19*
X137161587Y-104542585D02*
X137161587Y-105870905D01*
X137083451Y-106027178D01*
X137005314Y-106105315D01*
X136849041Y-106183451D01*
X136536495Y-106183451D01*
X136380222Y-106105315D01*
X136302086Y-106027178D01*
X136223949Y-105870905D01*
X136223949Y-104542585D01*
X135598858Y-104542585D02*
X134583083Y-104542585D01*
X135130039Y-105167677D01*
X134895629Y-105167677D01*
X134739356Y-105245813D01*
X134661220Y-105323950D01*
X134583083Y-105480223D01*
X134583083Y-105870905D01*
X134661220Y-106027178D01*
X134739356Y-106105315D01*
X134895629Y-106183451D01*
X135364448Y-106183451D01*
X135520721Y-106105315D01*
X135598858Y-106027178D01*
X138785234Y-100722965D02*
X138785234Y-100961361D01*
X139023629Y-100866003D02*
X138785234Y-100961361D01*
X138546838Y-100866003D01*
X138928271Y-101152077D02*
X138785234Y-100961361D01*
X138642196Y-101152077D01*
G04 #@! TO.C,U4*
D17*
X138221904Y-76442380D02*
X138221904Y-77251904D01*
X138174285Y-77347142D01*
X138126666Y-77394761D01*
X138031428Y-77442380D01*
X137840952Y-77442380D01*
X137745714Y-77394761D01*
X137698095Y-77347142D01*
X137650476Y-77251904D01*
X137650476Y-76442380D01*
X136745714Y-76775714D02*
X136745714Y-77442380D01*
X136983809Y-76394761D02*
X137221904Y-77109047D01*
X136602857Y-77109047D01*
G04 #@! TO.C,U5*
X149631904Y-98932380D02*
X149631904Y-99741904D01*
X149584285Y-99837142D01*
X149536666Y-99884761D01*
X149441428Y-99932380D01*
X149250952Y-99932380D01*
X149155714Y-99884761D01*
X149108095Y-99837142D01*
X149060476Y-99741904D01*
X149060476Y-98932380D01*
X148108095Y-98932380D02*
X148584285Y-98932380D01*
X148631904Y-99408571D01*
X148584285Y-99360952D01*
X148489047Y-99313333D01*
X148250952Y-99313333D01*
X148155714Y-99360952D01*
X148108095Y-99408571D01*
X148060476Y-99503809D01*
X148060476Y-99741904D01*
X148108095Y-99837142D01*
X148155714Y-99884761D01*
X148250952Y-99932380D01*
X148489047Y-99932380D01*
X148584285Y-99884761D01*
X148631904Y-99837142D01*
X157346190Y-95932380D02*
X157822380Y-95932380D01*
X157822380Y-94932380D01*
X157012857Y-95932380D02*
X157012857Y-94932380D01*
X156631904Y-94932380D01*
X156536666Y-94980000D01*
X156489047Y-95027619D01*
X156441428Y-95122857D01*
X156441428Y-95265714D01*
X156489047Y-95360952D01*
X156536666Y-95408571D01*
X156631904Y-95456190D01*
X157012857Y-95456190D01*
X156108095Y-94932380D02*
X155489047Y-94932380D01*
X155822380Y-95313333D01*
X155679523Y-95313333D01*
X155584285Y-95360952D01*
X155536666Y-95408571D01*
X155489047Y-95503809D01*
X155489047Y-95741904D01*
X155536666Y-95837142D01*
X155584285Y-95884761D01*
X155679523Y-95932380D01*
X155965238Y-95932380D01*
X156060476Y-95884761D01*
X156108095Y-95837142D01*
X154917619Y-95360952D02*
X155012857Y-95313333D01*
X155060476Y-95265714D01*
X155108095Y-95170476D01*
X155108095Y-95122857D01*
X155060476Y-95027619D01*
X155012857Y-94980000D01*
X154917619Y-94932380D01*
X154727142Y-94932380D01*
X154631904Y-94980000D01*
X154584285Y-95027619D01*
X154536666Y-95122857D01*
X154536666Y-95170476D01*
X154584285Y-95265714D01*
X154631904Y-95313333D01*
X154727142Y-95360952D01*
X154917619Y-95360952D01*
X155012857Y-95408571D01*
X155060476Y-95456190D01*
X155108095Y-95551428D01*
X155108095Y-95741904D01*
X155060476Y-95837142D01*
X155012857Y-95884761D01*
X154917619Y-95932380D01*
X154727142Y-95932380D01*
X154631904Y-95884761D01*
X154584285Y-95837142D01*
X154536666Y-95741904D01*
X154536666Y-95551428D01*
X154584285Y-95456190D01*
X154631904Y-95408571D01*
X154727142Y-95360952D01*
X153631904Y-94932380D02*
X154108095Y-94932380D01*
X154155714Y-95408571D01*
X154108095Y-95360952D01*
X154012857Y-95313333D01*
X153774761Y-95313333D01*
X153679523Y-95360952D01*
X153631904Y-95408571D01*
X153584285Y-95503809D01*
X153584285Y-95741904D01*
X153631904Y-95837142D01*
X153679523Y-95884761D01*
X153774761Y-95932380D01*
X154012857Y-95932380D01*
X154108095Y-95884761D01*
X154155714Y-95837142D01*
X152631904Y-95932380D02*
X153203333Y-95932380D01*
X152917619Y-95932380D02*
X152917619Y-94932380D01*
X153012857Y-95075238D01*
X153108095Y-95170476D01*
X153203333Y-95218095D01*
X151679523Y-95932380D02*
X152250952Y-95932380D01*
X151965238Y-95932380D02*
X151965238Y-94932380D01*
X152060476Y-95075238D01*
X152155714Y-95170476D01*
X152250952Y-95218095D01*
X151250952Y-95932380D02*
X151250952Y-94932380D01*
X150917619Y-95646666D01*
X150584285Y-94932380D01*
X150584285Y-95932380D01*
X149536666Y-95932380D02*
X149870000Y-95456190D01*
X150108095Y-95932380D02*
X150108095Y-94932380D01*
X149727142Y-94932380D01*
X149631904Y-94980000D01*
X149584285Y-95027619D01*
X149536666Y-95122857D01*
X149536666Y-95265714D01*
X149584285Y-95360952D01*
X149631904Y-95408571D01*
X149727142Y-95456190D01*
X150108095Y-95456190D01*
X149203333Y-94932380D02*
X148536666Y-95932380D01*
X148536666Y-94932380D02*
X149203333Y-95932380D01*
X148155714Y-95551428D02*
X147393809Y-95551428D01*
X146965238Y-95646666D02*
X146489047Y-95646666D01*
X147060476Y-95932380D02*
X146727142Y-94932380D01*
X146393809Y-95932380D01*
X146060476Y-95932380D02*
X146060476Y-94932380D01*
X145822380Y-94932380D01*
X145679523Y-94980000D01*
X145584285Y-95075238D01*
X145536666Y-95170476D01*
X145489047Y-95360952D01*
X145489047Y-95503809D01*
X145536666Y-95694285D01*
X145584285Y-95789523D01*
X145679523Y-95884761D01*
X145822380Y-95932380D01*
X146060476Y-95932380D01*
X144774761Y-94932380D02*
X144774761Y-95646666D01*
X144822380Y-95789523D01*
X144917619Y-95884761D01*
X145060476Y-95932380D01*
X145155714Y-95932380D01*
X144536666Y-96027619D02*
X143774761Y-96027619D01*
X143536666Y-95932380D02*
X143536666Y-94932380D01*
X142965238Y-95932380D01*
X142965238Y-94932380D01*
X142298571Y-94932380D02*
X142108095Y-94932380D01*
X142012857Y-94980000D01*
X141917619Y-95075238D01*
X141870000Y-95265714D01*
X141870000Y-95599047D01*
X141917619Y-95789523D01*
X142012857Y-95884761D01*
X142108095Y-95932380D01*
X142298571Y-95932380D01*
X142393809Y-95884761D01*
X142489047Y-95789523D01*
X142536666Y-95599047D01*
X142536666Y-95265714D01*
X142489047Y-95075238D01*
X142393809Y-94980000D01*
X142298571Y-94932380D01*
X141441428Y-95932380D02*
X141441428Y-94932380D01*
X141060476Y-94932380D01*
X140965238Y-94980000D01*
X140917619Y-95027619D01*
X140870000Y-95122857D01*
X140870000Y-95265714D01*
X140917619Y-95360952D01*
X140965238Y-95408571D01*
X141060476Y-95456190D01*
X141441428Y-95456190D01*
X140108095Y-95408571D02*
X139965238Y-95456190D01*
X139917619Y-95503809D01*
X139870000Y-95599047D01*
X139870000Y-95741904D01*
X139917619Y-95837142D01*
X139965238Y-95884761D01*
X140060476Y-95932380D01*
X140441428Y-95932380D01*
X140441428Y-94932380D01*
X140108095Y-94932380D01*
X140012857Y-94980000D01*
X139965238Y-95027619D01*
X139917619Y-95122857D01*
X139917619Y-95218095D01*
X139965238Y-95313333D01*
X140012857Y-95360952D01*
X140108095Y-95408571D01*
X140441428Y-95408571D01*
X151848150Y-95350980D02*
X151848150Y-95589076D01*
X152086245Y-95493838D02*
X151848150Y-95589076D01*
X151610054Y-95493838D01*
X151991007Y-95779552D02*
X151848150Y-95589076D01*
X151705292Y-95779552D01*
X151848150Y-95350980D02*
X151848150Y-95589076D01*
X152086245Y-95493838D02*
X151848150Y-95589076D01*
X151610054Y-95493838D01*
X151991007Y-95779552D02*
X151848150Y-95589076D01*
X151705292Y-95779552D01*
G04 #@! TO.C,USB_MICRO_CONN1*
X127207619Y-89814761D02*
X126398095Y-89814761D01*
X126302857Y-89767142D01*
X126255238Y-89719523D01*
X126207619Y-89624285D01*
X126207619Y-89433809D01*
X126255238Y-89338571D01*
X126302857Y-89290952D01*
X126398095Y-89243333D01*
X127207619Y-89243333D01*
X126255238Y-88814761D02*
X126207619Y-88671904D01*
X126207619Y-88433809D01*
X126255238Y-88338571D01*
X126302857Y-88290952D01*
X126398095Y-88243333D01*
X126493333Y-88243333D01*
X126588571Y-88290952D01*
X126636190Y-88338571D01*
X126683809Y-88433809D01*
X126731428Y-88624285D01*
X126779047Y-88719523D01*
X126826666Y-88767142D01*
X126921904Y-88814761D01*
X127017142Y-88814761D01*
X127112380Y-88767142D01*
X127160000Y-88719523D01*
X127207619Y-88624285D01*
X127207619Y-88386190D01*
X127160000Y-88243333D01*
X126731428Y-87481428D02*
X126683809Y-87338571D01*
X126636190Y-87290952D01*
X126540952Y-87243333D01*
X126398095Y-87243333D01*
X126302857Y-87290952D01*
X126255238Y-87338571D01*
X126207619Y-87433809D01*
X126207619Y-87814761D01*
X127207619Y-87814761D01*
X127207619Y-87481428D01*
X127160000Y-87386190D01*
X127112380Y-87338571D01*
X127017142Y-87290952D01*
X126921904Y-87290952D01*
X126826666Y-87338571D01*
X126779047Y-87386190D01*
X126731428Y-87481428D01*
X126731428Y-87814761D01*
X126112380Y-87052857D02*
X126112380Y-86290952D01*
X126207619Y-86052857D02*
X127207619Y-86052857D01*
X126493333Y-85719523D01*
X127207619Y-85386190D01*
X126207619Y-85386190D01*
X126207619Y-84910000D02*
X127207619Y-84910000D01*
X126302857Y-83862380D02*
X126255238Y-83910000D01*
X126207619Y-84052857D01*
X126207619Y-84148095D01*
X126255238Y-84290952D01*
X126350476Y-84386190D01*
X126445714Y-84433809D01*
X126636190Y-84481428D01*
X126779047Y-84481428D01*
X126969523Y-84433809D01*
X127064761Y-84386190D01*
X127160000Y-84290952D01*
X127207619Y-84148095D01*
X127207619Y-84052857D01*
X127160000Y-83910000D01*
X127112380Y-83862380D01*
X126207619Y-82862380D02*
X126683809Y-83195714D01*
X126207619Y-83433809D02*
X127207619Y-83433809D01*
X127207619Y-83052857D01*
X127160000Y-82957619D01*
X127112380Y-82910000D01*
X127017142Y-82862380D01*
X126874285Y-82862380D01*
X126779047Y-82910000D01*
X126731428Y-82957619D01*
X126683809Y-83052857D01*
X126683809Y-83433809D01*
X127207619Y-82243333D02*
X127207619Y-82052857D01*
X127160000Y-81957619D01*
X127064761Y-81862380D01*
X126874285Y-81814761D01*
X126540952Y-81814761D01*
X126350476Y-81862380D01*
X126255238Y-81957619D01*
X126207619Y-82052857D01*
X126207619Y-82243333D01*
X126255238Y-82338571D01*
X126350476Y-82433809D01*
X126540952Y-82481428D01*
X126874285Y-82481428D01*
X127064761Y-82433809D01*
X127160000Y-82338571D01*
X127207619Y-82243333D01*
X126112380Y-81624285D02*
X126112380Y-80862380D01*
X126302857Y-80052857D02*
X126255238Y-80100476D01*
X126207619Y-80243333D01*
X126207619Y-80338571D01*
X126255238Y-80481428D01*
X126350476Y-80576666D01*
X126445714Y-80624285D01*
X126636190Y-80671904D01*
X126779047Y-80671904D01*
X126969523Y-80624285D01*
X127064761Y-80576666D01*
X127160000Y-80481428D01*
X127207619Y-80338571D01*
X127207619Y-80243333D01*
X127160000Y-80100476D01*
X127112380Y-80052857D01*
X127207619Y-79433809D02*
X127207619Y-79243333D01*
X127160000Y-79148095D01*
X127064761Y-79052857D01*
X126874285Y-79005238D01*
X126540952Y-79005238D01*
X126350476Y-79052857D01*
X126255238Y-79148095D01*
X126207619Y-79243333D01*
X126207619Y-79433809D01*
X126255238Y-79529047D01*
X126350476Y-79624285D01*
X126540952Y-79671904D01*
X126874285Y-79671904D01*
X127064761Y-79624285D01*
X127160000Y-79529047D01*
X127207619Y-79433809D01*
X126207619Y-78576666D02*
X127207619Y-78576666D01*
X126207619Y-78005238D01*
X127207619Y-78005238D01*
X126207619Y-77529047D02*
X127207619Y-77529047D01*
X126207619Y-76957619D01*
X127207619Y-76957619D01*
X126207619Y-75957619D02*
X126207619Y-76529047D01*
X126207619Y-76243333D02*
X127207619Y-76243333D01*
X127064761Y-76338571D01*
X126969523Y-76433809D01*
X126921904Y-76529047D01*
G04 #@! TO.C,U2*
X161602380Y-69788095D02*
X162411904Y-69788095D01*
X162507142Y-69835714D01*
X162554761Y-69883333D01*
X162602380Y-69978571D01*
X162602380Y-70169047D01*
X162554761Y-70264285D01*
X162507142Y-70311904D01*
X162411904Y-70359523D01*
X161602380Y-70359523D01*
X161697619Y-70788095D02*
X161650000Y-70835714D01*
X161602380Y-70930952D01*
X161602380Y-71169047D01*
X161650000Y-71264285D01*
X161697619Y-71311904D01*
X161792857Y-71359523D01*
X161888095Y-71359523D01*
X162030952Y-71311904D01*
X162602380Y-70740476D01*
X162602380Y-71359523D01*
G04 #@! TD*
M02*
