G04 #@! TF.GenerationSoftware,KiCad,Pcbnew,5.0.2-bee76a0~70~ubuntu18.04.1*
G04 #@! TF.CreationDate,2020-07-11T19:39:15-07:00*
G04 #@! TF.ProjectId,light_thing_hw,6c696768-745f-4746-9869-6e675f68772e,rev?*
G04 #@! TF.SameCoordinates,Original*
G04 #@! TF.FileFunction,Copper,L1,Top*
G04 #@! TF.FilePolarity,Positive*
%FSLAX46Y46*%
G04 Gerber Fmt 4.6, Leading zero omitted, Abs format (unit mm)*
G04 Created by KiCad (PCBNEW 5.0.2-bee76a0~70~ubuntu18.04.1) date Sat 11 Jul 2020 07:39:15 PM PDT*
%MOMM*%
%LPD*%
G01*
G04 APERTURE LIST*
G04 #@! TA.AperFunction,SMDPad,CuDef*
%ADD10R,6.500000X6.500000*%
G04 #@! TD*
G04 #@! TA.AperFunction,SMDPad,CuDef*
%ADD11R,1.000000X0.250000*%
G04 #@! TD*
G04 #@! TA.AperFunction,SMDPad,CuDef*
%ADD12R,0.250000X1.000000*%
G04 #@! TD*
G04 #@! TA.AperFunction,Conductor*
%ADD13C,0.100000*%
G04 #@! TD*
G04 #@! TA.AperFunction,SMDPad,CuDef*
%ADD14C,0.950000*%
G04 #@! TD*
G04 #@! TA.AperFunction,ComponentPad*
%ADD15O,0.850000X0.850000*%
G04 #@! TD*
G04 #@! TA.AperFunction,ComponentPad*
%ADD16R,0.850000X0.850000*%
G04 #@! TD*
G04 #@! TA.AperFunction,SMDPad,CuDef*
%ADD17R,1.500000X1.500000*%
G04 #@! TD*
G04 #@! TA.AperFunction,BGAPad,CuDef*
%ADD18C,1.000000*%
G04 #@! TD*
G04 #@! TA.AperFunction,ViaPad*
%ADD19C,0.450000*%
G04 #@! TD*
G04 #@! TA.AperFunction,Conductor*
%ADD20C,0.250000*%
G04 #@! TD*
G04 #@! TA.AperFunction,Conductor*
%ADD21C,0.150000*%
G04 #@! TD*
G04 #@! TA.AperFunction,Conductor*
%ADD22C,0.254000*%
G04 #@! TD*
G04 APERTURE END LIST*
D10*
G04 #@! TO.P,U5A1,65*
G04 #@! TO.N,N/C*
X140889571Y-84623695D03*
D11*
G04 #@! TO.P,U5A1,64*
G04 #@! TO.N,+3V3*
X146589571Y-80873695D03*
G04 #@! TO.P,U5A1,63*
G04 #@! TO.N,GND*
X146589571Y-81373695D03*
G04 #@! TO.P,U5A1,62*
G04 #@! TO.N,TEST_GPIO1*
X146589571Y-81873695D03*
G04 #@! TO.P,U5A1,61*
G04 #@! TO.N,TEST_GPIO0*
X146589571Y-82373695D03*
G04 #@! TO.P,U5A1,60*
G04 #@! TO.N,Net-(R5-Pad1)*
X146589571Y-82873695D03*
G04 #@! TO.P,U5A1,59*
G04 #@! TO.N,ACCEL_EXTI_2*
X146589571Y-83373695D03*
G04 #@! TO.P,U5A1,58*
G04 #@! TO.N,ACCEL_EXTI_1*
X146589571Y-83873695D03*
G04 #@! TO.P,U5A1,57*
G04 #@! TO.N,Net-(U5A1-Pad57)*
X146589571Y-84373695D03*
G04 #@! TO.P,U5A1,56*
G04 #@! TO.N,Net-(U5A1-Pad56)*
X146589571Y-84873695D03*
G04 #@! TO.P,U5A1,55*
G04 #@! TO.N,SWO*
X146589571Y-85373695D03*
G04 #@! TO.P,U5A1,54*
G04 #@! TO.N,Net-(U5A1-Pad54)*
X146589571Y-85873695D03*
G04 #@! TO.P,U5A1,53*
G04 #@! TO.N,Net-(U5A1-Pad53)*
X146589571Y-86373695D03*
G04 #@! TO.P,U5A1,52*
G04 #@! TO.N,BT_TX*
X146589571Y-86873695D03*
G04 #@! TO.P,U5A1,51*
G04 #@! TO.N,BT_RX*
X146589571Y-87373695D03*
G04 #@! TO.P,U5A1,50*
G04 #@! TO.N,Net-(U5A1-Pad50)*
X146589571Y-87873695D03*
G04 #@! TO.P,U5A1,49*
G04 #@! TO.N,SWCLK*
X146589571Y-88373695D03*
D12*
G04 #@! TO.P,U5A1,48*
G04 #@! TO.N,+3V3*
X144639571Y-90323695D03*
G04 #@! TO.P,U5A1,47*
G04 #@! TO.N,GND*
X144139571Y-90323695D03*
G04 #@! TO.P,U5A1,46*
G04 #@! TO.N,SWDIO*
X143639571Y-90323695D03*
G04 #@! TO.P,U5A1,45*
G04 #@! TO.N,D+*
X143139571Y-90323695D03*
G04 #@! TO.P,U5A1,44*
G04 #@! TO.N,D-*
X142639571Y-90323695D03*
G04 #@! TO.P,U5A1,43*
G04 #@! TO.N,I2C1_SDA*
X142139571Y-90323695D03*
G04 #@! TO.P,U5A1,42*
G04 #@! TO.N,I2C1_SCL*
X141639571Y-90323695D03*
G04 #@! TO.P,U5A1,41*
G04 #@! TO.N,Net-(U5A1-Pad41)*
X141139571Y-90323695D03*
G04 #@! TO.P,U5A1,40*
G04 #@! TO.N,Net-(U5A1-Pad40)*
X140639571Y-90323695D03*
G04 #@! TO.P,U5A1,39*
G04 #@! TO.N,Net-(U5A1-Pad39)*
X140139571Y-90323695D03*
G04 #@! TO.P,U5A1,38*
G04 #@! TO.N,BOOST_ENABLE*
X139639571Y-90323695D03*
G04 #@! TO.P,U5A1,37*
G04 #@! TO.N,BATT_ADC_ENABLE*
X139139571Y-90323695D03*
G04 #@! TO.P,U5A1,36*
G04 #@! TO.N,CHARGER_STAT2*
X138639571Y-90323695D03*
G04 #@! TO.P,U5A1,35*
G04 #@! TO.N,CHARGER_STAT1*
X138139571Y-90323695D03*
G04 #@! TO.P,U5A1,34*
G04 #@! TO.N,I2C2_SCL*
X137639571Y-90323695D03*
G04 #@! TO.P,U5A1,33*
G04 #@! TO.N,Net-(U5A1-Pad33)*
X137139571Y-90323695D03*
D11*
G04 #@! TO.P,U5A1,32*
G04 #@! TO.N,+3V3*
X135189571Y-88373695D03*
G04 #@! TO.P,U5A1,31*
G04 #@! TO.N,GND*
X135189571Y-87873695D03*
G04 #@! TO.P,U5A1,30*
G04 #@! TO.N,I2C2_SDA*
X135189571Y-87373695D03*
G04 #@! TO.P,U5A1,29*
G04 #@! TO.N,TEST_GPIO2*
X135189571Y-86873695D03*
G04 #@! TO.P,U5A1,28*
G04 #@! TO.N,Net-(U5A1-Pad28)*
X135189571Y-86373695D03*
G04 #@! TO.P,U5A1,27*
G04 #@! TO.N,ADDR_LED_PANEL_1_PWM*
X135189571Y-85873695D03*
G04 #@! TO.P,U5A1,26*
G04 #@! TO.N,Net-(U5A1-Pad26)*
X135189571Y-85373695D03*
G04 #@! TO.P,U5A1,25*
G04 #@! TO.N,BT_GPIO_3*
X135189571Y-84873695D03*
G04 #@! TO.P,U5A1,24*
G04 #@! TO.N,BT_GPIO_2*
X135189571Y-84373695D03*
G04 #@! TO.P,U5A1,23*
G04 #@! TO.N,Net-(U5A1-Pad23)*
X135189571Y-83873695D03*
G04 #@! TO.P,U5A1,22*
G04 #@! TO.N,BATT_ADC*
X135189571Y-83373695D03*
G04 #@! TO.P,U5A1,21*
G04 #@! TO.N,GREEN_LED*
X135189571Y-82873695D03*
G04 #@! TO.P,U5A1,20*
G04 #@! TO.N,Net-(U5A1-Pad20)*
X135189571Y-82373695D03*
G04 #@! TO.P,U5A1,19*
G04 #@! TO.N,+3V3*
X135189571Y-81873695D03*
G04 #@! TO.P,U5A1,18*
G04 #@! TO.N,GND*
X135189571Y-81373695D03*
G04 #@! TO.P,U5A1,17*
G04 #@! TO.N,USART_2_RX*
X135189571Y-80873695D03*
D12*
G04 #@! TO.P,U5A1,16*
G04 #@! TO.N,USART_2_TX*
X137139571Y-78923695D03*
G04 #@! TO.P,U5A1,15*
G04 #@! TO.N,Net-(U5A1-Pad15)*
X137639571Y-78923695D03*
G04 #@! TO.P,U5A1,14*
G04 #@! TO.N,ADDR_LED_BACKUP_PWM*
X138139571Y-78923695D03*
G04 #@! TO.P,U5A1,13*
G04 #@! TO.N,+3V3*
X138639571Y-78923695D03*
G04 #@! TO.P,U5A1,12*
G04 #@! TO.N,GND*
X139139571Y-78923695D03*
G04 #@! TO.P,U5A1,11*
G04 #@! TO.N,BT_GPIO_1*
X139639571Y-78923695D03*
G04 #@! TO.P,U5A1,10*
G04 #@! TO.N,BT_GPIO_0*
X140139571Y-78923695D03*
G04 #@! TO.P,U5A1,9*
G04 #@! TO.N,Net-(U5A1-Pad9)*
X140639571Y-78923695D03*
G04 #@! TO.P,U5A1,8*
G04 #@! TO.N,Net-(U5A1-Pad8)*
X141139571Y-78923695D03*
G04 #@! TO.P,U5A1,7*
G04 #@! TO.N,RESET*
X141639571Y-78923695D03*
G04 #@! TO.P,U5A1,6*
G04 #@! TO.N,Net-(U5A1-Pad6)*
X142139571Y-78923695D03*
G04 #@! TO.P,U5A1,5*
G04 #@! TO.N,Net-(U5A1-Pad5)*
X142639571Y-78923695D03*
G04 #@! TO.P,U5A1,4*
G04 #@! TO.N,Net-(U5A1-Pad4)*
X143139571Y-78923695D03*
G04 #@! TO.P,U5A1,3*
G04 #@! TO.N,Net-(U5A1-Pad3)*
X143639571Y-78923695D03*
G04 #@! TO.P,U5A1,2*
G04 #@! TO.N,BUTTON1*
X144139571Y-78923695D03*
G04 #@! TO.P,U5A1,1*
G04 #@! TO.N,+3V3*
X144639571Y-78923695D03*
G04 #@! TD*
D13*
G04 #@! TO.N,+3V3*
G04 #@! TO.C,C1*
G36*
X148520350Y-80384839D02*
X148543405Y-80388258D01*
X148566014Y-80393922D01*
X148587958Y-80401774D01*
X148609028Y-80411739D01*
X148629019Y-80423721D01*
X148647739Y-80437605D01*
X148665009Y-80453257D01*
X148680661Y-80470527D01*
X148694545Y-80489247D01*
X148706527Y-80509238D01*
X148716492Y-80530308D01*
X148724344Y-80552252D01*
X148730008Y-80574861D01*
X148733427Y-80597916D01*
X148734571Y-80621195D01*
X148734571Y-81196195D01*
X148733427Y-81219474D01*
X148730008Y-81242529D01*
X148724344Y-81265138D01*
X148716492Y-81287082D01*
X148706527Y-81308152D01*
X148694545Y-81328143D01*
X148680661Y-81346863D01*
X148665009Y-81364133D01*
X148647739Y-81379785D01*
X148629019Y-81393669D01*
X148609028Y-81405651D01*
X148587958Y-81415616D01*
X148566014Y-81423468D01*
X148543405Y-81429132D01*
X148520350Y-81432551D01*
X148497071Y-81433695D01*
X148022071Y-81433695D01*
X147998792Y-81432551D01*
X147975737Y-81429132D01*
X147953128Y-81423468D01*
X147931184Y-81415616D01*
X147910114Y-81405651D01*
X147890123Y-81393669D01*
X147871403Y-81379785D01*
X147854133Y-81364133D01*
X147838481Y-81346863D01*
X147824597Y-81328143D01*
X147812615Y-81308152D01*
X147802650Y-81287082D01*
X147794798Y-81265138D01*
X147789134Y-81242529D01*
X147785715Y-81219474D01*
X147784571Y-81196195D01*
X147784571Y-80621195D01*
X147785715Y-80597916D01*
X147789134Y-80574861D01*
X147794798Y-80552252D01*
X147802650Y-80530308D01*
X147812615Y-80509238D01*
X147824597Y-80489247D01*
X147838481Y-80470527D01*
X147854133Y-80453257D01*
X147871403Y-80437605D01*
X147890123Y-80423721D01*
X147910114Y-80411739D01*
X147931184Y-80401774D01*
X147953128Y-80393922D01*
X147975737Y-80388258D01*
X147998792Y-80384839D01*
X148022071Y-80383695D01*
X148497071Y-80383695D01*
X148520350Y-80384839D01*
X148520350Y-80384839D01*
G37*
D14*
G04 #@! TD*
G04 #@! TO.P,C1,1*
G04 #@! TO.N,+3V3*
X148259571Y-80908695D03*
D13*
G04 #@! TO.N,GND*
G04 #@! TO.C,C1*
G36*
X148520350Y-78634839D02*
X148543405Y-78638258D01*
X148566014Y-78643922D01*
X148587958Y-78651774D01*
X148609028Y-78661739D01*
X148629019Y-78673721D01*
X148647739Y-78687605D01*
X148665009Y-78703257D01*
X148680661Y-78720527D01*
X148694545Y-78739247D01*
X148706527Y-78759238D01*
X148716492Y-78780308D01*
X148724344Y-78802252D01*
X148730008Y-78824861D01*
X148733427Y-78847916D01*
X148734571Y-78871195D01*
X148734571Y-79446195D01*
X148733427Y-79469474D01*
X148730008Y-79492529D01*
X148724344Y-79515138D01*
X148716492Y-79537082D01*
X148706527Y-79558152D01*
X148694545Y-79578143D01*
X148680661Y-79596863D01*
X148665009Y-79614133D01*
X148647739Y-79629785D01*
X148629019Y-79643669D01*
X148609028Y-79655651D01*
X148587958Y-79665616D01*
X148566014Y-79673468D01*
X148543405Y-79679132D01*
X148520350Y-79682551D01*
X148497071Y-79683695D01*
X148022071Y-79683695D01*
X147998792Y-79682551D01*
X147975737Y-79679132D01*
X147953128Y-79673468D01*
X147931184Y-79665616D01*
X147910114Y-79655651D01*
X147890123Y-79643669D01*
X147871403Y-79629785D01*
X147854133Y-79614133D01*
X147838481Y-79596863D01*
X147824597Y-79578143D01*
X147812615Y-79558152D01*
X147802650Y-79537082D01*
X147794798Y-79515138D01*
X147789134Y-79492529D01*
X147785715Y-79469474D01*
X147784571Y-79446195D01*
X147784571Y-78871195D01*
X147785715Y-78847916D01*
X147789134Y-78824861D01*
X147794798Y-78802252D01*
X147802650Y-78780308D01*
X147812615Y-78759238D01*
X147824597Y-78739247D01*
X147838481Y-78720527D01*
X147854133Y-78703257D01*
X147871403Y-78687605D01*
X147890123Y-78673721D01*
X147910114Y-78661739D01*
X147931184Y-78651774D01*
X147953128Y-78643922D01*
X147975737Y-78638258D01*
X147998792Y-78634839D01*
X148022071Y-78633695D01*
X148497071Y-78633695D01*
X148520350Y-78634839D01*
X148520350Y-78634839D01*
G37*
D14*
G04 #@! TD*
G04 #@! TO.P,C1,2*
G04 #@! TO.N,GND*
X148259571Y-79158695D03*
D13*
G04 #@! TO.N,GND*
G04 #@! TO.C,C2*
G36*
X146876938Y-92589247D02*
X146899993Y-92592666D01*
X146922602Y-92598330D01*
X146944546Y-92606182D01*
X146965616Y-92616147D01*
X146985607Y-92628129D01*
X147004327Y-92642013D01*
X147021597Y-92657665D01*
X147037249Y-92674935D01*
X147051133Y-92693655D01*
X147063115Y-92713646D01*
X147073080Y-92734716D01*
X147080932Y-92756660D01*
X147086596Y-92779269D01*
X147090015Y-92802324D01*
X147091159Y-92825603D01*
X147091159Y-93300603D01*
X147090015Y-93323882D01*
X147086596Y-93346937D01*
X147080932Y-93369546D01*
X147073080Y-93391490D01*
X147063115Y-93412560D01*
X147051133Y-93432551D01*
X147037249Y-93451271D01*
X147021597Y-93468541D01*
X147004327Y-93484193D01*
X146985607Y-93498077D01*
X146965616Y-93510059D01*
X146944546Y-93520024D01*
X146922602Y-93527876D01*
X146899993Y-93533540D01*
X146876938Y-93536959D01*
X146853659Y-93538103D01*
X146278659Y-93538103D01*
X146255380Y-93536959D01*
X146232325Y-93533540D01*
X146209716Y-93527876D01*
X146187772Y-93520024D01*
X146166702Y-93510059D01*
X146146711Y-93498077D01*
X146127991Y-93484193D01*
X146110721Y-93468541D01*
X146095069Y-93451271D01*
X146081185Y-93432551D01*
X146069203Y-93412560D01*
X146059238Y-93391490D01*
X146051386Y-93369546D01*
X146045722Y-93346937D01*
X146042303Y-93323882D01*
X146041159Y-93300603D01*
X146041159Y-92825603D01*
X146042303Y-92802324D01*
X146045722Y-92779269D01*
X146051386Y-92756660D01*
X146059238Y-92734716D01*
X146069203Y-92713646D01*
X146081185Y-92693655D01*
X146095069Y-92674935D01*
X146110721Y-92657665D01*
X146127991Y-92642013D01*
X146146711Y-92628129D01*
X146166702Y-92616147D01*
X146187772Y-92606182D01*
X146209716Y-92598330D01*
X146232325Y-92592666D01*
X146255380Y-92589247D01*
X146278659Y-92588103D01*
X146853659Y-92588103D01*
X146876938Y-92589247D01*
X146876938Y-92589247D01*
G37*
D14*
G04 #@! TD*
G04 #@! TO.P,C2,2*
G04 #@! TO.N,GND*
X146566159Y-93063103D03*
D13*
G04 #@! TO.N,+3V3*
G04 #@! TO.C,C2*
G36*
X145126938Y-92589247D02*
X145149993Y-92592666D01*
X145172602Y-92598330D01*
X145194546Y-92606182D01*
X145215616Y-92616147D01*
X145235607Y-92628129D01*
X145254327Y-92642013D01*
X145271597Y-92657665D01*
X145287249Y-92674935D01*
X145301133Y-92693655D01*
X145313115Y-92713646D01*
X145323080Y-92734716D01*
X145330932Y-92756660D01*
X145336596Y-92779269D01*
X145340015Y-92802324D01*
X145341159Y-92825603D01*
X145341159Y-93300603D01*
X145340015Y-93323882D01*
X145336596Y-93346937D01*
X145330932Y-93369546D01*
X145323080Y-93391490D01*
X145313115Y-93412560D01*
X145301133Y-93432551D01*
X145287249Y-93451271D01*
X145271597Y-93468541D01*
X145254327Y-93484193D01*
X145235607Y-93498077D01*
X145215616Y-93510059D01*
X145194546Y-93520024D01*
X145172602Y-93527876D01*
X145149993Y-93533540D01*
X145126938Y-93536959D01*
X145103659Y-93538103D01*
X144528659Y-93538103D01*
X144505380Y-93536959D01*
X144482325Y-93533540D01*
X144459716Y-93527876D01*
X144437772Y-93520024D01*
X144416702Y-93510059D01*
X144396711Y-93498077D01*
X144377991Y-93484193D01*
X144360721Y-93468541D01*
X144345069Y-93451271D01*
X144331185Y-93432551D01*
X144319203Y-93412560D01*
X144309238Y-93391490D01*
X144301386Y-93369546D01*
X144295722Y-93346937D01*
X144292303Y-93323882D01*
X144291159Y-93300603D01*
X144291159Y-92825603D01*
X144292303Y-92802324D01*
X144295722Y-92779269D01*
X144301386Y-92756660D01*
X144309238Y-92734716D01*
X144319203Y-92713646D01*
X144331185Y-92693655D01*
X144345069Y-92674935D01*
X144360721Y-92657665D01*
X144377991Y-92642013D01*
X144396711Y-92628129D01*
X144416702Y-92616147D01*
X144437772Y-92606182D01*
X144459716Y-92598330D01*
X144482325Y-92592666D01*
X144505380Y-92589247D01*
X144528659Y-92588103D01*
X145103659Y-92588103D01*
X145126938Y-92589247D01*
X145126938Y-92589247D01*
G37*
D14*
G04 #@! TD*
G04 #@! TO.P,C2,1*
G04 #@! TO.N,+3V3*
X144816159Y-93063103D03*
D13*
G04 #@! TO.N,+3V3*
G04 #@! TO.C,C3*
G36*
X133660350Y-87989839D02*
X133683405Y-87993258D01*
X133706014Y-87998922D01*
X133727958Y-88006774D01*
X133749028Y-88016739D01*
X133769019Y-88028721D01*
X133787739Y-88042605D01*
X133805009Y-88058257D01*
X133820661Y-88075527D01*
X133834545Y-88094247D01*
X133846527Y-88114238D01*
X133856492Y-88135308D01*
X133864344Y-88157252D01*
X133870008Y-88179861D01*
X133873427Y-88202916D01*
X133874571Y-88226195D01*
X133874571Y-88801195D01*
X133873427Y-88824474D01*
X133870008Y-88847529D01*
X133864344Y-88870138D01*
X133856492Y-88892082D01*
X133846527Y-88913152D01*
X133834545Y-88933143D01*
X133820661Y-88951863D01*
X133805009Y-88969133D01*
X133787739Y-88984785D01*
X133769019Y-88998669D01*
X133749028Y-89010651D01*
X133727958Y-89020616D01*
X133706014Y-89028468D01*
X133683405Y-89034132D01*
X133660350Y-89037551D01*
X133637071Y-89038695D01*
X133162071Y-89038695D01*
X133138792Y-89037551D01*
X133115737Y-89034132D01*
X133093128Y-89028468D01*
X133071184Y-89020616D01*
X133050114Y-89010651D01*
X133030123Y-88998669D01*
X133011403Y-88984785D01*
X132994133Y-88969133D01*
X132978481Y-88951863D01*
X132964597Y-88933143D01*
X132952615Y-88913152D01*
X132942650Y-88892082D01*
X132934798Y-88870138D01*
X132929134Y-88847529D01*
X132925715Y-88824474D01*
X132924571Y-88801195D01*
X132924571Y-88226195D01*
X132925715Y-88202916D01*
X132929134Y-88179861D01*
X132934798Y-88157252D01*
X132942650Y-88135308D01*
X132952615Y-88114238D01*
X132964597Y-88094247D01*
X132978481Y-88075527D01*
X132994133Y-88058257D01*
X133011403Y-88042605D01*
X133030123Y-88028721D01*
X133050114Y-88016739D01*
X133071184Y-88006774D01*
X133093128Y-87998922D01*
X133115737Y-87993258D01*
X133138792Y-87989839D01*
X133162071Y-87988695D01*
X133637071Y-87988695D01*
X133660350Y-87989839D01*
X133660350Y-87989839D01*
G37*
D14*
G04 #@! TD*
G04 #@! TO.P,C3,1*
G04 #@! TO.N,+3V3*
X133399571Y-88513695D03*
D13*
G04 #@! TO.N,GND*
G04 #@! TO.C,C3*
G36*
X133660350Y-89739839D02*
X133683405Y-89743258D01*
X133706014Y-89748922D01*
X133727958Y-89756774D01*
X133749028Y-89766739D01*
X133769019Y-89778721D01*
X133787739Y-89792605D01*
X133805009Y-89808257D01*
X133820661Y-89825527D01*
X133834545Y-89844247D01*
X133846527Y-89864238D01*
X133856492Y-89885308D01*
X133864344Y-89907252D01*
X133870008Y-89929861D01*
X133873427Y-89952916D01*
X133874571Y-89976195D01*
X133874571Y-90551195D01*
X133873427Y-90574474D01*
X133870008Y-90597529D01*
X133864344Y-90620138D01*
X133856492Y-90642082D01*
X133846527Y-90663152D01*
X133834545Y-90683143D01*
X133820661Y-90701863D01*
X133805009Y-90719133D01*
X133787739Y-90734785D01*
X133769019Y-90748669D01*
X133749028Y-90760651D01*
X133727958Y-90770616D01*
X133706014Y-90778468D01*
X133683405Y-90784132D01*
X133660350Y-90787551D01*
X133637071Y-90788695D01*
X133162071Y-90788695D01*
X133138792Y-90787551D01*
X133115737Y-90784132D01*
X133093128Y-90778468D01*
X133071184Y-90770616D01*
X133050114Y-90760651D01*
X133030123Y-90748669D01*
X133011403Y-90734785D01*
X132994133Y-90719133D01*
X132978481Y-90701863D01*
X132964597Y-90683143D01*
X132952615Y-90663152D01*
X132942650Y-90642082D01*
X132934798Y-90620138D01*
X132929134Y-90597529D01*
X132925715Y-90574474D01*
X132924571Y-90551195D01*
X132924571Y-89976195D01*
X132925715Y-89952916D01*
X132929134Y-89929861D01*
X132934798Y-89907252D01*
X132942650Y-89885308D01*
X132952615Y-89864238D01*
X132964597Y-89844247D01*
X132978481Y-89825527D01*
X132994133Y-89808257D01*
X133011403Y-89792605D01*
X133030123Y-89778721D01*
X133050114Y-89766739D01*
X133071184Y-89756774D01*
X133093128Y-89748922D01*
X133115737Y-89743258D01*
X133138792Y-89739839D01*
X133162071Y-89738695D01*
X133637071Y-89738695D01*
X133660350Y-89739839D01*
X133660350Y-89739839D01*
G37*
D14*
G04 #@! TD*
G04 #@! TO.P,C3,2*
G04 #@! TO.N,GND*
X133399571Y-90263695D03*
D13*
G04 #@! TO.N,GND*
G04 #@! TO.C,C4*
G36*
X133660350Y-82739839D02*
X133683405Y-82743258D01*
X133706014Y-82748922D01*
X133727958Y-82756774D01*
X133749028Y-82766739D01*
X133769019Y-82778721D01*
X133787739Y-82792605D01*
X133805009Y-82808257D01*
X133820661Y-82825527D01*
X133834545Y-82844247D01*
X133846527Y-82864238D01*
X133856492Y-82885308D01*
X133864344Y-82907252D01*
X133870008Y-82929861D01*
X133873427Y-82952916D01*
X133874571Y-82976195D01*
X133874571Y-83551195D01*
X133873427Y-83574474D01*
X133870008Y-83597529D01*
X133864344Y-83620138D01*
X133856492Y-83642082D01*
X133846527Y-83663152D01*
X133834545Y-83683143D01*
X133820661Y-83701863D01*
X133805009Y-83719133D01*
X133787739Y-83734785D01*
X133769019Y-83748669D01*
X133749028Y-83760651D01*
X133727958Y-83770616D01*
X133706014Y-83778468D01*
X133683405Y-83784132D01*
X133660350Y-83787551D01*
X133637071Y-83788695D01*
X133162071Y-83788695D01*
X133138792Y-83787551D01*
X133115737Y-83784132D01*
X133093128Y-83778468D01*
X133071184Y-83770616D01*
X133050114Y-83760651D01*
X133030123Y-83748669D01*
X133011403Y-83734785D01*
X132994133Y-83719133D01*
X132978481Y-83701863D01*
X132964597Y-83683143D01*
X132952615Y-83663152D01*
X132942650Y-83642082D01*
X132934798Y-83620138D01*
X132929134Y-83597529D01*
X132925715Y-83574474D01*
X132924571Y-83551195D01*
X132924571Y-82976195D01*
X132925715Y-82952916D01*
X132929134Y-82929861D01*
X132934798Y-82907252D01*
X132942650Y-82885308D01*
X132952615Y-82864238D01*
X132964597Y-82844247D01*
X132978481Y-82825527D01*
X132994133Y-82808257D01*
X133011403Y-82792605D01*
X133030123Y-82778721D01*
X133050114Y-82766739D01*
X133071184Y-82756774D01*
X133093128Y-82748922D01*
X133115737Y-82743258D01*
X133138792Y-82739839D01*
X133162071Y-82738695D01*
X133637071Y-82738695D01*
X133660350Y-82739839D01*
X133660350Y-82739839D01*
G37*
D14*
G04 #@! TD*
G04 #@! TO.P,C4,2*
G04 #@! TO.N,GND*
X133399571Y-83263695D03*
D13*
G04 #@! TO.N,+3V3*
G04 #@! TO.C,C4*
G36*
X133660350Y-80989839D02*
X133683405Y-80993258D01*
X133706014Y-80998922D01*
X133727958Y-81006774D01*
X133749028Y-81016739D01*
X133769019Y-81028721D01*
X133787739Y-81042605D01*
X133805009Y-81058257D01*
X133820661Y-81075527D01*
X133834545Y-81094247D01*
X133846527Y-81114238D01*
X133856492Y-81135308D01*
X133864344Y-81157252D01*
X133870008Y-81179861D01*
X133873427Y-81202916D01*
X133874571Y-81226195D01*
X133874571Y-81801195D01*
X133873427Y-81824474D01*
X133870008Y-81847529D01*
X133864344Y-81870138D01*
X133856492Y-81892082D01*
X133846527Y-81913152D01*
X133834545Y-81933143D01*
X133820661Y-81951863D01*
X133805009Y-81969133D01*
X133787739Y-81984785D01*
X133769019Y-81998669D01*
X133749028Y-82010651D01*
X133727958Y-82020616D01*
X133706014Y-82028468D01*
X133683405Y-82034132D01*
X133660350Y-82037551D01*
X133637071Y-82038695D01*
X133162071Y-82038695D01*
X133138792Y-82037551D01*
X133115737Y-82034132D01*
X133093128Y-82028468D01*
X133071184Y-82020616D01*
X133050114Y-82010651D01*
X133030123Y-81998669D01*
X133011403Y-81984785D01*
X132994133Y-81969133D01*
X132978481Y-81951863D01*
X132964597Y-81933143D01*
X132952615Y-81913152D01*
X132942650Y-81892082D01*
X132934798Y-81870138D01*
X132929134Y-81847529D01*
X132925715Y-81824474D01*
X132924571Y-81801195D01*
X132924571Y-81226195D01*
X132925715Y-81202916D01*
X132929134Y-81179861D01*
X132934798Y-81157252D01*
X132942650Y-81135308D01*
X132952615Y-81114238D01*
X132964597Y-81094247D01*
X132978481Y-81075527D01*
X132994133Y-81058257D01*
X133011403Y-81042605D01*
X133030123Y-81028721D01*
X133050114Y-81016739D01*
X133071184Y-81006774D01*
X133093128Y-80998922D01*
X133115737Y-80993258D01*
X133138792Y-80989839D01*
X133162071Y-80988695D01*
X133637071Y-80988695D01*
X133660350Y-80989839D01*
X133660350Y-80989839D01*
G37*
D14*
G04 #@! TD*
G04 #@! TO.P,C4,1*
G04 #@! TO.N,+3V3*
X133399571Y-81513695D03*
D13*
G04 #@! TO.N,GND*
G04 #@! TO.C,C9*
G36*
X145010779Y-102546144D02*
X145033834Y-102549563D01*
X145056443Y-102555227D01*
X145078387Y-102563079D01*
X145099457Y-102573044D01*
X145119448Y-102585026D01*
X145138168Y-102598910D01*
X145155438Y-102614562D01*
X145171090Y-102631832D01*
X145184974Y-102650552D01*
X145196956Y-102670543D01*
X145206921Y-102691613D01*
X145214773Y-102713557D01*
X145220437Y-102736166D01*
X145223856Y-102759221D01*
X145225000Y-102782500D01*
X145225000Y-103257500D01*
X145223856Y-103280779D01*
X145220437Y-103303834D01*
X145214773Y-103326443D01*
X145206921Y-103348387D01*
X145196956Y-103369457D01*
X145184974Y-103389448D01*
X145171090Y-103408168D01*
X145155438Y-103425438D01*
X145138168Y-103441090D01*
X145119448Y-103454974D01*
X145099457Y-103466956D01*
X145078387Y-103476921D01*
X145056443Y-103484773D01*
X145033834Y-103490437D01*
X145010779Y-103493856D01*
X144987500Y-103495000D01*
X144412500Y-103495000D01*
X144389221Y-103493856D01*
X144366166Y-103490437D01*
X144343557Y-103484773D01*
X144321613Y-103476921D01*
X144300543Y-103466956D01*
X144280552Y-103454974D01*
X144261832Y-103441090D01*
X144244562Y-103425438D01*
X144228910Y-103408168D01*
X144215026Y-103389448D01*
X144203044Y-103369457D01*
X144193079Y-103348387D01*
X144185227Y-103326443D01*
X144179563Y-103303834D01*
X144176144Y-103280779D01*
X144175000Y-103257500D01*
X144175000Y-102782500D01*
X144176144Y-102759221D01*
X144179563Y-102736166D01*
X144185227Y-102713557D01*
X144193079Y-102691613D01*
X144203044Y-102670543D01*
X144215026Y-102650552D01*
X144228910Y-102631832D01*
X144244562Y-102614562D01*
X144261832Y-102598910D01*
X144280552Y-102585026D01*
X144300543Y-102573044D01*
X144321613Y-102563079D01*
X144343557Y-102555227D01*
X144366166Y-102549563D01*
X144389221Y-102546144D01*
X144412500Y-102545000D01*
X144987500Y-102545000D01*
X145010779Y-102546144D01*
X145010779Y-102546144D01*
G37*
D14*
G04 #@! TD*
G04 #@! TO.P,C9,2*
G04 #@! TO.N,GND*
X144700000Y-103020000D03*
D13*
G04 #@! TO.N,RESET*
G04 #@! TO.C,C9*
G36*
X143260779Y-102546144D02*
X143283834Y-102549563D01*
X143306443Y-102555227D01*
X143328387Y-102563079D01*
X143349457Y-102573044D01*
X143369448Y-102585026D01*
X143388168Y-102598910D01*
X143405438Y-102614562D01*
X143421090Y-102631832D01*
X143434974Y-102650552D01*
X143446956Y-102670543D01*
X143456921Y-102691613D01*
X143464773Y-102713557D01*
X143470437Y-102736166D01*
X143473856Y-102759221D01*
X143475000Y-102782500D01*
X143475000Y-103257500D01*
X143473856Y-103280779D01*
X143470437Y-103303834D01*
X143464773Y-103326443D01*
X143456921Y-103348387D01*
X143446956Y-103369457D01*
X143434974Y-103389448D01*
X143421090Y-103408168D01*
X143405438Y-103425438D01*
X143388168Y-103441090D01*
X143369448Y-103454974D01*
X143349457Y-103466956D01*
X143328387Y-103476921D01*
X143306443Y-103484773D01*
X143283834Y-103490437D01*
X143260779Y-103493856D01*
X143237500Y-103495000D01*
X142662500Y-103495000D01*
X142639221Y-103493856D01*
X142616166Y-103490437D01*
X142593557Y-103484773D01*
X142571613Y-103476921D01*
X142550543Y-103466956D01*
X142530552Y-103454974D01*
X142511832Y-103441090D01*
X142494562Y-103425438D01*
X142478910Y-103408168D01*
X142465026Y-103389448D01*
X142453044Y-103369457D01*
X142443079Y-103348387D01*
X142435227Y-103326443D01*
X142429563Y-103303834D01*
X142426144Y-103280779D01*
X142425000Y-103257500D01*
X142425000Y-102782500D01*
X142426144Y-102759221D01*
X142429563Y-102736166D01*
X142435227Y-102713557D01*
X142443079Y-102691613D01*
X142453044Y-102670543D01*
X142465026Y-102650552D01*
X142478910Y-102631832D01*
X142494562Y-102614562D01*
X142511832Y-102598910D01*
X142530552Y-102585026D01*
X142550543Y-102573044D01*
X142571613Y-102563079D01*
X142593557Y-102555227D01*
X142616166Y-102549563D01*
X142639221Y-102546144D01*
X142662500Y-102545000D01*
X143237500Y-102545000D01*
X143260779Y-102546144D01*
X143260779Y-102546144D01*
G37*
D14*
G04 #@! TD*
G04 #@! TO.P,C9,1*
G04 #@! TO.N,RESET*
X142950000Y-103020000D03*
D13*
G04 #@! TO.N,+3V3*
G04 #@! TO.C,C16*
G36*
X144376938Y-76589247D02*
X144399993Y-76592666D01*
X144422602Y-76598330D01*
X144444546Y-76606182D01*
X144465616Y-76616147D01*
X144485607Y-76628129D01*
X144504327Y-76642013D01*
X144521597Y-76657665D01*
X144537249Y-76674935D01*
X144551133Y-76693655D01*
X144563115Y-76713646D01*
X144573080Y-76734716D01*
X144580932Y-76756660D01*
X144586596Y-76779269D01*
X144590015Y-76802324D01*
X144591159Y-76825603D01*
X144591159Y-77300603D01*
X144590015Y-77323882D01*
X144586596Y-77346937D01*
X144580932Y-77369546D01*
X144573080Y-77391490D01*
X144563115Y-77412560D01*
X144551133Y-77432551D01*
X144537249Y-77451271D01*
X144521597Y-77468541D01*
X144504327Y-77484193D01*
X144485607Y-77498077D01*
X144465616Y-77510059D01*
X144444546Y-77520024D01*
X144422602Y-77527876D01*
X144399993Y-77533540D01*
X144376938Y-77536959D01*
X144353659Y-77538103D01*
X143778659Y-77538103D01*
X143755380Y-77536959D01*
X143732325Y-77533540D01*
X143709716Y-77527876D01*
X143687772Y-77520024D01*
X143666702Y-77510059D01*
X143646711Y-77498077D01*
X143627991Y-77484193D01*
X143610721Y-77468541D01*
X143595069Y-77451271D01*
X143581185Y-77432551D01*
X143569203Y-77412560D01*
X143559238Y-77391490D01*
X143551386Y-77369546D01*
X143545722Y-77346937D01*
X143542303Y-77323882D01*
X143541159Y-77300603D01*
X143541159Y-76825603D01*
X143542303Y-76802324D01*
X143545722Y-76779269D01*
X143551386Y-76756660D01*
X143559238Y-76734716D01*
X143569203Y-76713646D01*
X143581185Y-76693655D01*
X143595069Y-76674935D01*
X143610721Y-76657665D01*
X143627991Y-76642013D01*
X143646711Y-76628129D01*
X143666702Y-76616147D01*
X143687772Y-76606182D01*
X143709716Y-76598330D01*
X143732325Y-76592666D01*
X143755380Y-76589247D01*
X143778659Y-76588103D01*
X144353659Y-76588103D01*
X144376938Y-76589247D01*
X144376938Y-76589247D01*
G37*
D14*
G04 #@! TD*
G04 #@! TO.P,C16,1*
G04 #@! TO.N,+3V3*
X144066159Y-77063103D03*
D13*
G04 #@! TO.N,GND*
G04 #@! TO.C,C16*
G36*
X142626938Y-76589247D02*
X142649993Y-76592666D01*
X142672602Y-76598330D01*
X142694546Y-76606182D01*
X142715616Y-76616147D01*
X142735607Y-76628129D01*
X142754327Y-76642013D01*
X142771597Y-76657665D01*
X142787249Y-76674935D01*
X142801133Y-76693655D01*
X142813115Y-76713646D01*
X142823080Y-76734716D01*
X142830932Y-76756660D01*
X142836596Y-76779269D01*
X142840015Y-76802324D01*
X142841159Y-76825603D01*
X142841159Y-77300603D01*
X142840015Y-77323882D01*
X142836596Y-77346937D01*
X142830932Y-77369546D01*
X142823080Y-77391490D01*
X142813115Y-77412560D01*
X142801133Y-77432551D01*
X142787249Y-77451271D01*
X142771597Y-77468541D01*
X142754327Y-77484193D01*
X142735607Y-77498077D01*
X142715616Y-77510059D01*
X142694546Y-77520024D01*
X142672602Y-77527876D01*
X142649993Y-77533540D01*
X142626938Y-77536959D01*
X142603659Y-77538103D01*
X142028659Y-77538103D01*
X142005380Y-77536959D01*
X141982325Y-77533540D01*
X141959716Y-77527876D01*
X141937772Y-77520024D01*
X141916702Y-77510059D01*
X141896711Y-77498077D01*
X141877991Y-77484193D01*
X141860721Y-77468541D01*
X141845069Y-77451271D01*
X141831185Y-77432551D01*
X141819203Y-77412560D01*
X141809238Y-77391490D01*
X141801386Y-77369546D01*
X141795722Y-77346937D01*
X141792303Y-77323882D01*
X141791159Y-77300603D01*
X141791159Y-76825603D01*
X141792303Y-76802324D01*
X141795722Y-76779269D01*
X141801386Y-76756660D01*
X141809238Y-76734716D01*
X141819203Y-76713646D01*
X141831185Y-76693655D01*
X141845069Y-76674935D01*
X141860721Y-76657665D01*
X141877991Y-76642013D01*
X141896711Y-76628129D01*
X141916702Y-76616147D01*
X141937772Y-76606182D01*
X141959716Y-76598330D01*
X141982325Y-76592666D01*
X142005380Y-76589247D01*
X142028659Y-76588103D01*
X142603659Y-76588103D01*
X142626938Y-76589247D01*
X142626938Y-76589247D01*
G37*
D14*
G04 #@! TD*
G04 #@! TO.P,C16,2*
G04 #@! TO.N,GND*
X142316159Y-77063103D03*
D13*
G04 #@! TO.N,GND*
G04 #@! TO.C,C17*
G36*
X137376938Y-76589247D02*
X137399993Y-76592666D01*
X137422602Y-76598330D01*
X137444546Y-76606182D01*
X137465616Y-76616147D01*
X137485607Y-76628129D01*
X137504327Y-76642013D01*
X137521597Y-76657665D01*
X137537249Y-76674935D01*
X137551133Y-76693655D01*
X137563115Y-76713646D01*
X137573080Y-76734716D01*
X137580932Y-76756660D01*
X137586596Y-76779269D01*
X137590015Y-76802324D01*
X137591159Y-76825603D01*
X137591159Y-77300603D01*
X137590015Y-77323882D01*
X137586596Y-77346937D01*
X137580932Y-77369546D01*
X137573080Y-77391490D01*
X137563115Y-77412560D01*
X137551133Y-77432551D01*
X137537249Y-77451271D01*
X137521597Y-77468541D01*
X137504327Y-77484193D01*
X137485607Y-77498077D01*
X137465616Y-77510059D01*
X137444546Y-77520024D01*
X137422602Y-77527876D01*
X137399993Y-77533540D01*
X137376938Y-77536959D01*
X137353659Y-77538103D01*
X136778659Y-77538103D01*
X136755380Y-77536959D01*
X136732325Y-77533540D01*
X136709716Y-77527876D01*
X136687772Y-77520024D01*
X136666702Y-77510059D01*
X136646711Y-77498077D01*
X136627991Y-77484193D01*
X136610721Y-77468541D01*
X136595069Y-77451271D01*
X136581185Y-77432551D01*
X136569203Y-77412560D01*
X136559238Y-77391490D01*
X136551386Y-77369546D01*
X136545722Y-77346937D01*
X136542303Y-77323882D01*
X136541159Y-77300603D01*
X136541159Y-76825603D01*
X136542303Y-76802324D01*
X136545722Y-76779269D01*
X136551386Y-76756660D01*
X136559238Y-76734716D01*
X136569203Y-76713646D01*
X136581185Y-76693655D01*
X136595069Y-76674935D01*
X136610721Y-76657665D01*
X136627991Y-76642013D01*
X136646711Y-76628129D01*
X136666702Y-76616147D01*
X136687772Y-76606182D01*
X136709716Y-76598330D01*
X136732325Y-76592666D01*
X136755380Y-76589247D01*
X136778659Y-76588103D01*
X137353659Y-76588103D01*
X137376938Y-76589247D01*
X137376938Y-76589247D01*
G37*
D14*
G04 #@! TD*
G04 #@! TO.P,C17,2*
G04 #@! TO.N,GND*
X137066159Y-77063103D03*
D13*
G04 #@! TO.N,+3V3*
G04 #@! TO.C,C17*
G36*
X139126938Y-76589247D02*
X139149993Y-76592666D01*
X139172602Y-76598330D01*
X139194546Y-76606182D01*
X139215616Y-76616147D01*
X139235607Y-76628129D01*
X139254327Y-76642013D01*
X139271597Y-76657665D01*
X139287249Y-76674935D01*
X139301133Y-76693655D01*
X139313115Y-76713646D01*
X139323080Y-76734716D01*
X139330932Y-76756660D01*
X139336596Y-76779269D01*
X139340015Y-76802324D01*
X139341159Y-76825603D01*
X139341159Y-77300603D01*
X139340015Y-77323882D01*
X139336596Y-77346937D01*
X139330932Y-77369546D01*
X139323080Y-77391490D01*
X139313115Y-77412560D01*
X139301133Y-77432551D01*
X139287249Y-77451271D01*
X139271597Y-77468541D01*
X139254327Y-77484193D01*
X139235607Y-77498077D01*
X139215616Y-77510059D01*
X139194546Y-77520024D01*
X139172602Y-77527876D01*
X139149993Y-77533540D01*
X139126938Y-77536959D01*
X139103659Y-77538103D01*
X138528659Y-77538103D01*
X138505380Y-77536959D01*
X138482325Y-77533540D01*
X138459716Y-77527876D01*
X138437772Y-77520024D01*
X138416702Y-77510059D01*
X138396711Y-77498077D01*
X138377991Y-77484193D01*
X138360721Y-77468541D01*
X138345069Y-77451271D01*
X138331185Y-77432551D01*
X138319203Y-77412560D01*
X138309238Y-77391490D01*
X138301386Y-77369546D01*
X138295722Y-77346937D01*
X138292303Y-77323882D01*
X138291159Y-77300603D01*
X138291159Y-76825603D01*
X138292303Y-76802324D01*
X138295722Y-76779269D01*
X138301386Y-76756660D01*
X138309238Y-76734716D01*
X138319203Y-76713646D01*
X138331185Y-76693655D01*
X138345069Y-76674935D01*
X138360721Y-76657665D01*
X138377991Y-76642013D01*
X138396711Y-76628129D01*
X138416702Y-76616147D01*
X138437772Y-76606182D01*
X138459716Y-76598330D01*
X138482325Y-76592666D01*
X138505380Y-76589247D01*
X138528659Y-76588103D01*
X139103659Y-76588103D01*
X139126938Y-76589247D01*
X139126938Y-76589247D01*
G37*
D14*
G04 #@! TD*
G04 #@! TO.P,C17,1*
G04 #@! TO.N,+3V3*
X138816159Y-77063103D03*
D15*
G04 #@! TO.P,J1,10*
G04 #@! TO.N,BT_RST*
X157264000Y-92752000D03*
G04 #@! TO.P,J1,9*
G04 #@! TO.N,BT_SWDIO*
X156264000Y-92752000D03*
G04 #@! TO.P,J1,8*
G04 #@! TO.N,BT_SWCLK*
X157264000Y-91752000D03*
G04 #@! TO.P,J1,7*
G04 #@! TO.N,SWDIO*
X156264000Y-91752000D03*
G04 #@! TO.P,J1,6*
G04 #@! TO.N,RESET*
X157264000Y-90752000D03*
G04 #@! TO.P,J1,5*
G04 #@! TO.N,SWCLK*
X156264000Y-90752000D03*
G04 #@! TO.P,J1,4*
G04 #@! TO.N,BT_TX*
X157264000Y-89752000D03*
G04 #@! TO.P,J1,3*
G04 #@! TO.N,USART_2_RX*
X156264000Y-89752000D03*
G04 #@! TO.P,J1,2*
G04 #@! TO.N,BT_RX*
X157264000Y-88752000D03*
D16*
G04 #@! TO.P,J1,1*
G04 #@! TO.N,USART_2_TX*
X156264000Y-88752000D03*
G04 #@! TD*
G04 #@! TO.P,J3,1*
G04 #@! TO.N,GND*
X157312740Y-78814132D03*
D15*
G04 #@! TO.P,J3,2*
G04 #@! TO.N,ADDR_LED_PANEL_1_PWM*
X156312740Y-78814132D03*
G04 #@! TO.P,J3,3*
G04 #@! TO.N,+5V*
X157312740Y-77814132D03*
G04 #@! TO.P,J3,4*
G04 #@! TO.N,GND*
X156312740Y-77814132D03*
G04 #@! TD*
G04 #@! TO.P,J4,4*
G04 #@! TO.N,TEST_GPIO2*
X157264000Y-83910000D03*
G04 #@! TO.P,J4,3*
G04 #@! TO.N,TEST_GPIO0*
X156264000Y-83910000D03*
G04 #@! TO.P,J4,2*
G04 #@! TO.N,ADDR_LED_BACKUP_PWM*
X157264000Y-82910000D03*
D16*
G04 #@! TO.P,J4,1*
G04 #@! TO.N,TEST_GPIO1*
X156264000Y-82910000D03*
G04 #@! TD*
D13*
G04 #@! TO.N,GND*
G04 #@! TO.C,R5*
G36*
X150224779Y-82690144D02*
X150247834Y-82693563D01*
X150270443Y-82699227D01*
X150292387Y-82707079D01*
X150313457Y-82717044D01*
X150333448Y-82729026D01*
X150352168Y-82742910D01*
X150369438Y-82758562D01*
X150385090Y-82775832D01*
X150398974Y-82794552D01*
X150410956Y-82814543D01*
X150420921Y-82835613D01*
X150428773Y-82857557D01*
X150434437Y-82880166D01*
X150437856Y-82903221D01*
X150439000Y-82926500D01*
X150439000Y-83401500D01*
X150437856Y-83424779D01*
X150434437Y-83447834D01*
X150428773Y-83470443D01*
X150420921Y-83492387D01*
X150410956Y-83513457D01*
X150398974Y-83533448D01*
X150385090Y-83552168D01*
X150369438Y-83569438D01*
X150352168Y-83585090D01*
X150333448Y-83598974D01*
X150313457Y-83610956D01*
X150292387Y-83620921D01*
X150270443Y-83628773D01*
X150247834Y-83634437D01*
X150224779Y-83637856D01*
X150201500Y-83639000D01*
X149626500Y-83639000D01*
X149603221Y-83637856D01*
X149580166Y-83634437D01*
X149557557Y-83628773D01*
X149535613Y-83620921D01*
X149514543Y-83610956D01*
X149494552Y-83598974D01*
X149475832Y-83585090D01*
X149458562Y-83569438D01*
X149442910Y-83552168D01*
X149429026Y-83533448D01*
X149417044Y-83513457D01*
X149407079Y-83492387D01*
X149399227Y-83470443D01*
X149393563Y-83447834D01*
X149390144Y-83424779D01*
X149389000Y-83401500D01*
X149389000Y-82926500D01*
X149390144Y-82903221D01*
X149393563Y-82880166D01*
X149399227Y-82857557D01*
X149407079Y-82835613D01*
X149417044Y-82814543D01*
X149429026Y-82794552D01*
X149442910Y-82775832D01*
X149458562Y-82758562D01*
X149475832Y-82742910D01*
X149494552Y-82729026D01*
X149514543Y-82717044D01*
X149535613Y-82707079D01*
X149557557Y-82699227D01*
X149580166Y-82693563D01*
X149603221Y-82690144D01*
X149626500Y-82689000D01*
X150201500Y-82689000D01*
X150224779Y-82690144D01*
X150224779Y-82690144D01*
G37*
D14*
G04 #@! TD*
G04 #@! TO.P,R5,2*
G04 #@! TO.N,GND*
X149914000Y-83164000D03*
D13*
G04 #@! TO.N,Net-(R5-Pad1)*
G04 #@! TO.C,R5*
G36*
X148474779Y-82690144D02*
X148497834Y-82693563D01*
X148520443Y-82699227D01*
X148542387Y-82707079D01*
X148563457Y-82717044D01*
X148583448Y-82729026D01*
X148602168Y-82742910D01*
X148619438Y-82758562D01*
X148635090Y-82775832D01*
X148648974Y-82794552D01*
X148660956Y-82814543D01*
X148670921Y-82835613D01*
X148678773Y-82857557D01*
X148684437Y-82880166D01*
X148687856Y-82903221D01*
X148689000Y-82926500D01*
X148689000Y-83401500D01*
X148687856Y-83424779D01*
X148684437Y-83447834D01*
X148678773Y-83470443D01*
X148670921Y-83492387D01*
X148660956Y-83513457D01*
X148648974Y-83533448D01*
X148635090Y-83552168D01*
X148619438Y-83569438D01*
X148602168Y-83585090D01*
X148583448Y-83598974D01*
X148563457Y-83610956D01*
X148542387Y-83620921D01*
X148520443Y-83628773D01*
X148497834Y-83634437D01*
X148474779Y-83637856D01*
X148451500Y-83639000D01*
X147876500Y-83639000D01*
X147853221Y-83637856D01*
X147830166Y-83634437D01*
X147807557Y-83628773D01*
X147785613Y-83620921D01*
X147764543Y-83610956D01*
X147744552Y-83598974D01*
X147725832Y-83585090D01*
X147708562Y-83569438D01*
X147692910Y-83552168D01*
X147679026Y-83533448D01*
X147667044Y-83513457D01*
X147657079Y-83492387D01*
X147649227Y-83470443D01*
X147643563Y-83447834D01*
X147640144Y-83424779D01*
X147639000Y-83401500D01*
X147639000Y-82926500D01*
X147640144Y-82903221D01*
X147643563Y-82880166D01*
X147649227Y-82857557D01*
X147657079Y-82835613D01*
X147667044Y-82814543D01*
X147679026Y-82794552D01*
X147692910Y-82775832D01*
X147708562Y-82758562D01*
X147725832Y-82742910D01*
X147744552Y-82729026D01*
X147764543Y-82717044D01*
X147785613Y-82707079D01*
X147807557Y-82699227D01*
X147830166Y-82693563D01*
X147853221Y-82690144D01*
X147876500Y-82689000D01*
X148451500Y-82689000D01*
X148474779Y-82690144D01*
X148474779Y-82690144D01*
G37*
D14*
G04 #@! TD*
G04 #@! TO.P,R5,1*
G04 #@! TO.N,Net-(R5-Pad1)*
X148164000Y-83164000D03*
D13*
G04 #@! TO.N,+3V3*
G04 #@! TO.C,R10*
G36*
X143370350Y-93979839D02*
X143393405Y-93983258D01*
X143416014Y-93988922D01*
X143437958Y-93996774D01*
X143459028Y-94006739D01*
X143479019Y-94018721D01*
X143497739Y-94032605D01*
X143515009Y-94048257D01*
X143530661Y-94065527D01*
X143544545Y-94084247D01*
X143556527Y-94104238D01*
X143566492Y-94125308D01*
X143574344Y-94147252D01*
X143580008Y-94169861D01*
X143583427Y-94192916D01*
X143584571Y-94216195D01*
X143584571Y-94791195D01*
X143583427Y-94814474D01*
X143580008Y-94837529D01*
X143574344Y-94860138D01*
X143566492Y-94882082D01*
X143556527Y-94903152D01*
X143544545Y-94923143D01*
X143530661Y-94941863D01*
X143515009Y-94959133D01*
X143497739Y-94974785D01*
X143479019Y-94988669D01*
X143459028Y-95000651D01*
X143437958Y-95010616D01*
X143416014Y-95018468D01*
X143393405Y-95024132D01*
X143370350Y-95027551D01*
X143347071Y-95028695D01*
X142872071Y-95028695D01*
X142848792Y-95027551D01*
X142825737Y-95024132D01*
X142803128Y-95018468D01*
X142781184Y-95010616D01*
X142760114Y-95000651D01*
X142740123Y-94988669D01*
X142721403Y-94974785D01*
X142704133Y-94959133D01*
X142688481Y-94941863D01*
X142674597Y-94923143D01*
X142662615Y-94903152D01*
X142652650Y-94882082D01*
X142644798Y-94860138D01*
X142639134Y-94837529D01*
X142635715Y-94814474D01*
X142634571Y-94791195D01*
X142634571Y-94216195D01*
X142635715Y-94192916D01*
X142639134Y-94169861D01*
X142644798Y-94147252D01*
X142652650Y-94125308D01*
X142662615Y-94104238D01*
X142674597Y-94084247D01*
X142688481Y-94065527D01*
X142704133Y-94048257D01*
X142721403Y-94032605D01*
X142740123Y-94018721D01*
X142760114Y-94006739D01*
X142781184Y-93996774D01*
X142803128Y-93988922D01*
X142825737Y-93983258D01*
X142848792Y-93979839D01*
X142872071Y-93978695D01*
X143347071Y-93978695D01*
X143370350Y-93979839D01*
X143370350Y-93979839D01*
G37*
D14*
G04 #@! TD*
G04 #@! TO.P,R10,1*
G04 #@! TO.N,+3V3*
X143109571Y-94503695D03*
D13*
G04 #@! TO.N,I2C1_SDA*
G04 #@! TO.C,R10*
G36*
X143370350Y-92229839D02*
X143393405Y-92233258D01*
X143416014Y-92238922D01*
X143437958Y-92246774D01*
X143459028Y-92256739D01*
X143479019Y-92268721D01*
X143497739Y-92282605D01*
X143515009Y-92298257D01*
X143530661Y-92315527D01*
X143544545Y-92334247D01*
X143556527Y-92354238D01*
X143566492Y-92375308D01*
X143574344Y-92397252D01*
X143580008Y-92419861D01*
X143583427Y-92442916D01*
X143584571Y-92466195D01*
X143584571Y-93041195D01*
X143583427Y-93064474D01*
X143580008Y-93087529D01*
X143574344Y-93110138D01*
X143566492Y-93132082D01*
X143556527Y-93153152D01*
X143544545Y-93173143D01*
X143530661Y-93191863D01*
X143515009Y-93209133D01*
X143497739Y-93224785D01*
X143479019Y-93238669D01*
X143459028Y-93250651D01*
X143437958Y-93260616D01*
X143416014Y-93268468D01*
X143393405Y-93274132D01*
X143370350Y-93277551D01*
X143347071Y-93278695D01*
X142872071Y-93278695D01*
X142848792Y-93277551D01*
X142825737Y-93274132D01*
X142803128Y-93268468D01*
X142781184Y-93260616D01*
X142760114Y-93250651D01*
X142740123Y-93238669D01*
X142721403Y-93224785D01*
X142704133Y-93209133D01*
X142688481Y-93191863D01*
X142674597Y-93173143D01*
X142662615Y-93153152D01*
X142652650Y-93132082D01*
X142644798Y-93110138D01*
X142639134Y-93087529D01*
X142635715Y-93064474D01*
X142634571Y-93041195D01*
X142634571Y-92466195D01*
X142635715Y-92442916D01*
X142639134Y-92419861D01*
X142644798Y-92397252D01*
X142652650Y-92375308D01*
X142662615Y-92354238D01*
X142674597Y-92334247D01*
X142688481Y-92315527D01*
X142704133Y-92298257D01*
X142721403Y-92282605D01*
X142740123Y-92268721D01*
X142760114Y-92256739D01*
X142781184Y-92246774D01*
X142803128Y-92238922D01*
X142825737Y-92233258D01*
X142848792Y-92229839D01*
X142872071Y-92228695D01*
X143347071Y-92228695D01*
X143370350Y-92229839D01*
X143370350Y-92229839D01*
G37*
D14*
G04 #@! TD*
G04 #@! TO.P,R10,2*
G04 #@! TO.N,I2C1_SDA*
X143109571Y-92753695D03*
D13*
G04 #@! TO.N,+3V3*
G04 #@! TO.C,R11*
G36*
X141770350Y-93979839D02*
X141793405Y-93983258D01*
X141816014Y-93988922D01*
X141837958Y-93996774D01*
X141859028Y-94006739D01*
X141879019Y-94018721D01*
X141897739Y-94032605D01*
X141915009Y-94048257D01*
X141930661Y-94065527D01*
X141944545Y-94084247D01*
X141956527Y-94104238D01*
X141966492Y-94125308D01*
X141974344Y-94147252D01*
X141980008Y-94169861D01*
X141983427Y-94192916D01*
X141984571Y-94216195D01*
X141984571Y-94791195D01*
X141983427Y-94814474D01*
X141980008Y-94837529D01*
X141974344Y-94860138D01*
X141966492Y-94882082D01*
X141956527Y-94903152D01*
X141944545Y-94923143D01*
X141930661Y-94941863D01*
X141915009Y-94959133D01*
X141897739Y-94974785D01*
X141879019Y-94988669D01*
X141859028Y-95000651D01*
X141837958Y-95010616D01*
X141816014Y-95018468D01*
X141793405Y-95024132D01*
X141770350Y-95027551D01*
X141747071Y-95028695D01*
X141272071Y-95028695D01*
X141248792Y-95027551D01*
X141225737Y-95024132D01*
X141203128Y-95018468D01*
X141181184Y-95010616D01*
X141160114Y-95000651D01*
X141140123Y-94988669D01*
X141121403Y-94974785D01*
X141104133Y-94959133D01*
X141088481Y-94941863D01*
X141074597Y-94923143D01*
X141062615Y-94903152D01*
X141052650Y-94882082D01*
X141044798Y-94860138D01*
X141039134Y-94837529D01*
X141035715Y-94814474D01*
X141034571Y-94791195D01*
X141034571Y-94216195D01*
X141035715Y-94192916D01*
X141039134Y-94169861D01*
X141044798Y-94147252D01*
X141052650Y-94125308D01*
X141062615Y-94104238D01*
X141074597Y-94084247D01*
X141088481Y-94065527D01*
X141104133Y-94048257D01*
X141121403Y-94032605D01*
X141140123Y-94018721D01*
X141160114Y-94006739D01*
X141181184Y-93996774D01*
X141203128Y-93988922D01*
X141225737Y-93983258D01*
X141248792Y-93979839D01*
X141272071Y-93978695D01*
X141747071Y-93978695D01*
X141770350Y-93979839D01*
X141770350Y-93979839D01*
G37*
D14*
G04 #@! TD*
G04 #@! TO.P,R11,1*
G04 #@! TO.N,+3V3*
X141509571Y-94503695D03*
D13*
G04 #@! TO.N,I2C1_SCL*
G04 #@! TO.C,R11*
G36*
X141770350Y-92229839D02*
X141793405Y-92233258D01*
X141816014Y-92238922D01*
X141837958Y-92246774D01*
X141859028Y-92256739D01*
X141879019Y-92268721D01*
X141897739Y-92282605D01*
X141915009Y-92298257D01*
X141930661Y-92315527D01*
X141944545Y-92334247D01*
X141956527Y-92354238D01*
X141966492Y-92375308D01*
X141974344Y-92397252D01*
X141980008Y-92419861D01*
X141983427Y-92442916D01*
X141984571Y-92466195D01*
X141984571Y-93041195D01*
X141983427Y-93064474D01*
X141980008Y-93087529D01*
X141974344Y-93110138D01*
X141966492Y-93132082D01*
X141956527Y-93153152D01*
X141944545Y-93173143D01*
X141930661Y-93191863D01*
X141915009Y-93209133D01*
X141897739Y-93224785D01*
X141879019Y-93238669D01*
X141859028Y-93250651D01*
X141837958Y-93260616D01*
X141816014Y-93268468D01*
X141793405Y-93274132D01*
X141770350Y-93277551D01*
X141747071Y-93278695D01*
X141272071Y-93278695D01*
X141248792Y-93277551D01*
X141225737Y-93274132D01*
X141203128Y-93268468D01*
X141181184Y-93260616D01*
X141160114Y-93250651D01*
X141140123Y-93238669D01*
X141121403Y-93224785D01*
X141104133Y-93209133D01*
X141088481Y-93191863D01*
X141074597Y-93173143D01*
X141062615Y-93153152D01*
X141052650Y-93132082D01*
X141044798Y-93110138D01*
X141039134Y-93087529D01*
X141035715Y-93064474D01*
X141034571Y-93041195D01*
X141034571Y-92466195D01*
X141035715Y-92442916D01*
X141039134Y-92419861D01*
X141044798Y-92397252D01*
X141052650Y-92375308D01*
X141062615Y-92354238D01*
X141074597Y-92334247D01*
X141088481Y-92315527D01*
X141104133Y-92298257D01*
X141121403Y-92282605D01*
X141140123Y-92268721D01*
X141160114Y-92256739D01*
X141181184Y-92246774D01*
X141203128Y-92238922D01*
X141225737Y-92233258D01*
X141248792Y-92229839D01*
X141272071Y-92228695D01*
X141747071Y-92228695D01*
X141770350Y-92229839D01*
X141770350Y-92229839D01*
G37*
D14*
G04 #@! TD*
G04 #@! TO.P,R11,2*
G04 #@! TO.N,I2C1_SCL*
X141509571Y-92753695D03*
D13*
G04 #@! TO.N,+3V3*
G04 #@! TO.C,R12*
G36*
X131792405Y-89733310D02*
X131815460Y-89736729D01*
X131838069Y-89742393D01*
X131860013Y-89750245D01*
X131881083Y-89760210D01*
X131901074Y-89772192D01*
X131919794Y-89786076D01*
X131937064Y-89801728D01*
X131952716Y-89818998D01*
X131966600Y-89837718D01*
X131978582Y-89857709D01*
X131988547Y-89878779D01*
X131996399Y-89900723D01*
X132002063Y-89923332D01*
X132005482Y-89946387D01*
X132006626Y-89969666D01*
X132006626Y-90544666D01*
X132005482Y-90567945D01*
X132002063Y-90591000D01*
X131996399Y-90613609D01*
X131988547Y-90635553D01*
X131978582Y-90656623D01*
X131966600Y-90676614D01*
X131952716Y-90695334D01*
X131937064Y-90712604D01*
X131919794Y-90728256D01*
X131901074Y-90742140D01*
X131881083Y-90754122D01*
X131860013Y-90764087D01*
X131838069Y-90771939D01*
X131815460Y-90777603D01*
X131792405Y-90781022D01*
X131769126Y-90782166D01*
X131294126Y-90782166D01*
X131270847Y-90781022D01*
X131247792Y-90777603D01*
X131225183Y-90771939D01*
X131203239Y-90764087D01*
X131182169Y-90754122D01*
X131162178Y-90742140D01*
X131143458Y-90728256D01*
X131126188Y-90712604D01*
X131110536Y-90695334D01*
X131096652Y-90676614D01*
X131084670Y-90656623D01*
X131074705Y-90635553D01*
X131066853Y-90613609D01*
X131061189Y-90591000D01*
X131057770Y-90567945D01*
X131056626Y-90544666D01*
X131056626Y-89969666D01*
X131057770Y-89946387D01*
X131061189Y-89923332D01*
X131066853Y-89900723D01*
X131074705Y-89878779D01*
X131084670Y-89857709D01*
X131096652Y-89837718D01*
X131110536Y-89818998D01*
X131126188Y-89801728D01*
X131143458Y-89786076D01*
X131162178Y-89772192D01*
X131182169Y-89760210D01*
X131203239Y-89750245D01*
X131225183Y-89742393D01*
X131247792Y-89736729D01*
X131270847Y-89733310D01*
X131294126Y-89732166D01*
X131769126Y-89732166D01*
X131792405Y-89733310D01*
X131792405Y-89733310D01*
G37*
D14*
G04 #@! TD*
G04 #@! TO.P,R12,1*
G04 #@! TO.N,+3V3*
X131531626Y-90257166D03*
D13*
G04 #@! TO.N,I2C2_SDA*
G04 #@! TO.C,R12*
G36*
X131792405Y-87983310D02*
X131815460Y-87986729D01*
X131838069Y-87992393D01*
X131860013Y-88000245D01*
X131881083Y-88010210D01*
X131901074Y-88022192D01*
X131919794Y-88036076D01*
X131937064Y-88051728D01*
X131952716Y-88068998D01*
X131966600Y-88087718D01*
X131978582Y-88107709D01*
X131988547Y-88128779D01*
X131996399Y-88150723D01*
X132002063Y-88173332D01*
X132005482Y-88196387D01*
X132006626Y-88219666D01*
X132006626Y-88794666D01*
X132005482Y-88817945D01*
X132002063Y-88841000D01*
X131996399Y-88863609D01*
X131988547Y-88885553D01*
X131978582Y-88906623D01*
X131966600Y-88926614D01*
X131952716Y-88945334D01*
X131937064Y-88962604D01*
X131919794Y-88978256D01*
X131901074Y-88992140D01*
X131881083Y-89004122D01*
X131860013Y-89014087D01*
X131838069Y-89021939D01*
X131815460Y-89027603D01*
X131792405Y-89031022D01*
X131769126Y-89032166D01*
X131294126Y-89032166D01*
X131270847Y-89031022D01*
X131247792Y-89027603D01*
X131225183Y-89021939D01*
X131203239Y-89014087D01*
X131182169Y-89004122D01*
X131162178Y-88992140D01*
X131143458Y-88978256D01*
X131126188Y-88962604D01*
X131110536Y-88945334D01*
X131096652Y-88926614D01*
X131084670Y-88906623D01*
X131074705Y-88885553D01*
X131066853Y-88863609D01*
X131061189Y-88841000D01*
X131057770Y-88817945D01*
X131056626Y-88794666D01*
X131056626Y-88219666D01*
X131057770Y-88196387D01*
X131061189Y-88173332D01*
X131066853Y-88150723D01*
X131074705Y-88128779D01*
X131084670Y-88107709D01*
X131096652Y-88087718D01*
X131110536Y-88068998D01*
X131126188Y-88051728D01*
X131143458Y-88036076D01*
X131162178Y-88022192D01*
X131182169Y-88010210D01*
X131203239Y-88000245D01*
X131225183Y-87992393D01*
X131247792Y-87986729D01*
X131270847Y-87983310D01*
X131294126Y-87982166D01*
X131769126Y-87982166D01*
X131792405Y-87983310D01*
X131792405Y-87983310D01*
G37*
D14*
G04 #@! TD*
G04 #@! TO.P,R12,2*
G04 #@! TO.N,I2C2_SDA*
X131531626Y-88507166D03*
D13*
G04 #@! TO.N,+3V3*
G04 #@! TO.C,R13*
G36*
X132140350Y-92499839D02*
X132163405Y-92503258D01*
X132186014Y-92508922D01*
X132207958Y-92516774D01*
X132229028Y-92526739D01*
X132249019Y-92538721D01*
X132267739Y-92552605D01*
X132285009Y-92568257D01*
X132300661Y-92585527D01*
X132314545Y-92604247D01*
X132326527Y-92624238D01*
X132336492Y-92645308D01*
X132344344Y-92667252D01*
X132350008Y-92689861D01*
X132353427Y-92712916D01*
X132354571Y-92736195D01*
X132354571Y-93211195D01*
X132353427Y-93234474D01*
X132350008Y-93257529D01*
X132344344Y-93280138D01*
X132336492Y-93302082D01*
X132326527Y-93323152D01*
X132314545Y-93343143D01*
X132300661Y-93361863D01*
X132285009Y-93379133D01*
X132267739Y-93394785D01*
X132249019Y-93408669D01*
X132229028Y-93420651D01*
X132207958Y-93430616D01*
X132186014Y-93438468D01*
X132163405Y-93444132D01*
X132140350Y-93447551D01*
X132117071Y-93448695D01*
X131542071Y-93448695D01*
X131518792Y-93447551D01*
X131495737Y-93444132D01*
X131473128Y-93438468D01*
X131451184Y-93430616D01*
X131430114Y-93420651D01*
X131410123Y-93408669D01*
X131391403Y-93394785D01*
X131374133Y-93379133D01*
X131358481Y-93361863D01*
X131344597Y-93343143D01*
X131332615Y-93323152D01*
X131322650Y-93302082D01*
X131314798Y-93280138D01*
X131309134Y-93257529D01*
X131305715Y-93234474D01*
X131304571Y-93211195D01*
X131304571Y-92736195D01*
X131305715Y-92712916D01*
X131309134Y-92689861D01*
X131314798Y-92667252D01*
X131322650Y-92645308D01*
X131332615Y-92624238D01*
X131344597Y-92604247D01*
X131358481Y-92585527D01*
X131374133Y-92568257D01*
X131391403Y-92552605D01*
X131410123Y-92538721D01*
X131430114Y-92526739D01*
X131451184Y-92516774D01*
X131473128Y-92508922D01*
X131495737Y-92503258D01*
X131518792Y-92499839D01*
X131542071Y-92498695D01*
X132117071Y-92498695D01*
X132140350Y-92499839D01*
X132140350Y-92499839D01*
G37*
D14*
G04 #@! TD*
G04 #@! TO.P,R13,1*
G04 #@! TO.N,+3V3*
X131829571Y-92973695D03*
D13*
G04 #@! TO.N,I2C2_SCL*
G04 #@! TO.C,R13*
G36*
X133890350Y-92499839D02*
X133913405Y-92503258D01*
X133936014Y-92508922D01*
X133957958Y-92516774D01*
X133979028Y-92526739D01*
X133999019Y-92538721D01*
X134017739Y-92552605D01*
X134035009Y-92568257D01*
X134050661Y-92585527D01*
X134064545Y-92604247D01*
X134076527Y-92624238D01*
X134086492Y-92645308D01*
X134094344Y-92667252D01*
X134100008Y-92689861D01*
X134103427Y-92712916D01*
X134104571Y-92736195D01*
X134104571Y-93211195D01*
X134103427Y-93234474D01*
X134100008Y-93257529D01*
X134094344Y-93280138D01*
X134086492Y-93302082D01*
X134076527Y-93323152D01*
X134064545Y-93343143D01*
X134050661Y-93361863D01*
X134035009Y-93379133D01*
X134017739Y-93394785D01*
X133999019Y-93408669D01*
X133979028Y-93420651D01*
X133957958Y-93430616D01*
X133936014Y-93438468D01*
X133913405Y-93444132D01*
X133890350Y-93447551D01*
X133867071Y-93448695D01*
X133292071Y-93448695D01*
X133268792Y-93447551D01*
X133245737Y-93444132D01*
X133223128Y-93438468D01*
X133201184Y-93430616D01*
X133180114Y-93420651D01*
X133160123Y-93408669D01*
X133141403Y-93394785D01*
X133124133Y-93379133D01*
X133108481Y-93361863D01*
X133094597Y-93343143D01*
X133082615Y-93323152D01*
X133072650Y-93302082D01*
X133064798Y-93280138D01*
X133059134Y-93257529D01*
X133055715Y-93234474D01*
X133054571Y-93211195D01*
X133054571Y-92736195D01*
X133055715Y-92712916D01*
X133059134Y-92689861D01*
X133064798Y-92667252D01*
X133072650Y-92645308D01*
X133082615Y-92624238D01*
X133094597Y-92604247D01*
X133108481Y-92585527D01*
X133124133Y-92568257D01*
X133141403Y-92552605D01*
X133160123Y-92538721D01*
X133180114Y-92526739D01*
X133201184Y-92516774D01*
X133223128Y-92508922D01*
X133245737Y-92503258D01*
X133268792Y-92499839D01*
X133292071Y-92498695D01*
X133867071Y-92498695D01*
X133890350Y-92499839D01*
X133890350Y-92499839D01*
G37*
D14*
G04 #@! TD*
G04 #@! TO.P,R13,2*
G04 #@! TO.N,I2C2_SCL*
X133579571Y-92973695D03*
D17*
G04 #@! TO.P,SW2,1*
G04 #@! TO.N,GND*
X132020000Y-101830000D03*
G04 #@! TO.P,SW2,2*
G04 #@! TO.N,RESET*
X139820000Y-101830000D03*
G04 #@! TD*
D18*
G04 #@! TO.P,TP1,1*
G04 #@! TO.N,+3V3*
X149700000Y-99600000D03*
G04 #@! TD*
G04 #@! TO.P,TP2,1*
G04 #@! TO.N,GND*
X151300000Y-99600000D03*
G04 #@! TD*
D19*
G04 #@! TO.N,+BATT*
X129850000Y-68350000D03*
X124850000Y-107550000D03*
G04 #@! TO.N,BATT_ADC*
X123100000Y-104150000D03*
X124550000Y-78000000D03*
X136495000Y-83350000D03*
G04 #@! TO.N,+3V3*
X138600000Y-80100000D03*
X140350000Y-76650000D03*
X150400000Y-76450000D03*
X145400000Y-76800000D03*
X161950000Y-99000000D03*
X164200000Y-114700000D03*
X157800000Y-72250000D03*
X127150000Y-90050000D03*
X148950000Y-96750000D03*
X132450000Y-81500000D03*
X130850000Y-93950000D03*
X145250000Y-95350000D03*
X134000000Y-79950000D03*
G04 #@! TO.N,ADDR_LED_PANEL_1_PWM*
X133424460Y-85150000D03*
G04 #@! TO.N,RESET*
X166795000Y-103950000D03*
X141045000Y-77500000D03*
X154400000Y-78350000D03*
X167350000Y-90800000D03*
X143500000Y-104350000D03*
G04 #@! TO.N,BUTTON1*
X126950000Y-86850000D03*
X130600000Y-79250000D03*
X145550000Y-79000000D03*
G04 #@! TO.N,USART_2_RX*
X128950000Y-91500000D03*
G04 #@! TO.N,USART_2_TX*
X130445000Y-84950000D03*
X130350000Y-91150000D03*
X137550000Y-80350000D03*
G04 #@! TO.N,BT_RX*
X158595000Y-87650000D03*
X153750000Y-107000000D03*
G04 #@! TO.N,BT_TX*
X153750000Y-108050000D03*
G04 #@! TO.N,BT_SWCLK*
X153745000Y-111350000D03*
G04 #@! TO.N,BT_SWDIO*
X153745000Y-112450000D03*
G04 #@! TO.N,BT_RST*
X162345000Y-92650000D03*
X163400000Y-106150000D03*
G04 #@! TO.N,ADDR_LED_BACKUP_PWM*
X136300000Y-78150000D03*
X153800000Y-79350000D03*
G04 #@! TO.N,BATT_ADC_ENABLE*
X125950000Y-100400000D03*
G04 #@! TO.N,GREEN_LED*
X129850000Y-70550000D03*
G04 #@! TO.N,BT_RED_LED*
X128095000Y-74650000D03*
X126700000Y-107600000D03*
G04 #@! TO.N,I2C1_SDA*
X142139571Y-91650000D03*
X159350000Y-84350000D03*
X154600000Y-84750000D03*
X144950000Y-84200000D03*
X145250000Y-88550000D03*
G04 #@! TO.N,I2C1_SCL*
X168050000Y-95400000D03*
X163300000Y-70700000D03*
X139900000Y-96000000D03*
G04 #@! TO.N,I2C2_SDA*
X136445000Y-87850000D03*
X164200000Y-113500000D03*
X166295000Y-87050000D03*
G04 #@! TO.N,I2C2_SCL*
X164200000Y-112350000D03*
X136695000Y-92900000D03*
X165700000Y-92100000D03*
G04 #@! TO.N,BT_GPIO_3*
X162700000Y-105300000D03*
X154300000Y-86200000D03*
X136445000Y-85750000D03*
G04 #@! TO.N,BT_GPIO_2*
X152550000Y-85050000D03*
X136500000Y-84400000D03*
X164195000Y-109225000D03*
G04 #@! TO.N,BT_GPIO_1*
X155245000Y-81400000D03*
X139450000Y-80100000D03*
X164200000Y-110350000D03*
G04 #@! TO.N,BT_GPIO_0*
X164200000Y-111325000D03*
X140445000Y-80100000D03*
X155600000Y-80350000D03*
G04 #@! TO.N,ACCEL_EXTI_1*
X151750000Y-72300000D03*
G04 #@! TO.N,ACCEL_EXTI_2*
X159900000Y-67150000D03*
G04 #@! TO.N,D-*
X142300000Y-89150000D03*
G04 #@! TO.N,D+*
X143600000Y-88750000D03*
G04 #@! TO.N,BOOST_ENABLE*
X135650000Y-75150000D03*
G04 #@! TO.N,GND*
X150950000Y-83750000D03*
X147450000Y-81400000D03*
X149200000Y-78750000D03*
X134200000Y-82500000D03*
X136250000Y-81550000D03*
X134500000Y-89750000D03*
X123200000Y-90900000D03*
X123550000Y-93600000D03*
X129150000Y-83300000D03*
X128750000Y-85100000D03*
X131000000Y-87300000D03*
X159900000Y-70350000D03*
X128750000Y-89950000D03*
X131981802Y-85500000D03*
X162550000Y-101500000D03*
X138550000Y-105250000D03*
X139050000Y-80900000D03*
X166700000Y-67150000D03*
X147250000Y-103000000D03*
X151650000Y-79000000D03*
X152150000Y-81400000D03*
X153250000Y-82700000D03*
X133550000Y-99400000D03*
X120600000Y-93400000D03*
X120600000Y-97050000D03*
X153460000Y-114390000D03*
X160090000Y-73910000D03*
X121140000Y-108090000D03*
X121150000Y-105140000D03*
X158170000Y-68660000D03*
X155640000Y-68670000D03*
G04 #@! TO.N,CHARGER_STAT2*
X135450000Y-102200000D03*
X141245000Y-103400000D03*
X138900000Y-94900000D03*
G04 #@! TO.N,CHARGER_STAT1*
X136295000Y-101300000D03*
G04 #@! TO.N,TEST_GPIO2*
X136450000Y-86900000D03*
G04 #@! TD*
D20*
G04 #@! TO.N,+BATT*
X122000000Y-104250000D02*
X122000000Y-76250000D01*
X122000000Y-76250000D02*
X129800000Y-68450000D01*
X122000000Y-104650000D02*
X124800000Y-107450000D01*
X122000000Y-104250000D02*
X122000000Y-104650000D01*
G04 #@! TO.N,BATT_ADC*
X135189571Y-83373695D02*
X136426305Y-83373695D01*
X124550000Y-78000000D02*
X124550000Y-102600000D01*
X124550000Y-102600000D02*
X123050000Y-104100000D01*
G04 #@! TO.N,+3V3*
X133539571Y-88373695D02*
X133399571Y-88513695D01*
X135189571Y-88373695D02*
X133539571Y-88373695D01*
X133275097Y-88513695D02*
X133399571Y-88513695D01*
X131531626Y-90257166D02*
X133275097Y-88513695D01*
X133759571Y-81873695D02*
X133399571Y-81513695D01*
X135189571Y-81873695D02*
X133759571Y-81873695D01*
X131829571Y-90555111D02*
X131531626Y-90257166D01*
X131829571Y-92973695D02*
X131829571Y-90555111D01*
X141509571Y-94503695D02*
X143109571Y-94503695D01*
X143375567Y-94503695D02*
X144816159Y-93063103D01*
X143109571Y-94503695D02*
X143375567Y-94503695D01*
X144639571Y-92886515D02*
X144816159Y-93063103D01*
X144639571Y-90323695D02*
X144639571Y-92886515D01*
X146624571Y-80908695D02*
X146589571Y-80873695D01*
X148259571Y-80908695D02*
X146624571Y-80908695D01*
X144639571Y-77636515D02*
X144066159Y-77063103D01*
X144639571Y-78923695D02*
X144639571Y-77636515D01*
X138639571Y-77239691D02*
X138639571Y-78923695D01*
X138816159Y-77063103D02*
X138639571Y-77239691D01*
X164200000Y-114700000D02*
X161900000Y-112400000D01*
X161950000Y-112350000D02*
X161950000Y-99000000D01*
X144329262Y-76800000D02*
X144066159Y-77063103D01*
X145400000Y-76800000D02*
X144329262Y-76800000D01*
X139936897Y-77063103D02*
X140350000Y-76650000D01*
X138816159Y-77063103D02*
X139936897Y-77063103D01*
X131829571Y-92973695D02*
X129424693Y-92973695D01*
X129424693Y-92973695D02*
X127150000Y-90699002D01*
X127150000Y-90699002D02*
X127150000Y-90200000D01*
X149350000Y-99600000D02*
X148205876Y-99600000D01*
X153550000Y-76500000D02*
X157800000Y-72250000D01*
X150450000Y-76500000D02*
X153550000Y-76500000D01*
X150050000Y-76650000D02*
X150150000Y-76550000D01*
X150150000Y-76550000D02*
X150500000Y-76550000D01*
X148259571Y-80908695D02*
X150050000Y-79118266D01*
X150050000Y-79118266D02*
X150050000Y-76650000D01*
X145355876Y-96750000D02*
X148950000Y-96750000D01*
X145155876Y-96550000D02*
X144055876Y-95450000D01*
X145155876Y-96550000D02*
X145355876Y-96750000D01*
X148205876Y-99600000D02*
X145155876Y-96550000D01*
X138639571Y-80060429D02*
X138600000Y-80100000D01*
X138639571Y-78923695D02*
X138639571Y-80060429D01*
X133385876Y-81500000D02*
X133399571Y-81513695D01*
X132450000Y-81500000D02*
X133385876Y-81500000D01*
X143850000Y-95244124D02*
X143955876Y-95350000D01*
X143955876Y-95350000D02*
X145250000Y-95350000D01*
X143850000Y-95244124D02*
X143109571Y-94503695D01*
X144055876Y-95450000D02*
X143850000Y-95244124D01*
X131826305Y-92973695D02*
X130850000Y-93950000D01*
X131829571Y-92973695D02*
X131826305Y-92973695D01*
X131287436Y-79950000D02*
X134000000Y-79950000D01*
X128200000Y-83037436D02*
X131287436Y-79950000D01*
X127150000Y-90050000D02*
X128200000Y-89000000D01*
X128200000Y-89000000D02*
X128200000Y-83037436D01*
G04 #@! TO.N,ADDR_LED_PANEL_1_PWM*
X134148155Y-85873695D02*
X135189571Y-85873695D01*
X134148155Y-85873695D02*
X133424460Y-85150000D01*
G04 #@! TO.N,RESET*
X141760000Y-101830000D02*
X142950000Y-103020000D01*
X139820000Y-101830000D02*
X141760000Y-101830000D01*
X167350000Y-90800000D02*
X167350000Y-87105998D01*
X167350000Y-87105998D02*
X159808135Y-79564133D01*
X141639571Y-78094571D02*
X141045000Y-77500000D01*
X141639571Y-78923695D02*
X141639571Y-78094571D01*
X167350000Y-90800000D02*
X167350000Y-92595050D01*
X167350000Y-92595050D02*
X166800000Y-93145050D01*
X166800000Y-93145050D02*
X166800000Y-103900000D01*
X142950000Y-103800000D02*
X143500000Y-104350000D01*
X142950000Y-103020000D02*
X142950000Y-103800000D01*
X155614133Y-79564133D02*
X154400000Y-78350000D01*
X159808135Y-79564133D02*
X155614133Y-79564133D01*
G04 #@! TO.N,BUTTON1*
X126950000Y-86850000D02*
X126950000Y-82900000D01*
X126950000Y-82900000D02*
X130600000Y-79250000D01*
X145550000Y-79565685D02*
X145550000Y-79000000D01*
X145366989Y-79748696D02*
X145550000Y-79565685D01*
X144214572Y-79748696D02*
X145366989Y-79748696D01*
X144139571Y-79673695D02*
X144214572Y-79748696D01*
X144139571Y-78923695D02*
X144139571Y-79673695D01*
X130600000Y-79250000D02*
X130600000Y-79250000D01*
G04 #@! TO.N,USART_2_RX*
X129645000Y-83773302D02*
X130450000Y-82968302D01*
X134439571Y-80873695D02*
X135189571Y-80873695D01*
X134223032Y-80657156D02*
X134439571Y-80873695D01*
X130450000Y-81268282D02*
X131061126Y-80657156D01*
X131061126Y-80657156D02*
X134223032Y-80657156D01*
X130450000Y-82968302D02*
X130450000Y-81268282D01*
X129645000Y-89400000D02*
X129645000Y-90805000D01*
X129645000Y-89400000D02*
X129645000Y-83773302D01*
X129645000Y-90805000D02*
X128950000Y-91500000D01*
X129645000Y-90050000D02*
X129645000Y-89400000D01*
G04 #@! TO.N,USART_2_TX*
X130350000Y-91150000D02*
X130350000Y-85050000D01*
X137139571Y-79939571D02*
X137550000Y-80350000D01*
X137139571Y-78923695D02*
X137139571Y-79939571D01*
G04 #@! TO.N,BT_RX*
X147339571Y-87373695D02*
X146589571Y-87373695D01*
X157264000Y-88150960D02*
X156486735Y-87373695D01*
X157264000Y-88752000D02*
X157264000Y-88150960D01*
X154800000Y-87373695D02*
X154576305Y-87373695D01*
X156486735Y-87373695D02*
X154800000Y-87373695D01*
X153750000Y-107000000D02*
X158464010Y-102285990D01*
X158464010Y-87885990D02*
X158600000Y-87750000D01*
X158595000Y-88144974D02*
X158595000Y-87650000D01*
X158914021Y-88463995D02*
X158595000Y-88144974D01*
X158464010Y-102272400D02*
X158914021Y-101822389D01*
X158914021Y-101822389D02*
X158914021Y-88463995D01*
X158464010Y-102285990D02*
X158464010Y-102272400D01*
X154800000Y-87373695D02*
X147339571Y-87373695D01*
G04 #@! TO.N,BT_TX*
X156623145Y-86873695D02*
X147339571Y-86873695D01*
X158014001Y-89603039D02*
X158014001Y-88264551D01*
X157865040Y-89752000D02*
X158014001Y-89603039D01*
X158014001Y-88264551D02*
X156623145Y-86873695D01*
X153074999Y-107374999D02*
X153750000Y-108050000D01*
X153074999Y-106675001D02*
X153074999Y-107374999D01*
X157264000Y-89752000D02*
X157865040Y-89752000D01*
X158464011Y-90350971D02*
X158464011Y-101635989D01*
X153775001Y-106324999D02*
X153425001Y-106324999D01*
X158464011Y-101635989D02*
X153775001Y-106324999D01*
X157865040Y-89752000D02*
X158464011Y-90350971D01*
X153425001Y-106324999D02*
X153074999Y-106675001D01*
X147339571Y-86873695D02*
X146589571Y-86873695D01*
G04 #@! TO.N,SWCLK*
X155662960Y-90752000D02*
X156264000Y-90752000D01*
X147339571Y-88373695D02*
X149717876Y-90752000D01*
X146589571Y-88373695D02*
X147339571Y-88373695D01*
X149717876Y-90752000D02*
X155662960Y-90752000D01*
G04 #@! TO.N,SWDIO*
X143589572Y-89623694D02*
X143589572Y-90273696D01*
X155662960Y-91752000D02*
X155112970Y-91202010D01*
X156264000Y-91752000D02*
X155662960Y-91752000D01*
X155112970Y-91202010D02*
X148552010Y-91202010D01*
X148552010Y-91202010D02*
X146450000Y-89100000D01*
X143589572Y-90273696D02*
X143639571Y-90323695D01*
X146450000Y-89100000D02*
X144113266Y-89100000D01*
X144113266Y-89100000D02*
X143589572Y-89623694D01*
G04 #@! TO.N,BT_SWCLK*
X153745000Y-111350000D02*
X152624989Y-110229989D01*
X152624990Y-106488600D02*
X153263590Y-105850000D01*
X152624989Y-110229989D02*
X152624990Y-106488600D01*
X153263590Y-105850000D02*
X153600000Y-105850000D01*
X158014001Y-101435999D02*
X153600000Y-105850000D01*
X158014001Y-91900961D02*
X158014001Y-101435999D01*
X157865040Y-91752000D02*
X158014001Y-91900961D01*
X157264000Y-91752000D02*
X157865040Y-91752000D01*
G04 #@! TO.N,BT_SWDIO*
X156264000Y-92752000D02*
X156264000Y-93353040D01*
X156264000Y-93353040D02*
X157550000Y-94639040D01*
X157550000Y-94639040D02*
X157550000Y-101250000D01*
X153400010Y-105399990D02*
X153000010Y-105399990D01*
X157550000Y-101250000D02*
X153400010Y-105399990D01*
X152174981Y-106225019D02*
X152174981Y-110879981D01*
X153395001Y-112100001D02*
X153745000Y-112450000D01*
X153000010Y-105399990D02*
X152174981Y-106225019D01*
X152174981Y-110879981D02*
X153395001Y-112100001D01*
G04 #@! TO.N,BT_RST*
X163650000Y-94050000D02*
X162352000Y-92752000D01*
X163650000Y-105900000D02*
X163400000Y-106150000D01*
X163650000Y-94050000D02*
X163650000Y-105900000D01*
G04 #@! TO.N,ADDR_LED_BACKUP_PWM*
X136351306Y-78098694D02*
X136300000Y-78150000D01*
X138064570Y-78098694D02*
X136351306Y-78098694D01*
X138139571Y-78173695D02*
X138064570Y-78098694D01*
X138139571Y-78923695D02*
X138139571Y-78173695D01*
X157264000Y-82910000D02*
X157264000Y-82474998D01*
X157264000Y-82474998D02*
X156864003Y-82075001D01*
X156864003Y-82075001D02*
X154920999Y-82075001D01*
X154920999Y-82075001D02*
X153800000Y-80954002D01*
X153800000Y-80954002D02*
X153800000Y-79450000D01*
G04 #@! TO.N,BATT_ADC_ENABLE*
X132679581Y-92553175D02*
X133432756Y-91800000D01*
X125950000Y-100400000D02*
X132679581Y-93670419D01*
X132679581Y-93670419D02*
X132679581Y-92553175D01*
X139139571Y-89573695D02*
X139139571Y-90323695D01*
X139064570Y-89498694D02*
X139139571Y-89573695D01*
X136101306Y-89498694D02*
X139064570Y-89498694D01*
X133800000Y-91800000D02*
X136101306Y-89498694D01*
X133432756Y-91800000D02*
X133800000Y-91800000D01*
G04 #@! TO.N,Net-(R5-Pad1)*
X147873695Y-82873695D02*
X146589571Y-82873695D01*
X148164000Y-83164000D02*
X147873695Y-82873695D01*
G04 #@! TO.N,GREEN_LED*
X136500000Y-80974122D02*
X129850000Y-74324122D01*
X129850000Y-74324122D02*
X129850000Y-70550000D01*
X129850000Y-70550000D02*
X129850000Y-70550000D01*
X136500000Y-80974122D02*
X136524122Y-80974122D01*
X136524122Y-80974122D02*
X136950000Y-81400000D01*
X136950000Y-81400000D02*
X136950000Y-82450000D01*
X136526305Y-82873695D02*
X135750000Y-82873695D01*
X136950000Y-82450000D02*
X136526305Y-82873695D01*
X135189571Y-82873695D02*
X135750000Y-82873695D01*
X135750000Y-82873695D02*
X135939571Y-82873695D01*
G04 #@! TO.N,BT_RED_LED*
X125274999Y-106174999D02*
X125274999Y-77425001D01*
X126700000Y-107600000D02*
X125274999Y-106174999D01*
X125274999Y-77425001D02*
X128100000Y-74600000D01*
G04 #@! TO.N,I2C1_SDA*
X142139571Y-91783695D02*
X142139571Y-91650000D01*
X143109571Y-92753695D02*
X142139571Y-91783695D01*
X142139571Y-91650000D02*
X142139571Y-90323695D01*
D21*
X158950000Y-84750000D02*
X159300000Y-84400000D01*
X154650000Y-84750000D02*
X158950000Y-84750000D01*
D20*
X145025001Y-88325001D02*
X145025001Y-87775001D01*
X145250000Y-88550000D02*
X145025001Y-88325001D01*
X144950000Y-87700000D02*
X144950000Y-84200000D01*
X145025001Y-87775001D02*
X144950000Y-87700000D01*
G04 #@! TO.N,I2C1_SCL*
X141509571Y-92753695D02*
X141639571Y-92623695D01*
X141564570Y-91148696D02*
X141639571Y-91073695D01*
X141639571Y-91073695D02*
X141639571Y-90850000D01*
X141639571Y-90850000D02*
X141639571Y-90323695D01*
X141639571Y-91033697D02*
X141639571Y-90850000D01*
X139753695Y-92753695D02*
X139650000Y-92650000D01*
X141509571Y-92753695D02*
X139753695Y-92753695D01*
X139650000Y-92650000D02*
X139650000Y-91650000D01*
X139650000Y-91500000D02*
X140001304Y-91148696D01*
X140001304Y-91148696D02*
X141524572Y-91148696D01*
X141524572Y-91148696D02*
X141639571Y-91033697D01*
D21*
X139900000Y-92900000D02*
X139900000Y-96000000D01*
X139753695Y-92753695D02*
X139900000Y-92900000D01*
D20*
X168050000Y-95400000D02*
X168449999Y-95000001D01*
X139650000Y-91650000D02*
X139650000Y-91500000D01*
X168449999Y-86650000D02*
X168449999Y-86499999D01*
X168449999Y-95000001D02*
X168449999Y-86650000D01*
X163300000Y-81350000D02*
X163300000Y-70700000D01*
X168449999Y-86499999D02*
X163300000Y-81350000D01*
G04 #@! TO.N,I2C2_SDA*
X135968695Y-87373695D02*
X136445000Y-87850000D01*
X135189571Y-87373695D02*
X135968695Y-87373695D01*
X165995040Y-107858630D02*
X166220028Y-108083618D01*
X166295000Y-91145000D02*
X166750000Y-91600000D01*
X166295000Y-87050000D02*
X166295000Y-91145000D01*
X166220028Y-108083618D02*
X166220029Y-111479971D01*
X165995040Y-93031344D02*
X165995040Y-107858630D01*
X166220029Y-111479971D02*
X164200000Y-113500000D01*
X166750000Y-91600000D02*
X166750000Y-92276384D01*
X166750000Y-92276384D02*
X165995040Y-93031344D01*
X132427689Y-87611103D02*
X131531626Y-88507166D01*
X133038792Y-87000000D02*
X132427689Y-87611103D01*
X134050000Y-87000000D02*
X133038792Y-87000000D01*
X135189571Y-87373695D02*
X134423695Y-87373695D01*
X134423695Y-87373695D02*
X134050000Y-87000000D01*
G04 #@! TO.N,I2C2_SCL*
X133579571Y-92973695D02*
X136526305Y-92973695D01*
X137639571Y-91860429D02*
X137639571Y-90323695D01*
X136526305Y-92973695D02*
X137639571Y-91860429D01*
X165770020Y-110779980D02*
X164200000Y-112350000D01*
X165770019Y-108270019D02*
X165770020Y-110779980D01*
X165545030Y-92844944D02*
X165545030Y-108045030D01*
X165595000Y-92794974D02*
X165545030Y-92844944D01*
X165545030Y-108045030D02*
X165770019Y-108270019D01*
X165595000Y-92205000D02*
X165700000Y-92100000D01*
X165595000Y-92794974D02*
X165595000Y-92205000D01*
G04 #@! TO.N,BT_GPIO_3*
X162745000Y-105250000D02*
X163094999Y-104900001D01*
X163094999Y-104900001D02*
X163094999Y-94399001D01*
X163094999Y-94399001D02*
X159364031Y-90668033D01*
X159364031Y-90668033D02*
X159364031Y-87420029D01*
X135939571Y-84873695D02*
X135189571Y-84873695D01*
X136095001Y-85029125D02*
X135939571Y-84873695D01*
X136095001Y-85400001D02*
X136095001Y-85029125D01*
X136445000Y-85750000D02*
X136095001Y-85400001D01*
X159364031Y-87420029D02*
X158194002Y-86250000D01*
X154350000Y-86250000D02*
X154300000Y-86200000D01*
X158194002Y-86250000D02*
X154350000Y-86250000D01*
G04 #@! TO.N,BT_GPIO_2*
X136473695Y-84373695D02*
X136500000Y-84400000D01*
X135189571Y-84373695D02*
X136473695Y-84373695D01*
X153650000Y-85050000D02*
X152550000Y-85050000D01*
X153700000Y-85100000D02*
X153650000Y-85050000D01*
X164195000Y-109225000D02*
X164195000Y-87995000D01*
X161624999Y-85424999D02*
X154024999Y-85424999D01*
X161750000Y-85550000D02*
X161624999Y-85424999D01*
X164195000Y-87995000D02*
X161750000Y-85550000D01*
X154024999Y-85424999D02*
X153700000Y-85100000D01*
G04 #@! TO.N,BT_GPIO_1*
X164870001Y-108820001D02*
X164645010Y-108595010D01*
X164200000Y-110350000D02*
X164870001Y-109679999D01*
X164870001Y-109679999D02*
X164870001Y-108820001D01*
X139639571Y-79910429D02*
X139450000Y-80100000D01*
X139639571Y-78923695D02*
X139639571Y-79910429D01*
X158395010Y-81400000D02*
X155245000Y-81400000D01*
X164645010Y-108595010D02*
X164645010Y-87650000D01*
X164645010Y-87650000D02*
X158395010Y-81400000D01*
G04 #@! TO.N,BT_GPIO_0*
X165320010Y-110204990D02*
X165320010Y-108633600D01*
X164200000Y-111325000D02*
X165320010Y-110204990D01*
X165320010Y-108633600D02*
X165095020Y-108408610D01*
X165031420Y-87400000D02*
X165095020Y-87400000D01*
X165095020Y-108408610D02*
X165095020Y-87400000D01*
X140139571Y-79794571D02*
X140139571Y-78923695D01*
X140445000Y-80100000D02*
X140139571Y-79794571D01*
X158281420Y-80650000D02*
X165031420Y-87400000D01*
X158281420Y-80650000D02*
X158281420Y-80581420D01*
X158050000Y-80350000D02*
X155600000Y-80350000D01*
X158281420Y-80581420D02*
X158050000Y-80350000D01*
D21*
G04 #@! TO.N,ACCEL_EXTI_1*
X146589571Y-83873695D02*
X145679466Y-83873695D01*
X145679466Y-83873695D02*
X145350000Y-83544229D01*
X145350000Y-80337565D02*
X146852085Y-78835480D01*
X145350000Y-83544229D02*
X145350000Y-80337565D01*
X146852085Y-78835480D02*
X146852085Y-78297915D01*
X151750000Y-72300000D02*
X151750000Y-73400000D01*
X151750000Y-73400000D02*
X151500000Y-73650000D01*
X146852085Y-78297915D02*
X151500000Y-73650000D01*
D20*
G04 #@! TO.N,ACCEL_EXTI_2*
X145879569Y-83373695D02*
X145764570Y-83258696D01*
X158600000Y-67150000D02*
X159900000Y-67150000D01*
X146589571Y-83373695D02*
X145879569Y-83373695D01*
X157502095Y-68250000D02*
X157502095Y-68247905D01*
X157502095Y-68247905D02*
X158600000Y-67150000D01*
X145764570Y-80488694D02*
X145903264Y-80350000D01*
X145764570Y-83258696D02*
X145764570Y-80488694D01*
X145903264Y-80350000D02*
X146850000Y-80350000D01*
X147252095Y-79947905D02*
X147252095Y-78500000D01*
X146850000Y-80350000D02*
X147252095Y-79947905D01*
X147252095Y-78500000D02*
X157502095Y-68250000D01*
G04 #@! TO.N,D-*
X142639571Y-89489571D02*
X142300000Y-89150000D01*
X142639571Y-90323695D02*
X142639571Y-89489571D01*
G04 #@! TO.N,D+*
X143139571Y-89210429D02*
X143600000Y-88750000D01*
X143139571Y-90323695D02*
X143139571Y-89210429D01*
G04 #@! TO.N,BOOST_ENABLE*
X138400982Y-88198696D02*
X139639571Y-89437285D01*
X137379570Y-88198696D02*
X138400982Y-88198696D01*
X135650000Y-76750000D02*
X134750000Y-77650000D01*
X135650000Y-75150000D02*
X135650000Y-76750000D01*
X134750000Y-77650000D02*
X134750000Y-78570860D01*
X139639571Y-89437285D02*
X139639571Y-90323695D01*
X137314570Y-81135430D02*
X137314570Y-88133696D01*
X134750000Y-78570860D02*
X137314570Y-81135430D01*
X137314570Y-88133696D02*
X137379570Y-88198696D01*
G04 #@! TO.N,GND*
X123550000Y-91250000D02*
X123200000Y-90900000D01*
X123550000Y-93600000D02*
X123550000Y-91250000D01*
X134339561Y-87773685D02*
X134439571Y-87873695D01*
X129150000Y-84650000D02*
X129150000Y-83300000D01*
X128750000Y-85050000D02*
X129150000Y-84650000D01*
X131000000Y-87300000D02*
X130775001Y-87524999D01*
X130775001Y-87524999D02*
X130775001Y-88915489D01*
X132709561Y-87940439D02*
X132876315Y-87773685D01*
X130775001Y-88915489D02*
X131106688Y-89247176D01*
X134439571Y-87873695D02*
X135189571Y-87873695D01*
X132709561Y-88494179D02*
X132709561Y-87940439D01*
X132876315Y-87773685D02*
X134339561Y-87773685D01*
X131106688Y-89247176D02*
X131956564Y-89247176D01*
X131956564Y-89247176D02*
X132709561Y-88494179D01*
X128750000Y-85100000D02*
X128750000Y-89950000D01*
X128750000Y-89950000D02*
X128750000Y-89950000D01*
X133986305Y-90263695D02*
X134500000Y-89750000D01*
X133399571Y-90263695D02*
X133986305Y-90263695D01*
D21*
X148259571Y-78013227D02*
X150572798Y-75700000D01*
X148259571Y-79158695D02*
X148259571Y-78013227D01*
X150572798Y-75700000D02*
X151350000Y-75700000D01*
D20*
X136073695Y-81373695D02*
X136250000Y-81550000D01*
X135189571Y-81373695D02*
X136073695Y-81373695D01*
X133436305Y-83263695D02*
X134200000Y-82500000D01*
X133399571Y-83263695D02*
X133436305Y-83263695D01*
D21*
X139050000Y-79663266D02*
X139050000Y-80581802D01*
X139139571Y-79573695D02*
X139050000Y-79663266D01*
X139050000Y-80581802D02*
X139050000Y-80900000D01*
X139139571Y-78923695D02*
X139139571Y-79573695D01*
D20*
X131643042Y-81507166D02*
X131531626Y-81507166D01*
X148791305Y-79158695D02*
X149200000Y-78750000D01*
X148259571Y-79158695D02*
X148791305Y-79158695D01*
X147423695Y-81373695D02*
X147450000Y-81400000D01*
X146589571Y-81373695D02*
X147423695Y-81373695D01*
X150364000Y-83164000D02*
X150950000Y-83750000D01*
X149914000Y-83164000D02*
X150364000Y-83164000D01*
X144139571Y-89811693D02*
X144451264Y-89500000D01*
X144139571Y-90323695D02*
X144139571Y-89811693D01*
X146566159Y-92488103D02*
X146566159Y-93063103D01*
X146566159Y-91238281D02*
X146566159Y-92488103D01*
X144827878Y-89500000D02*
X146566159Y-91238281D01*
X144451264Y-89500000D02*
X144827878Y-89500000D01*
X120600000Y-93400000D02*
X120600000Y-97050000D01*
X121150000Y-108080000D02*
X121140000Y-108090000D01*
X121150000Y-105140000D02*
X121150000Y-108080000D01*
X147250000Y-108180000D02*
X147250000Y-103000000D01*
X153460000Y-114390000D02*
X147250000Y-108180000D01*
X159860000Y-70350000D02*
X158170000Y-68660000D01*
X159900000Y-70350000D02*
X159860000Y-70350000D01*
G04 #@! TO.N,CHARGER_STAT2*
X141245000Y-103400000D02*
X136750000Y-103400000D01*
X138900000Y-91800000D02*
X138900000Y-94900000D01*
X138639571Y-90323695D02*
X138639571Y-90940569D01*
X138639571Y-90940569D02*
X138900000Y-91200998D01*
X138900000Y-91200998D02*
X138900000Y-91800000D01*
X135650000Y-102400000D02*
X135450000Y-102200000D01*
X135750000Y-102400000D02*
X135650000Y-102400000D01*
X135750000Y-102400000D02*
X135650000Y-102300000D01*
X136750000Y-103400000D02*
X135750000Y-102400000D01*
G04 #@! TO.N,CHARGER_STAT1*
X138139571Y-90323695D02*
X138139571Y-99455429D01*
X138139571Y-99455429D02*
X136295000Y-101300000D01*
G04 #@! TO.N,TEST_GPIO2*
X136423695Y-86873695D02*
X136450000Y-86900000D01*
X135189571Y-86873695D02*
X136423695Y-86873695D01*
G04 #@! TO.N,TEST_GPIO1*
X154929010Y-83569990D02*
X155589000Y-82910000D01*
X146589571Y-81873695D02*
X150723695Y-81873695D01*
X155589000Y-82910000D02*
X156264000Y-82910000D01*
X152419990Y-83569990D02*
X154929010Y-83569990D01*
X150723695Y-81873695D02*
X152419990Y-83569990D01*
G04 #@! TO.N,TEST_GPIO0*
X146589571Y-82373695D02*
X147475981Y-82373695D01*
X147475981Y-82373695D02*
X147485686Y-82363990D01*
X147349276Y-82363990D02*
X147339571Y-82373695D01*
X150434500Y-82363990D02*
X147349276Y-82363990D01*
X147339571Y-82373695D02*
X146589571Y-82373695D01*
X151980510Y-83910000D02*
X150434500Y-82363990D01*
X156264000Y-83910000D02*
X151980510Y-83910000D01*
G04 #@! TD*
D22*
G04 #@! TO.N,GND*
G36*
X120764916Y-102431846D02*
X121235084Y-102431846D01*
X121240000Y-102429810D01*
X121240000Y-104575153D01*
X121225112Y-104650000D01*
X121240000Y-104724847D01*
X121240000Y-104724852D01*
X121284096Y-104946537D01*
X121452071Y-105197929D01*
X121515529Y-105240330D01*
X122398199Y-106123000D01*
X120627000Y-106123000D01*
X120627000Y-102374719D01*
X120764916Y-102431846D01*
X120764916Y-102431846D01*
G37*
X120764916Y-102431846D02*
X121235084Y-102431846D01*
X121240000Y-102429810D01*
X121240000Y-104575153D01*
X121225112Y-104650000D01*
X121240000Y-104724847D01*
X121240000Y-104724852D01*
X121284096Y-104946537D01*
X121452071Y-105197929D01*
X121515529Y-105240330D01*
X122398199Y-106123000D01*
X120627000Y-106123000D01*
X120627000Y-102374719D01*
X120764916Y-102431846D01*
G36*
X147961680Y-91686482D02*
X148004081Y-91749939D01*
X148255473Y-91917914D01*
X148477158Y-91962010D01*
X148477162Y-91962010D01*
X148552009Y-91976898D01*
X148626856Y-91962010D01*
X154798168Y-91962010D01*
X155072632Y-92236475D01*
X155115031Y-92299929D01*
X155178484Y-92342327D01*
X155178486Y-92342329D01*
X155239903Y-92383366D01*
X155254605Y-92393190D01*
X155183234Y-92752000D01*
X155265502Y-93165591D01*
X155499783Y-93516217D01*
X155524908Y-93533005D01*
X155548096Y-93649577D01*
X155716072Y-93900969D01*
X155779528Y-93943369D01*
X156790000Y-94953842D01*
X156790001Y-100935197D01*
X153085209Y-104639990D01*
X153074856Y-104639990D01*
X153000009Y-104625102D01*
X152925162Y-104639990D01*
X152925158Y-104639990D01*
X152703473Y-104684086D01*
X152452081Y-104852061D01*
X152409681Y-104915517D01*
X151690511Y-105634688D01*
X151627052Y-105677090D01*
X151459077Y-105928483D01*
X151420385Y-106123000D01*
X126297801Y-106123000D01*
X126034999Y-105860198D01*
X126034999Y-102115750D01*
X130635000Y-102115750D01*
X130635000Y-102706310D01*
X130731673Y-102939699D01*
X130910302Y-103118327D01*
X131143691Y-103215000D01*
X131734250Y-103215000D01*
X131893000Y-103056250D01*
X131893000Y-101957000D01*
X132147000Y-101957000D01*
X132147000Y-103056250D01*
X132305750Y-103215000D01*
X132896309Y-103215000D01*
X133129698Y-103118327D01*
X133308327Y-102939699D01*
X133405000Y-102706310D01*
X133405000Y-102115750D01*
X133246250Y-101957000D01*
X132147000Y-101957000D01*
X131893000Y-101957000D01*
X130793750Y-101957000D01*
X130635000Y-102115750D01*
X126034999Y-102115750D01*
X126034999Y-101260000D01*
X126121065Y-101260000D01*
X126437151Y-101129072D01*
X126612533Y-100953690D01*
X130635000Y-100953690D01*
X130635000Y-101544250D01*
X130793750Y-101703000D01*
X131893000Y-101703000D01*
X131893000Y-100603750D01*
X132147000Y-100603750D01*
X132147000Y-101703000D01*
X133246250Y-101703000D01*
X133405000Y-101544250D01*
X133405000Y-100953690D01*
X133308327Y-100720301D01*
X133129698Y-100541673D01*
X132896309Y-100445000D01*
X132305750Y-100445000D01*
X132147000Y-100603750D01*
X131893000Y-100603750D01*
X131734250Y-100445000D01*
X131143691Y-100445000D01*
X130910302Y-100541673D01*
X130731673Y-100720301D01*
X130635000Y-100953690D01*
X126612533Y-100953690D01*
X126679072Y-100887151D01*
X126779074Y-100645727D01*
X133164054Y-94260748D01*
X133227510Y-94218348D01*
X133294440Y-94118181D01*
X133309170Y-94096135D01*
X133867071Y-94096135D01*
X134205723Y-94028773D01*
X134492818Y-93836942D01*
X134561806Y-93733695D01*
X136451458Y-93733695D01*
X136468718Y-93737128D01*
X136523935Y-93760000D01*
X136866065Y-93760000D01*
X137182151Y-93629072D01*
X137379571Y-93431652D01*
X137379572Y-99140625D01*
X136049272Y-100470927D01*
X135807849Y-100570928D01*
X135565928Y-100812849D01*
X135435000Y-101128935D01*
X135435000Y-101340000D01*
X135278935Y-101340000D01*
X134962849Y-101470928D01*
X134720928Y-101712849D01*
X134590000Y-102028935D01*
X134590000Y-102371065D01*
X134720928Y-102687151D01*
X134962849Y-102929072D01*
X135254892Y-103050041D01*
X135353463Y-103115904D01*
X135400449Y-103125250D01*
X136159671Y-103884473D01*
X136202071Y-103947929D01*
X136453463Y-104115904D01*
X136675148Y-104160000D01*
X136675152Y-104160000D01*
X136750000Y-104174888D01*
X136824848Y-104160000D01*
X140832515Y-104160000D01*
X141073935Y-104260000D01*
X141416065Y-104260000D01*
X141732151Y-104129072D01*
X141974072Y-103887151D01*
X141999057Y-103826832D01*
X142036753Y-103883247D01*
X142215417Y-104002626D01*
X142234097Y-104096537D01*
X142343320Y-104260000D01*
X142402072Y-104347929D01*
X142465527Y-104390328D01*
X142670927Y-104595729D01*
X142770928Y-104837151D01*
X143012849Y-105079072D01*
X143328935Y-105210000D01*
X143671065Y-105210000D01*
X143987151Y-105079072D01*
X144229072Y-104837151D01*
X144360000Y-104521065D01*
X144360000Y-104178935D01*
X144339730Y-104130000D01*
X144414250Y-104130000D01*
X144573000Y-103971250D01*
X144573000Y-103147000D01*
X144827000Y-103147000D01*
X144827000Y-103971250D01*
X144985750Y-104130000D01*
X145351309Y-104130000D01*
X145584698Y-104033327D01*
X145763327Y-103854699D01*
X145860000Y-103621310D01*
X145860000Y-103305750D01*
X145701250Y-103147000D01*
X144827000Y-103147000D01*
X144573000Y-103147000D01*
X144553000Y-103147000D01*
X144553000Y-102893000D01*
X144573000Y-102893000D01*
X144573000Y-102068750D01*
X144827000Y-102068750D01*
X144827000Y-102893000D01*
X145701250Y-102893000D01*
X145860000Y-102734250D01*
X145860000Y-102418690D01*
X145763327Y-102185301D01*
X145584698Y-102006673D01*
X145351309Y-101910000D01*
X144985750Y-101910000D01*
X144827000Y-102068750D01*
X144573000Y-102068750D01*
X144414250Y-101910000D01*
X144048691Y-101910000D01*
X143815302Y-102006673D01*
X143744540Y-102077435D01*
X143576152Y-101964922D01*
X143237500Y-101897560D01*
X142902362Y-101897560D01*
X142350331Y-101345530D01*
X142307929Y-101282071D01*
X142056537Y-101114096D01*
X141834852Y-101070000D01*
X141834847Y-101070000D01*
X141760000Y-101055112D01*
X141685153Y-101070000D01*
X141215451Y-101070000D01*
X141168157Y-100832235D01*
X141027809Y-100622191D01*
X140817765Y-100481843D01*
X140570000Y-100432560D01*
X139070000Y-100432560D01*
X138822235Y-100481843D01*
X138612191Y-100622191D01*
X138471843Y-100832235D01*
X138422560Y-101080000D01*
X138422560Y-102580000D01*
X138434495Y-102640000D01*
X137064802Y-102640000D01*
X136550024Y-102125223D01*
X136782151Y-102029072D01*
X137024072Y-101787151D01*
X137124073Y-101545728D01*
X138624047Y-100045756D01*
X138687500Y-100003358D01*
X138729898Y-99939905D01*
X138729900Y-99939903D01*
X138855474Y-99751967D01*
X138855475Y-99751966D01*
X138899571Y-99530281D01*
X138899571Y-99530277D01*
X138914459Y-99455430D01*
X138899571Y-99380583D01*
X138899571Y-95760000D01*
X139068554Y-95760000D01*
X139040000Y-95828935D01*
X139040000Y-96171065D01*
X139170928Y-96487151D01*
X139412849Y-96729072D01*
X139728935Y-96860000D01*
X140071065Y-96860000D01*
X140387151Y-96729072D01*
X140629072Y-96487151D01*
X140760000Y-96171065D01*
X140760000Y-95828935D01*
X140629072Y-95512849D01*
X140610000Y-95493777D01*
X140610000Y-95362579D01*
X140646324Y-95416942D01*
X140933419Y-95608773D01*
X141272071Y-95676135D01*
X141747071Y-95676135D01*
X142085723Y-95608773D01*
X142309571Y-95459202D01*
X142533419Y-95608773D01*
X142872071Y-95676135D01*
X143207209Y-95676135D01*
X143365527Y-95834453D01*
X143365530Y-95834455D01*
X143365545Y-95834470D01*
X143407947Y-95897929D01*
X143471406Y-95940331D01*
X144671403Y-97140329D01*
X144671406Y-97140331D01*
X144765545Y-97234470D01*
X144807947Y-97297929D01*
X144871405Y-97340331D01*
X147615549Y-100084476D01*
X147657947Y-100147929D01*
X147721400Y-100190327D01*
X147721402Y-100190329D01*
X147807832Y-100248079D01*
X147909339Y-100315904D01*
X148131024Y-100360000D01*
X148131028Y-100360000D01*
X148205875Y-100374888D01*
X148280722Y-100360000D01*
X148854867Y-100360000D01*
X149057074Y-100562207D01*
X149474234Y-100735000D01*
X149925766Y-100735000D01*
X150342926Y-100562207D01*
X150486037Y-100419097D01*
X150573274Y-100506334D01*
X150689501Y-100390107D01*
X150726648Y-100605217D01*
X151154972Y-100748112D01*
X151605375Y-100716217D01*
X151873352Y-100605217D01*
X151910499Y-100390104D01*
X151300000Y-99779605D01*
X151285858Y-99793748D01*
X151106253Y-99614143D01*
X151120395Y-99600000D01*
X151479605Y-99600000D01*
X152090104Y-100210499D01*
X152305217Y-100173352D01*
X152448112Y-99745028D01*
X152416217Y-99294625D01*
X152305217Y-99026648D01*
X152090104Y-98989501D01*
X151479605Y-99600000D01*
X151120395Y-99600000D01*
X151106253Y-99585858D01*
X151285858Y-99406253D01*
X151300000Y-99420395D01*
X151910499Y-98809896D01*
X151873352Y-98594783D01*
X151445028Y-98451888D01*
X150994625Y-98483783D01*
X150726648Y-98594783D01*
X150689501Y-98809893D01*
X150573274Y-98693666D01*
X150486037Y-98780904D01*
X150342926Y-98637793D01*
X149925766Y-98465000D01*
X149474234Y-98465000D01*
X149057074Y-98637793D01*
X148854867Y-98840000D01*
X148520679Y-98840000D01*
X147190678Y-97510000D01*
X148537515Y-97510000D01*
X148778935Y-97610000D01*
X149121065Y-97610000D01*
X149437151Y-97479072D01*
X149679072Y-97237151D01*
X149810000Y-96921065D01*
X149810000Y-96578935D01*
X149679072Y-96262849D01*
X149437151Y-96020928D01*
X149121065Y-95890000D01*
X148778935Y-95890000D01*
X148537515Y-95990000D01*
X145826223Y-95990000D01*
X145979072Y-95837151D01*
X146110000Y-95521065D01*
X146110000Y-95178935D01*
X145979072Y-94862849D01*
X145737151Y-94620928D01*
X145421065Y-94490000D01*
X145078935Y-94490000D01*
X144837515Y-94590000D01*
X144364063Y-94590000D01*
X144768521Y-94185543D01*
X145103659Y-94185543D01*
X145442311Y-94118181D01*
X145610699Y-94005668D01*
X145681461Y-94076430D01*
X145914850Y-94173103D01*
X146280409Y-94173103D01*
X146439159Y-94014353D01*
X146439159Y-93190103D01*
X146693159Y-93190103D01*
X146693159Y-94014353D01*
X146851909Y-94173103D01*
X147217468Y-94173103D01*
X147450857Y-94076430D01*
X147629486Y-93897802D01*
X147726159Y-93664413D01*
X147726159Y-93348853D01*
X147567409Y-93190103D01*
X146693159Y-93190103D01*
X146439159Y-93190103D01*
X146419159Y-93190103D01*
X146419159Y-92936103D01*
X146439159Y-92936103D01*
X146439159Y-92111853D01*
X146693159Y-92111853D01*
X146693159Y-92936103D01*
X147567409Y-92936103D01*
X147726159Y-92777353D01*
X147726159Y-92461793D01*
X147629486Y-92228404D01*
X147450857Y-92049776D01*
X147217468Y-91953103D01*
X146851909Y-91953103D01*
X146693159Y-92111853D01*
X146439159Y-92111853D01*
X146280409Y-91953103D01*
X145914850Y-91953103D01*
X145681461Y-92049776D01*
X145610699Y-92120538D01*
X145442311Y-92008025D01*
X145399571Y-91999523D01*
X145399571Y-90886236D01*
X145412011Y-90823695D01*
X145412011Y-89860000D01*
X146135199Y-89860000D01*
X147961680Y-91686482D01*
X147961680Y-91686482D01*
G37*
X147961680Y-91686482D02*
X148004081Y-91749939D01*
X148255473Y-91917914D01*
X148477158Y-91962010D01*
X148477162Y-91962010D01*
X148552009Y-91976898D01*
X148626856Y-91962010D01*
X154798168Y-91962010D01*
X155072632Y-92236475D01*
X155115031Y-92299929D01*
X155178484Y-92342327D01*
X155178486Y-92342329D01*
X155239903Y-92383366D01*
X155254605Y-92393190D01*
X155183234Y-92752000D01*
X155265502Y-93165591D01*
X155499783Y-93516217D01*
X155524908Y-93533005D01*
X155548096Y-93649577D01*
X155716072Y-93900969D01*
X155779528Y-93943369D01*
X156790000Y-94953842D01*
X156790001Y-100935197D01*
X153085209Y-104639990D01*
X153074856Y-104639990D01*
X153000009Y-104625102D01*
X152925162Y-104639990D01*
X152925158Y-104639990D01*
X152703473Y-104684086D01*
X152452081Y-104852061D01*
X152409681Y-104915517D01*
X151690511Y-105634688D01*
X151627052Y-105677090D01*
X151459077Y-105928483D01*
X151420385Y-106123000D01*
X126297801Y-106123000D01*
X126034999Y-105860198D01*
X126034999Y-102115750D01*
X130635000Y-102115750D01*
X130635000Y-102706310D01*
X130731673Y-102939699D01*
X130910302Y-103118327D01*
X131143691Y-103215000D01*
X131734250Y-103215000D01*
X131893000Y-103056250D01*
X131893000Y-101957000D01*
X132147000Y-101957000D01*
X132147000Y-103056250D01*
X132305750Y-103215000D01*
X132896309Y-103215000D01*
X133129698Y-103118327D01*
X133308327Y-102939699D01*
X133405000Y-102706310D01*
X133405000Y-102115750D01*
X133246250Y-101957000D01*
X132147000Y-101957000D01*
X131893000Y-101957000D01*
X130793750Y-101957000D01*
X130635000Y-102115750D01*
X126034999Y-102115750D01*
X126034999Y-101260000D01*
X126121065Y-101260000D01*
X126437151Y-101129072D01*
X126612533Y-100953690D01*
X130635000Y-100953690D01*
X130635000Y-101544250D01*
X130793750Y-101703000D01*
X131893000Y-101703000D01*
X131893000Y-100603750D01*
X132147000Y-100603750D01*
X132147000Y-101703000D01*
X133246250Y-101703000D01*
X133405000Y-101544250D01*
X133405000Y-100953690D01*
X133308327Y-100720301D01*
X133129698Y-100541673D01*
X132896309Y-100445000D01*
X132305750Y-100445000D01*
X132147000Y-100603750D01*
X131893000Y-100603750D01*
X131734250Y-100445000D01*
X131143691Y-100445000D01*
X130910302Y-100541673D01*
X130731673Y-100720301D01*
X130635000Y-100953690D01*
X126612533Y-100953690D01*
X126679072Y-100887151D01*
X126779074Y-100645727D01*
X133164054Y-94260748D01*
X133227510Y-94218348D01*
X133294440Y-94118181D01*
X133309170Y-94096135D01*
X133867071Y-94096135D01*
X134205723Y-94028773D01*
X134492818Y-93836942D01*
X134561806Y-93733695D01*
X136451458Y-93733695D01*
X136468718Y-93737128D01*
X136523935Y-93760000D01*
X136866065Y-93760000D01*
X137182151Y-93629072D01*
X137379571Y-93431652D01*
X137379572Y-99140625D01*
X136049272Y-100470927D01*
X135807849Y-100570928D01*
X135565928Y-100812849D01*
X135435000Y-101128935D01*
X135435000Y-101340000D01*
X135278935Y-101340000D01*
X134962849Y-101470928D01*
X134720928Y-101712849D01*
X134590000Y-102028935D01*
X134590000Y-102371065D01*
X134720928Y-102687151D01*
X134962849Y-102929072D01*
X135254892Y-103050041D01*
X135353463Y-103115904D01*
X135400449Y-103125250D01*
X136159671Y-103884473D01*
X136202071Y-103947929D01*
X136453463Y-104115904D01*
X136675148Y-104160000D01*
X136675152Y-104160000D01*
X136750000Y-104174888D01*
X136824848Y-104160000D01*
X140832515Y-104160000D01*
X141073935Y-104260000D01*
X141416065Y-104260000D01*
X141732151Y-104129072D01*
X141974072Y-103887151D01*
X141999057Y-103826832D01*
X142036753Y-103883247D01*
X142215417Y-104002626D01*
X142234097Y-104096537D01*
X142343320Y-104260000D01*
X142402072Y-104347929D01*
X142465527Y-104390328D01*
X142670927Y-104595729D01*
X142770928Y-104837151D01*
X143012849Y-105079072D01*
X143328935Y-105210000D01*
X143671065Y-105210000D01*
X143987151Y-105079072D01*
X144229072Y-104837151D01*
X144360000Y-104521065D01*
X144360000Y-104178935D01*
X144339730Y-104130000D01*
X144414250Y-104130000D01*
X144573000Y-103971250D01*
X144573000Y-103147000D01*
X144827000Y-103147000D01*
X144827000Y-103971250D01*
X144985750Y-104130000D01*
X145351309Y-104130000D01*
X145584698Y-104033327D01*
X145763327Y-103854699D01*
X145860000Y-103621310D01*
X145860000Y-103305750D01*
X145701250Y-103147000D01*
X144827000Y-103147000D01*
X144573000Y-103147000D01*
X144553000Y-103147000D01*
X144553000Y-102893000D01*
X144573000Y-102893000D01*
X144573000Y-102068750D01*
X144827000Y-102068750D01*
X144827000Y-102893000D01*
X145701250Y-102893000D01*
X145860000Y-102734250D01*
X145860000Y-102418690D01*
X145763327Y-102185301D01*
X145584698Y-102006673D01*
X145351309Y-101910000D01*
X144985750Y-101910000D01*
X144827000Y-102068750D01*
X144573000Y-102068750D01*
X144414250Y-101910000D01*
X144048691Y-101910000D01*
X143815302Y-102006673D01*
X143744540Y-102077435D01*
X143576152Y-101964922D01*
X143237500Y-101897560D01*
X142902362Y-101897560D01*
X142350331Y-101345530D01*
X142307929Y-101282071D01*
X142056537Y-101114096D01*
X141834852Y-101070000D01*
X141834847Y-101070000D01*
X141760000Y-101055112D01*
X141685153Y-101070000D01*
X141215451Y-101070000D01*
X141168157Y-100832235D01*
X141027809Y-100622191D01*
X140817765Y-100481843D01*
X140570000Y-100432560D01*
X139070000Y-100432560D01*
X138822235Y-100481843D01*
X138612191Y-100622191D01*
X138471843Y-100832235D01*
X138422560Y-101080000D01*
X138422560Y-102580000D01*
X138434495Y-102640000D01*
X137064802Y-102640000D01*
X136550024Y-102125223D01*
X136782151Y-102029072D01*
X137024072Y-101787151D01*
X137124073Y-101545728D01*
X138624047Y-100045756D01*
X138687500Y-100003358D01*
X138729898Y-99939905D01*
X138729900Y-99939903D01*
X138855474Y-99751967D01*
X138855475Y-99751966D01*
X138899571Y-99530281D01*
X138899571Y-99530277D01*
X138914459Y-99455430D01*
X138899571Y-99380583D01*
X138899571Y-95760000D01*
X139068554Y-95760000D01*
X139040000Y-95828935D01*
X139040000Y-96171065D01*
X139170928Y-96487151D01*
X139412849Y-96729072D01*
X139728935Y-96860000D01*
X140071065Y-96860000D01*
X140387151Y-96729072D01*
X140629072Y-96487151D01*
X140760000Y-96171065D01*
X140760000Y-95828935D01*
X140629072Y-95512849D01*
X140610000Y-95493777D01*
X140610000Y-95362579D01*
X140646324Y-95416942D01*
X140933419Y-95608773D01*
X141272071Y-95676135D01*
X141747071Y-95676135D01*
X142085723Y-95608773D01*
X142309571Y-95459202D01*
X142533419Y-95608773D01*
X142872071Y-95676135D01*
X143207209Y-95676135D01*
X143365527Y-95834453D01*
X143365530Y-95834455D01*
X143365545Y-95834470D01*
X143407947Y-95897929D01*
X143471406Y-95940331D01*
X144671403Y-97140329D01*
X144671406Y-97140331D01*
X144765545Y-97234470D01*
X144807947Y-97297929D01*
X144871405Y-97340331D01*
X147615549Y-100084476D01*
X147657947Y-100147929D01*
X147721400Y-100190327D01*
X147721402Y-100190329D01*
X147807832Y-100248079D01*
X147909339Y-100315904D01*
X148131024Y-100360000D01*
X148131028Y-100360000D01*
X148205875Y-100374888D01*
X148280722Y-100360000D01*
X148854867Y-100360000D01*
X149057074Y-100562207D01*
X149474234Y-100735000D01*
X149925766Y-100735000D01*
X150342926Y-100562207D01*
X150486037Y-100419097D01*
X150573274Y-100506334D01*
X150689501Y-100390107D01*
X150726648Y-100605217D01*
X151154972Y-100748112D01*
X151605375Y-100716217D01*
X151873352Y-100605217D01*
X151910499Y-100390104D01*
X151300000Y-99779605D01*
X151285858Y-99793748D01*
X151106253Y-99614143D01*
X151120395Y-99600000D01*
X151479605Y-99600000D01*
X152090104Y-100210499D01*
X152305217Y-100173352D01*
X152448112Y-99745028D01*
X152416217Y-99294625D01*
X152305217Y-99026648D01*
X152090104Y-98989501D01*
X151479605Y-99600000D01*
X151120395Y-99600000D01*
X151106253Y-99585858D01*
X151285858Y-99406253D01*
X151300000Y-99420395D01*
X151910499Y-98809896D01*
X151873352Y-98594783D01*
X151445028Y-98451888D01*
X150994625Y-98483783D01*
X150726648Y-98594783D01*
X150689501Y-98809893D01*
X150573274Y-98693666D01*
X150486037Y-98780904D01*
X150342926Y-98637793D01*
X149925766Y-98465000D01*
X149474234Y-98465000D01*
X149057074Y-98637793D01*
X148854867Y-98840000D01*
X148520679Y-98840000D01*
X147190678Y-97510000D01*
X148537515Y-97510000D01*
X148778935Y-97610000D01*
X149121065Y-97610000D01*
X149437151Y-97479072D01*
X149679072Y-97237151D01*
X149810000Y-96921065D01*
X149810000Y-96578935D01*
X149679072Y-96262849D01*
X149437151Y-96020928D01*
X149121065Y-95890000D01*
X148778935Y-95890000D01*
X148537515Y-95990000D01*
X145826223Y-95990000D01*
X145979072Y-95837151D01*
X146110000Y-95521065D01*
X146110000Y-95178935D01*
X145979072Y-94862849D01*
X145737151Y-94620928D01*
X145421065Y-94490000D01*
X145078935Y-94490000D01*
X144837515Y-94590000D01*
X144364063Y-94590000D01*
X144768521Y-94185543D01*
X145103659Y-94185543D01*
X145442311Y-94118181D01*
X145610699Y-94005668D01*
X145681461Y-94076430D01*
X145914850Y-94173103D01*
X146280409Y-94173103D01*
X146439159Y-94014353D01*
X146439159Y-93190103D01*
X146693159Y-93190103D01*
X146693159Y-94014353D01*
X146851909Y-94173103D01*
X147217468Y-94173103D01*
X147450857Y-94076430D01*
X147629486Y-93897802D01*
X147726159Y-93664413D01*
X147726159Y-93348853D01*
X147567409Y-93190103D01*
X146693159Y-93190103D01*
X146439159Y-93190103D01*
X146419159Y-93190103D01*
X146419159Y-92936103D01*
X146439159Y-92936103D01*
X146439159Y-92111853D01*
X146693159Y-92111853D01*
X146693159Y-92936103D01*
X147567409Y-92936103D01*
X147726159Y-92777353D01*
X147726159Y-92461793D01*
X147629486Y-92228404D01*
X147450857Y-92049776D01*
X147217468Y-91953103D01*
X146851909Y-91953103D01*
X146693159Y-92111853D01*
X146439159Y-92111853D01*
X146280409Y-91953103D01*
X145914850Y-91953103D01*
X145681461Y-92049776D01*
X145610699Y-92120538D01*
X145442311Y-92008025D01*
X145399571Y-91999523D01*
X145399571Y-90886236D01*
X145412011Y-90823695D01*
X145412011Y-89860000D01*
X146135199Y-89860000D01*
X147961680Y-91686482D01*
G36*
X128990000Y-70378935D02*
X128990000Y-70721065D01*
X129090001Y-70962487D01*
X129090000Y-74249275D01*
X129075112Y-74324122D01*
X129090000Y-74398969D01*
X129090000Y-74398973D01*
X129134096Y-74620658D01*
X129302071Y-74872051D01*
X129365530Y-74914453D01*
X133625389Y-79174312D01*
X133587515Y-79190000D01*
X131460000Y-79190000D01*
X131460000Y-79078935D01*
X131329072Y-78762849D01*
X131087151Y-78520928D01*
X130771065Y-78390000D01*
X130428935Y-78390000D01*
X130112849Y-78520928D01*
X129870928Y-78762849D01*
X129770927Y-79004271D01*
X126465528Y-82309671D01*
X126402072Y-82352071D01*
X126359672Y-82415527D01*
X126359671Y-82415528D01*
X126234097Y-82603463D01*
X126175112Y-82900000D01*
X126190001Y-82974852D01*
X126190000Y-86437515D01*
X126090000Y-86678935D01*
X126090000Y-87021065D01*
X126220928Y-87337151D01*
X126462849Y-87579072D01*
X126778935Y-87710000D01*
X127121065Y-87710000D01*
X127437151Y-87579072D01*
X127440000Y-87576223D01*
X127440000Y-88685198D01*
X126904272Y-89220927D01*
X126662849Y-89320928D01*
X126420928Y-89562849D01*
X126290000Y-89878935D01*
X126290000Y-90221065D01*
X126390000Y-90462485D01*
X126390000Y-90624155D01*
X126375112Y-90699002D01*
X126390000Y-90773849D01*
X126390000Y-90773853D01*
X126434096Y-90995538D01*
X126602071Y-91246931D01*
X126665530Y-91289333D01*
X128834364Y-93458168D01*
X128876764Y-93521624D01*
X128940220Y-93564024D01*
X129128155Y-93689599D01*
X129145148Y-93692979D01*
X129349841Y-93733695D01*
X129349845Y-93733695D01*
X129424693Y-93748583D01*
X129499541Y-93733695D01*
X130008739Y-93733695D01*
X129990000Y-93778935D01*
X129990000Y-94121065D01*
X130120928Y-94437151D01*
X130362849Y-94679072D01*
X130527801Y-94747398D01*
X126034999Y-99240200D01*
X126034999Y-77739802D01*
X128264802Y-75510000D01*
X128266065Y-75510000D01*
X128582151Y-75379072D01*
X128824072Y-75137151D01*
X128955000Y-74821065D01*
X128955000Y-74478935D01*
X128824072Y-74162849D01*
X128582151Y-73920928D01*
X128266065Y-73790000D01*
X127923935Y-73790000D01*
X127607849Y-73920928D01*
X127365928Y-74162849D01*
X127297747Y-74327451D01*
X124790527Y-76834672D01*
X124727071Y-76877072D01*
X124684671Y-76940528D01*
X124684670Y-76940529D01*
X124559096Y-77128464D01*
X124556801Y-77140000D01*
X124378935Y-77140000D01*
X124062849Y-77270928D01*
X123820928Y-77512849D01*
X123690000Y-77828935D01*
X123690000Y-78171065D01*
X123790000Y-78412485D01*
X123790001Y-102285196D01*
X122760000Y-103315199D01*
X122760000Y-76564801D01*
X129021207Y-70303595D01*
X128990000Y-70378935D01*
X128990000Y-70378935D01*
G37*
X128990000Y-70378935D02*
X128990000Y-70721065D01*
X129090001Y-70962487D01*
X129090000Y-74249275D01*
X129075112Y-74324122D01*
X129090000Y-74398969D01*
X129090000Y-74398973D01*
X129134096Y-74620658D01*
X129302071Y-74872051D01*
X129365530Y-74914453D01*
X133625389Y-79174312D01*
X133587515Y-79190000D01*
X131460000Y-79190000D01*
X131460000Y-79078935D01*
X131329072Y-78762849D01*
X131087151Y-78520928D01*
X130771065Y-78390000D01*
X130428935Y-78390000D01*
X130112849Y-78520928D01*
X129870928Y-78762849D01*
X129770927Y-79004271D01*
X126465528Y-82309671D01*
X126402072Y-82352071D01*
X126359672Y-82415527D01*
X126359671Y-82415528D01*
X126234097Y-82603463D01*
X126175112Y-82900000D01*
X126190001Y-82974852D01*
X126190000Y-86437515D01*
X126090000Y-86678935D01*
X126090000Y-87021065D01*
X126220928Y-87337151D01*
X126462849Y-87579072D01*
X126778935Y-87710000D01*
X127121065Y-87710000D01*
X127437151Y-87579072D01*
X127440000Y-87576223D01*
X127440000Y-88685198D01*
X126904272Y-89220927D01*
X126662849Y-89320928D01*
X126420928Y-89562849D01*
X126290000Y-89878935D01*
X126290000Y-90221065D01*
X126390000Y-90462485D01*
X126390000Y-90624155D01*
X126375112Y-90699002D01*
X126390000Y-90773849D01*
X126390000Y-90773853D01*
X126434096Y-90995538D01*
X126602071Y-91246931D01*
X126665530Y-91289333D01*
X128834364Y-93458168D01*
X128876764Y-93521624D01*
X128940220Y-93564024D01*
X129128155Y-93689599D01*
X129145148Y-93692979D01*
X129349841Y-93733695D01*
X129349845Y-93733695D01*
X129424693Y-93748583D01*
X129499541Y-93733695D01*
X130008739Y-93733695D01*
X129990000Y-93778935D01*
X129990000Y-94121065D01*
X130120928Y-94437151D01*
X130362849Y-94679072D01*
X130527801Y-94747398D01*
X126034999Y-99240200D01*
X126034999Y-77739802D01*
X128264802Y-75510000D01*
X128266065Y-75510000D01*
X128582151Y-75379072D01*
X128824072Y-75137151D01*
X128955000Y-74821065D01*
X128955000Y-74478935D01*
X128824072Y-74162849D01*
X128582151Y-73920928D01*
X128266065Y-73790000D01*
X127923935Y-73790000D01*
X127607849Y-73920928D01*
X127365928Y-74162849D01*
X127297747Y-74327451D01*
X124790527Y-76834672D01*
X124727071Y-76877072D01*
X124684671Y-76940528D01*
X124684670Y-76940529D01*
X124559096Y-77128464D01*
X124556801Y-77140000D01*
X124378935Y-77140000D01*
X124062849Y-77270928D01*
X123820928Y-77512849D01*
X123690000Y-77828935D01*
X123690000Y-78171065D01*
X123790000Y-78412485D01*
X123790001Y-102285196D01*
X122760000Y-103315199D01*
X122760000Y-76564801D01*
X129021207Y-70303595D01*
X128990000Y-70378935D01*
G36*
X120764916Y-78431846D02*
X121235084Y-78431846D01*
X121240001Y-78429809D01*
X121240000Y-100070190D01*
X121235084Y-100068154D01*
X120764916Y-100068154D01*
X120627000Y-100125281D01*
X120627000Y-78374719D01*
X120764916Y-78431846D01*
X120764916Y-78431846D01*
G37*
X120764916Y-78431846D02*
X121235084Y-78431846D01*
X121240001Y-78429809D01*
X121240000Y-100070190D01*
X121235084Y-100068154D01*
X120764916Y-100068154D01*
X120627000Y-100125281D01*
X120627000Y-78374719D01*
X120764916Y-78431846D01*
G36*
X128885000Y-90124851D02*
X128885001Y-90124854D01*
X128885001Y-90490197D01*
X128704271Y-90670927D01*
X128462849Y-90770928D01*
X128379788Y-90853989D01*
X127932929Y-90407130D01*
X127979073Y-90295728D01*
X128684473Y-89590329D01*
X128747929Y-89547929D01*
X128885000Y-89342788D01*
X128885000Y-90124851D01*
X128885000Y-90124851D01*
G37*
X128885000Y-90124851D02*
X128885001Y-90124854D01*
X128885001Y-90490197D01*
X128704271Y-90670927D01*
X128462849Y-90770928D01*
X128379788Y-90853989D01*
X127932929Y-90407130D01*
X127979073Y-90295728D01*
X128684473Y-89590329D01*
X128747929Y-89547929D01*
X128885000Y-89342788D01*
X128885000Y-90124851D01*
G36*
X133526571Y-90136695D02*
X133546571Y-90136695D01*
X133546571Y-90390695D01*
X133526571Y-90390695D01*
X133526571Y-90410695D01*
X133272571Y-90410695D01*
X133272571Y-90390695D01*
X133252571Y-90390695D01*
X133252571Y-90136695D01*
X133272571Y-90136695D01*
X133272571Y-90116695D01*
X133526571Y-90116695D01*
X133526571Y-90136695D01*
X133526571Y-90136695D01*
G37*
X133526571Y-90136695D02*
X133546571Y-90136695D01*
X133546571Y-90390695D01*
X133526571Y-90390695D01*
X133526571Y-90410695D01*
X133272571Y-90410695D01*
X133272571Y-90390695D01*
X133252571Y-90390695D01*
X133252571Y-90136695D01*
X133272571Y-90136695D01*
X133272571Y-90116695D01*
X133526571Y-90116695D01*
X133526571Y-90136695D01*
G36*
X134689571Y-89146135D02*
X135379063Y-89146135D01*
X134388506Y-90136693D01*
X134350823Y-90136693D01*
X134509571Y-89977945D01*
X134509571Y-89612386D01*
X134412898Y-89378997D01*
X134342136Y-89308235D01*
X134454649Y-89139847D01*
X134455873Y-89133695D01*
X134627030Y-89133695D01*
X134689571Y-89146135D01*
X134689571Y-89146135D01*
G37*
X134689571Y-89146135D02*
X135379063Y-89146135D01*
X134388506Y-90136693D01*
X134350823Y-90136693D01*
X134509571Y-89977945D01*
X134509571Y-89612386D01*
X134412898Y-89378997D01*
X134342136Y-89308235D01*
X134454649Y-89139847D01*
X134455873Y-89133695D01*
X134627030Y-89133695D01*
X134689571Y-89146135D01*
G36*
X131590000Y-81671065D02*
X131720928Y-81987151D01*
X131962849Y-82229072D01*
X132278935Y-82360000D01*
X132405241Y-82360000D01*
X132386244Y-82378997D01*
X132289571Y-82612386D01*
X132289571Y-82977945D01*
X132448321Y-83136695D01*
X133272571Y-83136695D01*
X133272571Y-83116695D01*
X133526571Y-83116695D01*
X133526571Y-83136695D01*
X133546571Y-83136695D01*
X133546571Y-83390695D01*
X133526571Y-83390695D01*
X133526571Y-83410695D01*
X133272571Y-83410695D01*
X133272571Y-83390695D01*
X132448321Y-83390695D01*
X132289571Y-83549445D01*
X132289571Y-83915004D01*
X132386244Y-84148393D01*
X132564872Y-84327022D01*
X132798261Y-84423695D01*
X132934542Y-84423695D01*
X132695388Y-84662849D01*
X132564460Y-84978935D01*
X132564460Y-85321065D01*
X132695388Y-85637151D01*
X132937309Y-85879072D01*
X133178732Y-85979073D01*
X133439658Y-86240000D01*
X133113638Y-86240000D01*
X133038791Y-86225112D01*
X132963944Y-86240000D01*
X132963940Y-86240000D01*
X132742255Y-86284096D01*
X132490863Y-86452071D01*
X132448463Y-86515527D01*
X131943221Y-87020770D01*
X131943215Y-87020774D01*
X131629264Y-87334726D01*
X131294126Y-87334726D01*
X131110000Y-87371351D01*
X131110000Y-85501223D01*
X131174072Y-85437151D01*
X131305000Y-85121065D01*
X131305000Y-84778935D01*
X131174072Y-84462849D01*
X130932151Y-84220928D01*
X130616065Y-84090000D01*
X130405000Y-84090000D01*
X130405000Y-84088103D01*
X130934473Y-83558631D01*
X130997929Y-83516231D01*
X131165904Y-83264839D01*
X131210000Y-83043154D01*
X131210000Y-83043149D01*
X131224888Y-82968302D01*
X131210000Y-82893455D01*
X131210000Y-81583083D01*
X131375928Y-81417156D01*
X131590000Y-81417156D01*
X131590000Y-81671065D01*
X131590000Y-81671065D01*
G37*
X131590000Y-81671065D02*
X131720928Y-81987151D01*
X131962849Y-82229072D01*
X132278935Y-82360000D01*
X132405241Y-82360000D01*
X132386244Y-82378997D01*
X132289571Y-82612386D01*
X132289571Y-82977945D01*
X132448321Y-83136695D01*
X133272571Y-83136695D01*
X133272571Y-83116695D01*
X133526571Y-83116695D01*
X133526571Y-83136695D01*
X133546571Y-83136695D01*
X133546571Y-83390695D01*
X133526571Y-83390695D01*
X133526571Y-83410695D01*
X133272571Y-83410695D01*
X133272571Y-83390695D01*
X132448321Y-83390695D01*
X132289571Y-83549445D01*
X132289571Y-83915004D01*
X132386244Y-84148393D01*
X132564872Y-84327022D01*
X132798261Y-84423695D01*
X132934542Y-84423695D01*
X132695388Y-84662849D01*
X132564460Y-84978935D01*
X132564460Y-85321065D01*
X132695388Y-85637151D01*
X132937309Y-85879072D01*
X133178732Y-85979073D01*
X133439658Y-86240000D01*
X133113638Y-86240000D01*
X133038791Y-86225112D01*
X132963944Y-86240000D01*
X132963940Y-86240000D01*
X132742255Y-86284096D01*
X132490863Y-86452071D01*
X132448463Y-86515527D01*
X131943221Y-87020770D01*
X131943215Y-87020774D01*
X131629264Y-87334726D01*
X131294126Y-87334726D01*
X131110000Y-87371351D01*
X131110000Y-85501223D01*
X131174072Y-85437151D01*
X131305000Y-85121065D01*
X131305000Y-84778935D01*
X131174072Y-84462849D01*
X130932151Y-84220928D01*
X130616065Y-84090000D01*
X130405000Y-84090000D01*
X130405000Y-84088103D01*
X130934473Y-83558631D01*
X130997929Y-83516231D01*
X131165904Y-83264839D01*
X131210000Y-83043154D01*
X131210000Y-83043149D01*
X131224888Y-82968302D01*
X131210000Y-82893455D01*
X131210000Y-81583083D01*
X131375928Y-81417156D01*
X131590000Y-81417156D01*
X131590000Y-81671065D01*
G36*
X150061000Y-83291000D02*
X150041000Y-83291000D01*
X150041000Y-84115250D01*
X150199750Y-84274000D01*
X150565309Y-84274000D01*
X150798698Y-84177327D01*
X150977327Y-83998699D01*
X150982330Y-83986622D01*
X151390183Y-84394476D01*
X151432581Y-84457929D01*
X151496034Y-84500327D01*
X151496036Y-84500329D01*
X151613679Y-84578935D01*
X151683973Y-84625904D01*
X151786373Y-84646273D01*
X151690000Y-84878935D01*
X151690000Y-85221065D01*
X151820928Y-85537151D01*
X152062849Y-85779072D01*
X152378935Y-85910000D01*
X152721065Y-85910000D01*
X152962485Y-85810000D01*
X153335199Y-85810000D01*
X153434668Y-85909469D01*
X153468507Y-85960113D01*
X153440000Y-86028935D01*
X153440000Y-86113695D01*
X147714136Y-86113695D01*
X147737011Y-85998695D01*
X147737011Y-85748695D01*
X147712147Y-85623695D01*
X147737011Y-85498695D01*
X147737011Y-85248695D01*
X147712147Y-85123695D01*
X147737011Y-84998695D01*
X147737011Y-84748695D01*
X147712147Y-84623695D01*
X147737011Y-84498695D01*
X147737011Y-84258694D01*
X147876500Y-84286440D01*
X148451500Y-84286440D01*
X148790152Y-84219078D01*
X148958540Y-84106565D01*
X149029302Y-84177327D01*
X149262691Y-84274000D01*
X149628250Y-84274000D01*
X149787000Y-84115250D01*
X149787000Y-83291000D01*
X149767000Y-83291000D01*
X149767000Y-83123990D01*
X150061000Y-83123990D01*
X150061000Y-83291000D01*
X150061000Y-83291000D01*
G37*
X150061000Y-83291000D02*
X150041000Y-83291000D01*
X150041000Y-84115250D01*
X150199750Y-84274000D01*
X150565309Y-84274000D01*
X150798698Y-84177327D01*
X150977327Y-83998699D01*
X150982330Y-83986622D01*
X151390183Y-84394476D01*
X151432581Y-84457929D01*
X151496034Y-84500327D01*
X151496036Y-84500329D01*
X151613679Y-84578935D01*
X151683973Y-84625904D01*
X151786373Y-84646273D01*
X151690000Y-84878935D01*
X151690000Y-85221065D01*
X151820928Y-85537151D01*
X152062849Y-85779072D01*
X152378935Y-85910000D01*
X152721065Y-85910000D01*
X152962485Y-85810000D01*
X153335199Y-85810000D01*
X153434668Y-85909469D01*
X153468507Y-85960113D01*
X153440000Y-86028935D01*
X153440000Y-86113695D01*
X147714136Y-86113695D01*
X147737011Y-85998695D01*
X147737011Y-85748695D01*
X147712147Y-85623695D01*
X147737011Y-85498695D01*
X147737011Y-85248695D01*
X147712147Y-85123695D01*
X147737011Y-84998695D01*
X147737011Y-84748695D01*
X147712147Y-84623695D01*
X147737011Y-84498695D01*
X147737011Y-84258694D01*
X147876500Y-84286440D01*
X148451500Y-84286440D01*
X148790152Y-84219078D01*
X148958540Y-84106565D01*
X149029302Y-84177327D01*
X149262691Y-84274000D01*
X149628250Y-84274000D01*
X149787000Y-84115250D01*
X149787000Y-83291000D01*
X149767000Y-83291000D01*
X149767000Y-83123990D01*
X150061000Y-83123990D01*
X150061000Y-83291000D01*
G36*
X167498079Y-66580538D02*
X167318154Y-67014916D01*
X167318154Y-67485084D01*
X167498079Y-67919462D01*
X167830538Y-68251921D01*
X168264916Y-68431846D01*
X168373000Y-68431846D01*
X168373000Y-76068154D01*
X168264916Y-76068154D01*
X167830538Y-76248079D01*
X167498079Y-76580538D01*
X167318154Y-77014916D01*
X167318154Y-77485084D01*
X167498079Y-77919462D01*
X167830538Y-78251921D01*
X168264916Y-78431846D01*
X168373000Y-78431846D01*
X168373000Y-85348197D01*
X164060000Y-81035199D01*
X164060000Y-71112485D01*
X164160000Y-70871065D01*
X164160000Y-70528935D01*
X164029072Y-70212849D01*
X163787151Y-69970928D01*
X163471065Y-69840000D01*
X163128935Y-69840000D01*
X162812849Y-69970928D01*
X162570928Y-70212849D01*
X162440000Y-70528935D01*
X162440000Y-70871065D01*
X162540001Y-71112487D01*
X162540000Y-81221197D01*
X160398466Y-79079663D01*
X160356064Y-79016204D01*
X160104672Y-78848229D01*
X159882987Y-78804133D01*
X159882982Y-78804133D01*
X159808135Y-78789245D01*
X159733288Y-78804133D01*
X158372740Y-78804133D01*
X158372740Y-78687130D01*
X158213992Y-78687130D01*
X158372740Y-78528382D01*
X158372740Y-78262822D01*
X158326474Y-78151126D01*
X158393506Y-77814132D01*
X158311238Y-77400541D01*
X158076957Y-77049915D01*
X157726331Y-76815634D01*
X157417138Y-76754132D01*
X157208342Y-76754132D01*
X156899149Y-76815634D01*
X156788362Y-76889660D01*
X156602805Y-76794578D01*
X156439740Y-76920504D01*
X156439740Y-77212720D01*
X156314242Y-77400541D01*
X156243909Y-77754132D01*
X156208342Y-77754132D01*
X155899149Y-77815634D01*
X155711328Y-77941132D01*
X155420483Y-77941132D01*
X155293200Y-78104194D01*
X155338586Y-78213785D01*
X155229073Y-78104272D01*
X155129072Y-77862849D01*
X154887151Y-77620928D01*
X154653317Y-77524070D01*
X155293200Y-77524070D01*
X155420483Y-77687132D01*
X156185740Y-77687132D01*
X156185740Y-76920504D01*
X156022675Y-76794578D01*
X155654588Y-76983190D01*
X155386699Y-77298306D01*
X155293200Y-77524070D01*
X154653317Y-77524070D01*
X154571065Y-77490000D01*
X154228935Y-77490000D01*
X153912849Y-77620928D01*
X153670928Y-77862849D01*
X153540000Y-78178935D01*
X153540000Y-78521065D01*
X153542041Y-78525993D01*
X153312849Y-78620928D01*
X153070928Y-78862849D01*
X152940000Y-79178935D01*
X152940000Y-79521065D01*
X153040001Y-79762487D01*
X153040000Y-80879155D01*
X153025112Y-80954002D01*
X153040000Y-81028849D01*
X153040000Y-81028853D01*
X153084096Y-81250538D01*
X153252071Y-81501931D01*
X153315530Y-81544333D01*
X154330669Y-82559473D01*
X154373070Y-82622930D01*
X154624462Y-82790905D01*
X154631828Y-82792370D01*
X154614209Y-82809990D01*
X152734793Y-82809990D01*
X151314026Y-81389225D01*
X151271624Y-81325766D01*
X151020232Y-81157791D01*
X150798547Y-81113695D01*
X150798542Y-81113695D01*
X150723695Y-81098807D01*
X150648848Y-81113695D01*
X149382011Y-81113695D01*
X149382011Y-80861056D01*
X150534473Y-79708595D01*
X150597929Y-79666195D01*
X150765904Y-79414803D01*
X150810000Y-79193118D01*
X150810000Y-79193113D01*
X150824888Y-79118266D01*
X150810000Y-79043419D01*
X150810000Y-77260000D01*
X153475153Y-77260000D01*
X153550000Y-77274888D01*
X153624847Y-77260000D01*
X153624852Y-77260000D01*
X153846537Y-77215904D01*
X154097929Y-77047929D01*
X154140331Y-76984470D01*
X158045729Y-73079073D01*
X158287151Y-72979072D01*
X158529072Y-72737151D01*
X158660000Y-72421065D01*
X158660000Y-72078935D01*
X158529072Y-71762849D01*
X158287151Y-71520928D01*
X157971065Y-71390000D01*
X157628935Y-71390000D01*
X157312849Y-71520928D01*
X157070928Y-71762849D01*
X156970927Y-72004271D01*
X153235199Y-75740000D01*
X151086896Y-75740000D01*
X157986568Y-68840329D01*
X158050024Y-68797929D01*
X158096644Y-68728157D01*
X158914802Y-67910000D01*
X159487515Y-67910000D01*
X159728935Y-68010000D01*
X160071065Y-68010000D01*
X160387151Y-67879072D01*
X160629072Y-67637151D01*
X160760000Y-67321065D01*
X160760000Y-66978935D01*
X160629072Y-66662849D01*
X160387151Y-66420928D01*
X160281100Y-66377000D01*
X167701617Y-66377000D01*
X167498079Y-66580538D01*
X167498079Y-66580538D01*
G37*
X167498079Y-66580538D02*
X167318154Y-67014916D01*
X167318154Y-67485084D01*
X167498079Y-67919462D01*
X167830538Y-68251921D01*
X168264916Y-68431846D01*
X168373000Y-68431846D01*
X168373000Y-76068154D01*
X168264916Y-76068154D01*
X167830538Y-76248079D01*
X167498079Y-76580538D01*
X167318154Y-77014916D01*
X167318154Y-77485084D01*
X167498079Y-77919462D01*
X167830538Y-78251921D01*
X168264916Y-78431846D01*
X168373000Y-78431846D01*
X168373000Y-85348197D01*
X164060000Y-81035199D01*
X164060000Y-71112485D01*
X164160000Y-70871065D01*
X164160000Y-70528935D01*
X164029072Y-70212849D01*
X163787151Y-69970928D01*
X163471065Y-69840000D01*
X163128935Y-69840000D01*
X162812849Y-69970928D01*
X162570928Y-70212849D01*
X162440000Y-70528935D01*
X162440000Y-70871065D01*
X162540001Y-71112487D01*
X162540000Y-81221197D01*
X160398466Y-79079663D01*
X160356064Y-79016204D01*
X160104672Y-78848229D01*
X159882987Y-78804133D01*
X159882982Y-78804133D01*
X159808135Y-78789245D01*
X159733288Y-78804133D01*
X158372740Y-78804133D01*
X158372740Y-78687130D01*
X158213992Y-78687130D01*
X158372740Y-78528382D01*
X158372740Y-78262822D01*
X158326474Y-78151126D01*
X158393506Y-77814132D01*
X158311238Y-77400541D01*
X158076957Y-77049915D01*
X157726331Y-76815634D01*
X157417138Y-76754132D01*
X157208342Y-76754132D01*
X156899149Y-76815634D01*
X156788362Y-76889660D01*
X156602805Y-76794578D01*
X156439740Y-76920504D01*
X156439740Y-77212720D01*
X156314242Y-77400541D01*
X156243909Y-77754132D01*
X156208342Y-77754132D01*
X155899149Y-77815634D01*
X155711328Y-77941132D01*
X155420483Y-77941132D01*
X155293200Y-78104194D01*
X155338586Y-78213785D01*
X155229073Y-78104272D01*
X155129072Y-77862849D01*
X154887151Y-77620928D01*
X154653317Y-77524070D01*
X155293200Y-77524070D01*
X155420483Y-77687132D01*
X156185740Y-77687132D01*
X156185740Y-76920504D01*
X156022675Y-76794578D01*
X155654588Y-76983190D01*
X155386699Y-77298306D01*
X155293200Y-77524070D01*
X154653317Y-77524070D01*
X154571065Y-77490000D01*
X154228935Y-77490000D01*
X153912849Y-77620928D01*
X153670928Y-77862849D01*
X153540000Y-78178935D01*
X153540000Y-78521065D01*
X153542041Y-78525993D01*
X153312849Y-78620928D01*
X153070928Y-78862849D01*
X152940000Y-79178935D01*
X152940000Y-79521065D01*
X153040001Y-79762487D01*
X153040000Y-80879155D01*
X153025112Y-80954002D01*
X153040000Y-81028849D01*
X153040000Y-81028853D01*
X153084096Y-81250538D01*
X153252071Y-81501931D01*
X153315530Y-81544333D01*
X154330669Y-82559473D01*
X154373070Y-82622930D01*
X154624462Y-82790905D01*
X154631828Y-82792370D01*
X154614209Y-82809990D01*
X152734793Y-82809990D01*
X151314026Y-81389225D01*
X151271624Y-81325766D01*
X151020232Y-81157791D01*
X150798547Y-81113695D01*
X150798542Y-81113695D01*
X150723695Y-81098807D01*
X150648848Y-81113695D01*
X149382011Y-81113695D01*
X149382011Y-80861056D01*
X150534473Y-79708595D01*
X150597929Y-79666195D01*
X150765904Y-79414803D01*
X150810000Y-79193118D01*
X150810000Y-79193113D01*
X150824888Y-79118266D01*
X150810000Y-79043419D01*
X150810000Y-77260000D01*
X153475153Y-77260000D01*
X153550000Y-77274888D01*
X153624847Y-77260000D01*
X153624852Y-77260000D01*
X153846537Y-77215904D01*
X154097929Y-77047929D01*
X154140331Y-76984470D01*
X158045729Y-73079073D01*
X158287151Y-72979072D01*
X158529072Y-72737151D01*
X158660000Y-72421065D01*
X158660000Y-72078935D01*
X158529072Y-71762849D01*
X158287151Y-71520928D01*
X157971065Y-71390000D01*
X157628935Y-71390000D01*
X157312849Y-71520928D01*
X157070928Y-71762849D01*
X156970927Y-72004271D01*
X153235199Y-75740000D01*
X151086896Y-75740000D01*
X157986568Y-68840329D01*
X158050024Y-68797929D01*
X158096644Y-68728157D01*
X158914802Y-67910000D01*
X159487515Y-67910000D01*
X159728935Y-68010000D01*
X160071065Y-68010000D01*
X160387151Y-67879072D01*
X160629072Y-67637151D01*
X160760000Y-67321065D01*
X160760000Y-66978935D01*
X160629072Y-66662849D01*
X160387151Y-66420928D01*
X160281100Y-66377000D01*
X167701617Y-66377000D01*
X167498079Y-66580538D01*
G36*
X129690000Y-82653500D02*
X129160528Y-83182973D01*
X129097072Y-83225373D01*
X129054672Y-83288829D01*
X129054671Y-83288830D01*
X128965941Y-83421624D01*
X128960000Y-83430515D01*
X128960000Y-83352237D01*
X129690000Y-82622237D01*
X129690000Y-82653500D01*
X129690000Y-82653500D01*
G37*
X129690000Y-82653500D02*
X129160528Y-83182973D01*
X129097072Y-83225373D01*
X129054672Y-83288829D01*
X129054671Y-83288830D01*
X128965941Y-83421624D01*
X128960000Y-83430515D01*
X128960000Y-83352237D01*
X129690000Y-82622237D01*
X129690000Y-82653500D01*
G36*
X148386571Y-79031695D02*
X148406571Y-79031695D01*
X148406571Y-79285695D01*
X148386571Y-79285695D01*
X148386571Y-79305695D01*
X148132571Y-79305695D01*
X148132571Y-79285695D01*
X148112571Y-79285695D01*
X148112571Y-79031695D01*
X148132571Y-79031695D01*
X148132571Y-79011695D01*
X148386571Y-79011695D01*
X148386571Y-79031695D01*
X148386571Y-79031695D01*
G37*
X148386571Y-79031695D02*
X148406571Y-79031695D01*
X148406571Y-79285695D01*
X148386571Y-79285695D01*
X148386571Y-79305695D01*
X148132571Y-79305695D01*
X148132571Y-79285695D01*
X148112571Y-79285695D01*
X148112571Y-79031695D01*
X148132571Y-79031695D01*
X148132571Y-79011695D01*
X148386571Y-79011695D01*
X148386571Y-79031695D01*
G36*
X158525152Y-66390000D02*
X158525148Y-66390000D01*
X158303463Y-66434096D01*
X158052071Y-66602071D01*
X158009671Y-66665527D01*
X157017624Y-67657575D01*
X156954166Y-67699976D01*
X156907547Y-67769746D01*
X152591946Y-72085348D01*
X152479072Y-71812849D01*
X152237151Y-71570928D01*
X151921065Y-71440000D01*
X151578935Y-71440000D01*
X151262849Y-71570928D01*
X151020928Y-71812849D01*
X150890000Y-72128935D01*
X150890000Y-72471065D01*
X151020928Y-72787151D01*
X151040000Y-72806223D01*
X151040001Y-73105908D01*
X146399487Y-77746423D01*
X146340205Y-77786034D01*
X146183280Y-78020887D01*
X146142313Y-78226844D01*
X146128176Y-78297915D01*
X146142085Y-78367839D01*
X146142085Y-78375862D01*
X146037151Y-78270928D01*
X145721065Y-78140000D01*
X145399571Y-78140000D01*
X145399571Y-77711361D01*
X145409787Y-77660000D01*
X145571065Y-77660000D01*
X145887151Y-77529072D01*
X146129072Y-77287151D01*
X146260000Y-76971065D01*
X146260000Y-76628935D01*
X146129072Y-76312849D01*
X145887151Y-76070928D01*
X145571065Y-75940000D01*
X145228935Y-75940000D01*
X144987515Y-76040000D01*
X144740165Y-76040000D01*
X144692311Y-76008025D01*
X144353659Y-75940663D01*
X143778659Y-75940663D01*
X143440007Y-76008025D01*
X143271619Y-76120538D01*
X143200857Y-76049776D01*
X142967468Y-75953103D01*
X142601909Y-75953103D01*
X142443159Y-76111853D01*
X142443159Y-76936103D01*
X142463159Y-76936103D01*
X142463159Y-77190103D01*
X142443159Y-77190103D01*
X142443159Y-77210103D01*
X142189159Y-77210103D01*
X142189159Y-77190103D01*
X142169159Y-77190103D01*
X142169159Y-76936103D01*
X142189159Y-76936103D01*
X142189159Y-76111853D01*
X142030409Y-75953103D01*
X141664850Y-75953103D01*
X141431461Y-76049776D01*
X141252832Y-76228404D01*
X141179529Y-76405372D01*
X141079072Y-76162849D01*
X140837151Y-75920928D01*
X140521065Y-75790000D01*
X140178935Y-75790000D01*
X139862849Y-75920928D01*
X139642194Y-76141583D01*
X139442311Y-76008025D01*
X139103659Y-75940663D01*
X138528659Y-75940663D01*
X138190007Y-76008025D01*
X138021619Y-76120538D01*
X137950857Y-76049776D01*
X137717468Y-75953103D01*
X137351909Y-75953103D01*
X137193159Y-76111853D01*
X137193159Y-76936103D01*
X137213159Y-76936103D01*
X137213159Y-77190103D01*
X137193159Y-77190103D01*
X137193159Y-77210103D01*
X136939159Y-77210103D01*
X136939159Y-77190103D01*
X136919159Y-77190103D01*
X136919159Y-76936103D01*
X136939159Y-76936103D01*
X136939159Y-76111853D01*
X136780409Y-75953103D01*
X136414850Y-75953103D01*
X136410000Y-75955112D01*
X136410000Y-75562485D01*
X136510000Y-75321065D01*
X136510000Y-74978935D01*
X136379072Y-74662849D01*
X136137151Y-74420928D01*
X135821065Y-74290000D01*
X135478935Y-74290000D01*
X135162849Y-74420928D01*
X134920928Y-74662849D01*
X134790000Y-74978935D01*
X134790000Y-75321065D01*
X134890000Y-75562485D01*
X134890001Y-76435197D01*
X134265530Y-77059669D01*
X134202071Y-77102071D01*
X134034096Y-77353464D01*
X134020831Y-77420151D01*
X130610000Y-74009321D01*
X130610000Y-70962485D01*
X130710000Y-70721065D01*
X130710000Y-70378935D01*
X130579072Y-70062849D01*
X130337151Y-69820928D01*
X130021065Y-69690000D01*
X129678935Y-69690000D01*
X129603595Y-69721207D01*
X130181085Y-69143717D01*
X130337151Y-69079072D01*
X130579072Y-68837151D01*
X130710000Y-68521065D01*
X130710000Y-68178935D01*
X130579072Y-67862849D01*
X130337151Y-67620928D01*
X130021065Y-67490000D01*
X129678935Y-67490000D01*
X129362849Y-67620928D01*
X129120928Y-67862849D01*
X128990000Y-68178935D01*
X128990000Y-68185198D01*
X121515528Y-75659671D01*
X121452072Y-75702071D01*
X121409672Y-75765527D01*
X121409671Y-75765528D01*
X121284097Y-75953463D01*
X121259289Y-76078180D01*
X121235084Y-76068154D01*
X120764916Y-76068154D01*
X120627000Y-76125281D01*
X120627000Y-68677865D01*
X120847525Y-68825215D01*
X121500000Y-68955000D01*
X122152475Y-68825215D01*
X122705617Y-68455617D01*
X123075215Y-67902475D01*
X123205000Y-67250000D01*
X123075215Y-66597525D01*
X122927865Y-66377000D01*
X158590507Y-66377000D01*
X158525152Y-66390000D01*
X158525152Y-66390000D01*
G37*
X158525152Y-66390000D02*
X158525148Y-66390000D01*
X158303463Y-66434096D01*
X158052071Y-66602071D01*
X158009671Y-66665527D01*
X157017624Y-67657575D01*
X156954166Y-67699976D01*
X156907547Y-67769746D01*
X152591946Y-72085348D01*
X152479072Y-71812849D01*
X152237151Y-71570928D01*
X151921065Y-71440000D01*
X151578935Y-71440000D01*
X151262849Y-71570928D01*
X151020928Y-71812849D01*
X150890000Y-72128935D01*
X150890000Y-72471065D01*
X151020928Y-72787151D01*
X151040000Y-72806223D01*
X151040001Y-73105908D01*
X146399487Y-77746423D01*
X146340205Y-77786034D01*
X146183280Y-78020887D01*
X146142313Y-78226844D01*
X146128176Y-78297915D01*
X146142085Y-78367839D01*
X146142085Y-78375862D01*
X146037151Y-78270928D01*
X145721065Y-78140000D01*
X145399571Y-78140000D01*
X145399571Y-77711361D01*
X145409787Y-77660000D01*
X145571065Y-77660000D01*
X145887151Y-77529072D01*
X146129072Y-77287151D01*
X146260000Y-76971065D01*
X146260000Y-76628935D01*
X146129072Y-76312849D01*
X145887151Y-76070928D01*
X145571065Y-75940000D01*
X145228935Y-75940000D01*
X144987515Y-76040000D01*
X144740165Y-76040000D01*
X144692311Y-76008025D01*
X144353659Y-75940663D01*
X143778659Y-75940663D01*
X143440007Y-76008025D01*
X143271619Y-76120538D01*
X143200857Y-76049776D01*
X142967468Y-75953103D01*
X142601909Y-75953103D01*
X142443159Y-76111853D01*
X142443159Y-76936103D01*
X142463159Y-76936103D01*
X142463159Y-77190103D01*
X142443159Y-77190103D01*
X142443159Y-77210103D01*
X142189159Y-77210103D01*
X142189159Y-77190103D01*
X142169159Y-77190103D01*
X142169159Y-76936103D01*
X142189159Y-76936103D01*
X142189159Y-76111853D01*
X142030409Y-75953103D01*
X141664850Y-75953103D01*
X141431461Y-76049776D01*
X141252832Y-76228404D01*
X141179529Y-76405372D01*
X141079072Y-76162849D01*
X140837151Y-75920928D01*
X140521065Y-75790000D01*
X140178935Y-75790000D01*
X139862849Y-75920928D01*
X139642194Y-76141583D01*
X139442311Y-76008025D01*
X139103659Y-75940663D01*
X138528659Y-75940663D01*
X138190007Y-76008025D01*
X138021619Y-76120538D01*
X137950857Y-76049776D01*
X137717468Y-75953103D01*
X137351909Y-75953103D01*
X137193159Y-76111853D01*
X137193159Y-76936103D01*
X137213159Y-76936103D01*
X137213159Y-77190103D01*
X137193159Y-77190103D01*
X137193159Y-77210103D01*
X136939159Y-77210103D01*
X136939159Y-77190103D01*
X136919159Y-77190103D01*
X136919159Y-76936103D01*
X136939159Y-76936103D01*
X136939159Y-76111853D01*
X136780409Y-75953103D01*
X136414850Y-75953103D01*
X136410000Y-75955112D01*
X136410000Y-75562485D01*
X136510000Y-75321065D01*
X136510000Y-74978935D01*
X136379072Y-74662849D01*
X136137151Y-74420928D01*
X135821065Y-74290000D01*
X135478935Y-74290000D01*
X135162849Y-74420928D01*
X134920928Y-74662849D01*
X134790000Y-74978935D01*
X134790000Y-75321065D01*
X134890000Y-75562485D01*
X134890001Y-76435197D01*
X134265530Y-77059669D01*
X134202071Y-77102071D01*
X134034096Y-77353464D01*
X134020831Y-77420151D01*
X130610000Y-74009321D01*
X130610000Y-70962485D01*
X130710000Y-70721065D01*
X130710000Y-70378935D01*
X130579072Y-70062849D01*
X130337151Y-69820928D01*
X130021065Y-69690000D01*
X129678935Y-69690000D01*
X129603595Y-69721207D01*
X130181085Y-69143717D01*
X130337151Y-69079072D01*
X130579072Y-68837151D01*
X130710000Y-68521065D01*
X130710000Y-68178935D01*
X130579072Y-67862849D01*
X130337151Y-67620928D01*
X130021065Y-67490000D01*
X129678935Y-67490000D01*
X129362849Y-67620928D01*
X129120928Y-67862849D01*
X128990000Y-68178935D01*
X128990000Y-68185198D01*
X121515528Y-75659671D01*
X121452072Y-75702071D01*
X121409672Y-75765527D01*
X121409671Y-75765528D01*
X121284097Y-75953463D01*
X121259289Y-76078180D01*
X121235084Y-76068154D01*
X120764916Y-76068154D01*
X120627000Y-76125281D01*
X120627000Y-68677865D01*
X120847525Y-68825215D01*
X121500000Y-68955000D01*
X122152475Y-68825215D01*
X122705617Y-68455617D01*
X123075215Y-67902475D01*
X123205000Y-67250000D01*
X123075215Y-66597525D01*
X122927865Y-66377000D01*
X158590507Y-66377000D01*
X158525152Y-66390000D01*
G04 #@! TD*
M02*
