G04 #@! TF.GenerationSoftware,KiCad,Pcbnew,5.0.2-bee76a0~70~ubuntu18.04.1*
G04 #@! TF.CreationDate,2020-07-11T19:39:15-07:00*
G04 #@! TF.ProjectId,light_thing_hw,6c696768-745f-4746-9869-6e675f68772e,rev?*
G04 #@! TF.SameCoordinates,Original*
G04 #@! TF.FileFunction,Paste,Top*
G04 #@! TF.FilePolarity,Positive*
%FSLAX46Y46*%
G04 Gerber Fmt 4.6, Leading zero omitted, Abs format (unit mm)*
G04 Created by KiCad (PCBNEW 5.0.2-bee76a0~70~ubuntu18.04.1) date Sat 11 Jul 2020 07:39:15 PM PDT*
%MOMM*%
%LPD*%
G01*
G04 APERTURE LIST*
%ADD10R,1.010000X1.010000*%
%ADD11R,1.000000X0.250000*%
%ADD12R,0.250000X1.000000*%
%ADD13C,0.100000*%
%ADD14C,0.950000*%
%ADD15R,1.500000X1.500000*%
G04 APERTURE END LIST*
D10*
G04 #@! TO.C,U5A1*
X138289571Y-87223695D03*
X138289571Y-85923695D03*
X138289571Y-84623695D03*
X138289571Y-83323695D03*
X138289571Y-82023695D03*
X139589571Y-87223695D03*
X139589571Y-85923695D03*
X139589571Y-84623695D03*
X139589571Y-83323695D03*
X139589571Y-82023695D03*
X140889571Y-87223695D03*
X140889571Y-85923695D03*
X140889571Y-84623695D03*
X140889571Y-83323695D03*
X140889571Y-82023695D03*
X142189571Y-87223695D03*
X142189571Y-85923695D03*
X142189571Y-84623695D03*
X142189571Y-83323695D03*
X142189571Y-82023695D03*
X143489571Y-87223695D03*
X143489571Y-85923695D03*
X143489571Y-84623695D03*
X143489571Y-83323695D03*
X143489571Y-82023695D03*
D11*
X146589571Y-80873695D03*
X146589571Y-81373695D03*
X146589571Y-81873695D03*
X146589571Y-82373695D03*
X146589571Y-82873695D03*
X146589571Y-83373695D03*
X146589571Y-83873695D03*
X146589571Y-84373695D03*
X146589571Y-84873695D03*
X146589571Y-85373695D03*
X146589571Y-85873695D03*
X146589571Y-86373695D03*
X146589571Y-86873695D03*
X146589571Y-87373695D03*
X146589571Y-87873695D03*
X146589571Y-88373695D03*
D12*
X144639571Y-90323695D03*
X144139571Y-90323695D03*
X143639571Y-90323695D03*
X143139571Y-90323695D03*
X142639571Y-90323695D03*
X142139571Y-90323695D03*
X141639571Y-90323695D03*
X141139571Y-90323695D03*
X140639571Y-90323695D03*
X140139571Y-90323695D03*
X139639571Y-90323695D03*
X139139571Y-90323695D03*
X138639571Y-90323695D03*
X138139571Y-90323695D03*
X137639571Y-90323695D03*
X137139571Y-90323695D03*
D11*
X135189571Y-88373695D03*
X135189571Y-87873695D03*
X135189571Y-87373695D03*
X135189571Y-86873695D03*
X135189571Y-86373695D03*
X135189571Y-85873695D03*
X135189571Y-85373695D03*
X135189571Y-84873695D03*
X135189571Y-84373695D03*
X135189571Y-83873695D03*
X135189571Y-83373695D03*
X135189571Y-82873695D03*
X135189571Y-82373695D03*
X135189571Y-81873695D03*
X135189571Y-81373695D03*
X135189571Y-80873695D03*
D12*
X137139571Y-78923695D03*
X137639571Y-78923695D03*
X138139571Y-78923695D03*
X138639571Y-78923695D03*
X139139571Y-78923695D03*
X139639571Y-78923695D03*
X140139571Y-78923695D03*
X140639571Y-78923695D03*
X141139571Y-78923695D03*
X141639571Y-78923695D03*
X142139571Y-78923695D03*
X142639571Y-78923695D03*
X143139571Y-78923695D03*
X143639571Y-78923695D03*
X144139571Y-78923695D03*
X144639571Y-78923695D03*
G04 #@! TD*
D13*
G04 #@! TO.C,C1*
G36*
X148520350Y-80384839D02*
X148543405Y-80388258D01*
X148566014Y-80393922D01*
X148587958Y-80401774D01*
X148609028Y-80411739D01*
X148629019Y-80423721D01*
X148647739Y-80437605D01*
X148665009Y-80453257D01*
X148680661Y-80470527D01*
X148694545Y-80489247D01*
X148706527Y-80509238D01*
X148716492Y-80530308D01*
X148724344Y-80552252D01*
X148730008Y-80574861D01*
X148733427Y-80597916D01*
X148734571Y-80621195D01*
X148734571Y-81196195D01*
X148733427Y-81219474D01*
X148730008Y-81242529D01*
X148724344Y-81265138D01*
X148716492Y-81287082D01*
X148706527Y-81308152D01*
X148694545Y-81328143D01*
X148680661Y-81346863D01*
X148665009Y-81364133D01*
X148647739Y-81379785D01*
X148629019Y-81393669D01*
X148609028Y-81405651D01*
X148587958Y-81415616D01*
X148566014Y-81423468D01*
X148543405Y-81429132D01*
X148520350Y-81432551D01*
X148497071Y-81433695D01*
X148022071Y-81433695D01*
X147998792Y-81432551D01*
X147975737Y-81429132D01*
X147953128Y-81423468D01*
X147931184Y-81415616D01*
X147910114Y-81405651D01*
X147890123Y-81393669D01*
X147871403Y-81379785D01*
X147854133Y-81364133D01*
X147838481Y-81346863D01*
X147824597Y-81328143D01*
X147812615Y-81308152D01*
X147802650Y-81287082D01*
X147794798Y-81265138D01*
X147789134Y-81242529D01*
X147785715Y-81219474D01*
X147784571Y-81196195D01*
X147784571Y-80621195D01*
X147785715Y-80597916D01*
X147789134Y-80574861D01*
X147794798Y-80552252D01*
X147802650Y-80530308D01*
X147812615Y-80509238D01*
X147824597Y-80489247D01*
X147838481Y-80470527D01*
X147854133Y-80453257D01*
X147871403Y-80437605D01*
X147890123Y-80423721D01*
X147910114Y-80411739D01*
X147931184Y-80401774D01*
X147953128Y-80393922D01*
X147975737Y-80388258D01*
X147998792Y-80384839D01*
X148022071Y-80383695D01*
X148497071Y-80383695D01*
X148520350Y-80384839D01*
X148520350Y-80384839D01*
G37*
D14*
X148259571Y-80908695D03*
D13*
G36*
X148520350Y-78634839D02*
X148543405Y-78638258D01*
X148566014Y-78643922D01*
X148587958Y-78651774D01*
X148609028Y-78661739D01*
X148629019Y-78673721D01*
X148647739Y-78687605D01*
X148665009Y-78703257D01*
X148680661Y-78720527D01*
X148694545Y-78739247D01*
X148706527Y-78759238D01*
X148716492Y-78780308D01*
X148724344Y-78802252D01*
X148730008Y-78824861D01*
X148733427Y-78847916D01*
X148734571Y-78871195D01*
X148734571Y-79446195D01*
X148733427Y-79469474D01*
X148730008Y-79492529D01*
X148724344Y-79515138D01*
X148716492Y-79537082D01*
X148706527Y-79558152D01*
X148694545Y-79578143D01*
X148680661Y-79596863D01*
X148665009Y-79614133D01*
X148647739Y-79629785D01*
X148629019Y-79643669D01*
X148609028Y-79655651D01*
X148587958Y-79665616D01*
X148566014Y-79673468D01*
X148543405Y-79679132D01*
X148520350Y-79682551D01*
X148497071Y-79683695D01*
X148022071Y-79683695D01*
X147998792Y-79682551D01*
X147975737Y-79679132D01*
X147953128Y-79673468D01*
X147931184Y-79665616D01*
X147910114Y-79655651D01*
X147890123Y-79643669D01*
X147871403Y-79629785D01*
X147854133Y-79614133D01*
X147838481Y-79596863D01*
X147824597Y-79578143D01*
X147812615Y-79558152D01*
X147802650Y-79537082D01*
X147794798Y-79515138D01*
X147789134Y-79492529D01*
X147785715Y-79469474D01*
X147784571Y-79446195D01*
X147784571Y-78871195D01*
X147785715Y-78847916D01*
X147789134Y-78824861D01*
X147794798Y-78802252D01*
X147802650Y-78780308D01*
X147812615Y-78759238D01*
X147824597Y-78739247D01*
X147838481Y-78720527D01*
X147854133Y-78703257D01*
X147871403Y-78687605D01*
X147890123Y-78673721D01*
X147910114Y-78661739D01*
X147931184Y-78651774D01*
X147953128Y-78643922D01*
X147975737Y-78638258D01*
X147998792Y-78634839D01*
X148022071Y-78633695D01*
X148497071Y-78633695D01*
X148520350Y-78634839D01*
X148520350Y-78634839D01*
G37*
D14*
X148259571Y-79158695D03*
G04 #@! TD*
D13*
G04 #@! TO.C,C2*
G36*
X146876938Y-92589247D02*
X146899993Y-92592666D01*
X146922602Y-92598330D01*
X146944546Y-92606182D01*
X146965616Y-92616147D01*
X146985607Y-92628129D01*
X147004327Y-92642013D01*
X147021597Y-92657665D01*
X147037249Y-92674935D01*
X147051133Y-92693655D01*
X147063115Y-92713646D01*
X147073080Y-92734716D01*
X147080932Y-92756660D01*
X147086596Y-92779269D01*
X147090015Y-92802324D01*
X147091159Y-92825603D01*
X147091159Y-93300603D01*
X147090015Y-93323882D01*
X147086596Y-93346937D01*
X147080932Y-93369546D01*
X147073080Y-93391490D01*
X147063115Y-93412560D01*
X147051133Y-93432551D01*
X147037249Y-93451271D01*
X147021597Y-93468541D01*
X147004327Y-93484193D01*
X146985607Y-93498077D01*
X146965616Y-93510059D01*
X146944546Y-93520024D01*
X146922602Y-93527876D01*
X146899993Y-93533540D01*
X146876938Y-93536959D01*
X146853659Y-93538103D01*
X146278659Y-93538103D01*
X146255380Y-93536959D01*
X146232325Y-93533540D01*
X146209716Y-93527876D01*
X146187772Y-93520024D01*
X146166702Y-93510059D01*
X146146711Y-93498077D01*
X146127991Y-93484193D01*
X146110721Y-93468541D01*
X146095069Y-93451271D01*
X146081185Y-93432551D01*
X146069203Y-93412560D01*
X146059238Y-93391490D01*
X146051386Y-93369546D01*
X146045722Y-93346937D01*
X146042303Y-93323882D01*
X146041159Y-93300603D01*
X146041159Y-92825603D01*
X146042303Y-92802324D01*
X146045722Y-92779269D01*
X146051386Y-92756660D01*
X146059238Y-92734716D01*
X146069203Y-92713646D01*
X146081185Y-92693655D01*
X146095069Y-92674935D01*
X146110721Y-92657665D01*
X146127991Y-92642013D01*
X146146711Y-92628129D01*
X146166702Y-92616147D01*
X146187772Y-92606182D01*
X146209716Y-92598330D01*
X146232325Y-92592666D01*
X146255380Y-92589247D01*
X146278659Y-92588103D01*
X146853659Y-92588103D01*
X146876938Y-92589247D01*
X146876938Y-92589247D01*
G37*
D14*
X146566159Y-93063103D03*
D13*
G36*
X145126938Y-92589247D02*
X145149993Y-92592666D01*
X145172602Y-92598330D01*
X145194546Y-92606182D01*
X145215616Y-92616147D01*
X145235607Y-92628129D01*
X145254327Y-92642013D01*
X145271597Y-92657665D01*
X145287249Y-92674935D01*
X145301133Y-92693655D01*
X145313115Y-92713646D01*
X145323080Y-92734716D01*
X145330932Y-92756660D01*
X145336596Y-92779269D01*
X145340015Y-92802324D01*
X145341159Y-92825603D01*
X145341159Y-93300603D01*
X145340015Y-93323882D01*
X145336596Y-93346937D01*
X145330932Y-93369546D01*
X145323080Y-93391490D01*
X145313115Y-93412560D01*
X145301133Y-93432551D01*
X145287249Y-93451271D01*
X145271597Y-93468541D01*
X145254327Y-93484193D01*
X145235607Y-93498077D01*
X145215616Y-93510059D01*
X145194546Y-93520024D01*
X145172602Y-93527876D01*
X145149993Y-93533540D01*
X145126938Y-93536959D01*
X145103659Y-93538103D01*
X144528659Y-93538103D01*
X144505380Y-93536959D01*
X144482325Y-93533540D01*
X144459716Y-93527876D01*
X144437772Y-93520024D01*
X144416702Y-93510059D01*
X144396711Y-93498077D01*
X144377991Y-93484193D01*
X144360721Y-93468541D01*
X144345069Y-93451271D01*
X144331185Y-93432551D01*
X144319203Y-93412560D01*
X144309238Y-93391490D01*
X144301386Y-93369546D01*
X144295722Y-93346937D01*
X144292303Y-93323882D01*
X144291159Y-93300603D01*
X144291159Y-92825603D01*
X144292303Y-92802324D01*
X144295722Y-92779269D01*
X144301386Y-92756660D01*
X144309238Y-92734716D01*
X144319203Y-92713646D01*
X144331185Y-92693655D01*
X144345069Y-92674935D01*
X144360721Y-92657665D01*
X144377991Y-92642013D01*
X144396711Y-92628129D01*
X144416702Y-92616147D01*
X144437772Y-92606182D01*
X144459716Y-92598330D01*
X144482325Y-92592666D01*
X144505380Y-92589247D01*
X144528659Y-92588103D01*
X145103659Y-92588103D01*
X145126938Y-92589247D01*
X145126938Y-92589247D01*
G37*
D14*
X144816159Y-93063103D03*
G04 #@! TD*
D13*
G04 #@! TO.C,C3*
G36*
X133660350Y-87989839D02*
X133683405Y-87993258D01*
X133706014Y-87998922D01*
X133727958Y-88006774D01*
X133749028Y-88016739D01*
X133769019Y-88028721D01*
X133787739Y-88042605D01*
X133805009Y-88058257D01*
X133820661Y-88075527D01*
X133834545Y-88094247D01*
X133846527Y-88114238D01*
X133856492Y-88135308D01*
X133864344Y-88157252D01*
X133870008Y-88179861D01*
X133873427Y-88202916D01*
X133874571Y-88226195D01*
X133874571Y-88801195D01*
X133873427Y-88824474D01*
X133870008Y-88847529D01*
X133864344Y-88870138D01*
X133856492Y-88892082D01*
X133846527Y-88913152D01*
X133834545Y-88933143D01*
X133820661Y-88951863D01*
X133805009Y-88969133D01*
X133787739Y-88984785D01*
X133769019Y-88998669D01*
X133749028Y-89010651D01*
X133727958Y-89020616D01*
X133706014Y-89028468D01*
X133683405Y-89034132D01*
X133660350Y-89037551D01*
X133637071Y-89038695D01*
X133162071Y-89038695D01*
X133138792Y-89037551D01*
X133115737Y-89034132D01*
X133093128Y-89028468D01*
X133071184Y-89020616D01*
X133050114Y-89010651D01*
X133030123Y-88998669D01*
X133011403Y-88984785D01*
X132994133Y-88969133D01*
X132978481Y-88951863D01*
X132964597Y-88933143D01*
X132952615Y-88913152D01*
X132942650Y-88892082D01*
X132934798Y-88870138D01*
X132929134Y-88847529D01*
X132925715Y-88824474D01*
X132924571Y-88801195D01*
X132924571Y-88226195D01*
X132925715Y-88202916D01*
X132929134Y-88179861D01*
X132934798Y-88157252D01*
X132942650Y-88135308D01*
X132952615Y-88114238D01*
X132964597Y-88094247D01*
X132978481Y-88075527D01*
X132994133Y-88058257D01*
X133011403Y-88042605D01*
X133030123Y-88028721D01*
X133050114Y-88016739D01*
X133071184Y-88006774D01*
X133093128Y-87998922D01*
X133115737Y-87993258D01*
X133138792Y-87989839D01*
X133162071Y-87988695D01*
X133637071Y-87988695D01*
X133660350Y-87989839D01*
X133660350Y-87989839D01*
G37*
D14*
X133399571Y-88513695D03*
D13*
G36*
X133660350Y-89739839D02*
X133683405Y-89743258D01*
X133706014Y-89748922D01*
X133727958Y-89756774D01*
X133749028Y-89766739D01*
X133769019Y-89778721D01*
X133787739Y-89792605D01*
X133805009Y-89808257D01*
X133820661Y-89825527D01*
X133834545Y-89844247D01*
X133846527Y-89864238D01*
X133856492Y-89885308D01*
X133864344Y-89907252D01*
X133870008Y-89929861D01*
X133873427Y-89952916D01*
X133874571Y-89976195D01*
X133874571Y-90551195D01*
X133873427Y-90574474D01*
X133870008Y-90597529D01*
X133864344Y-90620138D01*
X133856492Y-90642082D01*
X133846527Y-90663152D01*
X133834545Y-90683143D01*
X133820661Y-90701863D01*
X133805009Y-90719133D01*
X133787739Y-90734785D01*
X133769019Y-90748669D01*
X133749028Y-90760651D01*
X133727958Y-90770616D01*
X133706014Y-90778468D01*
X133683405Y-90784132D01*
X133660350Y-90787551D01*
X133637071Y-90788695D01*
X133162071Y-90788695D01*
X133138792Y-90787551D01*
X133115737Y-90784132D01*
X133093128Y-90778468D01*
X133071184Y-90770616D01*
X133050114Y-90760651D01*
X133030123Y-90748669D01*
X133011403Y-90734785D01*
X132994133Y-90719133D01*
X132978481Y-90701863D01*
X132964597Y-90683143D01*
X132952615Y-90663152D01*
X132942650Y-90642082D01*
X132934798Y-90620138D01*
X132929134Y-90597529D01*
X132925715Y-90574474D01*
X132924571Y-90551195D01*
X132924571Y-89976195D01*
X132925715Y-89952916D01*
X132929134Y-89929861D01*
X132934798Y-89907252D01*
X132942650Y-89885308D01*
X132952615Y-89864238D01*
X132964597Y-89844247D01*
X132978481Y-89825527D01*
X132994133Y-89808257D01*
X133011403Y-89792605D01*
X133030123Y-89778721D01*
X133050114Y-89766739D01*
X133071184Y-89756774D01*
X133093128Y-89748922D01*
X133115737Y-89743258D01*
X133138792Y-89739839D01*
X133162071Y-89738695D01*
X133637071Y-89738695D01*
X133660350Y-89739839D01*
X133660350Y-89739839D01*
G37*
D14*
X133399571Y-90263695D03*
G04 #@! TD*
D13*
G04 #@! TO.C,C4*
G36*
X133660350Y-82739839D02*
X133683405Y-82743258D01*
X133706014Y-82748922D01*
X133727958Y-82756774D01*
X133749028Y-82766739D01*
X133769019Y-82778721D01*
X133787739Y-82792605D01*
X133805009Y-82808257D01*
X133820661Y-82825527D01*
X133834545Y-82844247D01*
X133846527Y-82864238D01*
X133856492Y-82885308D01*
X133864344Y-82907252D01*
X133870008Y-82929861D01*
X133873427Y-82952916D01*
X133874571Y-82976195D01*
X133874571Y-83551195D01*
X133873427Y-83574474D01*
X133870008Y-83597529D01*
X133864344Y-83620138D01*
X133856492Y-83642082D01*
X133846527Y-83663152D01*
X133834545Y-83683143D01*
X133820661Y-83701863D01*
X133805009Y-83719133D01*
X133787739Y-83734785D01*
X133769019Y-83748669D01*
X133749028Y-83760651D01*
X133727958Y-83770616D01*
X133706014Y-83778468D01*
X133683405Y-83784132D01*
X133660350Y-83787551D01*
X133637071Y-83788695D01*
X133162071Y-83788695D01*
X133138792Y-83787551D01*
X133115737Y-83784132D01*
X133093128Y-83778468D01*
X133071184Y-83770616D01*
X133050114Y-83760651D01*
X133030123Y-83748669D01*
X133011403Y-83734785D01*
X132994133Y-83719133D01*
X132978481Y-83701863D01*
X132964597Y-83683143D01*
X132952615Y-83663152D01*
X132942650Y-83642082D01*
X132934798Y-83620138D01*
X132929134Y-83597529D01*
X132925715Y-83574474D01*
X132924571Y-83551195D01*
X132924571Y-82976195D01*
X132925715Y-82952916D01*
X132929134Y-82929861D01*
X132934798Y-82907252D01*
X132942650Y-82885308D01*
X132952615Y-82864238D01*
X132964597Y-82844247D01*
X132978481Y-82825527D01*
X132994133Y-82808257D01*
X133011403Y-82792605D01*
X133030123Y-82778721D01*
X133050114Y-82766739D01*
X133071184Y-82756774D01*
X133093128Y-82748922D01*
X133115737Y-82743258D01*
X133138792Y-82739839D01*
X133162071Y-82738695D01*
X133637071Y-82738695D01*
X133660350Y-82739839D01*
X133660350Y-82739839D01*
G37*
D14*
X133399571Y-83263695D03*
D13*
G36*
X133660350Y-80989839D02*
X133683405Y-80993258D01*
X133706014Y-80998922D01*
X133727958Y-81006774D01*
X133749028Y-81016739D01*
X133769019Y-81028721D01*
X133787739Y-81042605D01*
X133805009Y-81058257D01*
X133820661Y-81075527D01*
X133834545Y-81094247D01*
X133846527Y-81114238D01*
X133856492Y-81135308D01*
X133864344Y-81157252D01*
X133870008Y-81179861D01*
X133873427Y-81202916D01*
X133874571Y-81226195D01*
X133874571Y-81801195D01*
X133873427Y-81824474D01*
X133870008Y-81847529D01*
X133864344Y-81870138D01*
X133856492Y-81892082D01*
X133846527Y-81913152D01*
X133834545Y-81933143D01*
X133820661Y-81951863D01*
X133805009Y-81969133D01*
X133787739Y-81984785D01*
X133769019Y-81998669D01*
X133749028Y-82010651D01*
X133727958Y-82020616D01*
X133706014Y-82028468D01*
X133683405Y-82034132D01*
X133660350Y-82037551D01*
X133637071Y-82038695D01*
X133162071Y-82038695D01*
X133138792Y-82037551D01*
X133115737Y-82034132D01*
X133093128Y-82028468D01*
X133071184Y-82020616D01*
X133050114Y-82010651D01*
X133030123Y-81998669D01*
X133011403Y-81984785D01*
X132994133Y-81969133D01*
X132978481Y-81951863D01*
X132964597Y-81933143D01*
X132952615Y-81913152D01*
X132942650Y-81892082D01*
X132934798Y-81870138D01*
X132929134Y-81847529D01*
X132925715Y-81824474D01*
X132924571Y-81801195D01*
X132924571Y-81226195D01*
X132925715Y-81202916D01*
X132929134Y-81179861D01*
X132934798Y-81157252D01*
X132942650Y-81135308D01*
X132952615Y-81114238D01*
X132964597Y-81094247D01*
X132978481Y-81075527D01*
X132994133Y-81058257D01*
X133011403Y-81042605D01*
X133030123Y-81028721D01*
X133050114Y-81016739D01*
X133071184Y-81006774D01*
X133093128Y-80998922D01*
X133115737Y-80993258D01*
X133138792Y-80989839D01*
X133162071Y-80988695D01*
X133637071Y-80988695D01*
X133660350Y-80989839D01*
X133660350Y-80989839D01*
G37*
D14*
X133399571Y-81513695D03*
G04 #@! TD*
D13*
G04 #@! TO.C,C9*
G36*
X145010779Y-102546144D02*
X145033834Y-102549563D01*
X145056443Y-102555227D01*
X145078387Y-102563079D01*
X145099457Y-102573044D01*
X145119448Y-102585026D01*
X145138168Y-102598910D01*
X145155438Y-102614562D01*
X145171090Y-102631832D01*
X145184974Y-102650552D01*
X145196956Y-102670543D01*
X145206921Y-102691613D01*
X145214773Y-102713557D01*
X145220437Y-102736166D01*
X145223856Y-102759221D01*
X145225000Y-102782500D01*
X145225000Y-103257500D01*
X145223856Y-103280779D01*
X145220437Y-103303834D01*
X145214773Y-103326443D01*
X145206921Y-103348387D01*
X145196956Y-103369457D01*
X145184974Y-103389448D01*
X145171090Y-103408168D01*
X145155438Y-103425438D01*
X145138168Y-103441090D01*
X145119448Y-103454974D01*
X145099457Y-103466956D01*
X145078387Y-103476921D01*
X145056443Y-103484773D01*
X145033834Y-103490437D01*
X145010779Y-103493856D01*
X144987500Y-103495000D01*
X144412500Y-103495000D01*
X144389221Y-103493856D01*
X144366166Y-103490437D01*
X144343557Y-103484773D01*
X144321613Y-103476921D01*
X144300543Y-103466956D01*
X144280552Y-103454974D01*
X144261832Y-103441090D01*
X144244562Y-103425438D01*
X144228910Y-103408168D01*
X144215026Y-103389448D01*
X144203044Y-103369457D01*
X144193079Y-103348387D01*
X144185227Y-103326443D01*
X144179563Y-103303834D01*
X144176144Y-103280779D01*
X144175000Y-103257500D01*
X144175000Y-102782500D01*
X144176144Y-102759221D01*
X144179563Y-102736166D01*
X144185227Y-102713557D01*
X144193079Y-102691613D01*
X144203044Y-102670543D01*
X144215026Y-102650552D01*
X144228910Y-102631832D01*
X144244562Y-102614562D01*
X144261832Y-102598910D01*
X144280552Y-102585026D01*
X144300543Y-102573044D01*
X144321613Y-102563079D01*
X144343557Y-102555227D01*
X144366166Y-102549563D01*
X144389221Y-102546144D01*
X144412500Y-102545000D01*
X144987500Y-102545000D01*
X145010779Y-102546144D01*
X145010779Y-102546144D01*
G37*
D14*
X144700000Y-103020000D03*
D13*
G36*
X143260779Y-102546144D02*
X143283834Y-102549563D01*
X143306443Y-102555227D01*
X143328387Y-102563079D01*
X143349457Y-102573044D01*
X143369448Y-102585026D01*
X143388168Y-102598910D01*
X143405438Y-102614562D01*
X143421090Y-102631832D01*
X143434974Y-102650552D01*
X143446956Y-102670543D01*
X143456921Y-102691613D01*
X143464773Y-102713557D01*
X143470437Y-102736166D01*
X143473856Y-102759221D01*
X143475000Y-102782500D01*
X143475000Y-103257500D01*
X143473856Y-103280779D01*
X143470437Y-103303834D01*
X143464773Y-103326443D01*
X143456921Y-103348387D01*
X143446956Y-103369457D01*
X143434974Y-103389448D01*
X143421090Y-103408168D01*
X143405438Y-103425438D01*
X143388168Y-103441090D01*
X143369448Y-103454974D01*
X143349457Y-103466956D01*
X143328387Y-103476921D01*
X143306443Y-103484773D01*
X143283834Y-103490437D01*
X143260779Y-103493856D01*
X143237500Y-103495000D01*
X142662500Y-103495000D01*
X142639221Y-103493856D01*
X142616166Y-103490437D01*
X142593557Y-103484773D01*
X142571613Y-103476921D01*
X142550543Y-103466956D01*
X142530552Y-103454974D01*
X142511832Y-103441090D01*
X142494562Y-103425438D01*
X142478910Y-103408168D01*
X142465026Y-103389448D01*
X142453044Y-103369457D01*
X142443079Y-103348387D01*
X142435227Y-103326443D01*
X142429563Y-103303834D01*
X142426144Y-103280779D01*
X142425000Y-103257500D01*
X142425000Y-102782500D01*
X142426144Y-102759221D01*
X142429563Y-102736166D01*
X142435227Y-102713557D01*
X142443079Y-102691613D01*
X142453044Y-102670543D01*
X142465026Y-102650552D01*
X142478910Y-102631832D01*
X142494562Y-102614562D01*
X142511832Y-102598910D01*
X142530552Y-102585026D01*
X142550543Y-102573044D01*
X142571613Y-102563079D01*
X142593557Y-102555227D01*
X142616166Y-102549563D01*
X142639221Y-102546144D01*
X142662500Y-102545000D01*
X143237500Y-102545000D01*
X143260779Y-102546144D01*
X143260779Y-102546144D01*
G37*
D14*
X142950000Y-103020000D03*
G04 #@! TD*
D13*
G04 #@! TO.C,C16*
G36*
X144376938Y-76589247D02*
X144399993Y-76592666D01*
X144422602Y-76598330D01*
X144444546Y-76606182D01*
X144465616Y-76616147D01*
X144485607Y-76628129D01*
X144504327Y-76642013D01*
X144521597Y-76657665D01*
X144537249Y-76674935D01*
X144551133Y-76693655D01*
X144563115Y-76713646D01*
X144573080Y-76734716D01*
X144580932Y-76756660D01*
X144586596Y-76779269D01*
X144590015Y-76802324D01*
X144591159Y-76825603D01*
X144591159Y-77300603D01*
X144590015Y-77323882D01*
X144586596Y-77346937D01*
X144580932Y-77369546D01*
X144573080Y-77391490D01*
X144563115Y-77412560D01*
X144551133Y-77432551D01*
X144537249Y-77451271D01*
X144521597Y-77468541D01*
X144504327Y-77484193D01*
X144485607Y-77498077D01*
X144465616Y-77510059D01*
X144444546Y-77520024D01*
X144422602Y-77527876D01*
X144399993Y-77533540D01*
X144376938Y-77536959D01*
X144353659Y-77538103D01*
X143778659Y-77538103D01*
X143755380Y-77536959D01*
X143732325Y-77533540D01*
X143709716Y-77527876D01*
X143687772Y-77520024D01*
X143666702Y-77510059D01*
X143646711Y-77498077D01*
X143627991Y-77484193D01*
X143610721Y-77468541D01*
X143595069Y-77451271D01*
X143581185Y-77432551D01*
X143569203Y-77412560D01*
X143559238Y-77391490D01*
X143551386Y-77369546D01*
X143545722Y-77346937D01*
X143542303Y-77323882D01*
X143541159Y-77300603D01*
X143541159Y-76825603D01*
X143542303Y-76802324D01*
X143545722Y-76779269D01*
X143551386Y-76756660D01*
X143559238Y-76734716D01*
X143569203Y-76713646D01*
X143581185Y-76693655D01*
X143595069Y-76674935D01*
X143610721Y-76657665D01*
X143627991Y-76642013D01*
X143646711Y-76628129D01*
X143666702Y-76616147D01*
X143687772Y-76606182D01*
X143709716Y-76598330D01*
X143732325Y-76592666D01*
X143755380Y-76589247D01*
X143778659Y-76588103D01*
X144353659Y-76588103D01*
X144376938Y-76589247D01*
X144376938Y-76589247D01*
G37*
D14*
X144066159Y-77063103D03*
D13*
G36*
X142626938Y-76589247D02*
X142649993Y-76592666D01*
X142672602Y-76598330D01*
X142694546Y-76606182D01*
X142715616Y-76616147D01*
X142735607Y-76628129D01*
X142754327Y-76642013D01*
X142771597Y-76657665D01*
X142787249Y-76674935D01*
X142801133Y-76693655D01*
X142813115Y-76713646D01*
X142823080Y-76734716D01*
X142830932Y-76756660D01*
X142836596Y-76779269D01*
X142840015Y-76802324D01*
X142841159Y-76825603D01*
X142841159Y-77300603D01*
X142840015Y-77323882D01*
X142836596Y-77346937D01*
X142830932Y-77369546D01*
X142823080Y-77391490D01*
X142813115Y-77412560D01*
X142801133Y-77432551D01*
X142787249Y-77451271D01*
X142771597Y-77468541D01*
X142754327Y-77484193D01*
X142735607Y-77498077D01*
X142715616Y-77510059D01*
X142694546Y-77520024D01*
X142672602Y-77527876D01*
X142649993Y-77533540D01*
X142626938Y-77536959D01*
X142603659Y-77538103D01*
X142028659Y-77538103D01*
X142005380Y-77536959D01*
X141982325Y-77533540D01*
X141959716Y-77527876D01*
X141937772Y-77520024D01*
X141916702Y-77510059D01*
X141896711Y-77498077D01*
X141877991Y-77484193D01*
X141860721Y-77468541D01*
X141845069Y-77451271D01*
X141831185Y-77432551D01*
X141819203Y-77412560D01*
X141809238Y-77391490D01*
X141801386Y-77369546D01*
X141795722Y-77346937D01*
X141792303Y-77323882D01*
X141791159Y-77300603D01*
X141791159Y-76825603D01*
X141792303Y-76802324D01*
X141795722Y-76779269D01*
X141801386Y-76756660D01*
X141809238Y-76734716D01*
X141819203Y-76713646D01*
X141831185Y-76693655D01*
X141845069Y-76674935D01*
X141860721Y-76657665D01*
X141877991Y-76642013D01*
X141896711Y-76628129D01*
X141916702Y-76616147D01*
X141937772Y-76606182D01*
X141959716Y-76598330D01*
X141982325Y-76592666D01*
X142005380Y-76589247D01*
X142028659Y-76588103D01*
X142603659Y-76588103D01*
X142626938Y-76589247D01*
X142626938Y-76589247D01*
G37*
D14*
X142316159Y-77063103D03*
G04 #@! TD*
D13*
G04 #@! TO.C,C17*
G36*
X137376938Y-76589247D02*
X137399993Y-76592666D01*
X137422602Y-76598330D01*
X137444546Y-76606182D01*
X137465616Y-76616147D01*
X137485607Y-76628129D01*
X137504327Y-76642013D01*
X137521597Y-76657665D01*
X137537249Y-76674935D01*
X137551133Y-76693655D01*
X137563115Y-76713646D01*
X137573080Y-76734716D01*
X137580932Y-76756660D01*
X137586596Y-76779269D01*
X137590015Y-76802324D01*
X137591159Y-76825603D01*
X137591159Y-77300603D01*
X137590015Y-77323882D01*
X137586596Y-77346937D01*
X137580932Y-77369546D01*
X137573080Y-77391490D01*
X137563115Y-77412560D01*
X137551133Y-77432551D01*
X137537249Y-77451271D01*
X137521597Y-77468541D01*
X137504327Y-77484193D01*
X137485607Y-77498077D01*
X137465616Y-77510059D01*
X137444546Y-77520024D01*
X137422602Y-77527876D01*
X137399993Y-77533540D01*
X137376938Y-77536959D01*
X137353659Y-77538103D01*
X136778659Y-77538103D01*
X136755380Y-77536959D01*
X136732325Y-77533540D01*
X136709716Y-77527876D01*
X136687772Y-77520024D01*
X136666702Y-77510059D01*
X136646711Y-77498077D01*
X136627991Y-77484193D01*
X136610721Y-77468541D01*
X136595069Y-77451271D01*
X136581185Y-77432551D01*
X136569203Y-77412560D01*
X136559238Y-77391490D01*
X136551386Y-77369546D01*
X136545722Y-77346937D01*
X136542303Y-77323882D01*
X136541159Y-77300603D01*
X136541159Y-76825603D01*
X136542303Y-76802324D01*
X136545722Y-76779269D01*
X136551386Y-76756660D01*
X136559238Y-76734716D01*
X136569203Y-76713646D01*
X136581185Y-76693655D01*
X136595069Y-76674935D01*
X136610721Y-76657665D01*
X136627991Y-76642013D01*
X136646711Y-76628129D01*
X136666702Y-76616147D01*
X136687772Y-76606182D01*
X136709716Y-76598330D01*
X136732325Y-76592666D01*
X136755380Y-76589247D01*
X136778659Y-76588103D01*
X137353659Y-76588103D01*
X137376938Y-76589247D01*
X137376938Y-76589247D01*
G37*
D14*
X137066159Y-77063103D03*
D13*
G36*
X139126938Y-76589247D02*
X139149993Y-76592666D01*
X139172602Y-76598330D01*
X139194546Y-76606182D01*
X139215616Y-76616147D01*
X139235607Y-76628129D01*
X139254327Y-76642013D01*
X139271597Y-76657665D01*
X139287249Y-76674935D01*
X139301133Y-76693655D01*
X139313115Y-76713646D01*
X139323080Y-76734716D01*
X139330932Y-76756660D01*
X139336596Y-76779269D01*
X139340015Y-76802324D01*
X139341159Y-76825603D01*
X139341159Y-77300603D01*
X139340015Y-77323882D01*
X139336596Y-77346937D01*
X139330932Y-77369546D01*
X139323080Y-77391490D01*
X139313115Y-77412560D01*
X139301133Y-77432551D01*
X139287249Y-77451271D01*
X139271597Y-77468541D01*
X139254327Y-77484193D01*
X139235607Y-77498077D01*
X139215616Y-77510059D01*
X139194546Y-77520024D01*
X139172602Y-77527876D01*
X139149993Y-77533540D01*
X139126938Y-77536959D01*
X139103659Y-77538103D01*
X138528659Y-77538103D01*
X138505380Y-77536959D01*
X138482325Y-77533540D01*
X138459716Y-77527876D01*
X138437772Y-77520024D01*
X138416702Y-77510059D01*
X138396711Y-77498077D01*
X138377991Y-77484193D01*
X138360721Y-77468541D01*
X138345069Y-77451271D01*
X138331185Y-77432551D01*
X138319203Y-77412560D01*
X138309238Y-77391490D01*
X138301386Y-77369546D01*
X138295722Y-77346937D01*
X138292303Y-77323882D01*
X138291159Y-77300603D01*
X138291159Y-76825603D01*
X138292303Y-76802324D01*
X138295722Y-76779269D01*
X138301386Y-76756660D01*
X138309238Y-76734716D01*
X138319203Y-76713646D01*
X138331185Y-76693655D01*
X138345069Y-76674935D01*
X138360721Y-76657665D01*
X138377991Y-76642013D01*
X138396711Y-76628129D01*
X138416702Y-76616147D01*
X138437772Y-76606182D01*
X138459716Y-76598330D01*
X138482325Y-76592666D01*
X138505380Y-76589247D01*
X138528659Y-76588103D01*
X139103659Y-76588103D01*
X139126938Y-76589247D01*
X139126938Y-76589247D01*
G37*
D14*
X138816159Y-77063103D03*
G04 #@! TD*
D13*
G04 #@! TO.C,R5*
G36*
X150224779Y-82690144D02*
X150247834Y-82693563D01*
X150270443Y-82699227D01*
X150292387Y-82707079D01*
X150313457Y-82717044D01*
X150333448Y-82729026D01*
X150352168Y-82742910D01*
X150369438Y-82758562D01*
X150385090Y-82775832D01*
X150398974Y-82794552D01*
X150410956Y-82814543D01*
X150420921Y-82835613D01*
X150428773Y-82857557D01*
X150434437Y-82880166D01*
X150437856Y-82903221D01*
X150439000Y-82926500D01*
X150439000Y-83401500D01*
X150437856Y-83424779D01*
X150434437Y-83447834D01*
X150428773Y-83470443D01*
X150420921Y-83492387D01*
X150410956Y-83513457D01*
X150398974Y-83533448D01*
X150385090Y-83552168D01*
X150369438Y-83569438D01*
X150352168Y-83585090D01*
X150333448Y-83598974D01*
X150313457Y-83610956D01*
X150292387Y-83620921D01*
X150270443Y-83628773D01*
X150247834Y-83634437D01*
X150224779Y-83637856D01*
X150201500Y-83639000D01*
X149626500Y-83639000D01*
X149603221Y-83637856D01*
X149580166Y-83634437D01*
X149557557Y-83628773D01*
X149535613Y-83620921D01*
X149514543Y-83610956D01*
X149494552Y-83598974D01*
X149475832Y-83585090D01*
X149458562Y-83569438D01*
X149442910Y-83552168D01*
X149429026Y-83533448D01*
X149417044Y-83513457D01*
X149407079Y-83492387D01*
X149399227Y-83470443D01*
X149393563Y-83447834D01*
X149390144Y-83424779D01*
X149389000Y-83401500D01*
X149389000Y-82926500D01*
X149390144Y-82903221D01*
X149393563Y-82880166D01*
X149399227Y-82857557D01*
X149407079Y-82835613D01*
X149417044Y-82814543D01*
X149429026Y-82794552D01*
X149442910Y-82775832D01*
X149458562Y-82758562D01*
X149475832Y-82742910D01*
X149494552Y-82729026D01*
X149514543Y-82717044D01*
X149535613Y-82707079D01*
X149557557Y-82699227D01*
X149580166Y-82693563D01*
X149603221Y-82690144D01*
X149626500Y-82689000D01*
X150201500Y-82689000D01*
X150224779Y-82690144D01*
X150224779Y-82690144D01*
G37*
D14*
X149914000Y-83164000D03*
D13*
G36*
X148474779Y-82690144D02*
X148497834Y-82693563D01*
X148520443Y-82699227D01*
X148542387Y-82707079D01*
X148563457Y-82717044D01*
X148583448Y-82729026D01*
X148602168Y-82742910D01*
X148619438Y-82758562D01*
X148635090Y-82775832D01*
X148648974Y-82794552D01*
X148660956Y-82814543D01*
X148670921Y-82835613D01*
X148678773Y-82857557D01*
X148684437Y-82880166D01*
X148687856Y-82903221D01*
X148689000Y-82926500D01*
X148689000Y-83401500D01*
X148687856Y-83424779D01*
X148684437Y-83447834D01*
X148678773Y-83470443D01*
X148670921Y-83492387D01*
X148660956Y-83513457D01*
X148648974Y-83533448D01*
X148635090Y-83552168D01*
X148619438Y-83569438D01*
X148602168Y-83585090D01*
X148583448Y-83598974D01*
X148563457Y-83610956D01*
X148542387Y-83620921D01*
X148520443Y-83628773D01*
X148497834Y-83634437D01*
X148474779Y-83637856D01*
X148451500Y-83639000D01*
X147876500Y-83639000D01*
X147853221Y-83637856D01*
X147830166Y-83634437D01*
X147807557Y-83628773D01*
X147785613Y-83620921D01*
X147764543Y-83610956D01*
X147744552Y-83598974D01*
X147725832Y-83585090D01*
X147708562Y-83569438D01*
X147692910Y-83552168D01*
X147679026Y-83533448D01*
X147667044Y-83513457D01*
X147657079Y-83492387D01*
X147649227Y-83470443D01*
X147643563Y-83447834D01*
X147640144Y-83424779D01*
X147639000Y-83401500D01*
X147639000Y-82926500D01*
X147640144Y-82903221D01*
X147643563Y-82880166D01*
X147649227Y-82857557D01*
X147657079Y-82835613D01*
X147667044Y-82814543D01*
X147679026Y-82794552D01*
X147692910Y-82775832D01*
X147708562Y-82758562D01*
X147725832Y-82742910D01*
X147744552Y-82729026D01*
X147764543Y-82717044D01*
X147785613Y-82707079D01*
X147807557Y-82699227D01*
X147830166Y-82693563D01*
X147853221Y-82690144D01*
X147876500Y-82689000D01*
X148451500Y-82689000D01*
X148474779Y-82690144D01*
X148474779Y-82690144D01*
G37*
D14*
X148164000Y-83164000D03*
G04 #@! TD*
D13*
G04 #@! TO.C,R10*
G36*
X143370350Y-93979839D02*
X143393405Y-93983258D01*
X143416014Y-93988922D01*
X143437958Y-93996774D01*
X143459028Y-94006739D01*
X143479019Y-94018721D01*
X143497739Y-94032605D01*
X143515009Y-94048257D01*
X143530661Y-94065527D01*
X143544545Y-94084247D01*
X143556527Y-94104238D01*
X143566492Y-94125308D01*
X143574344Y-94147252D01*
X143580008Y-94169861D01*
X143583427Y-94192916D01*
X143584571Y-94216195D01*
X143584571Y-94791195D01*
X143583427Y-94814474D01*
X143580008Y-94837529D01*
X143574344Y-94860138D01*
X143566492Y-94882082D01*
X143556527Y-94903152D01*
X143544545Y-94923143D01*
X143530661Y-94941863D01*
X143515009Y-94959133D01*
X143497739Y-94974785D01*
X143479019Y-94988669D01*
X143459028Y-95000651D01*
X143437958Y-95010616D01*
X143416014Y-95018468D01*
X143393405Y-95024132D01*
X143370350Y-95027551D01*
X143347071Y-95028695D01*
X142872071Y-95028695D01*
X142848792Y-95027551D01*
X142825737Y-95024132D01*
X142803128Y-95018468D01*
X142781184Y-95010616D01*
X142760114Y-95000651D01*
X142740123Y-94988669D01*
X142721403Y-94974785D01*
X142704133Y-94959133D01*
X142688481Y-94941863D01*
X142674597Y-94923143D01*
X142662615Y-94903152D01*
X142652650Y-94882082D01*
X142644798Y-94860138D01*
X142639134Y-94837529D01*
X142635715Y-94814474D01*
X142634571Y-94791195D01*
X142634571Y-94216195D01*
X142635715Y-94192916D01*
X142639134Y-94169861D01*
X142644798Y-94147252D01*
X142652650Y-94125308D01*
X142662615Y-94104238D01*
X142674597Y-94084247D01*
X142688481Y-94065527D01*
X142704133Y-94048257D01*
X142721403Y-94032605D01*
X142740123Y-94018721D01*
X142760114Y-94006739D01*
X142781184Y-93996774D01*
X142803128Y-93988922D01*
X142825737Y-93983258D01*
X142848792Y-93979839D01*
X142872071Y-93978695D01*
X143347071Y-93978695D01*
X143370350Y-93979839D01*
X143370350Y-93979839D01*
G37*
D14*
X143109571Y-94503695D03*
D13*
G36*
X143370350Y-92229839D02*
X143393405Y-92233258D01*
X143416014Y-92238922D01*
X143437958Y-92246774D01*
X143459028Y-92256739D01*
X143479019Y-92268721D01*
X143497739Y-92282605D01*
X143515009Y-92298257D01*
X143530661Y-92315527D01*
X143544545Y-92334247D01*
X143556527Y-92354238D01*
X143566492Y-92375308D01*
X143574344Y-92397252D01*
X143580008Y-92419861D01*
X143583427Y-92442916D01*
X143584571Y-92466195D01*
X143584571Y-93041195D01*
X143583427Y-93064474D01*
X143580008Y-93087529D01*
X143574344Y-93110138D01*
X143566492Y-93132082D01*
X143556527Y-93153152D01*
X143544545Y-93173143D01*
X143530661Y-93191863D01*
X143515009Y-93209133D01*
X143497739Y-93224785D01*
X143479019Y-93238669D01*
X143459028Y-93250651D01*
X143437958Y-93260616D01*
X143416014Y-93268468D01*
X143393405Y-93274132D01*
X143370350Y-93277551D01*
X143347071Y-93278695D01*
X142872071Y-93278695D01*
X142848792Y-93277551D01*
X142825737Y-93274132D01*
X142803128Y-93268468D01*
X142781184Y-93260616D01*
X142760114Y-93250651D01*
X142740123Y-93238669D01*
X142721403Y-93224785D01*
X142704133Y-93209133D01*
X142688481Y-93191863D01*
X142674597Y-93173143D01*
X142662615Y-93153152D01*
X142652650Y-93132082D01*
X142644798Y-93110138D01*
X142639134Y-93087529D01*
X142635715Y-93064474D01*
X142634571Y-93041195D01*
X142634571Y-92466195D01*
X142635715Y-92442916D01*
X142639134Y-92419861D01*
X142644798Y-92397252D01*
X142652650Y-92375308D01*
X142662615Y-92354238D01*
X142674597Y-92334247D01*
X142688481Y-92315527D01*
X142704133Y-92298257D01*
X142721403Y-92282605D01*
X142740123Y-92268721D01*
X142760114Y-92256739D01*
X142781184Y-92246774D01*
X142803128Y-92238922D01*
X142825737Y-92233258D01*
X142848792Y-92229839D01*
X142872071Y-92228695D01*
X143347071Y-92228695D01*
X143370350Y-92229839D01*
X143370350Y-92229839D01*
G37*
D14*
X143109571Y-92753695D03*
G04 #@! TD*
D13*
G04 #@! TO.C,R11*
G36*
X141770350Y-93979839D02*
X141793405Y-93983258D01*
X141816014Y-93988922D01*
X141837958Y-93996774D01*
X141859028Y-94006739D01*
X141879019Y-94018721D01*
X141897739Y-94032605D01*
X141915009Y-94048257D01*
X141930661Y-94065527D01*
X141944545Y-94084247D01*
X141956527Y-94104238D01*
X141966492Y-94125308D01*
X141974344Y-94147252D01*
X141980008Y-94169861D01*
X141983427Y-94192916D01*
X141984571Y-94216195D01*
X141984571Y-94791195D01*
X141983427Y-94814474D01*
X141980008Y-94837529D01*
X141974344Y-94860138D01*
X141966492Y-94882082D01*
X141956527Y-94903152D01*
X141944545Y-94923143D01*
X141930661Y-94941863D01*
X141915009Y-94959133D01*
X141897739Y-94974785D01*
X141879019Y-94988669D01*
X141859028Y-95000651D01*
X141837958Y-95010616D01*
X141816014Y-95018468D01*
X141793405Y-95024132D01*
X141770350Y-95027551D01*
X141747071Y-95028695D01*
X141272071Y-95028695D01*
X141248792Y-95027551D01*
X141225737Y-95024132D01*
X141203128Y-95018468D01*
X141181184Y-95010616D01*
X141160114Y-95000651D01*
X141140123Y-94988669D01*
X141121403Y-94974785D01*
X141104133Y-94959133D01*
X141088481Y-94941863D01*
X141074597Y-94923143D01*
X141062615Y-94903152D01*
X141052650Y-94882082D01*
X141044798Y-94860138D01*
X141039134Y-94837529D01*
X141035715Y-94814474D01*
X141034571Y-94791195D01*
X141034571Y-94216195D01*
X141035715Y-94192916D01*
X141039134Y-94169861D01*
X141044798Y-94147252D01*
X141052650Y-94125308D01*
X141062615Y-94104238D01*
X141074597Y-94084247D01*
X141088481Y-94065527D01*
X141104133Y-94048257D01*
X141121403Y-94032605D01*
X141140123Y-94018721D01*
X141160114Y-94006739D01*
X141181184Y-93996774D01*
X141203128Y-93988922D01*
X141225737Y-93983258D01*
X141248792Y-93979839D01*
X141272071Y-93978695D01*
X141747071Y-93978695D01*
X141770350Y-93979839D01*
X141770350Y-93979839D01*
G37*
D14*
X141509571Y-94503695D03*
D13*
G36*
X141770350Y-92229839D02*
X141793405Y-92233258D01*
X141816014Y-92238922D01*
X141837958Y-92246774D01*
X141859028Y-92256739D01*
X141879019Y-92268721D01*
X141897739Y-92282605D01*
X141915009Y-92298257D01*
X141930661Y-92315527D01*
X141944545Y-92334247D01*
X141956527Y-92354238D01*
X141966492Y-92375308D01*
X141974344Y-92397252D01*
X141980008Y-92419861D01*
X141983427Y-92442916D01*
X141984571Y-92466195D01*
X141984571Y-93041195D01*
X141983427Y-93064474D01*
X141980008Y-93087529D01*
X141974344Y-93110138D01*
X141966492Y-93132082D01*
X141956527Y-93153152D01*
X141944545Y-93173143D01*
X141930661Y-93191863D01*
X141915009Y-93209133D01*
X141897739Y-93224785D01*
X141879019Y-93238669D01*
X141859028Y-93250651D01*
X141837958Y-93260616D01*
X141816014Y-93268468D01*
X141793405Y-93274132D01*
X141770350Y-93277551D01*
X141747071Y-93278695D01*
X141272071Y-93278695D01*
X141248792Y-93277551D01*
X141225737Y-93274132D01*
X141203128Y-93268468D01*
X141181184Y-93260616D01*
X141160114Y-93250651D01*
X141140123Y-93238669D01*
X141121403Y-93224785D01*
X141104133Y-93209133D01*
X141088481Y-93191863D01*
X141074597Y-93173143D01*
X141062615Y-93153152D01*
X141052650Y-93132082D01*
X141044798Y-93110138D01*
X141039134Y-93087529D01*
X141035715Y-93064474D01*
X141034571Y-93041195D01*
X141034571Y-92466195D01*
X141035715Y-92442916D01*
X141039134Y-92419861D01*
X141044798Y-92397252D01*
X141052650Y-92375308D01*
X141062615Y-92354238D01*
X141074597Y-92334247D01*
X141088481Y-92315527D01*
X141104133Y-92298257D01*
X141121403Y-92282605D01*
X141140123Y-92268721D01*
X141160114Y-92256739D01*
X141181184Y-92246774D01*
X141203128Y-92238922D01*
X141225737Y-92233258D01*
X141248792Y-92229839D01*
X141272071Y-92228695D01*
X141747071Y-92228695D01*
X141770350Y-92229839D01*
X141770350Y-92229839D01*
G37*
D14*
X141509571Y-92753695D03*
G04 #@! TD*
D13*
G04 #@! TO.C,R12*
G36*
X131792405Y-89733310D02*
X131815460Y-89736729D01*
X131838069Y-89742393D01*
X131860013Y-89750245D01*
X131881083Y-89760210D01*
X131901074Y-89772192D01*
X131919794Y-89786076D01*
X131937064Y-89801728D01*
X131952716Y-89818998D01*
X131966600Y-89837718D01*
X131978582Y-89857709D01*
X131988547Y-89878779D01*
X131996399Y-89900723D01*
X132002063Y-89923332D01*
X132005482Y-89946387D01*
X132006626Y-89969666D01*
X132006626Y-90544666D01*
X132005482Y-90567945D01*
X132002063Y-90591000D01*
X131996399Y-90613609D01*
X131988547Y-90635553D01*
X131978582Y-90656623D01*
X131966600Y-90676614D01*
X131952716Y-90695334D01*
X131937064Y-90712604D01*
X131919794Y-90728256D01*
X131901074Y-90742140D01*
X131881083Y-90754122D01*
X131860013Y-90764087D01*
X131838069Y-90771939D01*
X131815460Y-90777603D01*
X131792405Y-90781022D01*
X131769126Y-90782166D01*
X131294126Y-90782166D01*
X131270847Y-90781022D01*
X131247792Y-90777603D01*
X131225183Y-90771939D01*
X131203239Y-90764087D01*
X131182169Y-90754122D01*
X131162178Y-90742140D01*
X131143458Y-90728256D01*
X131126188Y-90712604D01*
X131110536Y-90695334D01*
X131096652Y-90676614D01*
X131084670Y-90656623D01*
X131074705Y-90635553D01*
X131066853Y-90613609D01*
X131061189Y-90591000D01*
X131057770Y-90567945D01*
X131056626Y-90544666D01*
X131056626Y-89969666D01*
X131057770Y-89946387D01*
X131061189Y-89923332D01*
X131066853Y-89900723D01*
X131074705Y-89878779D01*
X131084670Y-89857709D01*
X131096652Y-89837718D01*
X131110536Y-89818998D01*
X131126188Y-89801728D01*
X131143458Y-89786076D01*
X131162178Y-89772192D01*
X131182169Y-89760210D01*
X131203239Y-89750245D01*
X131225183Y-89742393D01*
X131247792Y-89736729D01*
X131270847Y-89733310D01*
X131294126Y-89732166D01*
X131769126Y-89732166D01*
X131792405Y-89733310D01*
X131792405Y-89733310D01*
G37*
D14*
X131531626Y-90257166D03*
D13*
G36*
X131792405Y-87983310D02*
X131815460Y-87986729D01*
X131838069Y-87992393D01*
X131860013Y-88000245D01*
X131881083Y-88010210D01*
X131901074Y-88022192D01*
X131919794Y-88036076D01*
X131937064Y-88051728D01*
X131952716Y-88068998D01*
X131966600Y-88087718D01*
X131978582Y-88107709D01*
X131988547Y-88128779D01*
X131996399Y-88150723D01*
X132002063Y-88173332D01*
X132005482Y-88196387D01*
X132006626Y-88219666D01*
X132006626Y-88794666D01*
X132005482Y-88817945D01*
X132002063Y-88841000D01*
X131996399Y-88863609D01*
X131988547Y-88885553D01*
X131978582Y-88906623D01*
X131966600Y-88926614D01*
X131952716Y-88945334D01*
X131937064Y-88962604D01*
X131919794Y-88978256D01*
X131901074Y-88992140D01*
X131881083Y-89004122D01*
X131860013Y-89014087D01*
X131838069Y-89021939D01*
X131815460Y-89027603D01*
X131792405Y-89031022D01*
X131769126Y-89032166D01*
X131294126Y-89032166D01*
X131270847Y-89031022D01*
X131247792Y-89027603D01*
X131225183Y-89021939D01*
X131203239Y-89014087D01*
X131182169Y-89004122D01*
X131162178Y-88992140D01*
X131143458Y-88978256D01*
X131126188Y-88962604D01*
X131110536Y-88945334D01*
X131096652Y-88926614D01*
X131084670Y-88906623D01*
X131074705Y-88885553D01*
X131066853Y-88863609D01*
X131061189Y-88841000D01*
X131057770Y-88817945D01*
X131056626Y-88794666D01*
X131056626Y-88219666D01*
X131057770Y-88196387D01*
X131061189Y-88173332D01*
X131066853Y-88150723D01*
X131074705Y-88128779D01*
X131084670Y-88107709D01*
X131096652Y-88087718D01*
X131110536Y-88068998D01*
X131126188Y-88051728D01*
X131143458Y-88036076D01*
X131162178Y-88022192D01*
X131182169Y-88010210D01*
X131203239Y-88000245D01*
X131225183Y-87992393D01*
X131247792Y-87986729D01*
X131270847Y-87983310D01*
X131294126Y-87982166D01*
X131769126Y-87982166D01*
X131792405Y-87983310D01*
X131792405Y-87983310D01*
G37*
D14*
X131531626Y-88507166D03*
G04 #@! TD*
D13*
G04 #@! TO.C,R13*
G36*
X132140350Y-92499839D02*
X132163405Y-92503258D01*
X132186014Y-92508922D01*
X132207958Y-92516774D01*
X132229028Y-92526739D01*
X132249019Y-92538721D01*
X132267739Y-92552605D01*
X132285009Y-92568257D01*
X132300661Y-92585527D01*
X132314545Y-92604247D01*
X132326527Y-92624238D01*
X132336492Y-92645308D01*
X132344344Y-92667252D01*
X132350008Y-92689861D01*
X132353427Y-92712916D01*
X132354571Y-92736195D01*
X132354571Y-93211195D01*
X132353427Y-93234474D01*
X132350008Y-93257529D01*
X132344344Y-93280138D01*
X132336492Y-93302082D01*
X132326527Y-93323152D01*
X132314545Y-93343143D01*
X132300661Y-93361863D01*
X132285009Y-93379133D01*
X132267739Y-93394785D01*
X132249019Y-93408669D01*
X132229028Y-93420651D01*
X132207958Y-93430616D01*
X132186014Y-93438468D01*
X132163405Y-93444132D01*
X132140350Y-93447551D01*
X132117071Y-93448695D01*
X131542071Y-93448695D01*
X131518792Y-93447551D01*
X131495737Y-93444132D01*
X131473128Y-93438468D01*
X131451184Y-93430616D01*
X131430114Y-93420651D01*
X131410123Y-93408669D01*
X131391403Y-93394785D01*
X131374133Y-93379133D01*
X131358481Y-93361863D01*
X131344597Y-93343143D01*
X131332615Y-93323152D01*
X131322650Y-93302082D01*
X131314798Y-93280138D01*
X131309134Y-93257529D01*
X131305715Y-93234474D01*
X131304571Y-93211195D01*
X131304571Y-92736195D01*
X131305715Y-92712916D01*
X131309134Y-92689861D01*
X131314798Y-92667252D01*
X131322650Y-92645308D01*
X131332615Y-92624238D01*
X131344597Y-92604247D01*
X131358481Y-92585527D01*
X131374133Y-92568257D01*
X131391403Y-92552605D01*
X131410123Y-92538721D01*
X131430114Y-92526739D01*
X131451184Y-92516774D01*
X131473128Y-92508922D01*
X131495737Y-92503258D01*
X131518792Y-92499839D01*
X131542071Y-92498695D01*
X132117071Y-92498695D01*
X132140350Y-92499839D01*
X132140350Y-92499839D01*
G37*
D14*
X131829571Y-92973695D03*
D13*
G36*
X133890350Y-92499839D02*
X133913405Y-92503258D01*
X133936014Y-92508922D01*
X133957958Y-92516774D01*
X133979028Y-92526739D01*
X133999019Y-92538721D01*
X134017739Y-92552605D01*
X134035009Y-92568257D01*
X134050661Y-92585527D01*
X134064545Y-92604247D01*
X134076527Y-92624238D01*
X134086492Y-92645308D01*
X134094344Y-92667252D01*
X134100008Y-92689861D01*
X134103427Y-92712916D01*
X134104571Y-92736195D01*
X134104571Y-93211195D01*
X134103427Y-93234474D01*
X134100008Y-93257529D01*
X134094344Y-93280138D01*
X134086492Y-93302082D01*
X134076527Y-93323152D01*
X134064545Y-93343143D01*
X134050661Y-93361863D01*
X134035009Y-93379133D01*
X134017739Y-93394785D01*
X133999019Y-93408669D01*
X133979028Y-93420651D01*
X133957958Y-93430616D01*
X133936014Y-93438468D01*
X133913405Y-93444132D01*
X133890350Y-93447551D01*
X133867071Y-93448695D01*
X133292071Y-93448695D01*
X133268792Y-93447551D01*
X133245737Y-93444132D01*
X133223128Y-93438468D01*
X133201184Y-93430616D01*
X133180114Y-93420651D01*
X133160123Y-93408669D01*
X133141403Y-93394785D01*
X133124133Y-93379133D01*
X133108481Y-93361863D01*
X133094597Y-93343143D01*
X133082615Y-93323152D01*
X133072650Y-93302082D01*
X133064798Y-93280138D01*
X133059134Y-93257529D01*
X133055715Y-93234474D01*
X133054571Y-93211195D01*
X133054571Y-92736195D01*
X133055715Y-92712916D01*
X133059134Y-92689861D01*
X133064798Y-92667252D01*
X133072650Y-92645308D01*
X133082615Y-92624238D01*
X133094597Y-92604247D01*
X133108481Y-92585527D01*
X133124133Y-92568257D01*
X133141403Y-92552605D01*
X133160123Y-92538721D01*
X133180114Y-92526739D01*
X133201184Y-92516774D01*
X133223128Y-92508922D01*
X133245737Y-92503258D01*
X133268792Y-92499839D01*
X133292071Y-92498695D01*
X133867071Y-92498695D01*
X133890350Y-92499839D01*
X133890350Y-92499839D01*
G37*
D14*
X133579571Y-92973695D03*
G04 #@! TD*
D15*
G04 #@! TO.C,SW2*
X132020000Y-101830000D03*
X139820000Y-101830000D03*
G04 #@! TD*
M02*
