M48
;DRILL file {KiCad 5.0.2-bee76a0~70~ubuntu18.04.1} date Sat 18 Jul 2020 11:39:58 PM PDT
;FORMAT={-:-/ absolute / inch / decimal}
FMAT,2
INCH,TZ
T1C0.0079
T2C0.0197
%
G90
G05
T1
X4.748Y-3.6772
X4.748Y-3.8209
X4.7693Y-4.2555
X4.7697Y-4.1394
X4.8465Y-4.1004
X4.8504Y-3.5787
X4.8642Y-3.685
X4.9154Y-4.2343
X4.9409Y-3.002
X4.9587Y-3.9528
X4.9882Y-4.2362
X4.998Y-3.4193
X5.Y-2.939
X5.0059Y-3.5453
X5.0689Y-3.3504
X5.0689Y-3.5413
X5.0768Y-3.6024
X5.0846Y-3.2795
X5.0902Y-3.1004
X5.1122Y-2.6909
X5.1122Y-2.7776
X5.128Y-3.2382
X5.1319Y-3.5886
X5.1356Y-3.3445
X5.1516Y-3.6988
X5.1575Y-3.437
X5.161Y-3.9496
X5.187Y-3.376
X5.1969Y-3.0413
X5.1972Y-3.8268
X5.1972Y-3.8815
X5.2146Y-3.2087
X5.2529Y-3.3524
X5.2579Y-3.9134
X5.2756Y-3.1476
X5.2835Y-3.248
X5.2953Y-3.5335
X5.3051Y-3.002
X5.3406Y-2.9587
X5.3638Y-3.2051
X5.3661Y-3.0768
X5.3719Y-3.376
X5.3719Y-3.4587
X5.372Y-3.4213
X5.3738Y-3.2815
X5.374Y-3.3228
X5.3817Y-3.6575
X5.4154Y-3.1634
X5.4547Y-4.1437
X5.4567Y-3.1535
X5.4685Y-3.7362
X5.4744Y-3.185
X5.4902Y-3.1535
X5.5079Y-3.7795
X5.5256Y-3.0177
X5.5293Y-3.1535
X5.553Y-3.0512
X5.5608Y-4.0709
X5.596Y-3.6083
X5.6024Y-3.5098
X5.6496Y-4.1083
X5.6535Y-3.4941
X5.7067Y-3.315
X5.7185Y-3.4862
X5.7185Y-3.7539
X5.7244Y-3.0236
X5.7303Y-3.1102
X5.7972Y-4.0551
X5.8051Y-3.2047
X5.8642Y-3.8091
X5.874Y-3.1004
X5.9213Y-3.0098
X5.9429Y-3.2972
X5.9705Y-3.1102
X5.9744Y-2.8465
X5.9902Y-3.2047
X6.0059Y-3.3484
X6.0335Y-3.2559
X6.0417Y-4.5035
X6.053Y-4.3839
X6.053Y-4.4272
X6.0531Y-4.2126
X6.0531Y-4.2539
X6.0551Y-3.124
X6.0748Y-3.3937
X6.0787Y-3.0846
X6.0866Y-3.3366
X6.112Y-3.2047
X6.126Y-3.1634
X6.1276Y-2.7035
X6.2126Y-2.8445
X6.2303Y-2.7067
X6.2439Y-3.4508
X6.2736Y-3.3209
X6.2953Y-2.6437
X6.2953Y-2.7697
X6.3028Y-2.9098
X6.376Y-3.8976
X6.3915Y-3.6476
X6.3996Y-3.9961
X6.4055Y-4.1457
X6.4291Y-2.7835
X6.4331Y-4.1791
X6.4644Y-4.3002
X6.4646Y-4.3445
X6.4646Y-4.3829
X6.4646Y-4.4232
X6.4646Y-4.4685
X6.4646Y-4.5157
X6.5236Y-3.626
X6.547Y-3.4272
X6.563Y-2.6437
X6.5667Y-4.0925
X6.5886Y-3.5748
X6.6161Y-3.7559
T2
X6.154Y-3.0635
X6.154Y-3.1029
X6.1934Y-3.0635
X6.1934Y-3.1029
X5.1772Y-3.1594
X5.1772Y-3.1988
X5.1772Y-3.2382
X6.1521Y-3.2642
X6.1521Y-3.3035
X6.1915Y-3.2642
X6.1915Y-3.3035
X6.1521Y-3.4942
X6.1521Y-3.5335
X6.1521Y-3.5729
X6.1521Y-3.6123
X6.1521Y-3.6517
X6.1915Y-3.4942
X6.1915Y-3.5335
X6.1915Y-3.5729
X6.1915Y-3.6123
X6.1915Y-3.6517
T0
M30
